<svg width="32" height="23" viewBox="0 0 32 23" fill="none" xmlns="http://www.w3.org/2000/svg">
<path d="M27.076 1.91144C25.0493 1.02042 22.855 0.373718 20.5692 6.61051e-05C20.5492 -0.000538354 20.5292 0.00300859 20.5108 0.0104576C20.4924 0.0179066 20.4759 0.0290768 20.4625 0.0431801C20.1882 0.517431 19.8682 1.13539 19.6549 1.60964C17.2304 1.26474 14.7648 1.26474 12.3404 1.60964C12.1271 1.12102 11.8071 0.517431 11.5175 0.0431801C11.5023 0.0144376 11.4566 6.61051e-05 11.4108 6.61051e-05C9.12507 0.373718 6.94596 1.02042 4.904 1.91144C4.88877 1.91144 4.87353 1.92581 4.85829 1.94018C0.713413 7.78928 -0.429476 13.4803 0.134349 19.1138C0.134349 19.1426 0.149587 19.1713 0.180064 19.1857C2.923 21.0827 5.55926 22.2324 8.16505 22.994C8.21076 23.0084 8.25648 22.994 8.27172 22.9653C8.88126 22.1749 9.42984 21.3414 9.90224 20.4647C9.93271 20.4072 9.90224 20.3497 9.84128 20.3354C8.97269 20.0192 8.14981 19.6456 7.34217 19.2144C7.28121 19.1857 7.28121 19.0994 7.32693 19.0563C7.49455 18.9414 7.66218 18.812 7.8298 18.697C7.86028 18.6683 7.90599 18.6683 7.93647 18.6827C13.1785 20.939 18.832 20.939 24.0131 18.6827C24.0436 18.6683 24.0893 18.6683 24.1198 18.697C24.2874 18.8264 24.455 18.9414 24.6226 19.0707C24.6836 19.1138 24.6836 19.2 24.6074 19.2288C23.815 19.6743 22.9769 20.0336 22.1083 20.3497C22.0473 20.3641 22.0321 20.436 22.0473 20.4791C22.535 21.3557 23.0836 22.1893 23.6779 22.9797C23.7236 22.994 23.7693 23.0084 23.815 22.994C26.436 22.2324 29.0723 21.0827 31.8152 19.1857C31.8457 19.1713 31.8609 19.1426 31.8609 19.1138C32.5314 12.6036 30.7485 6.95575 27.137 1.94018C27.1218 1.92581 27.1065 1.91144 27.076 1.91144ZM10.6946 15.6791C9.12507 15.6791 7.81456 14.3138 7.81456 12.6324C7.81456 10.9509 9.0946 9.58568 10.6946 9.58568C12.3099 9.58568 13.59 10.9653 13.5747 12.6324C13.5747 14.3138 12.2947 15.6791 10.6946 15.6791ZM21.3159 15.6791C19.7463 15.6791 18.4358 14.3138 18.4358 12.6324C18.4358 10.9509 19.7158 9.58568 21.3159 9.58568C22.9312 9.58568 24.2112 10.9653 24.196 12.6324C24.196 14.3138 22.9312 15.6791 21.3159 15.6791Z" fill="white"/>
</svg>