<svg width="57" height="75" viewBox="0 0 57 75" fill="none" xmlns="http://www.w3.org/2000/svg">
<path d="M44.2696 39.0926C44.2696 39.0926 40.1206 41.0113 48.2308 20.1437C48.2308 20.1437 50.7922 15.3711 50.6656 10.7685C50.6132 8.67975 48.7701 12.0984 47.8814 10.5897C47.4709 9.89853 47.2678 3.76973 46.6018 3.36201C46.0886 3.02843 45.3811 4.45216 44.8941 4.21451C43.9552 3.70214 43.2542 1.57199 42.4179 1.29073C41.9309 1.12067 40.9657 3.55824 40.5224 3.47103C40.0792 3.38381 38.4305 0.0654088 38.0309 0C36.177 0 36.2032 3.18977 35.6289 4.77484C34.5108 7.95371 33.4015 34.368 32.4014 36.7881C31.4013 39.2082 26.0164 39.5331 25.1953 37.2241C24.2891 34.6667 19.2186 25.9041 17.511 18.7113C16.6594 15.1051 15.3273 9.73501 12.4754 7.45006C10.9644 6.24 13.0214 9.29241 10.9119 9.2161C9.87907 9.2161 6.64507 4.3148 5.48336 4.63748C4.55312 4.89258 6.81539 11.6689 5.79999 12.19C4.94617 12.6413 0.736066 7.30616 0.198884 8.54239C-0.194176 9.39488 0.0875244 12.9815 0.260034 14.1588C0.432543 15.3362 -0.39508 19.6728 0.864895 21.1488C0.864895 21.1488 6.20177 25.9891 8.10375 29.0415C9.44452 31.1891 12.4318 36.5592 14.0804 39.5418C14.3842 40.0892 14.4814 40.7272 14.3544 41.34C14.2274 41.9528 13.8846 42.4999 13.3882 42.882C10.3486 45.228 4.79986 50.6896 6.81539 58.144C7.79804 61.7677 8.24132 68.2279 10.4949 70.3929C11.4928 71.3566 14.1656 68.568 15.1548 69.2679C15.906 69.789 16.5982 73.1924 17.2642 73.5718C19.2448 74.723 20.6795 72.2942 20.6795 72.2942C24.6038 73.5494 28.7427 73.9945 32.8447 73.6023C34.7903 73.4323 37.4107 75.5123 39.614 74.88C41.1426 74.4439 42.1755 71.4722 43.822 70.7134C46.3103 69.7345 48.6789 68.4756 50.8818 66.9611C65.8595 55.6171 49.2484 38.4168 44.2696 39.0926ZM44.7478 58.0241C41.9746 61.1681 31.9778 64.722 25.8395 63.9218C20.983 63.2917 16.3733 61.3643 13.6109 58.4318L16.7598 53.8031L21.9678 61.4755L25.2805 54.7581L30.8881 62.0642L33.5915 54.1367L39.0812 59.2669L41.2911 50.9578L46.5843 55.338C46.0768 56.2997 45.4606 57.2002 44.7478 58.022V58.0241ZM46.9774 54.5553L40.8172 49.4469L38.6227 57.6709L33.2072 52.6105L30.6042 60.2829L25.1232 53.1468L21.8477 59.7793L16.7598 52.2878L13.0301 57.7669C12.5596 57.1922 12.156 56.5661 11.8269 55.9005C9.80265 51.758 10.8879 49.449 13.6699 50.3015C31.2484 55.4841 45.7851 44.4627 47.5014 46.7978C48.7854 48.5093 48.3094 51.7056 46.9774 54.5531V54.5553Z" fill="#E72A70"/>
<path d="M46.9774 54.5531L40.8172 49.4469L38.6227 57.6709L33.2072 52.6105L30.6042 60.2829L25.1232 53.1468L21.8477 59.7793L16.7598 52.2878L13.0301 57.7669C12.5596 57.1922 12.156 56.5661 11.8269 55.9005C9.80265 51.758 10.8879 49.449 13.6699 50.3015C31.2484 55.4841 45.7851 44.4627 47.5014 46.7978C48.7854 48.5093 48.3094 51.7056 46.9774 54.5531Z" fill="white"/>
<path d="M46.5843 55.3358C46.0769 56.2983 45.4607 57.1995 44.7478 58.022C41.9746 61.1659 31.9777 64.7198 25.8394 63.9196C20.983 63.2895 16.3733 61.3622 13.6109 58.4297L16.7598 53.8009L21.9678 61.4733L25.2804 54.7559L30.8881 62.062L33.5915 54.1367L39.0812 59.2669L41.2911 50.9578L46.5843 55.3358Z" fill="white"/>
</svg>