<svg width="244" height="56" viewBox="0 0 244 56" fill="none" xmlns="http://www.w3.org/2000/svg">
<path d="M26.74 43.1C26.66 43.1 26.54 43.14 26.38 43.22C26.26 43.34 26.16 43.4 26.08 43.4C26 43.48 25.9 43.54 25.78 43.58C25.7 43.66 25.66 43.74 25.66 43.82V47.72H25.36C25.36 47.56 25.32 47.28 25.24 46.88C25.2 46.48 25.14 46.04 25.06 45.56C25.02 45.12 24.96 44.7 24.88 44.3C24.8 43.9 24.76 43.6 24.76 43.4C24.76 43.36 24.72 43.24 24.64 43.04C24.56 42.88 24.46 42.68 24.34 42.44C24.26 42.2 24.16 41.96 24.04 41.72C23.92 41.48 23.82 41.28 23.74 41.12C23.66 41 23.54 40.8 23.38 40.52C23.26 40.2 23.12 39.88 22.96 39.56C22.8 39.2 22.64 38.86 22.48 38.54C22.32 38.22 22.2 38 22.12 37.88C22.12 37.8 22 37.56 21.76 37.16C21.56 36.76 21.38 36.46 21.22 36.26C21.1 36.1 20.82 35.68 20.38 35C19.94 34.28 19.46 33.52 18.94 32.72C18.42 31.92 17.94 31.18 17.5 30.5C17.06 29.82 16.78 29.4 16.66 29.24C16.62 29.12 16.5 28.9 16.3 28.58C16.1 28.26 15.88 27.92 15.64 27.56C15.44 27.2 15.24 26.86 15.04 26.54C14.88 26.18 14.78 25.94 14.74 25.82C14.66 25.78 14.52 25.64 14.32 25.4C14.12 25.16 14.02 25 14.02 24.92H13.96H13.78C13.74 25.08 13.68 25.38 13.6 25.82C13.56 26.26 13.5 26.72 13.42 27.2C13.34 27.68 13.26 28.16 13.18 28.64C13.14 29.08 13.12 29.38 13.12 29.54C13.04 29.86 12.94 30.34 12.82 30.98C12.74 31.62 12.7 31.98 12.7 32.06C12.7 32.18 12.7 32.46 12.7 32.9C12.74 33.34 12.76 33.82 12.76 34.34C12.76 34.86 12.76 35.34 12.76 35.78C12.76 36.22 12.74 36.5 12.7 36.62C12.7 36.74 12.68 36.88 12.64 37.04C12.6 37.16 12.56 37.28 12.52 37.4C12.48 37.48 12.44 37.56 12.4 37.64C12.36 37.68 12.34 37.72 12.34 37.76C12.34 37.8 12.32 37.86 12.28 37.94C12.24 38.02 12.2 38.12 12.16 38.24C12.08 38.36 11.94 38.52 11.74 38.72C11.54 38.92 11.32 39.12 11.08 39.32C10.88 39.52 10.68 39.7 10.48 39.86C10.32 40.02 10.22 40.12 10.18 40.16C10.1 40.24 9.88 40.36 9.52 40.52C9.2 40.68 8.96 40.8 8.8 40.88H8.56H8.26C8.18 40.88 8.06 40.78 7.9 40.58C7.74 40.38 7.62 40.24 7.54 40.16C7.5 40.16 7.44 40.08 7.36 39.92C7.32 39.72 7.26 39.58 7.18 39.5L5.92 35.72C5.84 35.4 5.62 34.68 5.26 33.56C4.9 32.4 4.52 31.16 4.12 29.84C3.72 28.52 3.34 27.3 2.98 26.18C2.62 25.02 2.4 24.28 2.32 23.96C2.28 23.8 2.2 23.56 2.08 23.24C1.96 22.88 1.82 22.52 1.66 22.16C1.54 21.76 1.42 21.4 1.3 21.08C1.18 20.76 1.1 20.54 1.06 20.42C1.06 20.38 0.96 20.22 0.76 19.94C0.56 19.62 0.46 19.42 0.46 19.34V18.56V17.48C0.5 17.4 0.54 17.3 0.58 17.18C0.66 17.02 0.7 16.9 0.7 16.82C0.86 16.7 1.06 16.46 1.3 16.1C1.54 15.74 1.7 15.56 1.78 15.56C1.78 15.52 1.94 15.38 2.26 15.14C2.58 14.86 2.82 14.64 2.98 14.48C3.02 14.48 3.16 14.44 3.4 14.36C3.52 14.32 3.62 14.28 3.7 14.24H4.24H4.6C4.68 14.24 4.8 14.34 4.96 14.54C5.12 14.74 5.24 14.88 5.32 14.96C5.36 15 5.46 15.22 5.62 15.62C5.78 16.02 5.88 16.34 5.92 16.58C6.04 16.86 6.24 17.42 6.52 18.26C6.8 19.06 7.08 19.94 7.36 20.9C7.68 21.82 7.96 22.7 8.2 23.54C8.48 24.38 8.68 24.96 8.8 25.28C8.88 25.16 8.96 24.84 9.04 24.32C9.12 23.8 9.16 23.46 9.16 23.3C9.16 23.26 9.18 23.12 9.22 22.88C9.26 22.6 9.28 22.3 9.28 21.98C9.32 21.66 9.36 21.36 9.4 21.08C9.44 20.76 9.46 20.54 9.46 20.42C9.5 20.34 9.54 20.12 9.58 19.76C9.62 19.4 9.64 19.02 9.64 18.62C9.68 18.22 9.72 17.84 9.76 17.48C9.8 17.12 9.84 16.9 9.88 16.82C9.88 16.7 9.9 16.54 9.94 16.34C9.98 16.1 10 15.86 10 15.62C10.04 15.38 10.08 15.16 10.12 14.96C10.16 14.72 10.18 14.56 10.18 14.48L10.54 13.94C10.62 13.74 10.78 13.5 11.02 13.22C11.26 12.9 11.42 12.7 11.5 12.62C11.58 12.54 11.78 12.38 12.1 12.14C12.42 11.9 12.62 11.76 12.7 11.72C12.78 11.64 12.94 11.56 13.18 11.48C13.42 11.4 13.62 11.32 13.78 11.24H14.02H14.32C14.4 11.32 14.48 11.4 14.56 11.48C14.68 11.56 14.74 11.64 14.74 11.72C14.74 11.8 14.78 11.96 14.86 12.2C14.94 12.44 15.04 12.7 15.16 12.98C15.28 13.26 15.38 13.52 15.46 13.76C15.58 14 15.64 14.16 15.64 14.24C15.76 14.52 16 15.04 16.36 15.8C16.72 16.52 17.1 17.3 17.5 18.14C17.94 18.98 18.34 19.78 18.7 20.54C19.1 21.26 19.4 21.76 19.6 22.04C19.6 22.08 19.66 22.24 19.78 22.52C19.94 22.76 20.12 23.06 20.32 23.42C20.56 23.74 20.78 24.08 20.98 24.44C21.22 24.76 21.4 25.04 21.52 25.28C21.56 25.36 21.66 25.52 21.82 25.76C21.98 26 22.14 26.26 22.3 26.54C22.46 26.82 22.62 27.1 22.78 27.38C22.94 27.62 23.06 27.8 23.14 27.92C23.14 28 23.16 28.1 23.2 28.22C23.28 28.3 23.36 28.38 23.44 28.46C23.52 28.58 23.62 28.7 23.74 28.82C23.74 28.9 23.78 28.98 23.86 29.06C23.98 29.1 24.04 29.16 24.04 29.24V27.98V26.9C24.04 26.62 24.02 26.04 23.98 25.16C23.94 24.24 23.88 23.24 23.8 22.16C23.76 21.08 23.7 20.04 23.62 19.04C23.58 18.04 23.54 17.3 23.5 16.82C23.46 16.7 23.42 16.46 23.38 16.1C23.34 15.74 23.3 15.38 23.26 15.02C23.26 14.62 23.24 14.26 23.2 13.94C23.16 13.62 23.14 13.42 23.14 13.34C23.14 13.1 23.08 12.74 22.96 12.26C22.88 11.74 22.84 11.4 22.84 11.24L22.72 11C22.6 10.8 22.5 10.7 22.42 10.7C22.34 10.78 22.14 10.96 21.82 11.24C21.5 11.48 21.3 11.64 21.22 11.72C21.14 11.76 20.98 11.86 20.74 12.02C20.5 12.18 20.34 12.28 20.26 12.32C20.18 12.32 20.1 12.34 20.02 12.38C19.98 12.42 19.92 12.46 19.84 12.5L19.6 12.62H19.06H18.64C18.56 12.62 18.48 12.58 18.4 12.5C18.36 12.46 18.32 12.4 18.28 12.32V11.78V11.24C18.4 11.08 18.5 10.92 18.58 10.76C18.66 10.64 18.72 10.52 18.76 10.4C18.8 10.28 18.84 10.18 18.88 10.1C18.96 9.94 19.08 9.74 19.24 9.5C19.4 9.22 19.52 9.06 19.6 9.02C19.72 8.9 19.92 8.7 20.2 8.42C20.52 8.1 20.84 7.78 21.16 7.46C21.48 7.14 21.76 6.86 22 6.62C22.24 6.38 22.38 6.22 22.42 6.14C22.54 5.98 22.86 5.8 23.38 5.6C23.9 5.36 24.26 5.24 24.46 5.24C24.54 5.24 24.64 5.22 24.76 5.18C24.92 5.1 25.04 5.06 25.12 5.06C25.16 5.06 25.34 5.1 25.66 5.18C25.78 5.22 25.92 5.24 26.08 5.24C26.16 5.24 26.26 5.26 26.38 5.3C26.54 5.34 26.66 5.4 26.74 5.48C26.74 5.56 26.84 5.72 27.04 5.96C27.24 6.2 27.38 6.34 27.46 6.38C27.46 6.46 27.48 6.64 27.52 6.92C27.56 7.16 27.62 7.32 27.7 7.4C27.7 7.52 27.74 7.8 27.82 8.24C27.94 8.68 28 8.94 28 9.02C28.04 9.3 28.08 9.78 28.12 10.46C28.2 11.14 28.28 11.56 28.36 11.72C28.4 12.56 28.48 13.76 28.6 15.32C28.72 16.84 28.82 18.4 28.9 20C29.02 21.6 29.12 23.04 29.2 24.32C29.28 25.56 29.32 26.3 29.32 26.54V33.32V39.86C29.24 39.94 29.12 40.16 28.96 40.52C28.8 40.84 28.68 41.04 28.6 41.12C28.6 41.2 28.5 41.38 28.3 41.66C28.14 41.94 28.04 42.12 28 42.2L27.7 42.74C27.7 42.86 27.72 43.08 27.76 43.4C27.8 43.76 27.82 44.14 27.82 44.54C27.86 44.94 27.9 45.3 27.94 45.62C27.98 45.98 28 46.22 28 46.34C28 46.42 28 46.6 28 46.88C28 47.2 28 47.54 28 47.9C28.04 48.26 28.06 48.62 28.06 48.98C28.06 49.38 28.06 49.68 28.06 49.88C28.06 50 28.06 50.18 28.06 50.42C28.06 50.7 28.04 50.96 28 51.2C28 51.44 28 51.66 28 51.86C28 52.06 28 52.18 28 52.22L27.7 52.82C27.62 52.62 27.56 52.2 27.52 51.56C27.48 50.92 27.46 50.5 27.46 50.3C27.42 50.18 27.36 49.86 27.28 49.34C27.24 48.82 27.2 48.26 27.16 47.66C27.12 47.06 27.08 46.5 27.04 45.98C27 45.46 26.98 45.14 26.98 45.02C26.98 44.86 26.94 44.54 26.86 44.06C26.78 43.58 26.74 43.26 26.74 43.1ZM29.4709 3.98C29.5109 3.9 29.5509 3.8 29.5909 3.68C29.6709 3.44 29.7109 3.3 29.7109 3.26C29.7909 3.18 29.9109 3.02 30.0709 2.78C30.2709 2.54 30.3709 2.4 30.3709 2.36C30.4509 2.28 30.6109 2.12 30.8509 1.88C31.0909 1.6 31.2509 1.42 31.3309 1.34C31.4109 1.3 31.5909 1.2 31.8709 1.04C32.1509 0.84 32.3309 0.74 32.4109 0.74C32.4109 0.659998 32.5309 0.579998 32.7709 0.499999C33.0109 0.419998 33.1909 0.339998 33.3109 0.259999H33.4909H33.6109L34.3309 0.979997C34.3709 1.06 34.4109 1.18 34.4509 1.34C34.5309 1.46 34.5709 1.56 34.5709 1.64C34.6509 1.76 34.7309 2.08 34.8109 2.6C34.8909 3.08 34.9309 3.38 34.9309 3.5C34.9309 3.66 34.9309 4.14 34.9309 4.94C34.9709 5.7 34.9909 6.66 34.9909 7.82C35.0309 8.94 35.0509 10.14 35.0509 11.42C35.0909 12.7 35.1109 13.9 35.1109 15.02C35.1509 16.14 35.1709 17.1 35.1709 17.9C35.2109 18.7 35.2309 19.16 35.2309 19.28C35.3509 19.24 35.5109 19.14 35.7109 18.98C35.9109 18.78 36.1309 18.58 36.3709 18.38C36.6109 18.14 36.8309 17.94 37.0309 17.78C37.2709 17.62 37.4509 17.5 37.5709 17.42C37.6109 17.34 37.7509 17.22 37.9909 17.06C38.2309 16.9 38.3909 16.78 38.4709 16.7C38.5509 16.7 38.6709 16.66 38.8309 16.58C38.9909 16.46 39.1109 16.4 39.1909 16.4C39.2709 16.4 39.3509 16.38 39.4309 16.34C39.5509 16.3 39.6509 16.26 39.7309 16.22C39.8509 16.18 39.9709 16.12 40.0909 16.04H41.3509H42.4309L43.7509 16.7C43.9109 16.82 44.1909 17.08 44.5909 17.48C44.9909 17.88 45.2509 18.16 45.3709 18.32C45.4509 18.4 45.6109 18.66 45.8509 19.1C46.0909 19.5 46.2309 19.78 46.2709 19.94C46.3109 20.02 46.3709 20.16 46.4509 20.36C46.5709 20.56 46.6709 20.78 46.7509 21.02C46.8709 21.26 46.9709 21.5 47.0509 21.74C47.1709 21.98 47.2509 22.16 47.2909 22.28C47.2909 22.36 47.3309 22.52 47.4109 22.76C47.5309 23 47.6309 23.28 47.7109 23.6C47.8309 23.88 47.9309 24.18 48.0109 24.5C48.0909 24.82 48.1509 25.06 48.1909 25.22C48.2309 25.3 48.2909 25.44 48.3709 25.64C48.4509 25.84 48.5309 26.06 48.6109 26.3C48.6909 26.5 48.7509 26.7 48.7909 26.9C48.8709 27.1 48.9109 27.26 48.9109 27.38C48.9109 27.54 48.9909 27.94 49.1509 28.58C49.3109 29.18 49.4709 29.84 49.6309 30.56C49.8309 31.24 50.0109 31.9 50.1709 32.54C50.3709 33.14 50.4909 33.5 50.5309 33.62C50.5309 33.7 50.5709 33.84 50.6509 34.04C50.7309 34.24 50.7909 34.48 50.8309 34.76C50.9109 35 50.9709 35.24 51.0109 35.48C51.0909 35.68 51.1309 35.8 51.1309 35.84C51.2109 36 51.2709 36.26 51.3109 36.62C51.3909 36.94 51.4309 37.14 51.4309 37.22V37.4V37.46C51.4309 37.54 51.3509 37.76 51.1909 38.12C51.0709 38.44 50.9709 38.68 50.8909 38.84C50.8109 38.92 50.6909 39.08 50.5309 39.32C50.4109 39.56 50.3109 39.72 50.2309 39.8C50.1909 39.88 50.1509 39.94 50.1109 39.98C50.0309 40.06 49.9309 40.1 49.8109 40.1C49.7309 40.14 49.5709 40.24 49.3309 40.4C49.0909 40.56 48.9509 40.66 48.9109 40.7C48.7109 40.9 48.4709 41 48.1909 41C48.1509 41.04 48.0909 41.08 48.0109 41.12C47.9309 41.16 47.8109 41.18 47.6509 41.18C47.4509 41.18 47.3109 41.16 47.2309 41.12L46.9909 41C46.9509 41 46.9109 40.98 46.8709 40.94C46.8309 40.9 46.7709 40.88 46.6909 40.88C46.6509 40.84 46.6109 40.78 46.5709 40.7C46.5709 40.66 46.5109 40.56 46.3909 40.4C46.3109 40.24 46.2709 40.14 46.2709 40.1C46.2709 40.02 46.2309 39.86 46.1509 39.62C46.0709 39.34 46.0309 39.16 46.0309 39.08C45.9509 38.88 45.8109 38.4 45.6109 37.64C45.4109 36.88 45.2109 36.06 45.0109 35.18C44.8109 34.3 44.6109 33.48 44.4109 32.72C44.2109 31.96 44.0909 31.48 44.0509 31.28C43.9709 31.12 43.8509 30.76 43.6909 30.2C43.5309 29.6 43.4109 29.2 43.3309 29C43.2909 28.88 43.2309 28.7 43.1509 28.46C43.0709 28.18 42.9709 27.9 42.8509 27.62C42.7709 27.3 42.6709 27 42.5509 26.72C42.4709 26.44 42.4309 26.24 42.4309 26.12C42.4309 26 42.3309 25.74 42.1309 25.34C41.9309 24.94 41.7909 24.66 41.7109 24.5C41.7109 24.46 41.6909 24.42 41.6509 24.38C41.5709 24.3 41.5309 24.24 41.5309 24.2C41.4909 24.12 41.4509 24.02 41.4109 23.9C41.3709 23.82 41.2509 23.66 41.0509 23.42C40.8509 23.14 40.7109 22.96 40.6309 22.88V27.38C40.5509 27.3 40.4509 27.06 40.3309 26.66C40.2509 26.22 40.1709 25.92 40.0909 25.76C40.0909 25.64 40.0709 25.4 40.0309 25.04C39.9909 24.68 39.9509 24.3 39.9109 23.9C39.9109 23.46 39.8909 23.06 39.8509 22.7C39.8109 22.34 39.7909 22.1 39.7909 21.98C39.7509 21.9 39.6509 21.76 39.4909 21.56C39.3309 21.36 39.2309 21.26 39.1909 21.26C39.1109 21.22 38.9909 21.16 38.8309 21.08C38.6709 20.96 38.5509 20.9 38.4709 20.9C38.4709 20.98 38.3709 21.1 38.1709 21.26C38.0109 21.38 37.8909 21.48 37.8109 21.56C37.7309 21.76 37.6109 22.12 37.4509 22.64C37.3309 23.16 37.2709 23.48 37.2709 23.6V39.08C37.2709 39.16 37.2109 39.38 37.0909 39.74C37.0109 40.06 36.9309 40.3 36.8509 40.46C36.8509 40.54 36.7509 40.74 36.5509 41.06C36.3909 41.42 36.2709 41.64 36.1909 41.72C36.1109 41.84 35.8509 42.1 35.4109 42.5C35.0109 42.9 34.7309 43.18 34.5709 43.34C34.4909 43.38 34.3309 43.48 34.0909 43.64C33.8509 43.84 33.6909 43.94 33.6109 43.94H32.7709H31.9909L31.6909 43.7C31.6509 43.62 31.5909 43.5 31.5109 43.34C31.4709 43.22 31.4109 43.12 31.3309 43.04C31.3309 42.92 31.2909 42.7 31.2109 42.38C31.1309 42.06 31.0909 41.84 31.0909 41.72C31.0909 41.48 31.0309 41.04 30.9109 40.4C30.8309 39.76 30.7909 39.32 30.7909 39.08C30.7509 38.84 30.6909 38.46 30.6109 37.94C30.5709 37.42 30.5309 36.88 30.4909 36.32C30.4509 35.72 30.4109 35.18 30.3709 34.7C30.3709 34.18 30.3709 33.82 30.3709 33.62C30.3709 33.38 30.3509 32.92 30.3109 32.24C30.3109 31.52 30.2909 30.7 30.2509 29.78C30.2509 28.82 30.2309 27.82 30.1909 26.78C30.1909 25.7 30.1709 24.7 30.1309 23.78C30.1309 22.82 30.1109 22 30.0709 21.32C30.0709 20.64 30.0709 20.18 30.0709 19.94C30.0709 19.86 30.0509 19.48 30.0109 18.8C30.0109 18.08 29.9909 17.24 29.9509 16.28C29.9509 15.28 29.9309 14.22 29.8909 13.1C29.8909 11.94 29.8709 10.86 29.8309 9.86C29.8309 8.86 29.8109 8.02 29.7709 7.34C29.7309 6.66 29.7109 6.28 29.7109 6.2C29.6709 6.16 29.6509 6.12 29.6509 6.08C29.6509 6.04 29.6509 6.02 29.6509 6.02C29.6109 5.98 29.5909 5.94 29.5909 5.9C29.5509 5.82 29.5109 5.72 29.4709 5.6V4.76V3.98ZM53.6345 47.12V41.6C53.4745 41.52 53.2345 41.4 52.9145 41.24C52.6345 41.08 52.4145 40.96 52.2545 40.88C52.2145 40.76 52.1745 40.66 52.1345 40.58C52.0545 40.42 52.0145 40.32 52.0145 40.28C52.0145 40.2 51.9545 39.94 51.8345 39.5C51.7545 39.06 51.7145 38.78 51.7145 38.66C51.6745 38.54 51.6145 38.34 51.5345 38.06C51.4945 37.78 51.4545 37.5 51.4145 37.22C51.3745 36.9 51.3345 36.6 51.2945 36.32C51.2945 36 51.2945 35.78 51.2945 35.66C51.2545 35.18 51.1945 34.52 51.1145 33.68C51.0745 32.8 51.0145 31.92 50.9345 31.04C50.8945 30.12 50.8345 29.3 50.7545 28.58C50.7145 27.86 50.6745 27.44 50.6345 27.32V24.86V22.46C50.7145 22.3 50.8145 22.06 50.9345 21.74C51.0945 21.38 51.2145 21.16 51.2945 21.08C51.3745 21 51.5745 20.8 51.8945 20.48C52.2545 20.12 52.4945 19.9 52.6145 19.82C52.6945 19.7 52.8545 19.58 53.0945 19.46C53.3745 19.3 53.5545 19.22 53.6345 19.22C53.6745 19.22 53.8145 19.2 54.0545 19.16C54.2945 19.08 54.4545 19.04 54.5345 19.04C54.5745 19.04 54.7145 19.08 54.9545 19.16C55.0745 19.2 55.1745 19.22 55.2545 19.22L55.4945 19.82C55.5345 20.06 55.5745 20.52 55.6145 21.2C55.6545 21.84 55.6745 22.52 55.6745 23.24C55.7145 23.96 55.7545 24.64 55.7945 25.28C55.8345 25.92 55.8545 26.36 55.8545 26.6C55.8545 26.84 55.8745 27.3 55.9145 27.98C55.9945 28.66 56.0745 29.4 56.1545 30.2C56.2345 31 56.3145 31.76 56.3945 32.48C56.4745 33.2 56.5345 33.72 56.5745 34.04C56.5745 34.12 56.5945 34.28 56.6345 34.52C56.6745 34.76 56.6945 35.02 56.6945 35.3C56.7345 35.54 56.7745 35.76 56.8145 35.96C56.8545 36.16 56.8745 36.28 56.8745 36.32V37.04V37.64C56.8745 37.72 56.8145 37.9 56.6945 38.18C56.6145 38.42 56.5745 38.58 56.5745 38.66C56.4945 38.7 56.3545 38.86 56.1545 39.14C56.0345 39.3 55.9345 39.44 55.8545 39.56C55.7745 39.8 55.6545 40.04 55.4945 40.28C55.4945 40.6 55.4745 41.18 55.4345 42.02C55.3945 42.9 55.3345 43.82 55.2545 44.78C55.2145 45.74 55.1545 46.64 55.0745 47.48C55.0345 48.32 54.9945 48.92 54.9545 49.28C54.9545 49.36 54.8945 49.64 54.7745 50.12C54.6945 50.64 54.6145 51.04 54.5345 51.32C54.5345 51.48 54.4745 51.76 54.3545 52.16C54.2745 52.6 54.2345 52.86 54.2345 52.94C54.2345 53.02 54.1945 53.18 54.1145 53.42C54.0345 53.66 53.9545 53.8 53.8745 53.84V47.36L53.6345 47.12ZM50.5745 5.18C50.5745 5.14 50.5745 5.1 50.5745 5.06C50.6145 4.98 50.6345 4.92 50.6345 4.88C50.6345 4.84 50.6545 4.8 50.6945 4.76C50.7345 4.6 50.8745 4.38 51.1145 4.1C51.3945 3.82 51.5545 3.64 51.5945 3.56C51.6345 3.56 51.7345 3.52 51.8945 3.44C52.0945 3.32 52.2945 3.2 52.4945 3.08C52.7345 2.92 52.9545 2.78 53.1545 2.66C53.3545 2.54 53.5145 2.46 53.6345 2.42C53.7145 2.38 53.8345 2.36 53.9945 2.36C54.1545 2.36 54.2745 2.36 54.3545 2.36L54.7145 2.48C54.8345 2.52 54.9945 2.54 55.1945 2.54C55.3545 2.62 55.4945 2.68 55.6145 2.72C55.6945 2.76 55.7945 2.8 55.9145 2.84C55.9145 3.04 55.9345 3.22 55.9745 3.38C56.0545 3.78 56.1145 4.04 56.1545 4.16C56.1545 4.24 56.1545 4.42 56.1545 4.7C56.1945 4.98 56.2145 5.28 56.2145 5.6C56.2545 5.92 56.2945 6.24 56.3345 6.56C56.3745 6.88 56.3945 7.12 56.3945 7.28C56.3945 7.64 56.3945 8.14 56.3945 8.78C56.3945 9.38 56.3945 9.98 56.3945 10.58C56.4345 11.18 56.4545 11.72 56.4545 12.2C56.4945 12.68 56.5345 12.96 56.5745 13.04C56.5345 13.2 56.4945 13.34 56.4545 13.46C56.3745 13.7 56.3145 13.88 56.2745 14C56.2345 14.08 56.2145 14.18 56.2145 14.3C56.2145 14.38 56.1945 14.46 56.1545 14.54C56.1145 14.66 56.0745 14.76 56.0345 14.84C55.9145 14.92 55.7945 15.1 55.6745 15.38C55.5545 15.62 55.4545 15.74 55.3745 15.74C55.2945 15.78 55.1145 15.88 54.8345 16.04C54.5945 16.2 54.3145 16.36 53.9945 16.52C53.7145 16.68 53.4345 16.84 53.1545 17C52.8745 17.12 52.6745 17.2 52.5545 17.24C52.5545 17.32 52.4145 17.36 52.1345 17.36C51.8945 17.36 51.7145 17.4 51.5945 17.48L51.4745 17.42H51.2945C51.2545 17.34 51.1545 17.24 50.9945 17.12C50.8345 16.96 50.7745 16.84 50.8145 16.76C50.8545 16.72 50.8545 16.52 50.8145 16.16C50.8145 15.8 50.8145 15.6 50.8145 15.56C50.7745 15.28 50.7345 14.86 50.6945 14.3C50.6945 13.7 50.6945 13.1 50.6945 12.5C50.6945 11.86 50.6945 11.28 50.6945 10.76C50.6945 10.24 50.6945 9.9 50.6945 9.74C50.6945 9.66 50.6745 9.42 50.6345 9.02C50.5945 8.62 50.5545 8.2 50.5145 7.76C50.4745 7.28 50.4545 6.84 50.4545 6.44C50.4545 6.04 50.4545 5.8 50.4545 5.72C50.4545 5.64 50.4745 5.56 50.5145 5.48C50.5145 5.4 50.5145 5.34 50.5145 5.3C50.5545 5.26 50.5745 5.22 50.5745 5.18ZM66.7272 42.56C66.6072 42.44 66.3872 42.28 66.0672 42.08C65.7872 41.92 65.5872 41.8 65.4672 41.72C65.3872 41.68 65.2272 41.52 64.9872 41.24C64.7872 41 64.6472 40.84 64.5672 40.76C64.5272 40.64 64.4272 40.46 64.2672 40.22C64.1472 39.98 64.0672 39.78 64.0272 39.62C63.9472 39.5 63.8472 39.3 63.7272 39.02C63.6472 38.74 63.5472 38.46 63.4272 38.18C63.3072 37.9 63.1872 37.64 63.0672 37.4C62.9872 37.16 62.9272 37 62.8872 36.92C62.8872 36.84 62.8472 36.68 62.7672 36.44C62.7272 36.16 62.6672 35.88 62.5872 35.6C62.5072 35.28 62.4272 34.98 62.3472 34.7C62.2672 34.38 62.2072 34.16 62.1672 34.04C62.1672 33.92 62.1472 33.74 62.1072 33.5C62.1072 33.22 62.0672 32.94 61.9872 32.66C61.9472 32.34 61.9072 32.06 61.8672 31.82C61.8272 31.54 61.7872 31.36 61.7472 31.28C61.7472 31.2 61.7272 30.92 61.6872 30.44C61.6872 29.96 61.6872 29.62 61.6872 29.42C61.6872 29.34 61.6672 29.18 61.6272 28.94C61.6272 28.66 61.6272 28.38 61.6272 28.1C61.6272 27.78 61.6272 27.5 61.6272 27.26C61.6272 26.98 61.6272 26.8 61.6272 26.72C61.5472 26.6 61.4872 26.32 61.4472 25.88C61.4472 25.44 61.4072 25.18 61.3272 25.1H61.2072L61.0272 25.04C61.0272 25.04 60.9472 25.06 60.7872 25.1C60.6272 25.1 60.4472 25.12 60.2472 25.16C60.0872 25.16 59.9072 25.18 59.7072 25.22C59.5472 25.22 59.4472 25.22 59.4072 25.22C59.3672 25.22 59.2472 25.22 59.0472 25.22C58.8472 25.18 58.6672 25.16 58.5072 25.16C58.4272 25.16 58.3472 25.16 58.2672 25.16C58.2272 25.12 58.1672 25.1 58.0872 25.1H57.7872C57.7472 25.1 57.6472 25 57.4872 24.8C57.3672 24.6 57.2872 24.46 57.2472 24.38V24.2V24.14C57.2472 24.06 57.2872 23.9 57.3672 23.66C57.4872 23.38 57.5672 23.2 57.6072 23.12C57.6872 22.96 57.7672 22.84 57.8472 22.76C57.8872 22.68 57.9472 22.62 58.0272 22.58C58.1072 22.46 58.2672 22.28 58.5072 22.04C58.7872 21.8 59.0672 21.56 59.3472 21.32C59.6672 21.04 59.9672 20.8 60.2472 20.6C60.5272 20.4 60.7272 20.26 60.8472 20.18C60.8872 20.14 61.0272 20.04 61.2672 19.88C61.5472 19.72 61.7272 19.64 61.8072 19.64C61.8472 19.48 61.9272 19.18 62.0472 18.74C62.1672 18.3 62.2672 17.84 62.3472 17.36C62.4672 16.88 62.5672 16.44 62.6472 16.04C62.7672 15.6 62.8672 15.3 62.9472 15.14C62.9472 15.02 62.9672 14.86 63.0072 14.66C63.0472 14.42 63.0872 14.2 63.1272 14C63.1672 13.76 63.2272 13.52 63.3072 13.28C63.3872 13.04 63.5872 12.68 63.9072 12.2C64.2272 11.72 64.4472 11.42 64.5672 11.3C64.6472 11.26 64.8472 11.08 65.1672 10.76C65.4872 10.44 65.7272 10.28 65.8872 10.28C66.0072 10.2 66.2272 10.08 66.5472 9.92C66.9072 9.72 67.1472 9.62 67.2672 9.62C67.3472 9.66 67.4272 9.68 67.5072 9.68H67.8072L68.2872 9.74C68.3272 9.74 68.3672 9.78 68.4072 9.86C68.4472 9.94 68.5072 9.98 68.5872 9.98C68.5872 10.14 68.5672 10.46 68.5272 10.94C68.4872 11.42 68.4672 11.7 68.4672 11.78C68.4272 12.06 68.3872 12.44 68.3472 12.92C68.3072 13.36 68.2872 13.62 68.2872 13.7C68.2072 13.86 68.1272 14 68.0472 14.12C67.9272 14.36 67.8672 14.52 67.8672 14.6C67.8672 14.8 67.8472 15.12 67.8072 15.56C67.7672 16 67.7272 16.46 67.6872 16.94C67.6472 17.42 67.6072 17.88 67.5672 18.32C67.5272 18.72 67.5072 18.98 67.5072 19.1L68.0472 19.16C68.3272 19.12 68.7672 19.04 69.3672 18.92C69.9672 18.76 70.6072 18.6 71.2872 18.44C71.9672 18.28 72.6072 18.14 73.2072 18.02C73.8072 17.9 74.2272 17.8 74.4672 17.72C74.5872 17.68 74.7672 17.64 75.0072 17.6C75.2872 17.56 75.5472 17.5 75.7872 17.42C76.0672 17.34 76.3672 17.28 76.6872 17.24C76.7672 17.24 76.9472 17.26 77.2272 17.3C77.5072 17.3 77.7272 17.3 77.8872 17.3C77.9272 17.34 78.0872 17.38 78.3672 17.42C78.6872 17.42 78.8872 17.42 78.9672 17.42C79.0072 17.5 79.0472 17.58 79.0872 17.66C79.1672 17.74 79.2472 17.84 79.3272 17.96C79.2872 18 79.2672 18.04 79.2672 18.08V18.26C79.2672 18.34 79.2472 18.4 79.2072 18.44C79.2072 18.48 79.2072 18.54 79.2072 18.62V18.8C79.1272 18.88 79.0672 18.98 79.0272 19.1C78.9472 19.18 78.8872 19.26 78.8472 19.34C78.8472 19.42 78.8272 19.48 78.7872 19.52C78.7072 19.56 78.5672 19.7 78.3672 19.94C78.2072 20.14 78.0872 20.28 78.0072 20.36C78.0072 20.44 77.9072 20.56 77.7072 20.72C77.5072 20.84 77.4072 20.94 77.4072 21.02C77.3272 21.06 77.1472 21.16 76.8672 21.32C76.5872 21.44 76.3872 21.5 76.2672 21.5C76.1872 21.5 75.9872 21.58 75.6672 21.74C75.3472 21.9 75.1472 21.98 75.0672 21.98L74.7072 25.64L74.3472 25.16L74.0472 22.34L73.3872 22.28V22.52C73.3472 22.68 73.3472 23.06 73.3872 23.66C73.4672 24.26 73.4872 24.64 73.4472 24.8C73.4472 24.96 73.4472 25.2 73.4472 25.52C73.4472 25.84 73.4472 26.18 73.4472 26.54C73.4472 26.9 73.4472 27.24 73.4472 27.56C73.4872 27.84 73.5272 28.02 73.5672 28.1C73.5272 28.18 73.5072 28.26 73.5072 28.34V28.64L73.4472 29.06L73.0872 28.76L72.3072 22.28L67.0872 23.6C67.0472 23.68 67.0272 23.78 67.0272 23.9C67.0272 23.98 67.0072 24.08 66.9672 24.2C66.9672 24.28 66.9672 24.36 66.9672 24.44C66.9672 24.56 66.9472 24.78 66.9072 25.1C66.9072 25.38 66.9072 25.54 66.9072 25.58C66.9072 25.86 66.9272 26.12 66.9672 26.36C67.0072 26.56 67.0272 26.78 67.0272 27.02C67.0272 27.22 67.0472 27.38 67.0872 27.5C67.0872 27.62 67.1072 27.9 67.1472 28.34C67.1872 28.74 67.2072 29.02 67.2072 29.18C67.1672 29.3 67.1872 29.54 67.2672 29.9C67.3472 30.26 67.3872 30.46 67.3872 30.5C67.4272 30.7 67.4872 30.96 67.5672 31.28C67.6472 31.56 67.7272 31.86 67.8072 32.18C67.8872 32.5 67.9672 32.78 68.0472 33.02C68.1272 33.26 68.1672 33.4 68.1672 33.44C68.1672 33.52 68.2072 33.7 68.2872 33.98C68.3672 34.22 68.4672 34.5 68.5872 34.82C68.7072 35.1 68.8072 35.38 68.8872 35.66C69.0072 35.94 69.1072 36.14 69.1872 36.26C69.2272 36.34 69.2672 36.4 69.3072 36.44C69.4272 36.56 69.5072 36.62 69.5472 36.62C69.6272 36.62 69.8272 36.68 70.1472 36.8C70.4672 36.88 70.6672 36.92 70.7472 36.92C70.7872 37 70.8472 37.08 70.9272 37.16C71.0472 37.24 71.1072 37.3 71.1072 37.34C71.0672 37.46 71.0472 37.56 71.0472 37.64V38.06C71.0472 38.1 71.0272 38.14 70.9872 38.18C70.9872 38.22 70.9872 38.28 70.9872 38.36V38.6C70.9072 38.68 70.7672 38.88 70.5672 39.2C70.4072 39.52 70.2872 39.76 70.2072 39.92C70.1272 39.92 69.9672 40.04 69.7272 40.28C69.5272 40.52 69.4072 40.68 69.3672 40.76L68.9472 45.56L68.4072 45.5L68.2872 45.02C68.2472 44.9 68.2072 44.76 68.1672 44.6C68.1672 44.48 68.1872 44.38 68.2272 44.3C68.1872 44.18 68.1472 44 68.1072 43.76C68.1072 43.56 68.1072 43.34 68.1072 43.1C68.1072 42.86 68.0872 42.62 68.0472 42.38C68.0472 42.18 68.0272 42.04 67.9872 41.96L66.8472 54.86L66.7272 42.56ZM86.583 42.8C86.583 42.96 86.523 43.32 86.403 43.88C86.323 44.48 86.243 44.88 86.163 45.08L85.863 45.62L85.323 45.32V41.48C85.243 41.44 85.063 41.38 84.783 41.3C84.543 41.26 84.283 41.2 84.003 41.12C83.723 41.04 83.443 40.98 83.163 40.94C82.923 40.86 82.743 40.8 82.623 40.76C82.543 40.76 82.403 40.74 82.203 40.7C82.043 40.62 81.863 40.54 81.663 40.46C81.463 40.38 81.263 40.32 81.063 40.28C80.863 40.2 80.723 40.14 80.643 40.1C80.563 40.1 80.363 40.04 80.043 39.92C79.763 39.76 79.543 39.64 79.383 39.56C79.343 39.48 79.203 39.36 78.963 39.2C78.723 39.04 78.563 38.92 78.483 38.84C78.363 38.72 78.123 38.54 77.763 38.3C77.403 38.06 77.203 37.94 77.163 37.94C77.083 37.82 76.863 37.58 76.503 37.22C76.183 36.86 75.943 36.66 75.783 36.62C75.783 36.54 75.643 36.34 75.363 36.02C75.123 35.7 74.943 35.44 74.823 35.24C74.743 35.16 74.623 35 74.463 34.76C74.343 34.52 74.243 34.36 74.163 34.28C74.123 34.2 74.043 34.08 73.923 33.92C73.843 33.72 73.763 33.52 73.683 33.32C73.603 33.08 73.503 32.88 73.383 32.72C73.303 32.52 73.243 32.4 73.203 32.36C73.123 32.24 73.003 31.94 72.843 31.46C72.723 30.94 72.623 30.58 72.543 30.38C72.543 30.26 72.503 29.96 72.423 29.48C72.343 28.96 72.303 28.64 72.303 28.52V26.9V25.28C72.303 25.2 72.343 24.94 72.423 24.5C72.503 24.06 72.543 23.78 72.543 23.66C72.623 23.42 72.723 23.06 72.843 22.58C73.003 22.06 73.123 21.72 73.203 21.56C73.243 21.56 73.303 21.48 73.383 21.32C73.503 21.16 73.603 20.98 73.683 20.78C73.763 20.58 73.843 20.38 73.923 20.18C74.043 19.98 74.123 19.82 74.163 19.7C74.243 19.62 74.343 19.46 74.463 19.22C74.623 18.98 74.743 18.84 74.823 18.8C74.943 18.64 75.123 18.4 75.363 18.08C75.643 17.72 75.783 17.5 75.783 17.42C75.863 17.34 76.023 17.18 76.263 16.94C76.543 16.7 76.743 16.54 76.863 16.46C76.863 16.38 77.023 16.22 77.343 15.98C77.663 15.74 77.903 15.6 78.063 15.56L79.023 14.84C79.223 14.76 79.563 14.6 80.043 14.36C80.563 14.12 80.883 13.98 81.003 13.94C81.083 13.94 81.243 13.88 81.483 13.76C81.763 13.64 81.943 13.54 82.023 13.46C82.223 13.46 82.463 13.42 82.743 13.34C83.063 13.26 83.263 13.22 83.343 13.22H85.083H86.883C86.923 13.22 87.183 13.26 87.663 13.34C88.183 13.42 88.583 13.46 88.863 13.46C88.983 13.54 89.263 13.64 89.703 13.76C90.143 13.88 90.403 13.94 90.483 13.94C90.603 13.94 90.903 14.04 91.383 14.24C91.903 14.4 92.223 14.5 92.343 14.54C92.423 14.58 92.583 14.66 92.823 14.78C93.063 14.9 93.323 15.02 93.603 15.14C93.883 15.26 94.143 15.4 94.383 15.56C94.663 15.68 94.863 15.76 94.983 15.8C95.103 15.88 95.283 16 95.523 16.16C95.763 16.28 95.883 16.38 95.883 16.46C96.003 16.58 96.243 16.8 96.603 17.12C96.963 17.44 97.163 17.66 97.203 17.78C97.283 17.86 97.423 18.08 97.623 18.44C97.823 18.76 97.923 18.96 97.923 19.04V19.94V21.02C97.883 21.14 97.843 21.28 97.803 21.44C97.763 21.56 97.703 21.68 97.623 21.8C97.583 21.88 97.543 21.96 97.503 22.04C97.503 22.08 97.463 22.18 97.383 22.34C97.343 22.5 97.283 22.6 97.203 22.64C97.163 22.72 97.023 22.94 96.783 23.3C96.543 23.62 96.383 23.82 96.303 23.9C96.223 23.98 96.063 24.16 95.823 24.44C95.583 24.72 95.423 24.9 95.343 24.98C95.183 25.06 94.923 25.22 94.563 25.46C94.243 25.7 94.043 25.84 93.963 25.88C93.963 25.92 93.883 26 93.723 26.12C93.563 26.2 93.383 26.3 93.183 26.42C92.983 26.5 92.783 26.6 92.583 26.72C92.383 26.8 92.223 26.86 92.103 26.9C92.023 26.9 91.843 26.94 91.563 27.02C91.323 27.1 91.143 27.14 91.023 27.14C90.863 27.22 90.643 27.3 90.363 27.38C90.083 27.46 89.903 27.5 89.823 27.5C89.703 27.5 89.483 27.52 89.163 27.56C88.843 27.6 88.503 27.64 88.143 27.68C87.783 27.68 87.443 27.7 87.123 27.74C86.843 27.78 86.663 27.8 86.583 27.8H84.963H83.343C83.223 27.8 82.923 27.78 82.443 27.74C82.003 27.7 81.523 27.68 81.003 27.68C80.483 27.64 80.003 27.6 79.563 27.56C79.123 27.52 78.863 27.5 78.783 27.5H78.243H77.763C77.763 27.58 77.803 27.76 77.883 28.04C78.003 28.28 78.063 28.44 78.063 28.52C78.143 28.64 78.303 28.96 78.543 29.48C78.783 29.96 78.943 30.26 79.023 30.38C79.103 30.54 79.223 30.74 79.383 30.98C79.583 31.22 79.683 31.38 79.683 31.46C79.803 31.54 79.983 31.7 80.223 31.94C80.463 32.18 80.723 32.44 81.003 32.72C81.283 33 81.543 33.26 81.783 33.5C82.063 33.74 82.263 33.9 82.383 33.98C82.383 34.06 82.503 34.18 82.743 34.34C83.023 34.5 83.223 34.62 83.343 34.7C83.503 34.78 83.823 34.94 84.303 35.18C84.783 35.42 85.103 35.56 85.263 35.6C85.303 35.6 85.443 35.66 85.683 35.78C85.923 35.86 86.083 35.9 86.163 35.9C86.363 35.98 86.723 36.06 87.243 36.14C87.763 36.18 88.083 36.24 88.203 36.32H89.103H90.123C90.243 36.24 90.463 36.18 90.783 36.14C91.103 36.06 91.323 35.98 91.443 35.9L91.743 35.6V31.76C91.783 31.64 91.823 31.5 91.863 31.34C91.903 31.22 91.943 31.12 91.983 31.04C92.023 30.92 92.063 30.82 92.103 30.74C92.143 30.7 92.163 30.66 92.163 30.62C92.163 30.54 92.183 30.48 92.223 30.44C92.263 30.36 92.303 30.26 92.343 30.14L93.963 28.52C94.043 28.44 94.243 28.32 94.563 28.16C94.923 28 95.183 27.88 95.343 27.8H95.583H95.883C95.963 27.88 96.103 28 96.303 28.16C96.503 28.32 96.603 28.44 96.603 28.52C96.643 28.56 96.683 28.8 96.723 29.24C96.803 29.68 96.883 29.98 96.963 30.14V31.22V32.36C96.883 32.52 96.803 32.8 96.723 33.2C96.683 33.6 96.643 33.86 96.603 33.98C96.603 34.02 96.563 34.14 96.483 34.34C96.403 34.5 96.303 34.68 96.183 34.88C96.103 35.08 96.003 35.28 95.883 35.48C95.763 35.68 95.663 35.82 95.583 35.9C95.543 36.02 95.443 36.22 95.283 36.5C95.123 36.74 95.023 36.86 94.983 36.86C94.903 36.94 94.743 37.1 94.503 37.34C94.303 37.54 94.083 37.76 93.843 38C93.603 38.24 93.363 38.48 93.123 38.72C92.923 38.92 92.763 39.06 92.643 39.14C92.643 39.22 92.523 39.34 92.283 39.5C92.043 39.66 91.863 39.78 91.743 39.86C91.663 39.9 91.443 40 91.083 40.16C90.763 40.32 90.563 40.42 90.483 40.46C90.323 40.46 90.023 40.56 89.583 40.76C89.183 40.96 88.943 41.1 88.863 41.18C88.783 41.18 88.663 41.22 88.503 41.3C88.383 41.42 88.283 41.48 88.203 41.48C88.203 41.72 88.183 42.14 88.143 42.74C88.143 43.34 88.123 43.98 88.083 44.66C88.043 45.38 87.983 46.04 87.903 46.64C87.863 47.28 87.823 47.72 87.783 47.96C87.783 48.08 87.743 48.34 87.663 48.74C87.623 49.14 87.563 49.42 87.483 49.58C87.483 49.62 87.443 49.72 87.363 49.88C87.283 50.04 87.243 50.14 87.243 50.18C87.163 50.06 87.083 49.8 87.003 49.4C86.923 49 86.883 48.72 86.883 48.56C86.883 48.32 86.863 47.92 86.823 47.36C86.783 46.84 86.743 46.26 86.703 45.62C86.703 45.02 86.683 44.44 86.643 43.88C86.603 43.36 86.583 43 86.583 42.8ZM77.403 21.86C77.483 21.86 77.663 21.88 77.943 21.92C78.223 21.92 78.523 21.94 78.843 21.98C79.163 21.98 79.463 22 79.743 22.04C80.063 22.04 80.283 22.04 80.403 22.04L80.883 22.16C81.043 22.2 81.183 22.24 81.303 22.28C81.583 22.36 82.043 22.44 82.683 22.52C83.363 22.6 83.803 22.64 84.003 22.64H88.323H91.443L92.643 22.28C92.563 22.16 92.323 21.9 91.923 21.5C91.523 21.1 91.223 20.82 91.023 20.66C90.983 20.62 90.863 20.54 90.663 20.42C90.463 20.3 90.223 20.18 89.943 20.06C89.663 19.9 89.383 19.76 89.103 19.64C88.863 19.52 88.663 19.44 88.503 19.4C88.463 19.4 88.343 19.38 88.143 19.34C87.983 19.26 87.783 19.18 87.543 19.1C87.343 19.02 87.143 18.96 86.943 18.92C86.783 18.84 86.663 18.8 86.583 18.8C86.383 18.72 86.083 18.62 85.683 18.5C85.283 18.38 85.043 18.32 84.963 18.32H82.563H80.103C79.983 18.4 79.763 18.54 79.443 18.74C79.123 18.94 78.903 19.04 78.783 19.04L78.603 19.22C78.563 19.26 78.543 19.3 78.543 19.34C78.543 19.38 78.523 19.4 78.483 19.4C78.403 19.48 78.283 19.7 78.123 20.06C77.963 20.38 77.843 20.58 77.763 20.66C77.723 20.74 77.663 20.9 77.583 21.14C77.543 21.38 77.483 21.52 77.403 21.56V21.86ZM98.8853 38.48C98.8853 38.4 98.9853 38.2 99.1853 37.88C99.3853 37.52 99.5253 37.3 99.6053 37.22V34.16V31.04C99.5653 30.92 99.5053 30.6 99.4253 30.08C99.3853 29.52 99.3253 28.92 99.2453 28.28C99.1653 27.6 99.0853 26.94 99.0053 26.3C98.9653 25.66 98.9253 25.16 98.8853 24.8C98.8853 24.64 98.8253 24.28 98.7053 23.72C98.6253 23.12 98.5253 22.46 98.4053 21.74C98.3253 21.02 98.2453 20.32 98.1653 19.64C98.0853 18.92 98.0253 18.4 97.9853 18.08C97.9053 17.84 97.8253 17.52 97.7453 17.12C97.6653 16.72 97.5853 16.32 97.5053 15.92C97.4653 15.48 97.4253 15.1 97.3853 14.78C97.3053 14.46 97.2653 14.26 97.2653 14.18C97.2653 14.14 97.2453 14.06 97.2053 13.94C97.1253 13.78 97.0453 13.62 96.9653 13.46C96.8453 13.3 96.7453 13.12 96.6653 12.92V12.56V12.32C96.6653 12.24 96.7053 12.08 96.7853 11.84C96.8653 11.56 96.9053 11.38 96.9053 11.3C96.9853 11.02 97.1053 10.76 97.2653 10.52C97.3453 10.36 97.4453 10.18 97.5653 9.98C97.6853 9.82 97.9453 9.54 98.3453 9.14C98.7453 8.74 99.0253 8.48 99.1853 8.36C99.2653 8.28 99.4653 8.18 99.7853 8.06C100.145 7.9 100.385 7.78 100.505 7.7H100.805H101.225C101.305 7.78 101.405 7.9 101.525 8.06C101.685 8.18 101.765 8.28 101.765 8.36C101.845 8.36 101.905 8.58 101.945 9.02C102.025 9.46 102.085 9.78 102.125 9.98C102.165 10.18 102.205 10.48 102.245 10.88C102.325 11.24 102.405 11.64 102.485 12.08C102.565 12.48 102.625 12.86 102.665 13.22C102.745 13.58 102.805 13.82 102.845 13.94C102.885 14.22 102.945 14.7 103.025 15.38C103.105 16.02 103.185 16.7 103.265 17.42C103.385 18.14 103.485 18.82 103.565 19.46C103.685 20.06 103.745 20.46 103.745 20.66C103.785 20.9 103.825 21.3 103.865 21.86C103.945 22.38 104.025 22.94 104.105 23.54C104.185 24.1 104.245 24.64 104.285 25.16C104.365 25.68 104.425 26.02 104.465 26.18C104.465 26.42 104.485 26.76 104.525 27.2C104.565 27.6 104.585 28.02 104.585 28.46C104.625 28.9 104.665 29.3 104.705 29.66C104.745 30.02 104.765 30.26 104.765 30.38V34.7V38.84C104.765 38.92 104.665 39.14 104.465 39.5C104.265 39.82 104.125 40.02 104.045 40.1C103.965 40.26 103.805 40.52 103.565 40.88C103.325 41.2 103.185 41.4 103.145 41.48C103.145 41.6 103.125 41.84 103.085 42.2C103.045 42.6 103.005 43 102.965 43.4C102.965 43.8 102.945 44.18 102.905 44.54C102.865 44.94 102.845 45.2 102.845 45.32C102.765 45.4 102.685 45.6 102.605 45.92C102.565 46.28 102.505 46.54 102.425 46.7C102.425 46.66 102.405 46.6 102.365 46.52C102.325 46.48 102.285 46.42 102.245 46.34C102.205 46.26 102.165 46.16 102.125 46.04C102.125 45.92 102.105 45.68 102.065 45.32C102.025 44.96 101.985 44.58 101.945 44.18C101.905 43.82 101.865 43.46 101.825 43.1C101.785 42.74 101.765 42.5 101.765 42.38V51.8L101.525 53.42C101.525 53.38 101.505 53.24 101.465 53C101.425 52.8 101.385 52.58 101.345 52.34C101.345 52.1 101.325 51.86 101.285 51.62C101.245 51.42 101.225 51.28 101.225 51.2C101.185 51.08 101.125 50.72 101.045 50.12C101.005 49.56 100.965 48.94 100.925 48.26C100.885 47.58 100.845 46.94 100.805 46.34C100.805 45.78 100.805 45.44 100.805 45.32C100.805 45.16 100.785 44.92 100.745 44.6C100.705 44.32 100.665 44.02 100.625 43.7C100.625 43.38 100.605 43.1 100.565 42.86C100.525 42.62 100.505 42.46 100.505 42.38C100.385 42.26 100.285 42.12 100.205 41.96C100.125 41.84 100.045 41.74 99.9653 41.66C99.9253 41.58 99.9053 41.52 99.9053 41.48C99.8253 41.4 99.7653 41.3 99.7253 41.18C99.6453 40.94 99.6053 40.8 99.6053 40.76C99.5253 40.76 99.3853 40.68 99.1853 40.52C98.9853 40.32 98.8853 40.18 98.8853 40.1V39.38V38.48ZM108.478 47.12V41.6C108.318 41.52 108.078 41.4 107.758 41.24C107.478 41.08 107.258 40.96 107.098 40.88C107.058 40.76 107.018 40.66 106.978 40.58C106.898 40.42 106.858 40.32 106.858 40.28C106.858 40.2 106.798 39.94 106.678 39.5C106.598 39.06 106.558 38.78 106.558 38.66C106.518 38.54 106.458 38.34 106.378 38.06C106.338 37.78 106.298 37.5 106.258 37.22C106.218 36.9 106.178 36.6 106.138 36.32C106.138 36 106.138 35.78 106.138 35.66C106.098 35.18 106.038 34.52 105.958 33.68C105.918 32.8 105.858 31.92 105.778 31.04C105.738 30.12 105.678 29.3 105.598 28.58C105.558 27.86 105.518 27.44 105.478 27.32V24.86V22.46C105.558 22.3 105.658 22.06 105.778 21.74C105.938 21.38 106.058 21.16 106.138 21.08C106.218 21 106.418 20.8 106.738 20.48C107.098 20.12 107.338 19.9 107.458 19.82C107.538 19.7 107.698 19.58 107.938 19.46C108.218 19.3 108.398 19.22 108.478 19.22C108.518 19.22 108.658 19.2 108.898 19.16C109.138 19.08 109.298 19.04 109.378 19.04C109.418 19.04 109.558 19.08 109.798 19.16C109.918 19.2 110.018 19.22 110.098 19.22L110.338 19.82C110.378 20.06 110.418 20.52 110.458 21.2C110.498 21.84 110.518 22.52 110.518 23.24C110.558 23.96 110.598 24.64 110.638 25.28C110.678 25.92 110.698 26.36 110.698 26.6C110.698 26.84 110.718 27.3 110.758 27.98C110.838 28.66 110.918 29.4 110.998 30.2C111.078 31 111.158 31.76 111.238 32.48C111.318 33.2 111.378 33.72 111.418 34.04C111.418 34.12 111.438 34.28 111.478 34.52C111.518 34.76 111.538 35.02 111.538 35.3C111.578 35.54 111.618 35.76 111.658 35.96C111.698 36.16 111.718 36.28 111.718 36.32V37.04V37.64C111.718 37.72 111.658 37.9 111.538 38.18C111.458 38.42 111.418 38.58 111.418 38.66C111.338 38.7 111.198 38.86 110.998 39.14C110.878 39.3 110.778 39.44 110.698 39.56C110.618 39.8 110.498 40.04 110.338 40.28C110.338 40.6 110.318 41.18 110.278 42.02C110.238 42.9 110.178 43.82 110.098 44.78C110.058 45.74 109.998 46.64 109.918 47.48C109.878 48.32 109.838 48.92 109.798 49.28C109.798 49.36 109.738 49.64 109.618 50.12C109.538 50.64 109.458 51.04 109.378 51.32C109.378 51.48 109.318 51.76 109.198 52.16C109.118 52.6 109.078 52.86 109.078 52.94C109.078 53.02 109.038 53.18 108.958 53.42C108.878 53.66 108.798 53.8 108.718 53.84V47.36L108.478 47.12ZM105.418 5.18C105.418 5.14 105.418 5.1 105.418 5.06C105.458 4.98 105.478 4.92 105.478 4.88C105.478 4.84 105.498 4.8 105.538 4.76C105.578 4.6 105.718 4.38 105.958 4.1C106.238 3.82 106.398 3.64 106.438 3.56C106.478 3.56 106.578 3.52 106.738 3.44C106.938 3.32 107.138 3.2 107.338 3.08C107.578 2.92 107.798 2.78 107.998 2.66C108.198 2.54 108.358 2.46 108.478 2.42C108.558 2.38 108.678 2.36 108.838 2.36C108.998 2.36 109.118 2.36 109.198 2.36L109.558 2.48C109.678 2.52 109.838 2.54 110.038 2.54C110.198 2.62 110.338 2.68 110.458 2.72C110.538 2.76 110.638 2.8 110.758 2.84C110.758 3.04 110.778 3.22 110.818 3.38C110.898 3.78 110.958 4.04 110.998 4.16C110.998 4.24 110.998 4.42 110.998 4.7C111.038 4.98 111.058 5.28 111.058 5.6C111.098 5.92 111.138 6.24 111.178 6.56C111.218 6.88 111.238 7.12 111.238 7.28C111.238 7.64 111.238 8.14 111.238 8.78C111.238 9.38 111.238 9.98 111.238 10.58C111.278 11.18 111.298 11.72 111.298 12.2C111.338 12.68 111.378 12.96 111.418 13.04C111.378 13.2 111.338 13.34 111.298 13.46C111.218 13.7 111.158 13.88 111.118 14C111.078 14.08 111.058 14.18 111.058 14.3C111.058 14.38 111.038 14.46 110.998 14.54C110.958 14.66 110.918 14.76 110.878 14.84C110.758 14.92 110.638 15.1 110.518 15.38C110.398 15.62 110.298 15.74 110.218 15.74C110.138 15.78 109.958 15.88 109.678 16.04C109.438 16.2 109.158 16.36 108.838 16.52C108.558 16.68 108.278 16.84 107.998 17C107.718 17.12 107.518 17.2 107.398 17.24C107.398 17.32 107.258 17.36 106.978 17.36C106.738 17.36 106.558 17.4 106.438 17.48L106.318 17.42H106.138C106.098 17.34 105.998 17.24 105.838 17.12C105.678 16.96 105.618 16.84 105.658 16.76C105.698 16.72 105.698 16.52 105.658 16.16C105.658 15.8 105.658 15.6 105.658 15.56C105.618 15.28 105.578 14.86 105.538 14.3C105.538 13.7 105.538 13.1 105.538 12.5C105.538 11.86 105.538 11.28 105.538 10.76C105.538 10.24 105.538 9.9 105.538 9.74C105.538 9.66 105.518 9.42 105.478 9.02C105.438 8.62 105.398 8.2 105.358 7.76C105.318 7.28 105.298 6.84 105.298 6.44C105.298 6.04 105.298 5.8 105.298 5.72C105.298 5.64 105.318 5.56 105.358 5.48C105.358 5.4 105.358 5.34 105.358 5.3C105.398 5.26 105.418 5.22 105.418 5.18ZM129.431 41.78C129.351 41.78 129.291 41.76 129.251 41.72C129.211 41.72 129.151 41.72 129.071 41.72H128.891C128.891 41.8 128.851 41.84 128.771 41.84C128.691 41.84 128.651 41.86 128.651 41.9C128.531 42.06 128.351 42.36 128.111 42.8C127.911 43.28 127.791 43.6 127.751 43.76C127.751 43.68 127.751 43.54 127.751 43.34C127.791 43.14 127.811 43 127.811 42.92C127.771 42.88 127.731 42.64 127.691 42.2C127.651 41.76 127.631 41.46 127.631 41.3C127.511 41.3 127.291 41.24 126.971 41.12C126.691 41 126.391 40.88 126.071 40.76C125.751 40.64 125.431 40.52 125.111 40.4C124.791 40.28 124.571 40.22 124.451 40.22C124.331 40.18 124.151 40.1 123.911 39.98C123.671 39.82 123.411 39.66 123.131 39.5C122.851 39.3 122.591 39.12 122.351 38.96C122.151 38.8 122.011 38.68 121.931 38.6C121.851 38.6 121.731 38.56 121.571 38.48C121.411 38.36 121.231 38.22 121.031 38.06C120.831 37.9 120.631 37.76 120.431 37.64C120.271 37.52 120.151 37.42 120.071 37.34C119.951 37.26 119.831 37.16 119.711 37.04L119.171 36.5C119.051 36.34 118.871 36.12 118.631 35.84C118.431 35.52 118.291 35.32 118.211 35.24C118.131 35.16 117.951 34.94 117.671 34.58C117.391 34.18 117.211 33.92 117.131 33.8C117.051 33.8 116.971 33.66 116.891 33.38C116.811 33.06 116.751 32.82 116.711 32.66C116.711 32.58 116.651 32.36 116.531 32C116.411 31.6 116.331 31.36 116.291 31.28C116.291 31.16 116.271 30.98 116.231 30.74C116.191 30.46 116.171 30.28 116.171 30.2C116.211 30 116.251 29.82 116.291 29.66C116.331 29.5 116.371 29.36 116.411 29.24C116.451 29.08 116.471 28.96 116.471 28.88C116.471 28.68 116.511 28.42 116.591 28.1L116.711 27.62C116.751 27.54 116.831 27.52 116.951 27.56C117.111 27.6 117.251 27.66 117.371 27.74C117.531 27.78 117.671 27.84 117.791 27.92C117.951 27.96 118.071 27.96 118.151 27.92V27.56C118.071 27.52 117.871 27.44 117.551 27.32C117.271 27.16 116.951 27 116.591 26.84C116.271 26.64 115.951 26.44 115.631 26.24C115.351 26.04 115.191 25.88 115.151 25.76C115.111 25.76 114.951 25.62 114.671 25.34C114.391 25.02 114.211 24.78 114.131 24.62C114.051 24.58 113.951 24.48 113.831 24.32C113.711 24.12 113.651 24 113.651 23.96C113.651 23.88 113.571 23.72 113.411 23.48C113.291 23.2 113.211 23.02 113.171 22.94C113.091 22.74 113.011 22.46 112.931 22.1C112.851 21.7 112.791 21.42 112.751 21.26C111.951 18.86 111.651 16.9 111.851 15.38C112.051 13.86 112.591 12.72 113.471 11.96C114.391 11.16 115.571 10.7 117.011 10.58C118.451 10.46 119.991 10.6 121.631 11C123.311 11.4 124.991 12.02 126.671 12.86C128.391 13.66 129.951 14.62 131.351 15.74C132.791 16.86 133.991 18.1 134.951 19.46C135.951 20.78 136.571 22.14 136.811 23.54C136.771 23.62 136.751 23.68 136.751 23.72V23.78L136.691 23.72C136.611 23.68 136.531 23.62 136.451 23.54C136.371 23.5 136.291 23.46 136.211 23.42C136.131 23.38 136.051 23.38 135.971 23.42C135.971 23.5 135.871 23.76 135.671 24.2C135.471 24.6 135.371 24.84 135.371 24.92C135.291 25 135.151 25.1 134.951 25.22C134.791 25.34 134.671 25.44 134.591 25.52C134.551 25.52 134.391 25.62 134.111 25.82C133.871 25.98 133.711 26.1 133.631 26.18C133.551 26.18 133.471 26.18 133.391 26.18C133.311 26.14 133.211 26.12 133.091 26.12C132.931 26.12 132.791 26.1 132.671 26.06H132.491C132.291 26.06 132.171 26.04 132.131 26H131.771C131.691 26 131.651 25.96 131.651 25.88C131.691 25.76 131.671 25.7 131.591 25.7C131.631 25.62 131.591 25.5 131.471 25.34C131.391 25.14 131.351 25 131.351 24.92C131.351 24.88 131.331 24.74 131.291 24.5C131.251 24.22 131.191 24 131.111 23.84C131.431 23.52 131.611 23.18 131.651 22.82C131.691 22.46 131.651 22.12 131.531 21.8C131.411 21.44 131.231 21.16 130.991 20.96C130.751 20.72 130.531 20.58 130.331 20.54C130.291 20.54 130.091 20.32 129.731 19.88C129.411 19.44 129.051 18.98 128.651 18.5C128.251 17.98 127.871 17.52 127.511 17.12C127.191 16.68 127.011 16.46 126.971 16.46C126.971 16.54 126.951 16.44 126.911 16.16C126.871 15.84 126.831 15.7 126.791 15.74C126.711 15.9 126.631 16.18 126.551 16.58C126.511 16.74 126.491 16.9 126.491 17.06C126.451 17.38 126.371 17.86 126.251 18.5C126.131 19.14 125.991 19.82 125.831 20.54C125.711 21.26 125.591 21.94 125.471 22.58C125.351 23.22 125.291 23.68 125.291 23.96C125.731 24.4 126.291 24.8 126.971 25.16C127.651 25.48 128.251 25.8 128.771 26.12C128.851 26.12 129.091 26.18 129.491 26.3C129.931 26.42 130.391 26.56 130.871 26.72C131.391 26.84 131.871 27 132.311 27.2C132.751 27.36 133.031 27.52 133.151 27.68C133.231 27.76 133.371 27.88 133.571 28.04C133.771 28.16 133.991 28.28 134.231 28.4C134.471 28.52 134.671 28.64 134.831 28.76C135.031 28.88 135.171 28.94 135.251 28.94C135.411 29.14 135.711 29.4 136.151 29.72C136.631 30 136.931 30.22 137.051 30.38C137.091 30.42 137.211 30.52 137.411 30.68C137.611 30.84 137.811 31.02 138.011 31.22C138.211 31.38 138.391 31.54 138.551 31.7C138.751 31.86 138.891 31.96 138.971 32C139.051 32.08 139.171 32.22 139.331 32.42C139.491 32.58 139.651 32.76 139.811 32.96C140.011 33.16 140.191 33.34 140.351 33.5C140.511 33.66 140.631 33.74 140.711 33.74C140.751 33.82 140.931 34.12 141.251 34.64C141.611 35.12 141.871 35.46 142.031 35.66C142.031 35.74 142.051 35.86 142.091 36.02C142.131 36.18 142.151 36.3 142.151 36.38C142.111 36.5 142.071 36.6 142.031 36.68C141.951 36.92 141.911 37.06 141.911 37.1C141.871 37.18 141.851 37.32 141.851 37.52C141.851 37.72 141.831 37.86 141.791 37.94C141.791 38.02 141.731 38.16 141.611 38.36C141.491 38.56 141.411 38.68 141.371 38.72C141.291 38.8 141.111 38.96 140.831 39.2C140.591 39.4 140.471 39.54 140.471 39.62C140.351 39.74 140.071 39.96 139.631 40.28C139.191 40.56 138.891 40.78 138.731 40.94C138.611 41.02 138.391 41.1 138.071 41.18C137.791 41.26 137.571 41.32 137.411 41.36C137.291 41.44 137.051 41.5 136.691 41.54C136.371 41.62 136.171 41.7 136.091 41.78C135.891 41.86 135.531 41.92 135.011 41.96C134.491 42.04 134.171 42.1 134.051 42.14C133.931 42.1 133.711 42.08 133.391 42.08C133.111 42.08 132.791 42.08 132.431 42.08C132.111 42.08 131.791 42.08 131.471 42.08C131.151 42.08 130.931 42.08 130.811 42.08L130.391 49.58H130.151C130.151 49.54 130.131 49.42 130.091 49.22C130.091 49.06 130.091 48.88 130.091 48.68C130.091 48.48 130.111 48.28 130.151 48.08C130.191 47.92 130.251 47.82 130.331 47.78C130.291 47.54 130.231 47.14 130.151 46.58C130.071 46.02 129.991 45.42 129.911 44.78C129.831 44.14 129.771 43.54 129.731 42.98C129.691 42.42 129.711 42.02 129.791 41.78H129.431ZM121.991 27.98C121.991 28.06 121.951 28.14 121.871 28.22L121.751 28.34C121.831 28.5 121.911 28.76 121.991 29.12C122.071 29.44 122.131 29.64 122.171 29.72C122.251 29.84 122.371 30.02 122.531 30.26C122.691 30.5 122.871 30.76 123.071 31.04C123.271 31.32 123.451 31.58 123.611 31.82C123.811 32.02 123.971 32.18 124.091 32.3C124.091 32.38 124.191 32.56 124.391 32.84C124.631 33.12 124.791 33.3 124.871 33.38C124.991 33.46 125.271 33.64 125.711 33.92C126.151 34.2 126.431 34.44 126.551 34.64C126.671 34.68 126.911 34.84 127.271 35.12C127.671 35.4 127.951 35.54 128.111 35.54C128.231 35.62 128.371 35.7 128.531 35.78C128.851 35.94 129.071 36.02 129.191 36.02C129.431 36.22 129.751 36.38 130.151 36.5C130.351 36.58 130.571 36.64 130.811 36.68C130.851 36.68 130.971 36.72 131.171 36.8C131.411 36.84 131.671 36.9 131.951 36.98C132.231 37.02 132.511 37.08 132.791 37.16C133.071 37.2 133.271 37.22 133.391 37.22C133.471 37.22 133.591 37.24 133.751 37.28C133.951 37.32 134.151 37.36 134.351 37.4C134.551 37.48 134.771 37.54 135.011 37.58L135.371 37.28C135.291 37.24 135.231 37.2 135.191 37.16L135.011 36.98C134.891 36.86 134.771 36.72 134.651 36.56C134.571 36.48 134.471 36.4 134.351 36.32C134.271 36.2 134.191 36.12 134.111 36.08C133.991 35.96 133.771 35.76 133.451 35.48C133.131 35.16 132.931 34.96 132.851 34.88C132.771 34.84 132.591 34.72 132.311 34.52C132.031 34.28 131.731 34.04 131.411 33.8C131.091 33.56 130.771 33.32 130.451 33.08C130.171 32.84 129.971 32.66 129.851 32.54C129.811 32.54 129.711 32.5 129.551 32.42C129.431 32.3 129.271 32.18 129.071 32.06C128.871 31.9 128.651 31.76 128.411 31.64C128.211 31.48 128.051 31.38 127.931 31.34C127.771 31.26 127.491 31.06 127.091 30.74C126.691 30.42 126.471 30.26 126.431 30.26C126.231 30.18 125.931 30.04 125.531 29.84C125.131 29.6 124.691 29.36 124.211 29.12C123.771 28.84 123.331 28.58 122.891 28.34C122.491 28.1 122.191 27.9 121.991 27.74V27.98ZM118.571 17.18C118.531 17.3 118.471 17.54 118.391 17.9C118.311 18.26 118.271 18.46 118.271 18.5C118.231 18.58 118.271 18.8 118.391 19.16C118.511 19.48 118.611 19.72 118.691 19.88C118.771 20.2 118.971 20.48 119.291 20.72C119.651 20.92 119.891 21.06 120.011 21.14C120.051 21.18 120.151 21.28 120.311 21.44C120.511 21.56 120.731 21.72 120.971 21.92C121.211 22.08 121.431 22.26 121.631 22.46C121.871 22.62 122.031 22.74 122.111 22.82C122.471 22.9 122.811 23.12 123.131 23.48C123.451 23.84 123.871 24.08 124.391 24.2C124.391 24.04 124.411 23.9 124.451 23.78C124.531 23.66 124.571 23.52 124.571 23.36C124.611 22.88 124.691 22.26 124.811 21.5C124.931 20.7 125.051 19.92 125.171 19.16C125.291 18.36 125.411 17.66 125.531 17.06C125.651 16.46 125.711 16.12 125.711 16.04C125.711 15.92 125.711 15.78 125.711 15.62C125.711 15.42 125.671 15.32 125.591 15.32C125.551 15.32 125.471 15.48 125.351 15.8C125.271 16.12 125.151 16.72 124.991 17.6L124.631 17.96C124.631 17.88 124.591 17.72 124.511 17.48C124.471 17.2 124.451 17.04 124.451 17C124.451 16.84 124.471 16.76 124.511 16.76C124.551 16.72 124.571 16.64 124.571 16.52C124.931 16.32 125.031 16.12 124.871 15.92C124.751 15.68 124.471 15.48 124.031 15.32C123.591 15.12 123.051 15 122.411 14.96C121.771 14.92 121.171 14.96 120.611 15.08C120.051 15.16 119.571 15.38 119.171 15.74C118.771 16.06 118.571 16.54 118.571 17.18ZM149.227 42.56C149.107 42.44 148.887 42.28 148.567 42.08C148.287 41.92 148.087 41.8 147.967 41.72C147.887 41.68 147.727 41.52 147.487 41.24C147.287 41 147.147 40.84 147.067 40.76C147.027 40.64 146.927 40.46 146.767 40.22C146.647 39.98 146.567 39.78 146.527 39.62C146.447 39.5 146.347 39.3 146.227 39.02C146.147 38.74 146.047 38.46 145.927 38.18C145.807 37.9 145.687 37.64 145.567 37.4C145.487 37.16 145.427 37 145.387 36.92C145.387 36.84 145.347 36.68 145.267 36.44C145.227 36.16 145.167 35.88 145.087 35.6C145.007 35.28 144.927 34.98 144.847 34.7C144.767 34.38 144.707 34.16 144.667 34.04C144.667 33.92 144.647 33.74 144.607 33.5C144.607 33.22 144.567 32.94 144.487 32.66C144.447 32.34 144.407 32.06 144.367 31.82C144.327 31.54 144.287 31.36 144.247 31.28C144.247 31.2 144.227 30.92 144.187 30.44C144.187 29.96 144.187 29.62 144.187 29.42C144.187 29.34 144.167 29.18 144.127 28.94C144.127 28.66 144.127 28.38 144.127 28.1C144.127 27.78 144.127 27.5 144.127 27.26C144.127 26.98 144.127 26.8 144.127 26.72C144.047 26.6 143.987 26.32 143.947 25.88C143.947 25.44 143.907 25.18 143.827 25.1H143.707L143.527 25.04C143.527 25.04 143.447 25.06 143.287 25.1C143.127 25.1 142.947 25.12 142.747 25.16C142.587 25.16 142.407 25.18 142.207 25.22C142.047 25.22 141.947 25.22 141.907 25.22C141.867 25.22 141.747 25.22 141.547 25.22C141.347 25.18 141.167 25.16 141.007 25.16C140.927 25.16 140.847 25.16 140.767 25.16C140.727 25.12 140.667 25.1 140.587 25.1H140.287C140.247 25.1 140.147 25 139.987 24.8C139.867 24.6 139.787 24.46 139.747 24.38V24.2V24.14C139.747 24.06 139.787 23.9 139.867 23.66C139.987 23.38 140.067 23.2 140.107 23.12C140.187 22.96 140.267 22.84 140.347 22.76C140.387 22.68 140.447 22.62 140.527 22.58C140.607 22.46 140.767 22.28 141.007 22.04C141.287 21.8 141.567 21.56 141.847 21.32C142.167 21.04 142.467 20.8 142.747 20.6C143.027 20.4 143.227 20.26 143.347 20.18C143.387 20.14 143.527 20.04 143.767 19.88C144.047 19.72 144.227 19.64 144.307 19.64C144.347 19.48 144.427 19.18 144.547 18.74C144.667 18.3 144.767 17.84 144.847 17.36C144.967 16.88 145.067 16.44 145.147 16.04C145.267 15.6 145.367 15.3 145.447 15.14C145.447 15.02 145.467 14.86 145.507 14.66C145.547 14.42 145.587 14.2 145.627 14C145.667 13.76 145.727 13.52 145.807 13.28C145.887 13.04 146.087 12.68 146.407 12.2C146.727 11.72 146.947 11.42 147.067 11.3C147.147 11.26 147.347 11.08 147.667 10.76C147.987 10.44 148.227 10.28 148.387 10.28C148.507 10.2 148.727 10.08 149.047 9.92C149.407 9.72 149.647 9.62 149.767 9.62C149.847 9.66 149.927 9.68 150.007 9.68H150.307L150.787 9.74C150.827 9.74 150.867 9.78 150.907 9.86C150.947 9.94 151.007 9.98 151.087 9.98C151.087 10.14 151.067 10.46 151.027 10.94C150.987 11.42 150.967 11.7 150.967 11.78C150.927 12.06 150.887 12.44 150.847 12.92C150.807 13.36 150.787 13.62 150.787 13.7C150.707 13.86 150.627 14 150.547 14.12C150.427 14.36 150.367 14.52 150.367 14.6C150.367 14.8 150.347 15.12 150.307 15.56C150.267 16 150.227 16.46 150.187 16.94C150.147 17.42 150.107 17.88 150.067 18.32C150.027 18.72 150.007 18.98 150.007 19.1L150.547 19.16C150.827 19.12 151.267 19.04 151.867 18.92C152.467 18.76 153.107 18.6 153.787 18.44C154.467 18.28 155.107 18.14 155.707 18.02C156.307 17.9 156.727 17.8 156.967 17.72C157.087 17.68 157.267 17.64 157.507 17.6C157.787 17.56 158.047 17.5 158.287 17.42C158.567 17.34 158.867 17.28 159.187 17.24C159.267 17.24 159.447 17.26 159.727 17.3C160.007 17.3 160.227 17.3 160.387 17.3C160.427 17.34 160.587 17.38 160.867 17.42C161.187 17.42 161.387 17.42 161.467 17.42C161.507 17.5 161.547 17.58 161.587 17.66C161.667 17.74 161.747 17.84 161.827 17.96C161.787 18 161.767 18.04 161.767 18.08V18.26C161.767 18.34 161.747 18.4 161.707 18.44C161.707 18.48 161.707 18.54 161.707 18.62V18.8C161.627 18.88 161.567 18.98 161.527 19.1C161.447 19.18 161.387 19.26 161.347 19.34C161.347 19.42 161.327 19.48 161.287 19.52C161.207 19.56 161.067 19.7 160.867 19.94C160.707 20.14 160.587 20.28 160.507 20.36C160.507 20.44 160.407 20.56 160.207 20.72C160.007 20.84 159.907 20.94 159.907 21.02C159.827 21.06 159.647 21.16 159.367 21.32C159.087 21.44 158.887 21.5 158.767 21.5C158.687 21.5 158.487 21.58 158.167 21.74C157.847 21.9 157.647 21.98 157.567 21.98L157.207 25.64L156.847 25.16L156.547 22.34L155.887 22.28V22.52C155.847 22.68 155.847 23.06 155.887 23.66C155.967 24.26 155.987 24.64 155.947 24.8C155.947 24.96 155.947 25.2 155.947 25.52C155.947 25.84 155.947 26.18 155.947 26.54C155.947 26.9 155.947 27.24 155.947 27.56C155.987 27.84 156.027 28.02 156.067 28.1C156.027 28.18 156.007 28.26 156.007 28.34V28.64L155.947 29.06L155.587 28.76L154.807 22.28L149.587 23.6C149.547 23.68 149.527 23.78 149.527 23.9C149.527 23.98 149.507 24.08 149.467 24.2C149.467 24.28 149.467 24.36 149.467 24.44C149.467 24.56 149.447 24.78 149.407 25.1C149.407 25.38 149.407 25.54 149.407 25.58C149.407 25.86 149.427 26.12 149.467 26.36C149.507 26.56 149.527 26.78 149.527 27.02C149.527 27.22 149.547 27.38 149.587 27.5C149.587 27.62 149.607 27.9 149.647 28.34C149.687 28.74 149.707 29.02 149.707 29.18C149.667 29.3 149.687 29.54 149.767 29.9C149.847 30.26 149.887 30.46 149.887 30.5C149.927 30.7 149.987 30.96 150.067 31.28C150.147 31.56 150.227 31.86 150.307 32.18C150.387 32.5 150.467 32.78 150.547 33.02C150.627 33.26 150.667 33.4 150.667 33.44C150.667 33.52 150.707 33.7 150.787 33.98C150.867 34.22 150.967 34.5 151.087 34.82C151.207 35.1 151.307 35.38 151.387 35.66C151.507 35.94 151.607 36.14 151.687 36.26C151.727 36.34 151.767 36.4 151.807 36.44C151.927 36.56 152.007 36.62 152.047 36.62C152.127 36.62 152.327 36.68 152.647 36.8C152.967 36.88 153.167 36.92 153.247 36.92C153.287 37 153.347 37.08 153.427 37.16C153.547 37.24 153.607 37.3 153.607 37.34C153.567 37.46 153.547 37.56 153.547 37.64V38.06C153.547 38.1 153.527 38.14 153.487 38.18C153.487 38.22 153.487 38.28 153.487 38.36V38.6C153.407 38.68 153.267 38.88 153.067 39.2C152.907 39.52 152.787 39.76 152.707 39.92C152.627 39.92 152.467 40.04 152.227 40.28C152.027 40.52 151.907 40.68 151.867 40.76L151.447 45.56L150.907 45.5L150.787 45.02C150.747 44.9 150.707 44.76 150.667 44.6C150.667 44.48 150.687 44.38 150.727 44.3C150.687 44.18 150.647 44 150.607 43.76C150.607 43.56 150.607 43.34 150.607 43.1C150.607 42.86 150.587 42.62 150.547 42.38C150.547 42.18 150.527 42.04 150.487 41.96L149.347 54.86L149.227 42.56ZM190.405 53.06C190.245 53.06 189.945 53 189.505 52.88C189.065 52.8 188.825 52.72 188.785 52.64C188.705 52.6 188.645 52.54 188.605 52.46C188.525 52.3 188.485 52.18 188.485 52.1V51.8V51.74C188.485 51.66 188.525 51.46 188.605 51.14C188.645 50.98 188.705 50.84 188.785 50.72C188.825 50.64 188.925 50.48 189.085 50.24C189.285 50.04 189.485 49.82 189.685 49.58C189.925 49.38 190.145 49.16 190.345 48.92C190.545 48.72 190.685 48.58 190.765 48.5V47.48C190.645 47.2 190.445 46.74 190.165 46.1C189.885 45.5 189.585 44.8 189.265 44C188.945 43.2 188.605 42.36 188.245 41.48C187.925 40.64 187.605 39.82 187.285 39.02C186.965 38.22 186.685 37.52 186.445 36.92C186.205 36.28 186.025 35.82 185.905 35.54C185.785 35.22 185.565 34.7 185.245 33.98C184.965 33.22 184.665 32.42 184.345 31.58C184.065 30.74 183.785 29.96 183.505 29.24C183.225 28.52 183.025 28 182.905 27.68V28.88V29.96C182.905 30.16 182.925 30.44 182.965 30.8C183.005 31.12 183.025 31.48 183.025 31.88C183.065 32.24 183.105 32.6 183.145 32.96C183.185 33.28 183.205 33.5 183.205 33.62C183.245 33.7 183.305 33.9 183.385 34.22C183.465 34.5 183.545 34.82 183.625 35.18C183.705 35.54 183.765 35.88 183.805 36.2C183.885 36.52 183.925 36.74 183.925 36.86V37.7V38.48C183.925 38.56 183.825 38.82 183.625 39.26C183.425 39.7 183.285 39.98 183.205 40.1C183.205 40.18 183.145 40.44 183.025 40.88C182.945 41.32 182.905 41.6 182.905 41.72L182.665 42.02C182.585 41.94 182.465 41.82 182.305 41.66C182.185 41.5 182.085 41.38 182.005 41.3H181.765H181.585L181.045 45.26C180.965 45.18 180.885 45.06 180.805 44.9C180.725 44.74 180.685 44.62 180.685 44.54C180.685 44.34 180.625 43.92 180.505 43.28C180.425 42.64 180.385 42.22 180.385 42.02C180.305 42.02 180.185 41.96 180.025 41.84C179.865 41.76 179.745 41.72 179.665 41.72C179.625 41.64 179.525 41.52 179.365 41.36C179.205 41.2 179.105 41.08 179.065 41C179.025 40.88 178.945 40.66 178.825 40.34C178.745 39.98 178.645 39.6 178.525 39.2C178.445 38.8 178.345 38.44 178.225 38.12C178.145 37.76 178.085 37.52 178.045 37.4C178.005 37.32 177.905 37.08 177.745 36.68C177.585 36.28 177.485 35.98 177.445 35.78C177.445 35.7 177.345 35.5 177.145 35.18C176.945 34.82 176.805 34.6 176.725 34.52C176.685 34.44 176.605 34.3 176.485 34.1C176.365 33.86 176.245 33.62 176.125 33.38C176.005 33.14 175.885 32.92 175.765 32.72C175.645 32.52 175.565 32.38 175.525 32.3C175.405 32.14 175.205 31.86 174.925 31.46C174.685 31.02 174.425 30.58 174.145 30.14C173.865 29.66 173.585 29.22 173.305 28.82C173.065 28.42 172.905 28.16 172.825 28.04L172.405 28.34V37.4C172.245 37.6 172.025 37.98 171.745 38.54C171.465 39.1 171.285 39.48 171.205 39.68C171.205 39.8 171.185 40.06 171.145 40.46C171.145 40.82 171.125 41.22 171.085 41.66C171.045 42.1 171.005 42.5 170.965 42.86C170.965 43.26 170.965 43.52 170.965 43.64C170.965 43.76 170.905 43.98 170.785 44.3C170.705 44.62 170.665 44.84 170.665 44.96C170.585 44.88 170.485 44.76 170.365 44.6C170.285 44.44 170.245 44.32 170.245 44.24C170.245 44.12 170.225 43.9 170.185 43.58C170.145 43.26 170.105 42.92 170.065 42.56C170.065 42.24 170.045 41.92 170.005 41.6C169.965 41.32 169.945 41.12 169.945 41H169.885H169.585C169.465 41.08 169.325 41.14 169.165 41.18C168.845 41.26 168.665 41.3 168.625 41.3H168.085H167.725C167.645 41.3 167.525 41.2 167.365 41C167.205 40.84 167.085 40.72 167.005 40.64C167.045 40.2 167.105 39.4 167.185 38.24C167.265 37.08 167.345 35.84 167.425 34.52C167.505 33.2 167.565 31.96 167.605 30.8C167.685 29.64 167.725 28.82 167.725 28.34V24.98V21.56C167.725 21.52 167.705 21.4 167.665 21.2C167.625 20.96 167.585 20.72 167.545 20.48C167.545 20.24 167.525 20.02 167.485 19.82C167.445 19.58 167.425 19.42 167.425 19.34C167.345 19.18 167.265 18.94 167.185 18.62C167.145 18.26 167.085 18.04 167.005 17.96C166.965 17.92 166.885 17.78 166.765 17.54C166.685 17.26 166.605 16.98 166.525 16.7C166.405 16.38 166.305 16.1 166.225 15.86C166.145 15.62 166.105 15.46 166.105 15.38V15.08V14.72C166.145 14.6 166.245 14.36 166.405 14C166.565 13.64 166.665 13.46 166.705 13.46C166.745 13.42 166.845 13.32 167.005 13.16C167.165 13 167.325 12.84 167.485 12.68C167.685 12.48 167.845 12.3 167.965 12.14C168.125 11.98 168.245 11.86 168.325 11.78C168.405 11.78 168.605 11.7 168.925 11.54C169.285 11.34 169.505 11.24 169.585 11.24C169.665 11.24 169.745 11.22 169.825 11.18C169.945 11.1 170.045 11.06 170.125 11.06C170.205 11.06 170.285 11.1 170.365 11.18C170.485 11.22 170.585 11.24 170.665 11.24C170.705 11.24 170.745 11.26 170.785 11.3C170.905 11.42 170.965 11.48 170.965 11.48C170.965 11.56 171.045 11.76 171.205 12.08C171.365 12.4 171.525 12.76 171.685 13.16C171.885 13.52 172.065 13.86 172.225 14.18C172.425 14.5 172.545 14.68 172.585 14.72C172.665 14.88 172.825 15.2 173.065 15.68C173.305 16.12 173.565 16.6 173.845 17.12C174.125 17.64 174.385 18.14 174.625 18.62C174.865 19.06 175.025 19.38 175.105 19.58C175.145 19.66 175.225 19.82 175.345 20.06C175.465 20.26 175.585 20.48 175.705 20.72C175.865 20.96 176.005 21.2 176.125 21.44C176.245 21.64 176.345 21.78 176.425 21.86C176.585 22.06 176.785 22.36 177.025 22.76C177.305 23.16 177.445 23.4 177.445 23.48C177.445 23.56 177.485 23.62 177.565 23.66C177.645 23.7 177.725 23.72 177.805 23.72C177.805 23.68 177.805 23.54 177.805 23.3C177.845 23.06 177.865 22.8 177.865 22.52C177.905 22.24 177.945 21.98 177.985 21.74C178.025 21.46 178.045 21.28 178.045 21.2C178.085 21.04 178.165 20.64 178.285 20C178.405 19.36 178.525 18.68 178.645 17.96C178.765 17.24 178.865 16.56 178.945 15.92C179.025 15.28 179.065 14.88 179.065 14.72C179.065 14.6 179.085 14.34 179.125 13.94C179.165 13.54 179.185 13.1 179.185 12.62C179.225 12.14 179.265 11.7 179.305 11.3C179.345 10.9 179.385 10.64 179.425 10.52C179.425 10.44 179.445 10.24 179.485 9.92C179.565 9.56 179.625 9.3 179.665 9.14C179.665 9.1 179.705 9 179.785 8.84C179.905 8.68 179.965 8.58 179.965 8.54C180.085 8.42 180.245 8.24 180.445 8C180.685 7.76 180.925 7.52 181.165 7.28C181.405 7.04 181.625 6.84 181.825 6.68C182.065 6.48 182.225 6.38 182.305 6.38C182.345 6.3 182.485 6.2 182.725 6.08C182.965 5.96 183.125 5.9 183.205 5.9H183.625H183.925C183.965 5.9 184.005 5.96 184.045 6.08C184.125 6.2 184.205 6.3 184.285 6.38C184.285 6.42 184.325 6.56 184.405 6.8C184.485 7.04 184.525 7.2 184.525 7.28V12.14C184.525 12.22 184.565 12.46 184.645 12.86C184.765 13.26 184.825 13.56 184.825 13.76C184.865 13.88 184.925 14.06 185.005 14.3C185.085 14.54 185.165 14.8 185.245 15.08C185.325 15.32 185.385 15.56 185.425 15.8C185.505 16.04 185.545 16.22 185.545 16.34C185.585 16.62 185.685 17.04 185.845 17.6C186.045 18.12 186.145 18.46 186.145 18.62C186.265 18.9 186.445 19.42 186.685 20.18C186.925 20.9 187.185 21.68 187.465 22.52C187.745 23.36 188.005 24.16 188.245 24.92C188.485 25.64 188.665 26.14 188.785 26.42C188.825 26.54 188.905 26.78 189.025 27.14C189.185 27.5 189.325 27.88 189.445 28.28C189.605 28.64 189.745 29 189.865 29.36C189.985 29.68 190.065 29.88 190.105 29.96C190.225 30.24 190.445 30.82 190.765 31.7C191.125 32.58 191.525 33.62 191.965 34.82C192.445 35.98 192.945 37.22 193.465 38.54C193.985 39.82 194.465 41.02 194.905 42.14C195.385 43.3 195.805 44.3 196.165 45.14C196.525 46.02 196.765 46.6 196.885 46.88C196.885 46.96 196.905 47.04 196.945 47.12C196.985 47.24 197.025 47.34 197.065 47.42C197.105 47.54 197.165 47.66 197.245 47.78V48.2V48.5C197.245 48.54 197.185 48.68 197.065 48.92C196.985 49.16 196.925 49.32 196.885 49.4C196.885 49.48 196.825 49.6 196.705 49.76C196.625 49.92 196.585 50.04 196.585 50.12C196.505 50.16 196.385 50.32 196.225 50.6C196.065 50.88 195.945 51.02 195.865 51.02C195.865 51.1 195.825 51.22 195.745 51.38C195.665 51.54 195.625 51.66 195.625 51.74C195.545 51.78 195.465 51.92 195.385 52.16C195.345 52.4 195.305 52.56 195.265 52.64L194.965 52.1L194.185 52.34V55.34L193.645 55.58L193.345 55.34C193.265 55.14 193.205 54.74 193.165 54.14C193.125 53.58 193.105 53.22 193.105 53.06H190.405ZM195.9 47.12V41.6C195.74 41.52 195.5 41.4 195.18 41.24C194.9 41.08 194.68 40.96 194.52 40.88C194.48 40.76 194.44 40.66 194.4 40.58C194.32 40.42 194.28 40.32 194.28 40.28C194.28 40.2 194.22 39.94 194.1 39.5C194.02 39.06 193.98 38.78 193.98 38.66C193.94 38.54 193.88 38.34 193.8 38.06C193.76 37.78 193.72 37.5 193.68 37.22C193.64 36.9 193.6 36.6 193.56 36.32C193.56 36 193.56 35.78 193.56 35.66C193.52 35.18 193.46 34.52 193.38 33.68C193.34 32.8 193.28 31.92 193.2 31.04C193.16 30.12 193.1 29.3 193.02 28.58C192.98 27.86 192.94 27.44 192.9 27.32V24.86V22.46C192.98 22.3 193.08 22.06 193.2 21.74C193.36 21.38 193.48 21.16 193.56 21.08C193.64 21 193.84 20.8 194.16 20.48C194.52 20.12 194.76 19.9 194.88 19.82C194.96 19.7 195.12 19.58 195.36 19.46C195.64 19.3 195.82 19.22 195.9 19.22C195.94 19.22 196.08 19.2 196.32 19.16C196.56 19.08 196.72 19.04 196.8 19.04C196.84 19.04 196.98 19.08 197.22 19.16C197.34 19.2 197.44 19.22 197.52 19.22L197.76 19.82C197.8 20.06 197.84 20.52 197.88 21.2C197.92 21.84 197.94 22.52 197.94 23.24C197.98 23.96 198.02 24.64 198.06 25.28C198.1 25.92 198.12 26.36 198.12 26.6C198.12 26.84 198.14 27.3 198.18 27.98C198.26 28.66 198.34 29.4 198.42 30.2C198.5 31 198.58 31.76 198.66 32.48C198.74 33.2 198.8 33.72 198.84 34.04C198.84 34.12 198.86 34.28 198.9 34.52C198.94 34.76 198.96 35.02 198.96 35.3C199 35.54 199.04 35.76 199.08 35.96C199.12 36.16 199.14 36.28 199.14 36.32V37.04V37.64C199.14 37.72 199.08 37.9 198.96 38.18C198.88 38.42 198.84 38.58 198.84 38.66C198.76 38.7 198.62 38.86 198.42 39.14C198.3 39.3 198.2 39.44 198.12 39.56C198.04 39.8 197.92 40.04 197.76 40.28C197.76 40.6 197.74 41.18 197.7 42.02C197.66 42.9 197.6 43.82 197.52 44.78C197.48 45.74 197.42 46.64 197.34 47.48C197.3 48.32 197.26 48.92 197.22 49.28C197.22 49.36 197.16 49.64 197.04 50.12C196.96 50.64 196.88 51.04 196.8 51.32C196.8 51.48 196.74 51.76 196.62 52.16C196.54 52.6 196.5 52.86 196.5 52.94C196.5 53.02 196.46 53.18 196.38 53.42C196.3 53.66 196.22 53.8 196.14 53.84V47.36L195.9 47.12ZM192.84 5.18C192.84 5.14 192.84 5.1 192.84 5.06C192.88 4.98 192.9 4.92 192.9 4.88C192.9 4.84 192.92 4.8 192.96 4.76C193 4.6 193.14 4.38 193.38 4.1C193.66 3.82 193.82 3.64 193.86 3.56C193.9 3.56 194 3.52 194.16 3.44C194.36 3.32 194.56 3.2 194.76 3.08C195 2.92 195.22 2.78 195.42 2.66C195.62 2.54 195.78 2.46 195.9 2.42C195.98 2.38 196.1 2.36 196.26 2.36C196.42 2.36 196.54 2.36 196.62 2.36L196.98 2.48C197.1 2.52 197.26 2.54 197.46 2.54C197.62 2.62 197.76 2.68 197.88 2.72C197.96 2.76 198.06 2.8 198.18 2.84C198.18 3.04 198.2 3.22 198.24 3.38C198.32 3.78 198.38 4.04 198.42 4.16C198.42 4.24 198.42 4.42 198.42 4.7C198.46 4.98 198.48 5.28 198.48 5.6C198.52 5.92 198.56 6.24 198.6 6.56C198.64 6.88 198.66 7.12 198.66 7.28C198.66 7.64 198.66 8.14 198.66 8.78C198.66 9.38 198.66 9.98 198.66 10.58C198.7 11.18 198.72 11.72 198.72 12.2C198.76 12.68 198.8 12.96 198.84 13.04C198.8 13.2 198.76 13.34 198.72 13.46C198.64 13.7 198.58 13.88 198.54 14C198.5 14.08 198.48 14.18 198.48 14.3C198.48 14.38 198.46 14.46 198.42 14.54C198.38 14.66 198.34 14.76 198.3 14.84C198.18 14.92 198.06 15.1 197.94 15.38C197.82 15.62 197.72 15.74 197.64 15.74C197.56 15.78 197.38 15.88 197.1 16.04C196.86 16.2 196.58 16.36 196.26 16.52C195.98 16.68 195.7 16.84 195.42 17C195.14 17.12 194.94 17.2 194.82 17.24C194.82 17.32 194.68 17.36 194.4 17.36C194.16 17.36 193.98 17.4 193.86 17.48L193.74 17.42H193.56C193.52 17.34 193.42 17.24 193.26 17.12C193.1 16.96 193.04 16.84 193.08 16.76C193.12 16.72 193.12 16.52 193.08 16.16C193.08 15.8 193.08 15.6 193.08 15.56C193.04 15.28 193 14.86 192.96 14.3C192.96 13.7 192.96 13.1 192.96 12.5C192.96 11.86 192.96 11.28 192.96 10.76C192.96 10.24 192.96 9.9 192.96 9.74C192.96 9.66 192.94 9.42 192.9 9.02C192.86 8.62 192.82 8.2 192.78 7.76C192.74 7.28 192.72 6.84 192.72 6.44C192.72 6.04 192.72 5.8 192.72 5.72C192.72 5.64 192.74 5.56 192.78 5.48C192.78 5.4 192.78 5.34 192.78 5.3C192.82 5.26 192.84 5.22 192.84 5.18ZM203.593 41.3C203.513 41.22 203.373 41.06 203.173 40.82C203.013 40.54 202.893 40.36 202.813 40.28C202.853 40.2 202.813 39.9 202.693 39.38C202.613 38.82 202.533 38.44 202.453 38.24C202.413 38.16 202.373 38 202.333 37.76C202.293 37.52 202.253 37.26 202.213 36.98C202.173 36.7 202.133 36.42 202.093 36.14C202.053 35.86 202.013 35.66 201.973 35.54C201.933 35.38 201.873 34.94 201.793 34.22C201.753 33.5 201.693 32.66 201.613 31.7C201.533 30.7 201.433 29.64 201.313 28.52C201.233 27.4 201.133 26.36 201.013 25.4C200.933 24.4 200.853 23.56 200.773 22.88C200.733 22.16 200.693 21.7 200.653 21.5C200.573 21.18 200.493 20.7 200.413 20.06C200.333 19.38 200.253 18.96 200.173 18.8C200.173 18.76 200.133 18.66 200.053 18.5C199.973 18.3 199.933 18.18 199.933 18.14C199.893 18.1 199.853 18.02 199.813 17.9C199.813 17.78 199.773 17.66 199.693 17.54C199.613 17.38 199.533 17.24 199.453 17.12C199.453 17.08 199.453 16.98 199.453 16.82C199.453 16.66 199.473 16.56 199.513 16.52V16.1C199.513 15.98 199.533 15.88 199.573 15.8C199.573 15.72 199.673 15.52 199.873 15.2C200.073 14.88 200.213 14.64 200.293 14.48C200.333 14.48 200.433 14.42 200.593 14.3C200.753 14.14 200.913 13.98 201.073 13.82C201.273 13.66 201.453 13.5 201.613 13.34C201.813 13.18 201.953 13.06 202.033 12.98C202.113 12.94 202.313 12.86 202.633 12.74C202.993 12.62 203.213 12.56 203.293 12.56H203.893C203.973 12.56 204.133 12.6 204.373 12.68L204.493 12.8C204.613 12.92 204.673 12.98 204.673 12.98C204.713 13.1 204.793 13.34 204.913 13.7C205.033 14.02 205.113 14.24 205.153 14.36C205.153 14.4 205.173 14.52 205.213 14.72C205.253 14.88 205.293 15.08 205.333 15.32C205.413 15.56 205.473 15.8 205.513 16.04C205.593 16.24 205.653 16.42 205.693 16.58C205.693 16.7 205.693 16.9 205.693 17.18C205.733 17.42 205.773 17.68 205.813 17.96C205.853 18.24 205.893 18.52 205.933 18.8C205.973 19.04 205.993 19.2 205.993 19.28C205.993 19.36 206.013 19.56 206.053 19.88C206.133 20.16 206.193 20.46 206.233 20.78C206.273 21.1 206.313 21.42 206.353 21.74C206.393 22.02 206.413 22.18 206.413 22.22C206.493 22.3 206.553 22.42 206.593 22.58C206.633 22.74 206.693 22.86 206.773 22.94C206.853 22.86 206.993 22.7 207.193 22.46C207.393 22.18 207.593 21.9 207.793 21.62C208.033 21.3 208.253 21.02 208.453 20.78C208.693 20.54 208.853 20.38 208.933 20.3C208.973 20.22 209.213 19.94 209.653 19.46C210.093 18.98 210.433 18.62 210.673 18.38C210.713 18.38 210.773 18.34 210.853 18.26C210.933 18.14 211.013 18.1 211.093 18.14C211.213 18.02 211.433 17.86 211.753 17.66C212.113 17.42 212.333 17.26 212.413 17.18C212.613 17.14 212.953 17.02 213.433 16.82C213.953 16.62 214.313 16.48 214.513 16.4C214.553 16.44 214.593 16.46 214.633 16.46H214.933C214.973 16.46 215.013 16.48 215.053 16.52C215.093 16.52 215.153 16.52 215.233 16.52H215.473C215.513 16.6 215.593 16.68 215.713 16.76C215.873 16.84 215.993 16.9 216.073 16.94L216.553 17.54C216.633 17.62 216.733 17.8 216.853 18.08C217.013 18.32 217.133 18.52 217.213 18.68C217.253 18.68 217.293 18.78 217.333 18.98C217.373 19.18 217.413 19.32 217.453 19.4C217.493 19.56 217.613 20.02 217.813 20.78C218.053 21.5 218.293 22.3 218.533 23.18C218.813 24.02 219.053 24.82 219.253 25.58C219.493 26.34 219.653 26.82 219.733 27.02C219.733 27.06 219.753 27.18 219.793 27.38C219.873 27.58 219.953 27.82 220.033 28.1C220.113 28.34 220.193 28.6 220.273 28.88C220.353 29.12 220.393 29.3 220.393 29.42C220.433 29.5 220.513 29.9 220.633 30.62C220.793 31.34 220.953 32.14 221.113 33.02C221.273 33.86 221.413 34.66 221.533 35.42C221.653 36.14 221.713 36.56 221.713 36.68C221.793 36.72 221.873 36.88 221.953 37.16C222.033 37.4 222.073 37.56 222.073 37.64C222.033 37.76 222.013 37.9 222.013 38.06L221.953 38.36C221.953 38.48 221.893 38.66 221.773 38.9C221.653 39.1 221.553 39.2 221.473 39.2C221.473 39.28 221.413 39.42 221.293 39.62C221.173 39.78 221.033 39.96 220.873 40.16C220.713 40.36 220.553 40.56 220.393 40.76C220.233 40.96 220.133 41.08 220.093 41.12C220.053 41.2 220.013 41.38 219.973 41.66C219.933 41.94 219.893 42.24 219.853 42.56C219.813 42.88 219.773 43.18 219.733 43.46C219.693 43.74 219.673 43.92 219.673 44C219.673 43.92 219.593 43.74 219.433 43.46C219.273 43.18 219.213 43.02 219.253 42.98C219.253 42.9 219.213 42.68 219.133 42.32C219.093 42 219.073 41.8 219.073 41.72C218.993 41.68 218.813 41.68 218.533 41.72C218.293 41.8 218.113 41.84 217.993 41.84H217.813C217.693 41.84 217.633 41.82 217.633 41.78H217.093L216.853 41.48C216.773 41.4 216.713 41.18 216.673 40.82C216.673 40.42 216.633 40.18 216.553 40.1C216.513 39.98 216.413 39.46 216.253 38.54C216.093 37.62 215.913 36.64 215.713 35.6C215.513 34.56 215.313 33.58 215.113 32.66C214.953 31.74 214.853 31.22 214.813 31.1C214.733 30.86 214.593 30.42 214.393 29.78C214.233 29.14 214.033 28.48 213.793 27.8C213.553 27.08 213.333 26.4 213.133 25.76C212.933 25.12 212.793 24.66 212.713 24.38C212.713 24.66 212.693 25.32 212.653 26.36C212.653 27.36 212.613 28.46 212.533 29.66C212.493 30.82 212.433 31.9 212.353 32.9C212.273 33.9 212.193 34.54 212.113 34.82C212.113 34.98 212.053 35.3 211.933 35.78C211.853 36.26 211.753 36.56 211.633 36.68C211.633 36.6 211.633 36.26 211.633 35.66C211.633 35.02 211.633 34.34 211.633 33.62C211.633 32.9 211.633 32.24 211.633 31.64C211.633 31 211.633 30.64 211.633 30.56C211.633 30.44 211.613 30.22 211.573 29.9C211.573 29.54 211.573 29.18 211.573 28.82C211.573 28.42 211.573 28.06 211.573 27.74C211.573 27.38 211.573 27.14 211.573 27.02C211.573 26.82 211.573 26.5 211.573 26.06C211.613 25.58 211.633 25.08 211.633 24.56C211.633 24.04 211.633 23.56 211.633 23.12C211.673 22.64 211.693 22.32 211.693 22.16C211.613 22.24 211.493 22.4 211.333 22.64C211.213 22.84 211.073 23.08 210.913 23.36C210.793 23.6 210.653 23.84 210.493 24.08C210.333 24.32 210.233 24.48 210.193 24.56C210.073 24.68 209.913 24.94 209.713 25.34C209.553 25.74 209.413 26 209.293 26.12C209.253 26.24 209.193 26.44 209.113 26.72C209.033 26.96 208.953 27.22 208.873 27.5C208.793 27.78 208.713 28.04 208.633 28.28C208.553 28.52 208.513 28.66 208.513 28.7C208.473 28.9 208.413 29.42 208.333 30.26C208.293 31.1 208.253 32.02 208.213 33.02C208.173 34.02 208.133 34.96 208.093 35.84C208.093 36.68 208.093 37.18 208.093 37.34C208.013 37.5 207.873 37.74 207.673 38.06C207.513 38.38 207.393 38.58 207.313 38.66C207.273 38.74 207.153 38.86 206.953 39.02C206.753 39.18 206.553 39.36 206.353 39.56C206.153 39.76 205.953 39.96 205.753 40.16C205.593 40.32 205.513 40.44 205.513 40.52C205.473 40.56 205.413 40.72 205.333 41C205.293 41.24 205.233 41.52 205.153 41.84C205.113 42.2 205.053 42.52 204.973 42.8C204.933 43.08 204.893 43.26 204.853 43.34C204.853 43.38 204.773 43.5 204.613 43.7C204.493 43.94 204.433 44.1 204.433 44.18L204.733 41C204.653 41.16 204.553 41.44 204.433 41.84C204.353 42.24 204.273 42.66 204.193 43.1C204.113 43.58 204.033 44.02 203.953 44.42C203.873 44.82 203.813 45.1 203.773 45.26C203.773 45.38 203.673 45.68 203.473 46.16C203.273 46.64 203.153 46.94 203.113 47.06L203.593 41.3ZM231.024 42.56C230.904 42.44 230.684 42.28 230.364 42.08C230.084 41.92 229.884 41.8 229.764 41.72C229.684 41.68 229.524 41.52 229.284 41.24C229.084 41 228.944 40.84 228.864 40.76C228.824 40.64 228.724 40.46 228.564 40.22C228.444 39.98 228.364 39.78 228.324 39.62C228.244 39.5 228.144 39.3 228.024 39.02C227.944 38.74 227.844 38.46 227.724 38.18C227.604 37.9 227.484 37.64 227.364 37.4C227.284 37.16 227.224 37 227.184 36.92C227.184 36.84 227.144 36.68 227.064 36.44C227.024 36.16 226.964 35.88 226.884 35.6C226.804 35.28 226.724 34.98 226.644 34.7C226.564 34.38 226.504 34.16 226.464 34.04C226.464 33.92 226.444 33.74 226.404 33.5C226.404 33.22 226.364 32.94 226.284 32.66C226.244 32.34 226.204 32.06 226.164 31.82C226.124 31.54 226.084 31.36 226.044 31.28C226.044 31.2 226.024 30.92 225.984 30.44C225.984 29.96 225.984 29.62 225.984 29.42C225.984 29.34 225.964 29.18 225.924 28.94C225.924 28.66 225.924 28.38 225.924 28.1C225.924 27.78 225.924 27.5 225.924 27.26C225.924 26.98 225.924 26.8 225.924 26.72C225.844 26.6 225.784 26.32 225.744 25.88C225.744 25.44 225.704 25.18 225.624 25.1H225.504L225.324 25.04C225.324 25.04 225.244 25.06 225.084 25.1C224.924 25.1 224.744 25.12 224.544 25.16C224.384 25.16 224.204 25.18 224.004 25.22C223.844 25.22 223.744 25.22 223.704 25.22C223.664 25.22 223.544 25.22 223.344 25.22C223.144 25.18 222.964 25.16 222.804 25.16C222.724 25.16 222.644 25.16 222.564 25.16C222.524 25.12 222.464 25.1 222.384 25.1H222.084C222.044 25.1 221.944 25 221.784 24.8C221.664 24.6 221.584 24.46 221.544 24.38V24.2V24.14C221.544 24.06 221.584 23.9 221.664 23.66C221.784 23.38 221.864 23.2 221.904 23.12C221.984 22.96 222.064 22.84 222.144 22.76C222.184 22.68 222.244 22.62 222.324 22.58C222.404 22.46 222.564 22.28 222.804 22.04C223.084 21.8 223.364 21.56 223.644 21.32C223.964 21.04 224.264 20.8 224.544 20.6C224.824 20.4 225.024 20.26 225.144 20.18C225.184 20.14 225.324 20.04 225.564 19.88C225.844 19.72 226.024 19.64 226.104 19.64C226.144 19.48 226.224 19.18 226.344 18.74C226.464 18.3 226.564 17.84 226.644 17.36C226.764 16.88 226.864 16.44 226.944 16.04C227.064 15.6 227.164 15.3 227.244 15.14C227.244 15.02 227.264 14.86 227.304 14.66C227.344 14.42 227.384 14.2 227.424 14C227.464 13.76 227.524 13.52 227.604 13.28C227.684 13.04 227.884 12.68 228.204 12.2C228.524 11.72 228.744 11.42 228.864 11.3C228.944 11.26 229.144 11.08 229.464 10.76C229.784 10.44 230.024 10.28 230.184 10.28C230.304 10.2 230.524 10.08 230.844 9.92C231.204 9.72 231.444 9.62 231.564 9.62C231.644 9.66 231.724 9.68 231.804 9.68H232.104L232.584 9.74C232.624 9.74 232.664 9.78 232.704 9.86C232.744 9.94 232.804 9.98 232.884 9.98C232.884 10.14 232.864 10.46 232.824 10.94C232.784 11.42 232.764 11.7 232.764 11.78C232.724 12.06 232.684 12.44 232.644 12.92C232.604 13.36 232.584 13.62 232.584 13.7C232.504 13.86 232.424 14 232.344 14.12C232.224 14.36 232.164 14.52 232.164 14.6C232.164 14.8 232.144 15.12 232.104 15.56C232.064 16 232.024 16.46 231.984 16.94C231.944 17.42 231.904 17.88 231.864 18.32C231.824 18.72 231.804 18.98 231.804 19.1L232.344 19.16C232.624 19.12 233.064 19.04 233.664 18.92C234.264 18.76 234.904 18.6 235.584 18.44C236.264 18.28 236.904 18.14 237.504 18.02C238.104 17.9 238.524 17.8 238.764 17.72C238.884 17.68 239.064 17.64 239.304 17.6C239.584 17.56 239.844 17.5 240.084 17.42C240.364 17.34 240.664 17.28 240.984 17.24C241.064 17.24 241.244 17.26 241.524 17.3C241.804 17.3 242.024 17.3 242.184 17.3C242.224 17.34 242.384 17.38 242.664 17.42C242.984 17.42 243.184 17.42 243.264 17.42C243.304 17.5 243.344 17.58 243.384 17.66C243.464 17.74 243.544 17.84 243.624 17.96C243.584 18 243.564 18.04 243.564 18.08V18.26C243.564 18.34 243.544 18.4 243.504 18.44C243.504 18.48 243.504 18.54 243.504 18.62V18.8C243.424 18.88 243.364 18.98 243.324 19.1C243.244 19.18 243.184 19.26 243.144 19.34C243.144 19.42 243.124 19.48 243.084 19.52C243.004 19.56 242.864 19.7 242.664 19.94C242.504 20.14 242.384 20.28 242.304 20.36C242.304 20.44 242.204 20.56 242.004 20.72C241.804 20.84 241.704 20.94 241.704 21.02C241.624 21.06 241.444 21.16 241.164 21.32C240.884 21.44 240.684 21.5 240.564 21.5C240.484 21.5 240.284 21.58 239.964 21.74C239.644 21.9 239.444 21.98 239.364 21.98L239.004 25.64L238.644 25.16L238.344 22.34L237.684 22.28V22.52C237.644 22.68 237.644 23.06 237.684 23.66C237.764 24.26 237.784 24.64 237.744 24.8C237.744 24.96 237.744 25.2 237.744 25.52C237.744 25.84 237.744 26.18 237.744 26.54C237.744 26.9 237.744 27.24 237.744 27.56C237.784 27.84 237.824 28.02 237.864 28.1C237.824 28.18 237.804 28.26 237.804 28.34V28.64L237.744 29.06L237.384 28.76L236.604 22.28L231.384 23.6C231.344 23.68 231.324 23.78 231.324 23.9C231.324 23.98 231.304 24.08 231.264 24.2C231.264 24.28 231.264 24.36 231.264 24.44C231.264 24.56 231.244 24.78 231.204 25.1C231.204 25.38 231.204 25.54 231.204 25.58C231.204 25.86 231.224 26.12 231.264 26.36C231.304 26.56 231.324 26.78 231.324 27.02C231.324 27.22 231.344 27.38 231.384 27.5C231.384 27.62 231.404 27.9 231.444 28.34C231.484 28.74 231.504 29.02 231.504 29.18C231.464 29.3 231.484 29.54 231.564 29.9C231.644 30.26 231.684 30.46 231.684 30.5C231.724 30.7 231.784 30.96 231.864 31.28C231.944 31.56 232.024 31.86 232.104 32.18C232.184 32.5 232.264 32.78 232.344 33.02C232.424 33.26 232.464 33.4 232.464 33.44C232.464 33.52 232.504 33.7 232.584 33.98C232.664 34.22 232.764 34.5 232.884 34.82C233.004 35.1 233.104 35.38 233.184 35.66C233.304 35.94 233.404 36.14 233.484 36.26C233.524 36.34 233.564 36.4 233.604 36.44C233.724 36.56 233.804 36.62 233.844 36.62C233.924 36.62 234.124 36.68 234.444 36.8C234.764 36.88 234.964 36.92 235.044 36.92C235.084 37 235.144 37.08 235.224 37.16C235.344 37.24 235.404 37.3 235.404 37.34C235.364 37.46 235.344 37.56 235.344 37.64V38.06C235.344 38.1 235.324 38.14 235.284 38.18C235.284 38.22 235.284 38.28 235.284 38.36V38.6C235.204 38.68 235.064 38.88 234.864 39.2C234.704 39.52 234.584 39.76 234.504 39.92C234.424 39.92 234.264 40.04 234.024 40.28C233.824 40.52 233.704 40.68 233.664 40.76L233.244 45.56L232.704 45.5L232.584 45.02C232.544 44.9 232.504 44.76 232.464 44.6C232.464 44.48 232.484 44.38 232.524 44.3C232.484 44.18 232.444 44 232.404 43.76C232.404 43.56 232.404 43.34 232.404 43.1C232.404 42.86 232.384 42.62 232.344 42.38C232.344 42.18 232.324 42.04 232.284 41.96L231.144 54.86L231.024 42.56Z" fill="white"/>
</svg>