<svg width="221" height="52" viewBox="0 0 221 52" fill="none" xmlns="http://www.w3.org/2000/svg">
<path d="M24.76 48.06C24.6 48.06 24.3 48 23.86 47.88C23.42 47.8 23.18 47.72 23.14 47.64C23.06 47.6 23 47.54 22.96 47.46C22.88 47.3 22.84 47.18 22.84 47.1V46.8V46.74C22.84 46.66 22.88 46.46 22.96 46.14C23 45.98 23.06 45.84 23.14 45.72C23.18 45.64 23.28 45.48 23.44 45.24C23.64 45.04 23.84 44.82 24.04 44.58C24.28 44.38 24.5 44.16 24.7 43.92C24.9 43.72 25.04 43.58 25.12 43.5V42.48C25 42.2 24.8 41.74 24.52 41.1C24.24 40.5 23.94 39.8 23.62 39C23.3 38.2 22.96 37.36 22.6 36.48C22.28 35.64 21.96 34.82 21.64 34.02C21.32 33.22 21.04 32.52 20.8 31.92C20.56 31.28 20.38 30.82 20.26 30.54C20.14 30.22 19.92 29.7 19.6 28.98C19.32 28.22 19.02 27.42 18.7 26.58C18.42 25.74 18.14 24.96 17.86 24.24C17.58 23.52 17.38 23 17.26 22.68V23.88V24.96C17.26 25.16 17.28 25.44 17.32 25.8C17.36 26.12 17.38 26.48 17.38 26.88C17.42 27.24 17.46 27.6 17.5 27.96C17.54 28.28 17.56 28.5 17.56 28.62C17.6 28.7 17.66 28.9 17.74 29.22C17.82 29.5 17.9 29.82 17.98 30.18C18.06 30.54 18.12 30.88 18.16 31.2C18.24 31.52 18.28 31.74 18.28 31.86V32.7V33.48C18.28 33.56 18.18 33.82 17.98 34.26C17.78 34.7 17.64 34.98 17.56 35.1C17.56 35.18 17.5 35.44 17.38 35.88C17.3 36.32 17.26 36.6 17.26 36.72L17.02 37.02C16.94 36.94 16.82 36.82 16.66 36.66C16.54 36.5 16.44 36.38 16.36 36.3H16.12H15.94L15.4 40.26C15.32 40.18 15.24 40.06 15.16 39.9C15.08 39.74 15.04 39.62 15.04 39.54C15.04 39.34 14.98 38.92 14.86 38.28C14.78 37.64 14.74 37.22 14.74 37.02C14.66 37.02 14.54 36.96 14.38 36.84C14.22 36.76 14.1 36.72 14.02 36.72C13.98 36.64 13.88 36.52 13.72 36.36C13.56 36.2 13.46 36.08 13.42 36C13.38 35.88 13.3 35.66 13.18 35.34C13.1 34.98 13 34.6 12.88 34.2C12.8 33.8 12.7 33.44 12.58 33.12C12.5 32.76 12.44 32.52 12.4 32.4C12.36 32.32 12.26 32.08 12.1 31.68C11.94 31.28 11.84 30.98 11.8 30.78C11.8 30.7 11.7 30.5 11.5 30.18C11.3 29.82 11.16 29.6 11.08 29.52C11.04 29.44 10.96 29.3 10.84 29.1C10.72 28.86 10.6 28.62 10.48 28.38C10.36 28.14 10.24 27.92 10.12 27.72C10 27.52 9.92 27.38 9.88 27.3C9.76 27.14 9.56 26.86 9.28 26.46C9.04 26.02 8.78 25.58 8.5 25.14C8.22 24.66 7.94 24.22 7.66 23.82C7.42 23.42 7.26 23.16 7.18 23.04L6.76 23.34V32.4C6.6 32.6 6.38 32.98 6.1 33.54C5.82 34.1 5.64 34.48 5.56 34.68C5.56 34.8 5.54 35.06 5.5 35.46C5.5 35.82 5.48 36.22 5.44 36.66C5.4 37.1 5.36 37.5 5.32 37.86C5.32 38.26 5.32 38.52 5.32 38.64C5.32 38.76 5.26 38.98 5.14 39.3C5.06 39.62 5.02 39.84 5.02 39.96C4.94 39.88 4.84 39.76 4.72 39.6C4.64 39.44 4.6 39.32 4.6 39.24C4.6 39.12 4.58 38.9 4.54 38.58C4.5 38.26 4.46 37.92 4.42 37.56C4.42 37.24 4.4 36.92 4.36 36.6C4.32 36.32 4.3 36.12 4.3 36H4.24H3.94C3.82 36.08 3.68 36.14 3.52 36.18C3.2 36.26 3.02 36.3 2.98 36.3H2.44H2.08C2 36.3 1.88 36.2 1.72 36C1.56 35.84 1.44 35.72 1.36 35.64C1.4 35.2 1.46 34.4 1.54 33.24C1.62 32.08 1.7 30.84 1.78 29.52C1.86 28.2 1.92 26.96 1.96 25.8C2.04 24.64 2.08 23.82 2.08 23.34V19.98V16.56C2.08 16.52 2.06 16.4 2.02 16.2C1.98 15.96 1.94 15.72 1.9 15.48C1.9 15.24 1.88 15.02 1.84 14.82C1.8 14.58 1.78 14.42 1.78 14.34C1.7 14.18 1.62 13.94 1.54 13.62C1.5 13.26 1.44 13.04 1.36 12.96C1.32 12.92 1.24 12.78 1.12 12.54C1.04 12.26 0.96 11.98 0.88 11.7C0.76 11.38 0.66 11.1 0.58 10.86C0.5 10.62 0.46 10.46 0.46 10.38V10.08V9.72C0.5 9.6 0.6 9.36 0.76 9C0.92 8.64 1.02 8.46 1.06 8.46C1.1 8.42 1.2 8.32 1.36 8.16C1.52 8 1.68 7.84 1.84 7.68C2.04 7.48 2.2 7.3 2.32 7.14C2.48 6.98 2.6 6.86 2.68 6.78C2.76 6.78 2.96 6.7 3.28 6.54C3.64 6.34 3.86 6.24 3.94 6.24C4.02 6.24 4.1 6.22 4.18 6.18C4.3 6.1 4.4 6.06 4.48 6.06C4.56 6.06 4.64 6.1 4.72 6.18C4.84 6.22 4.94 6.24 5.02 6.24C5.06 6.24 5.1 6.26 5.14 6.3C5.26 6.42 5.32 6.48 5.32 6.48C5.32 6.56 5.4 6.76 5.56 7.08C5.72 7.4 5.88 7.76 6.04 8.16C6.24 8.52 6.42 8.86 6.58 9.18C6.78 9.5 6.9 9.68 6.94 9.72C7.02 9.88 7.18 10.2 7.42 10.68C7.66 11.12 7.92 11.6 8.2 12.12C8.48 12.64 8.74 13.14 8.98 13.62C9.22 14.06 9.38 14.38 9.46 14.58C9.5 14.66 9.58 14.82 9.7 15.06C9.82 15.26 9.94 15.48 10.06 15.72C10.22 15.96 10.36 16.2 10.48 16.44C10.6 16.64 10.7 16.78 10.78 16.86C10.94 17.06 11.14 17.36 11.38 17.76C11.66 18.16 11.8 18.4 11.8 18.48C11.8 18.56 11.84 18.62 11.92 18.66C12 18.7 12.08 18.72 12.16 18.72C12.16 18.68 12.16 18.54 12.16 18.3C12.2 18.06 12.22 17.8 12.22 17.52C12.26 17.24 12.3 16.98 12.34 16.74C12.38 16.46 12.4 16.28 12.4 16.2C12.44 16.04 12.52 15.64 12.64 15C12.76 14.36 12.88 13.68 13 12.96C13.12 12.24 13.22 11.56 13.3 10.92C13.38 10.28 13.42 9.88 13.42 9.72C13.42 9.6 13.44 9.34 13.48 8.94C13.52 8.54 13.54 8.1 13.54 7.62C13.58 7.14 13.62 6.7 13.66 6.3C13.7 5.9 13.74 5.64 13.78 5.52C13.78 5.44 13.8 5.24 13.84 4.92C13.92 4.56 13.98 4.3 14.02 4.14C14.02 4.1 14.06 4 14.14 3.84C14.26 3.68 14.32 3.58 14.32 3.54C14.44 3.42 14.6 3.24 14.8 3C15.04 2.76 15.28 2.52 15.52 2.28C15.76 2.04 15.98 1.84 16.18 1.68C16.42 1.48 16.58 1.38 16.66 1.38C16.7 1.3 16.84 1.2 17.08 1.08C17.32 0.959998 17.48 0.899998 17.56 0.899998H17.98H18.28C18.32 0.899998 18.36 0.959998 18.4 1.08C18.48 1.2 18.56 1.3 18.64 1.38C18.64 1.42 18.68 1.56 18.76 1.8C18.84 2.04 18.88 2.2 18.88 2.28V7.14C18.88 7.22 18.92 7.46 19 7.86C19.12 8.26 19.18 8.56 19.18 8.76C19.22 8.88 19.28 9.06 19.36 9.3C19.44 9.54 19.52 9.8 19.6 10.08C19.68 10.32 19.74 10.56 19.78 10.8C19.86 11.04 19.9 11.22 19.9 11.34C19.94 11.62 20.04 12.04 20.2 12.6C20.4 13.12 20.5 13.46 20.5 13.62C20.62 13.9 20.8 14.42 21.04 15.18C21.28 15.9 21.54 16.68 21.82 17.52C22.1 18.36 22.36 19.16 22.6 19.92C22.84 20.64 23.02 21.14 23.14 21.42C23.18 21.54 23.26 21.78 23.38 22.14C23.54 22.5 23.68 22.88 23.8 23.28C23.96 23.64 24.1 24 24.22 24.36C24.34 24.68 24.42 24.88 24.46 24.96C24.58 25.24 24.8 25.82 25.12 26.7C25.48 27.58 25.88 28.62 26.32 29.82C26.8 30.98 27.3 32.22 27.82 33.54C28.34 34.82 28.82 36.02 29.26 37.14C29.74 38.3 30.16 39.3 30.52 40.14C30.88 41.02 31.12 41.6 31.24 41.88C31.24 41.96 31.26 42.04 31.3 42.12C31.34 42.24 31.38 42.34 31.42 42.42C31.46 42.54 31.52 42.66 31.6 42.78V43.2V43.5C31.6 43.54 31.54 43.68 31.42 43.92C31.34 44.16 31.28 44.32 31.24 44.4C31.24 44.48 31.18 44.6 31.06 44.76C30.98 44.92 30.94 45.04 30.94 45.12C30.86 45.16 30.74 45.32 30.58 45.6C30.42 45.88 30.3 46.02 30.22 46.02C30.22 46.1 30.18 46.22 30.1 46.38C30.02 46.54 29.98 46.66 29.98 46.74C29.9 46.78 29.82 46.92 29.74 47.16C29.7 47.4 29.66 47.56 29.62 47.64L29.32 47.1L28.54 47.34V50.34L28 50.58L27.7 50.34C27.62 50.14 27.56 49.74 27.52 49.14C27.48 48.58 27.46 48.22 27.46 48.06H24.76ZM41.0556 37.8C41.0556 37.96 40.9956 38.32 40.8756 38.88C40.7956 39.48 40.7156 39.88 40.6356 40.08L40.3356 40.62L39.7956 40.32V36.48C39.7156 36.44 39.5356 36.38 39.2556 36.3C39.0156 36.26 38.7556 36.2 38.4756 36.12C38.1956 36.04 37.9156 35.98 37.6356 35.94C37.3956 35.86 37.2156 35.8 37.0956 35.76C37.0156 35.76 36.8756 35.74 36.6756 35.7C36.5156 35.62 36.3356 35.54 36.1356 35.46C35.9356 35.38 35.7356 35.32 35.5356 35.28C35.3356 35.2 35.1956 35.14 35.1156 35.1C35.0356 35.1 34.8356 35.04 34.5156 34.92C34.2356 34.76 34.0156 34.64 33.8556 34.56C33.8156 34.48 33.6756 34.36 33.4356 34.2C33.1956 34.04 33.0356 33.92 32.9556 33.84C32.8356 33.72 32.5956 33.54 32.2356 33.3C31.8756 33.06 31.6756 32.94 31.6356 32.94C31.5556 32.82 31.3356 32.58 30.9756 32.22C30.6556 31.86 30.4156 31.66 30.2556 31.62C30.2556 31.54 30.1156 31.34 29.8356 31.02C29.5956 30.7 29.4156 30.44 29.2956 30.24C29.2156 30.16 29.0956 30 28.9356 29.76C28.8156 29.52 28.7156 29.36 28.6356 29.28C28.5956 29.2 28.5156 29.08 28.3956 28.92C28.3156 28.72 28.2356 28.52 28.1556 28.32C28.0756 28.08 27.9756 27.88 27.8556 27.72C27.7756 27.52 27.7156 27.4 27.6756 27.36C27.5956 27.24 27.4756 26.94 27.3156 26.46C27.1956 25.94 27.0956 25.58 27.0156 25.38C27.0156 25.26 26.9756 24.96 26.8956 24.48C26.8156 23.96 26.7756 23.64 26.7756 23.52V21.9V20.28C26.7756 20.2 26.8156 19.94 26.8956 19.5C26.9756 19.06 27.0156 18.78 27.0156 18.66C27.0956 18.42 27.1956 18.06 27.3156 17.58C27.4756 17.06 27.5956 16.72 27.6756 16.56C27.7156 16.56 27.7756 16.48 27.8556 16.32C27.9756 16.16 28.0756 15.98 28.1556 15.78C28.2356 15.58 28.3156 15.38 28.3956 15.18C28.5156 14.98 28.5956 14.82 28.6356 14.7C28.7156 14.62 28.8156 14.46 28.9356 14.22C29.0956 13.98 29.2156 13.84 29.2956 13.8C29.4156 13.64 29.5956 13.4 29.8356 13.08C30.1156 12.72 30.2556 12.5 30.2556 12.42C30.3356 12.34 30.4956 12.18 30.7356 11.94C31.0156 11.7 31.2156 11.54 31.3356 11.46C31.3356 11.38 31.4956 11.22 31.8156 10.98C32.1356 10.74 32.3756 10.6 32.5356 10.56L33.4956 9.84C33.6956 9.76 34.0356 9.6 34.5156 9.36C35.0356 9.12 35.3556 8.98 35.4756 8.94C35.5556 8.94 35.7156 8.88 35.9556 8.76C36.2356 8.64 36.4156 8.54 36.4956 8.46C36.6956 8.46 36.9356 8.42 37.2156 8.34C37.5356 8.26 37.7356 8.22 37.8156 8.22H39.5556H41.3556C41.3956 8.22 41.6556 8.26 42.1356 8.34C42.6556 8.42 43.0556 8.46 43.3356 8.46C43.4556 8.54 43.7356 8.64 44.1756 8.76C44.6156 8.88 44.8756 8.94 44.9556 8.94C45.0756 8.94 45.3756 9.04 45.8556 9.24C46.3756 9.4 46.6956 9.5 46.8156 9.54C46.8956 9.58 47.0556 9.66 47.2956 9.78C47.5356 9.9 47.7956 10.02 48.0756 10.14C48.3556 10.26 48.6156 10.4 48.8556 10.56C49.1356 10.68 49.3356 10.76 49.4556 10.8C49.5756 10.88 49.7556 11 49.9956 11.16C50.2356 11.28 50.3556 11.38 50.3556 11.46C50.4756 11.58 50.7156 11.8 51.0756 12.12C51.4356 12.44 51.6356 12.66 51.6756 12.78C51.7556 12.86 51.8956 13.08 52.0956 13.44C52.2956 13.76 52.3956 13.96 52.3956 14.04V14.94V16.02C52.3556 16.14 52.3156 16.28 52.2756 16.44C52.2356 16.56 52.1756 16.68 52.0956 16.8C52.0556 16.88 52.0156 16.96 51.9756 17.04C51.9756 17.08 51.9356 17.18 51.8556 17.34C51.8156 17.5 51.7556 17.6 51.6756 17.64C51.6356 17.72 51.4956 17.94 51.2556 18.3C51.0156 18.62 50.8556 18.82 50.7756 18.9C50.6956 18.98 50.5356 19.16 50.2956 19.44C50.0556 19.72 49.8956 19.9 49.8156 19.98C49.6556 20.06 49.3956 20.22 49.0356 20.46C48.7156 20.7 48.5156 20.84 48.4356 20.88C48.4356 20.92 48.3556 21 48.1956 21.12C48.0356 21.2 47.8556 21.3 47.6556 21.42C47.4556 21.5 47.2556 21.6 47.0556 21.72C46.8556 21.8 46.6956 21.86 46.5756 21.9C46.4956 21.9 46.3156 21.94 46.0356 22.02C45.7956 22.1 45.6156 22.14 45.4956 22.14C45.3356 22.22 45.1156 22.3 44.8356 22.38C44.5556 22.46 44.3756 22.5 44.2956 22.5C44.1756 22.5 43.9556 22.52 43.6356 22.56C43.3156 22.6 42.9756 22.64 42.6156 22.68C42.2556 22.68 41.9156 22.7 41.5956 22.74C41.3156 22.78 41.1356 22.8 41.0556 22.8H39.4356H37.8156C37.6956 22.8 37.3956 22.78 36.9156 22.74C36.4756 22.7 35.9956 22.68 35.4756 22.68C34.9556 22.64 34.4756 22.6 34.0356 22.56C33.5956 22.52 33.3356 22.5 33.2556 22.5H32.7156H32.2356C32.2356 22.58 32.2756 22.76 32.3556 23.04C32.4756 23.28 32.5356 23.44 32.5356 23.52C32.6156 23.64 32.7756 23.96 33.0156 24.48C33.2556 24.96 33.4156 25.26 33.4956 25.38C33.5756 25.54 33.6956 25.74 33.8556 25.98C34.0556 26.22 34.1556 26.38 34.1556 26.46C34.2756 26.54 34.4556 26.7 34.6956 26.94C34.9356 27.18 35.1956 27.44 35.4756 27.72C35.7556 28 36.0156 28.26 36.2556 28.5C36.5356 28.74 36.7356 28.9 36.8556 28.98C36.8556 29.06 36.9756 29.18 37.2156 29.34C37.4956 29.5 37.6956 29.62 37.8156 29.7C37.9756 29.78 38.2956 29.94 38.7756 30.18C39.2556 30.42 39.5756 30.56 39.7356 30.6C39.7756 30.6 39.9156 30.66 40.1556 30.78C40.3956 30.86 40.5556 30.9 40.6356 30.9C40.8356 30.98 41.1956 31.06 41.7156 31.14C42.2356 31.18 42.5556 31.24 42.6756 31.32H43.5756H44.5956C44.7156 31.24 44.9356 31.18 45.2556 31.14C45.5756 31.06 45.7956 30.98 45.9156 30.9L46.2156 30.6V26.76C46.2556 26.64 46.2956 26.5 46.3356 26.34C46.3756 26.22 46.4156 26.12 46.4556 26.04C46.4956 25.92 46.5356 25.82 46.5756 25.74C46.6156 25.7 46.6356 25.66 46.6356 25.62C46.6356 25.54 46.6556 25.48 46.6956 25.44C46.7356 25.36 46.7756 25.26 46.8156 25.14L48.4356 23.52C48.5156 23.44 48.7156 23.32 49.0356 23.16C49.3956 23 49.6556 22.88 49.8156 22.8H50.0556H50.3556C50.4356 22.88 50.5756 23 50.7756 23.16C50.9756 23.32 51.0756 23.44 51.0756 23.52C51.1156 23.56 51.1556 23.8 51.1956 24.24C51.2756 24.68 51.3556 24.98 51.4356 25.14V26.22V27.36C51.3556 27.52 51.2756 27.8 51.1956 28.2C51.1556 28.6 51.1156 28.86 51.0756 28.98C51.0756 29.02 51.0356 29.14 50.9556 29.34C50.8756 29.5 50.7756 29.68 50.6556 29.88C50.5756 30.08 50.4756 30.28 50.3556 30.48C50.2356 30.68 50.1356 30.82 50.0556 30.9C50.0156 31.02 49.9156 31.22 49.7556 31.5C49.5956 31.74 49.4956 31.86 49.4556 31.86C49.3756 31.94 49.2156 32.1 48.9756 32.34C48.7756 32.54 48.5556 32.76 48.3156 33C48.0756 33.24 47.8356 33.48 47.5956 33.72C47.3956 33.92 47.2356 34.06 47.1156 34.14C47.1156 34.22 46.9956 34.34 46.7556 34.5C46.5156 34.66 46.3356 34.78 46.2156 34.86C46.1356 34.9 45.9156 35 45.5556 35.16C45.2356 35.32 45.0356 35.42 44.9556 35.46C44.7956 35.46 44.4956 35.56 44.0556 35.76C43.6556 35.96 43.4156 36.1 43.3356 36.18C43.2556 36.18 43.1356 36.22 42.9756 36.3C42.8556 36.42 42.7556 36.48 42.6756 36.48C42.6756 36.72 42.6556 37.14 42.6156 37.74C42.6156 38.34 42.5956 38.98 42.5556 39.66C42.5156 40.38 42.4556 41.04 42.3756 41.64C42.3356 42.28 42.2956 42.72 42.2556 42.96C42.2556 43.08 42.2156 43.34 42.1356 43.74C42.0956 44.14 42.0356 44.42 41.9556 44.58C41.9556 44.62 41.9156 44.72 41.8356 44.88C41.7556 45.04 41.7156 45.14 41.7156 45.18C41.6356 45.06 41.5556 44.8 41.4756 44.4C41.3956 44 41.3556 43.72 41.3556 43.56C41.3556 43.32 41.3356 42.92 41.2956 42.36C41.2556 41.84 41.2156 41.26 41.1756 40.62C41.1756 40.02 41.1556 39.44 41.1156 38.88C41.0756 38.36 41.0556 38 41.0556 37.8ZM31.8756 16.86C31.9556 16.86 32.1356 16.88 32.4156 16.92C32.6956 16.92 32.9956 16.94 33.3156 16.98C33.6356 16.98 33.9356 17 34.2156 17.04C34.5356 17.04 34.7556 17.04 34.8756 17.04L35.3556 17.16C35.5156 17.2 35.6556 17.24 35.7756 17.28C36.0556 17.36 36.5156 17.44 37.1556 17.52C37.8356 17.6 38.2756 17.64 38.4756 17.64H42.7956H45.9156L47.1156 17.28C47.0356 17.16 46.7956 16.9 46.3956 16.5C45.9956 16.1 45.6956 15.82 45.4956 15.66C45.4556 15.62 45.3356 15.54 45.1356 15.42C44.9356 15.3 44.6956 15.18 44.4156 15.06C44.1356 14.9 43.8556 14.76 43.5756 14.64C43.3356 14.52 43.1356 14.44 42.9756 14.4C42.9356 14.4 42.8156 14.38 42.6156 14.34C42.4556 14.26 42.2556 14.18 42.0156 14.1C41.8156 14.02 41.6156 13.96 41.4156 13.92C41.2556 13.84 41.1356 13.8 41.0556 13.8C40.8556 13.72 40.5556 13.62 40.1556 13.5C39.7556 13.38 39.5156 13.32 39.4356 13.32H37.0356H34.5756C34.4556 13.4 34.2356 13.54 33.9156 13.74C33.5956 13.94 33.3756 14.04 33.2556 14.04L33.0756 14.22C33.0356 14.26 33.0156 14.3 33.0156 14.34C33.0156 14.38 32.9956 14.4 32.9556 14.4C32.8756 14.48 32.7556 14.7 32.5956 15.06C32.4356 15.38 32.3156 15.58 32.2356 15.66C32.1956 15.74 32.1356 15.9 32.0556 16.14C32.0156 16.38 31.9556 16.52 31.8756 16.56V16.86ZM65.598 47.52C65.558 47.52 65.398 47.44 65.118 47.28C64.878 47.16 64.678 47.1 64.518 47.1C64.398 47.14 64.298 47.18 64.218 47.22C64.058 47.3 63.978 47.4 63.978 47.52H63.738H63.618C63.618 47.44 63.518 47.3 63.318 47.1C63.118 46.9 62.978 46.8 62.898 46.8C62.898 46.76 62.698 46.68 62.298 46.56C61.938 46.44 61.698 46.32 61.578 46.2C61.498 46.2 61.358 46.14 61.158 46.02C60.958 45.9 60.818 45.8 60.738 45.72C60.658 45.68 60.498 45.58 60.258 45.42C60.058 45.3 59.858 45.16 59.658 45C59.458 44.88 59.278 44.76 59.118 44.64C58.958 44.52 58.878 44.44 58.878 44.4C58.798 44.32 58.638 44.12 58.398 43.8C58.158 43.52 57.898 43.2 57.618 42.84C57.338 42.48 57.078 42.14 56.838 41.82C56.638 41.5 56.498 41.28 56.418 41.16C56.378 41 56.238 40.62 55.998 40.02C55.758 39.42 55.598 38.98 55.518 38.7C55.478 38.58 55.418 38.38 55.338 38.1C55.298 37.86 55.238 37.6 55.158 37.32C55.118 37.08 55.078 36.86 55.038 36.66C54.998 36.46 54.978 36.34 54.978 36.3V35.94C54.978 35.74 55.018 35.56 55.098 35.4C55.098 35.24 55.118 35.04 55.158 34.8C55.238 34.52 55.278 34.36 55.278 34.32L55.398 34.08C55.478 33.92 55.558 33.84 55.638 33.84C55.678 33.8 55.798 33.72 55.998 33.6C56.198 33.44 56.418 33.3 56.658 33.18C56.898 33.02 57.098 32.88 57.258 32.76C57.458 32.64 57.598 32.56 57.678 32.52C57.678 32.44 57.818 32.34 58.098 32.22C58.378 32.06 58.538 31.98 58.578 31.98C58.618 31.9 58.658 31.84 58.698 31.8C58.818 31.68 58.878 31.62 58.878 31.62C58.718 31.62 58.418 31.52 57.978 31.32C57.578 31.12 57.298 30.98 57.138 30.9C57.018 30.7 56.718 30.42 56.238 30.06C55.798 29.7 55.498 29.5 55.338 29.46C55.098 29.26 54.898 29.06 54.738 28.86C54.418 28.54 54.138 28.22 53.898 27.9C53.858 27.86 53.818 27.8 53.778 27.72C53.738 27.64 53.718 27.52 53.718 27.36C53.598 27.24 53.398 26.96 53.118 26.52C52.878 26.08 52.718 25.82 52.638 25.74C52.598 25.62 52.478 25.36 52.278 24.96C52.118 24.56 52.038 24.28 52.038 24.12C51.958 24 51.858 23.68 51.738 23.16C51.618 22.64 51.558 22.3 51.558 22.14C51.558 22.02 51.558 21.8 51.558 21.48C51.518 21.16 51.498 20.96 51.498 20.88C51.498 20.88 51.518 20.76 51.558 20.52C51.598 20.28 51.658 20.02 51.738 19.74C51.778 19.42 51.838 19.12 51.918 18.84C51.958 18.52 51.998 18.28 52.038 18.12C52.038 17.76 52.078 17.3 52.158 16.74C52.238 16.18 52.278 15.86 52.278 15.78C52.278 15.7 52.398 15.46 52.638 15.06C52.878 14.66 53.058 14.36 53.178 14.16C53.338 14 53.558 13.68 53.838 13.2C54.158 12.72 54.398 12.38 54.558 12.18C54.638 12.1 54.778 11.96 54.978 11.76C55.178 11.56 55.298 11.42 55.338 11.34C55.458 11.22 55.678 11.06 55.998 10.86C56.358 10.62 56.718 10.38 57.078 10.14C57.438 9.9 57.758 9.68 58.038 9.48C58.318 9.24 58.498 9.08 58.578 9C58.658 8.96 58.958 8.82 59.478 8.58C59.998 8.3 60.418 8.08 60.738 7.92H61.038C61.118 7.92 61.178 7.92 61.218 7.92C61.298 7.88 61.378 7.86 61.458 7.86C61.618 7.86 61.918 7.78 62.358 7.62C62.838 7.46 63.118 7.38 63.198 7.38C63.318 7.34 63.558 7.34 63.918 7.38C64.278 7.38 64.478 7.36 64.518 7.32C64.638 7.32 64.838 7.32 65.118 7.32C65.438 7.32 65.758 7.34 66.078 7.38C66.398 7.38 66.698 7.38 66.978 7.38C67.258 7.38 67.438 7.38 67.518 7.38C67.518 7.18 67.618 6.82 67.818 6.3C68.018 5.74 68.158 5.38 68.238 5.22C68.278 5.18 68.318 5.04 68.358 4.8C68.438 4.56 68.518 4.4 68.598 4.32C68.598 4.24 68.698 4.1 68.898 3.9C69.098 3.7 69.238 3.58 69.318 3.54C69.318 3.46 69.438 3.36 69.678 3.24C69.958 3.08 70.138 3 70.218 3C70.298 2.96 70.418 2.9 70.578 2.82C70.738 2.7 70.898 2.6 71.058 2.52C71.218 2.4 71.378 2.28 71.538 2.16H72.378C72.418 2.16 72.478 2.18 72.558 2.22C72.678 2.26 72.778 2.3 72.858 2.34C72.978 2.42 73.078 2.48 73.158 2.52L73.278 2.64C73.398 2.76 73.458 2.82 73.458 2.82C73.658 3.02 73.718 3.26 73.638 3.54C73.638 3.7 73.658 4.02 73.698 4.5C73.778 4.98 73.838 5.5 73.878 6.06C73.958 6.62 73.998 7.16 73.998 7.68C74.038 8.2 74.038 8.56 73.998 8.76C73.998 8.88 73.998 9.1 73.998 9.42C74.038 9.74 74.058 10.08 74.058 10.44C74.098 10.8 74.118 11.16 74.118 11.52C74.158 11.84 74.178 12.06 74.178 12.18C74.218 12.46 74.218 12.9 74.178 13.5C74.178 14.06 74.178 14.36 74.178 14.4C74.178 14.72 74.138 15.28 74.058 16.08C73.978 16.84 73.878 17.66 73.758 18.54C73.678 19.38 73.578 20.18 73.458 20.94C73.338 21.7 73.238 22.22 73.158 22.5C73.158 22.66 73.198 22.9 73.278 23.22C73.398 23.5 73.458 23.72 73.458 23.88C73.418 24 73.418 24.26 73.458 24.66C73.498 25.06 73.558 25.5 73.638 25.98C73.718 26.46 73.778 26.9 73.818 27.3C73.898 27.7 73.958 27.96 73.998 28.08C74.038 28.16 74.058 28.32 74.058 28.56C74.098 28.76 74.118 29 74.118 29.28C74.158 29.52 74.178 29.76 74.178 30C74.218 30.24 74.238 30.42 74.238 30.54C74.278 30.7 74.318 30.98 74.358 31.38C74.438 31.74 74.498 32.14 74.538 32.58C74.578 33.02 74.618 33.44 74.658 33.84C74.698 34.2 74.718 34.44 74.718 34.56C74.638 34.76 74.618 35.06 74.658 35.46C74.698 35.86 74.718 36.1 74.718 36.18C74.718 36.26 74.658 36.62 74.538 37.26C74.458 37.9 74.418 38.38 74.418 38.7C74.418 38.94 74.318 39.38 74.118 40.02C73.958 40.66 73.878 41.1 73.878 41.34C73.878 41.38 73.818 41.52 73.698 41.76C73.618 42 73.538 42.12 73.458 42.12C73.298 42.28 73.118 42.52 72.918 42.84C72.718 43.2 72.598 43.42 72.558 43.5C72.478 43.54 72.358 43.64 72.198 43.8C72.038 44 71.918 44.1 71.838 44.1C71.798 44.18 71.678 44.3 71.478 44.46C71.318 44.62 71.118 44.78 70.878 44.94C70.678 45.1 70.458 45.24 70.218 45.36C70.018 45.52 69.898 45.62 69.858 45.66C69.858 45.7 69.718 45.74 69.438 45.78C69.198 45.86 68.998 45.94 68.838 46.02C68.798 46.1 68.558 46.24 68.118 46.44C67.678 46.64 67.378 46.76 67.218 46.8C67.138 46.92 67.038 47.14 66.918 47.46C66.798 47.82 66.678 48.18 66.558 48.54C66.438 48.9 66.338 49.24 66.258 49.56C66.178 49.88 66.138 50.1 66.138 50.22C66.138 50.3 66.098 50.46 66.018 50.7C65.938 50.94 65.858 51.08 65.778 51.12H65.598H65.538C65.538 51.08 65.518 50.96 65.478 50.76C65.478 50.6 65.458 50.4 65.418 50.16C65.418 49.96 65.418 49.78 65.418 49.62C65.458 49.46 65.518 49.34 65.598 49.26C65.558 49.06 65.538 48.76 65.538 48.36C65.578 47.96 65.598 47.68 65.598 47.52ZM59.958 32.22C59.998 32.34 60.078 32.6 60.198 33C60.358 33.36 60.498 33.76 60.618 34.2C60.778 34.64 60.918 35.06 61.038 35.46C61.158 35.86 61.218 36.14 61.218 36.3C61.218 36.42 61.258 36.58 61.338 36.78C61.458 36.98 61.578 37.18 61.698 37.38C61.818 37.62 61.938 37.84 62.058 38.04C62.178 38.24 62.278 38.38 62.358 38.46C62.358 38.58 62.518 38.86 62.838 39.3C63.158 39.78 63.418 40.12 63.618 40.32C63.698 40.4 63.858 40.52 64.098 40.68C64.338 40.84 64.478 41 64.518 41.16C64.598 41.24 64.698 41.32 64.818 41.4C64.978 41.52 65.158 41.58 65.358 41.58C65.438 41.66 65.618 41.76 65.898 41.88C66.178 42.04 66.358 42.12 66.438 42.12C66.518 42.16 66.618 42.18 66.738 42.18C66.858 42.22 67.018 42.24 67.218 42.24C67.298 42.32 67.438 42.36 67.638 42.36C67.838 42.4 67.978 42.42 68.058 42.42L68.298 42.3C68.498 42.22 68.598 42.16 68.598 42.12C68.678 42.04 68.778 41.82 68.898 41.46C69.058 41.14 69.138 40.94 69.138 40.86C69.138 40.66 69.118 40.4 69.078 40.08C69.038 39.8 69.018 39.62 69.018 39.54C69.178 39.38 69.258 39.06 69.258 38.58C69.258 38.1 69.218 37.78 69.138 37.62C69.098 37.54 69.058 37.32 69.018 36.96C68.978 36.6 68.938 36.2 68.898 35.76C68.898 35.32 68.898 34.9 68.898 34.5C68.898 34.1 68.938 33.8 69.018 33.6C68.978 33.52 68.918 33.38 68.838 33.18C68.798 32.94 68.758 32.7 68.718 32.46C68.678 32.18 68.658 31.92 68.658 31.68C68.658 31.44 68.698 31.26 68.778 31.14C68.778 31.06 68.758 30.98 68.718 30.9C68.678 30.78 68.638 30.68 68.598 30.6L68.478 30.24C68.438 30.24 68.398 30.22 68.358 30.18L68.238 30.06L68.058 30.24C67.978 30.32 67.778 30.44 67.458 30.6C67.138 30.72 66.798 30.86 66.438 31.02C66.078 31.14 65.738 31.28 65.418 31.44C65.138 31.56 64.938 31.64 64.818 31.68C64.738 31.76 64.598 31.82 64.398 31.86C64.238 31.86 64.158 31.9 64.158 31.98C64.078 31.9 63.918 31.88 63.678 31.92C63.438 31.96 63.278 31.98 63.198 31.98C63.038 31.98 62.778 32.02 62.418 32.1C62.098 32.14 61.898 32.16 61.818 32.16C61.698 32.2 61.378 32.22 60.858 32.22C60.378 32.22 60.078 32.22 59.958 32.22ZM57.138 16.2C57.138 16.36 57.098 16.6 57.018 16.92C56.978 17.08 56.958 17.24 56.958 17.4C56.918 17.52 56.898 17.8 56.898 18.24C56.938 18.68 56.958 18.94 56.958 19.02C57.038 19.1 57.098 19.4 57.138 19.92C57.218 20.4 57.258 20.78 57.258 21.06C57.338 21.14 57.398 21.28 57.438 21.48C57.518 21.64 57.598 21.72 57.678 21.72C57.758 21.88 57.838 22.08 57.918 22.32C57.958 22.48 57.998 22.6 58.038 22.68C58.078 22.76 58.178 22.92 58.338 23.16C58.498 23.36 58.658 23.6 58.818 23.88C59.018 24.12 59.198 24.36 59.358 24.6C59.558 24.84 59.718 25.02 59.838 25.14C59.918 25.14 60.038 25.24 60.198 25.44C60.398 25.6 60.498 25.7 60.498 25.74C60.618 25.74 60.818 25.84 61.098 26.04C61.378 26.24 61.598 26.42 61.758 26.58C61.798 26.58 61.938 26.68 62.178 26.88C62.418 27.04 62.578 27.12 62.658 27.12H63.318C63.518 27.12 63.698 27.14 63.858 27.18C64.058 27.22 64.198 27.26 64.278 27.3C64.398 27.34 64.658 27.4 65.058 27.48C65.458 27.52 65.738 27.54 65.898 27.54L66.138 27.3C66.218 27.22 66.298 27.06 66.378 26.82C66.458 26.54 66.558 26.34 66.678 26.22C66.798 26.14 66.878 26.04 66.918 25.92C66.998 25.8 67.058 25.68 67.098 25.56C67.138 25.4 67.178 25.26 67.218 25.14V24.42V23.88C67.258 23.6 67.278 23.14 67.278 22.5C67.278 21.82 67.258 21.14 67.218 20.46C67.178 19.74 67.118 19.06 67.038 18.42C66.998 17.78 66.938 17.34 66.858 17.1C66.818 16.98 66.778 16.76 66.738 16.44C66.738 16.12 66.718 15.8 66.678 15.48C66.678 15.16 66.658 14.84 66.618 14.52C66.618 14.2 66.618 13.98 66.618 13.86C66.618 13.82 66.558 13.72 66.438 13.56C66.358 13.4 66.318 13.3 66.318 13.26C66.238 13.26 66.078 13.18 65.838 13.02C65.638 12.82 65.478 12.72 65.358 12.72C65.198 12.56 64.978 12.44 64.698 12.36C64.418 12.28 64.238 12.22 64.158 12.18C63.878 12.18 63.698 12.12 63.618 12L61.998 21.18H61.578C61.538 21.18 61.518 21.1 61.518 20.94C61.518 20.74 61.518 20.52 61.518 20.28C61.518 20.04 61.518 19.8 61.518 19.56C61.558 19.28 61.578 19.06 61.578 18.9C61.618 18.62 61.678 18.14 61.758 17.46C61.878 16.78 61.978 16.06 62.058 15.3C62.178 14.54 62.278 13.82 62.358 13.14C62.438 12.46 62.498 11.98 62.538 11.7L61.998 12.18L61.278 15.66L60.678 16.02V15.24C60.678 15.12 60.678 14.9 60.678 14.58C60.718 14.26 60.738 13.94 60.738 13.62C60.778 13.26 60.798 12.94 60.798 12.66C60.838 12.34 60.878 12.12 60.918 12H60.678L60.498 11.88C60.418 11.88 60.178 11.96 59.778 12.12C59.418 12.24 59.198 12.34 59.118 12.42C59.078 12.42 58.898 12.52 58.578 12.72C58.538 12.84 58.418 13.04 58.218 13.32C58.018 13.56 57.878 13.74 57.798 13.86C57.798 13.94 57.738 14.14 57.618 14.46C57.498 14.74 57.438 14.9 57.438 14.94C57.438 15.02 57.378 15.2 57.258 15.48C57.178 15.76 57.138 16 57.138 16.2ZM82.9338 41.58C82.8938 41.46 82.8538 41.24 82.8138 40.92C82.7738 40.6 82.7338 40.26 82.6938 39.9C82.6938 39.58 82.6738 39.26 82.6338 38.94C82.5938 38.66 82.5538 38.46 82.5137 38.34C82.5137 38.14 82.4538 37.74 82.3338 37.14C82.2538 36.58 82.2138 36.22 82.2138 36.06C82.1738 35.98 82.0738 35.92 81.9138 35.88C81.7538 35.8 81.6538 35.72 81.6138 35.64C81.5338 35.64 81.2938 35.6 80.8938 35.52C80.5338 35.4 80.3138 35.34 80.2338 35.34C80.1138 35.34 79.9538 35.32 79.7538 35.28C79.5538 35.2 79.3538 35.12 79.1538 35.04C78.9538 34.96 78.7738 34.9 78.6138 34.86C78.4538 34.78 78.3738 34.74 78.3738 34.74C78.2938 34.74 78.1138 34.64 77.8338 34.44C77.5938 34.24 77.4338 34.1 77.3538 34.02C77.2738 33.94 77.1538 33.82 76.9938 33.66C76.8738 33.5 76.7138 33.34 76.5138 33.18C76.3538 33.02 76.1938 32.88 76.0338 32.76C75.8738 32.6 75.7738 32.48 75.7338 32.4L75.6138 32.16C75.5738 32.08 75.5338 32.02 75.4938 31.98C75.4538 31.9 75.4138 31.82 75.3738 31.74C75.3738 31.66 75.3338 31.5 75.2538 31.26C75.1738 31.02 75.1338 30.86 75.1338 30.78V29.94V29.16C75.1338 29.08 75.2138 28.8 75.3738 28.32C75.5738 27.84 75.6938 27.48 75.7338 27.24C75.7338 27.2 75.8338 27 76.0338 26.64C76.2338 26.28 76.3738 26.04 76.4538 25.92C76.5338 25.84 76.6338 25.68 76.7538 25.44C76.8338 25.32 76.9138 25.18 76.9938 25.02C77.1538 24.86 77.4138 24.6 77.7738 24.24C78.1338 23.84 78.5138 23.46 78.9138 23.1C79.3138 22.7 79.6738 22.36 79.9938 22.08C80.3138 21.76 80.5138 21.56 80.5938 21.48C80.6338 21.44 80.7338 21.36 80.8938 21.24C81.0938 21.12 81.2938 21 81.4938 20.88C81.6938 20.72 81.8938 20.58 82.0938 20.46C82.2938 20.34 82.4338 20.24 82.5137 20.16C82.5538 20.12 82.6738 20.06 82.8738 19.98C83.0738 19.86 83.2738 19.76 83.4738 19.68C83.6738 19.56 83.8738 19.46 84.0738 19.38C84.2738 19.26 84.4338 19.18 84.5538 19.14C84.6338 19.1 84.8738 19 85.2738 18.84C85.6738 18.68 85.9738 18.58 86.1738 18.54C86.2538 18.46 86.4138 18.4 86.6538 18.36C86.8938 18.28 87.0338 18.24 87.0738 18.24C87.2338 18.2 87.4538 18.14 87.7338 18.06C88.0538 17.94 88.3338 17.86 88.5738 17.82C88.8538 17.74 89.0938 17.68 89.2938 17.64C89.5338 17.56 89.6738 17.52 89.7138 17.52C89.7138 17.52 89.8538 17.52 90.1338 17.52C90.4138 17.52 90.7338 17.52 91.0938 17.52C91.4538 17.48 91.8138 17.46 92.1738 17.46C92.5338 17.46 92.8138 17.46 93.0138 17.46C93.1338 17.46 93.3538 17.46 93.6738 17.46C94.0338 17.46 94.3938 17.48 94.7538 17.52C95.1538 17.52 95.5138 17.52 95.8338 17.52C96.1938 17.52 96.4338 17.52 96.5538 17.52C96.6338 17.52 96.7938 17.62 97.0338 17.82C97.2738 18.02 97.4338 18.16 97.5138 18.24C97.5138 18.24 97.5738 18.3 97.6938 18.42L97.8138 18.54L97.8738 18.78C97.8738 18.86 97.8538 18.94 97.8138 19.02C97.8138 19.06 97.8138 19.1 97.8138 19.14C97.8138 19.22 97.7538 19.44 97.6338 19.8C97.5538 20.12 97.5138 20.32 97.5138 20.4C97.5138 20.44 97.5338 20.6 97.5738 20.88C97.6138 21.16 97.6538 21.5 97.6938 21.9C97.7738 22.3 97.8538 22.7 97.9338 23.1C98.0138 23.46 98.0938 23.76 98.1738 24C98.1738 24.08 98.1938 24.26 98.2338 24.54C98.3138 24.78 98.3738 25.06 98.4138 25.38C98.4938 25.66 98.5538 25.96 98.5938 26.28C98.6738 26.56 98.7138 26.76 98.7138 26.88C98.7538 27.04 98.8138 27.26 98.8938 27.54C98.9738 27.82 99.0538 28.1 99.1338 28.38C99.2138 28.66 99.2738 28.92 99.3138 29.16C99.3938 29.4 99.4338 29.54 99.4338 29.58C99.4738 29.66 99.5738 29.94 99.7338 30.42C99.8938 30.9 99.9938 31.26 100.034 31.5C100.074 31.5 100.114 31.58 100.154 31.74C100.234 31.9 100.314 32.08 100.394 32.28C100.474 32.44 100.534 32.62 100.574 32.82C100.654 32.98 100.714 33.08 100.754 33.12C100.834 33.32 100.934 33.68 101.054 34.2C101.214 34.72 101.334 35.02 101.414 35.1V35.52V36.06C101.334 36.14 101.254 36.3 101.174 36.54C101.134 36.78 101.094 36.92 101.054 36.96C100.974 37.08 100.814 37.26 100.574 37.5C100.374 37.74 100.154 37.98 99.9138 38.22C99.6738 38.46 99.4338 38.68 99.1938 38.88C98.9938 39.12 98.8338 39.26 98.7138 39.3C98.5938 39.38 98.4738 39.44 98.3538 39.48C98.1138 39.56 97.9338 39.6 97.8138 39.6H97.2738H96.7938L96.5538 39.3C96.4738 39.22 96.3538 38.96 96.1938 38.52C96.0738 38.12 95.9738 37.84 95.8938 37.68C95.8138 37.56 95.7138 37.34 95.5938 37.02C95.5138 36.74 95.4138 36.44 95.2938 36.12C95.2138 35.84 95.1338 35.56 95.0538 35.28C94.9738 35 94.9338 34.82 94.9338 34.74C94.8538 34.62 94.7538 34.4 94.6338 34.08C94.5538 33.72 94.4538 33.36 94.3338 33C94.2538 32.6 94.1538 32.24 94.0338 31.92C93.9538 31.56 93.8938 31.32 93.8538 31.2L93.5538 30.78C93.4738 30.9 93.2938 31.1 93.0138 31.38C92.7338 31.62 92.4338 31.88 92.1138 32.16C91.8338 32.44 91.5338 32.72 91.2138 33C90.9338 33.24 90.7338 33.4 90.6138 33.48C90.5338 33.48 90.3738 33.58 90.1338 33.78C89.8938 33.94 89.7538 34.02 89.7138 34.02C89.4738 34.14 89.1138 34.34 88.6338 34.62C88.1538 34.86 87.8738 35.02 87.7938 35.1C87.6738 35.14 87.4738 35.22 87.1938 35.34C86.9138 35.42 86.6138 35.5 86.2938 35.58C85.9738 35.66 85.6738 35.76 85.3938 35.88C85.1138 35.96 84.9338 36.02 84.8538 36.06C84.7738 36.18 84.7138 36.28 84.6738 36.36C84.5938 36.6 84.5538 36.72 84.5538 36.72C84.4738 36.72 84.3938 36.76 84.3138 36.84C84.2738 36.92 84.2138 36.96 84.1338 36.96L83.8338 36.72C83.7938 36.64 83.7138 36.5 83.5938 36.3C83.4738 36.14 83.3738 36.06 83.2938 36.06V41.82L82.9338 41.58ZM80.2338 27.96C80.3138 28 80.3738 28.06 80.4138 28.14C80.4538 28.22 80.4738 28.3 80.4738 28.38C80.5138 28.42 80.5538 28.46 80.5938 28.5C80.5938 28.58 80.6938 28.72 80.8938 28.92C81.0938 29.08 81.2338 29.16 81.3138 29.16C81.3938 29.24 81.5538 29.38 81.7938 29.58C82.0338 29.78 82.1738 29.88 82.2138 29.88C82.4538 29.92 82.8138 30.04 83.2938 30.24C83.7738 30.4 84.0538 30.48 84.1338 30.48H86.4738H88.6938C88.7738 30.48 88.8938 30.44 89.0538 30.36C89.2138 30.28 89.3338 30.2 89.4138 30.12C89.5738 30.04 89.8138 29.84 90.1338 29.52C90.4538 29.16 90.6138 28.94 90.6138 28.86C90.6938 28.82 90.8138 28.56 90.9738 28.08C91.1338 27.56 91.2538 27.16 91.3338 26.88C91.3738 26.76 91.4338 26.5 91.5138 26.1C91.6338 25.7 91.6938 25.42 91.6938 25.26V24V22.68C91.6138 22.6 91.4938 22.54 91.3338 22.5C91.2138 22.42 91.1138 22.38 91.0338 22.38H89.7138H88.4538C88.3738 22.38 88.2538 22.4 88.0938 22.44C87.9338 22.48 87.7738 22.52 87.6138 22.56C87.4538 22.6 87.2738 22.64 87.0738 22.68C86.9538 22.8 86.8538 23.06 86.7738 23.46C86.7338 23.86 86.7538 24.14 86.8338 24.3L86.1738 23.1C86.0938 23.26 86.0138 23.58 85.9338 24.06C85.8938 24.54 85.8338 24.86 85.7538 25.02C85.7538 25.06 85.6938 25.16 85.5738 25.32C85.4938 25.48 85.4538 25.58 85.4538 25.62C85.4138 25.62 85.3538 25.58 85.2738 25.5C85.2338 25.42 85.2138 25.34 85.2138 25.26C85.1338 25.14 85.0538 24.84 84.9738 24.36C84.8938 23.84 84.8538 23.52 84.8538 23.4H84.5538H84.1338C84.0538 23.4 83.7738 23.54 83.2938 23.82C82.8138 24.06 82.4538 24.22 82.2138 24.3C82.1738 24.38 82.0338 24.5 81.7938 24.66C81.5538 24.82 81.3938 24.94 81.3138 25.02C81.2338 25.06 81.0938 25.16 80.8938 25.32C80.6938 25.48 80.5938 25.58 80.5938 25.62C80.5538 25.7 80.4738 25.82 80.3538 25.98C80.2738 26.14 80.2338 26.26 80.2338 26.34V27.18V27.96ZM127.552 36.12L126.952 36.54C126.952 36.7 126.892 37.02 126.772 37.5C126.692 37.98 126.652 38.3 126.652 38.46C126.652 38.5 126.592 38.6 126.472 38.76C126.392 38.92 126.312 39.02 126.232 39.06H126.112H125.932C125.932 38.98 125.912 38.82 125.872 38.58C125.872 38.38 125.852 38.16 125.812 37.92C125.772 37.68 125.732 37.46 125.692 37.26C125.692 37.06 125.692 36.92 125.692 36.84C125.572 36.64 125.452 36.54 125.332 36.54C125.292 36.5 125.172 36.48 124.972 36.48C124.772 36.48 124.552 36.48 124.312 36.48C124.112 36.48 123.912 36.48 123.712 36.48C123.552 36.52 123.452 36.54 123.412 36.54C123.292 36.46 122.972 36.38 122.452 36.3C121.932 36.26 121.572 36.2 121.372 36.12C121.292 36.12 121.132 36.08 120.892 36C120.652 35.88 120.512 35.82 120.472 35.82C120.392 35.82 120.212 35.76 119.932 35.64C119.692 35.52 119.432 35.38 119.152 35.22C118.872 35.06 118.592 34.92 118.312 34.8C118.072 34.64 117.912 34.54 117.832 34.5H117.772H117.472C117.392 34.58 117.132 34.72 116.692 34.92C116.292 35.12 116.012 35.22 115.852 35.22H115.672H115.612C115.532 35.14 115.392 35.02 115.192 34.86C114.992 34.7 114.892 34.58 114.892 34.5V34.14V33.6C114.892 33.56 114.912 33.46 114.952 33.3C114.992 33.1 115.032 32.92 115.072 32.76C115.152 32.56 115.212 32.38 115.252 32.22C115.292 32.06 115.312 31.98 115.312 31.98V28.98V26.1C115.072 26.02 114.832 25.9 114.592 25.74C114.512 25.74 114.372 25.74 114.172 25.74C113.972 25.7 113.732 25.66 113.452 25.62C113.212 25.58 112.972 25.56 112.732 25.56C112.532 25.52 112.412 25.5 112.372 25.5C112.292 25.5 112.172 25.4 112.012 25.2C111.852 25 111.732 24.86 111.652 24.78V24.48V24.12C111.732 24 111.852 23.78 112.012 23.46C112.172 23.14 112.292 22.94 112.372 22.86C112.412 22.78 112.532 22.64 112.732 22.44C112.972 22.2 113.212 21.96 113.452 21.72C113.692 21.48 113.912 21.26 114.112 21.06C114.352 20.86 114.512 20.72 114.592 20.64V20.16C114.352 18.92 114.112 17.72 113.872 16.56C113.672 15.56 113.452 14.54 113.212 13.5C112.972 12.46 112.772 11.6 112.612 10.92C112.612 10.76 112.572 10.54 112.492 10.26C112.412 9.94 112.372 9.7 112.372 9.54C112.372 9.46 112.312 9.3 112.192 9.06C112.112 8.82 112.072 8.66 112.072 8.58C112.032 8.5 111.952 8.36 111.832 8.16C111.752 7.96 111.652 7.76 111.532 7.56C111.412 7.36 111.292 7.18 111.172 7.02C111.092 6.82 111.032 6.68 110.992 6.6C110.992 6.52 110.952 6.36 110.872 6.12C110.792 5.84 110.752 5.66 110.752 5.58V4.68V3.72C110.752 3.64 110.832 3.44 110.992 3.12C111.192 2.76 111.312 2.5 111.352 2.34C111.432 2.3 111.632 2.12 111.952 1.8C112.272 1.44 112.492 1.24 112.612 1.2C112.772 1.04 112.972 0.879998 113.212 0.72C113.452 0.56 113.612 0.48 113.692 0.48H114.352H115.312L115.432 0.599998C115.432 0.639997 115.472 0.659997 115.552 0.659997C115.592 0.659997 115.612 0.679998 115.612 0.72C115.612 0.799999 115.652 0.919999 115.732 1.08C115.812 1.24 115.852 1.36 115.852 1.44C115.892 1.52 115.952 1.7 116.032 1.98C116.152 2.22 116.272 2.5 116.392 2.82C116.512 3.1 116.612 3.36 116.692 3.6C116.812 3.84 116.892 3.96 116.932 3.96C116.932 4.04 117.092 4.26 117.412 4.62C117.732 4.94 117.972 5.18 118.132 5.34C118.252 5.42 118.432 5.54 118.672 5.7C118.952 5.86 119.232 6.06 119.512 6.3C119.832 6.5 120.132 6.7 120.412 6.9C120.732 7.06 120.952 7.16 121.072 7.2C121.152 7.28 121.312 7.38 121.552 7.5C121.792 7.62 122.052 7.76 122.332 7.92C122.612 8.04 122.872 8.16 123.112 8.28C123.392 8.4 123.592 8.5 123.712 8.58C123.912 8.66 124.332 8.82 124.972 9.06C125.612 9.3 126.032 9.46 126.232 9.54C126.352 9.62 126.712 9.74 127.312 9.9C127.912 10.02 128.332 10.12 128.572 10.2C128.692 10.24 128.892 10.3 129.172 10.38C129.452 10.42 129.712 10.48 129.952 10.56C130.232 10.64 130.472 10.72 130.672 10.8C130.912 10.84 131.052 10.88 131.092 10.92C131.292 10.92 131.612 10.98 132.052 11.1C132.532 11.18 133.032 11.28 133.552 11.4C134.072 11.48 134.552 11.56 134.992 11.64C135.472 11.72 135.792 11.78 135.952 11.82C136.072 11.82 136.172 11.86 136.252 11.94L136.372 12.06V12.78V13.44C136.372 13.52 136.312 13.64 136.192 13.8C136.112 13.96 136.032 14.08 135.952 14.16C135.872 14.24 135.732 14.38 135.532 14.58C135.372 14.78 135.192 14.98 134.992 15.18C134.792 15.38 134.592 15.56 134.392 15.72C134.232 15.88 134.112 15.98 134.032 16.02C134.032 16.06 133.952 16.12 133.792 16.2C133.632 16.28 133.452 16.38 133.252 16.5C133.052 16.58 132.852 16.68 132.652 16.8C132.452 16.88 132.292 16.92 132.172 16.92C132.092 16.96 131.872 17.06 131.512 17.22C131.192 17.34 130.852 17.48 130.492 17.64C130.132 17.8 129.792 17.94 129.472 18.06C129.152 18.18 128.972 18.26 128.932 18.3C128.732 18.38 128.372 18.54 127.852 18.78C127.372 19.02 127.072 19.18 126.952 19.26H127.552H128.272C128.352 19.26 128.512 19.26 128.752 19.26C128.992 19.22 129.252 19.18 129.532 19.14C129.812 19.1 130.072 19.08 130.312 19.08C130.552 19.04 130.712 19.02 130.792 19.02C130.992 18.98 131.332 18.94 131.812 18.9C132.292 18.86 132.792 18.82 133.312 18.78C133.832 18.74 134.312 18.7 134.752 18.66C135.192 18.62 135.492 18.58 135.652 18.54H136.912H137.992C138.072 18.58 138.252 18.62 138.532 18.66C138.812 18.7 139.112 18.74 139.432 18.78C139.752 18.82 140.052 18.86 140.332 18.9C140.652 18.94 140.872 18.98 140.992 19.02L141.352 19.14C141.592 19.22 141.772 19.26 141.892 19.26C142.132 19.42 142.372 19.54 142.612 19.62C142.652 19.7 142.792 19.88 143.032 20.16C143.272 20.4 143.432 20.56 143.512 20.64C143.552 20.76 143.592 20.86 143.632 20.94C143.632 20.98 143.632 21.02 143.632 21.06C143.672 21.06 143.692 21.08 143.692 21.12C143.692 21.16 143.712 21.2 143.752 21.24C143.832 21.32 143.912 21.54 143.992 21.9C144.072 22.22 144.152 22.42 144.232 22.5V23.04V23.4C144.152 23.56 144.072 23.82 143.992 24.18C143.912 24.5 143.832 24.7 143.752 24.78C143.712 24.9 143.572 25.22 143.332 25.74C143.092 26.26 142.932 26.62 142.852 26.82C142.772 26.9 142.652 27.06 142.492 27.3C142.332 27.54 142.212 27.68 142.132 27.72C142.052 27.84 141.852 28.06 141.532 28.38C141.252 28.66 140.932 28.98 140.572 29.34C140.212 29.66 139.872 29.98 139.552 30.3C139.232 30.62 139.012 30.84 138.892 30.96C138.852 31.04 138.652 31.22 138.292 31.5C137.972 31.74 137.792 31.9 137.752 31.98C137.592 32.02 137.272 32.16 136.792 32.4C136.352 32.64 136.072 32.8 135.952 32.88C135.872 32.96 135.712 33.06 135.472 33.18C135.232 33.3 134.972 33.42 134.692 33.54C134.452 33.66 134.192 33.8 133.912 33.96C133.672 34.08 133.512 34.16 133.432 34.2C133.352 34.28 133.092 34.4 132.652 34.56C132.212 34.72 131.932 34.84 131.812 34.92C131.692 34.96 131.492 35.02 131.212 35.1C130.932 35.18 130.632 35.28 130.312 35.4C130.032 35.48 129.752 35.58 129.472 35.7C129.232 35.78 129.052 35.82 128.932 35.82C128.852 36.06 128.772 36.5 128.692 37.14C128.612 37.78 128.572 38.22 128.572 38.46C128.572 38.66 128.532 39.16 128.452 39.96C128.412 40.8 128.352 41.7 128.272 42.66C128.192 43.62 128.112 44.5 128.032 45.3C127.952 46.14 127.892 46.68 127.852 46.92C127.852 47.04 127.832 47.22 127.792 47.46C127.752 47.74 127.712 48.02 127.672 48.3C127.672 48.58 127.652 48.84 127.612 49.08C127.572 49.32 127.552 49.46 127.552 49.5C127.552 49.58 127.512 49.74 127.432 49.98C127.352 50.22 127.312 50.36 127.312 50.4C127.312 50.28 127.292 50.02 127.252 49.62C127.252 49.26 127.252 48.88 127.252 48.48C127.252 48.08 127.232 47.68 127.192 47.28C127.192 46.92 127.192 46.68 127.192 46.56C127.192 46.32 127.192 45.98 127.192 45.54C127.232 45.14 127.252 44.72 127.252 44.28C127.252 43.88 127.252 43.52 127.252 43.2C127.292 42.88 127.312 42.68 127.312 42.6C127.312 42.52 127.312 42.24 127.312 41.76C127.352 41.28 127.392 40.76 127.432 40.2C127.472 39.68 127.492 39.16 127.492 38.64C127.532 38.16 127.552 37.86 127.552 37.74V36.9V36.12ZM128.272 24.12C128.272 24.28 128.212 24.52 128.092 24.84C128.012 25.12 127.932 25.34 127.852 25.5C127.852 25.54 127.792 25.64 127.672 25.8C127.592 25.96 127.552 26.06 127.552 26.1C127.512 26.22 127.412 26.24 127.252 26.16L127.012 26.04V24.12H126.652C126.532 24.2 126.212 24.28 125.692 24.36C125.172 24.4 124.812 24.44 124.612 24.48C124.452 24.52 124.192 24.58 123.832 24.66C123.512 24.7 123.172 24.76 122.812 24.84C122.492 24.92 122.172 25 121.852 25.08C121.572 25.12 121.412 25.16 121.372 25.2C121.292 25.2 121.172 25.24 121.012 25.32C120.892 25.36 120.832 25.42 120.832 25.5V28.74C120.952 28.86 121.092 28.98 121.252 29.1C121.572 29.34 121.852 29.52 122.092 29.64C122.212 29.72 122.392 29.84 122.632 30C122.872 30.16 122.992 30.28 122.992 30.36C123.112 30.4 123.352 30.5 123.712 30.66C124.072 30.82 124.272 30.92 124.312 30.96C124.392 30.96 124.472 30.98 124.552 31.02C124.672 31.06 124.792 31.1 124.912 31.14C125.072 31.18 125.212 31.22 125.332 31.26H127.012H128.932C129.172 31.22 129.392 31.18 129.592 31.14C129.792 31.1 129.972 31.06 130.132 31.02C130.332 30.98 130.472 30.96 130.552 30.96C130.672 30.92 130.892 30.88 131.212 30.84C131.532 30.76 131.732 30.68 131.812 30.6C132.092 30.52 132.472 30.42 132.952 30.3C133.432 30.14 133.712 30.06 133.792 30.06C133.912 30.02 134.132 29.92 134.452 29.76C134.772 29.56 135.092 29.38 135.412 29.22C135.732 29.02 136.052 28.86 136.372 28.74C136.692 28.58 136.912 28.48 137.032 28.44C137.032 28.36 137.192 28.2 137.512 27.96C137.872 27.72 138.132 27.52 138.292 27.36C138.332 27.36 138.372 27.32 138.412 27.24C138.492 27.16 138.572 27.12 138.652 27.12C138.652 27.04 138.692 26.92 138.772 26.76C138.852 26.6 138.892 26.48 138.892 26.4V25.74V25.2C138.892 25.12 138.772 24.94 138.532 24.66C138.332 24.38 138.152 24.2 137.992 24.12C137.912 24.12 137.752 24.08 137.512 24C137.272 23.92 137.112 23.88 137.032 23.88H129.892C129.892 24.08 129.872 24.42 129.832 24.9C129.832 25.38 129.812 25.9 129.772 26.46C129.732 26.98 129.672 27.5 129.592 28.02C129.552 28.5 129.512 28.82 129.472 28.98C129.472 29.14 129.412 29.4 129.292 29.76C129.212 30.08 129.172 30.28 129.172 30.36C129.172 30.28 129.152 30.14 129.112 29.94C129.112 29.7 129.092 29.46 129.052 29.22C129.012 28.98 128.972 28.76 128.932 28.56C128.932 28.32 128.932 28.14 128.932 28.02C128.892 27.9 128.852 27.66 128.812 27.3C128.772 26.94 128.732 26.56 128.692 26.16C128.652 25.72 128.612 25.32 128.572 24.96C128.572 24.56 128.572 24.28 128.572 24.12H128.272ZM126.232 19.26C126.072 19.26 125.992 19.38 125.992 19.62C125.992 19.82 126.072 19.92 126.232 19.92C126.432 19.92 126.532 19.82 126.532 19.62C126.532 19.38 126.432 19.26 126.232 19.26ZM119.752 17.64C119.832 17.72 119.892 17.8 119.932 17.88C120.012 17.92 120.092 17.96 120.172 18H120.292H120.472C120.592 17.96 120.772 17.92 121.012 17.88C121.252 17.8 121.372 17.72 121.372 17.64C121.532 17.6 121.812 17.5 122.212 17.34C122.612 17.14 123.012 16.94 123.412 16.74C123.852 16.5 124.252 16.3 124.612 16.14C124.972 15.98 125.212 15.86 125.332 15.78C125.372 15.78 125.412 15.72 125.452 15.6C125.532 15.48 125.612 15.38 125.692 15.3L119.752 13.44H119.092V14.4C119.132 14.52 119.172 14.74 119.212 15.06C119.292 15.38 119.352 15.72 119.392 16.08C119.472 16.4 119.532 16.72 119.572 17.04C119.652 17.32 119.712 17.52 119.752 17.64ZM148.334 36H147.914C147.834 36 147.714 36.04 147.554 36.12C147.434 36.2 147.334 36.28 147.254 36.36C147.254 36.44 147.214 36.64 147.134 36.96C147.054 37.32 147.014 37.54 147.014 37.62C147.014 37.66 146.954 37.76 146.834 37.92C146.754 38.08 146.714 38.18 146.714 38.22C146.634 38.18 146.534 38.08 146.414 37.92C146.334 37.76 146.294 37.66 146.294 37.62C146.294 37.58 146.274 37.46 146.234 37.26C146.234 37.1 146.214 36.92 146.174 36.72C146.174 36.56 146.154 36.4 146.114 36.24C146.074 36.08 146.034 36 145.994 36C145.954 35.92 145.794 35.8 145.514 35.64C145.234 35.48 145.094 35.36 145.094 35.28C144.974 35.2 144.734 35 144.374 34.68C144.014 34.36 143.814 34.16 143.774 34.08C143.774 34 143.674 33.8 143.474 33.48C143.274 33.12 143.134 32.88 143.054 32.76C143.054 32.68 142.994 32.52 142.874 32.28C142.794 32 142.754 31.82 142.754 31.74C142.714 31.62 142.654 31.4 142.574 31.08C142.534 30.72 142.474 30.5 142.394 30.42C142.394 30.26 142.354 29.94 142.274 29.46C142.194 28.98 142.154 28.66 142.154 28.5V23.64V18.78C142.154 18.66 142.154 18.36 142.154 17.88C142.194 17.4 142.234 16.9 142.274 16.38C142.314 15.82 142.334 15.3 142.334 14.82C142.374 14.34 142.394 14.04 142.394 13.92V10.98C142.474 10.9 142.654 10.62 142.934 10.14C143.254 9.66 143.534 9.3 143.774 9.06C143.774 9.02 143.854 8.92 144.014 8.76C144.214 8.6 144.334 8.5 144.374 8.46C144.454 8.38 144.614 8.26 144.854 8.1C145.134 7.94 145.314 7.82 145.394 7.74C145.394 7.74 145.494 7.68 145.694 7.56C145.774 7.52 145.874 7.48 145.994 7.44H146.234C146.314 7.44 146.374 7.44 146.414 7.44C146.454 7.4 146.494 7.38 146.534 7.38C146.574 7.38 146.614 7.4 146.654 7.44C146.694 7.44 146.754 7.44 146.834 7.44H147.014C147.054 7.44 147.154 7.52 147.314 7.68C147.514 7.84 147.614 7.94 147.614 7.98V8.52V9.36C147.614 9.48 147.594 9.74 147.554 10.14C147.514 10.5 147.474 10.9 147.434 11.34C147.394 11.78 147.354 12.2 147.314 12.6C147.274 12.96 147.254 13.2 147.254 13.32V19.86V26.52C147.334 26.68 147.394 26.94 147.434 27.3C147.514 27.62 147.574 27.82 147.614 27.9C147.614 27.94 147.654 28.08 147.734 28.32C147.854 28.56 147.914 28.72 147.914 28.8C147.994 28.88 148.054 29.02 148.094 29.22C148.174 29.42 148.254 29.52 148.334 29.52C148.494 29.64 148.714 29.88 148.994 30.24C149.274 30.56 149.454 30.76 149.534 30.84H150.074H150.494C150.654 30.84 150.774 30.7 150.854 30.42C150.934 30.34 151.054 30.18 151.214 29.94C151.374 29.7 151.494 29.56 151.574 29.52C151.654 29.28 151.854 28.84 152.174 28.2C152.494 27.56 152.694 27.12 152.774 26.88C152.894 26.68 153.034 26.38 153.194 25.98C153.394 25.58 153.494 25.34 153.494 25.26V24.48V23.64C153.494 23.56 153.454 23.34 153.374 22.98C153.334 22.62 153.274 22.24 153.194 21.84C153.114 21.44 153.034 21.06 152.954 20.7C152.874 20.34 152.814 20.12 152.774 20.04C152.774 19.92 152.754 19.72 152.714 19.44C152.674 19.16 152.634 18.9 152.594 18.66C152.594 18.38 152.574 18.14 152.534 17.94C152.494 17.7 152.474 17.54 152.474 17.46V15V12.6C152.474 12.44 152.574 12.22 152.774 11.94C152.974 11.62 153.114 11.38 153.194 11.22C153.234 11.22 153.334 11.14 153.494 10.98C153.654 10.82 153.834 10.64 154.034 10.44C154.234 10.24 154.434 10.04 154.634 9.84C154.834 9.64 154.994 9.48 155.114 9.36C155.154 9.36 155.254 9.32 155.414 9.24C155.574 9.12 155.674 9.06 155.714 9.06H156.014C156.094 9.06 156.154 9.06 156.194 9.06C156.274 9.02 156.354 9 156.434 9C156.514 9 156.614 9.02 156.734 9.06C156.894 9.06 157.014 9.06 157.094 9.06L157.214 9.18C157.254 9.22 157.274 9.26 157.274 9.3C157.274 9.3 157.294 9.32 157.334 9.36C157.334 9.44 157.374 9.56 157.454 9.72C157.574 9.88 157.634 10 157.634 10.08C157.754 10.2 157.894 10.48 158.054 10.92C158.254 11.36 158.354 11.62 158.354 11.7C158.354 11.78 158.374 11.94 158.414 12.18C158.494 12.38 158.574 12.62 158.654 12.9C158.734 13.18 158.794 13.46 158.834 13.74C158.914 13.98 158.954 14.14 158.954 14.22C158.954 14.34 158.974 14.52 159.014 14.76C159.054 14.96 159.074 15.18 159.074 15.42C159.114 15.66 159.154 15.9 159.194 16.14C159.234 16.34 159.254 16.48 159.254 16.56C159.254 16.68 159.274 16.82 159.314 16.98C159.394 17.3 159.434 17.52 159.434 17.64C159.434 17.76 159.394 17.98 159.314 18.3C159.274 18.58 159.254 18.74 159.254 18.78C159.254 18.86 159.234 19.04 159.194 19.32C159.154 19.56 159.114 19.82 159.074 20.1C159.074 20.38 159.054 20.66 159.014 20.94C158.974 21.18 158.954 21.34 158.954 21.42V21.78V22.02C159.034 22.26 159.154 22.7 159.314 23.34C159.474 23.98 159.594 24.42 159.674 24.66C159.714 24.82 159.814 25.16 159.974 25.68C160.134 26.2 160.314 26.76 160.514 27.36C160.714 27.96 160.914 28.56 161.114 29.16C161.314 29.72 161.474 30.14 161.594 30.42C161.634 30.62 161.734 30.92 161.894 31.32C162.054 31.72 162.154 31.96 162.194 32.04C162.274 32.12 162.394 32.3 162.554 32.58C162.714 32.86 162.834 33.04 162.914 33.12L163.094 33.48C163.134 33.56 163.174 33.62 163.214 33.66V34.2V34.74C163.214 34.82 163.154 34.98 163.034 35.22C162.954 35.46 162.914 35.62 162.914 35.7C162.834 35.78 162.694 35.92 162.494 36.12C162.294 36.36 162.074 36.6 161.834 36.84C161.594 37.08 161.354 37.3 161.114 37.5C160.874 37.74 160.694 37.9 160.574 37.98C160.414 38.02 160.274 38.06 160.154 38.1C159.834 38.18 159.674 38.22 159.674 38.22H159.254H158.954C158.914 38.22 158.814 38.18 158.654 38.1C158.494 38.02 158.394 37.98 158.354 37.98C158.354 37.9 158.254 37.68 158.054 37.32C157.854 37 157.714 36.76 157.634 36.6C157.594 36.56 157.514 36.4 157.394 36.12C157.314 35.84 157.214 35.52 157.094 35.16C156.974 34.8 156.854 34.46 156.734 34.14C156.614 33.82 156.514 33.56 156.434 33.36C156.394 33.32 156.314 33.18 156.194 32.94C156.114 32.66 156.014 32.38 155.894 32.1C155.774 31.82 155.674 31.56 155.594 31.32C155.514 31.08 155.474 30.92 155.474 30.84C155.394 30.76 155.314 30.7 155.234 30.66C155.194 30.58 155.154 30.5 155.114 30.42C155.114 30.5 155.054 30.58 154.934 30.66C154.854 30.7 154.814 30.76 154.814 30.84C154.774 30.88 154.674 31 154.514 31.2C154.354 31.36 154.174 31.56 153.974 31.8C153.814 32 153.654 32.2 153.494 32.4C153.334 32.6 153.234 32.72 153.194 32.76C153.114 32.8 152.954 32.94 152.714 33.18C152.474 33.42 152.314 33.58 152.234 33.66C152.154 33.7 152.034 33.8 151.874 33.96C151.714 34.08 151.534 34.22 151.334 34.38C151.174 34.54 151.014 34.68 150.854 34.8C150.694 34.92 150.574 34.98 150.494 34.98L150.254 35.28C150.254 35.48 150.234 35.82 150.194 36.3C150.154 36.82 150.114 37.36 150.074 37.92C150.074 38.48 150.054 39 150.014 39.48C149.974 40 149.954 40.36 149.954 40.56C149.874 40.64 149.794 40.8 149.714 41.04C149.674 41.28 149.614 41.42 149.534 41.46C149.534 41.42 149.474 41.28 149.354 41.04C149.274 40.8 149.234 40.64 149.234 40.56C149.234 40.4 149.194 40.08 149.114 39.6C149.074 39.16 149.014 38.7 148.934 38.22C148.854 37.74 148.774 37.28 148.694 36.84C148.654 36.44 148.634 36.16 148.634 36H148.334ZM166.531 35.7C166.531 35.78 166.471 35.86 166.351 35.94C166.271 35.98 166.231 36.02 166.231 36.06C166.151 36.22 166.051 36.54 165.931 37.02C165.851 37.5 165.811 37.82 165.811 37.98L165.511 37.44C165.511 37.28 165.471 36.94 165.391 36.42C165.311 35.9 165.231 35.58 165.151 35.46C165.151 35.38 165.051 35.16 164.851 34.8C164.691 34.4 164.611 34.16 164.611 34.08C164.531 34.08 164.431 33.94 164.311 33.66C164.231 33.38 164.191 33.2 164.191 33.12C164.151 33.04 164.091 32.88 164.011 32.64C163.971 32.36 163.911 32.08 163.831 31.8C163.791 31.52 163.731 31.28 163.651 31.08C163.611 30.84 163.571 30.68 163.531 30.6C163.531 30.48 163.511 30.26 163.471 29.94C163.431 29.62 163.371 29.28 163.291 28.92C163.251 28.52 163.191 28.16 163.111 27.84C163.071 27.48 163.031 27.22 162.991 27.06C162.951 26.86 162.851 26.36 162.691 25.56C162.571 24.76 162.431 23.9 162.271 22.98C162.111 22.02 161.971 21.14 161.851 20.34C161.731 19.5 161.671 18.98 161.671 18.78C161.631 18.7 161.571 18.52 161.491 18.24C161.451 17.92 161.391 17.58 161.311 17.22C161.231 16.86 161.171 16.52 161.131 16.2C161.051 15.88 160.991 15.66 160.951 15.54C160.951 15.5 160.911 15.36 160.831 15.12C160.711 14.88 160.651 14.72 160.651 14.64C160.611 14.64 160.511 14.5 160.351 14.22C160.151 13.94 160.051 13.76 160.051 13.68V12.84V12.06C160.051 11.98 160.091 11.82 160.171 11.58C160.251 11.34 160.291 11.2 160.291 11.16C160.371 11.08 160.491 10.92 160.651 10.68C160.771 10.4 160.871 10.22 160.951 10.14C161.031 10.02 161.191 9.84 161.431 9.6C161.671 9.32 161.831 9.14 161.911 9.06C161.991 9.02 162.171 8.92 162.451 8.76C162.731 8.6 162.911 8.52 162.991 8.52C162.991 8.48 163.111 8.44 163.351 8.4C163.591 8.32 163.771 8.24 163.891 8.16H164.071H164.191C164.271 8.24 164.391 8.36 164.551 8.52C164.711 8.64 164.831 8.74 164.911 8.82C164.951 8.9 164.991 9 165.031 9.12C165.111 9.36 165.151 9.5 165.151 9.54C165.231 9.58 165.311 9.72 165.391 9.96C165.471 10.2 165.511 10.36 165.511 10.44C165.551 10.56 165.591 10.74 165.631 10.98C165.711 11.22 165.791 11.48 165.871 11.76C165.951 12 166.011 12.24 166.051 12.48C166.131 12.72 166.191 12.9 166.231 13.02C166.231 13.18 166.271 13.46 166.351 13.86C166.471 14.26 166.531 14.52 166.531 14.64C166.611 14.52 166.771 14.34 167.011 14.1C167.251 13.86 167.511 13.62 167.791 13.38C168.071 13.1 168.331 12.84 168.571 12.6C168.811 12.36 168.971 12.18 169.051 12.06C169.131 12.06 169.331 11.92 169.651 11.64C170.011 11.36 170.251 11.2 170.371 11.16C170.451 11.12 170.651 10.98 170.971 10.74C171.131 10.62 171.271 10.52 171.391 10.44C171.511 10.36 171.771 10.26 172.171 10.14C172.571 9.98 172.851 9.86 173.011 9.78C173.211 9.7 173.551 9.64 174.031 9.6C174.511 9.56 174.831 9.54 174.991 9.54C175.031 9.54 175.151 9.54 175.351 9.54C175.591 9.54 175.831 9.56 176.071 9.6C176.311 9.6 176.531 9.62 176.731 9.66C176.931 9.7 177.071 9.74 177.151 9.78C177.271 9.78 177.491 9.88 177.811 10.08C178.131 10.24 178.351 10.36 178.471 10.44C178.551 10.52 178.691 10.64 178.891 10.8C179.091 10.96 179.191 11.08 179.191 11.16V11.94V13.02C179.191 13.1 179.131 13.26 179.011 13.5C178.931 13.74 178.851 13.88 178.771 13.92C178.691 14.08 178.531 14.34 178.291 14.7C178.051 15.02 177.911 15.22 177.871 15.3C177.871 15.62 177.851 16.16 177.811 16.92C177.771 17.64 177.731 18.42 177.691 19.26C177.691 20.06 177.671 20.84 177.631 21.6C177.591 22.32 177.571 22.82 177.571 23.1C177.571 23.22 177.551 23.42 177.511 23.7C177.511 23.98 177.491 24.28 177.451 24.6C177.411 24.88 177.351 25.16 177.271 25.44C177.231 25.68 177.191 25.86 177.151 25.98C177.151 26.14 177.091 26.4 176.971 26.76C176.891 27.08 176.851 27.28 176.851 27.36V16.02C176.851 15.94 176.811 15.86 176.731 15.78C176.651 15.7 176.611 15.62 176.611 15.54H176.251H175.951C175.871 15.62 175.791 15.7 175.711 15.78C175.671 15.86 175.611 15.94 175.531 16.02C175.531 16.02 175.511 16.1 175.471 16.26C175.431 16.42 175.391 16.6 175.351 16.8C175.351 16.96 175.331 17.14 175.291 17.34C175.251 17.5 175.231 17.6 175.231 17.64C175.191 17.68 175.131 17.82 175.051 18.06C175.011 18.3 174.991 18.46 174.991 18.54C174.871 18.7 174.751 18.78 174.631 18.78L174.331 18.24C174.291 18.12 174.251 17.9 174.211 17.58C174.171 17.26 174.131 16.94 174.091 16.62C174.091 16.26 174.071 15.94 174.031 15.66C173.991 15.34 173.951 15.12 173.911 15C173.911 14.96 173.831 14.9 173.671 14.82C173.551 14.7 173.451 14.64 173.371 14.64H172.171H171.091C171.011 14.72 170.871 14.84 170.671 15C170.471 15.12 170.371 15.22 170.371 15.3C170.331 15.42 170.231 15.74 170.071 16.26C169.911 16.74 169.811 17.04 169.771 17.16V20.94V24.72C169.771 24.8 169.771 25.02 169.771 25.38C169.811 25.7 169.851 26.08 169.891 26.52C169.931 26.92 169.971 27.3 170.011 27.66C170.051 27.98 170.091 28.18 170.131 28.26V29.88V31.2C170.051 31.32 169.991 31.46 169.951 31.62C169.911 31.74 169.871 31.86 169.831 31.98C169.791 32.06 169.771 32.14 169.771 32.22C169.771 32.26 169.711 32.36 169.591 32.52C169.511 32.68 169.471 32.78 169.471 32.82C169.391 32.9 169.271 33.08 169.111 33.36C168.951 33.6 168.831 33.76 168.751 33.84C168.711 33.96 168.571 34.18 168.331 34.5C168.091 34.82 167.931 35.04 167.851 35.16C167.811 35.44 167.771 35.92 167.731 36.6C167.691 37.32 167.651 38.06 167.611 38.82C167.611 39.62 167.591 40.36 167.551 41.04C167.511 41.76 167.471 42.26 167.431 42.54C167.431 42.66 167.411 42.84 167.371 43.08C167.331 43.36 167.291 43.64 167.251 43.92C167.251 44.2 167.231 44.46 167.191 44.7C167.151 44.94 167.131 45.1 167.131 45.18C167.131 45.22 167.091 45.32 167.011 45.48C166.931 45.64 166.851 45.74 166.771 45.78C166.771 45.66 166.731 45.34 166.651 44.82C166.571 44.34 166.531 44.04 166.531 43.92V35.7ZM180.272 36.3C180.193 36.22 180.053 36.06 179.853 35.82C179.693 35.54 179.573 35.36 179.493 35.28C179.533 35.2 179.493 34.9 179.373 34.38C179.293 33.82 179.213 33.44 179.133 33.24C179.093 33.16 179.053 33 179.013 32.76C178.973 32.52 178.933 32.26 178.893 31.98C178.853 31.7 178.813 31.42 178.773 31.14C178.733 30.86 178.693 30.66 178.653 30.54C178.613 30.38 178.553 29.94 178.473 29.22C178.433 28.5 178.373 27.66 178.292 26.7C178.213 25.7 178.113 24.64 177.993 23.52C177.913 22.4 177.813 21.36 177.693 20.4C177.613 19.4 177.533 18.56 177.453 17.88C177.413 17.16 177.373 16.7 177.333 16.5C177.253 16.18 177.173 15.7 177.093 15.06C177.013 14.38 176.933 13.96 176.853 13.8C176.853 13.76 176.813 13.66 176.733 13.5C176.653 13.3 176.613 13.18 176.613 13.14C176.573 13.1 176.533 13.02 176.493 12.9C176.493 12.78 176.453 12.66 176.373 12.54C176.292 12.38 176.212 12.24 176.132 12.12C176.132 12.08 176.132 11.98 176.132 11.82C176.132 11.66 176.152 11.56 176.192 11.52V11.1C176.192 10.98 176.212 10.88 176.252 10.8C176.252 10.72 176.353 10.52 176.553 10.2C176.753 9.88 176.893 9.64 176.973 9.48C177.013 9.48 177.113 9.42 177.273 9.3C177.433 9.14 177.593 8.98 177.753 8.82C177.953 8.66 178.133 8.5 178.292 8.34C178.493 8.18 178.633 8.06 178.713 7.98C178.793 7.94 178.993 7.86 179.313 7.74C179.673 7.62 179.893 7.56 179.973 7.56H180.573C180.653 7.56 180.813 7.6 181.053 7.68L181.173 7.8C181.293 7.92 181.353 7.98 181.353 7.98C181.393 8.1 181.473 8.34 181.593 8.7C181.713 9.02 181.793 9.24 181.833 9.36C181.833 9.4 181.853 9.52 181.893 9.72C181.933 9.88 181.973 10.08 182.013 10.32C182.093 10.56 182.153 10.8 182.193 11.04C182.273 11.24 182.333 11.42 182.373 11.58C182.373 11.7 182.373 11.9 182.373 12.18C182.413 12.42 182.453 12.68 182.493 12.96C182.533 13.24 182.573 13.52 182.613 13.8C182.653 14.04 182.673 14.2 182.673 14.28C182.673 14.36 182.693 14.56 182.733 14.88C182.813 15.16 182.873 15.46 182.913 15.78C182.953 16.1 182.993 16.42 183.033 16.74C183.073 17.02 183.093 17.18 183.093 17.22C183.173 17.3 183.233 17.42 183.273 17.58C183.313 17.74 183.373 17.86 183.453 17.94C183.533 17.86 183.673 17.7 183.873 17.46C184.073 17.18 184.273 16.9 184.473 16.62C184.713 16.3 184.933 16.02 185.132 15.78C185.373 15.54 185.533 15.38 185.613 15.3C185.653 15.22 185.893 14.94 186.333 14.46C186.773 13.98 187.113 13.62 187.353 13.38C187.393 13.38 187.453 13.34 187.533 13.26C187.613 13.14 187.693 13.1 187.773 13.14C187.893 13.02 188.113 12.86 188.433 12.66C188.793 12.42 189.013 12.26 189.093 12.18C189.293 12.14 189.633 12.02 190.113 11.82C190.633 11.62 190.993 11.48 191.193 11.4C191.233 11.44 191.273 11.46 191.312 11.46H191.613C191.653 11.46 191.693 11.48 191.732 11.52C191.773 11.52 191.833 11.52 191.913 11.52H192.152C192.193 11.6 192.273 11.68 192.393 11.76C192.553 11.84 192.673 11.9 192.753 11.94L193.233 12.54C193.313 12.62 193.413 12.8 193.533 13.08C193.693 13.32 193.813 13.52 193.893 13.68C193.933 13.68 193.973 13.78 194.013 13.98C194.053 14.18 194.093 14.32 194.133 14.4C194.173 14.56 194.293 15.02 194.493 15.78C194.733 16.5 194.973 17.3 195.213 18.18C195.493 19.02 195.733 19.82 195.933 20.58C196.173 21.34 196.333 21.82 196.413 22.02C196.413 22.06 196.433 22.18 196.473 22.38C196.553 22.58 196.633 22.82 196.713 23.1C196.793 23.34 196.873 23.6 196.953 23.88C197.033 24.12 197.073 24.3 197.073 24.42C197.113 24.5 197.193 24.9 197.313 25.62C197.473 26.34 197.633 27.14 197.793 28.02C197.953 28.86 198.093 29.66 198.213 30.42C198.333 31.14 198.393 31.56 198.393 31.68C198.473 31.72 198.553 31.88 198.633 32.16C198.713 32.4 198.753 32.56 198.753 32.64C198.713 32.76 198.693 32.9 198.693 33.06L198.633 33.36C198.633 33.48 198.573 33.66 198.453 33.9C198.333 34.1 198.233 34.2 198.153 34.2C198.153 34.28 198.093 34.42 197.973 34.62C197.853 34.78 197.713 34.96 197.553 35.16C197.393 35.36 197.233 35.56 197.073 35.76C196.913 35.96 196.813 36.08 196.773 36.12C196.733 36.2 196.693 36.38 196.653 36.66C196.613 36.94 196.573 37.24 196.533 37.56C196.493 37.88 196.453 38.18 196.413 38.46C196.373 38.74 196.353 38.92 196.353 39C196.353 38.92 196.273 38.74 196.113 38.46C195.953 38.18 195.893 38.02 195.933 37.98C195.933 37.9 195.893 37.68 195.813 37.32C195.773 37 195.753 36.8 195.753 36.72C195.673 36.68 195.493 36.68 195.213 36.72C194.973 36.8 194.793 36.84 194.673 36.84H194.493C194.373 36.84 194.313 36.82 194.313 36.78H193.773L193.533 36.48C193.453 36.4 193.393 36.18 193.353 35.82C193.353 35.42 193.313 35.18 193.233 35.1C193.193 34.98 193.093 34.46 192.933 33.54C192.773 32.62 192.593 31.64 192.393 30.6C192.193 29.56 191.993 28.58 191.793 27.66C191.633 26.74 191.533 26.22 191.493 26.1C191.413 25.86 191.273 25.42 191.073 24.78C190.913 24.14 190.713 23.48 190.473 22.8C190.233 22.08 190.013 21.4 189.813 20.76C189.613 20.12 189.473 19.66 189.393 19.38C189.393 19.66 189.373 20.32 189.333 21.36C189.333 22.36 189.293 23.46 189.213 24.66C189.173 25.82 189.113 26.9 189.033 27.9C188.953 28.9 188.873 29.54 188.793 29.82C188.793 29.98 188.733 30.3 188.613 30.78C188.533 31.26 188.433 31.56 188.313 31.68C188.313 31.6 188.313 31.26 188.313 30.66C188.313 30.02 188.313 29.34 188.313 28.62C188.313 27.9 188.313 27.24 188.313 26.64C188.313 26 188.313 25.64 188.313 25.56C188.313 25.44 188.293 25.22 188.253 24.9C188.253 24.54 188.253 24.18 188.253 23.82C188.253 23.42 188.253 23.06 188.253 22.74C188.253 22.38 188.253 22.14 188.253 22.02C188.253 21.82 188.253 21.5 188.253 21.06C188.293 20.58 188.313 20.08 188.313 19.56C188.313 19.04 188.313 18.56 188.313 18.12C188.353 17.64 188.373 17.32 188.373 17.16C188.293 17.24 188.173 17.4 188.013 17.64C187.893 17.84 187.753 18.08 187.593 18.36C187.473 18.6 187.333 18.84 187.173 19.08C187.013 19.32 186.913 19.48 186.873 19.56C186.753 19.68 186.593 19.94 186.393 20.34C186.233 20.74 186.093 21 185.973 21.12C185.933 21.24 185.873 21.44 185.793 21.72C185.713 21.96 185.633 22.22 185.553 22.5C185.473 22.78 185.393 23.04 185.313 23.28C185.233 23.52 185.193 23.66 185.193 23.7C185.153 23.9 185.093 24.42 185.013 25.26C184.973 26.1 184.933 27.02 184.893 28.02C184.853 29.02 184.813 29.96 184.773 30.84C184.773 31.68 184.773 32.18 184.773 32.34C184.693 32.5 184.553 32.74 184.353 33.06C184.193 33.38 184.073 33.58 183.993 33.66C183.953 33.74 183.833 33.86 183.633 34.02C183.433 34.18 183.233 34.36 183.033 34.56C182.833 34.76 182.633 34.96 182.433 35.16C182.273 35.32 182.193 35.44 182.193 35.52C182.153 35.56 182.093 35.72 182.013 36C181.973 36.24 181.913 36.52 181.833 36.84C181.793 37.2 181.733 37.52 181.653 37.8C181.613 38.08 181.573 38.26 181.533 38.34C181.533 38.38 181.453 38.5 181.293 38.7C181.173 38.94 181.113 39.1 181.113 39.18L181.413 36C181.333 36.16 181.233 36.44 181.113 36.84C181.033 37.24 180.953 37.66 180.873 38.1C180.793 38.58 180.713 39.02 180.633 39.42C180.553 39.82 180.493 40.1 180.453 40.26C180.453 40.38 180.353 40.68 180.153 41.16C179.953 41.64 179.833 41.94 179.793 42.06L180.272 36.3ZM207.704 37.56C207.584 37.44 207.364 37.28 207.044 37.08C206.764 36.92 206.564 36.8 206.444 36.72C206.364 36.68 206.204 36.52 205.964 36.24C205.764 36 205.624 35.84 205.544 35.76C205.504 35.64 205.404 35.46 205.244 35.22C205.124 34.98 205.044 34.78 205.004 34.62C204.924 34.5 204.824 34.3 204.704 34.02C204.624 33.74 204.524 33.46 204.404 33.18C204.284 32.9 204.164 32.64 204.044 32.4C203.964 32.16 203.904 32 203.864 31.92C203.864 31.84 203.824 31.68 203.744 31.44C203.704 31.16 203.644 30.88 203.564 30.6C203.484 30.28 203.404 29.98 203.324 29.7C203.244 29.38 203.184 29.16 203.144 29.04C203.144 28.92 203.124 28.74 203.084 28.5C203.084 28.22 203.044 27.94 202.964 27.66C202.924 27.34 202.884 27.06 202.844 26.82C202.804 26.54 202.764 26.36 202.724 26.28C202.724 26.2 202.704 25.92 202.664 25.44C202.664 24.96 202.664 24.62 202.664 24.42C202.664 24.34 202.644 24.18 202.604 23.94C202.604 23.66 202.604 23.38 202.604 23.1C202.604 22.78 202.604 22.5 202.604 22.26C202.604 21.98 202.604 21.8 202.604 21.72C202.524 21.6 202.464 21.32 202.424 20.88C202.424 20.44 202.384 20.18 202.304 20.1H202.184L202.004 20.04C202.004 20.04 201.924 20.06 201.764 20.1C201.604 20.1 201.424 20.12 201.224 20.16C201.064 20.16 200.884 20.18 200.684 20.22C200.524 20.22 200.424 20.22 200.384 20.22C200.344 20.22 200.224 20.22 200.024 20.22C199.824 20.18 199.644 20.16 199.484 20.16C199.404 20.16 199.324 20.16 199.244 20.16C199.204 20.12 199.144 20.1 199.064 20.1H198.764C198.724 20.1 198.624 20 198.464 19.8C198.344 19.6 198.264 19.46 198.224 19.38V19.2V19.14C198.224 19.06 198.264 18.9 198.344 18.66C198.464 18.38 198.544 18.2 198.584 18.12C198.664 17.96 198.744 17.84 198.824 17.76C198.864 17.68 198.924 17.62 199.004 17.58C199.084 17.46 199.244 17.28 199.484 17.04C199.764 16.8 200.044 16.56 200.324 16.32C200.644 16.04 200.944 15.8 201.224 15.6C201.504 15.4 201.704 15.26 201.824 15.18C201.864 15.14 202.004 15.04 202.244 14.88C202.524 14.72 202.704 14.64 202.784 14.64C202.824 14.48 202.904 14.18 203.024 13.74C203.144 13.3 203.244 12.84 203.324 12.36C203.444 11.88 203.544 11.44 203.624 11.04C203.744 10.6 203.844 10.3 203.924 10.14C203.924 10.02 203.944 9.86 203.984 9.66C204.024 9.42 204.064 9.2 204.104 9C204.144 8.76 204.204 8.52 204.284 8.28C204.364 8.04 204.564 7.68 204.884 7.2C205.204 6.72 205.424 6.42 205.544 6.3C205.624 6.26 205.824 6.08 206.144 5.76C206.464 5.44 206.704 5.28 206.864 5.28C206.984 5.2 207.204 5.08 207.524 4.92C207.884 4.72 208.124 4.62 208.244 4.62C208.324 4.66 208.404 4.68 208.484 4.68H208.784L209.264 4.74C209.304 4.74 209.344 4.78 209.384 4.86C209.424 4.94 209.484 4.98 209.564 4.98C209.564 5.14 209.544 5.46 209.504 5.94C209.464 6.42 209.444 6.7 209.444 6.78C209.404 7.06 209.364 7.44 209.324 7.92C209.284 8.36 209.264 8.62 209.264 8.7C209.184 8.86 209.104 9 209.024 9.12C208.904 9.36 208.844 9.52 208.844 9.6C208.844 9.8 208.824 10.12 208.784 10.56C208.744 11 208.704 11.46 208.664 11.94C208.624 12.42 208.584 12.88 208.544 13.32C208.504 13.72 208.484 13.98 208.484 14.1L209.024 14.16C209.304 14.12 209.744 14.04 210.344 13.92C210.944 13.76 211.584 13.6 212.264 13.44C212.944 13.28 213.584 13.14 214.184 13.02C214.784 12.9 215.204 12.8 215.444 12.72C215.564 12.68 215.744 12.64 215.984 12.6C216.264 12.56 216.524 12.5 216.764 12.42C217.044 12.34 217.344 12.28 217.664 12.24C217.744 12.24 217.924 12.26 218.204 12.3C218.484 12.3 218.704 12.3 218.864 12.3C218.904 12.34 219.064 12.38 219.344 12.42C219.664 12.42 219.864 12.42 219.944 12.42C219.984 12.5 220.024 12.58 220.064 12.66C220.144 12.74 220.224 12.84 220.304 12.96C220.264 13 220.244 13.04 220.244 13.08V13.26C220.244 13.34 220.224 13.4 220.184 13.44C220.184 13.48 220.184 13.54 220.184 13.62V13.8C220.104 13.88 220.044 13.98 220.004 14.1C219.924 14.18 219.864 14.26 219.824 14.34C219.824 14.42 219.804 14.48 219.764 14.52C219.684 14.56 219.544 14.7 219.344 14.94C219.184 15.14 219.064 15.28 218.984 15.36C218.984 15.44 218.884 15.56 218.684 15.72C218.484 15.84 218.384 15.94 218.384 16.02C218.304 16.06 218.124 16.16 217.844 16.32C217.564 16.44 217.364 16.5 217.244 16.5C217.164 16.5 216.964 16.58 216.644 16.74C216.324 16.9 216.124 16.98 216.044 16.98L215.684 20.64L215.324 20.16L215.024 17.34L214.364 17.28V17.52C214.324 17.68 214.324 18.06 214.364 18.66C214.444 19.26 214.464 19.64 214.424 19.8C214.424 19.96 214.424 20.2 214.424 20.52C214.424 20.84 214.424 21.18 214.424 21.54C214.424 21.9 214.424 22.24 214.424 22.56C214.464 22.84 214.504 23.02 214.544 23.1C214.504 23.18 214.484 23.26 214.484 23.34V23.64L214.424 24.06L214.064 23.76L213.284 17.28L208.064 18.6C208.024 18.68 208.004 18.78 208.004 18.9C208.004 18.98 207.984 19.08 207.944 19.2C207.944 19.28 207.944 19.36 207.944 19.44C207.944 19.56 207.924 19.78 207.884 20.1C207.884 20.38 207.884 20.54 207.884 20.58C207.884 20.86 207.904 21.12 207.944 21.36C207.984 21.56 208.004 21.78 208.004 22.02C208.004 22.22 208.024 22.38 208.064 22.5C208.064 22.62 208.084 22.9 208.124 23.34C208.164 23.74 208.184 24.02 208.184 24.18C208.144 24.3 208.164 24.54 208.244 24.9C208.324 25.26 208.364 25.46 208.364 25.5C208.404 25.7 208.464 25.96 208.544 26.28C208.624 26.56 208.704 26.86 208.784 27.18C208.864 27.5 208.944 27.78 209.024 28.02C209.104 28.26 209.144 28.4 209.144 28.44C209.144 28.52 209.184 28.7 209.264 28.98C209.344 29.22 209.444 29.5 209.564 29.82C209.684 30.1 209.784 30.38 209.864 30.66C209.984 30.94 210.084 31.14 210.164 31.26C210.204 31.34 210.244 31.4 210.284 31.44C210.404 31.56 210.484 31.62 210.524 31.62C210.604 31.62 210.804 31.68 211.124 31.8C211.444 31.88 211.644 31.92 211.724 31.92C211.764 32 211.824 32.08 211.904 32.16C212.024 32.24 212.084 32.3 212.084 32.34C212.044 32.46 212.024 32.56 212.024 32.64V33.06C212.024 33.1 212.004 33.14 211.964 33.18C211.964 33.22 211.964 33.28 211.964 33.36V33.6C211.884 33.68 211.744 33.88 211.544 34.2C211.384 34.52 211.264 34.76 211.184 34.92C211.104 34.92 210.944 35.04 210.704 35.28C210.504 35.52 210.384 35.68 210.344 35.76L209.924 40.56L209.384 40.5L209.264 40.02C209.224 39.9 209.184 39.76 209.144 39.6C209.144 39.48 209.164 39.38 209.204 39.3C209.164 39.18 209.124 39 209.084 38.76C209.084 38.56 209.084 38.34 209.084 38.1C209.084 37.86 209.064 37.62 209.024 37.38C209.024 37.18 209.004 37.04 208.964 36.96L207.824 49.86L207.704 37.56Z" fill="white"/>
</svg>