<svg width="254" height="57" viewBox="0 0 254 57" fill="none" xmlns="http://www.w3.org/2000/svg">
<path d="M10.44 31.32C10.44 31.44 10.4 31.66 10.32 31.98C10.24 32.3 10.2 32.52 10.2 32.64C10.12 32.64 10.04 32.7 9.96 32.82C9.92 32.9 9.88 32.94 9.84 32.94C9.84 33.1 9.82 33.4 9.78 33.84C9.74 34.24 9.7 34.68 9.66 35.16C9.66 35.64 9.64 36.12 9.6 36.6C9.56 37.04 9.54 37.34 9.54 37.5C9.46 37.66 9.38 37.98 9.3 38.46C9.26 38.94 9.2 39.26 9.12 39.42C9.12 39.54 9.06 39.76 8.94 40.08C8.82 40.4 8.76 40.62 8.76 40.74V31.86C8.64 31.86 8.46 31.82 8.22 31.74C8.02 31.66 7.8 31.58 7.56 31.5C7.36 31.42 7.16 31.36 6.96 31.32C6.76 31.28 6.64 31.28 6.6 31.32C6.52 31.48 6.42 31.64 6.3 31.8C6.1 32.16 5.96 32.44 5.88 32.64C5.8 32.8 5.68 33.1 5.52 33.54C5.4 33.94 5.3 34.18 5.22 34.26C5.22 34.3 5.2 34.4 5.16 34.56C5.16 34.72 5.14 34.9 5.1 35.1C5.06 35.26 5.02 35.42 4.98 35.58C4.98 35.74 4.98 35.84 4.98 35.88C4.98 35.96 4.92 36.08 4.8 36.24C4.72 36.36 4.68 36.46 4.68 36.54C4.56 36.62 4.4 36.76 4.2 36.96C4 37.12 3.8 37.32 3.6 37.56C3.4 37.76 3.2 37.96 3 38.16C2.8 38.32 2.68 38.4 2.64 38.4L1.44 39.12H1.2H1.02C0.94 39.12 0.82 39.08 0.66 39C0.54 38.88 0.44 38.78 0.36 38.7C0.32 38.66 0.28 38.6 0.24 38.52C0.16 38.36 0.12 38.24 0.12 38.16V37.8V37.5C0.12 37.38 0.16 37.14 0.24 36.78C0.32 36.42 0.36 36.22 0.36 36.18C0.44 36.02 0.56 35.74 0.72 35.34C0.88 34.9 1.04 34.46 1.2 34.02C1.36 33.54 1.5 33.1 1.62 32.7C1.78 32.3 1.9 32.04 1.98 31.92V31.32C1.86 31.32 1.6 31.3 1.2 31.26C0.8 31.18 0.52 31.1 0.36 31.02C0.36 30.94 0.32 30.82 0.24 30.66C0.16 30.5 0.12 30.38 0.12 30.3V30.24V29.94C0.12 29.9 0.16 29.72 0.24 29.4C0.28 29.24 0.32 29.1 0.36 28.98L2.64 26.7C2.68 26.7 2.78 26.68 2.94 26.64C3.1 26.6 3.26 26.56 3.42 26.52C3.62 26.44 3.8 26.38 3.96 26.34C4.12 26.26 4.22 26.2 4.26 26.16C4.26 26.08 4.36 25.84 4.56 25.44C4.76 25.04 4.9 24.74 4.98 24.54C5.02 24.3 5.12 23.9 5.28 23.34C5.48 22.78 5.68 22.18 5.88 21.54C6.12 20.9 6.32 20.32 6.48 19.8C6.64 19.24 6.76 18.84 6.84 18.6C6.88 18.56 6.92 18.44 6.96 18.24C7.04 18.04 7.1 17.82 7.14 17.58C7.22 17.34 7.28 17.12 7.32 16.92C7.4 16.68 7.46 16.52 7.5 16.44C7.54 16.28 7.6 16.06 7.68 15.78C7.76 15.46 7.84 15.16 7.92 14.88C8 14.6 8.06 14.36 8.1 14.16C8.18 13.92 8.22 13.78 8.22 13.74C8.22 13.7 8.22 13.34 8.22 12.66C8.26 11.94 8.28 11.18 8.28 10.38C8.32 9.54 8.34 8.78 8.34 8.1C8.34 7.38 8.34 6.98 8.34 6.9C8.42 6.82 8.5 6.62 8.58 6.3C8.7 5.94 8.78 5.72 8.82 5.64C8.82 5.6 8.92 5.4 9.12 5.04C9.32 4.68 9.46 4.44 9.54 4.32C9.54 4.24 9.62 4.08 9.78 3.84C9.98 3.6 10.12 3.46 10.2 3.42C10.2 3.34 10.22 3.26 10.26 3.18C10.34 3.1 10.4 3.02 10.44 2.94C10.6 2.82 10.84 2.66 11.16 2.46C11.52 2.26 11.74 2.12 11.82 2.04C11.9 2 12.02 1.96 12.18 1.92C12.42 1.84 12.62 1.8 12.78 1.8H13.08H13.44L13.68 2.04V3.48V5.04C13.68 5.04 13.66 5.16 13.62 5.4C13.62 5.6 13.6 5.84 13.56 6.12C13.52 6.36 13.48 6.6 13.44 6.84C13.44 7.08 13.44 7.22 13.44 7.26V7.8V8.52C13.44 8.6 13.44 8.94 13.44 9.54C13.48 10.1 13.5 10.74 13.5 11.46C13.54 12.14 13.58 12.78 13.62 13.38C13.66 13.98 13.68 14.32 13.68 14.4C13.68 14.52 13.72 14.8 13.8 15.24C13.92 15.68 13.98 15.94 13.98 16.02C14.06 16.22 14.18 16.6 14.34 17.16C14.5 17.72 14.62 18.12 14.7 18.36C14.74 18.56 14.84 18.9 15 19.38C15.16 19.82 15.32 20.3 15.48 20.82C15.68 21.34 15.86 21.84 16.02 22.32C16.18 22.76 16.28 23.06 16.32 23.22C16.36 23.34 16.46 23.6 16.62 24C16.78 24.4 16.88 24.68 16.92 24.84C17 25.04 17.14 25.3 17.34 25.62C17.54 25.9 17.64 26.08 17.64 26.16C17.72 26.16 17.92 26.26 18.24 26.46C18.56 26.62 18.76 26.7 18.84 26.7C18.92 26.78 19 26.86 19.08 26.94C19.2 26.98 19.26 27.02 19.26 27.06C19.18 27.3 19.14 27.74 19.14 28.38C19.14 29.02 19.18 29.46 19.26 29.7C19.26 29.7 19.32 29.84 19.44 30.12C19.56 30.36 19.7 30.66 19.86 31.02C20.02 31.38 20.2 31.74 20.4 32.1C20.6 32.46 20.76 32.74 20.88 32.94C20.92 33.02 21.04 33.4 21.24 34.08C21.48 34.72 21.72 35.44 21.96 36.24C22.24 37 22.48 37.72 22.68 38.4C22.92 39.08 23.06 39.44 23.1 39.48C23.18 39.76 23.3 40 23.46 40.2C23.54 40.36 23.64 40.52 23.76 40.68V41.4V42C23.68 42.08 23.56 42.28 23.4 42.6C23.28 42.96 23.18 43.22 23.1 43.38C23.06 43.42 22.96 43.5 22.8 43.62C22.68 43.78 22.52 43.94 22.32 44.1C22.16 44.3 22 44.48 21.84 44.64C21.68 44.8 21.56 44.92 21.48 45C21.4 45 21.28 45.04 21.12 45.12C20.96 45.2 20.84 45.24 20.76 45.24H19.98H19.14C19.1 45.24 18.9 45.1 18.54 44.82C18.18 44.58 17.94 44.42 17.82 44.34C17.82 44.26 17.76 44.1 17.64 43.86C17.56 43.62 17.52 43.46 17.52 43.38V42.3L17.28 41.82C17.2 41.7 17.14 41.56 17.1 41.4C17.06 41.28 17 41.18 16.92 41.1C16.64 40.66 16.3 39.9 15.9 38.82C15.5 37.74 15.08 36.64 14.64 35.52C14.16 34.2 13.64 32.8 13.08 31.32H10.44ZM9.54 23.46C9.46 23.66 9.32 24.02 9.12 24.54C8.92 25.02 8.82 25.32 8.82 25.44C8.82 25.52 8.8 25.64 8.76 25.8C8.76 25.96 8.76 26.08 8.76 26.16H9.12C9.24 26.08 9.52 26.02 9.96 25.98C10.4 25.9 10.66 25.82 10.74 25.74V25.62V25.44C10.74 25.32 10.64 25.02 10.44 24.54C10.28 24.02 10.2 23.66 10.2 23.46C10.12 23.46 10.04 23.38 9.96 23.22C9.92 23.02 9.88 22.92 9.84 22.92L9.54 23.46ZM26.8064 39H26.3864C26.3064 39 26.1864 39.04 26.0264 39.12C25.9064 39.2 25.8064 39.28 25.7264 39.36C25.7264 39.44 25.6864 39.64 25.6064 39.96C25.5264 40.32 25.4864 40.54 25.4864 40.62C25.4864 40.66 25.4264 40.76 25.3064 40.92C25.2264 41.08 25.1864 41.18 25.1864 41.22C25.1064 41.18 25.0064 41.08 24.8864 40.92C24.8064 40.76 24.7664 40.66 24.7664 40.62C24.7664 40.58 24.7464 40.46 24.7064 40.26C24.7064 40.1 24.6864 39.92 24.6464 39.72C24.6464 39.56 24.6264 39.4 24.5864 39.24C24.5464 39.08 24.5064 39 24.4664 39C24.4264 38.92 24.2664 38.8 23.9864 38.64C23.7064 38.48 23.5664 38.36 23.5664 38.28C23.4464 38.2 23.2064 38 22.8464 37.68C22.4864 37.36 22.2864 37.16 22.2464 37.08C22.2464 37 22.1464 36.8 21.9464 36.48C21.7464 36.12 21.6064 35.88 21.5264 35.76C21.5264 35.68 21.4664 35.52 21.3464 35.28C21.2664 35 21.2264 34.82 21.2264 34.74C21.1864 34.62 21.1264 34.4 21.0464 34.08C21.0064 33.72 20.9464 33.5 20.8664 33.42C20.8664 33.26 20.8264 32.94 20.7464 32.46C20.6664 31.98 20.6264 31.66 20.6264 31.5V26.64V21.78C20.6264 21.66 20.6264 21.36 20.6264 20.88C20.6664 20.4 20.7064 19.9 20.7464 19.38C20.7864 18.82 20.8064 18.3 20.8064 17.82C20.8464 17.34 20.8664 17.04 20.8664 16.92V13.98C20.9464 13.9 21.1264 13.62 21.4064 13.14C21.7264 12.66 22.0064 12.3 22.2464 12.06C22.2464 12.02 22.3264 11.92 22.4864 11.76C22.6864 11.6 22.8064 11.5 22.8464 11.46C22.9264 11.38 23.0864 11.26 23.3264 11.1C23.6064 10.94 23.7864 10.82 23.8664 10.74C23.8664 10.74 23.9664 10.68 24.1664 10.56C24.2464 10.52 24.3464 10.48 24.4664 10.44H24.7064C24.7864 10.44 24.8464 10.44 24.8864 10.44C24.9264 10.4 24.9664 10.38 25.0064 10.38C25.0464 10.38 25.0864 10.4 25.1264 10.44C25.1664 10.44 25.2264 10.44 25.3064 10.44H25.4864C25.5264 10.44 25.6264 10.52 25.7864 10.68C25.9864 10.84 26.0864 10.94 26.0864 10.98V11.52V12.36C26.0864 12.48 26.0664 12.74 26.0264 13.14C25.9864 13.5 25.9464 13.9 25.9064 14.34C25.8664 14.78 25.8264 15.2 25.7864 15.6C25.7464 15.96 25.7264 16.2 25.7264 16.32V22.86V29.52C25.8064 29.68 25.8664 29.94 25.9064 30.3C25.9864 30.62 26.0464 30.82 26.0864 30.9C26.0864 30.94 26.1264 31.08 26.2064 31.32C26.3264 31.56 26.3864 31.72 26.3864 31.8C26.4664 31.88 26.5264 32.02 26.5664 32.22C26.6464 32.42 26.7264 32.52 26.8064 32.52C26.9664 32.64 27.1864 32.88 27.4664 33.24C27.7464 33.56 27.9264 33.76 28.0064 33.84H28.5464H28.9664C29.1264 33.84 29.2464 33.7 29.3264 33.42C29.4064 33.34 29.5264 33.18 29.6864 32.94C29.8464 32.7 29.9664 32.56 30.0464 32.52C30.1264 32.28 30.3264 31.84 30.6464 31.2C30.9664 30.56 31.1664 30.12 31.2464 29.88C31.3664 29.68 31.5064 29.38 31.6664 28.98C31.8664 28.58 31.9664 28.34 31.9664 28.26V27.48V26.64C31.9664 26.56 31.9264 26.34 31.8464 25.98C31.8064 25.62 31.7464 25.24 31.6664 24.84C31.5864 24.44 31.5064 24.06 31.4264 23.7C31.3464 23.34 31.2864 23.12 31.2464 23.04C31.2464 22.92 31.2264 22.72 31.1864 22.44C31.1464 22.16 31.1064 21.9 31.0664 21.66C31.0664 21.38 31.0464 21.14 31.0064 20.94C30.9664 20.7 30.9464 20.54 30.9464 20.46V18V15.6C30.9464 15.44 31.0464 15.22 31.2464 14.94C31.4464 14.62 31.5864 14.38 31.6664 14.22C31.7064 14.22 31.8064 14.14 31.9664 13.98C32.1264 13.82 32.3064 13.64 32.5064 13.44C32.7064 13.24 32.9064 13.04 33.1064 12.84C33.3064 12.64 33.4664 12.48 33.5864 12.36C33.6264 12.36 33.7264 12.32 33.8864 12.24C34.0464 12.12 34.1464 12.06 34.1864 12.06H34.4864C34.5664 12.06 34.6264 12.06 34.6664 12.06C34.7464 12.02 34.8264 12 34.9064 12C34.9864 12 35.0864 12.02 35.2064 12.06C35.3664 12.06 35.4864 12.06 35.5664 12.06L35.6864 12.18C35.7264 12.22 35.7464 12.26 35.7464 12.3C35.7464 12.3 35.7664 12.32 35.8064 12.36C35.8064 12.44 35.8464 12.56 35.9264 12.72C36.0464 12.88 36.1064 13 36.1064 13.08C36.2264 13.2 36.3664 13.48 36.5264 13.92C36.7264 14.36 36.8264 14.62 36.8264 14.7C36.8264 14.78 36.8464 14.94 36.8864 15.18C36.9664 15.38 37.0464 15.62 37.1264 15.9C37.2064 16.18 37.2664 16.46 37.3064 16.74C37.3864 16.98 37.4264 17.14 37.4264 17.22C37.4264 17.34 37.4464 17.52 37.4864 17.76C37.5264 17.96 37.5464 18.18 37.5464 18.42C37.5864 18.66 37.6264 18.9 37.6664 19.14C37.7064 19.34 37.7264 19.48 37.7264 19.56C37.7264 19.68 37.7464 19.82 37.7864 19.98C37.8664 20.3 37.9064 20.52 37.9064 20.64C37.9064 20.76 37.8664 20.98 37.7864 21.3C37.7464 21.58 37.7264 21.74 37.7264 21.78C37.7264 21.86 37.7064 22.04 37.6664 22.32C37.6264 22.56 37.5864 22.82 37.5464 23.1C37.5464 23.38 37.5264 23.66 37.4864 23.94C37.4464 24.18 37.4264 24.34 37.4264 24.42V24.78V25.02C37.5064 25.26 37.6264 25.7 37.7864 26.34C37.9464 26.98 38.0664 27.42 38.1464 27.66C38.1864 27.82 38.2864 28.16 38.4464 28.68C38.6064 29.2 38.7864 29.76 38.9864 30.36C39.1864 30.96 39.3864 31.56 39.5864 32.16C39.7864 32.72 39.9464 33.14 40.0664 33.42C40.1064 33.62 40.2064 33.92 40.3664 34.32C40.5264 34.72 40.6264 34.96 40.6664 35.04C40.7464 35.12 40.8664 35.3 41.0264 35.58C41.1864 35.86 41.3064 36.04 41.3864 36.12L41.5664 36.48C41.6064 36.56 41.6464 36.62 41.6864 36.66V37.2V37.74C41.6864 37.82 41.6264 37.98 41.5064 38.22C41.4264 38.46 41.3864 38.62 41.3864 38.7C41.3064 38.78 41.1664 38.92 40.9664 39.12C40.7664 39.36 40.5464 39.6 40.3064 39.84C40.0664 40.08 39.8264 40.3 39.5864 40.5C39.3464 40.74 39.1664 40.9 39.0464 40.98C38.8864 41.02 38.7464 41.06 38.6264 41.1C38.3064 41.18 38.1464 41.22 38.1464 41.22H37.7264H37.4264C37.3864 41.22 37.2864 41.18 37.1264 41.1C36.9664 41.02 36.8664 40.98 36.8264 40.98C36.8264 40.9 36.7264 40.68 36.5264 40.32C36.3264 40 36.1864 39.76 36.1064 39.6C36.0664 39.56 35.9864 39.4 35.8664 39.12C35.7864 38.84 35.6864 38.52 35.5664 38.16C35.4464 37.8 35.3264 37.46 35.2064 37.14C35.0864 36.82 34.9864 36.56 34.9064 36.36C34.8664 36.32 34.7864 36.18 34.6664 35.94C34.5864 35.66 34.4864 35.38 34.3664 35.1C34.2464 34.82 34.1464 34.56 34.0664 34.32C33.9864 34.08 33.9464 33.92 33.9464 33.84C33.8664 33.76 33.7864 33.7 33.7064 33.66C33.6664 33.58 33.6264 33.5 33.5864 33.42C33.5864 33.5 33.5264 33.58 33.4064 33.66C33.3264 33.7 33.2864 33.76 33.2864 33.84C33.2464 33.88 33.1464 34 32.9864 34.2C32.8264 34.36 32.6464 34.56 32.4464 34.8C32.2864 35 32.1264 35.2 31.9664 35.4C31.8064 35.6 31.7064 35.72 31.6664 35.76C31.5864 35.8 31.4264 35.94 31.1864 36.18C30.9464 36.42 30.7864 36.58 30.7064 36.66C30.6264 36.7 30.5064 36.8 30.3464 36.96C30.1864 37.08 30.0064 37.22 29.8064 37.38C29.6464 37.54 29.4864 37.68 29.3264 37.8C29.1664 37.92 29.0464 37.98 28.9664 37.98L28.7264 38.28C28.7264 38.48 28.7064 38.82 28.6664 39.3C28.6264 39.82 28.5864 40.36 28.5464 40.92C28.5464 41.48 28.5264 42 28.4864 42.48C28.4464 43 28.4264 43.36 28.4264 43.56C28.3464 43.64 28.2664 43.8 28.1864 44.04C28.1464 44.28 28.0864 44.42 28.0064 44.46C28.0064 44.42 27.9464 44.28 27.8264 44.04C27.7464 43.8 27.7064 43.64 27.7064 43.56C27.7064 43.4 27.6664 43.08 27.5864 42.6C27.5464 42.16 27.4864 41.7 27.4064 41.22C27.3264 40.74 27.2464 40.28 27.1664 39.84C27.1264 39.44 27.1064 39.16 27.1064 39H26.8064ZM55.8038 40.08H54.9638C54.9638 40.16 54.9438 40.3 54.9038 40.5C54.9038 40.74 54.8838 41 54.8438 41.28C54.8038 41.56 54.7638 41.82 54.7238 42.06C54.7238 42.34 54.7238 42.54 54.7238 42.66C54.6838 42.74 54.6438 42.86 54.6038 43.02C54.5638 43.22 54.5238 43.42 54.4838 43.62C54.4438 43.82 54.4038 44.04 54.3638 44.28H54.0638C54.0238 44.08 53.9838 43.9 53.9438 43.74C53.9038 43.58 53.8438 43.42 53.7638 43.26C53.7238 43.14 53.6838 43.04 53.6438 42.96C53.6438 42.84 53.6238 42.62 53.5838 42.3C53.5438 42.02 53.5038 41.7 53.4638 41.34C53.4638 41.02 53.4438 40.7 53.4038 40.38C53.3638 40.06 53.3438 39.84 53.3438 39.72L53.1038 39.42C52.9438 39.34 52.6438 39.2 52.2038 39C51.8038 38.8 51.5638 38.7 51.4838 38.7C51.2838 38.66 50.9238 38.52 50.4038 38.28C49.9238 38.04 49.6238 37.88 49.5038 37.8C49.4638 37.76 49.3438 37.68 49.1438 37.56C48.9838 37.44 48.8038 37.32 48.6038 37.2C48.4038 37.04 48.2038 36.9 48.0038 36.78C47.8038 36.66 47.6638 36.56 47.5838 36.48C47.4638 36.4 47.2238 36.24 46.8638 36C46.5038 35.72 46.3038 35.54 46.2638 35.46C46.1838 35.38 46.0238 35.24 45.7838 35.04C45.5838 34.8 45.3638 34.58 45.1238 34.38C44.8838 34.14 44.6438 33.92 44.4038 33.72C44.2038 33.48 44.0438 33.32 43.9238 33.24C43.8438 33.16 43.6638 32.9 43.3838 32.46C43.1038 32.02 42.8838 31.74 42.7238 31.62C42.6438 31.54 42.5038 31.38 42.3038 31.14C42.1038 30.86 42.0038 30.68 42.0038 30.6C41.9238 30.48 41.8038 30.26 41.6438 29.94C41.5238 29.62 41.3638 29.3 41.1638 28.98C41.0038 28.62 40.8438 28.3 40.6838 28.02C40.5238 27.7 40.4238 27.48 40.3838 27.36C40.3438 27.32 40.2838 27.18 40.2038 26.94C40.1638 26.7 40.1038 26.54 40.0238 26.46C40.0238 26.38 40.0038 26.26 39.9638 26.1C39.9638 25.9 39.9438 25.7 39.9038 25.5C39.8638 25.3 39.8237 25.08 39.7837 24.84V23.52V22.14C39.7837 22.06 39.8237 21.86 39.9038 21.54C39.9838 21.18 40.0238 20.96 40.0238 20.88C40.1038 20.76 40.2638 20.46 40.5038 19.98C40.7838 19.46 40.9838 19.1 41.1038 18.9C41.1038 18.82 41.1838 18.66 41.3438 18.42C41.5438 18.18 41.6438 18.02 41.6438 17.94C41.8038 17.78 42.1238 17.46 42.6038 16.98C43.0838 16.5 43.4238 16.18 43.6238 16.02C43.7038 15.98 43.8638 15.88 44.1038 15.72C44.3838 15.56 44.5638 15.46 44.6438 15.42C44.7238 15.34 44.8638 15.24 45.0638 15.12C45.2638 15 45.4638 14.9 45.6638 14.82C45.8638 14.7 46.0438 14.6 46.2038 14.52C46.3638 14.44 46.4638 14.4 46.5038 14.4C46.6638 14.36 46.9038 14.3 47.2238 14.22C47.5838 14.1 47.8038 14.04 47.8838 14.04H49.5038H51.1238C51.1638 14.04 51.3638 14.1 51.7238 14.22C52.0838 14.3 52.3238 14.36 52.4438 14.4C52.5238 14.44 52.6638 14.5 52.8638 14.58C53.0638 14.62 53.2638 14.68 53.4638 14.76C53.6638 14.8 53.8438 14.84 54.0038 14.88C54.2038 14.92 54.3238 14.94 54.3638 14.94C54.4838 15.02 54.7038 15.14 55.0238 15.3C55.3438 15.46 55.5638 15.58 55.6837 15.66C55.8438 15.82 56.1638 16.06 56.6438 16.38C57.1238 16.66 57.4438 16.88 57.6038 17.04C57.6438 17.08 57.9038 17.3 58.3838 17.7C58.9038 18.1 59.3038 18.42 59.5838 18.66L59.8238 18.9C59.9838 19.06 60.1838 19.32 60.4238 19.68C60.7038 20 60.8438 20.2 60.8438 20.28C60.8438 20.36 60.8638 20.46 60.9038 20.58C60.9838 20.7 61.0638 20.82 61.1438 20.94C61.2238 21.1 61.3238 21.26 61.4438 21.42V21.96V22.5C61.4438 22.58 61.3438 22.8 61.1438 23.16C60.9838 23.48 60.8838 23.68 60.8438 23.76C60.8038 23.84 60.7038 23.96 60.5438 24.12C60.3838 24.28 60.2038 24.46 60.0038 24.66C59.8438 24.82 59.6838 24.98 59.5238 25.14C59.3638 25.26 59.2638 25.34 59.2238 25.38C59.1438 25.46 58.9438 25.58 58.6238 25.74C58.3038 25.86 58.0838 25.96 57.9638 26.04H57.6038H57.3038C57.1438 26.04 56.9438 26 56.7038 25.92C56.5438 25.88 56.4238 25.82 56.3438 25.74C56.1838 25.7 56.0238 25.6 55.8638 25.44C55.7438 25.28 55.6837 25.18 55.6837 25.14C55.6038 24.98 55.5638 24.76 55.5638 24.48C55.5638 24.16 55.6038 23.92 55.6837 23.76C55.6038 23.72 55.4638 23.62 55.2637 23.46C55.1038 23.26 54.9238 23.06 54.7238 22.86C54.5238 22.62 54.3238 22.42 54.1238 22.26C53.9238 22.1 53.7638 21.98 53.6438 21.9C53.5638 21.82 53.2838 21.62 52.8038 21.3C52.3238 20.94 51.9638 20.68 51.7238 20.52C51.6038 20.44 51.3838 20.32 51.0638 20.16C50.7438 20 50.5238 19.88 50.4038 19.8H50.2838H50.1038C50.1038 20.04 50.0638 20.42 49.9838 20.94C49.9038 21.42 49.8638 21.74 49.8638 21.9C49.7838 21.94 49.7238 21.98 49.6838 22.02C49.6438 22.06 49.6038 22.08 49.5638 22.08C49.5238 22.08 49.5038 22.1 49.5038 22.14L49.3238 22.26C49.2438 22.26 49.2038 22.24 49.2038 22.2V22.14C49.1238 22.14 49.0438 22.04 48.9638 21.84C48.9238 21.64 48.8638 21.5 48.7838 21.42C48.7838 21.38 48.7638 21.26 48.7238 21.06C48.6838 20.82 48.6438 20.58 48.6038 20.34C48.6038 20.1 48.5838 19.88 48.5438 19.68C48.5038 19.48 48.4838 19.34 48.4838 19.26C48.3638 19.22 48.0438 19.16 47.5238 19.08C47.0438 18.96 46.7038 18.9 46.5038 18.9H46.3238H46.2638C46.1838 18.9 45.9638 18.96 45.6038 19.08C45.2838 19.16 45.0438 19.22 44.8838 19.26V20.64V22.14C44.8838 22.3 44.9238 22.54 45.0038 22.86C45.1238 23.14 45.2038 23.36 45.2438 23.52L46.8638 26.76C46.9438 26.8 47.0638 26.94 47.2238 27.18C47.3838 27.42 47.5038 27.58 47.5838 27.66C47.7438 27.86 48.0038 28.16 48.3638 28.56C48.7638 28.92 49.1638 29.32 49.5638 29.76C50.0038 30.16 50.4038 30.54 50.7638 30.9C51.1238 31.26 51.3638 31.5 51.4838 31.62C51.5238 31.62 51.6238 31.68 51.7838 31.8C51.9438 31.92 52.1238 32.06 52.3238 32.22C52.5238 32.38 52.7238 32.54 52.9238 32.7C53.1238 32.82 53.2638 32.9 53.3438 32.94C53.5038 33.02 53.8238 33.18 54.3038 33.42C54.7838 33.66 55.1038 33.8 55.2637 33.84C55.3838 33.84 55.5638 33.9 55.8038 34.02C56.0838 34.1 56.2638 34.14 56.3438 34.14H56.8838V33.84C56.8838 33.8 56.8238 33.7 56.7038 33.54C56.6238 33.38 56.5838 33.28 56.5838 33.24V32.52V31.86C56.5838 31.78 56.6238 31.62 56.7038 31.38C56.8238 31.14 56.8838 30.98 56.8838 30.9C56.9238 30.86 57.0438 30.76 57.2438 30.6C57.4438 30.4 57.6438 30.2 57.8438 30C58.0438 29.8 58.2438 29.6 58.4438 29.4C58.6438 29.2 58.8038 29.06 58.9238 28.98C59.0038 28.94 59.1038 28.9 59.2238 28.86C59.3838 28.78 59.5038 28.7 59.5838 28.62H60.1238H60.8438C60.8838 28.62 60.9238 28.68 60.9638 28.8C61.0438 28.88 61.1238 28.94 61.2038 28.98C61.2438 29.06 61.3238 29.22 61.4438 29.46C61.5638 29.7 61.6838 29.96 61.8038 30.24C61.9638 30.52 62.1038 30.8 62.2238 31.08C62.3438 31.32 62.4238 31.5 62.4638 31.62C62.5038 31.66 62.5638 31.8 62.6438 32.04C62.7638 32.28 62.8238 32.44 62.8238 32.52V33.78V34.86C62.8238 34.9 62.7638 35.04 62.6438 35.28C62.5638 35.52 62.5038 35.68 62.4638 35.76C62.4638 35.84 62.4438 35.92 62.4038 36C62.3638 36.04 62.3238 36.1 62.2838 36.18C62.2438 36.3 62.2038 36.4 62.1638 36.48C62.0838 36.52 61.9238 36.72 61.6838 37.08C61.4438 37.44 61.2838 37.68 61.2038 37.8C61.1238 37.8 61.0438 37.86 60.9638 37.98C60.9238 38.06 60.8838 38.1 60.8438 38.1C60.7638 38.22 60.5438 38.4 60.1838 38.64C59.8638 38.88 59.6638 39 59.5838 39C59.5038 39.08 59.3838 39.14 59.2238 39.18C59.1038 39.26 59.0038 39.34 58.9238 39.42C58.8038 39.42 58.5438 39.5 58.1438 39.66C57.7438 39.86 57.4638 40 57.3038 40.08C57.3038 40.32 57.2838 40.76 57.2438 41.4C57.2438 42.04 57.2238 42.72 57.1838 43.44C57.1438 44.16 57.0838 44.84 57.0038 45.48C56.9638 46.12 56.9238 46.56 56.8838 46.8C56.8838 46.88 56.8438 47.08 56.7638 47.4C56.7238 47.76 56.6638 48.02 56.5838 48.18L56.3438 48.42L55.8038 47.82V40.08ZM71.528 40.56C71.408 40.44 71.188 40.28 70.868 40.08C70.588 39.92 70.388 39.8 70.268 39.72C70.188 39.68 70.028 39.52 69.788 39.24C69.588 39 69.448 38.84 69.368 38.76C69.328 38.64 69.228 38.46 69.068 38.22C68.948 37.98 68.868 37.78 68.828 37.62C68.748 37.5 68.648 37.3 68.528 37.02C68.448 36.74 68.348 36.46 68.228 36.18C68.108 35.9 67.988 35.64 67.868 35.4C67.788 35.16 67.728 35 67.688 34.92C67.688 34.84 67.648 34.68 67.568 34.44C67.528 34.16 67.468 33.88 67.388 33.6C67.308 33.28 67.228 32.98 67.148 32.7C67.068 32.38 67.008 32.16 66.968 32.04C66.968 31.92 66.948 31.74 66.908 31.5C66.908 31.22 66.868 30.94 66.788 30.66C66.748 30.34 66.708 30.06 66.668 29.82C66.628 29.54 66.588 29.36 66.548 29.28C66.548 29.2 66.528 28.92 66.488 28.44C66.488 27.96 66.488 27.62 66.488 27.42C66.488 27.34 66.468 27.18 66.428 26.94C66.428 26.66 66.428 26.38 66.428 26.1C66.428 25.78 66.428 25.5 66.428 25.26C66.428 24.98 66.428 24.8 66.428 24.72C66.348 24.6 66.288 24.32 66.248 23.88C66.248 23.44 66.208 23.18 66.128 23.1H66.008L65.828 23.04C65.828 23.04 65.748 23.06 65.588 23.1C65.428 23.1 65.248 23.12 65.048 23.16C64.888 23.16 64.708 23.18 64.508 23.22C64.348 23.22 64.248 23.22 64.208 23.22C64.168 23.22 64.048 23.22 63.848 23.22C63.648 23.18 63.468 23.16 63.308 23.16C63.228 23.16 63.148 23.16 63.068 23.16C63.028 23.12 62.968 23.1 62.888 23.1H62.588C62.548 23.1 62.448 23 62.288 22.8C62.168 22.6 62.088 22.46 62.048 22.38V22.2V22.14C62.048 22.06 62.088 21.9 62.168 21.66C62.288 21.38 62.368 21.2 62.408 21.12C62.488 20.96 62.568 20.84 62.648 20.76C62.688 20.68 62.748 20.62 62.828 20.58C62.908 20.46 63.068 20.28 63.308 20.04C63.588 19.8 63.868 19.56 64.148 19.32C64.468 19.04 64.768 18.8 65.048 18.6C65.328 18.4 65.528 18.26 65.648 18.18C65.688 18.14 65.828 18.04 66.068 17.88C66.348 17.72 66.528 17.64 66.608 17.64C66.648 17.48 66.728 17.18 66.848 16.74C66.968 16.3 67.068 15.84 67.148 15.36C67.268 14.88 67.368 14.44 67.448 14.04C67.568 13.6 67.668 13.3 67.748 13.14C67.748 13.02 67.768 12.86 67.808 12.66C67.848 12.42 67.888 12.2 67.928 12C67.968 11.76 68.028 11.52 68.108 11.28C68.188 11.04 68.388 10.68 68.708 10.2C69.028 9.72 69.248 9.42 69.368 9.3C69.448 9.26 69.648 9.08 69.968 8.76C70.288 8.44 70.528 8.28 70.688 8.28C70.808 8.2 71.028 8.08 71.348 7.92C71.708 7.72 71.948 7.62 72.068 7.62C72.148 7.66 72.228 7.68 72.308 7.68H72.608L73.088 7.74C73.128 7.74 73.168 7.78 73.208 7.86C73.248 7.94 73.308 7.98 73.388 7.98C73.388 8.14 73.368 8.46 73.328 8.94C73.288 9.42 73.268 9.7 73.268 9.78C73.228 10.06 73.188 10.44 73.148 10.92C73.108 11.36 73.088 11.62 73.088 11.7C73.008 11.86 72.928 12 72.848 12.12C72.728 12.36 72.668 12.52 72.668 12.6C72.668 12.8 72.648 13.12 72.608 13.56C72.568 14 72.528 14.46 72.488 14.94C72.448 15.42 72.408 15.88 72.368 16.32C72.328 16.72 72.308 16.98 72.308 17.1L72.848 17.16C73.128 17.12 73.568 17.04 74.168 16.92C74.768 16.76 75.408 16.6 76.088 16.44C76.768 16.28 77.408 16.14 78.008 16.02C78.608 15.9 79.028 15.8 79.268 15.72C79.388 15.68 79.568 15.64 79.808 15.6C80.088 15.56 80.348 15.5 80.588 15.42C80.868 15.34 81.168 15.28 81.488 15.24C81.568 15.24 81.748 15.26 82.028 15.3C82.308 15.3 82.528 15.3 82.688 15.3C82.728 15.34 82.888 15.38 83.168 15.42C83.488 15.42 83.688 15.42 83.768 15.42C83.808 15.5 83.848 15.58 83.888 15.66C83.968 15.74 84.048 15.84 84.128 15.96C84.088 16 84.068 16.04 84.068 16.08V16.26C84.068 16.34 84.048 16.4 84.008 16.44C84.008 16.48 84.008 16.54 84.008 16.62V16.8C83.928 16.88 83.868 16.98 83.828 17.1C83.748 17.18 83.688 17.26 83.648 17.34C83.648 17.42 83.628 17.48 83.588 17.52C83.508 17.56 83.368 17.7 83.168 17.94C83.008 18.14 82.888 18.28 82.808 18.36C82.808 18.44 82.708 18.56 82.508 18.72C82.308 18.84 82.208 18.94 82.208 19.02C82.128 19.06 81.948 19.16 81.668 19.32C81.388 19.44 81.188 19.5 81.068 19.5C80.988 19.5 80.788 19.58 80.468 19.74C80.148 19.9 79.948 19.98 79.868 19.98L79.508 23.64L79.148 23.16L78.848 20.34L78.188 20.28V20.52C78.148 20.68 78.148 21.06 78.188 21.66C78.268 22.26 78.288 22.64 78.248 22.8C78.248 22.96 78.248 23.2 78.248 23.52C78.248 23.84 78.248 24.18 78.248 24.54C78.248 24.9 78.248 25.24 78.248 25.56C78.288 25.84 78.328 26.02 78.368 26.1C78.328 26.18 78.308 26.26 78.308 26.34V26.64L78.248 27.06L77.888 26.76L77.108 20.28L71.888 21.6C71.848 21.68 71.828 21.78 71.828 21.9C71.828 21.98 71.808 22.08 71.768 22.2C71.768 22.28 71.768 22.36 71.768 22.44C71.768 22.56 71.748 22.78 71.708 23.1C71.708 23.38 71.708 23.54 71.708 23.58C71.708 23.86 71.728 24.12 71.768 24.36C71.808 24.56 71.828 24.78 71.828 25.02C71.828 25.22 71.848 25.38 71.888 25.5C71.888 25.62 71.908 25.9 71.948 26.34C71.988 26.74 72.008 27.02 72.008 27.18C71.968 27.3 71.988 27.54 72.068 27.9C72.148 28.26 72.188 28.46 72.188 28.5C72.228 28.7 72.288 28.96 72.368 29.28C72.448 29.56 72.528 29.86 72.608 30.18C72.688 30.5 72.768 30.78 72.848 31.02C72.928 31.26 72.968 31.4 72.968 31.44C72.968 31.52 73.008 31.7 73.088 31.98C73.168 32.22 73.268 32.5 73.388 32.82C73.508 33.1 73.608 33.38 73.688 33.66C73.808 33.94 73.908 34.14 73.988 34.26C74.028 34.34 74.068 34.4 74.108 34.44C74.228 34.56 74.308 34.62 74.348 34.62C74.428 34.62 74.628 34.68 74.948 34.8C75.268 34.88 75.468 34.92 75.548 34.92C75.588 35 75.648 35.08 75.728 35.16C75.848 35.24 75.908 35.3 75.908 35.34C75.868 35.46 75.848 35.56 75.848 35.64V36.06C75.848 36.1 75.828 36.14 75.788 36.18C75.788 36.22 75.788 36.28 75.788 36.36V36.6C75.708 36.68 75.568 36.88 75.368 37.2C75.208 37.52 75.088 37.76 75.008 37.92C74.928 37.92 74.768 38.04 74.528 38.28C74.328 38.52 74.208 38.68 74.168 38.76L73.748 43.56L73.208 43.5L73.088 43.02C73.048 42.9 73.008 42.76 72.968 42.6C72.968 42.48 72.988 42.38 73.028 42.3C72.988 42.18 72.948 42 72.908 41.76C72.908 41.56 72.908 41.34 72.908 41.1C72.908 40.86 72.888 40.62 72.848 40.38C72.848 40.18 72.828 40.04 72.788 39.96L71.648 52.86L71.528 40.56ZM80.5838 45.12V39.6C80.4238 39.52 80.1838 39.4 79.8638 39.24C79.5838 39.08 79.3638 38.96 79.2038 38.88C79.1638 38.76 79.1238 38.66 79.0838 38.58C79.0038 38.42 78.9638 38.32 78.9638 38.28C78.9638 38.2 78.9038 37.94 78.7838 37.5C78.7038 37.06 78.6638 36.78 78.6638 36.66C78.6238 36.54 78.5638 36.34 78.4838 36.06C78.4438 35.78 78.4038 35.5 78.3638 35.22C78.3238 34.9 78.2838 34.6 78.2438 34.32C78.2438 34 78.2438 33.78 78.2438 33.66C78.2038 33.18 78.1438 32.52 78.0638 31.68C78.0238 30.8 77.9638 29.92 77.8838 29.04C77.8438 28.12 77.7838 27.3 77.7038 26.58C77.6638 25.86 77.6238 25.44 77.5838 25.32V22.86V20.46C77.6638 20.3 77.7638 20.06 77.8838 19.74C78.0438 19.38 78.1638 19.16 78.2438 19.08C78.3238 19 78.5238 18.8 78.8438 18.48C79.2038 18.12 79.4438 17.9 79.5638 17.82C79.6438 17.7 79.8038 17.58 80.0438 17.46C80.3238 17.3 80.5038 17.22 80.5838 17.22C80.6238 17.22 80.7638 17.2 81.0038 17.16C81.2438 17.08 81.4038 17.04 81.4838 17.04C81.5238 17.04 81.6638 17.08 81.9038 17.16C82.0238 17.2 82.1238 17.22 82.2038 17.22L82.4438 17.82C82.4838 18.06 82.5238 18.52 82.5638 19.2C82.6038 19.84 82.6238 20.52 82.6238 21.24C82.6638 21.96 82.7038 22.64 82.7438 23.28C82.7838 23.92 82.8038 24.36 82.8038 24.6C82.8038 24.84 82.8238 25.3 82.8638 25.98C82.9438 26.66 83.0238 27.4 83.1038 28.2C83.1838 29 83.2638 29.76 83.3438 30.48C83.4238 31.2 83.4838 31.72 83.5238 32.04C83.5238 32.12 83.5438 32.28 83.5838 32.52C83.6238 32.76 83.6438 33.02 83.6438 33.3C83.6838 33.54 83.7238 33.76 83.7638 33.96C83.8038 34.16 83.8238 34.28 83.8238 34.32V35.04V35.64C83.8238 35.72 83.7638 35.9 83.6438 36.18C83.5638 36.42 83.5238 36.58 83.5238 36.66C83.4438 36.7 83.3038 36.86 83.1038 37.14C82.9838 37.3 82.8838 37.44 82.8038 37.56C82.7238 37.8 82.6038 38.04 82.4438 38.28C82.4438 38.6 82.4238 39.18 82.3838 40.02C82.3438 40.9 82.2838 41.82 82.2038 42.78C82.1638 43.74 82.1038 44.64 82.0238 45.48C81.9838 46.32 81.9438 46.92 81.9038 47.28C81.9038 47.36 81.8438 47.64 81.7238 48.12C81.6438 48.64 81.5638 49.04 81.4838 49.32C81.4838 49.48 81.4238 49.76 81.3037 50.16C81.2238 50.6 81.1838 50.86 81.1838 50.94C81.1838 51.02 81.1438 51.18 81.0638 51.42C80.9838 51.66 80.9038 51.8 80.8238 51.84V45.36L80.5838 45.12ZM77.5238 3.18C77.5238 3.14 77.5238 3.1 77.5238 3.06C77.5638 2.98 77.5838 2.92 77.5838 2.88C77.5838 2.84 77.6038 2.8 77.6438 2.76C77.6838 2.6 77.8238 2.38 78.0638 2.1C78.3438 1.82 78.5038 1.64 78.5438 1.56C78.5838 1.56 78.6838 1.52 78.8438 1.44C79.0438 1.32 79.2438 1.2 79.4438 1.08C79.6838 0.919998 79.9038 0.779997 80.1038 0.659997C80.3038 0.539998 80.4638 0.459999 80.5838 0.42C80.6638 0.379998 80.7838 0.359997 80.9438 0.359997C81.1038 0.359997 81.2238 0.359997 81.3037 0.359997L81.6638 0.479999C81.7838 0.519998 81.9438 0.539998 82.1438 0.539998C82.3038 0.619997 82.4438 0.679997 82.5638 0.719999C82.6438 0.759999 82.7438 0.799998 82.8638 0.839998C82.8638 1.04 82.8838 1.22 82.9238 1.38C83.0038 1.78 83.0638 2.04 83.1038 2.16C83.1038 2.24 83.1038 2.42 83.1038 2.7C83.1438 2.98 83.1638 3.28 83.1638 3.6C83.2038 3.92 83.2438 4.24 83.2838 4.56C83.3238 4.88 83.3438 5.12 83.3438 5.28C83.3438 5.64 83.3438 6.14 83.3438 6.78C83.3438 7.38 83.3438 7.98 83.3438 8.58C83.3838 9.18 83.4038 9.72 83.4038 10.2C83.4438 10.68 83.4838 10.96 83.5238 11.04C83.4838 11.2 83.4438 11.34 83.4038 11.46C83.3238 11.7 83.2638 11.88 83.2238 12C83.1838 12.08 83.1638 12.18 83.1638 12.3C83.1638 12.38 83.1438 12.46 83.1038 12.54C83.0638 12.66 83.0238 12.76 82.9838 12.84C82.8638 12.92 82.7438 13.1 82.6238 13.38C82.5038 13.62 82.4038 13.74 82.3238 13.74C82.2438 13.78 82.0638 13.88 81.7838 14.04C81.5438 14.2 81.2638 14.36 80.9438 14.52C80.6638 14.68 80.3838 14.84 80.1038 15C79.8238 15.12 79.6238 15.2 79.5038 15.24C79.5038 15.32 79.3638 15.36 79.0838 15.36C78.8438 15.36 78.6638 15.4 78.5438 15.48L78.4238 15.42H78.2438C78.2038 15.34 78.1038 15.24 77.9438 15.12C77.7838 14.96 77.7238 14.84 77.7638 14.76C77.8038 14.72 77.8038 14.52 77.7638 14.16C77.7638 13.8 77.7638 13.6 77.7638 13.56C77.7238 13.28 77.6838 12.86 77.6438 12.3C77.6438 11.7 77.6438 11.1 77.6438 10.5C77.6438 9.86 77.6438 9.28 77.6438 8.76C77.6438 8.24 77.6438 7.9 77.6438 7.74C77.6438 7.66 77.6238 7.42 77.5838 7.02C77.5438 6.62 77.5038 6.2 77.4638 5.76C77.4238 5.28 77.4038 4.84 77.4038 4.44C77.4038 4.04 77.4038 3.8 77.4038 3.72C77.4038 3.64 77.4238 3.56 77.4638 3.48C77.4638 3.4 77.4638 3.34 77.4638 3.3C77.5038 3.26 77.5238 3.22 77.5238 3.18ZM94.9364 38.58C94.7764 38.58 94.4564 38.5 93.9764 38.34C93.4964 38.14 93.1764 38.04 93.0164 38.04C92.9364 38 92.7764 37.92 92.5364 37.8C92.3364 37.68 92.0964 37.56 91.8164 37.44C91.5364 37.28 91.2564 37.14 90.9764 37.02C90.7364 36.9 90.5764 36.8 90.4964 36.72C90.3764 36.64 90.1764 36.52 89.8964 36.36C89.6564 36.2 89.4964 36.08 89.4164 36C89.2964 35.92 89.0964 35.74 88.8164 35.46C88.5764 35.18 88.2964 34.88 87.9764 34.56C87.6964 34.24 87.4164 33.94 87.1364 33.66C86.8564 33.34 86.6564 33.12 86.5364 33C86.4964 33 86.3964 32.9 86.2364 32.7C86.0764 32.46 85.9764 32.26 85.9364 32.1C85.8564 31.98 85.7564 31.8 85.6364 31.56C85.5164 31.32 85.3764 31.08 85.2164 30.84C85.0964 30.56 84.9764 30.3 84.8564 30.06C84.7364 29.82 84.6364 29.64 84.5564 29.52C84.5564 29.44 84.5164 29.28 84.4364 29.04C84.3564 28.8 84.3164 28.66 84.3164 28.62V26.16V24C84.3164 23.96 84.3364 23.86 84.3764 23.7C84.4164 23.54 84.4564 23.36 84.4964 23.16C84.5764 22.96 84.6364 22.76 84.6764 22.56C84.7564 22.36 84.8364 22.22 84.9164 22.14C84.9164 22.06 84.9564 21.94 85.0364 21.78C85.1564 21.62 85.2164 21.5 85.2164 21.42C85.2564 21.34 85.3364 21.2 85.4564 21C85.6164 20.76 85.7764 20.54 85.9364 20.34C86.0964 20.1 86.2364 19.9 86.3564 19.74C86.4764 19.58 86.5364 19.5 86.5364 19.5C86.5764 19.46 86.6764 19.36 86.8364 19.2C87.0364 19 87.2364 18.8 87.4364 18.6C87.6364 18.36 87.8364 18.14 88.0364 17.94C88.2364 17.74 88.3764 17.6 88.4564 17.52C88.5764 17.44 88.7964 17.28 89.1164 17.04C89.4364 16.8 89.6564 16.64 89.7764 16.56C89.8964 16.48 90.0764 16.38 90.3164 16.26C90.5564 16.1 90.8164 15.96 91.0964 15.84C91.3764 15.68 91.6364 15.54 91.8764 15.42C92.1164 15.3 92.2964 15.22 92.4164 15.18C92.5364 15.18 92.7564 15.14 93.0764 15.06C93.3964 14.98 93.6164 14.94 93.7364 14.94H95.6564H97.6364C97.7164 14.94 97.8964 14.98 98.1764 15.06C98.4964 15.14 98.7364 15.18 98.8964 15.18C98.9364 15.18 99.0364 15.24 99.1964 15.36C99.3564 15.48 99.4564 15.58 99.4964 15.66C99.6564 15.7 99.8564 15.84 100.096 16.08C100.376 16.32 100.516 16.48 100.516 16.56C100.516 16.6 100.536 16.7 100.576 16.86C100.616 17.02 100.636 17.2 100.636 17.4C100.676 17.56 100.716 17.72 100.756 17.88C100.796 18.04 100.836 18.14 100.876 18.18C100.916 18.26 100.996 18.42 101.116 18.66C101.276 18.86 101.436 19.1 101.596 19.38C101.796 19.62 101.976 19.86 102.136 20.1C102.296 20.3 102.416 20.44 102.496 20.52C102.576 20.56 102.736 20.8 102.976 21.24C103.216 21.68 103.376 21.98 103.456 22.14C103.616 22.42 103.836 22.88 104.116 23.52C104.396 24.12 104.576 24.5 104.656 24.66C104.736 24.78 104.876 25.1 105.076 25.62C105.276 26.1 105.376 26.4 105.376 26.52C105.416 26.76 105.476 27.08 105.556 27.48C105.676 27.88 105.736 28.1 105.736 28.14V29.4V30.48C105.736 30.56 105.676 30.76 105.556 31.08C105.476 31.36 105.416 31.62 105.376 31.86C105.376 31.9 105.316 32.04 105.196 32.28C105.116 32.52 105.076 32.68 105.076 32.76C105.076 32.84 105.016 32.96 104.896 33.12C104.816 33.28 104.736 33.4 104.656 33.48C104.656 33.52 104.576 33.66 104.416 33.9C104.296 34.14 104.196 34.3 104.116 34.38C103.956 34.5 103.756 34.72 103.516 35.04C103.276 35.36 103.116 35.58 103.036 35.7L102.736 36C102.696 36.08 102.496 36.24 102.136 36.48C101.776 36.72 101.536 36.88 101.416 36.96C101.336 37.04 101.176 37.18 100.936 37.38C100.696 37.54 100.556 37.62 100.516 37.62C100.436 37.7 100.196 37.82 99.7964 37.98C99.4364 38.14 99.2564 38.26 99.2564 38.34C99.0964 38.38 98.9364 38.58 98.7764 38.94C98.6564 39.3 98.5964 39.54 98.5964 39.66H98.4164H98.1764C98.1764 39.58 98.0764 39.4 97.8764 39.12C97.7164 38.84 97.6364 38.66 97.6364 38.58H97.5164H97.2764C97.1964 38.66 97.0564 38.74 96.8564 38.82C96.6564 38.86 96.5564 38.9 96.5564 38.94L96.0164 44.82L95.8964 44.88H95.7164C95.6764 44.88 95.6564 44.86 95.6564 44.82C95.6564 44.74 95.5964 44.56 95.4764 44.28C95.3964 44.04 95.3564 43.88 95.3564 43.8C95.3164 43.6 95.2564 43.26 95.1764 42.78C95.1364 42.3 95.0964 41.78 95.0564 41.22C95.0164 40.66 94.9764 40.12 94.9364 39.6C94.9364 39.12 94.9364 38.78 94.9364 38.58ZM89.1764 24.36C89.1764 24.44 89.2164 24.66 89.2964 25.02C89.3764 25.34 89.4164 25.54 89.4164 25.62C89.4964 25.7 89.5964 25.88 89.7164 26.16C89.8364 26.4 89.9564 26.66 90.0764 26.94C90.2364 27.22 90.3764 27.48 90.4964 27.72C90.6164 27.96 90.7164 28.1 90.7964 28.14C90.8364 28.3 90.9764 28.54 91.2164 28.86C91.4564 29.14 91.6164 29.36 91.6964 29.52C91.8164 29.6 92.0364 29.82 92.3564 30.18C92.6764 30.5 92.8964 30.72 93.0164 30.84C93.1764 30.92 93.3964 31.1 93.6764 31.38C93.9964 31.62 94.2364 31.78 94.3964 31.86C94.4364 31.86 94.5564 31.92 94.7564 32.04C94.9964 32.16 95.2564 32.3 95.5364 32.46C95.8164 32.58 96.0964 32.7 96.3764 32.82C96.6564 32.94 96.8564 33 96.9764 33C97.0564 33.08 97.2164 33.18 97.4564 33.3C97.6964 33.42 97.8364 33.48 97.8764 33.48C97.9964 33.48 98.1964 33.48 98.4764 33.48C98.7564 33.48 99.0364 33.5 99.3164 33.54C99.6364 33.54 99.9164 33.54 100.156 33.54C100.436 33.54 100.636 33.54 100.756 33.54C100.756 33.42 100.736 33.22 100.696 32.94C100.696 32.62 100.676 32.3 100.636 31.98C100.636 31.62 100.616 31.3 100.576 31.02C100.536 30.74 100.516 30.56 100.516 30.48C100.516 30.44 100.476 30.34 100.396 30.18C100.356 30.02 100.296 29.84 100.216 29.64C100.176 29.44 100.096 29.24 99.9764 29.04C99.8964 28.84 99.8364 28.7 99.7964 28.62C99.7564 28.54 99.6764 28.38 99.5564 28.14C99.4764 27.9 99.3764 27.64 99.2564 27.36C99.1364 27.08 99.0164 26.82 98.8964 26.58C98.7764 26.3 98.6764 26.1 98.5964 25.98C98.5164 25.86 98.3564 25.58 98.1164 25.14C97.8764 24.7 97.7164 24.44 97.6364 24.36C97.5564 24.24 97.3764 24.02 97.0964 23.7C96.8564 23.34 96.6764 23.12 96.5564 23.04C96.5564 22.96 96.4564 22.86 96.2564 22.74C96.0964 22.58 96.0164 22.46 96.0164 22.38C95.9364 22.58 95.8564 23 95.7764 23.64C95.7364 24.28 95.6964 24.7 95.6564 24.9C95.6564 25.06 95.5964 25.32 95.4764 25.68C95.3964 26 95.3564 26.2 95.3564 26.28H95.1764H94.9364C94.9364 26.2 94.8764 26.04 94.7564 25.8C94.6764 25.56 94.6364 25.42 94.6364 25.38C94.6364 25.26 94.6164 25.02 94.5764 24.66C94.5364 24.3 94.4964 23.92 94.4564 23.52C94.4564 23.12 94.4364 22.74 94.3964 22.38C94.3964 22.02 94.3964 21.78 94.3964 21.66C94.3164 21.62 94.2364 21.48 94.1564 21.24C94.1164 21 94.0764 20.84 94.0364 20.76L93.7364 20.52L93.5564 20.34C93.5564 20.34 93.5164 20.38 93.4364 20.46C93.3964 20.5 93.3564 20.52 93.3164 20.52C93.1964 20.64 93.0564 20.74 92.8964 20.82C92.8164 20.86 92.7364 20.9 92.6564 20.94C92.6164 20.94 92.5764 20.96 92.5364 21C92.4564 21.04 92.4164 21.08 92.4164 21.12C92.3364 21.12 92.2164 21.18 92.0564 21.3C91.8964 21.38 91.7764 21.42 91.6964 21.42H91.3364H90.7964L90.4964 21.12C90.4164 21.08 90.3364 20.98 90.2564 20.82C90.2164 20.62 90.1564 20.52 90.0764 20.52C89.9964 20.52 89.8764 20.62 89.7164 20.82C89.5964 20.98 89.4964 21.08 89.4164 21.12C89.3764 21.24 89.3364 21.38 89.2964 21.54C89.2164 21.86 89.1764 22.06 89.1764 22.14V23.22V24.36ZM109.253 39.3C109.173 39.22 109.033 39.06 108.833 38.82C108.673 38.54 108.553 38.36 108.473 38.28C108.513 38.2 108.473 37.9 108.353 37.38C108.273 36.82 108.193 36.44 108.113 36.24C108.073 36.16 108.033 36 107.993 35.76C107.953 35.52 107.913 35.26 107.873 34.98C107.833 34.7 107.793 34.42 107.753 34.14C107.713 33.86 107.673 33.66 107.633 33.54C107.593 33.38 107.533 32.94 107.453 32.22C107.413 31.5 107.353 30.66 107.273 29.7C107.193 28.7 107.093 27.64 106.973 26.52C106.893 25.4 106.793 24.36 106.673 23.4C106.593 22.4 106.513 21.56 106.433 20.88C106.393 20.16 106.353 19.7 106.313 19.5C106.233 19.18 106.153 18.7 106.073 18.06C105.993 17.38 105.913 16.96 105.833 16.8C105.833 16.76 105.793 16.66 105.713 16.5C105.633 16.3 105.593 16.18 105.593 16.14C105.553 16.1 105.513 16.02 105.473 15.9C105.473 15.78 105.433 15.66 105.353 15.54C105.273 15.38 105.193 15.24 105.113 15.12C105.113 15.08 105.113 14.98 105.113 14.82C105.113 14.66 105.133 14.56 105.173 14.52V14.1C105.173 13.98 105.193 13.88 105.233 13.8C105.233 13.72 105.333 13.52 105.533 13.2C105.733 12.88 105.873 12.64 105.953 12.48C105.993 12.48 106.093 12.42 106.253 12.3C106.413 12.14 106.573 11.98 106.733 11.82C106.933 11.66 107.113 11.5 107.273 11.34C107.473 11.18 107.613 11.06 107.693 10.98C107.773 10.94 107.973 10.86 108.293 10.74C108.653 10.62 108.873 10.56 108.953 10.56H109.553C109.633 10.56 109.793 10.6 110.033 10.68L110.153 10.8C110.273 10.92 110.333 10.98 110.333 10.98C110.373 11.1 110.453 11.34 110.573 11.7C110.693 12.02 110.773 12.24 110.813 12.36C110.813 12.4 110.833 12.52 110.873 12.72C110.913 12.88 110.953 13.08 110.993 13.32C111.073 13.56 111.133 13.8 111.173 14.04C111.253 14.24 111.313 14.42 111.353 14.58C111.353 14.7 111.353 14.9 111.353 15.18C111.393 15.42 111.433 15.68 111.473 15.96C111.513 16.24 111.553 16.52 111.593 16.8C111.633 17.04 111.653 17.2 111.653 17.28C111.653 17.36 111.673 17.56 111.713 17.88C111.793 18.16 111.853 18.46 111.893 18.78C111.933 19.1 111.973 19.42 112.013 19.74C112.053 20.02 112.073 20.18 112.073 20.22C112.153 20.3 112.213 20.42 112.253 20.58C112.293 20.74 112.353 20.86 112.433 20.94C112.513 20.86 112.653 20.7 112.853 20.46C113.053 20.18 113.253 19.9 113.453 19.62C113.693 19.3 113.913 19.02 114.113 18.78C114.353 18.54 114.513 18.38 114.593 18.3C114.633 18.22 114.873 17.94 115.313 17.46C115.753 16.98 116.093 16.62 116.333 16.38C116.373 16.38 116.433 16.34 116.513 16.26C116.593 16.14 116.673 16.1 116.753 16.14C116.873 16.02 117.093 15.86 117.413 15.66C117.773 15.42 117.993 15.26 118.073 15.18C118.273 15.14 118.613 15.02 119.093 14.82C119.613 14.62 119.973 14.48 120.173 14.4C120.213 14.44 120.253 14.46 120.293 14.46H120.593C120.633 14.46 120.673 14.48 120.713 14.52C120.753 14.52 120.813 14.52 120.893 14.52H121.133C121.173 14.6 121.253 14.68 121.373 14.76C121.533 14.84 121.653 14.9 121.733 14.94L122.213 15.54C122.293 15.62 122.393 15.8 122.513 16.08C122.673 16.32 122.793 16.52 122.873 16.68C122.913 16.68 122.953 16.78 122.993 16.98C123.033 17.18 123.073 17.32 123.113 17.4C123.153 17.56 123.273 18.02 123.473 18.78C123.713 19.5 123.953 20.3 124.193 21.18C124.473 22.02 124.713 22.82 124.913 23.58C125.153 24.34 125.313 24.82 125.393 25.02C125.393 25.06 125.413 25.18 125.453 25.38C125.533 25.58 125.613 25.82 125.693 26.1C125.773 26.34 125.853 26.6 125.933 26.88C126.013 27.12 126.053 27.3 126.053 27.42C126.093 27.5 126.173 27.9 126.293 28.62C126.453 29.34 126.613 30.14 126.773 31.02C126.933 31.86 127.073 32.66 127.193 33.42C127.313 34.14 127.373 34.56 127.373 34.68C127.453 34.72 127.533 34.88 127.613 35.16C127.693 35.4 127.733 35.56 127.733 35.64C127.693 35.76 127.673 35.9 127.673 36.06L127.613 36.36C127.613 36.48 127.553 36.66 127.433 36.9C127.313 37.1 127.213 37.2 127.133 37.2C127.133 37.28 127.073 37.42 126.953 37.62C126.833 37.78 126.693 37.96 126.533 38.16C126.373 38.36 126.213 38.56 126.053 38.76C125.893 38.96 125.793 39.08 125.753 39.12C125.713 39.2 125.673 39.38 125.633 39.66C125.593 39.94 125.553 40.24 125.513 40.56C125.473 40.88 125.433 41.18 125.393 41.46C125.353 41.74 125.333 41.92 125.333 42C125.333 41.92 125.253 41.74 125.093 41.46C124.933 41.18 124.873 41.02 124.913 40.98C124.913 40.9 124.873 40.68 124.793 40.32C124.753 40 124.733 39.8 124.733 39.72C124.653 39.68 124.473 39.68 124.193 39.72C123.953 39.8 123.773 39.84 123.653 39.84H123.473C123.353 39.84 123.293 39.82 123.293 39.78H122.753L122.513 39.48C122.433 39.4 122.373 39.18 122.333 38.82C122.333 38.42 122.293 38.18 122.213 38.1C122.173 37.98 122.073 37.46 121.913 36.54C121.753 35.62 121.573 34.64 121.373 33.6C121.173 32.56 120.973 31.58 120.773 30.66C120.613 29.74 120.513 29.22 120.473 29.1C120.393 28.86 120.253 28.42 120.053 27.78C119.893 27.14 119.693 26.48 119.453 25.8C119.213 25.08 118.993 24.4 118.793 23.76C118.593 23.12 118.453 22.66 118.373 22.38C118.373 22.66 118.353 23.32 118.313 24.36C118.313 25.36 118.273 26.46 118.193 27.66C118.153 28.82 118.093 29.9 118.013 30.9C117.933 31.9 117.853 32.54 117.773 32.82C117.773 32.98 117.713 33.3 117.593 33.78C117.513 34.26 117.413 34.56 117.293 34.68C117.293 34.6 117.293 34.26 117.293 33.66C117.293 33.02 117.293 32.34 117.293 31.62C117.293 30.9 117.293 30.24 117.293 29.64C117.293 29 117.293 28.64 117.293 28.56C117.293 28.44 117.273 28.22 117.233 27.9C117.233 27.54 117.233 27.18 117.233 26.82C117.233 26.42 117.233 26.06 117.233 25.74C117.233 25.38 117.233 25.14 117.233 25.02C117.233 24.82 117.233 24.5 117.233 24.06C117.273 23.58 117.293 23.08 117.293 22.56C117.293 22.04 117.293 21.56 117.293 21.12C117.333 20.64 117.353 20.32 117.353 20.16C117.273 20.24 117.153 20.4 116.993 20.64C116.873 20.84 116.733 21.08 116.573 21.36C116.453 21.6 116.313 21.84 116.153 22.08C115.993 22.32 115.893 22.48 115.853 22.56C115.733 22.68 115.573 22.94 115.373 23.34C115.213 23.74 115.073 24 114.953 24.12C114.913 24.24 114.853 24.44 114.773 24.72C114.693 24.96 114.613 25.22 114.533 25.5C114.453 25.78 114.373 26.04 114.293 26.28C114.213 26.52 114.173 26.66 114.173 26.7C114.133 26.9 114.073 27.42 113.993 28.26C113.953 29.1 113.913 30.02 113.873 31.02C113.833 32.02 113.793 32.96 113.753 33.84C113.753 34.68 113.753 35.18 113.753 35.34C113.673 35.5 113.533 35.74 113.333 36.06C113.173 36.38 113.053 36.58 112.973 36.66C112.933 36.74 112.813 36.86 112.613 37.02C112.413 37.18 112.213 37.36 112.013 37.56C111.813 37.76 111.613 37.96 111.413 38.16C111.253 38.32 111.173 38.44 111.173 38.52C111.133 38.56 111.073 38.72 110.993 39C110.953 39.24 110.893 39.52 110.813 39.84C110.773 40.2 110.713 40.52 110.633 40.8C110.593 41.08 110.553 41.26 110.513 41.34C110.513 41.38 110.433 41.5 110.273 41.7C110.153 41.94 110.093 42.1 110.093 42.18L110.393 39C110.313 39.16 110.213 39.44 110.093 39.84C110.013 40.24 109.933 40.66 109.853 41.1C109.773 41.58 109.693 42.02 109.613 42.42C109.533 42.82 109.473 43.1 109.433 43.26C109.433 43.38 109.333 43.68 109.133 44.16C108.933 44.64 108.813 44.94 108.773 45.06L109.253 39.3ZM142.646 40.92C142.566 40.84 142.446 40.62 142.286 40.26C142.166 39.94 142.106 39.7 142.106 39.54C142.026 39.46 141.926 39.28 141.806 39C141.726 38.68 141.686 38.44 141.686 38.28C141.686 38.2 141.646 38 141.566 37.68C141.526 37.32 141.466 36.94 141.386 36.54C141.306 36.1 141.226 35.7 141.146 35.34C141.106 34.94 141.066 34.64 141.026 34.44C141.026 34.2 140.986 33.78 140.906 33.18C140.826 32.58 140.786 32.22 140.786 32.1C140.706 31.62 140.606 30.84 140.486 29.76C140.366 28.64 140.226 27.5 140.066 26.34C139.946 25.14 139.826 24.04 139.706 23.04C139.586 22.04 139.486 21.36 139.406 21C139.406 20.8 139.386 20.52 139.346 20.16C139.346 19.8 139.326 19.44 139.286 19.08C139.246 18.68 139.206 18.34 139.166 18.06C139.166 17.78 139.166 17.6 139.166 17.52V13.74V10.14C139.166 10.06 139.206 9.76 139.286 9.24C139.366 8.72 139.406 8.32 139.406 8.04C139.486 7.84 139.566 7.62 139.646 7.38L139.766 6.9C139.846 6.74 140.006 6.42 140.246 5.94C140.526 5.42 140.706 5.04 140.786 4.8C140.826 4.76 140.926 4.62 141.086 4.38C141.246 4.14 141.346 3.98 141.386 3.9L142.106 3.18C142.186 3.14 142.346 3.04 142.586 2.88C142.826 2.72 142.966 2.62 143.006 2.58C143.086 2.54 143.186 2.5 143.306 2.46C143.426 2.38 143.566 2.3 143.726 2.22C143.886 2.14 144.066 2.08 144.266 2.04C144.346 2.04 144.426 2.02 144.506 1.98C144.626 1.9 144.726 1.86 144.806 1.86C144.886 1.86 144.966 1.9 145.046 1.98C145.166 2.02 145.266 2.04 145.346 2.04C145.426 2.04 145.526 2.12 145.646 2.28C145.806 2.4 145.886 2.5 145.886 2.58C145.886 2.62 145.906 2.66 145.946 2.7C145.946 2.74 145.946 2.78 145.946 2.82C145.986 2.86 146.006 2.9 146.006 2.94L145.886 3.18C145.886 3.34 145.846 3.56 145.766 3.84C145.726 4.08 145.686 4.2 145.646 4.2C145.646 4.2 145.606 4.28 145.526 4.44C145.446 4.56 145.346 4.7 145.226 4.86C145.106 4.98 144.986 5.12 144.866 5.28C144.746 5.4 144.666 5.48 144.626 5.52C144.586 5.56 144.546 5.62 144.506 5.7C144.506 5.74 144.486 5.8 144.446 5.88C144.406 6 144.346 6.1 144.266 6.18V15.9H144.626C144.666 15.9 144.766 15.88 144.926 15.84C145.126 15.8 145.306 15.78 145.466 15.78C145.666 15.74 145.846 15.7 146.006 15.66C146.166 15.62 146.246 15.6 146.246 15.6C146.526 15.56 147.006 15.48 147.686 15.36C148.406 15.2 149.166 15.06 149.966 14.94C150.806 14.78 151.566 14.64 152.246 14.52C152.966 14.4 153.466 14.32 153.746 14.28L154.286 13.98V3.9C154.286 3.82 154.386 3.64 154.586 3.36C154.786 3.04 154.946 2.78 155.066 2.58L156.686 0.96C156.766 0.96 156.946 0.88 157.226 0.719999C157.506 0.559999 157.726 0.459999 157.886 0.42H158.126H158.306C158.426 0.42 158.606 0.459999 158.846 0.539998C158.966 0.579998 159.066 0.619997 159.146 0.659997V12.3L159.506 14.28V24.24C159.546 24.64 159.586 25.32 159.626 26.28C159.666 27.2 159.686 28.18 159.686 29.22C159.726 30.26 159.766 31.26 159.806 32.22C159.846 33.14 159.886 33.78 159.926 34.14C159.926 34.18 159.946 34.32 159.986 34.56C160.026 34.8 160.046 35.08 160.046 35.4C160.086 35.68 160.126 35.96 160.166 36.24C160.206 36.48 160.226 36.62 160.226 36.66V37.5V38.28C160.226 38.36 160.166 38.54 160.046 38.82C159.966 39.06 159.926 39.22 159.926 39.3C159.886 39.38 159.846 39.6 159.806 39.96C159.766 40.32 159.726 40.7 159.686 41.1C159.686 41.5 159.666 41.86 159.626 42.18C159.586 42.54 159.546 42.74 159.506 42.78C159.506 42.94 159.466 43.14 159.386 43.38C159.346 43.62 159.286 43.78 159.206 43.86C159.166 43.9 159.106 43.92 159.026 43.92C158.946 43.96 158.826 43.98 158.666 43.98V40.62C158.666 40.74 158.646 40.96 158.606 41.28C158.606 41.64 158.586 42 158.546 42.36C158.506 42.76 158.466 43.12 158.426 43.44C158.386 43.8 158.346 44.04 158.306 44.16C158.306 44.28 158.246 44.46 158.126 44.7C158.046 44.94 157.966 45.06 157.886 45.06C157.886 45.1 157.866 45.14 157.826 45.18V45.24H157.766H157.646C157.606 45.24 157.586 45.18 157.586 45.06C157.586 44.98 157.546 44.72 157.466 44.28C157.386 43.84 157.346 43.56 157.346 43.44C157.266 43.28 157.186 42.96 157.106 42.48C157.026 42 156.986 41.68 156.986 41.52H156.266C156.186 41.52 156.066 41.48 155.906 41.4C155.786 41.32 155.726 41.24 155.726 41.16C155.646 41.16 155.566 41.02 155.486 40.74C155.446 40.5 155.406 40.32 155.366 40.2C155.286 40.04 155.206 39.74 155.126 39.3C155.086 38.9 155.066 38.66 155.066 38.58C155.026 38.42 154.986 38.1 154.946 37.62C154.906 37.14 154.866 36.62 154.826 36.06C154.826 35.5 154.806 34.98 154.766 34.5C154.726 33.98 154.686 33.62 154.646 33.42C154.646 33.14 154.626 32.46 154.586 31.38C154.546 30.3 154.506 29.14 154.466 27.9C154.466 26.66 154.446 25.5 154.406 24.42C154.366 23.34 154.346 22.66 154.346 22.38C154.346 22.26 154.326 22.04 154.286 21.72C154.286 21.4 154.266 21.08 154.226 20.76C154.186 20.44 154.146 20.12 154.106 19.8C154.106 19.48 154.106 19.26 154.106 19.14H153.266H152.486C152.286 19.14 151.926 19.18 151.406 19.26C150.926 19.34 150.626 19.38 150.506 19.38C150.506 19.46 150.446 19.54 150.326 19.62C150.246 19.7 150.206 19.78 150.206 19.86C150.166 20.1 150.126 20.52 150.086 21.12C150.046 21.72 150.006 22.38 149.966 23.1C149.966 23.78 149.946 24.44 149.906 25.08C149.866 25.68 149.826 26.1 149.786 26.34C149.786 26.42 149.766 26.64 149.726 27C149.686 27.36 149.646 27.78 149.606 28.26C149.606 28.7 149.586 29.14 149.546 29.58C149.506 29.98 149.486 30.28 149.486 30.48C149.486 30.6 149.466 30.82 149.426 31.14C149.426 31.46 149.406 31.8 149.366 32.16C149.326 32.52 149.286 32.86 149.246 33.18C149.246 33.46 149.246 33.64 149.246 33.72C149.206 33.84 149.166 34.02 149.126 34.26C149.086 34.46 149.046 34.68 149.006 34.92C149.006 35.16 148.986 35.4 148.946 35.64C148.906 35.84 148.886 35.98 148.886 36.06C148.886 35.9 148.826 35.58 148.706 35.1C148.626 34.62 148.586 34.3 148.586 34.14V33.36V32.52C148.586 32.32 148.606 31.88 148.646 31.2C148.686 30.48 148.706 29.72 148.706 28.92C148.746 28.08 148.786 27.32 148.826 26.64C148.866 25.96 148.886 25.52 148.886 25.32V19.86H148.406C148.406 19.94 148.406 20.08 148.406 20.28C148.446 20.48 148.466 20.7 148.466 20.94C148.506 21.18 148.526 21.42 148.526 21.66C148.566 21.86 148.586 22 148.586 22.08C148.506 22.24 148.426 22.52 148.346 22.92C148.306 23.32 148.246 23.58 148.166 23.7H148.046H147.866C147.826 23.66 147.746 23.56 147.626 23.4C147.546 23.24 147.506 23.14 147.506 23.1C147.506 22.98 147.506 22.78 147.506 22.5C147.546 22.22 147.566 21.94 147.566 21.66C147.566 21.34 147.566 21.06 147.566 20.82C147.606 20.54 147.626 20.34 147.626 20.22C147.546 20.22 147.306 20.2 146.906 20.16C146.546 20.12 146.326 20.1 146.246 20.1C146.126 20.1 145.906 20.16 145.586 20.28C145.266 20.36 145.046 20.42 144.926 20.46V21.48V22.38C144.966 22.5 145.006 22.8 145.046 23.28C145.126 23.72 145.206 24.24 145.286 24.84C145.366 25.44 145.426 26.04 145.466 26.64C145.546 27.2 145.606 27.64 145.646 27.96C145.646 28.12 145.666 28.42 145.706 28.86C145.786 29.26 145.866 29.7 145.946 30.18C146.026 30.66 146.086 31.14 146.126 31.62C146.206 32.06 146.246 32.36 146.246 32.52C146.246 32.6 146.266 32.82 146.306 33.18C146.386 33.5 146.466 33.86 146.546 34.26C146.626 34.62 146.706 34.98 146.786 35.34C146.866 35.7 146.926 35.94 146.966 36.06V36.66V37.38C146.926 37.42 146.886 37.48 146.846 37.56C146.806 37.64 146.746 37.72 146.666 37.8C146.626 37.84 146.586 37.88 146.546 37.92C146.466 38.08 146.346 38.28 146.186 38.52C146.066 38.76 145.966 38.92 145.886 39C145.846 39.08 145.726 39.2 145.526 39.36C145.366 39.56 145.186 39.76 144.986 39.96C144.786 40.16 144.586 40.34 144.386 40.5C144.186 40.7 144.066 40.84 144.026 40.92V55.5L143.726 56.1C143.646 55.98 143.546 55.72 143.426 55.32C143.346 54.92 143.306 54.64 143.306 54.48C143.306 54.36 143.286 54.14 143.246 53.82C143.206 53.5 143.166 53.16 143.126 52.8C143.126 52.48 143.106 52.16 143.066 51.84C143.026 51.56 143.006 51.36 143.006 51.24C143.006 50.84 142.986 50.14 142.946 49.14C142.906 48.18 142.866 47.16 142.826 46.08C142.826 45 142.806 43.96 142.766 42.96C142.726 42 142.686 41.32 142.646 40.92ZM170.522 38.58C170.362 38.58 170.042 38.5 169.562 38.34C169.082 38.14 168.762 38.04 168.602 38.04C168.522 38 168.362 37.92 168.122 37.8C167.922 37.68 167.682 37.56 167.402 37.44C167.122 37.28 166.842 37.14 166.562 37.02C166.322 36.9 166.162 36.8 166.082 36.72C165.962 36.64 165.762 36.52 165.482 36.36C165.242 36.2 165.082 36.08 165.002 36C164.882 35.92 164.682 35.74 164.402 35.46C164.162 35.18 163.882 34.88 163.562 34.56C163.282 34.24 163.002 33.94 162.722 33.66C162.442 33.34 162.242 33.12 162.122 33C162.082 33 161.982 32.9 161.822 32.7C161.662 32.46 161.562 32.26 161.522 32.1C161.442 31.98 161.342 31.8 161.222 31.56C161.102 31.32 160.962 31.08 160.802 30.84C160.682 30.56 160.562 30.3 160.442 30.06C160.322 29.82 160.222 29.64 160.142 29.52C160.142 29.44 160.102 29.28 160.022 29.04C159.942 28.8 159.902 28.66 159.902 28.62V26.16V24C159.902 23.96 159.922 23.86 159.962 23.7C160.002 23.54 160.042 23.36 160.082 23.16C160.162 22.96 160.222 22.76 160.262 22.56C160.342 22.36 160.422 22.22 160.502 22.14C160.502 22.06 160.542 21.94 160.622 21.78C160.742 21.62 160.802 21.5 160.802 21.42C160.842 21.34 160.922 21.2 161.042 21C161.202 20.76 161.362 20.54 161.522 20.34C161.682 20.1 161.822 19.9 161.942 19.74C162.062 19.58 162.122 19.5 162.122 19.5C162.162 19.46 162.262 19.36 162.422 19.2C162.622 19 162.822 18.8 163.022 18.6C163.222 18.36 163.422 18.14 163.622 17.94C163.822 17.74 163.962 17.6 164.042 17.52C164.162 17.44 164.382 17.28 164.702 17.04C165.022 16.8 165.242 16.64 165.362 16.56C165.482 16.48 165.662 16.38 165.902 16.26C166.142 16.1 166.402 15.96 166.682 15.84C166.962 15.68 167.222 15.54 167.462 15.42C167.702 15.3 167.882 15.22 168.002 15.18C168.122 15.18 168.342 15.14 168.662 15.06C168.982 14.98 169.202 14.94 169.322 14.94H171.242H173.222C173.302 14.94 173.482 14.98 173.762 15.06C174.082 15.14 174.322 15.18 174.482 15.18C174.522 15.18 174.622 15.24 174.782 15.36C174.942 15.48 175.042 15.58 175.082 15.66C175.242 15.7 175.442 15.84 175.682 16.08C175.962 16.32 176.102 16.48 176.102 16.56C176.102 16.6 176.122 16.7 176.162 16.86C176.202 17.02 176.222 17.2 176.222 17.4C176.262 17.56 176.302 17.72 176.342 17.88C176.382 18.04 176.422 18.14 176.462 18.18C176.502 18.26 176.582 18.42 176.702 18.66C176.862 18.86 177.022 19.1 177.182 19.38C177.382 19.62 177.562 19.86 177.722 20.1C177.882 20.3 178.002 20.44 178.082 20.52C178.162 20.56 178.322 20.8 178.562 21.24C178.802 21.68 178.962 21.98 179.042 22.14C179.202 22.42 179.422 22.88 179.702 23.52C179.982 24.12 180.162 24.5 180.242 24.66C180.322 24.78 180.462 25.1 180.662 25.62C180.862 26.1 180.962 26.4 180.962 26.52C181.002 26.76 181.062 27.08 181.142 27.48C181.262 27.88 181.322 28.1 181.322 28.14V29.4V30.48C181.322 30.56 181.262 30.76 181.142 31.08C181.062 31.36 181.002 31.62 180.962 31.86C180.962 31.9 180.902 32.04 180.782 32.28C180.702 32.52 180.662 32.68 180.662 32.76C180.662 32.84 180.602 32.96 180.482 33.12C180.402 33.28 180.322 33.4 180.242 33.48C180.242 33.52 180.162 33.66 180.002 33.9C179.882 34.14 179.782 34.3 179.702 34.38C179.542 34.5 179.342 34.72 179.102 35.04C178.862 35.36 178.702 35.58 178.622 35.7L178.322 36C178.282 36.08 178.082 36.24 177.722 36.48C177.362 36.72 177.122 36.88 177.002 36.96C176.922 37.04 176.762 37.18 176.522 37.38C176.282 37.54 176.142 37.62 176.102 37.62C176.022 37.7 175.782 37.82 175.382 37.98C175.022 38.14 174.842 38.26 174.842 38.34C174.682 38.38 174.522 38.58 174.362 38.94C174.242 39.3 174.182 39.54 174.182 39.66H174.002H173.762C173.762 39.58 173.662 39.4 173.462 39.12C173.302 38.84 173.222 38.66 173.222 38.58H173.102H172.862C172.782 38.66 172.642 38.74 172.442 38.82C172.242 38.86 172.142 38.9 172.142 38.94L171.602 44.82L171.482 44.88H171.302C171.262 44.88 171.242 44.86 171.242 44.82C171.242 44.74 171.182 44.56 171.062 44.28C170.982 44.04 170.942 43.88 170.942 43.8C170.902 43.6 170.842 43.26 170.762 42.78C170.722 42.3 170.682 41.78 170.642 41.22C170.602 40.66 170.562 40.12 170.522 39.6C170.522 39.12 170.522 38.78 170.522 38.58ZM164.762 24.36C164.762 24.44 164.802 24.66 164.882 25.02C164.962 25.34 165.002 25.54 165.002 25.62C165.082 25.7 165.182 25.88 165.302 26.16C165.422 26.4 165.542 26.66 165.662 26.94C165.822 27.22 165.962 27.48 166.082 27.72C166.202 27.96 166.302 28.1 166.382 28.14C166.422 28.3 166.562 28.54 166.802 28.86C167.042 29.14 167.202 29.36 167.282 29.52C167.402 29.6 167.622 29.82 167.942 30.18C168.262 30.5 168.482 30.72 168.602 30.84C168.762 30.92 168.982 31.1 169.262 31.38C169.582 31.62 169.822 31.78 169.982 31.86C170.022 31.86 170.142 31.92 170.342 32.04C170.582 32.16 170.842 32.3 171.122 32.46C171.402 32.58 171.682 32.7 171.962 32.82C172.242 32.94 172.442 33 172.562 33C172.642 33.08 172.802 33.18 173.042 33.3C173.282 33.42 173.422 33.48 173.462 33.48C173.582 33.48 173.782 33.48 174.062 33.48C174.342 33.48 174.622 33.5 174.902 33.54C175.222 33.54 175.502 33.54 175.742 33.54C176.022 33.54 176.222 33.54 176.342 33.54C176.342 33.42 176.322 33.22 176.282 32.94C176.282 32.62 176.262 32.3 176.222 31.98C176.222 31.62 176.202 31.3 176.162 31.02C176.122 30.74 176.102 30.56 176.102 30.48C176.102 30.44 176.062 30.34 175.982 30.18C175.942 30.02 175.882 29.84 175.802 29.64C175.762 29.44 175.682 29.24 175.562 29.04C175.482 28.84 175.422 28.7 175.382 28.62C175.342 28.54 175.262 28.38 175.142 28.14C175.062 27.9 174.962 27.64 174.842 27.36C174.722 27.08 174.602 26.82 174.482 26.58C174.362 26.3 174.262 26.1 174.182 25.98C174.102 25.86 173.942 25.58 173.702 25.14C173.462 24.7 173.302 24.44 173.222 24.36C173.142 24.24 172.962 24.02 172.682 23.7C172.442 23.34 172.262 23.12 172.142 23.04C172.142 22.96 172.042 22.86 171.842 22.74C171.682 22.58 171.602 22.46 171.602 22.38C171.522 22.58 171.442 23 171.362 23.64C171.322 24.28 171.282 24.7 171.242 24.9C171.242 25.06 171.182 25.32 171.062 25.68C170.982 26 170.942 26.2 170.942 26.28H170.762H170.522C170.522 26.2 170.462 26.04 170.342 25.8C170.262 25.56 170.222 25.42 170.222 25.38C170.222 25.26 170.202 25.02 170.162 24.66C170.122 24.3 170.082 23.92 170.042 23.52C170.042 23.12 170.022 22.74 169.982 22.38C169.982 22.02 169.982 21.78 169.982 21.66C169.902 21.62 169.822 21.48 169.742 21.24C169.702 21 169.662 20.84 169.622 20.76L169.322 20.52L169.142 20.34C169.142 20.34 169.102 20.38 169.022 20.46C168.982 20.5 168.942 20.52 168.902 20.52C168.782 20.64 168.642 20.74 168.482 20.82C168.402 20.86 168.322 20.9 168.242 20.94C168.202 20.94 168.162 20.96 168.122 21C168.042 21.04 168.002 21.08 168.002 21.12C167.922 21.12 167.802 21.18 167.642 21.3C167.482 21.38 167.362 21.42 167.282 21.42H166.922H166.382L166.082 21.12C166.002 21.08 165.922 20.98 165.842 20.82C165.802 20.62 165.742 20.52 165.662 20.52C165.582 20.52 165.462 20.62 165.302 20.82C165.182 20.98 165.082 21.08 165.002 21.12C164.962 21.24 164.922 21.38 164.882 21.54C164.802 21.86 164.762 22.06 164.762 22.14V23.22V24.36ZM187.119 39H186.699C186.619 39 186.499 39.04 186.339 39.12C186.219 39.2 186.119 39.28 186.039 39.36C186.039 39.44 185.999 39.64 185.919 39.96C185.839 40.32 185.799 40.54 185.799 40.62C185.799 40.66 185.739 40.76 185.619 40.92C185.539 41.08 185.499 41.18 185.499 41.22C185.419 41.18 185.319 41.08 185.199 40.92C185.119 40.76 185.079 40.66 185.079 40.62C185.079 40.58 185.059 40.46 185.019 40.26C185.019 40.1 184.999 39.92 184.959 39.72C184.959 39.56 184.939 39.4 184.899 39.24C184.859 39.08 184.819 39 184.779 39C184.739 38.92 184.579 38.8 184.299 38.64C184.019 38.48 183.879 38.36 183.879 38.28C183.759 38.2 183.519 38 183.159 37.68C182.799 37.36 182.599 37.16 182.559 37.08C182.559 37 182.459 36.8 182.259 36.48C182.059 36.12 181.919 35.88 181.839 35.76C181.839 35.68 181.779 35.52 181.659 35.28C181.579 35 181.539 34.82 181.539 34.74C181.499 34.62 181.439 34.4 181.359 34.08C181.319 33.72 181.259 33.5 181.179 33.42C181.179 33.26 181.139 32.94 181.059 32.46C180.979 31.98 180.939 31.66 180.939 31.5V26.64V21.78C180.939 21.66 180.939 21.36 180.939 20.88C180.979 20.4 181.019 19.9 181.059 19.38C181.099 18.82 181.119 18.3 181.119 17.82C181.159 17.34 181.179 17.04 181.179 16.92V13.98C181.259 13.9 181.439 13.62 181.719 13.14C182.039 12.66 182.319 12.3 182.559 12.06C182.559 12.02 182.639 11.92 182.799 11.76C182.999 11.6 183.119 11.5 183.159 11.46C183.239 11.38 183.399 11.26 183.639 11.1C183.919 10.94 184.099 10.82 184.179 10.74C184.179 10.74 184.279 10.68 184.479 10.56C184.559 10.52 184.659 10.48 184.779 10.44H185.019C185.099 10.44 185.159 10.44 185.199 10.44C185.239 10.4 185.279 10.38 185.319 10.38C185.359 10.38 185.399 10.4 185.439 10.44C185.479 10.44 185.539 10.44 185.619 10.44H185.799C185.839 10.44 185.939 10.52 186.099 10.68C186.299 10.84 186.399 10.94 186.399 10.98V11.52V12.36C186.399 12.48 186.379 12.74 186.339 13.14C186.299 13.5 186.259 13.9 186.219 14.34C186.179 14.78 186.139 15.2 186.099 15.6C186.059 15.96 186.039 16.2 186.039 16.32V22.86V29.52C186.119 29.68 186.179 29.94 186.219 30.3C186.299 30.62 186.359 30.82 186.399 30.9C186.399 30.94 186.439 31.08 186.519 31.32C186.639 31.56 186.699 31.72 186.699 31.8C186.779 31.88 186.839 32.02 186.879 32.22C186.959 32.42 187.039 32.52 187.119 32.52C187.279 32.64 187.499 32.88 187.779 33.24C188.059 33.56 188.239 33.76 188.319 33.84H188.859H189.279C189.439 33.84 189.559 33.7 189.639 33.42C189.719 33.34 189.839 33.18 189.999 32.94C190.159 32.7 190.279 32.56 190.359 32.52C190.439 32.28 190.639 31.84 190.959 31.2C191.279 30.56 191.479 30.12 191.559 29.88C191.679 29.68 191.819 29.38 191.979 28.98C192.179 28.58 192.279 28.34 192.279 28.26V27.48V26.64C192.279 26.56 192.239 26.34 192.159 25.98C192.119 25.62 192.059 25.24 191.979 24.84C191.899 24.44 191.819 24.06 191.739 23.7C191.659 23.34 191.599 23.12 191.559 23.04C191.559 22.92 191.539 22.72 191.499 22.44C191.459 22.16 191.419 21.9 191.379 21.66C191.379 21.38 191.359 21.14 191.319 20.94C191.279 20.7 191.259 20.54 191.259 20.46V18V15.6C191.259 15.44 191.359 15.22 191.559 14.94C191.759 14.62 191.899 14.38 191.979 14.22C192.019 14.22 192.119 14.14 192.279 13.98C192.439 13.82 192.619 13.64 192.819 13.44C193.019 13.24 193.219 13.04 193.419 12.84C193.619 12.64 193.779 12.48 193.899 12.36C193.939 12.36 194.039 12.32 194.199 12.24C194.359 12.12 194.459 12.06 194.499 12.06H194.799C194.879 12.06 194.939 12.06 194.979 12.06C195.059 12.02 195.139 12 195.219 12C195.299 12 195.399 12.02 195.519 12.06C195.679 12.06 195.799 12.06 195.879 12.06L195.999 12.18C196.039 12.22 196.059 12.26 196.059 12.3C196.059 12.3 196.079 12.32 196.119 12.36C196.119 12.44 196.159 12.56 196.239 12.72C196.359 12.88 196.419 13 196.419 13.08C196.539 13.2 196.679 13.48 196.839 13.92C197.039 14.36 197.139 14.62 197.139 14.7C197.139 14.78 197.159 14.94 197.199 15.18C197.279 15.38 197.359 15.62 197.439 15.9C197.519 16.18 197.579 16.46 197.619 16.74C197.699 16.98 197.739 17.14 197.739 17.22C197.739 17.34 197.759 17.52 197.799 17.76C197.839 17.96 197.859 18.18 197.859 18.42C197.899 18.66 197.939 18.9 197.979 19.14C198.019 19.34 198.039 19.48 198.039 19.56C198.039 19.68 198.059 19.82 198.099 19.98C198.179 20.3 198.219 20.52 198.219 20.64C198.219 20.76 198.179 20.98 198.099 21.3C198.059 21.58 198.039 21.74 198.039 21.78C198.039 21.86 198.019 22.04 197.979 22.32C197.939 22.56 197.899 22.82 197.859 23.1C197.859 23.38 197.839 23.66 197.799 23.94C197.759 24.18 197.739 24.34 197.739 24.42V24.78V25.02C197.819 25.26 197.939 25.7 198.099 26.34C198.259 26.98 198.379 27.42 198.459 27.66C198.499 27.82 198.599 28.16 198.759 28.68C198.919 29.2 199.099 29.76 199.299 30.36C199.499 30.96 199.699 31.56 199.899 32.16C200.099 32.72 200.259 33.14 200.379 33.42C200.419 33.62 200.519 33.92 200.679 34.32C200.839 34.72 200.939 34.96 200.979 35.04C201.059 35.12 201.179 35.3 201.339 35.58C201.499 35.86 201.619 36.04 201.699 36.12L201.879 36.48C201.919 36.56 201.959 36.62 201.999 36.66V37.2V37.74C201.999 37.82 201.939 37.98 201.819 38.22C201.739 38.46 201.699 38.62 201.699 38.7C201.619 38.78 201.479 38.92 201.279 39.12C201.079 39.36 200.859 39.6 200.619 39.84C200.379 40.08 200.139 40.3 199.899 40.5C199.659 40.74 199.479 40.9 199.359 40.98C199.199 41.02 199.059 41.06 198.939 41.1C198.619 41.18 198.459 41.22 198.459 41.22H198.039H197.739C197.699 41.22 197.599 41.18 197.439 41.1C197.279 41.02 197.179 40.98 197.139 40.98C197.139 40.9 197.039 40.68 196.839 40.32C196.639 40 196.499 39.76 196.419 39.6C196.379 39.56 196.299 39.4 196.179 39.12C196.099 38.84 195.999 38.52 195.879 38.16C195.759 37.8 195.639 37.46 195.519 37.14C195.399 36.82 195.299 36.56 195.219 36.36C195.179 36.32 195.099 36.18 194.979 35.94C194.899 35.66 194.799 35.38 194.679 35.1C194.559 34.82 194.459 34.56 194.379 34.32C194.299 34.08 194.259 33.92 194.259 33.84C194.179 33.76 194.099 33.7 194.019 33.66C193.979 33.58 193.939 33.5 193.899 33.42C193.899 33.5 193.839 33.58 193.719 33.66C193.639 33.7 193.599 33.76 193.599 33.84C193.559 33.88 193.459 34 193.299 34.2C193.139 34.36 192.959 34.56 192.759 34.8C192.599 35 192.439 35.2 192.279 35.4C192.119 35.6 192.019 35.72 191.979 35.76C191.899 35.8 191.739 35.94 191.499 36.18C191.259 36.42 191.099 36.58 191.019 36.66C190.939 36.7 190.819 36.8 190.659 36.96C190.499 37.08 190.319 37.22 190.119 37.38C189.959 37.54 189.799 37.68 189.639 37.8C189.479 37.92 189.359 37.98 189.279 37.98L189.039 38.28C189.039 38.48 189.019 38.82 188.979 39.3C188.939 39.82 188.899 40.36 188.859 40.92C188.859 41.48 188.839 42 188.799 42.48C188.759 43 188.739 43.36 188.739 43.56C188.659 43.64 188.579 43.8 188.499 44.04C188.459 44.28 188.399 44.42 188.319 44.46C188.319 44.42 188.259 44.28 188.139 44.04C188.059 43.8 188.019 43.64 188.019 43.56C188.019 43.4 187.979 43.08 187.899 42.6C187.859 42.16 187.799 41.7 187.719 41.22C187.639 40.74 187.559 40.28 187.479 39.84C187.439 39.44 187.419 39.16 187.419 39H187.119ZM217.376 39.78C217.296 39.78 217.236 39.76 217.196 39.72C217.156 39.72 217.096 39.72 217.016 39.72H216.836C216.836 39.8 216.796 39.84 216.716 39.84C216.636 39.84 216.596 39.86 216.596 39.9C216.476 40.06 216.296 40.36 216.056 40.8C215.856 41.28 215.736 41.6 215.696 41.76C215.696 41.68 215.696 41.54 215.696 41.34C215.736 41.14 215.756 41 215.756 40.92C215.716 40.88 215.676 40.64 215.636 40.2C215.596 39.76 215.576 39.46 215.576 39.3C215.456 39.3 215.236 39.24 214.916 39.12C214.636 39 214.336 38.88 214.016 38.76C213.696 38.64 213.376 38.52 213.056 38.4C212.736 38.28 212.516 38.22 212.396 38.22C212.276 38.18 212.096 38.1 211.856 37.98C211.616 37.82 211.356 37.66 211.076 37.5C210.796 37.3 210.536 37.12 210.296 36.96C210.096 36.8 209.956 36.68 209.876 36.6C209.796 36.6 209.676 36.56 209.516 36.48C209.356 36.36 209.176 36.22 208.976 36.06C208.776 35.9 208.576 35.76 208.376 35.64C208.216 35.52 208.096 35.42 208.016 35.34C207.896 35.26 207.776 35.16 207.656 35.04L207.116 34.5C206.996 34.34 206.816 34.12 206.576 33.84C206.376 33.52 206.236 33.32 206.156 33.24C206.076 33.16 205.896 32.94 205.616 32.58C205.336 32.18 205.156 31.92 205.076 31.8C204.996 31.8 204.916 31.66 204.836 31.38C204.756 31.06 204.696 30.82 204.656 30.66C204.656 30.58 204.596 30.36 204.476 30C204.356 29.6 204.276 29.36 204.236 29.28C204.236 29.16 204.216 28.98 204.176 28.74C204.136 28.46 204.116 28.28 204.116 28.2C204.156 28 204.196 27.82 204.236 27.66C204.276 27.5 204.316 27.36 204.356 27.24C204.396 27.08 204.416 26.96 204.416 26.88C204.416 26.68 204.456 26.42 204.536 26.1L204.656 25.62C204.696 25.54 204.776 25.52 204.896 25.56C205.056 25.6 205.196 25.66 205.316 25.74C205.476 25.78 205.616 25.84 205.736 25.92C205.896 25.96 206.016 25.96 206.096 25.92V25.56C206.016 25.52 205.816 25.44 205.496 25.32C205.216 25.16 204.896 25 204.536 24.84C204.216 24.64 203.896 24.44 203.576 24.24C203.296 24.04 203.136 23.88 203.096 23.76C203.056 23.76 202.896 23.62 202.616 23.34C202.336 23.02 202.156 22.78 202.076 22.62C201.996 22.58 201.896 22.48 201.776 22.32C201.656 22.12 201.596 22 201.596 21.96C201.596 21.88 201.516 21.72 201.356 21.48C201.236 21.2 201.156 21.02 201.116 20.94C201.036 20.74 200.956 20.46 200.876 20.1C200.796 19.7 200.736 19.42 200.696 19.26C199.896 16.86 199.596 14.9 199.796 13.38C199.996 11.86 200.536 10.72 201.416 9.96C202.336 9.16 203.516 8.7 204.956 8.58C206.396 8.46 207.936 8.6 209.576 9C211.256 9.4 212.936 10.02 214.616 10.86C216.336 11.66 217.896 12.62 219.296 13.74C220.736 14.86 221.936 16.1 222.896 17.46C223.896 18.78 224.516 20.14 224.756 21.54C224.716 21.62 224.696 21.68 224.696 21.72V21.78L224.636 21.72C224.556 21.68 224.476 21.62 224.396 21.54C224.316 21.5 224.236 21.46 224.156 21.42C224.076 21.38 223.996 21.38 223.916 21.42C223.916 21.5 223.816 21.76 223.616 22.2C223.416 22.6 223.316 22.84 223.316 22.92C223.236 23 223.096 23.1 222.896 23.22C222.736 23.34 222.616 23.44 222.536 23.52C222.496 23.52 222.336 23.62 222.056 23.82C221.816 23.98 221.656 24.1 221.576 24.18C221.496 24.18 221.416 24.18 221.336 24.18C221.256 24.14 221.156 24.12 221.036 24.12C220.876 24.12 220.736 24.1 220.616 24.06H220.436C220.236 24.06 220.116 24.04 220.076 24H219.716C219.636 24 219.596 23.96 219.596 23.88C219.636 23.76 219.616 23.7 219.536 23.7C219.576 23.62 219.536 23.5 219.416 23.34C219.336 23.14 219.296 23 219.296 22.92C219.296 22.88 219.276 22.74 219.236 22.5C219.196 22.22 219.136 22 219.056 21.84C219.376 21.52 219.556 21.18 219.596 20.82C219.636 20.46 219.596 20.12 219.476 19.8C219.356 19.44 219.176 19.16 218.936 18.96C218.696 18.72 218.476 18.58 218.276 18.54C218.236 18.54 218.036 18.32 217.676 17.88C217.356 17.44 216.996 16.98 216.596 16.5C216.196 15.98 215.816 15.52 215.456 15.12C215.136 14.68 214.956 14.46 214.916 14.46C214.916 14.54 214.896 14.44 214.856 14.16C214.816 13.84 214.776 13.7 214.736 13.74C214.656 13.9 214.576 14.18 214.496 14.58C214.456 14.74 214.436 14.9 214.436 15.06C214.396 15.38 214.316 15.86 214.196 16.5C214.076 17.14 213.936 17.82 213.776 18.54C213.656 19.26 213.536 19.94 213.416 20.58C213.296 21.22 213.236 21.68 213.236 21.96C213.676 22.4 214.236 22.8 214.916 23.16C215.596 23.48 216.196 23.8 216.716 24.12C216.796 24.12 217.036 24.18 217.436 24.3C217.876 24.42 218.336 24.56 218.816 24.72C219.336 24.84 219.816 25 220.256 25.2C220.696 25.36 220.976 25.52 221.096 25.68C221.176 25.76 221.316 25.88 221.516 26.04C221.716 26.16 221.936 26.28 222.176 26.4C222.416 26.52 222.616 26.64 222.776 26.76C222.976 26.88 223.116 26.94 223.196 26.94C223.356 27.14 223.656 27.4 224.096 27.72C224.576 28 224.876 28.22 224.996 28.38C225.036 28.42 225.156 28.52 225.356 28.68C225.556 28.84 225.756 29.02 225.956 29.22C226.156 29.38 226.336 29.54 226.496 29.7C226.696 29.86 226.836 29.96 226.916 30C226.996 30.08 227.116 30.22 227.276 30.42C227.436 30.58 227.596 30.76 227.756 30.96C227.956 31.16 228.136 31.34 228.296 31.5C228.456 31.66 228.576 31.74 228.656 31.74C228.696 31.82 228.876 32.12 229.196 32.64C229.556 33.12 229.816 33.46 229.976 33.66C229.976 33.74 229.996 33.86 230.036 34.02C230.076 34.18 230.096 34.3 230.096 34.38C230.056 34.5 230.016 34.6 229.976 34.68C229.896 34.92 229.856 35.06 229.856 35.1C229.816 35.18 229.796 35.32 229.796 35.52C229.796 35.72 229.776 35.86 229.736 35.94C229.736 36.02 229.676 36.16 229.556 36.36C229.436 36.56 229.356 36.68 229.316 36.72C229.236 36.8 229.056 36.96 228.776 37.2C228.536 37.4 228.416 37.54 228.416 37.62C228.296 37.74 228.016 37.96 227.576 38.28C227.136 38.56 226.836 38.78 226.676 38.94C226.556 39.02 226.336 39.1 226.016 39.18C225.736 39.26 225.516 39.32 225.356 39.36C225.236 39.44 224.996 39.5 224.636 39.54C224.316 39.62 224.116 39.7 224.036 39.78C223.836 39.86 223.476 39.92 222.956 39.96C222.436 40.04 222.116 40.1 221.996 40.14C221.876 40.1 221.656 40.08 221.336 40.08C221.056 40.08 220.736 40.08 220.376 40.08C220.056 40.08 219.736 40.08 219.416 40.08C219.096 40.08 218.876 40.08 218.756 40.08L218.336 47.58H218.096C218.096 47.54 218.076 47.42 218.036 47.22C218.036 47.06 218.036 46.88 218.036 46.68C218.036 46.48 218.056 46.28 218.096 46.08C218.136 45.92 218.196 45.82 218.276 45.78C218.236 45.54 218.176 45.14 218.096 44.58C218.016 44.02 217.936 43.42 217.856 42.78C217.776 42.14 217.716 41.54 217.676 40.98C217.636 40.42 217.656 40.02 217.736 39.78H217.376ZM209.936 25.98C209.936 26.06 209.896 26.14 209.816 26.22L209.696 26.34C209.776 26.5 209.856 26.76 209.936 27.12C210.016 27.44 210.076 27.64 210.116 27.72C210.196 27.84 210.316 28.02 210.476 28.26C210.636 28.5 210.816 28.76 211.016 29.04C211.216 29.32 211.396 29.58 211.556 29.82C211.756 30.02 211.916 30.18 212.036 30.3C212.036 30.38 212.136 30.56 212.336 30.84C212.576 31.12 212.736 31.3 212.816 31.38C212.936 31.46 213.216 31.64 213.656 31.92C214.096 32.2 214.376 32.44 214.496 32.64C214.616 32.68 214.856 32.84 215.216 33.12C215.616 33.4 215.896 33.54 216.056 33.54C216.176 33.62 216.316 33.7 216.476 33.78C216.796 33.94 217.016 34.02 217.136 34.02C217.376 34.22 217.696 34.38 218.096 34.5C218.296 34.58 218.516 34.64 218.756 34.68C218.796 34.68 218.916 34.72 219.116 34.8C219.356 34.84 219.616 34.9 219.896 34.98C220.176 35.02 220.456 35.08 220.736 35.16C221.016 35.2 221.216 35.22 221.336 35.22C221.416 35.22 221.536 35.24 221.696 35.28C221.896 35.32 222.096 35.36 222.296 35.4C222.496 35.48 222.716 35.54 222.956 35.58L223.316 35.28C223.236 35.24 223.176 35.2 223.136 35.16L222.956 34.98C222.836 34.86 222.716 34.72 222.596 34.56C222.516 34.48 222.416 34.4 222.296 34.32C222.216 34.2 222.136 34.12 222.056 34.08C221.936 33.96 221.716 33.76 221.396 33.48C221.076 33.16 220.876 32.96 220.796 32.88C220.716 32.84 220.536 32.72 220.256 32.52C219.976 32.28 219.676 32.04 219.356 31.8C219.036 31.56 218.716 31.32 218.396 31.08C218.116 30.84 217.916 30.66 217.796 30.54C217.756 30.54 217.656 30.5 217.496 30.42C217.376 30.3 217.216 30.18 217.016 30.06C216.816 29.9 216.596 29.76 216.356 29.64C216.156 29.48 215.996 29.38 215.876 29.34C215.716 29.26 215.436 29.06 215.036 28.74C214.636 28.42 214.416 28.26 214.376 28.26C214.176 28.18 213.876 28.04 213.476 27.84C213.076 27.6 212.636 27.36 212.156 27.12C211.716 26.84 211.276 26.58 210.836 26.34C210.436 26.1 210.136 25.9 209.936 25.74V25.98ZM206.516 15.18C206.476 15.3 206.416 15.54 206.336 15.9C206.256 16.26 206.216 16.46 206.216 16.5C206.176 16.58 206.216 16.8 206.336 17.16C206.456 17.48 206.556 17.72 206.636 17.88C206.716 18.2 206.916 18.48 207.236 18.72C207.596 18.92 207.836 19.06 207.956 19.14C207.996 19.18 208.096 19.28 208.256 19.44C208.456 19.56 208.676 19.72 208.916 19.92C209.156 20.08 209.376 20.26 209.576 20.46C209.816 20.62 209.976 20.74 210.056 20.82C210.416 20.9 210.756 21.12 211.076 21.48C211.396 21.84 211.816 22.08 212.336 22.2C212.336 22.04 212.356 21.9 212.396 21.78C212.476 21.66 212.516 21.52 212.516 21.36C212.556 20.88 212.636 20.26 212.756 19.5C212.876 18.7 212.996 17.92 213.116 17.16C213.236 16.36 213.356 15.66 213.476 15.06C213.596 14.46 213.656 14.12 213.656 14.04C213.656 13.92 213.656 13.78 213.656 13.62C213.656 13.42 213.616 13.32 213.536 13.32C213.496 13.32 213.416 13.48 213.296 13.8C213.216 14.12 213.096 14.72 212.936 15.6L212.576 15.96C212.576 15.88 212.536 15.72 212.456 15.48C212.416 15.2 212.396 15.04 212.396 15C212.396 14.84 212.416 14.76 212.456 14.76C212.496 14.72 212.516 14.64 212.516 14.52C212.876 14.32 212.976 14.12 212.816 13.92C212.696 13.68 212.416 13.48 211.976 13.32C211.536 13.12 210.996 13 210.356 12.96C209.716 12.92 209.116 12.96 208.556 13.08C207.996 13.16 207.516 13.38 207.116 13.74C206.716 14.06 206.516 14.54 206.516 15.18ZM241.853 40.8C241.853 40.96 241.793 41.32 241.673 41.88C241.593 42.48 241.513 42.88 241.433 43.08L241.133 43.62L240.593 43.32V39.48C240.513 39.44 240.333 39.38 240.053 39.3C239.813 39.26 239.553 39.2 239.273 39.12C238.993 39.04 238.713 38.98 238.433 38.94C238.193 38.86 238.013 38.8 237.893 38.76C237.813 38.76 237.673 38.74 237.473 38.7C237.313 38.62 237.133 38.54 236.933 38.46C236.733 38.38 236.533 38.32 236.333 38.28C236.133 38.2 235.993 38.14 235.913 38.1C235.833 38.1 235.633 38.04 235.312 37.92C235.033 37.76 234.813 37.64 234.653 37.56C234.613 37.48 234.473 37.36 234.233 37.2C233.993 37.04 233.833 36.92 233.753 36.84C233.633 36.72 233.393 36.54 233.033 36.3C232.673 36.06 232.473 35.94 232.433 35.94C232.353 35.82 232.133 35.58 231.772 35.22C231.453 34.86 231.213 34.66 231.053 34.62C231.053 34.54 230.913 34.34 230.633 34.02C230.393 33.7 230.213 33.44 230.093 33.24C230.013 33.16 229.893 33 229.733 32.76C229.613 32.52 229.513 32.36 229.433 32.28C229.393 32.2 229.313 32.08 229.193 31.92C229.113 31.72 229.033 31.52 228.953 31.32C228.873 31.08 228.773 30.88 228.653 30.72C228.573 30.52 228.513 30.4 228.473 30.36C228.393 30.24 228.273 29.94 228.113 29.46C227.993 28.94 227.893 28.58 227.812 28.38C227.812 28.26 227.772 27.96 227.692 27.48C227.612 26.96 227.572 26.64 227.572 26.52V24.9V23.28C227.572 23.2 227.612 22.94 227.692 22.5C227.772 22.06 227.812 21.78 227.812 21.66C227.893 21.42 227.993 21.06 228.113 20.58C228.273 20.06 228.393 19.72 228.473 19.56C228.513 19.56 228.573 19.48 228.653 19.32C228.773 19.16 228.873 18.98 228.953 18.78C229.033 18.58 229.113 18.38 229.193 18.18C229.313 17.98 229.393 17.82 229.433 17.7C229.513 17.62 229.613 17.46 229.733 17.22C229.893 16.98 230.013 16.84 230.093 16.8C230.213 16.64 230.393 16.4 230.633 16.08C230.913 15.72 231.053 15.5 231.053 15.42C231.133 15.34 231.293 15.18 231.533 14.94C231.813 14.7 232.013 14.54 232.133 14.46C232.133 14.38 232.293 14.22 232.613 13.98C232.933 13.74 233.173 13.6 233.333 13.56L234.293 12.84C234.493 12.76 234.833 12.6 235.312 12.36C235.833 12.12 236.153 11.98 236.273 11.94C236.353 11.94 236.513 11.88 236.753 11.76C237.033 11.64 237.213 11.54 237.293 11.46C237.493 11.46 237.733 11.42 238.013 11.34C238.333 11.26 238.533 11.22 238.613 11.22H240.353H242.153C242.193 11.22 242.453 11.26 242.933 11.34C243.453 11.42 243.853 11.46 244.133 11.46C244.253 11.54 244.533 11.64 244.973 11.76C245.413 11.88 245.673 11.94 245.753 11.94C245.873 11.94 246.173 12.04 246.653 12.24C247.173 12.4 247.493 12.5 247.613 12.54C247.693 12.58 247.853 12.66 248.093 12.78C248.333 12.9 248.593 13.02 248.873 13.14C249.153 13.26 249.413 13.4 249.653 13.56C249.933 13.68 250.133 13.76 250.253 13.8C250.373 13.88 250.553 14 250.793 14.16C251.033 14.28 251.153 14.38 251.153 14.46C251.273 14.58 251.513 14.8 251.873 15.12C252.233 15.44 252.433 15.66 252.473 15.78C252.553 15.86 252.693 16.08 252.893 16.44C253.093 16.76 253.193 16.96 253.193 17.04V17.94V19.02C253.153 19.14 253.113 19.28 253.073 19.44C253.033 19.56 252.973 19.68 252.893 19.8C252.853 19.88 252.813 19.96 252.773 20.04C252.773 20.08 252.733 20.18 252.653 20.34C252.613 20.5 252.553 20.6 252.473 20.64C252.433 20.72 252.293 20.94 252.053 21.3C251.813 21.62 251.653 21.82 251.573 21.9C251.493 21.98 251.333 22.16 251.093 22.44C250.853 22.72 250.693 22.9 250.613 22.98C250.453 23.06 250.193 23.22 249.833 23.46C249.513 23.7 249.313 23.84 249.233 23.88C249.233 23.92 249.153 24 248.993 24.12C248.833 24.2 248.653 24.3 248.453 24.42C248.253 24.5 248.053 24.6 247.853 24.72C247.653 24.8 247.493 24.86 247.373 24.9C247.293 24.9 247.113 24.94 246.833 25.02C246.593 25.1 246.413 25.14 246.293 25.14C246.133 25.22 245.913 25.3 245.633 25.38C245.353 25.46 245.173 25.5 245.093 25.5C244.973 25.5 244.753 25.52 244.433 25.56C244.113 25.6 243.773 25.64 243.413 25.68C243.053 25.68 242.713 25.7 242.393 25.74C242.113 25.78 241.933 25.8 241.853 25.8H240.233H238.613C238.493 25.8 238.193 25.78 237.713 25.74C237.273 25.7 236.793 25.68 236.273 25.68C235.753 25.64 235.273 25.6 234.833 25.56C234.393 25.52 234.133 25.5 234.053 25.5H233.513H233.033C233.033 25.58 233.073 25.76 233.153 26.04C233.273 26.28 233.333 26.44 233.333 26.52C233.413 26.64 233.573 26.96 233.813 27.48C234.053 27.96 234.213 28.26 234.293 28.38C234.373 28.54 234.493 28.74 234.653 28.98C234.853 29.22 234.953 29.38 234.953 29.46C235.073 29.54 235.253 29.7 235.493 29.94C235.733 30.18 235.993 30.44 236.273 30.72C236.553 31 236.813 31.26 237.053 31.5C237.333 31.74 237.533 31.9 237.653 31.98C237.653 32.06 237.773 32.18 238.013 32.34C238.293 32.5 238.493 32.62 238.613 32.7C238.773 32.78 239.093 32.94 239.573 33.18C240.053 33.42 240.373 33.56 240.533 33.6C240.573 33.6 240.713 33.66 240.953 33.78C241.193 33.86 241.353 33.9 241.433 33.9C241.633 33.98 241.993 34.06 242.513 34.14C243.033 34.18 243.353 34.24 243.473 34.32H244.373H245.393C245.513 34.24 245.733 34.18 246.053 34.14C246.373 34.06 246.593 33.98 246.713 33.9L247.013 33.6V29.76C247.053 29.64 247.093 29.5 247.133 29.34C247.173 29.22 247.213 29.12 247.253 29.04C247.293 28.92 247.333 28.82 247.373 28.74C247.413 28.7 247.433 28.66 247.433 28.62C247.433 28.54 247.453 28.48 247.493 28.44C247.533 28.36 247.573 28.26 247.613 28.14L249.233 26.52C249.313 26.44 249.513 26.32 249.833 26.16C250.193 26 250.453 25.88 250.613 25.8H250.853H251.153C251.233 25.88 251.373 26 251.573 26.16C251.773 26.32 251.873 26.44 251.873 26.52C251.913 26.56 251.953 26.8 251.993 27.24C252.073 27.68 252.153 27.98 252.233 28.14V29.22V30.36C252.153 30.52 252.073 30.8 251.993 31.2C251.953 31.6 251.913 31.86 251.873 31.98C251.873 32.02 251.833 32.14 251.753 32.34C251.673 32.5 251.573 32.68 251.453 32.88C251.373 33.08 251.273 33.28 251.153 33.48C251.033 33.68 250.933 33.82 250.853 33.9C250.813 34.02 250.713 34.22 250.553 34.5C250.393 34.74 250.293 34.86 250.253 34.86C250.173 34.94 250.013 35.1 249.773 35.34C249.573 35.54 249.353 35.76 249.113 36C248.873 36.24 248.633 36.48 248.393 36.72C248.193 36.92 248.033 37.06 247.913 37.14C247.913 37.22 247.793 37.34 247.553 37.5C247.313 37.66 247.133 37.78 247.013 37.86C246.933 37.9 246.713 38 246.353 38.16C246.033 38.32 245.833 38.42 245.753 38.46C245.593 38.46 245.293 38.56 244.853 38.76C244.453 38.96 244.213 39.1 244.133 39.18C244.053 39.18 243.933 39.22 243.773 39.3C243.653 39.42 243.553 39.48 243.473 39.48C243.473 39.72 243.453 40.14 243.413 40.74C243.413 41.34 243.393 41.98 243.353 42.66C243.313 43.38 243.253 44.04 243.173 44.64C243.133 45.28 243.093 45.72 243.053 45.96C243.053 46.08 243.013 46.34 242.933 46.74C242.893 47.14 242.833 47.42 242.753 47.58C242.753 47.62 242.713 47.72 242.633 47.88C242.553 48.04 242.513 48.14 242.513 48.18C242.433 48.06 242.353 47.8 242.273 47.4C242.193 47 242.153 46.72 242.153 46.56C242.153 46.32 242.133 45.92 242.093 45.36C242.053 44.84 242.013 44.26 241.973 43.62C241.973 43.02 241.953 42.44 241.913 41.88C241.873 41.36 241.853 41 241.853 40.8ZM232.673 19.86C232.753 19.86 232.933 19.88 233.213 19.92C233.493 19.92 233.793 19.94 234.113 19.98C234.433 19.98 234.733 20 235.013 20.04C235.333 20.04 235.553 20.04 235.673 20.04L236.153 20.16C236.313 20.2 236.453 20.24 236.573 20.28C236.853 20.36 237.313 20.44 237.953 20.52C238.633 20.6 239.073 20.64 239.273 20.64H243.593H246.713L247.913 20.28C247.833 20.16 247.593 19.9 247.193 19.5C246.793 19.1 246.493 18.82 246.293 18.66C246.253 18.62 246.133 18.54 245.933 18.42C245.733 18.3 245.493 18.18 245.213 18.06C244.933 17.9 244.653 17.76 244.373 17.64C244.133 17.52 243.933 17.44 243.773 17.4C243.733 17.4 243.613 17.38 243.413 17.34C243.253 17.26 243.053 17.18 242.812 17.1C242.613 17.02 242.413 16.96 242.213 16.92C242.053 16.84 241.933 16.8 241.853 16.8C241.653 16.72 241.353 16.62 240.953 16.5C240.553 16.38 240.313 16.32 240.233 16.32H237.833H235.373C235.253 16.4 235.033 16.54 234.713 16.74C234.393 16.94 234.173 17.04 234.053 17.04L233.873 17.22C233.833 17.26 233.813 17.3 233.813 17.34C233.813 17.38 233.793 17.4 233.753 17.4C233.673 17.48 233.553 17.7 233.393 18.06C233.233 18.38 233.113 18.58 233.033 18.66C232.993 18.74 232.933 18.9 232.853 19.14C232.813 19.38 232.753 19.52 232.673 19.56V19.86Z" fill="white"/>
</svg>
