<svg width="225" height="51" viewBox="0 0 225 51" fill="none" xmlns="http://www.w3.org/2000/svg">
<path d="M24.76 48.06C24.6 48.06 24.3 48 23.86 47.88C23.42 47.8 23.18 47.72 23.14 47.64C23.06 47.6 23 47.54 22.96 47.46C22.88 47.3 22.84 47.18 22.84 47.1V46.8V46.74C22.84 46.66 22.88 46.46 22.96 46.14C23 45.98 23.06 45.84 23.14 45.72C23.18 45.64 23.28 45.48 23.44 45.24C23.64 45.04 23.84 44.82 24.04 44.58C24.28 44.38 24.5 44.16 24.7 43.92C24.9 43.72 25.04 43.58 25.12 43.5V42.48C25 42.2 24.8 41.74 24.52 41.1C24.24 40.5 23.94 39.8 23.62 39C23.3 38.2 22.96 37.36 22.6 36.48C22.28 35.64 21.96 34.82 21.64 34.02C21.32 33.22 21.04 32.52 20.8 31.92C20.56 31.28 20.38 30.82 20.26 30.54C20.14 30.22 19.92 29.7 19.6 28.98C19.32 28.22 19.02 27.42 18.7 26.58C18.42 25.74 18.14 24.96 17.86 24.24C17.58 23.52 17.38 23 17.26 22.68V23.88V24.96C17.26 25.16 17.28 25.44 17.32 25.8C17.36 26.12 17.38 26.48 17.38 26.88C17.42 27.24 17.46 27.6 17.5 27.96C17.54 28.28 17.56 28.5 17.56 28.62C17.6 28.7 17.66 28.9 17.74 29.22C17.82 29.5 17.9 29.82 17.98 30.18C18.06 30.54 18.12 30.88 18.16 31.2C18.24 31.52 18.28 31.74 18.28 31.86V32.7V33.48C18.28 33.56 18.18 33.82 17.98 34.26C17.78 34.7 17.64 34.98 17.56 35.1C17.56 35.18 17.5 35.44 17.38 35.88C17.3 36.32 17.26 36.6 17.26 36.72L17.02 37.02C16.94 36.94 16.82 36.82 16.66 36.66C16.54 36.5 16.44 36.38 16.36 36.3H16.12H15.94L15.4 40.26C15.32 40.18 15.24 40.06 15.16 39.9C15.08 39.74 15.04 39.62 15.04 39.54C15.04 39.34 14.98 38.92 14.86 38.28C14.78 37.64 14.74 37.22 14.74 37.02C14.66 37.02 14.54 36.96 14.38 36.84C14.22 36.76 14.1 36.72 14.02 36.72C13.98 36.64 13.88 36.52 13.72 36.36C13.56 36.2 13.46 36.08 13.42 36C13.38 35.88 13.3 35.66 13.18 35.34C13.1 34.98 13 34.6 12.88 34.2C12.8 33.8 12.7 33.44 12.58 33.12C12.5 32.76 12.44 32.52 12.4 32.4C12.36 32.32 12.26 32.08 12.1 31.68C11.94 31.28 11.84 30.98 11.8 30.78C11.8 30.7 11.7 30.5 11.5 30.18C11.3 29.82 11.16 29.6 11.08 29.52C11.04 29.44 10.96 29.3 10.84 29.1C10.72 28.86 10.6 28.62 10.48 28.38C10.36 28.14 10.24 27.92 10.12 27.72C10 27.52 9.92 27.38 9.88 27.3C9.76 27.14 9.56 26.86 9.28 26.46C9.04 26.02 8.78 25.58 8.5 25.14C8.22 24.66 7.94 24.22 7.66 23.82C7.42 23.42 7.26 23.16 7.18 23.04L6.76 23.34V32.4C6.6 32.6 6.38 32.98 6.1 33.54C5.82 34.1 5.64 34.48 5.56 34.68C5.56 34.8 5.54 35.06 5.5 35.46C5.5 35.82 5.48 36.22 5.44 36.66C5.4 37.1 5.36 37.5 5.32 37.86C5.32 38.26 5.32 38.52 5.32 38.64C5.32 38.76 5.26 38.98 5.14 39.3C5.06 39.62 5.02 39.84 5.02 39.96C4.94 39.88 4.84 39.76 4.72 39.6C4.64 39.44 4.6 39.32 4.6 39.24C4.6 39.12 4.58 38.9 4.54 38.58C4.5 38.26 4.46 37.92 4.42 37.56C4.42 37.24 4.4 36.92 4.36 36.6C4.32 36.32 4.3 36.12 4.3 36H4.24H3.94C3.82 36.08 3.68 36.14 3.52 36.18C3.2 36.26 3.02 36.3 2.98 36.3H2.44H2.08C2 36.3 1.88 36.2 1.72 36C1.56 35.84 1.44 35.72 1.36 35.64C1.4 35.2 1.46 34.4 1.54 33.24C1.62 32.08 1.7 30.84 1.78 29.52C1.86 28.2 1.92 26.96 1.96 25.8C2.04 24.64 2.08 23.82 2.08 23.34V19.98V16.56C2.08 16.52 2.06 16.4 2.02 16.2C1.98 15.96 1.94 15.72 1.9 15.48C1.9 15.24 1.88 15.02 1.84 14.82C1.8 14.58 1.78 14.42 1.78 14.34C1.7 14.18 1.62 13.94 1.54 13.62C1.5 13.26 1.44 13.04 1.36 12.96C1.32 12.92 1.24 12.78 1.12 12.54C1.04 12.26 0.96 11.98 0.88 11.7C0.76 11.38 0.66 11.1 0.58 10.86C0.5 10.62 0.46 10.46 0.46 10.38V10.08V9.72C0.5 9.6 0.6 9.36 0.76 9C0.92 8.64 1.02 8.46 1.06 8.46C1.1 8.42 1.2 8.32 1.36 8.16C1.52 8 1.68 7.84 1.84 7.68C2.04 7.48 2.2 7.3 2.32 7.14C2.48 6.98 2.6 6.86 2.68 6.78C2.76 6.78 2.96 6.7 3.28 6.54C3.64 6.34 3.86 6.24 3.94 6.24C4.02 6.24 4.1 6.22 4.18 6.18C4.3 6.1 4.4 6.06 4.48 6.06C4.56 6.06 4.64 6.1 4.72 6.18C4.84 6.22 4.94 6.24 5.02 6.24C5.06 6.24 5.1 6.26 5.14 6.3C5.26 6.42 5.32 6.48 5.32 6.48C5.32 6.56 5.4 6.76 5.56 7.08C5.72 7.4 5.88 7.76 6.04 8.16C6.24 8.52 6.42 8.86 6.58 9.18C6.78 9.5 6.9 9.68 6.94 9.72C7.02 9.88 7.18 10.2 7.42 10.68C7.66 11.12 7.92 11.6 8.2 12.12C8.48 12.64 8.74 13.14 8.98 13.62C9.22 14.06 9.38 14.38 9.46 14.58C9.5 14.66 9.58 14.82 9.7 15.06C9.82 15.26 9.94 15.48 10.06 15.72C10.22 15.96 10.36 16.2 10.48 16.44C10.6 16.64 10.7 16.78 10.78 16.86C10.94 17.06 11.14 17.36 11.38 17.76C11.66 18.16 11.8 18.4 11.8 18.48C11.8 18.56 11.84 18.62 11.92 18.66C12 18.7 12.08 18.72 12.16 18.72C12.16 18.68 12.16 18.54 12.16 18.3C12.2 18.06 12.22 17.8 12.22 17.52C12.26 17.24 12.3 16.98 12.34 16.74C12.38 16.46 12.4 16.28 12.4 16.2C12.44 16.04 12.52 15.64 12.64 15C12.76 14.36 12.88 13.68 13 12.96C13.12 12.24 13.22 11.56 13.3 10.92C13.38 10.28 13.42 9.88 13.42 9.72C13.42 9.6 13.44 9.34 13.48 8.94C13.52 8.54 13.54 8.1 13.54 7.62C13.58 7.14 13.62 6.7 13.66 6.3C13.7 5.9 13.74 5.64 13.78 5.52C13.78 5.44 13.8 5.24 13.84 4.92C13.92 4.56 13.98 4.3 14.02 4.14C14.02 4.1 14.06 4 14.14 3.84C14.26 3.68 14.32 3.58 14.32 3.54C14.44 3.42 14.6 3.24 14.8 3C15.04 2.76 15.28 2.52 15.52 2.28C15.76 2.04 15.98 1.84 16.18 1.68C16.42 1.48 16.58 1.38 16.66 1.38C16.7 1.3 16.84 1.2 17.08 1.08C17.32 0.959998 17.48 0.899998 17.56 0.899998H17.98H18.28C18.32 0.899998 18.36 0.959998 18.4 1.08C18.48 1.2 18.56 1.3 18.64 1.38C18.64 1.42 18.68 1.56 18.76 1.8C18.84 2.04 18.88 2.2 18.88 2.28V7.14C18.88 7.22 18.92 7.46 19 7.86C19.12 8.26 19.18 8.56 19.18 8.76C19.22 8.88 19.28 9.06 19.36 9.3C19.44 9.54 19.52 9.8 19.6 10.08C19.68 10.32 19.74 10.56 19.78 10.8C19.86 11.04 19.9 11.22 19.9 11.34C19.94 11.62 20.04 12.04 20.2 12.6C20.4 13.12 20.5 13.46 20.5 13.62C20.62 13.9 20.8 14.42 21.04 15.18C21.28 15.9 21.54 16.68 21.82 17.52C22.1 18.36 22.36 19.16 22.6 19.92C22.84 20.64 23.02 21.14 23.14 21.42C23.18 21.54 23.26 21.78 23.38 22.14C23.54 22.5 23.68 22.88 23.8 23.28C23.96 23.64 24.1 24 24.22 24.36C24.34 24.68 24.42 24.88 24.46 24.96C24.58 25.24 24.8 25.82 25.12 26.7C25.48 27.58 25.88 28.62 26.32 29.82C26.8 30.98 27.3 32.22 27.82 33.54C28.34 34.82 28.82 36.02 29.26 37.14C29.74 38.3 30.16 39.3 30.52 40.14C30.88 41.02 31.12 41.6 31.24 41.88C31.24 41.96 31.26 42.04 31.3 42.12C31.34 42.24 31.38 42.34 31.42 42.42C31.46 42.54 31.52 42.66 31.6 42.78V43.2V43.5C31.6 43.54 31.54 43.68 31.42 43.92C31.34 44.16 31.28 44.32 31.24 44.4C31.24 44.48 31.18 44.6 31.06 44.76C30.98 44.92 30.94 45.04 30.94 45.12C30.86 45.16 30.74 45.32 30.58 45.6C30.42 45.88 30.3 46.02 30.22 46.02C30.22 46.1 30.18 46.22 30.1 46.38C30.02 46.54 29.98 46.66 29.98 46.74C29.9 46.78 29.82 46.92 29.74 47.16C29.7 47.4 29.66 47.56 29.62 47.64L29.32 47.1L28.54 47.34V50.34L28 50.58L27.7 50.34C27.62 50.14 27.56 49.74 27.52 49.14C27.48 48.58 27.46 48.22 27.46 48.06H24.76ZM35.3556 41.58C35.3156 41.46 35.2756 41.24 35.2356 40.92C35.1956 40.6 35.1556 40.26 35.1156 39.9C35.1156 39.58 35.0956 39.26 35.0556 38.94C35.0156 38.66 34.9756 38.46 34.9356 38.34C34.9356 38.14 34.8756 37.74 34.7556 37.14C34.6756 36.58 34.6356 36.22 34.6356 36.06C34.5956 35.98 34.4956 35.92 34.3356 35.88C34.1756 35.8 34.0756 35.72 34.0356 35.64C33.9556 35.64 33.7156 35.6 33.3156 35.52C32.9556 35.4 32.7356 35.34 32.6556 35.34C32.5356 35.34 32.3756 35.32 32.1756 35.28C31.9756 35.2 31.7756 35.12 31.5756 35.04C31.3756 34.96 31.1956 34.9 31.0356 34.86C30.8756 34.78 30.7956 34.74 30.7956 34.74C30.7156 34.74 30.5356 34.64 30.2556 34.44C30.0156 34.24 29.8556 34.1 29.7756 34.02C29.6956 33.94 29.5756 33.82 29.4156 33.66C29.2956 33.5 29.1356 33.34 28.9356 33.18C28.7756 33.02 28.6156 32.88 28.4556 32.76C28.2956 32.6 28.1956 32.48 28.1556 32.4L28.0356 32.16C27.9956 32.08 27.9556 32.02 27.9156 31.98C27.8756 31.9 27.8356 31.82 27.7956 31.74C27.7956 31.66 27.7556 31.5 27.6756 31.26C27.5956 31.02 27.5556 30.86 27.5556 30.78V29.94V29.16C27.5556 29.08 27.6356 28.8 27.7956 28.32C27.9956 27.84 28.1156 27.48 28.1556 27.24C28.1556 27.2 28.2556 27 28.4556 26.64C28.6556 26.28 28.7956 26.04 28.8756 25.92C28.9556 25.84 29.0556 25.68 29.1756 25.44C29.2556 25.32 29.3356 25.18 29.4156 25.02C29.5756 24.86 29.8356 24.6 30.1956 24.24C30.5556 23.84 30.9356 23.46 31.3356 23.1C31.7356 22.7 32.0956 22.36 32.4156 22.08C32.7356 21.76 32.9356 21.56 33.0156 21.48C33.0556 21.44 33.1556 21.36 33.3156 21.24C33.5156 21.12 33.7156 21 33.9156 20.88C34.1156 20.72 34.3156 20.58 34.5156 20.46C34.7156 20.34 34.8556 20.24 34.9356 20.16C34.9756 20.12 35.0956 20.06 35.2956 19.98C35.4956 19.86 35.6956 19.76 35.8956 19.68C36.0956 19.56 36.2956 19.46 36.4956 19.38C36.6956 19.26 36.8556 19.18 36.9756 19.14C37.0556 19.1 37.2956 19 37.6956 18.84C38.0956 18.68 38.3956 18.58 38.5956 18.54C38.6756 18.46 38.8356 18.4 39.0756 18.36C39.3156 18.28 39.4556 18.24 39.4956 18.24C39.6556 18.2 39.8756 18.14 40.1556 18.06C40.4756 17.94 40.7556 17.86 40.9956 17.82C41.2756 17.74 41.5156 17.68 41.7156 17.64C41.9556 17.56 42.0956 17.52 42.1356 17.52C42.1356 17.52 42.2756 17.52 42.5556 17.52C42.8356 17.52 43.1556 17.52 43.5156 17.52C43.8756 17.48 44.2356 17.46 44.5956 17.46C44.9556 17.46 45.2356 17.46 45.4356 17.46C45.5556 17.46 45.7756 17.46 46.0956 17.46C46.4556 17.46 46.8156 17.48 47.1756 17.52C47.5756 17.52 47.9356 17.52 48.2556 17.52C48.6156 17.52 48.8556 17.52 48.9756 17.52C49.0556 17.52 49.2156 17.62 49.4556 17.82C49.6956 18.02 49.8556 18.16 49.9356 18.24C49.9356 18.24 49.9956 18.3 50.1156 18.42L50.2356 18.54L50.2956 18.78C50.2956 18.86 50.2756 18.94 50.2356 19.02C50.2356 19.06 50.2356 19.1 50.2356 19.14C50.2356 19.22 50.1756 19.44 50.0556 19.8C49.9756 20.12 49.9356 20.32 49.9356 20.4C49.9356 20.44 49.9556 20.6 49.9956 20.88C50.0356 21.16 50.0756 21.5 50.1156 21.9C50.1956 22.3 50.2756 22.7 50.3556 23.1C50.4356 23.46 50.5156 23.76 50.5956 24C50.5956 24.08 50.6156 24.26 50.6556 24.54C50.7356 24.78 50.7956 25.06 50.8356 25.38C50.9156 25.66 50.9756 25.96 51.0156 26.28C51.0956 26.56 51.1356 26.76 51.1356 26.88C51.1756 27.04 51.2356 27.26 51.3156 27.54C51.3956 27.82 51.4756 28.1 51.5556 28.38C51.6356 28.66 51.6956 28.92 51.7356 29.16C51.8156 29.4 51.8556 29.54 51.8556 29.58C51.8956 29.66 51.9956 29.94 52.1556 30.42C52.3156 30.9 52.4156 31.26 52.4556 31.5C52.4956 31.5 52.5356 31.58 52.5756 31.74C52.6556 31.9 52.7356 32.08 52.8156 32.28C52.8956 32.44 52.9556 32.62 52.9956 32.82C53.0756 32.98 53.1356 33.08 53.1756 33.12C53.2556 33.32 53.3556 33.68 53.4756 34.2C53.6356 34.72 53.7556 35.02 53.8356 35.1V35.52V36.06C53.7556 36.14 53.6756 36.3 53.5956 36.54C53.5556 36.78 53.5156 36.92 53.4756 36.96C53.3956 37.08 53.2356 37.26 52.9956 37.5C52.7956 37.74 52.5756 37.98 52.3356 38.22C52.0956 38.46 51.8556 38.68 51.6156 38.88C51.4156 39.12 51.2556 39.26 51.1356 39.3C51.0156 39.38 50.8956 39.44 50.7756 39.48C50.5356 39.56 50.3556 39.6 50.2356 39.6H49.6956H49.2156L48.9756 39.3C48.8956 39.22 48.7756 38.96 48.6156 38.52C48.4956 38.12 48.3956 37.84 48.3156 37.68C48.2356 37.56 48.1356 37.34 48.0156 37.02C47.9356 36.74 47.8356 36.44 47.7156 36.12C47.6356 35.84 47.5556 35.56 47.4756 35.28C47.3956 35 47.3556 34.82 47.3556 34.74C47.2756 34.62 47.1756 34.4 47.0556 34.08C46.9756 33.72 46.8756 33.36 46.7556 33C46.6756 32.6 46.5756 32.24 46.4556 31.92C46.3756 31.56 46.3156 31.32 46.2756 31.2L45.9756 30.78C45.8956 30.9 45.7156 31.1 45.4356 31.38C45.1556 31.62 44.8556 31.88 44.5356 32.16C44.2556 32.44 43.9556 32.72 43.6356 33C43.3556 33.24 43.1556 33.4 43.0356 33.48C42.9556 33.48 42.7956 33.58 42.5556 33.78C42.3156 33.94 42.1756 34.02 42.1356 34.02C41.8956 34.14 41.5356 34.34 41.0556 34.62C40.5756 34.86 40.2956 35.02 40.2156 35.1C40.0956 35.14 39.8956 35.22 39.6156 35.34C39.3356 35.42 39.0356 35.5 38.7156 35.58C38.3956 35.66 38.0956 35.76 37.8156 35.88C37.5356 35.96 37.3556 36.02 37.2756 36.06C37.1956 36.18 37.1356 36.28 37.0956 36.36C37.0156 36.6 36.9756 36.72 36.9756 36.72C36.8956 36.72 36.8156 36.76 36.7356 36.84C36.6956 36.92 36.6356 36.96 36.5556 36.96L36.2556 36.72C36.2156 36.64 36.1356 36.5 36.0156 36.3C35.8956 36.14 35.7956 36.06 35.7156 36.06V41.82L35.3556 41.58ZM32.6556 27.96C32.7356 28 32.7956 28.06 32.8356 28.14C32.8756 28.22 32.8956 28.3 32.8956 28.38C32.9356 28.42 32.9756 28.46 33.0156 28.5C33.0156 28.58 33.1156 28.72 33.3156 28.92C33.5156 29.08 33.6556 29.16 33.7356 29.16C33.8156 29.24 33.9756 29.38 34.2156 29.58C34.4556 29.78 34.5956 29.88 34.6356 29.88C34.8756 29.92 35.2356 30.04 35.7156 30.24C36.1956 30.4 36.4756 30.48 36.5556 30.48H38.8956H41.1156C41.1956 30.48 41.3156 30.44 41.4756 30.36C41.6356 30.28 41.7556 30.2 41.8356 30.12C41.9956 30.04 42.2356 29.84 42.5556 29.52C42.8756 29.16 43.0356 28.94 43.0356 28.86C43.1156 28.82 43.2356 28.56 43.3956 28.08C43.5556 27.56 43.6756 27.16 43.7556 26.88C43.7956 26.76 43.8556 26.5 43.9356 26.1C44.0556 25.7 44.1156 25.42 44.1156 25.26V24V22.68C44.0356 22.6 43.9156 22.54 43.7556 22.5C43.6356 22.42 43.5356 22.38 43.4556 22.38H42.1356H40.8756C40.7956 22.38 40.6756 22.4 40.5156 22.44C40.3556 22.48 40.1956 22.52 40.0356 22.56C39.8756 22.6 39.6956 22.64 39.4956 22.68C39.3756 22.8 39.2756 23.06 39.1956 23.46C39.1556 23.86 39.1756 24.14 39.2556 24.3L38.5956 23.1C38.5156 23.26 38.4356 23.58 38.3556 24.06C38.3156 24.54 38.2556 24.86 38.1756 25.02C38.1756 25.06 38.1156 25.16 37.9956 25.32C37.9156 25.48 37.8756 25.58 37.8756 25.62C37.8356 25.62 37.7756 25.58 37.6956 25.5C37.6556 25.42 37.6356 25.34 37.6356 25.26C37.5556 25.14 37.4756 24.84 37.3956 24.36C37.3156 23.84 37.2756 23.52 37.2756 23.4H36.9756H36.5556C36.4756 23.4 36.1956 23.54 35.7156 23.82C35.2356 24.06 34.8756 24.22 34.6356 24.3C34.5956 24.38 34.4556 24.5 34.2156 24.66C33.9756 24.82 33.8156 24.94 33.7356 25.02C33.6556 25.06 33.5156 25.16 33.3156 25.32C33.1156 25.48 33.0156 25.58 33.0156 25.62C32.9756 25.7 32.8956 25.82 32.7756 25.98C32.6956 26.14 32.6556 26.26 32.6556 26.34V27.18V27.96ZM56.492 35.7C56.492 35.78 56.432 35.86 56.312 35.94C56.232 35.98 56.192 36.02 56.192 36.06C56.112 36.22 56.012 36.54 55.892 37.02C55.812 37.5 55.772 37.82 55.772 37.98L55.472 37.44C55.472 37.28 55.432 36.94 55.352 36.42C55.272 35.9 55.192 35.58 55.112 35.46C55.112 35.38 55.012 35.16 54.812 34.8C54.652 34.4 54.572 34.16 54.572 34.08C54.492 34.08 54.392 33.94 54.272 33.66C54.192 33.38 54.152 33.2 54.152 33.12C54.112 33.04 54.052 32.88 53.972 32.64C53.932 32.36 53.872 32.08 53.792 31.8C53.752 31.52 53.692 31.28 53.612 31.08C53.572 30.84 53.532 30.68 53.492 30.6C53.492 30.48 53.472 30.26 53.432 29.94C53.392 29.62 53.332 29.28 53.252 28.92C53.212 28.52 53.152 28.16 53.072 27.84C53.032 27.48 52.992 27.22 52.952 27.06C52.912 26.86 52.812 26.36 52.652 25.56C52.532 24.76 52.392 23.9 52.232 22.98C52.072 22.02 51.932 21.14 51.812 20.34C51.692 19.5 51.632 18.98 51.632 18.78C51.592 18.7 51.532 18.52 51.452 18.24C51.412 17.92 51.352 17.58 51.272 17.22C51.192 16.86 51.132 16.52 51.092 16.2C51.012 15.88 50.952 15.66 50.912 15.54C50.912 15.5 50.872 15.36 50.792 15.12C50.672 14.88 50.612 14.72 50.612 14.64C50.572 14.64 50.472 14.5 50.312 14.22C50.112 13.94 50.012 13.76 50.012 13.68V12.84V12.06C50.012 11.98 50.052 11.82 50.132 11.58C50.212 11.34 50.252 11.2 50.252 11.16C50.332 11.08 50.452 10.92 50.612 10.68C50.732 10.4 50.832 10.22 50.912 10.14C50.992 10.02 51.152 9.84 51.392 9.6C51.632 9.32 51.792 9.14 51.872 9.06C51.952 9.02 52.132 8.92 52.412 8.76C52.692 8.6 52.872 8.52 52.952 8.52C52.952 8.48 53.072 8.44 53.312 8.4C53.552 8.32 53.732 8.24 53.852 8.16H54.032H54.152C54.232 8.24 54.352 8.36 54.512 8.52C54.672 8.64 54.792 8.74 54.872 8.82C54.912 8.9 54.952 9 54.992 9.12C55.072 9.36 55.112 9.5 55.112 9.54C55.192 9.58 55.272 9.72 55.352 9.96C55.432 10.2 55.472 10.36 55.472 10.44C55.512 10.56 55.552 10.74 55.592 10.98C55.672 11.22 55.752 11.48 55.832 11.76C55.912 12 55.972 12.24 56.012 12.48C56.092 12.72 56.152 12.9 56.192 13.02C56.192 13.18 56.232 13.46 56.312 13.86C56.432 14.26 56.492 14.52 56.492 14.64C56.572 14.52 56.732 14.34 56.972 14.1C57.212 13.86 57.472 13.62 57.752 13.38C58.032 13.1 58.292 12.84 58.532 12.6C58.772 12.36 58.932 12.18 59.012 12.06C59.092 12.06 59.292 11.92 59.612 11.64C59.972 11.36 60.212 11.2 60.332 11.16C60.412 11.12 60.612 10.98 60.932 10.74C61.092 10.62 61.232 10.52 61.352 10.44C61.472 10.36 61.732 10.26 62.132 10.14C62.532 9.98 62.812 9.86 62.972 9.78C63.172 9.7 63.512 9.64 63.992 9.6C64.472 9.56 64.792 9.54 64.952 9.54C64.992 9.54 65.112 9.54 65.312 9.54C65.552 9.54 65.792 9.56 66.032 9.6C66.272 9.6 66.492 9.62 66.692 9.66C66.892 9.7 67.032 9.74 67.112 9.78C67.232 9.78 67.452 9.88 67.772 10.08C68.092 10.24 68.312 10.36 68.432 10.44C68.512 10.52 68.652 10.64 68.852 10.8C69.052 10.96 69.152 11.08 69.152 11.16V11.94V13.02C69.152 13.1 69.092 13.26 68.972 13.5C68.892 13.74 68.812 13.88 68.732 13.92C68.652 14.08 68.492 14.34 68.252 14.7C68.012 15.02 67.872 15.22 67.832 15.3C67.832 15.62 67.812 16.16 67.772 16.92C67.732 17.64 67.692 18.42 67.652 19.26C67.652 20.06 67.632 20.84 67.592 21.6C67.552 22.32 67.532 22.82 67.532 23.1C67.532 23.22 67.512 23.42 67.472 23.7C67.472 23.98 67.452 24.28 67.412 24.6C67.372 24.88 67.312 25.16 67.232 25.44C67.192 25.68 67.152 25.86 67.112 25.98C67.112 26.14 67.052 26.4 66.932 26.76C66.852 27.08 66.812 27.28 66.812 27.36V16.02C66.812 15.94 66.772 15.86 66.692 15.78C66.612 15.7 66.572 15.62 66.572 15.54H66.212H65.912C65.832 15.62 65.752 15.7 65.672 15.78C65.632 15.86 65.572 15.94 65.492 16.02C65.492 16.02 65.472 16.1 65.432 16.26C65.392 16.42 65.352 16.6 65.312 16.8C65.312 16.96 65.292 17.14 65.252 17.34C65.212 17.5 65.192 17.6 65.192 17.64C65.152 17.68 65.092 17.82 65.012 18.06C64.972 18.3 64.952 18.46 64.952 18.54C64.832 18.7 64.712 18.78 64.592 18.78L64.292 18.24C64.252 18.12 64.212 17.9 64.172 17.58C64.132 17.26 64.092 16.94 64.052 16.62C64.052 16.26 64.032 15.94 63.992 15.66C63.952 15.34 63.912 15.12 63.872 15C63.872 14.96 63.792 14.9 63.632 14.82C63.512 14.7 63.412 14.64 63.332 14.64H62.132H61.052C60.972 14.72 60.832 14.84 60.632 15C60.432 15.12 60.332 15.22 60.332 15.3C60.292 15.42 60.192 15.74 60.032 16.26C59.872 16.74 59.772 17.04 59.732 17.16V20.94V24.72C59.732 24.8 59.732 25.02 59.732 25.38C59.772 25.7 59.812 26.08 59.852 26.52C59.892 26.92 59.932 27.3 59.972 27.66C60.012 27.98 60.052 28.18 60.092 28.26V29.88V31.2C60.012 31.32 59.952 31.46 59.912 31.62C59.872 31.74 59.832 31.86 59.792 31.98C59.752 32.06 59.732 32.14 59.732 32.22C59.732 32.26 59.672 32.36 59.552 32.52C59.472 32.68 59.432 32.78 59.432 32.82C59.352 32.9 59.232 33.08 59.072 33.36C58.912 33.6 58.792 33.76 58.712 33.84C58.672 33.96 58.532 34.18 58.292 34.5C58.052 34.82 57.892 35.04 57.812 35.16C57.772 35.44 57.732 35.92 57.692 36.6C57.652 37.32 57.612 38.06 57.572 38.82C57.572 39.62 57.552 40.36 57.512 41.04C57.472 41.76 57.432 42.26 57.392 42.54C57.392 42.66 57.372 42.84 57.332 43.08C57.292 43.36 57.252 43.64 57.212 43.92C57.212 44.2 57.192 44.46 57.152 44.7C57.112 44.94 57.092 45.1 57.092 45.18C57.092 45.22 57.052 45.32 56.972 45.48C56.892 45.64 56.812 45.74 56.732 45.78C56.732 45.66 56.692 45.34 56.612 44.82C56.532 44.34 56.492 44.04 56.492 43.92V35.7ZM67.2934 27.18C67.2134 27.18 67.0734 27.12 66.8734 27C66.7134 26.88 66.6734 26.78 66.7534 26.7C66.6734 26.7 66.5534 26.62 66.3934 26.46C66.3134 26.38 66.2534 26.28 66.2134 26.16V25.92L66.2734 25.8C66.2734 25.76 66.3134 25.64 66.3934 25.44C66.5134 25.24 66.6334 25.04 66.7534 24.84C66.9134 24.6 67.0534 24.4 67.1734 24.24C67.2934 24.04 67.3534 23.94 67.3534 23.94C67.3534 23.86 67.3334 23.7 67.2934 23.46C67.2534 23.18 67.2134 22.9 67.1734 22.62C67.1334 22.3 67.0934 22.02 67.0534 21.78C67.0534 21.5 67.0734 21.34 67.1134 21.3C67.1134 21.18 67.0934 20.9 67.0534 20.46C67.0534 19.98 67.0534 19.48 67.0534 18.96C67.0534 18.4 67.0534 17.86 67.0534 17.34C67.0534 16.82 67.0734 16.44 67.1134 16.2C67.1134 16 67.1134 15.66 67.1134 15.18C67.1134 14.66 67.0734 14.34 66.9934 14.22C67.0734 14.06 67.1334 13.84 67.1734 13.56C67.2134 13.24 67.2334 12.96 67.2334 12.72C67.2734 12.44 67.2934 12.2 67.2934 12C67.2934 11.76 67.2934 11.62 67.2934 11.58C67.2934 11.58 67.3134 11.44 67.3534 11.16C67.3934 10.88 67.4534 10.56 67.5334 10.2C67.6134 9.84 67.6934 9.48 67.7734 9.12C67.8534 8.76 67.9534 8.48 68.0734 8.28C68.0734 8.16 68.0934 7.94 68.1334 7.62C68.2134 7.3 68.2734 6.98 68.3134 6.66C68.3934 6.34 68.4534 6.02 68.4934 5.7C68.5734 5.38 68.6134 5.16 68.6134 5.04L68.9134 4.5C68.9534 4.5 69.1534 4.34 69.5134 4.02C69.8734 3.66 70.1534 3.46 70.3534 3.42C70.3534 3.34 70.3934 3.26 70.4734 3.18C70.5134 3.14 70.5534 3.12 70.5934 3.12C70.6734 3.04 70.8534 2.94 71.1334 2.82C71.4534 2.66 71.6334 2.62 71.6734 2.7C71.7134 2.66 71.8534 2.6 72.0934 2.52C72.2134 2.48 72.3134 2.44 72.3934 2.4H72.9334C73.0134 2.4 73.0934 2.44 73.1734 2.52C73.2134 2.56 73.2534 2.58 73.2934 2.58C73.3734 2.66 73.4734 2.8 73.5934 3C73.7534 3.2 73.8334 3.34 73.8334 3.42C73.8334 3.58 73.7934 3.88 73.7134 4.32C73.6334 4.72 73.5334 5.16 73.4134 5.64C73.3334 6.08 73.2334 6.52 73.1134 6.96C73.0334 7.36 72.9734 7.64 72.9334 7.8C72.9334 7.92 72.9134 8.12 72.8734 8.4C72.8734 8.68 72.8534 8.98 72.8134 9.3C72.8134 9.62 72.7934 9.94 72.7534 10.26C72.7134 10.58 72.6934 10.82 72.6934 10.98C72.6934 11.06 72.6934 11.28 72.6934 11.64C72.6934 12 72.6934 12.4 72.6934 12.84C72.6934 13.28 72.6734 13.72 72.6334 14.16C72.5934 14.56 72.5534 14.84 72.5134 15C72.5134 15.16 72.5334 15.48 72.5734 15.96C72.6534 16.44 72.7134 16.76 72.7534 16.92C72.6734 17.08 72.6334 17.32 72.6334 17.64C72.6334 17.92 72.6334 18.22 72.6334 18.54C72.6734 18.82 72.6934 19.08 72.6934 19.32C72.7334 19.56 72.7534 19.68 72.7534 19.68C72.7134 19.84 72.6934 20.06 72.6934 20.34C72.7334 20.58 72.7534 20.72 72.7534 20.76L73.0534 21.06L74.3734 20.4C74.6534 20.28 74.9934 20.08 75.3934 19.8C75.7934 19.52 76.1934 19.26 76.5934 19.02C76.9934 18.74 77.3534 18.5 77.6734 18.3C77.9934 18.06 78.2134 17.9 78.3334 17.82C78.4134 17.74 78.5134 17.62 78.6334 17.46C78.7534 17.26 78.8734 17.06 78.9934 16.86C79.1134 16.62 79.2134 16.42 79.2934 16.26C79.4134 16.06 79.4934 15.94 79.5334 15.9C79.5734 15.9 79.6934 15.84 79.8934 15.72C80.0934 15.6 80.3134 15.46 80.5534 15.3C80.8334 15.14 81.0934 15 81.3334 14.88C81.6134 14.72 81.8134 14.62 81.9334 14.58C81.9334 14.5 82.0534 14.42 82.2934 14.34L82.6534 14.22C82.7334 14.22 82.8334 14.26 82.9534 14.34C83.1134 14.42 83.2334 14.46 83.3134 14.46C83.4734 14.54 83.6334 14.58 83.7934 14.58H84.0934C84.1734 14.58 84.2734 14.64 84.3934 14.76C84.5134 14.84 84.5734 14.92 84.5734 15V15.66C84.4934 15.74 84.4134 15.86 84.3334 16.02C84.2934 16.1 84.2734 16.16 84.2734 16.2C84.1534 16.32 83.9334 16.62 83.6134 17.1C83.2934 17.54 83.0934 17.86 83.0134 18.06C82.8934 18.18 82.6934 18.36 82.4134 18.6C82.1734 18.8 81.9334 19.02 81.6934 19.26C81.4534 19.46 81.2134 19.66 80.9734 19.86C80.7734 20.06 80.6534 20.18 80.6134 20.22C80.4134 20.34 80.1134 20.56 79.7134 20.88C79.3134 21.16 78.8934 21.46 78.4534 21.78C78.0134 22.06 77.5934 22.34 77.1934 22.62C76.7934 22.9 76.4934 23.06 76.2934 23.1C76.3734 23.1 76.5534 23.2 76.8334 23.4C77.1134 23.56 77.2934 23.64 77.3734 23.64C77.4134 23.64 77.5534 23.68 77.7934 23.76C78.0334 23.8 78.2734 23.88 78.5134 24C78.7934 24.08 79.0334 24.16 79.2334 24.24C79.4734 24.28 79.6334 24.3 79.7134 24.3C79.9134 24.42 80.2134 24.54 80.6134 24.66C81.0134 24.78 81.2534 24.84 81.3334 24.84C81.3334 24.88 81.4334 24.98 81.6334 25.14C81.8734 25.26 82.1334 25.42 82.4134 25.62C82.7334 25.78 83.0334 25.94 83.3134 26.1C83.5934 26.26 83.8334 26.38 84.0334 26.46C84.0734 26.58 84.2734 26.76 84.6334 27C85.0334 27.2 85.2734 27.34 85.3534 27.42C85.4334 27.46 85.5734 27.56 85.7734 27.72C85.9734 27.88 86.1734 28.06 86.3734 28.26C86.6134 28.42 86.8334 28.58 87.0334 28.74C87.2334 28.9 87.3934 29 87.5134 29.04C87.5134 29.12 87.6534 29.34 87.9334 29.7C88.2134 30.02 88.3534 30.26 88.3534 30.42C88.4734 30.46 88.6534 30.66 88.8934 31.02C89.1334 31.34 89.2134 31.52 89.1334 31.56C89.2134 31.64 89.2734 31.76 89.3134 31.92C89.3934 32.08 89.4334 32.2 89.4334 32.28V32.64C89.4334 32.72 89.4134 32.78 89.3734 32.82C89.3334 32.86 89.2934 32.92 89.2534 33C89.2134 33.08 89.1734 33.14 89.1334 33.18C89.0534 33.26 88.9334 33.44 88.7734 33.72C88.6134 33.96 88.4934 34.12 88.4134 34.2C88.3734 34.24 88.1534 34.42 87.7534 34.74C87.3534 35.02 87.0134 35.2 86.7334 35.28C86.6534 35.32 86.4334 35.42 86.0734 35.58C85.7534 35.74 85.5534 35.84 85.4734 35.88C85.3934 36.12 85.2734 36.54 85.1134 37.14C84.9534 37.78 84.7734 38.44 84.5734 39.12C84.4134 39.84 84.2534 40.5 84.0934 41.1C83.9334 41.7 83.8134 42.1 83.7334 42.3C83.6534 42.58 83.5334 42.98 83.3734 43.5C83.2134 44.06 83.0934 44.38 83.0134 44.46C83.0134 44.5 82.9134 44.6 82.7134 44.76C82.5534 44.96 82.4534 45.06 82.4134 45.06L84.0934 36.18C84.0534 36.02 83.9534 35.86 83.7934 35.7C83.6334 35.54 83.5334 35.42 83.4934 35.34C83.4934 35.3 83.4734 35.14 83.4334 34.86C83.4334 34.58 83.3934 34.44 83.3134 34.44C83.3934 34.36 83.3534 34.22 83.1934 34.02C83.0734 33.82 82.9934 33.7 82.9534 33.66C82.9534 33.58 82.8334 33.46 82.5934 33.3C82.3534 33.14 82.1934 33.02 82.1134 32.94L81.8734 34.26C81.8734 34.14 81.8134 33.84 81.6934 33.36C81.5734 32.84 81.4734 32.52 81.3934 32.4C81.3934 32.32 81.3534 32.24 81.2734 32.16C81.1934 32.04 81.1534 31.94 81.1534 31.86C81.0734 31.86 80.9534 31.8 80.7934 31.68C80.6734 31.56 80.5734 31.5 80.4934 31.5C80.4134 31.42 80.2134 31.26 79.8934 31.02C79.6134 30.74 79.3934 30.56 79.2334 30.48C79.1534 30.48 79.0334 30.44 78.8734 30.36C78.7134 30.24 78.5334 30.12 78.3334 30C78.1334 29.88 77.9534 29.76 77.7934 29.64C77.6334 29.52 77.5534 29.44 77.5534 29.4C77.4734 29.4 77.2534 29.34 76.8934 29.22C76.5734 29.1 76.3334 29.04 76.1734 29.04C75.9734 28.92 75.6734 28.76 75.2734 28.56C74.8734 28.36 74.6334 28.26 74.5534 28.26C74.4734 28.26 74.3134 28.28 74.0734 28.32C73.8334 28.32 73.6734 28.32 73.5934 28.32V28.62C73.6334 28.74 73.6934 28.98 73.7734 29.34C73.8934 29.66 73.9934 30 74.0734 30.36C74.1934 30.72 74.2934 31.08 74.3734 31.44C74.4934 31.76 74.5934 31.98 74.6734 32.1C74.5934 32.26 74.5934 32.62 74.6734 33.18C74.7934 33.7 74.8534 34.06 74.8534 34.26V34.44V34.56C74.7734 34.68 74.5734 34.9 74.2534 35.22C73.9334 35.54 73.7734 35.74 73.7734 35.82C73.7334 35.82 73.5934 35.9 73.3534 36.06C73.1534 36.26 72.9134 36.46 72.6334 36.66C72.3534 36.9 72.0934 37.12 71.8534 37.32C71.6134 37.52 71.4734 37.64 71.4334 37.68C71.3534 37.76 71.2934 37.92 71.2534 38.16C71.2134 38.44 71.1534 38.72 71.0734 39C71.0334 39.32 70.9934 39.62 70.9534 39.9C70.9134 40.18 70.8534 40.38 70.7734 40.5L70.3534 40.74L70.8934 37.98C70.8134 37.94 70.7134 37.9 70.5934 37.86C70.5134 37.82 70.4134 37.78 70.2934 37.74C70.2134 37.7 70.1334 37.68 70.0534 37.68C70.0134 37.68 69.9534 37.7 69.8734 37.74C69.8334 37.78 69.7734 37.8 69.6934 37.8C69.7334 37.92 69.7334 38.12 69.6934 38.4C69.6934 38.68 69.6734 38.98 69.6334 39.3C69.5934 39.62 69.5534 39.92 69.5134 40.2C69.5134 40.48 69.5134 40.66 69.5134 40.74C69.4734 40.94 69.4534 41.12 69.4534 41.28V42C69.4534 42.12 69.3734 42.34 69.2134 42.66C69.1334 42.82 69.0534 42.96 68.9734 43.08C68.9734 43.16 68.9334 43.32 68.8534 43.56C68.7734 43.8 68.6934 43.94 68.6134 43.98C68.6134 43.94 68.5734 43.84 68.4934 43.68C68.4134 43.52 68.3734 43.42 68.3734 43.38C68.3734 43.26 68.3934 43 68.4334 42.6C68.5134 42.2 68.5934 41.78 68.6734 41.34C68.7534 40.9 68.8134 40.5 68.8534 40.14C68.8934 39.78 68.9134 39.54 68.9134 39.42C68.9134 39.34 68.8934 39.06 68.8534 38.58C68.8534 38.1 68.8134 37.74 68.7334 37.5C68.8134 37.42 68.8534 37.28 68.8534 37.08C68.8934 36.92 68.9134 36.74 68.9134 36.54V35.82C68.8734 35.74 68.8134 35.54 68.7334 35.22C68.6534 34.86 68.5534 34.48 68.4334 34.08C68.3534 33.68 68.2734 33.32 68.1934 33C68.1534 32.68 68.1134 32.48 68.0734 32.4C68.0734 32.24 68.0934 32.08 68.1334 31.92C68.1334 31.8 68.1534 31.66 68.1934 31.5C68.1134 31.34 68.0334 31.06 67.9534 30.66C67.8734 30.26 67.7934 29.86 67.7134 29.46C67.6734 29.02 67.6334 28.62 67.5934 28.26C67.5534 27.9 67.5334 27.66 67.5334 27.54L67.2934 27.18ZM99.2392 37.8C99.2392 37.96 99.1792 38.32 99.0592 38.88C98.9792 39.48 98.8992 39.88 98.8192 40.08L98.5192 40.62L97.9792 40.32V36.48C97.8992 36.44 97.7192 36.38 97.4392 36.3C97.1992 36.26 96.9392 36.2 96.6592 36.12C96.3792 36.04 96.0992 35.98 95.8192 35.94C95.5792 35.86 95.3992 35.8 95.2792 35.76C95.1992 35.76 95.0592 35.74 94.8592 35.7C94.6992 35.62 94.5192 35.54 94.3192 35.46C94.1192 35.38 93.9192 35.32 93.7192 35.28C93.5192 35.2 93.3792 35.14 93.2992 35.1C93.2192 35.1 93.0192 35.04 92.6992 34.92C92.4192 34.76 92.1992 34.64 92.0392 34.56C91.9992 34.48 91.8592 34.36 91.6192 34.2C91.3792 34.04 91.2192 33.92 91.1392 33.84C91.0192 33.72 90.7792 33.54 90.4192 33.3C90.0592 33.06 89.8592 32.94 89.8192 32.94C89.7392 32.82 89.5192 32.58 89.1592 32.22C88.8392 31.86 88.5992 31.66 88.4392 31.62C88.4392 31.54 88.2992 31.34 88.0192 31.02C87.7792 30.7 87.5992 30.44 87.4792 30.24C87.3992 30.16 87.2792 30 87.1192 29.76C86.9992 29.52 86.8992 29.36 86.8192 29.28C86.7792 29.2 86.6992 29.08 86.5792 28.92C86.4992 28.72 86.4192 28.52 86.3392 28.32C86.2592 28.08 86.1592 27.88 86.0392 27.72C85.9592 27.52 85.8992 27.4 85.8592 27.36C85.7792 27.24 85.6592 26.94 85.4992 26.46C85.3792 25.94 85.2792 25.58 85.1992 25.38C85.1992 25.26 85.1592 24.96 85.0792 24.48C84.9992 23.96 84.9592 23.64 84.9592 23.52V21.9V20.28C84.9592 20.2 84.9992 19.94 85.0792 19.5C85.1592 19.06 85.1992 18.78 85.1992 18.66C85.2792 18.42 85.3792 18.06 85.4992 17.58C85.6592 17.06 85.7792 16.72 85.8592 16.56C85.8992 16.56 85.9592 16.48 86.0392 16.32C86.1592 16.16 86.2592 15.98 86.3392 15.78C86.4192 15.58 86.4992 15.38 86.5792 15.18C86.6992 14.98 86.7792 14.82 86.8192 14.7C86.8992 14.62 86.9992 14.46 87.1192 14.22C87.2792 13.98 87.3992 13.84 87.4792 13.8C87.5992 13.64 87.7792 13.4 88.0192 13.08C88.2992 12.72 88.4392 12.5 88.4392 12.42C88.5192 12.34 88.6792 12.18 88.9192 11.94C89.1992 11.7 89.3992 11.54 89.5192 11.46C89.5192 11.38 89.6792 11.22 89.9992 10.98C90.3192 10.74 90.5592 10.6 90.7192 10.56L91.6792 9.84C91.8792 9.76 92.2192 9.6 92.6992 9.36C93.2192 9.12 93.5392 8.98 93.6592 8.94C93.7392 8.94 93.8992 8.88 94.1392 8.76C94.4192 8.64 94.5992 8.54 94.6792 8.46C94.8792 8.46 95.1192 8.42 95.3992 8.34C95.7192 8.26 95.9192 8.22 95.9992 8.22H97.7392H99.5392C99.5792 8.22 99.8392 8.26 100.319 8.34C100.839 8.42 101.239 8.46 101.519 8.46C101.639 8.54 101.919 8.64 102.359 8.76C102.799 8.88 103.059 8.94 103.139 8.94C103.259 8.94 103.559 9.04 104.039 9.24C104.559 9.4 104.879 9.5 104.999 9.54C105.079 9.58 105.239 9.66 105.479 9.78C105.719 9.9 105.979 10.02 106.259 10.14C106.539 10.26 106.799 10.4 107.039 10.56C107.319 10.68 107.519 10.76 107.639 10.8C107.759 10.88 107.939 11 108.179 11.16C108.419 11.28 108.539 11.38 108.539 11.46C108.659 11.58 108.899 11.8 109.259 12.12C109.619 12.44 109.819 12.66 109.859 12.78C109.939 12.86 110.079 13.08 110.279 13.44C110.479 13.76 110.579 13.96 110.579 14.04V14.94V16.02C110.539 16.14 110.499 16.28 110.459 16.44C110.419 16.56 110.359 16.68 110.279 16.8C110.239 16.88 110.199 16.96 110.159 17.04C110.159 17.08 110.119 17.18 110.039 17.34C109.999 17.5 109.939 17.6 109.859 17.64C109.819 17.72 109.679 17.94 109.439 18.3C109.199 18.62 109.039 18.82 108.959 18.9C108.879 18.98 108.719 19.16 108.479 19.44C108.239 19.72 108.079 19.9 107.999 19.98C107.839 20.06 107.579 20.22 107.219 20.46C106.899 20.7 106.699 20.84 106.619 20.88C106.619 20.92 106.539 21 106.379 21.12C106.219 21.2 106.039 21.3 105.839 21.42C105.639 21.5 105.439 21.6 105.239 21.72C105.039 21.8 104.879 21.86 104.759 21.9C104.679 21.9 104.499 21.94 104.219 22.02C103.979 22.1 103.799 22.14 103.679 22.14C103.519 22.22 103.299 22.3 103.019 22.38C102.739 22.46 102.559 22.5 102.479 22.5C102.359 22.5 102.139 22.52 101.819 22.56C101.499 22.6 101.159 22.64 100.799 22.68C100.439 22.68 100.099 22.7 99.7792 22.74C99.4992 22.78 99.3192 22.8 99.2392 22.8H97.6192H95.9992C95.8792 22.8 95.5792 22.78 95.0992 22.74C94.6592 22.7 94.1792 22.68 93.6592 22.68C93.1392 22.64 92.6592 22.6 92.2192 22.56C91.7792 22.52 91.5192 22.5 91.4392 22.5H90.8992H90.4192C90.4192 22.58 90.4592 22.76 90.5392 23.04C90.6592 23.28 90.7192 23.44 90.7192 23.52C90.7992 23.64 90.9592 23.96 91.1992 24.48C91.4392 24.96 91.5992 25.26 91.6792 25.38C91.7592 25.54 91.8792 25.74 92.0392 25.98C92.2392 26.22 92.3392 26.38 92.3392 26.46C92.4592 26.54 92.6392 26.7 92.8792 26.94C93.1192 27.18 93.3792 27.44 93.6592 27.72C93.9392 28 94.1992 28.26 94.4392 28.5C94.7192 28.74 94.9192 28.9 95.0392 28.98C95.0392 29.06 95.1592 29.18 95.3992 29.34C95.6792 29.5 95.8792 29.62 95.9992 29.7C96.1592 29.78 96.4792 29.94 96.9592 30.18C97.4392 30.42 97.7592 30.56 97.9192 30.6C97.9592 30.6 98.0992 30.66 98.3392 30.78C98.5792 30.86 98.7392 30.9 98.8192 30.9C99.0192 30.98 99.3792 31.06 99.8992 31.14C100.419 31.18 100.739 31.24 100.859 31.32H101.759H102.779C102.899 31.24 103.119 31.18 103.439 31.14C103.759 31.06 103.979 30.98 104.099 30.9L104.399 30.6V26.76C104.439 26.64 104.479 26.5 104.519 26.34C104.559 26.22 104.599 26.12 104.639 26.04C104.679 25.92 104.719 25.82 104.759 25.74C104.799 25.7 104.819 25.66 104.819 25.62C104.819 25.54 104.839 25.48 104.879 25.44C104.919 25.36 104.959 25.26 104.999 25.14L106.619 23.52C106.699 23.44 106.899 23.32 107.219 23.16C107.579 23 107.839 22.88 107.999 22.8H108.239H108.539C108.619 22.88 108.759 23 108.959 23.16C109.159 23.32 109.259 23.44 109.259 23.52C109.299 23.56 109.339 23.8 109.379 24.24C109.459 24.68 109.539 24.98 109.619 25.14V26.22V27.36C109.539 27.52 109.459 27.8 109.379 28.2C109.339 28.6 109.299 28.86 109.259 28.98C109.259 29.02 109.219 29.14 109.139 29.34C109.059 29.5 108.959 29.68 108.839 29.88C108.759 30.08 108.659 30.28 108.539 30.48C108.419 30.68 108.319 30.82 108.239 30.9C108.199 31.02 108.099 31.22 107.939 31.5C107.779 31.74 107.679 31.86 107.639 31.86C107.559 31.94 107.399 32.1 107.159 32.34C106.959 32.54 106.739 32.76 106.499 33C106.259 33.24 106.019 33.48 105.779 33.72C105.579 33.92 105.419 34.06 105.299 34.14C105.299 34.22 105.179 34.34 104.939 34.5C104.699 34.66 104.519 34.78 104.399 34.86C104.319 34.9 104.099 35 103.739 35.16C103.419 35.32 103.219 35.42 103.139 35.46C102.979 35.46 102.679 35.56 102.239 35.76C101.839 35.96 101.599 36.1 101.519 36.18C101.439 36.18 101.319 36.22 101.159 36.3C101.039 36.42 100.939 36.48 100.859 36.48C100.859 36.72 100.839 37.14 100.799 37.74C100.799 38.34 100.779 38.98 100.739 39.66C100.699 40.38 100.639 41.04 100.559 41.64C100.519 42.28 100.479 42.72 100.439 42.96C100.439 43.08 100.399 43.34 100.319 43.74C100.279 44.14 100.219 44.42 100.139 44.58C100.139 44.62 100.099 44.72 100.019 44.88C99.9392 45.04 99.8992 45.14 99.8992 45.18C99.8192 45.06 99.7392 44.8 99.6592 44.4C99.5792 44 99.5392 43.72 99.5392 43.56C99.5392 43.32 99.5192 42.92 99.4792 42.36C99.4392 41.84 99.3992 41.26 99.3592 40.62C99.3592 40.02 99.3392 39.44 99.2992 38.88C99.2592 38.36 99.2392 38 99.2392 37.8ZM90.0592 16.86C90.1392 16.86 90.3192 16.88 90.5992 16.92C90.8792 16.92 91.1792 16.94 91.4992 16.98C91.8192 16.98 92.1192 17 92.3992 17.04C92.7192 17.04 92.9392 17.04 93.0592 17.04L93.5392 17.16C93.6992 17.2 93.8392 17.24 93.9592 17.28C94.2392 17.36 94.6992 17.44 95.3392 17.52C96.0192 17.6 96.4592 17.64 96.6592 17.64H100.979H104.099L105.299 17.28C105.219 17.16 104.979 16.9 104.579 16.5C104.179 16.1 103.879 15.82 103.679 15.66C103.639 15.62 103.519 15.54 103.319 15.42C103.119 15.3 102.879 15.18 102.599 15.06C102.319 14.9 102.039 14.76 101.759 14.64C101.519 14.52 101.319 14.44 101.159 14.4C101.119 14.4 100.999 14.38 100.799 14.34C100.639 14.26 100.439 14.18 100.199 14.1C99.9992 14.02 99.7992 13.96 99.5992 13.92C99.4392 13.84 99.3192 13.8 99.2392 13.8C99.0392 13.72 98.7392 13.62 98.3392 13.5C97.9392 13.38 97.6992 13.32 97.6192 13.32H95.2192H92.7592C92.6392 13.4 92.4192 13.54 92.0992 13.74C91.7792 13.94 91.5592 14.04 91.4392 14.04L91.2592 14.22C91.2192 14.26 91.1992 14.3 91.1992 14.34C91.1992 14.38 91.1792 14.4 91.1392 14.4C91.0592 14.48 90.9392 14.7 90.7792 15.06C90.6192 15.38 90.4992 15.58 90.4192 15.66C90.3792 15.74 90.3192 15.9 90.2392 16.14C90.1992 16.38 90.1392 16.52 90.0592 16.56V16.86ZM119.462 37.56C119.342 37.44 119.122 37.28 118.802 37.08C118.522 36.92 118.322 36.8 118.202 36.72C118.122 36.68 117.962 36.52 117.722 36.24C117.522 36 117.382 35.84 117.302 35.76C117.262 35.64 117.162 35.46 117.002 35.22C116.882 34.98 116.802 34.78 116.762 34.62C116.682 34.5 116.582 34.3 116.462 34.02C116.382 33.74 116.282 33.46 116.162 33.18C116.042 32.9 115.922 32.64 115.802 32.4C115.722 32.16 115.662 32 115.622 31.92C115.622 31.84 115.582 31.68 115.502 31.44C115.462 31.16 115.402 30.88 115.322 30.6C115.242 30.28 115.162 29.98 115.082 29.7C115.002 29.38 114.942 29.16 114.902 29.04C114.902 28.92 114.882 28.74 114.842 28.5C114.842 28.22 114.802 27.94 114.722 27.66C114.682 27.34 114.642 27.06 114.602 26.82C114.562 26.54 114.522 26.36 114.482 26.28C114.482 26.2 114.462 25.92 114.422 25.44C114.422 24.96 114.422 24.62 114.422 24.42C114.422 24.34 114.402 24.18 114.362 23.94C114.362 23.66 114.362 23.38 114.362 23.1C114.362 22.78 114.362 22.5 114.362 22.26C114.362 21.98 114.362 21.8 114.362 21.72C114.282 21.6 114.222 21.32 114.182 20.88C114.182 20.44 114.142 20.18 114.062 20.1H113.942L113.762 20.04C113.762 20.04 113.682 20.06 113.522 20.1C113.362 20.1 113.182 20.12 112.982 20.16C112.822 20.16 112.642 20.18 112.442 20.22C112.282 20.22 112.182 20.22 112.142 20.22C112.102 20.22 111.982 20.22 111.782 20.22C111.582 20.18 111.402 20.16 111.242 20.16C111.162 20.16 111.082 20.16 111.002 20.16C110.962 20.12 110.902 20.1 110.822 20.1H110.522C110.482 20.1 110.382 20 110.222 19.8C110.102 19.6 110.022 19.46 109.982 19.38V19.2V19.14C109.982 19.06 110.022 18.9 110.102 18.66C110.222 18.38 110.302 18.2 110.342 18.12C110.422 17.96 110.502 17.84 110.582 17.76C110.622 17.68 110.682 17.62 110.762 17.58C110.842 17.46 111.002 17.28 111.242 17.04C111.522 16.8 111.802 16.56 112.082 16.32C112.402 16.04 112.702 15.8 112.982 15.6C113.262 15.4 113.462 15.26 113.582 15.18C113.622 15.14 113.762 15.04 114.002 14.88C114.282 14.72 114.462 14.64 114.542 14.64C114.582 14.48 114.662 14.18 114.782 13.74C114.902 13.3 115.002 12.84 115.082 12.36C115.202 11.88 115.302 11.44 115.382 11.04C115.502 10.6 115.602 10.3 115.682 10.14C115.682 10.02 115.702 9.86 115.742 9.66C115.782 9.42 115.822 9.2 115.862 9C115.902 8.76 115.962 8.52 116.042 8.28C116.122 8.04 116.322 7.68 116.642 7.2C116.962 6.72 117.182 6.42 117.302 6.3C117.382 6.26 117.582 6.08 117.902 5.76C118.222 5.44 118.462 5.28 118.622 5.28C118.742 5.2 118.962 5.08 119.282 4.92C119.642 4.72 119.882 4.62 120.002 4.62C120.082 4.66 120.162 4.68 120.242 4.68H120.542L121.022 4.74C121.062 4.74 121.102 4.78 121.142 4.86C121.182 4.94 121.242 4.98 121.322 4.98C121.322 5.14 121.302 5.46 121.262 5.94C121.222 6.42 121.202 6.7 121.202 6.78C121.162 7.06 121.122 7.44 121.082 7.92C121.042 8.36 121.022 8.62 121.022 8.7C120.942 8.86 120.862 9 120.782 9.12C120.662 9.36 120.602 9.52 120.602 9.6C120.602 9.8 120.582 10.12 120.542 10.56C120.502 11 120.462 11.46 120.422 11.94C120.382 12.42 120.342 12.88 120.302 13.32C120.262 13.72 120.242 13.98 120.242 14.1L120.782 14.16C121.062 14.12 121.502 14.04 122.102 13.92C122.702 13.76 123.342 13.6 124.022 13.44C124.702 13.28 125.342 13.14 125.942 13.02C126.542 12.9 126.962 12.8 127.202 12.72C127.322 12.68 127.502 12.64 127.742 12.6C128.022 12.56 128.282 12.5 128.522 12.42C128.802 12.34 129.102 12.28 129.422 12.24C129.502 12.24 129.682 12.26 129.962 12.3C130.242 12.3 130.462 12.3 130.622 12.3C130.662 12.34 130.822 12.38 131.102 12.42C131.422 12.42 131.622 12.42 131.702 12.42C131.742 12.5 131.782 12.58 131.822 12.66C131.902 12.74 131.982 12.84 132.062 12.96C132.022 13 132.002 13.04 132.002 13.08V13.26C132.002 13.34 131.982 13.4 131.942 13.44C131.942 13.48 131.942 13.54 131.942 13.62V13.8C131.862 13.88 131.802 13.98 131.762 14.1C131.682 14.18 131.622 14.26 131.582 14.34C131.582 14.42 131.562 14.48 131.522 14.52C131.442 14.56 131.302 14.7 131.102 14.94C130.942 15.14 130.822 15.28 130.742 15.36C130.742 15.44 130.642 15.56 130.442 15.72C130.242 15.84 130.142 15.94 130.142 16.02C130.062 16.06 129.882 16.16 129.602 16.32C129.322 16.44 129.122 16.5 129.002 16.5C128.922 16.5 128.722 16.58 128.402 16.74C128.082 16.9 127.882 16.98 127.802 16.98L127.442 20.64L127.082 20.16L126.782 17.34L126.122 17.28V17.52C126.082 17.68 126.082 18.06 126.122 18.66C126.202 19.26 126.222 19.64 126.182 19.8C126.182 19.96 126.182 20.2 126.182 20.52C126.182 20.84 126.182 21.18 126.182 21.54C126.182 21.9 126.182 22.24 126.182 22.56C126.222 22.84 126.262 23.02 126.302 23.1C126.262 23.18 126.242 23.26 126.242 23.34V23.64L126.182 24.06L125.822 23.76L125.042 17.28L119.822 18.6C119.782 18.68 119.762 18.78 119.762 18.9C119.762 18.98 119.742 19.08 119.702 19.2C119.702 19.28 119.702 19.36 119.702 19.44C119.702 19.56 119.682 19.78 119.642 20.1C119.642 20.38 119.642 20.54 119.642 20.58C119.642 20.86 119.662 21.12 119.702 21.36C119.742 21.56 119.762 21.78 119.762 22.02C119.762 22.22 119.782 22.38 119.822 22.5C119.822 22.62 119.842 22.9 119.882 23.34C119.922 23.74 119.942 24.02 119.942 24.18C119.902 24.3 119.922 24.54 120.002 24.9C120.082 25.26 120.122 25.46 120.122 25.5C120.162 25.7 120.222 25.96 120.302 26.28C120.382 26.56 120.462 26.86 120.542 27.18C120.622 27.5 120.702 27.78 120.782 28.02C120.862 28.26 120.902 28.4 120.902 28.44C120.902 28.52 120.942 28.7 121.022 28.98C121.102 29.22 121.202 29.5 121.322 29.82C121.442 30.1 121.542 30.38 121.622 30.66C121.742 30.94 121.842 31.14 121.922 31.26C121.962 31.34 122.002 31.4 122.042 31.44C122.162 31.56 122.242 31.62 122.282 31.62C122.362 31.62 122.562 31.68 122.882 31.8C123.202 31.88 123.402 31.92 123.482 31.92C123.522 32 123.582 32.08 123.662 32.16C123.782 32.24 123.842 32.3 123.842 32.34C123.802 32.46 123.782 32.56 123.782 32.64V33.06C123.782 33.1 123.762 33.14 123.722 33.18C123.722 33.22 123.722 33.28 123.722 33.36V33.6C123.642 33.68 123.502 33.88 123.302 34.2C123.142 34.52 123.022 34.76 122.942 34.92C122.862 34.92 122.702 35.04 122.462 35.28C122.262 35.52 122.142 35.68 122.102 35.76L121.682 40.56L121.142 40.5L121.022 40.02C120.982 39.9 120.942 39.76 120.902 39.6C120.902 39.48 120.922 39.38 120.962 39.3C120.922 39.18 120.882 39 120.842 38.76C120.842 38.56 120.842 38.34 120.842 38.1C120.842 37.86 120.822 37.62 120.782 37.38C120.782 37.18 120.762 37.04 120.722 36.96L119.582 49.86L119.462 37.56ZM127.557 43.8C127.557 43.68 127.537 43.46 127.497 43.14C127.497 42.82 127.477 42.48 127.437 42.12C127.397 41.8 127.357 41.48 127.317 41.16C127.317 40.88 127.317 40.68 127.317 40.56C127.277 40.2 127.217 39.52 127.137 38.52C127.057 37.52 126.957 36.38 126.837 35.1C126.757 33.82 126.657 32.46 126.537 31.02C126.457 29.54 126.377 28.14 126.297 26.82C126.217 25.5 126.137 24.34 126.057 23.34C125.977 22.34 125.937 21.64 125.937 21.24C125.937 21.16 125.917 21.02 125.877 20.82C125.877 20.58 125.877 20.34 125.877 20.1C125.877 19.86 125.877 19.64 125.877 19.44C125.877 19.2 125.877 19.02 125.877 18.9C125.877 18.78 125.877 18.44 125.877 17.88C125.877 17.32 125.857 16.74 125.817 16.14C125.777 15.5 125.737 14.9 125.697 14.34C125.697 13.78 125.677 13.44 125.637 13.32V12.66C125.637 12.46 125.617 12.28 125.577 12.12C125.537 11.92 125.497 11.78 125.457 11.7C125.457 11.66 125.437 11.5 125.397 11.22C125.357 10.9 125.317 10.58 125.277 10.26C125.237 9.94 125.217 9.64 125.217 9.36C125.177 9.04 125.157 8.84 125.157 8.76C125.157 8.72 125.177 8.56 125.217 8.28C125.217 7.96 125.217 7.74 125.217 7.62C125.217 7.54 125.237 7.44 125.277 7.32C125.277 7.2 125.277 7.08 125.277 6.96C125.277 6.8 125.297 6.66 125.337 6.54C125.337 6.46 125.377 6.34 125.457 6.18C125.577 6.02 125.637 5.9 125.637 5.82C125.717 5.78 125.857 5.68 126.057 5.52C126.257 5.32 126.457 5.14 126.657 4.98C126.897 4.78 127.117 4.6 127.317 4.44C127.517 4.28 127.677 4.16 127.797 4.08C127.877 4.08 127.997 4.04 128.157 3.96C128.317 3.84 128.437 3.8 128.517 3.84H129.057C129.097 3.88 129.217 3.9 129.417 3.9H129.717C129.797 4.02 129.937 4.18 130.137 4.38C130.337 4.58 130.537 4.8 130.737 5.04C130.977 5.28 131.197 5.5 131.397 5.7C131.597 5.9 131.757 6.04 131.877 6.12C131.917 6.16 132.017 6.26 132.177 6.42C132.377 6.54 132.557 6.68 132.717 6.84C132.917 6.96 133.097 7.1 133.257 7.26C133.417 7.38 133.537 7.46 133.617 7.5C133.817 7.62 134.237 7.88 134.877 8.28C135.517 8.68 136.197 9.12 136.917 9.6C137.677 10.08 138.357 10.52 138.957 10.92C139.597 11.32 139.977 11.58 140.097 11.7C140.137 11.74 140.237 11.84 140.397 12C140.597 12.12 140.797 12.26 140.997 12.42C141.197 12.54 141.377 12.68 141.537 12.84C141.697 12.96 141.817 13.06 141.897 13.14C142.017 13.22 142.257 13.44 142.617 13.8C143.017 14.16 143.277 14.44 143.397 14.64C143.517 14.64 143.617 14.68 143.697 14.76L143.817 14.88C143.977 15.08 144.137 15.36 144.297 15.72C144.497 16.08 144.597 16.3 144.597 16.38C144.677 16.5 144.817 16.82 145.017 17.34C145.217 17.86 145.357 18.18 145.437 18.3C145.477 18.46 145.517 18.72 145.557 19.08C145.637 19.4 145.677 19.6 145.677 19.68C145.677 19.72 145.657 20.02 145.617 20.58C145.577 21.14 145.537 21.58 145.497 21.9C145.457 22.06 145.437 22.24 145.437 22.44C145.437 22.64 145.417 22.84 145.377 23.04C145.337 23.28 145.317 23.54 145.317 23.82C145.317 23.9 145.197 24.18 144.957 24.66C144.717 25.14 144.557 25.52 144.477 25.8C144.437 25.88 144.377 25.96 144.297 26.04C144.217 26.12 144.157 26.2 144.117 26.28C144.077 26.32 144.037 26.32 143.997 26.28C143.997 26.36 143.917 26.54 143.757 26.82C143.597 27.06 143.477 27.24 143.397 27.36C143.197 27.48 142.957 27.68 142.677 27.96C142.437 28.2 142.277 28.36 142.197 28.44C142.197 28.52 142.097 28.64 141.897 28.8C141.697 28.92 141.597 29.02 141.597 29.1C141.437 29.14 141.137 29.32 140.697 29.64C140.257 29.96 139.977 30.18 139.857 30.3C139.777 30.3 139.677 30.48 139.557 30.84C139.477 31.16 139.437 31.36 139.437 31.44C139.397 31.56 139.317 31.76 139.197 32.04C139.077 32.28 139.017 32.44 139.017 32.52L138.897 32.64C138.857 32.68 138.757 32.7 138.597 32.7C138.597 32.66 138.557 32.56 138.477 32.4C138.397 32.24 138.357 32.14 138.357 32.1C138.317 32.02 138.277 31.84 138.237 31.56C138.197 31.28 138.177 31.1 138.177 31.02L137.337 31.26L136.977 34.92C136.937 34.96 136.877 35 136.797 35.04C136.637 35.12 136.517 35.16 136.437 35.16H136.377H136.197C136.117 35.08 136.037 34.9 135.957 34.62C135.917 34.34 135.917 34.16 135.957 34.08C135.957 33.88 135.937 33.46 135.897 32.82C135.857 32.18 135.837 31.76 135.837 31.56C135.637 31.44 135.257 31.34 134.697 31.26C134.177 31.14 133.797 31.04 133.557 30.96L133.317 31.08L132.777 41.04C132.777 41.12 132.677 41.3 132.477 41.58C132.277 41.86 132.137 42.08 132.057 42.24C131.977 42.28 131.857 42.36 131.697 42.48C131.537 42.64 131.357 42.8 131.157 42.96C130.997 43.12 130.817 43.26 130.617 43.38C130.457 43.54 130.337 43.64 130.257 43.68C130.137 43.72 129.917 43.82 129.597 43.98C129.277 44.14 129.057 44.2 128.937 44.16H128.397L127.917 44.1C127.877 44.1 127.817 44.06 127.737 43.98C127.697 43.9 127.637 43.84 127.557 43.8ZM131.757 13.86C131.757 13.94 131.737 14.12 131.697 14.4C131.697 14.68 131.697 14.86 131.697 14.94C131.737 15.02 131.797 15.34 131.877 15.9C131.957 16.46 132.017 17.1 132.057 17.82C132.137 18.5 132.197 19.2 132.237 19.92C132.317 20.6 132.377 21.12 132.417 21.48C132.457 21.64 132.497 21.88 132.537 22.2C132.617 22.48 132.657 22.66 132.657 22.74L132.777 22.86C132.857 22.94 132.897 23.04 132.897 23.16C133.017 23.24 133.197 23.38 133.437 23.58C133.677 23.74 133.917 23.92 134.157 24.12C134.397 24.32 134.597 24.5 134.757 24.66C134.957 24.82 135.077 24.92 135.117 24.96C135.277 25.16 135.577 25.4 136.017 25.68C136.497 25.92 136.817 26.04 136.977 26.04C137.177 26.08 137.357 26.1 137.517 26.1C137.677 26.14 137.817 26.16 137.937 26.16C138.097 26.16 138.217 26.16 138.297 26.16C138.457 26.2 138.737 26.24 139.137 26.28C139.537 26.28 139.777 26.28 139.857 26.28C139.897 26.28 139.977 26.16 140.097 25.92C140.217 25.68 140.277 25.52 140.277 25.44C140.317 25.36 140.337 25.18 140.337 24.9C140.377 24.58 140.397 24.34 140.397 24.18C140.397 24.1 140.397 24.02 140.397 23.94C140.437 23.82 140.457 23.7 140.457 23.58C140.457 23.42 140.477 23.26 140.517 23.1C140.437 22.98 140.377 22.76 140.337 22.44C140.297 22.12 140.277 21.9 140.277 21.78C140.197 21.58 140.057 21.22 139.857 20.7C139.657 20.18 139.517 19.86 139.437 19.74C139.437 19.7 139.357 19.58 139.197 19.38C139.037 19.18 138.857 18.98 138.657 18.78C138.497 18.54 138.317 18.32 138.117 18.12C137.957 17.88 137.837 17.72 137.757 17.64C137.677 17.64 137.557 17.6 137.397 17.52C137.277 17.48 137.177 17.42 137.097 17.34C137.057 17.54 136.957 17.9 136.797 18.42C136.677 18.94 136.577 19.3 136.497 19.5L136.137 19.8C136.097 19.8 136.057 19.74 136.017 19.62C135.977 19.58 135.957 19.52 135.957 19.44C135.877 19.4 135.797 19.26 135.717 19.02C135.677 18.78 135.657 18.62 135.657 18.54C135.657 18.5 135.657 18.36 135.657 18.12C135.657 17.88 135.637 17.62 135.597 17.34C135.597 17.06 135.597 16.82 135.597 16.62C135.597 16.38 135.597 16.24 135.597 16.2C135.597 16.16 135.537 16.1 135.417 16.02C135.337 15.94 135.257 15.86 135.177 15.78C134.977 15.66 134.717 15.5 134.397 15.3C134.077 15.1 133.757 14.9 133.437 14.7C133.117 14.46 132.817 14.26 132.537 14.1C132.297 13.94 132.157 13.86 132.117 13.86H131.757ZM146.346 33.48C146.346 33.4 146.446 33.2 146.646 32.88C146.846 32.52 146.986 32.3 147.066 32.22V29.16V26.04C147.026 25.92 146.966 25.6 146.886 25.08C146.846 24.52 146.786 23.92 146.706 23.28C146.626 22.6 146.546 21.94 146.466 21.3C146.426 20.66 146.386 20.16 146.346 19.8C146.346 19.64 146.286 19.28 146.166 18.72C146.086 18.12 145.986 17.46 145.866 16.74C145.786 16.02 145.706 15.32 145.626 14.64C145.546 13.92 145.486 13.4 145.446 13.08C145.366 12.84 145.286 12.52 145.206 12.12C145.126 11.72 145.046 11.32 144.966 10.92C144.926 10.48 144.886 10.1 144.846 9.78C144.766 9.46 144.726 9.26 144.726 9.18C144.726 9.14 144.706 9.06 144.666 8.94C144.586 8.78 144.506 8.62 144.426 8.46C144.306 8.3 144.206 8.12 144.126 7.92V7.56V7.32C144.126 7.24 144.166 7.08 144.246 6.84C144.326 6.56 144.366 6.38 144.366 6.3C144.446 6.02 144.566 5.76 144.726 5.52C144.806 5.36 144.906 5.18 145.026 4.98C145.146 4.82 145.406 4.54 145.806 4.14C146.206 3.74 146.486 3.48 146.646 3.36C146.726 3.28 146.926 3.18 147.246 3.06C147.606 2.9 147.846 2.78 147.966 2.7H148.266H148.686C148.766 2.78 148.866 2.9 148.986 3.06C149.146 3.18 149.226 3.28 149.226 3.36C149.306 3.36 149.366 3.58 149.406 4.02C149.486 4.46 149.546 4.78 149.586 4.98C149.626 5.18 149.666 5.48 149.706 5.88C149.786 6.24 149.866 6.64 149.946 7.08C150.026 7.48 150.086 7.86 150.126 8.22C150.206 8.58 150.266 8.82 150.306 8.94C150.346 9.22 150.406 9.7 150.486 10.38C150.566 11.02 150.646 11.7 150.726 12.42C150.846 13.14 150.946 13.82 151.026 14.46C151.146 15.06 151.206 15.46 151.206 15.66C151.246 15.9 151.286 16.3 151.326 16.86C151.406 17.38 151.486 17.94 151.566 18.54C151.646 19.1 151.706 19.64 151.746 20.16C151.826 20.68 151.886 21.02 151.926 21.18C151.926 21.42 151.946 21.76 151.986 22.2C152.026 22.6 152.046 23.02 152.046 23.46C152.086 23.9 152.126 24.3 152.166 24.66C152.206 25.02 152.226 25.26 152.226 25.38V29.7V33.84C152.226 33.92 152.126 34.14 151.926 34.5C151.726 34.82 151.586 35.02 151.506 35.1C151.426 35.26 151.266 35.52 151.026 35.88C150.786 36.2 150.646 36.4 150.606 36.48C150.606 36.6 150.586 36.84 150.546 37.2C150.506 37.6 150.466 38 150.426 38.4C150.426 38.8 150.406 39.18 150.366 39.54C150.326 39.94 150.306 40.2 150.306 40.32C150.226 40.4 150.146 40.6 150.066 40.92C150.026 41.28 149.966 41.54 149.886 41.7C149.886 41.66 149.866 41.6 149.826 41.52C149.786 41.48 149.746 41.42 149.706 41.34C149.666 41.26 149.626 41.16 149.586 41.04C149.586 40.92 149.566 40.68 149.526 40.32C149.486 39.96 149.446 39.58 149.406 39.18C149.366 38.82 149.326 38.46 149.286 38.1C149.246 37.74 149.226 37.5 149.226 37.38V46.8L148.986 48.42C148.986 48.38 148.966 48.24 148.926 48C148.886 47.8 148.846 47.58 148.806 47.34C148.806 47.1 148.786 46.86 148.746 46.62C148.706 46.42 148.686 46.28 148.686 46.2C148.646 46.08 148.586 45.72 148.506 45.12C148.466 44.56 148.426 43.94 148.386 43.26C148.346 42.58 148.306 41.94 148.266 41.34C148.266 40.78 148.266 40.44 148.266 40.32C148.266 40.16 148.246 39.92 148.206 39.6C148.166 39.32 148.126 39.02 148.086 38.7C148.086 38.38 148.066 38.1 148.026 37.86C147.986 37.62 147.966 37.46 147.966 37.38C147.846 37.26 147.746 37.12 147.666 36.96C147.586 36.84 147.506 36.74 147.426 36.66C147.386 36.58 147.366 36.52 147.366 36.48C147.286 36.4 147.226 36.3 147.186 36.18C147.106 35.94 147.066 35.8 147.066 35.76C146.986 35.76 146.846 35.68 146.646 35.52C146.446 35.32 146.346 35.18 146.346 35.1V34.38V33.48ZM161.039 41.58C160.999 41.46 160.959 41.24 160.919 40.92C160.879 40.6 160.839 40.26 160.799 39.9C160.799 39.58 160.779 39.26 160.739 38.94C160.699 38.66 160.659 38.46 160.619 38.34C160.619 38.14 160.559 37.74 160.439 37.14C160.359 36.58 160.319 36.22 160.319 36.06C160.279 35.98 160.179 35.92 160.019 35.88C159.859 35.8 159.759 35.72 159.719 35.64C159.639 35.64 159.399 35.6 158.999 35.52C158.639 35.4 158.419 35.34 158.339 35.34C158.219 35.34 158.059 35.32 157.859 35.28C157.659 35.2 157.459 35.12 157.259 35.04C157.059 34.96 156.879 34.9 156.719 34.86C156.559 34.78 156.479 34.74 156.479 34.74C156.399 34.74 156.219 34.64 155.939 34.44C155.699 34.24 155.539 34.1 155.459 34.02C155.379 33.94 155.259 33.82 155.099 33.66C154.979 33.5 154.819 33.34 154.619 33.18C154.459 33.02 154.299 32.88 154.139 32.76C153.979 32.6 153.879 32.48 153.839 32.4L153.719 32.16C153.679 32.08 153.639 32.02 153.599 31.98C153.559 31.9 153.519 31.82 153.479 31.74C153.479 31.66 153.439 31.5 153.359 31.26C153.279 31.02 153.239 30.86 153.239 30.78V29.94V29.16C153.239 29.08 153.319 28.8 153.479 28.32C153.679 27.84 153.799 27.48 153.839 27.24C153.839 27.2 153.939 27 154.139 26.64C154.339 26.28 154.479 26.04 154.559 25.92C154.639 25.84 154.739 25.68 154.859 25.44C154.939 25.32 155.019 25.18 155.099 25.02C155.259 24.86 155.519 24.6 155.879 24.24C156.239 23.84 156.619 23.46 157.019 23.1C157.419 22.7 157.779 22.36 158.099 22.08C158.419 21.76 158.619 21.56 158.699 21.48C158.739 21.44 158.839 21.36 158.999 21.24C159.199 21.12 159.399 21 159.599 20.88C159.799 20.72 159.999 20.58 160.199 20.46C160.399 20.34 160.539 20.24 160.619 20.16C160.659 20.12 160.779 20.06 160.979 19.98C161.179 19.86 161.379 19.76 161.579 19.68C161.779 19.56 161.979 19.46 162.179 19.38C162.379 19.26 162.539 19.18 162.659 19.14C162.739 19.1 162.979 19 163.379 18.84C163.779 18.68 164.079 18.58 164.279 18.54C164.359 18.46 164.519 18.4 164.759 18.36C164.999 18.28 165.139 18.24 165.179 18.24C165.339 18.2 165.559 18.14 165.839 18.06C166.159 17.94 166.439 17.86 166.679 17.82C166.959 17.74 167.199 17.68 167.399 17.64C167.639 17.56 167.779 17.52 167.819 17.52C167.819 17.52 167.959 17.52 168.239 17.52C168.519 17.52 168.839 17.52 169.199 17.52C169.559 17.48 169.919 17.46 170.279 17.46C170.639 17.46 170.919 17.46 171.119 17.46C171.239 17.46 171.459 17.46 171.779 17.46C172.139 17.46 172.499 17.48 172.859 17.52C173.259 17.52 173.619 17.52 173.939 17.52C174.299 17.52 174.539 17.52 174.659 17.52C174.739 17.52 174.899 17.62 175.139 17.82C175.379 18.02 175.539 18.16 175.619 18.24C175.619 18.24 175.679 18.3 175.799 18.42L175.919 18.54L175.979 18.78C175.979 18.86 175.959 18.94 175.919 19.02C175.919 19.06 175.919 19.1 175.919 19.14C175.919 19.22 175.859 19.44 175.739 19.8C175.659 20.12 175.619 20.32 175.619 20.4C175.619 20.44 175.639 20.6 175.679 20.88C175.719 21.16 175.759 21.5 175.799 21.9C175.879 22.3 175.959 22.7 176.039 23.1C176.119 23.46 176.199 23.76 176.279 24C176.279 24.08 176.299 24.26 176.339 24.54C176.419 24.78 176.479 25.06 176.519 25.38C176.599 25.66 176.659 25.96 176.699 26.28C176.779 26.56 176.819 26.76 176.819 26.88C176.859 27.04 176.919 27.26 176.999 27.54C177.079 27.82 177.159 28.1 177.239 28.38C177.319 28.66 177.379 28.92 177.419 29.16C177.499 29.4 177.539 29.54 177.539 29.58C177.579 29.66 177.679 29.94 177.839 30.42C177.999 30.9 178.099 31.26 178.139 31.5C178.179 31.5 178.219 31.58 178.259 31.74C178.339 31.9 178.419 32.08 178.499 32.28C178.579 32.44 178.639 32.62 178.679 32.82C178.759 32.98 178.819 33.08 178.859 33.12C178.939 33.32 179.039 33.68 179.159 34.2C179.319 34.72 179.439 35.02 179.519 35.1V35.52V36.06C179.439 36.14 179.359 36.3 179.279 36.54C179.239 36.78 179.199 36.92 179.159 36.96C179.079 37.08 178.919 37.26 178.679 37.5C178.479 37.74 178.259 37.98 178.019 38.22C177.779 38.46 177.539 38.68 177.299 38.88C177.099 39.12 176.939 39.26 176.819 39.3C176.699 39.38 176.579 39.44 176.459 39.48C176.219 39.56 176.039 39.6 175.919 39.6H175.379H174.899L174.659 39.3C174.579 39.22 174.459 38.96 174.299 38.52C174.179 38.12 174.079 37.84 173.999 37.68C173.919 37.56 173.819 37.34 173.699 37.02C173.619 36.74 173.519 36.44 173.399 36.12C173.319 35.84 173.239 35.56 173.159 35.28C173.079 35 173.039 34.82 173.039 34.74C172.959 34.62 172.859 34.4 172.739 34.08C172.659 33.72 172.559 33.36 172.439 33C172.359 32.6 172.259 32.24 172.139 31.92C172.059 31.56 171.999 31.32 171.959 31.2L171.659 30.78C171.579 30.9 171.399 31.1 171.119 31.38C170.839 31.62 170.539 31.88 170.219 32.16C169.939 32.44 169.639 32.72 169.319 33C169.039 33.24 168.839 33.4 168.719 33.48C168.639 33.48 168.479 33.58 168.239 33.78C167.999 33.94 167.859 34.02 167.819 34.02C167.579 34.14 167.219 34.34 166.739 34.62C166.259 34.86 165.979 35.02 165.899 35.1C165.779 35.14 165.579 35.22 165.299 35.34C165.019 35.42 164.719 35.5 164.399 35.58C164.079 35.66 163.779 35.76 163.499 35.88C163.219 35.96 163.039 36.02 162.959 36.06C162.879 36.18 162.819 36.28 162.779 36.36C162.699 36.6 162.659 36.72 162.659 36.72C162.579 36.72 162.499 36.76 162.419 36.84C162.379 36.92 162.319 36.96 162.239 36.96L161.939 36.72C161.899 36.64 161.819 36.5 161.699 36.3C161.579 36.14 161.479 36.06 161.399 36.06V41.82L161.039 41.58ZM158.339 27.96C158.419 28 158.479 28.06 158.519 28.14C158.559 28.22 158.579 28.3 158.579 28.38C158.619 28.42 158.659 28.46 158.699 28.5C158.699 28.58 158.799 28.72 158.999 28.92C159.199 29.08 159.339 29.16 159.419 29.16C159.499 29.24 159.659 29.38 159.899 29.58C160.139 29.78 160.279 29.88 160.319 29.88C160.559 29.92 160.919 30.04 161.399 30.24C161.879 30.4 162.159 30.48 162.239 30.48H164.579H166.799C166.879 30.48 166.999 30.44 167.159 30.36C167.319 30.28 167.439 30.2 167.519 30.12C167.679 30.04 167.919 29.84 168.239 29.52C168.559 29.16 168.719 28.94 168.719 28.86C168.799 28.82 168.919 28.56 169.079 28.08C169.239 27.56 169.359 27.16 169.439 26.88C169.479 26.76 169.539 26.5 169.619 26.1C169.739 25.7 169.799 25.42 169.799 25.26V24V22.68C169.719 22.6 169.599 22.54 169.439 22.5C169.319 22.42 169.219 22.38 169.139 22.38H167.819H166.559C166.479 22.38 166.359 22.4 166.199 22.44C166.039 22.48 165.879 22.52 165.719 22.56C165.559 22.6 165.379 22.64 165.179 22.68C165.059 22.8 164.959 23.06 164.879 23.46C164.839 23.86 164.859 24.14 164.939 24.3L164.279 23.1C164.199 23.26 164.119 23.58 164.039 24.06C163.999 24.54 163.939 24.86 163.859 25.02C163.859 25.06 163.799 25.16 163.679 25.32C163.599 25.48 163.559 25.58 163.559 25.62C163.519 25.62 163.459 25.58 163.379 25.5C163.339 25.42 163.319 25.34 163.319 25.26C163.239 25.14 163.159 24.84 163.079 24.36C162.999 23.84 162.959 23.52 162.959 23.4H162.659H162.239C162.159 23.4 161.879 23.54 161.399 23.82C160.919 24.06 160.559 24.22 160.319 24.3C160.279 24.38 160.139 24.5 159.899 24.66C159.659 24.82 159.499 24.94 159.419 25.02C159.339 25.06 159.199 25.16 158.999 25.32C158.799 25.48 158.699 25.58 158.699 25.62C158.659 25.7 158.579 25.82 158.459 25.98C158.379 26.14 158.339 26.26 158.339 26.34V27.18V27.96ZM192.976 37.08H192.136C192.136 37.16 192.116 37.3 192.076 37.5C192.076 37.74 192.056 38 192.016 38.28C191.976 38.56 191.936 38.82 191.896 39.06C191.896 39.34 191.896 39.54 191.896 39.66C191.856 39.74 191.816 39.86 191.776 40.02C191.736 40.22 191.696 40.42 191.656 40.62C191.616 40.82 191.576 41.04 191.536 41.28H191.236C191.196 41.08 191.156 40.9 191.116 40.74C191.076 40.58 191.016 40.42 190.936 40.26C190.896 40.14 190.856 40.04 190.816 39.96C190.816 39.84 190.796 39.62 190.756 39.3C190.716 39.02 190.676 38.7 190.636 38.34C190.636 38.02 190.616 37.7 190.576 37.38C190.536 37.06 190.516 36.84 190.516 36.72L190.276 36.42C190.116 36.34 189.816 36.2 189.376 36C188.976 35.8 188.736 35.7 188.656 35.7C188.456 35.66 188.096 35.52 187.576 35.28C187.096 35.04 186.796 34.88 186.676 34.8C186.636 34.76 186.516 34.68 186.316 34.56C186.156 34.44 185.976 34.32 185.776 34.2C185.576 34.04 185.376 33.9 185.176 33.78C184.976 33.66 184.836 33.56 184.756 33.48C184.636 33.4 184.396 33.24 184.036 33C183.676 32.72 183.476 32.54 183.436 32.46C183.356 32.38 183.196 32.24 182.956 32.04C182.756 31.8 182.536 31.58 182.296 31.38C182.056 31.14 181.816 30.92 181.576 30.72C181.376 30.48 181.216 30.32 181.096 30.24C181.016 30.16 180.836 29.9 180.556 29.46C180.276 29.02 180.056 28.74 179.896 28.62C179.816 28.54 179.676 28.38 179.476 28.14C179.276 27.86 179.176 27.68 179.176 27.6C179.096 27.48 178.976 27.26 178.816 26.94C178.696 26.62 178.536 26.3 178.336 25.98C178.176 25.62 178.016 25.3 177.856 25.02C177.696 24.7 177.596 24.48 177.556 24.36C177.516 24.32 177.456 24.18 177.376 23.94C177.336 23.7 177.276 23.54 177.196 23.46C177.196 23.38 177.176 23.26 177.136 23.1C177.136 22.9 177.116 22.7 177.076 22.5C177.036 22.3 176.996 22.08 176.956 21.84V20.52V19.14C176.956 19.06 176.996 18.86 177.076 18.54C177.156 18.18 177.196 17.96 177.196 17.88C177.276 17.76 177.436 17.46 177.676 16.98C177.956 16.46 178.156 16.1 178.276 15.9C178.276 15.82 178.356 15.66 178.516 15.42C178.716 15.18 178.816 15.02 178.816 14.94C178.976 14.78 179.296 14.46 179.776 13.98C180.256 13.5 180.596 13.18 180.796 13.02C180.876 12.98 181.036 12.88 181.276 12.72C181.556 12.56 181.736 12.46 181.816 12.42C181.896 12.34 182.036 12.24 182.236 12.12C182.436 12 182.636 11.9 182.836 11.82C183.036 11.7 183.216 11.6 183.376 11.52C183.536 11.44 183.636 11.4 183.676 11.4C183.836 11.36 184.076 11.3 184.396 11.22C184.756 11.1 184.976 11.04 185.056 11.04H186.676H188.296C188.336 11.04 188.536 11.1 188.896 11.22C189.256 11.3 189.496 11.36 189.616 11.4C189.696 11.44 189.836 11.5 190.036 11.58C190.236 11.62 190.436 11.68 190.636 11.76C190.836 11.8 191.016 11.84 191.176 11.88C191.376 11.92 191.496 11.94 191.536 11.94C191.656 12.02 191.876 12.14 192.196 12.3C192.516 12.46 192.736 12.58 192.856 12.66C193.016 12.82 193.336 13.06 193.816 13.38C194.296 13.66 194.616 13.88 194.776 14.04C194.816 14.08 195.076 14.3 195.556 14.7C196.076 15.1 196.476 15.42 196.756 15.66L196.996 15.9C197.156 16.06 197.356 16.32 197.596 16.68C197.876 17 198.016 17.2 198.016 17.28C198.016 17.36 198.036 17.46 198.076 17.58C198.156 17.7 198.236 17.82 198.316 17.94C198.396 18.1 198.496 18.26 198.616 18.42V18.96V19.5C198.616 19.58 198.516 19.8 198.316 20.16C198.156 20.48 198.056 20.68 198.016 20.76C197.976 20.84 197.876 20.96 197.716 21.12C197.556 21.28 197.376 21.46 197.176 21.66C197.016 21.82 196.856 21.98 196.696 22.14C196.536 22.26 196.436 22.34 196.396 22.38C196.316 22.46 196.116 22.58 195.796 22.74C195.476 22.86 195.256 22.96 195.136 23.04H194.776H194.476C194.316 23.04 194.116 23 193.876 22.92C193.716 22.88 193.596 22.82 193.516 22.74C193.356 22.7 193.196 22.6 193.036 22.44C192.916 22.28 192.856 22.18 192.856 22.14C192.776 21.98 192.736 21.76 192.736 21.48C192.736 21.16 192.776 20.92 192.856 20.76C192.776 20.72 192.636 20.62 192.436 20.46C192.276 20.26 192.096 20.06 191.896 19.86C191.696 19.62 191.496 19.42 191.296 19.26C191.096 19.1 190.936 18.98 190.816 18.9C190.736 18.82 190.456 18.62 189.976 18.3C189.496 17.94 189.136 17.68 188.896 17.52C188.776 17.44 188.556 17.32 188.236 17.16C187.916 17 187.696 16.88 187.576 16.8H187.456H187.276C187.276 17.04 187.236 17.42 187.156 17.94C187.076 18.42 187.036 18.74 187.036 18.9C186.956 18.94 186.896 18.98 186.856 19.02C186.816 19.06 186.776 19.08 186.736 19.08C186.696 19.08 186.676 19.1 186.676 19.14L186.496 19.26C186.416 19.26 186.376 19.24 186.376 19.2V19.14C186.296 19.14 186.216 19.04 186.136 18.84C186.096 18.64 186.036 18.5 185.956 18.42C185.956 18.38 185.936 18.26 185.896 18.06C185.856 17.82 185.816 17.58 185.776 17.34C185.776 17.1 185.756 16.88 185.716 16.68C185.676 16.48 185.656 16.34 185.656 16.26C185.536 16.22 185.216 16.16 184.696 16.08C184.216 15.96 183.876 15.9 183.676 15.9H183.496H183.436C183.356 15.9 183.136 15.96 182.776 16.08C182.456 16.16 182.216 16.22 182.056 16.26V17.64V19.14C182.056 19.3 182.096 19.54 182.176 19.86C182.296 20.14 182.376 20.36 182.416 20.52L184.036 23.76C184.116 23.8 184.236 23.94 184.396 24.18C184.556 24.42 184.676 24.58 184.756 24.66C184.916 24.86 185.176 25.16 185.536 25.56C185.936 25.92 186.336 26.32 186.736 26.76C187.176 27.16 187.576 27.54 187.936 27.9C188.296 28.26 188.536 28.5 188.656 28.62C188.696 28.62 188.796 28.68 188.956 28.8C189.116 28.92 189.296 29.06 189.496 29.22C189.696 29.38 189.896 29.54 190.096 29.7C190.296 29.82 190.436 29.9 190.516 29.94C190.676 30.02 190.996 30.18 191.476 30.42C191.956 30.66 192.276 30.8 192.436 30.84C192.556 30.84 192.736 30.9 192.976 31.02C193.256 31.1 193.436 31.14 193.516 31.14H194.056V30.84C194.056 30.8 193.996 30.7 193.876 30.54C193.796 30.38 193.756 30.28 193.756 30.24V29.52V28.86C193.756 28.78 193.796 28.62 193.876 28.38C193.996 28.14 194.056 27.98 194.056 27.9C194.096 27.86 194.216 27.76 194.416 27.6C194.616 27.4 194.816 27.2 195.016 27C195.216 26.8 195.416 26.6 195.616 26.4C195.816 26.2 195.976 26.06 196.096 25.98C196.176 25.94 196.276 25.9 196.396 25.86C196.556 25.78 196.676 25.7 196.756 25.62H197.296H198.016C198.056 25.62 198.096 25.68 198.136 25.8C198.216 25.88 198.296 25.94 198.376 25.98C198.416 26.06 198.496 26.22 198.616 26.46C198.736 26.7 198.856 26.96 198.976 27.24C199.136 27.52 199.276 27.8 199.396 28.08C199.516 28.32 199.596 28.5 199.636 28.62C199.676 28.66 199.736 28.8 199.816 29.04C199.936 29.28 199.996 29.44 199.996 29.52V30.78V31.86C199.996 31.9 199.936 32.04 199.816 32.28C199.736 32.52 199.676 32.68 199.636 32.76C199.636 32.84 199.616 32.92 199.576 33C199.536 33.04 199.496 33.1 199.456 33.18C199.416 33.3 199.376 33.4 199.336 33.48C199.256 33.52 199.096 33.72 198.856 34.08C198.616 34.44 198.456 34.68 198.376 34.8C198.296 34.8 198.216 34.86 198.136 34.98C198.096 35.06 198.056 35.1 198.016 35.1C197.936 35.22 197.716 35.4 197.356 35.64C197.036 35.88 196.836 36 196.756 36C196.676 36.08 196.556 36.14 196.396 36.18C196.276 36.26 196.176 36.34 196.096 36.42C195.976 36.42 195.716 36.5 195.316 36.66C194.916 36.86 194.636 37 194.476 37.08C194.476 37.32 194.456 37.76 194.416 38.4C194.416 39.04 194.396 39.72 194.356 40.44C194.316 41.16 194.256 41.84 194.176 42.48C194.136 43.12 194.096 43.56 194.056 43.8C194.056 43.88 194.016 44.08 193.936 44.4C193.896 44.76 193.836 45.02 193.756 45.18L193.516 45.42L192.976 44.82V37.08ZM213.38 37.8C213.38 37.96 213.32 38.32 213.2 38.88C213.12 39.48 213.04 39.88 212.96 40.08L212.66 40.62L212.12 40.32V36.48C212.04 36.44 211.86 36.38 211.58 36.3C211.34 36.26 211.08 36.2 210.8 36.12C210.52 36.04 210.24 35.98 209.96 35.94C209.72 35.86 209.54 35.8 209.42 35.76C209.34 35.76 209.2 35.74 209 35.7C208.84 35.62 208.66 35.54 208.46 35.46C208.26 35.38 208.06 35.32 207.86 35.28C207.66 35.2 207.52 35.14 207.44 35.1C207.36 35.1 207.16 35.04 206.84 34.92C206.56 34.76 206.34 34.64 206.18 34.56C206.14 34.48 206 34.36 205.76 34.2C205.52 34.04 205.36 33.92 205.28 33.84C205.16 33.72 204.92 33.54 204.56 33.3C204.2 33.06 204 32.94 203.96 32.94C203.88 32.82 203.66 32.58 203.3 32.22C202.98 31.86 202.74 31.66 202.58 31.62C202.58 31.54 202.44 31.34 202.16 31.02C201.92 30.7 201.74 30.44 201.62 30.24C201.54 30.16 201.42 30 201.26 29.76C201.14 29.52 201.04 29.36 200.96 29.28C200.92 29.2 200.84 29.08 200.72 28.92C200.64 28.72 200.56 28.52 200.48 28.32C200.4 28.08 200.3 27.88 200.18 27.72C200.1 27.52 200.04 27.4 200 27.36C199.92 27.24 199.8 26.94 199.64 26.46C199.52 25.94 199.42 25.58 199.34 25.38C199.34 25.26 199.3 24.96 199.22 24.48C199.14 23.96 199.1 23.64 199.1 23.52V21.9V20.28C199.1 20.2 199.14 19.94 199.22 19.5C199.3 19.06 199.34 18.78 199.34 18.66C199.42 18.42 199.52 18.06 199.64 17.58C199.8 17.06 199.92 16.72 200 16.56C200.04 16.56 200.1 16.48 200.18 16.32C200.3 16.16 200.4 15.98 200.48 15.78C200.56 15.58 200.64 15.38 200.72 15.18C200.84 14.98 200.92 14.82 200.96 14.7C201.04 14.62 201.14 14.46 201.26 14.22C201.42 13.98 201.54 13.84 201.62 13.8C201.74 13.64 201.92 13.4 202.16 13.08C202.44 12.72 202.58 12.5 202.58 12.42C202.66 12.34 202.82 12.18 203.06 11.94C203.34 11.7 203.54 11.54 203.66 11.46C203.66 11.38 203.82 11.22 204.14 10.98C204.46 10.74 204.7 10.6 204.86 10.56L205.82 9.84C206.02 9.76 206.36 9.6 206.84 9.36C207.36 9.12 207.68 8.98 207.8 8.94C207.88 8.94 208.04 8.88 208.28 8.76C208.56 8.64 208.74 8.54 208.82 8.46C209.02 8.46 209.26 8.42 209.54 8.34C209.86 8.26 210.06 8.22 210.14 8.22H211.88H213.68C213.72 8.22 213.98 8.26 214.46 8.34C214.98 8.42 215.38 8.46 215.66 8.46C215.78 8.54 216.06 8.64 216.5 8.76C216.94 8.88 217.2 8.94 217.28 8.94C217.4 8.94 217.7 9.04 218.18 9.24C218.7 9.4 219.02 9.5 219.14 9.54C219.22 9.58 219.38 9.66 219.62 9.78C219.86 9.9 220.12 10.02 220.4 10.14C220.68 10.26 220.94 10.4 221.18 10.56C221.46 10.68 221.66 10.76 221.78 10.8C221.9 10.88 222.08 11 222.32 11.16C222.56 11.28 222.68 11.38 222.68 11.46C222.8 11.58 223.04 11.8 223.4 12.12C223.76 12.44 223.96 12.66 224 12.78C224.08 12.86 224.22 13.08 224.42 13.44C224.62 13.76 224.72 13.96 224.72 14.04V14.94V16.02C224.68 16.14 224.64 16.28 224.6 16.44C224.56 16.56 224.5 16.68 224.42 16.8C224.38 16.88 224.34 16.96 224.3 17.04C224.3 17.08 224.26 17.18 224.18 17.34C224.14 17.5 224.08 17.6 224 17.64C223.96 17.72 223.82 17.94 223.58 18.3C223.34 18.62 223.18 18.82 223.1 18.9C223.02 18.98 222.86 19.16 222.62 19.44C222.38 19.72 222.22 19.9 222.14 19.98C221.98 20.06 221.72 20.22 221.36 20.46C221.04 20.7 220.84 20.84 220.76 20.88C220.76 20.92 220.68 21 220.52 21.12C220.36 21.2 220.18 21.3 219.98 21.42C219.78 21.5 219.58 21.6 219.38 21.72C219.18 21.8 219.02 21.86 218.9 21.9C218.82 21.9 218.64 21.94 218.36 22.02C218.12 22.1 217.94 22.14 217.82 22.14C217.66 22.22 217.44 22.3 217.16 22.38C216.88 22.46 216.7 22.5 216.62 22.5C216.5 22.5 216.28 22.52 215.96 22.56C215.64 22.6 215.3 22.64 214.94 22.68C214.58 22.68 214.24 22.7 213.92 22.74C213.64 22.78 213.46 22.8 213.38 22.8H211.76H210.14C210.02 22.8 209.72 22.78 209.24 22.74C208.8 22.7 208.32 22.68 207.8 22.68C207.28 22.64 206.8 22.6 206.36 22.56C205.92 22.52 205.66 22.5 205.58 22.5H205.04H204.56C204.56 22.58 204.6 22.76 204.68 23.04C204.8 23.28 204.86 23.44 204.86 23.52C204.94 23.64 205.1 23.96 205.34 24.48C205.58 24.96 205.74 25.26 205.82 25.38C205.9 25.54 206.02 25.74 206.18 25.98C206.38 26.22 206.48 26.38 206.48 26.46C206.6 26.54 206.78 26.7 207.02 26.94C207.26 27.18 207.52 27.44 207.8 27.72C208.08 28 208.34 28.26 208.58 28.5C208.86 28.74 209.06 28.9 209.18 28.98C209.18 29.06 209.3 29.18 209.54 29.34C209.82 29.5 210.02 29.62 210.14 29.7C210.3 29.78 210.62 29.94 211.1 30.18C211.58 30.42 211.9 30.56 212.06 30.6C212.1 30.6 212.24 30.66 212.48 30.78C212.72 30.86 212.88 30.9 212.96 30.9C213.16 30.98 213.52 31.06 214.04 31.14C214.56 31.18 214.88 31.24 215 31.32H215.9H216.92C217.04 31.24 217.26 31.18 217.58 31.14C217.9 31.06 218.12 30.98 218.24 30.9L218.54 30.6V26.76C218.58 26.64 218.62 26.5 218.66 26.34C218.7 26.22 218.74 26.12 218.78 26.04C218.82 25.92 218.86 25.82 218.9 25.74C218.94 25.7 218.96 25.66 218.96 25.62C218.96 25.54 218.98 25.48 219.02 25.44C219.06 25.36 219.1 25.26 219.14 25.14L220.76 23.52C220.84 23.44 221.04 23.32 221.36 23.16C221.72 23 221.98 22.88 222.14 22.8H222.38H222.68C222.76 22.88 222.9 23 223.1 23.16C223.3 23.32 223.4 23.44 223.4 23.52C223.44 23.56 223.48 23.8 223.52 24.24C223.6 24.68 223.68 24.98 223.76 25.14V26.22V27.36C223.68 27.52 223.6 27.8 223.52 28.2C223.48 28.6 223.44 28.86 223.4 28.98C223.4 29.02 223.36 29.14 223.28 29.34C223.2 29.5 223.1 29.68 222.98 29.88C222.9 30.08 222.8 30.28 222.68 30.48C222.56 30.68 222.46 30.82 222.38 30.9C222.34 31.02 222.24 31.22 222.08 31.5C221.92 31.74 221.82 31.86 221.78 31.86C221.7 31.94 221.54 32.1 221.3 32.34C221.1 32.54 220.88 32.76 220.64 33C220.4 33.24 220.16 33.48 219.92 33.72C219.72 33.92 219.56 34.06 219.44 34.14C219.44 34.22 219.32 34.34 219.08 34.5C218.84 34.66 218.66 34.78 218.54 34.86C218.46 34.9 218.24 35 217.88 35.16C217.56 35.32 217.36 35.42 217.28 35.46C217.12 35.46 216.82 35.56 216.38 35.76C215.98 35.96 215.74 36.1 215.66 36.18C215.58 36.18 215.46 36.22 215.3 36.3C215.18 36.42 215.08 36.48 215 36.48C215 36.72 214.98 37.14 214.94 37.74C214.94 38.34 214.92 38.98 214.88 39.66C214.84 40.38 214.78 41.04 214.7 41.64C214.66 42.28 214.62 42.72 214.58 42.96C214.58 43.08 214.54 43.34 214.46 43.74C214.42 44.14 214.36 44.42 214.28 44.58C214.28 44.62 214.24 44.72 214.16 44.88C214.08 45.04 214.04 45.14 214.04 45.18C213.96 45.06 213.88 44.8 213.8 44.4C213.72 44 213.68 43.72 213.68 43.56C213.68 43.32 213.66 42.92 213.62 42.36C213.58 41.84 213.54 41.26 213.5 40.62C213.5 40.02 213.48 39.44 213.44 38.88C213.4 38.36 213.38 38 213.38 37.8ZM204.2 16.86C204.28 16.86 204.46 16.88 204.74 16.92C205.02 16.92 205.32 16.94 205.64 16.98C205.96 16.98 206.26 17 206.54 17.04C206.86 17.04 207.08 17.04 207.2 17.04L207.68 17.16C207.84 17.2 207.98 17.24 208.1 17.28C208.38 17.36 208.84 17.44 209.48 17.52C210.16 17.6 210.6 17.64 210.8 17.64H215.12H218.24L219.44 17.28C219.36 17.16 219.12 16.9 218.72 16.5C218.32 16.1 218.02 15.82 217.82 15.66C217.78 15.62 217.66 15.54 217.46 15.42C217.26 15.3 217.02 15.18 216.74 15.06C216.46 14.9 216.18 14.76 215.9 14.64C215.66 14.52 215.46 14.44 215.3 14.4C215.26 14.4 215.14 14.38 214.94 14.34C214.78 14.26 214.58 14.18 214.34 14.1C214.14 14.02 213.94 13.96 213.74 13.92C213.58 13.84 213.46 13.8 213.38 13.8C213.18 13.72 212.88 13.62 212.48 13.5C212.08 13.38 211.84 13.32 211.76 13.32H209.36H206.9C206.78 13.4 206.56 13.54 206.24 13.74C205.92 13.94 205.7 14.04 205.58 14.04L205.4 14.22C205.36 14.26 205.34 14.3 205.34 14.34C205.34 14.38 205.32 14.4 205.28 14.4C205.2 14.48 205.08 14.7 204.92 15.06C204.76 15.38 204.64 15.58 204.56 15.66C204.52 15.74 204.46 15.9 204.38 16.14C204.34 16.38 204.28 16.52 204.2 16.56V16.86Z" fill="white"/>
</svg>
