<svg width="196" height="54" viewBox="0 0 196 54" fill="none" xmlns="http://www.w3.org/2000/svg">
<path d="M19.22 31.56C19.26 31.36 19.26 31 19.22 30.48C19.22 29.92 19.22 29.58 19.22 29.46C19.14 29.46 18.98 29.5 18.74 29.58C18.5 29.66 18.36 29.74 18.32 29.82C18.24 29.86 18.08 29.92 17.84 30C17.64 30.04 17.4 30.1 17.12 30.18C16.88 30.26 16.64 30.34 16.4 30.42C16.2 30.5 16.04 30.54 15.92 30.54C15.84 30.62 15.62 30.72 15.26 30.84C14.94 30.96 14.74 31.06 14.66 31.14C14.58 31.3 14.5 31.6 14.42 32.04C14.38 32.44 14.32 32.88 14.24 33.36C14.16 33.8 14.08 34.24 14 34.68C13.92 35.08 13.86 35.36 13.82 35.52C13.82 35.6 13.82 35.76 13.82 36C13.82 36.2 13.8 36.44 13.76 36.72C13.76 36.96 13.74 37.2 13.7 37.44C13.7 37.64 13.68 37.78 13.64 37.86C13.64 37.9 13.6 38.04 13.52 38.28C13.44 38.52 13.36 38.66 13.28 38.7C13.2 38.82 13.06 39 12.86 39.24C12.7 39.48 12.6 39.64 12.56 39.72C12.48 39.8 12.26 40 11.9 40.32C11.54 40.64 11.3 40.82 11.18 40.86C11.1 40.9 10.92 41 10.64 41.16C10.4 41.32 10.22 41.4 10.1 41.4C9.94 41.44 9.8 41.48 9.68 41.52C9.36 41.6 9.18 41.64 9.14 41.64L8.96 41.58H8.84C8.76 41.54 8.62 41.42 8.42 41.22L8.18 40.98L8.96 31.86C8.88 31.9 8.72 31.9 8.48 31.86C8.28 31.82 8.06 31.78 7.82 31.74C7.58 31.66 7.36 31.6 7.16 31.56C6.96 31.48 6.84 31.4 6.8 31.32C6.72 31.28 6.56 31.14 6.32 30.9C6.08 30.62 5.92 30.44 5.84 30.36C5.88 30.28 5.9 30.2 5.9 30.12C5.9 30 5.9 29.9 5.9 29.82C5.9 29.74 5.9 29.66 5.9 29.58C5.94 29.46 5.96 29.36 5.96 29.28C5.96 29.2 6.06 29 6.26 28.68C6.5 28.36 6.68 28.16 6.8 28.08C6.84 28 6.94 27.88 7.1 27.72C7.26 27.52 7.44 27.34 7.64 27.18C7.84 26.98 8.02 26.8 8.18 26.64C8.34 26.48 8.46 26.36 8.54 26.28C8.46 26.16 8.4 25.94 8.36 25.62C8.36 25.26 8.32 25.04 8.24 24.96C8.24 24.8 8.2 24.56 8.12 24.24C8.08 23.92 8.02 23.58 7.94 23.22C7.86 22.86 7.78 22.54 7.7 22.26C7.66 21.94 7.64 21.74 7.64 21.66C7.56 21.46 7.42 21.04 7.22 20.4C7.06 19.72 6.94 19.28 6.86 19.08C6.86 18.96 6.8 18.76 6.68 18.48C6.6 18.2 6.5 17.9 6.38 17.58C6.26 17.26 6.14 16.96 6.02 16.68C5.9 16.36 5.82 16.14 5.78 16.02C5.82 15.86 5.76 15.6 5.6 15.24C5.44 14.88 5.32 14.66 5.24 14.58C5.24 14.5 5.14 14.26 4.94 13.86C4.7 13.42 4.54 13.1 4.46 12.9C4.38 12.82 4.28 12.66 4.16 12.42C4.04 12.14 3.94 11.96 3.86 11.88C3.78 11.8 3.64 11.64 3.44 11.4C3.2 11.12 3.04 10.96 2.96 10.92C2.92 10.8 2.76 10.58 2.48 10.26C2.16 9.94 1.96 9.78 1.88 9.78C1.8 9.74 1.72 9.68 1.64 9.6C1.52 9.52 1.48 9.44 1.52 9.36C1.44 9.28 1.34 9.12 1.22 8.88C1.1 8.64 1 8.46 0.92 8.34C0.92 8.26 0.9 8.1 0.86 7.86C0.78 7.62 0.74 7.48 0.74 7.44C0.78 7.36 0.84 7.2 0.92 6.96C1 6.72 1.06 6.56 1.1 6.48C1.18 6.36 1.3 6.18 1.46 5.94C1.62 5.7 1.74 5.54 1.82 5.46C1.98 5.34 2.26 5.16 2.66 4.92C3.02 4.64 3.22 4.48 3.26 4.44C3.34 4.36 3.56 4.24 3.92 4.08C4.28 3.88 4.5 3.8 4.58 3.84H4.94H5.24C5.32 3.88 5.42 3.94 5.54 4.02C5.7 4.1 5.82 4.14 5.9 4.14C5.94 4.22 6.08 4.4 6.32 4.68C6.56 4.92 6.8 5.2 7.04 5.52C7.32 5.8 7.56 6.06 7.76 6.3C8 6.54 8.16 6.68 8.24 6.72C8.32 6.8 8.52 6.94 8.84 7.14C9.16 7.3 9.38 7.42 9.5 7.5C9.66 7.58 9.96 7.72 10.4 7.92C10.88 8.12 11.2 8.28 11.36 8.4C11.48 8.4 11.68 8.46 11.96 8.58C12.24 8.66 12.54 8.74 12.86 8.82C13.22 8.9 13.56 9 13.88 9.12C14.2 9.2 14.42 9.24 14.54 9.24C14.82 9.28 15.28 9.38 15.92 9.54C16.56 9.7 16.98 9.78 17.18 9.78C17.46 9.82 18.16 9.92 19.28 10.08C20.4 10.24 21.6 10.42 22.88 10.62C24.16 10.78 25.36 10.96 26.48 11.16C27.64 11.32 28.36 11.44 28.64 11.52C28.76 11.52 28.96 11.56 29.24 11.64C29.52 11.68 29.8 11.74 30.08 11.82C30.4 11.86 30.7 11.9 30.98 11.94C31.3 11.98 31.52 12 31.64 12L32.12 12.24C32.44 12.4 32.68 12.48 32.84 12.48C32.96 12.48 33.14 12.54 33.38 12.66C33.66 12.78 33.84 12.86 33.92 12.9C34 12.98 34.18 13.12 34.46 13.32C34.78 13.48 34.94 13.6 34.94 13.68C35.02 13.72 35.12 13.84 35.24 14.04C35.4 14.2 35.52 14.3 35.6 14.34L35.78 14.7L35.9 14.94C35.86 15.02 35.84 15.22 35.84 15.54C35.84 15.86 35.84 16.12 35.84 16.32C35.8 16.44 35.76 16.68 35.72 17.04C35.68 17.4 35.66 17.6 35.66 17.64L35.54 18C35.5 18.08 35.44 18.18 35.36 18.3C35.32 18.42 35.28 18.52 35.24 18.6C35.16 18.72 35.02 18.94 34.82 19.26C34.66 19.58 34.52 19.78 34.4 19.86C34.36 19.94 34.2 20.14 33.92 20.46C33.68 20.74 33.52 20.92 33.44 21C33.24 21.16 32.94 21.4 32.54 21.72C32.18 22.04 31.8 22.38 31.4 22.74C31 23.1 30.62 23.44 30.26 23.76C29.94 24.04 29.74 24.22 29.66 24.3C29.62 24.3 29.48 24.38 29.24 24.54C29 24.66 28.72 24.82 28.4 25.02C28.08 25.18 27.76 25.36 27.44 25.56C27.16 25.72 26.94 25.86 26.78 25.98C26.7 26.02 26.52 26.12 26.24 26.28C25.96 26.4 25.78 26.48 25.7 26.52C25.62 26.6 25.32 26.76 24.8 27C24.32 27.24 23.8 27.5 23.24 27.78C22.68 28.02 22.14 28.26 21.62 28.5C21.1 28.74 20.76 28.88 20.6 28.92C20.6 29 20.56 29.08 20.48 29.16C20.4 29.2 20.36 29.24 20.36 29.28C20.32 29.48 20.26 29.78 20.18 30.18C20.14 30.58 20.1 31 20.06 31.44C20.02 31.88 19.98 32.3 19.94 32.7C19.9 33.1 19.88 33.36 19.88 33.48C19.88 33.6 19.86 33.82 19.82 34.14C19.82 34.46 19.8 34.8 19.76 35.16C19.76 35.48 19.74 35.8 19.7 36.12C19.7 36.4 19.7 36.6 19.7 36.72C19.54 38.68 19.4 40.04 19.28 40.8C19.16 41.56 19.08 41.9 19.04 41.82C19 41.78 18.96 41.4 18.92 40.68C18.92 40 18.92 39.22 18.92 38.34C18.96 37.42 19 36.5 19.04 35.58C19.08 34.66 19.12 33.94 19.16 33.42C19.16 33.34 19.16 33.06 19.16 32.58C19.2 32.1 19.22 31.76 19.22 31.56ZM11.9 14.46C11.94 14.74 12.02 15.22 12.14 15.9C12.3 16.54 12.46 17.24 12.62 18C12.82 18.76 12.98 19.48 13.1 20.16C13.26 20.84 13.38 21.32 13.46 21.6C13.5 21.76 13.56 22.06 13.64 22.5C13.76 22.94 13.86 23.44 13.94 24C14.06 24.52 14.14 25.02 14.18 25.5C14.26 25.98 14.3 26.32 14.3 26.52C14.38 26.56 14.46 26.58 14.54 26.58H14.84C14.88 26.58 14.92 26.6 14.96 26.64C15 26.64 15.06 26.64 15.14 26.64H15.32C15.36 26.64 15.5 26.6 15.74 26.52C16.02 26.44 16.2 26.4 16.28 26.4C16.48 26.32 16.76 26.22 17.12 26.1C17.48 25.98 17.84 25.88 18.2 25.8C18.56 25.68 18.86 25.58 19.1 25.5C19.38 25.42 19.54 25.38 19.58 25.38C19.74 25.34 20 25.26 20.36 25.14C20.76 24.98 21.18 24.82 21.62 24.66C22.06 24.46 22.46 24.3 22.82 24.18C23.22 24.02 23.52 23.9 23.72 23.82C23.76 23.74 24 23.6 24.44 23.4C24.92 23.2 25.24 23.02 25.4 22.86C25.52 22.82 25.68 22.76 25.88 22.68C26.12 22.56 26.34 22.44 26.54 22.32C26.78 22.2 26.98 22.1 27.14 22.02C27.34 21.9 27.46 21.82 27.5 21.78C27.54 21.78 27.64 21.72 27.8 21.6C28 21.48 28.2 21.36 28.4 21.24C28.64 21.08 28.86 20.92 29.06 20.76C29.26 20.6 29.4 20.46 29.48 20.34C29.56 20.3 29.64 20.26 29.72 20.22C29.84 20.14 29.94 20.06 30.02 19.98C30.06 19.9 30.16 19.76 30.32 19.56C30.52 19.32 30.62 19.16 30.62 19.08L30.74 18.78C30.7 18.78 30.68 18.76 30.68 18.72V18.6V18.42C30.6 18.34 30.52 18.24 30.44 18.12C30.28 17.88 30.2 17.74 30.2 17.7C30.12 17.66 30 17.62 29.84 17.58C29.72 17.54 29.62 17.48 29.54 17.4C29.42 17.4 29.24 17.32 29 17.16C28.88 17.08 28.76 17.02 28.64 16.98C28.4 16.94 28.04 16.86 27.56 16.74C27.08 16.62 26.76 16.52 26.6 16.44C26.6 16.44 26.42 16.42 26.06 16.38C25.74 16.3 25.36 16.24 24.92 16.2C24.48 16.12 24.02 16.06 23.54 16.02C23.1 15.94 22.74 15.88 22.46 15.84H22.28H22.04C22.04 15.92 22.02 16.1 21.98 16.38C21.94 16.62 21.9 16.9 21.86 17.22C21.82 17.5 21.76 17.8 21.68 18.12C21.6 18.4 21.54 18.6 21.5 18.72C21.46 18.88 21.42 19.08 21.38 19.32C21.38 19.52 21.34 19.74 21.26 19.98C21.18 20.26 21.12 20.56 21.08 20.88C21 20.92 20.9 21.04 20.78 21.24C20.66 21.4 20.56 21.48 20.48 21.48L21.02 15.72L20.48 15.66C20.44 15.78 20.38 16.04 20.3 16.44C20.22 16.84 20.12 17.12 20 17.28C20 17.32 19.92 17.36 19.76 17.4C19.64 17.44 19.54 17.46 19.46 17.46L19.64 15.6C18.64 15.44 17.68 15.28 16.76 15.12C15.96 14.96 15.12 14.8 14.24 14.64C13.4 14.48 12.7 14.34 12.14 14.22H11.9V14.46ZM35.7908 39H35.3708C35.2908 39 35.1708 39.04 35.0108 39.12C34.8908 39.2 34.7908 39.28 34.7108 39.36C34.7108 39.44 34.6708 39.64 34.5908 39.96C34.5108 40.32 34.4708 40.54 34.4708 40.62C34.4708 40.66 34.4108 40.76 34.2908 40.92C34.2108 41.08 34.1708 41.18 34.1708 41.22C34.0908 41.18 33.9908 41.08 33.8708 40.92C33.7908 40.76 33.7508 40.66 33.7508 40.62C33.7508 40.58 33.7308 40.46 33.6908 40.26C33.6908 40.1 33.6708 39.92 33.6308 39.72C33.6308 39.56 33.6108 39.4 33.5708 39.24C33.5308 39.08 33.4908 39 33.4508 39C33.4108 38.92 33.2508 38.8 32.9708 38.64C32.6908 38.48 32.5508 38.36 32.5508 38.28C32.4308 38.2 32.1908 38 31.8308 37.68C31.4708 37.36 31.2708 37.16 31.2308 37.08C31.2308 37 31.1308 36.8 30.9308 36.48C30.7308 36.12 30.5908 35.88 30.5108 35.76C30.5108 35.68 30.4508 35.52 30.3308 35.28C30.2508 35 30.2108 34.82 30.2108 34.74C30.1708 34.62 30.1108 34.4 30.0308 34.08C29.9908 33.72 29.9308 33.5 29.8508 33.42C29.8508 33.26 29.8108 32.94 29.7308 32.46C29.6508 31.98 29.6108 31.66 29.6108 31.5V26.64V21.78C29.6108 21.66 29.6108 21.36 29.6108 20.88C29.6508 20.4 29.6908 19.9 29.7308 19.38C29.7708 18.82 29.7908 18.3 29.7908 17.82C29.8308 17.34 29.8508 17.04 29.8508 16.92V13.98C29.9308 13.9 30.1108 13.62 30.3908 13.14C30.7108 12.66 30.9908 12.3 31.2308 12.06C31.2308 12.02 31.3108 11.92 31.4708 11.76C31.6708 11.6 31.7908 11.5 31.8308 11.46C31.9108 11.38 32.0708 11.26 32.3108 11.1C32.5908 10.94 32.7708 10.82 32.8508 10.74C32.8508 10.74 32.9508 10.68 33.1508 10.56C33.2308 10.52 33.3308 10.48 33.4508 10.44H33.6908C33.7708 10.44 33.8308 10.44 33.8708 10.44C33.9108 10.4 33.9508 10.38 33.9908 10.38C34.0308 10.38 34.0708 10.4 34.1108 10.44C34.1508 10.44 34.2108 10.44 34.2908 10.44H34.4708C34.5108 10.44 34.6108 10.52 34.7708 10.68C34.9708 10.84 35.0708 10.94 35.0708 10.98V11.52V12.36C35.0708 12.48 35.0508 12.74 35.0108 13.14C34.9708 13.5 34.9308 13.9 34.8908 14.34C34.8508 14.78 34.8108 15.2 34.7708 15.6C34.7308 15.96 34.7108 16.2 34.7108 16.32V22.86V29.52C34.7908 29.68 34.8508 29.94 34.8908 30.3C34.9708 30.62 35.0308 30.82 35.0708 30.9C35.0708 30.94 35.1108 31.08 35.1908 31.32C35.3108 31.56 35.3708 31.72 35.3708 31.8C35.4508 31.88 35.5108 32.02 35.5508 32.22C35.6308 32.42 35.7108 32.52 35.7908 32.52C35.9508 32.64 36.1708 32.88 36.4508 33.24C36.7308 33.56 36.9108 33.76 36.9908 33.84H37.5308H37.9508C38.1108 33.84 38.2308 33.7 38.3108 33.42C38.3908 33.34 38.5108 33.18 38.6708 32.94C38.8308 32.7 38.9508 32.56 39.0308 32.52C39.1108 32.28 39.3108 31.84 39.6308 31.2C39.9508 30.56 40.1508 30.12 40.2308 29.88C40.3508 29.68 40.4908 29.38 40.6508 28.98C40.8508 28.58 40.9508 28.34 40.9508 28.26V27.48V26.64C40.9508 26.56 40.9108 26.34 40.8308 25.98C40.7908 25.62 40.7308 25.24 40.6508 24.84C40.5708 24.44 40.4908 24.06 40.4108 23.7C40.3308 23.34 40.2708 23.12 40.2308 23.04C40.2308 22.92 40.2108 22.72 40.1708 22.44C40.1308 22.16 40.0908 21.9 40.0508 21.66C40.0508 21.38 40.0308 21.14 39.9908 20.94C39.9508 20.7 39.9308 20.54 39.9308 20.46V18V15.6C39.9308 15.44 40.0308 15.22 40.2308 14.94C40.4308 14.62 40.5708 14.38 40.6508 14.22C40.6908 14.22 40.7908 14.14 40.9508 13.98C41.1108 13.82 41.2908 13.64 41.4908 13.44C41.6908 13.24 41.8908 13.04 42.0908 12.84C42.2908 12.64 42.4508 12.48 42.5708 12.36C42.6108 12.36 42.7108 12.32 42.8708 12.24C43.0308 12.12 43.1308 12.06 43.1708 12.06H43.4708C43.5508 12.06 43.6108 12.06 43.6508 12.06C43.7308 12.02 43.8108 12 43.8908 12C43.9708 12 44.0708 12.02 44.1908 12.06C44.3508 12.06 44.4708 12.06 44.5508 12.06L44.6708 12.18C44.7108 12.22 44.7308 12.26 44.7308 12.3C44.7308 12.3 44.7508 12.32 44.7908 12.36C44.7908 12.44 44.8308 12.56 44.9108 12.72C45.0308 12.88 45.0908 13 45.0908 13.08C45.2108 13.2 45.3508 13.48 45.5108 13.92C45.7108 14.36 45.8108 14.62 45.8108 14.7C45.8108 14.78 45.8308 14.94 45.8708 15.18C45.9508 15.38 46.0308 15.62 46.1108 15.9C46.1908 16.18 46.2508 16.46 46.2908 16.74C46.3708 16.98 46.4108 17.14 46.4108 17.22C46.4108 17.34 46.4308 17.52 46.4708 17.76C46.5108 17.96 46.5308 18.18 46.5308 18.42C46.5708 18.66 46.6108 18.9 46.6508 19.14C46.6908 19.34 46.7108 19.48 46.7108 19.56C46.7108 19.68 46.7308 19.82 46.7708 19.98C46.8508 20.3 46.8908 20.52 46.8908 20.64C46.8908 20.76 46.8508 20.98 46.7708 21.3C46.7308 21.58 46.7108 21.74 46.7108 21.78C46.7108 21.86 46.6908 22.04 46.6508 22.32C46.6108 22.56 46.5708 22.82 46.5308 23.1C46.5308 23.38 46.5108 23.66 46.4708 23.94C46.4308 24.18 46.4108 24.34 46.4108 24.42V24.78V25.02C46.4908 25.26 46.6108 25.7 46.7708 26.34C46.9308 26.98 47.0508 27.42 47.1308 27.66C47.1708 27.82 47.2708 28.16 47.4308 28.68C47.5908 29.2 47.7708 29.76 47.9708 30.36C48.1708 30.96 48.3708 31.56 48.5708 32.16C48.7708 32.72 48.9308 33.14 49.0508 33.42C49.0908 33.62 49.1908 33.92 49.3508 34.32C49.5108 34.72 49.6108 34.96 49.6508 35.04C49.7308 35.12 49.8508 35.3 50.0108 35.58C50.1708 35.86 50.2908 36.04 50.3708 36.12L50.5508 36.48C50.5908 36.56 50.6308 36.62 50.6708 36.66V37.2V37.74C50.6708 37.82 50.6108 37.98 50.4908 38.22C50.4108 38.46 50.3708 38.62 50.3708 38.7C50.2908 38.78 50.1508 38.92 49.9508 39.12C49.7508 39.36 49.5308 39.6 49.2908 39.84C49.0508 40.08 48.8108 40.3 48.5708 40.5C48.3308 40.74 48.1508 40.9 48.0308 40.98C47.8708 41.02 47.7308 41.06 47.6108 41.1C47.2908 41.18 47.1308 41.22 47.1308 41.22H46.7108H46.4108C46.3708 41.22 46.2708 41.18 46.1108 41.1C45.9508 41.02 45.8508 40.98 45.8108 40.98C45.8108 40.9 45.7108 40.68 45.5108 40.32C45.3108 40 45.1708 39.76 45.0908 39.6C45.0508 39.56 44.9708 39.4 44.8508 39.12C44.7708 38.84 44.6708 38.52 44.5508 38.16C44.4308 37.8 44.3108 37.46 44.1908 37.14C44.0708 36.82 43.9708 36.56 43.8908 36.36C43.8508 36.32 43.7708 36.18 43.6508 35.94C43.5708 35.66 43.4708 35.38 43.3508 35.1C43.2308 34.82 43.1308 34.56 43.0508 34.32C42.9708 34.08 42.9308 33.92 42.9308 33.84C42.8508 33.76 42.7708 33.7 42.6908 33.66C42.6508 33.58 42.6108 33.5 42.5708 33.42C42.5708 33.5 42.5108 33.58 42.3908 33.66C42.3108 33.7 42.2708 33.76 42.2708 33.84C42.2308 33.88 42.1308 34 41.9708 34.2C41.8108 34.36 41.6308 34.56 41.4308 34.8C41.2708 35 41.1108 35.2 40.9508 35.4C40.7908 35.6 40.6908 35.72 40.6508 35.76C40.5708 35.8 40.4108 35.94 40.1708 36.18C39.9308 36.42 39.7708 36.58 39.6908 36.66C39.6108 36.7 39.4908 36.8 39.3308 36.96C39.1708 37.08 38.9908 37.22 38.7908 37.38C38.6308 37.54 38.4708 37.68 38.3108 37.8C38.1508 37.92 38.0308 37.98 37.9508 37.98L37.7108 38.28C37.7108 38.48 37.6908 38.82 37.6508 39.3C37.6108 39.82 37.5708 40.36 37.5308 40.92C37.5308 41.48 37.5108 42 37.4708 42.48C37.4308 43 37.4108 43.36 37.4108 43.56C37.3308 43.64 37.2508 43.8 37.1708 44.04C37.1308 44.28 37.0708 44.42 36.9908 44.46C36.9908 44.42 36.9308 44.28 36.8108 44.04C36.7308 43.8 36.6908 43.64 36.6908 43.56C36.6908 43.4 36.6508 43.08 36.5708 42.6C36.5308 42.16 36.4708 41.7 36.3908 41.22C36.3108 40.74 36.2308 40.28 36.1508 39.84C36.1108 39.44 36.0908 39.16 36.0908 39H35.7908ZM59.2081 40.56C59.2081 40.72 59.1681 41 59.0881 41.4C59.0081 41.8 58.9281 42.2 58.8481 42.6C58.8081 43.04 58.7481 43.44 58.6681 43.8C58.5881 44.2 58.5481 44.48 58.5481 44.64C58.5481 44.8 58.4881 45.08 58.3681 45.48C58.2481 45.88 58.1881 46.14 58.1881 46.26C58.1081 46.18 58.0281 46.02 57.9481 45.78C57.9081 45.54 57.8881 45.38 57.8881 45.3C57.8881 45.1 57.8881 44.76 57.8881 44.28C57.9281 43.84 57.9481 43.36 57.9481 42.84C57.9481 42.32 57.9481 41.82 57.9481 41.34C57.9881 40.9 58.0081 40.6 58.0081 40.44C58.0481 40.36 58.0081 40.28 57.8881 40.2C57.8081 40.16 57.7281 40.08 57.6481 39.96L57.1081 39.66C56.9481 39.58 56.7481 39.44 56.5081 39.24C56.3081 39.08 56.1681 38.98 56.0881 38.94C56.0081 38.82 55.8481 38.62 55.6081 38.34C55.3681 38.02 55.1081 37.7 54.8281 37.38C54.5481 37.02 54.2881 36.7 54.0481 36.42C53.8081 36.1 53.6481 35.86 53.5681 35.7C53.4481 35.62 53.2481 35.36 52.9681 34.92C52.6881 34.48 52.4881 34.16 52.3681 33.96L52.1281 33.42C52.0881 33.3 52.0681 33.12 52.0681 32.88C52.0681 32.6 52.0681 32.32 52.0681 32.04C52.0681 31.76 52.0481 31.5 52.0081 31.26C52.0081 30.98 51.9881 30.8 51.9481 30.72L48.5881 9.6C48.5881 9.48 48.5281 9.2 48.4081 8.76C48.2481 8.32 48.1681 8.06 48.1681 7.98C48.1681 7.94 48.1881 7.8 48.2281 7.56C48.2281 7.28 48.2281 7.06 48.2281 6.9C48.2281 6.82 48.2481 6.74 48.2881 6.66C48.2881 6.54 48.2881 6.44 48.2881 6.36C48.2881 6.24 48.3081 6.12 48.3481 6C48.3481 5.92 48.4481 5.72 48.6481 5.4C48.8481 5.08 48.9881 4.86 49.0681 4.74C49.1081 4.7 49.2081 4.62 49.3681 4.5C49.5281 4.34 49.7081 4.18 49.9081 4.02C50.1081 3.86 50.2881 3.72 50.4481 3.6C50.6081 3.44 50.7281 3.32 50.8081 3.24C50.8881 3.24 51.1081 3.18 51.4681 3.06C51.8281 2.9 52.0481 2.82 52.1281 2.82C52.2081 2.82 52.2681 2.8 52.3081 2.76C52.3881 2.68 52.4481 2.66 52.4881 2.7C52.5281 2.7 52.5881 2.74 52.6681 2.82L52.7281 2.88C52.7681 2.88 52.8281 2.92 52.9081 3C52.9881 3.04 53.0681 3.1 53.1481 3.18L53.4481 3.48C53.5281 4 53.6681 4.9 53.8681 6.18C54.0681 7.46 54.2681 8.82 54.4681 10.26C54.6681 11.7 54.8681 13.06 55.0681 14.34C55.2681 15.62 55.4081 16.52 55.4881 17.04C55.4881 17.12 55.5081 17.28 55.5481 17.52C55.6281 17.76 55.6681 17.92 55.6681 18C55.7881 18 55.8681 17.98 55.9081 17.94L56.0281 17.82C56.0681 17.74 56.1481 17.6 56.2681 17.4C56.4281 17.2 56.5881 17 56.7481 16.8C56.9081 16.6 57.0681 16.42 57.2281 16.26C57.3881 16.06 57.5081 15.92 57.5881 15.84C57.6281 15.8 57.7881 15.66 58.0681 15.42C58.3481 15.18 58.6481 14.94 58.9681 14.7C59.3281 14.42 59.6681 14.16 59.9881 13.92C60.3081 13.64 60.5481 13.44 60.7081 13.32C60.7481 13.24 60.8881 13.14 61.1281 13.02C61.4081 12.86 61.5881 12.74 61.6681 12.66C61.7881 12.62 62.0281 12.54 62.3881 12.42C62.7881 12.3 63.0081 12.2 63.0481 12.12C63.1281 12.04 63.2881 12 63.5281 12C63.8081 12 63.9881 12 64.0681 12C64.1881 12.04 64.3081 12.06 64.4281 12.06H64.9681C65.0881 12.1 65.2681 12.14 65.5081 12.18C65.7881 12.18 65.9681 12.18 66.0481 12.18C66.1681 12.18 66.2881 12.2 66.4081 12.24C66.4881 12.28 66.5681 12.32 66.6481 12.36C66.7681 12.4 66.8681 12.44 66.9481 12.48C67.0281 12.56 67.1281 12.64 67.2481 12.72C67.4081 12.8 67.5281 12.86 67.6081 12.9C67.6881 12.98 67.8281 13.16 68.0281 13.44C68.2281 13.72 68.3681 13.9 68.4481 13.98C68.5281 14.06 68.6281 14.22 68.7481 14.46C68.8681 14.7 68.9681 14.86 69.0481 14.94C69.0481 15.02 69.1081 15.28 69.2281 15.72C69.3881 16.16 69.4681 16.46 69.4681 16.62C69.5481 16.7 69.5881 16.92 69.5881 17.28C69.6281 17.6 69.6881 17.84 69.7681 18C69.8081 18.24 69.8281 18.6 69.8281 19.08C69.8681 19.56 69.8881 19.84 69.8881 19.92C69.8881 19.96 69.8681 20.12 69.8281 20.4C69.8281 20.64 69.8081 20.94 69.7681 21.3C69.7681 21.62 69.7481 21.96 69.7081 22.32C69.6681 22.68 69.6481 22.96 69.6481 23.16C69.6481 23.36 69.6281 23.64 69.5881 24C69.5481 24.32 69.5081 24.66 69.4681 25.02C69.4281 25.34 69.3881 25.64 69.3481 25.92C69.3081 26.16 69.2881 26.3 69.2881 26.34C69.2881 26.38 69.2681 26.5 69.2281 26.7C69.1881 26.9 69.1481 27.12 69.1081 27.36C69.0681 27.6 69.0081 27.86 68.9281 28.14C68.8881 28.38 68.8481 28.56 68.8081 28.68C68.8081 28.8 68.7281 29.06 68.5681 29.46C68.4481 29.82 68.3481 30.08 68.2681 30.24C68.2681 30.32 68.2281 30.48 68.1481 30.72C68.0681 30.96 67.9681 31.22 67.8481 31.5C67.7681 31.78 67.6881 32.04 67.6081 32.28C67.5281 32.48 67.4881 32.62 67.4881 32.7C67.4081 32.86 67.3281 33.06 67.2481 33.3L67.0681 33.66C66.9881 33.82 66.8481 34.06 66.6481 34.38C66.4481 34.7 66.2481 35.02 66.0481 35.34C65.8481 35.66 65.6481 35.96 65.4481 36.24C65.2881 36.52 65.1881 36.68 65.1481 36.72C65.1481 36.88 64.9881 37.1 64.6681 37.38C64.3481 37.66 64.1281 37.88 64.0081 38.04C63.9681 38.12 63.8081 38.28 63.5281 38.52C63.2881 38.72 63.1281 38.82 63.0481 38.82C62.9281 38.9 62.7481 39 62.5081 39.12C62.3081 39.28 62.0881 39.44 61.8481 39.6C61.6081 39.76 61.3681 39.9 61.1281 40.02C60.8881 40.14 60.7081 40.22 60.5881 40.26C60.5481 40.54 60.4881 40.98 60.4081 41.58C60.3281 42.22 60.2481 42.88 60.1681 43.56C60.0881 44.24 60.0081 44.86 59.9281 45.42C59.8481 46.02 59.7881 46.44 59.7481 46.68C59.6681 46.8 59.5681 47.1 59.4481 47.58C59.3681 48.1 59.2881 48.46 59.2081 48.66C59.2081 48.74 59.1481 48.9 59.0281 49.14C58.9081 49.38 58.8481 49.52 58.8481 49.56C58.7681 49.4 58.6881 49.12 58.6081 48.72C58.5681 48.32 58.5481 48.04 58.5481 47.88C58.5881 47.6 58.6281 47.12 58.6681 46.44C58.7481 45.76 58.8281 45.02 58.9081 44.22C58.9881 43.46 59.0481 42.72 59.0881 42C59.1681 41.32 59.2081 40.84 59.2081 40.56ZM57.7081 29.04C57.7081 29.12 57.7281 29.32 57.7681 29.64C57.8081 29.96 57.8681 30.16 57.9481 30.24C57.9481 30.32 57.9481 30.42 57.9481 30.54C57.9481 30.66 57.9681 30.76 58.0081 30.84C58.0481 31 58.0881 31.12 58.1281 31.2L61.3081 35.1C61.3481 35.14 61.3881 35.16 61.4281 35.16H61.5481H61.7281C61.7681 35.12 61.8281 35.08 61.9081 35.04C62.0281 34.92 62.0881 34.84 62.0881 34.8C62.1281 34.84 62.1681 34.78 62.2081 34.62C62.2881 34.42 62.3681 34.32 62.4481 34.32C62.4481 34.28 62.4881 34.14 62.5681 33.9C62.6481 33.66 62.7281 33.4 62.8081 33.12C62.8881 32.84 62.9681 32.56 63.0481 32.28C63.1281 32 63.1881 31.8 63.2281 31.68C63.3481 31.56 63.4681 31.3 63.5881 30.9C63.7081 30.46 63.7881 30.2 63.8281 30.12C63.8281 30.08 63.8481 29.88 63.8881 29.52C63.9681 29.16 64.0481 28.76 64.1281 28.32C64.2081 27.84 64.2681 27.38 64.3081 26.94C64.3881 26.5 64.4481 26.16 64.4881 25.92V25.62C64.4881 25.58 64.4881 25.54 64.4881 25.5C64.5281 25.42 64.5481 25.34 64.5481 25.26C64.5481 25.06 64.5481 24.76 64.5481 24.36C64.5481 23.96 64.5481 23.54 64.5481 23.1C64.5481 22.66 64.5481 22.28 64.5481 21.96C64.5481 21.6 64.5481 21.38 64.5481 21.3C64.5481 21.14 64.5281 20.98 64.4881 20.82C64.4081 20.58 64.3281 20.36 64.2481 20.16C64.2481 20.08 64.2081 19.9 64.1281 19.62C64.0481 19.34 64.0281 19.16 64.0681 19.08C64.0681 19 64.0281 18.88 63.9481 18.72C63.9081 18.64 63.8881 18.56 63.8881 18.48C63.6881 18.24 63.4481 17.94 63.1681 17.58C62.8881 17.18 62.7081 16.98 62.6281 16.98H62.3281C62.2481 16.98 62.1481 16.98 62.0281 16.98C61.9481 16.94 61.8881 16.92 61.8481 16.92H61.3681C61.2481 16.92 61.1281 16.9 61.0081 16.86C60.9281 16.98 60.8281 17.1 60.7081 17.22C60.4681 17.46 60.3281 17.62 60.2881 17.7C60.2881 17.78 60.2681 17.86 60.2281 17.94C60.1881 17.98 60.1481 18.04 60.1081 18.12C60.0281 18.2 59.9681 18.28 59.9281 18.36C59.8481 18.52 59.7081 18.8 59.5081 19.2C59.3081 19.56 59.1681 19.8 59.0881 19.92L58.9081 20.46L58.7881 20.82C58.7081 20.94 58.6481 21.1 58.6081 21.3C58.6081 21.46 58.5681 21.62 58.4881 21.78C58.4081 21.98 58.3481 22.18 58.3081 22.38C58.3081 22.42 58.2881 22.58 58.2481 22.86C58.2081 23.14 58.1681 23.46 58.1281 23.82C58.1281 24.18 58.1081 24.54 58.0681 24.9C58.0281 25.26 58.0081 25.56 58.0081 25.8C58.0081 25.88 57.9881 26.08 57.9481 26.4C57.9081 26.68 57.8681 27 57.8281 27.36C57.8281 27.72 57.8081 28.06 57.7681 28.38C57.7281 28.7 57.7081 28.92 57.7081 29.04ZM70.9517 36.48C70.9517 36.4 71.0517 36.2 71.2517 35.88C71.4517 35.52 71.5917 35.3 71.6717 35.22V32.16V29.04C71.6317 28.92 71.5717 28.6 71.4917 28.08C71.4517 27.52 71.3917 26.92 71.3117 26.28C71.2317 25.6 71.1517 24.94 71.0717 24.3C71.0317 23.66 70.9917 23.16 70.9517 22.8C70.9517 22.64 70.8917 22.28 70.7717 21.72C70.6917 21.12 70.5917 20.46 70.4717 19.74C70.3917 19.02 70.3117 18.32 70.2317 17.64C70.1517 16.92 70.0917 16.4 70.0517 16.08C69.9717 15.84 69.8917 15.52 69.8117 15.12C69.7317 14.72 69.6517 14.32 69.5717 13.92C69.5317 13.48 69.4917 13.1 69.4517 12.78C69.3717 12.46 69.3317 12.26 69.3317 12.18C69.3317 12.14 69.3117 12.06 69.2717 11.94C69.1917 11.78 69.1117 11.62 69.0317 11.46C68.9117 11.3 68.8117 11.12 68.7317 10.92V10.56V10.32C68.7317 10.24 68.7717 10.08 68.8517 9.84C68.9317 9.56 68.9717 9.38 68.9717 9.3C69.0517 9.02 69.1717 8.76 69.3317 8.52C69.4117 8.36 69.5117 8.18 69.6317 7.98C69.7517 7.82 70.0117 7.54 70.4117 7.14C70.8117 6.74 71.0917 6.48 71.2517 6.36C71.3317 6.28 71.5317 6.18 71.8517 6.06C72.2117 5.9 72.4517 5.78 72.5717 5.7H72.8717H73.2917C73.3717 5.78 73.4717 5.9 73.5917 6.06C73.7517 6.18 73.8317 6.28 73.8317 6.36C73.9117 6.36 73.9717 6.58 74.0117 7.02C74.0917 7.46 74.1517 7.78 74.1917 7.98C74.2317 8.18 74.2717 8.48 74.3117 8.88C74.3917 9.24 74.4717 9.64 74.5517 10.08C74.6317 10.48 74.6917 10.86 74.7317 11.22C74.8117 11.58 74.8717 11.82 74.9117 11.94C74.9517 12.22 75.0117 12.7 75.0917 13.38C75.1717 14.02 75.2517 14.7 75.3317 15.42C75.4517 16.14 75.5517 16.82 75.6317 17.46C75.7517 18.06 75.8117 18.46 75.8117 18.66C75.8517 18.9 75.8917 19.3 75.9317 19.86C76.0117 20.38 76.0917 20.94 76.1717 21.54C76.2517 22.1 76.3117 22.64 76.3517 23.16C76.4317 23.68 76.4917 24.02 76.5317 24.18C76.5317 24.42 76.5517 24.76 76.5917 25.2C76.6317 25.6 76.6517 26.02 76.6517 26.46C76.6917 26.9 76.7317 27.3 76.7717 27.66C76.8117 28.02 76.8317 28.26 76.8317 28.38V32.7V36.84C76.8317 36.92 76.7317 37.14 76.5317 37.5C76.3317 37.82 76.1917 38.02 76.1117 38.1C76.0317 38.26 75.8717 38.52 75.6317 38.88C75.3917 39.2 75.2517 39.4 75.2117 39.48C75.2117 39.6 75.1917 39.84 75.1517 40.2C75.1117 40.6 75.0717 41 75.0317 41.4C75.0317 41.8 75.0117 42.18 74.9717 42.54C74.9317 42.94 74.9117 43.2 74.9117 43.32C74.8317 43.4 74.7517 43.6 74.6717 43.92C74.6317 44.28 74.5717 44.54 74.4917 44.7C74.4917 44.66 74.4717 44.6 74.4317 44.52C74.3917 44.48 74.3517 44.42 74.3117 44.34C74.2717 44.26 74.2317 44.16 74.1917 44.04C74.1917 43.92 74.1717 43.68 74.1317 43.32C74.0917 42.96 74.0517 42.58 74.0117 42.18C73.9717 41.82 73.9317 41.46 73.8917 41.1C73.8517 40.74 73.8317 40.5 73.8317 40.38V49.8L73.5917 51.42C73.5917 51.38 73.5717 51.24 73.5317 51C73.4917 50.8 73.4517 50.58 73.4117 50.34C73.4117 50.1 73.3917 49.86 73.3517 49.62C73.3117 49.42 73.2917 49.28 73.2917 49.2C73.2517 49.08 73.1917 48.72 73.1117 48.12C73.0717 47.56 73.0317 46.94 72.9917 46.26C72.9517 45.58 72.9117 44.94 72.8717 44.34C72.8717 43.78 72.8717 43.44 72.8717 43.32C72.8717 43.16 72.8517 42.92 72.8117 42.6C72.7717 42.32 72.7317 42.02 72.6917 41.7C72.6917 41.38 72.6717 41.1 72.6317 40.86C72.5917 40.62 72.5717 40.46 72.5717 40.38C72.4517 40.26 72.3517 40.12 72.2717 39.96C72.1917 39.84 72.1117 39.74 72.0317 39.66C71.9917 39.58 71.9717 39.52 71.9717 39.48C71.8917 39.4 71.8317 39.3 71.7917 39.18C71.7117 38.94 71.6717 38.8 71.6717 38.76C71.5917 38.76 71.4517 38.68 71.2517 38.52C71.0517 38.32 70.9517 38.18 70.9517 38.1V37.38V36.48ZM80.5447 45.12V39.6C80.3847 39.52 80.1447 39.4 79.8247 39.24C79.5447 39.08 79.3247 38.96 79.1647 38.88C79.1247 38.76 79.0847 38.66 79.0447 38.58C78.9647 38.42 78.9247 38.32 78.9247 38.28C78.9247 38.2 78.8647 37.94 78.7447 37.5C78.6647 37.06 78.6247 36.78 78.6247 36.66C78.5847 36.54 78.5247 36.34 78.4447 36.06C78.4047 35.78 78.3647 35.5 78.3247 35.22C78.2847 34.9 78.2447 34.6 78.2047 34.32C78.2047 34 78.2047 33.78 78.2047 33.66C78.1647 33.18 78.1047 32.52 78.0247 31.68C77.9847 30.8 77.9247 29.92 77.8447 29.04C77.8047 28.12 77.7447 27.3 77.6647 26.58C77.6247 25.86 77.5847 25.44 77.5447 25.32V22.86V20.46C77.6247 20.3 77.7247 20.06 77.8447 19.74C78.0047 19.38 78.1247 19.16 78.2047 19.08C78.2847 19 78.4847 18.8 78.8047 18.48C79.1647 18.12 79.4047 17.9 79.5247 17.82C79.6047 17.7 79.7647 17.58 80.0047 17.46C80.2847 17.3 80.4647 17.22 80.5447 17.22C80.5847 17.22 80.7247 17.2 80.9647 17.16C81.2047 17.08 81.3647 17.04 81.4447 17.04C81.4847 17.04 81.6247 17.08 81.8647 17.16C81.9847 17.2 82.0847 17.22 82.1647 17.22L82.4047 17.82C82.4447 18.06 82.4847 18.52 82.5247 19.2C82.5647 19.84 82.5847 20.52 82.5847 21.24C82.6247 21.96 82.6647 22.64 82.7047 23.28C82.7447 23.92 82.7647 24.36 82.7647 24.6C82.7647 24.84 82.7847 25.3 82.8247 25.98C82.9047 26.66 82.9847 27.4 83.0647 28.2C83.1447 29 83.2247 29.76 83.3047 30.48C83.3847 31.2 83.4447 31.72 83.4847 32.04C83.4847 32.12 83.5047 32.28 83.5447 32.52C83.5847 32.76 83.6047 33.02 83.6047 33.3C83.6447 33.54 83.6847 33.76 83.7247 33.96C83.7647 34.16 83.7847 34.28 83.7847 34.32V35.04V35.64C83.7847 35.72 83.7247 35.9 83.6047 36.18C83.5247 36.42 83.4847 36.58 83.4847 36.66C83.4047 36.7 83.2647 36.86 83.0647 37.14C82.9447 37.3 82.8447 37.44 82.7647 37.56C82.6847 37.8 82.5647 38.04 82.4047 38.28C82.4047 38.6 82.3847 39.18 82.3447 40.02C82.3047 40.9 82.2447 41.82 82.1647 42.78C82.1247 43.74 82.0647 44.64 81.9847 45.48C81.9447 46.32 81.9047 46.92 81.8647 47.28C81.8647 47.36 81.8047 47.64 81.6847 48.12C81.6047 48.64 81.5247 49.04 81.4447 49.32C81.4447 49.48 81.3847 49.76 81.2647 50.16C81.1847 50.6 81.1447 50.86 81.1447 50.94C81.1447 51.02 81.1047 51.18 81.0247 51.42C80.9447 51.66 80.8647 51.8 80.7847 51.84V45.36L80.5447 45.12ZM77.4847 3.18C77.4847 3.14 77.4847 3.1 77.4847 3.06C77.5247 2.98 77.5447 2.92 77.5447 2.88C77.5447 2.84 77.5647 2.8 77.6047 2.76C77.6447 2.6 77.7847 2.38 78.0247 2.1C78.3047 1.82 78.4647 1.64 78.5047 1.56C78.5447 1.56 78.6447 1.52 78.8047 1.44C79.0047 1.32 79.2047 1.2 79.4047 1.08C79.6447 0.919998 79.8647 0.779997 80.0647 0.659997C80.2647 0.539998 80.4247 0.459999 80.5447 0.42C80.6247 0.379998 80.7447 0.359997 80.9047 0.359997C81.0647 0.359997 81.1847 0.359997 81.2647 0.359997L81.6247 0.479999C81.7447 0.519998 81.9047 0.539998 82.1047 0.539998C82.2647 0.619997 82.4047 0.679997 82.5247 0.719999C82.6047 0.759999 82.7047 0.799998 82.8247 0.839998C82.8247 1.04 82.8447 1.22 82.8847 1.38C82.9647 1.78 83.0247 2.04 83.0647 2.16C83.0647 2.24 83.0647 2.42 83.0647 2.7C83.1047 2.98 83.1247 3.28 83.1247 3.6C83.1647 3.92 83.2047 4.24 83.2447 4.56C83.2847 4.88 83.3047 5.12 83.3047 5.28C83.3047 5.64 83.3047 6.14 83.3047 6.78C83.3047 7.38 83.3047 7.98 83.3047 8.58C83.3447 9.18 83.3647 9.72 83.3647 10.2C83.4047 10.68 83.4447 10.96 83.4847 11.04C83.4447 11.2 83.4047 11.34 83.3647 11.46C83.2847 11.7 83.2247 11.88 83.1847 12C83.1447 12.08 83.1247 12.18 83.1247 12.3C83.1247 12.38 83.1047 12.46 83.0647 12.54C83.0247 12.66 82.9847 12.76 82.9447 12.84C82.8247 12.92 82.7047 13.1 82.5847 13.38C82.4647 13.62 82.3647 13.74 82.2847 13.74C82.2047 13.78 82.0247 13.88 81.7447 14.04C81.5047 14.2 81.2247 14.36 80.9047 14.52C80.6247 14.68 80.3447 14.84 80.0647 15C79.7847 15.12 79.5847 15.2 79.4647 15.24C79.4647 15.32 79.3247 15.36 79.0447 15.36C78.8047 15.36 78.6247 15.4 78.5047 15.48L78.3847 15.42H78.2047C78.1647 15.34 78.0647 15.24 77.9047 15.12C77.7447 14.96 77.6847 14.84 77.7247 14.76C77.7647 14.72 77.7647 14.52 77.7247 14.16C77.7247 13.8 77.7247 13.6 77.7247 13.56C77.6847 13.28 77.6447 12.86 77.6047 12.3C77.6047 11.7 77.6047 11.1 77.6047 10.5C77.6047 9.86 77.6047 9.28 77.6047 8.76C77.6047 8.24 77.6047 7.9 77.6047 7.74C77.6047 7.66 77.5847 7.42 77.5447 7.02C77.5047 6.62 77.4647 6.2 77.4247 5.76C77.3847 5.28 77.3647 4.84 77.3647 4.44C77.3647 4.04 77.3647 3.8 77.3647 3.72C77.3647 3.64 77.3847 3.56 77.4247 3.48C77.4247 3.4 77.4247 3.34 77.4247 3.3C77.4647 3.26 77.4847 3.22 77.4847 3.18ZM100.237 40.08H99.3973C99.3973 40.16 99.3773 40.3 99.3373 40.5C99.3373 40.74 99.3173 41 99.2773 41.28C99.2373 41.56 99.1973 41.82 99.1573 42.06C99.1573 42.34 99.1573 42.54 99.1573 42.66C99.1173 42.74 99.0773 42.86 99.0373 43.02C98.9973 43.22 98.9573 43.42 98.9173 43.62C98.8773 43.82 98.8373 44.04 98.7973 44.28H98.4973C98.4573 44.08 98.4173 43.9 98.3773 43.74C98.3373 43.58 98.2773 43.42 98.1973 43.26C98.1573 43.14 98.1173 43.04 98.0773 42.96C98.0773 42.84 98.0573 42.62 98.0173 42.3C97.9773 42.02 97.9373 41.7 97.8973 41.34C97.8973 41.02 97.8773 40.7 97.8373 40.38C97.7973 40.06 97.7773 39.84 97.7773 39.72L97.5373 39.42C97.3773 39.34 97.0773 39.2 96.6373 39C96.2373 38.8 95.9973 38.7 95.9173 38.7C95.7173 38.66 95.3573 38.52 94.8373 38.28C94.3573 38.04 94.0573 37.88 93.9373 37.8C93.8973 37.76 93.7773 37.68 93.5773 37.56C93.4173 37.44 93.2373 37.32 93.0373 37.2C92.8373 37.04 92.6373 36.9 92.4373 36.78C92.2373 36.66 92.0973 36.56 92.0173 36.48C91.8973 36.4 91.6573 36.24 91.2973 36C90.9373 35.72 90.7373 35.54 90.6973 35.46C90.6173 35.38 90.4573 35.24 90.2173 35.04C90.0173 34.8 89.7973 34.58 89.5573 34.38C89.3173 34.14 89.0773 33.92 88.8373 33.72C88.6373 33.48 88.4773 33.32 88.3573 33.24C88.2773 33.16 88.0973 32.9 87.8173 32.46C87.5373 32.02 87.3173 31.74 87.1573 31.62C87.0773 31.54 86.9373 31.38 86.7373 31.14C86.5373 30.86 86.4373 30.68 86.4373 30.6C86.3573 30.48 86.2373 30.26 86.0773 29.94C85.9573 29.62 85.7973 29.3 85.5973 28.98C85.4373 28.62 85.2773 28.3 85.1173 28.02C84.9573 27.7 84.8573 27.48 84.8173 27.36C84.7773 27.32 84.7173 27.18 84.6373 26.94C84.5973 26.7 84.5373 26.54 84.4573 26.46C84.4573 26.38 84.4373 26.26 84.3973 26.1C84.3973 25.9 84.3773 25.7 84.3373 25.5C84.2973 25.3 84.2573 25.08 84.2173 24.84V23.52V22.14C84.2173 22.06 84.2573 21.86 84.3373 21.54C84.4173 21.18 84.4573 20.96 84.4573 20.88C84.5373 20.76 84.6973 20.46 84.9373 19.98C85.2173 19.46 85.4173 19.1 85.5373 18.9C85.5373 18.82 85.6173 18.66 85.7773 18.42C85.9773 18.18 86.0773 18.02 86.0773 17.94C86.2373 17.78 86.5573 17.46 87.0373 16.98C87.5173 16.5 87.8573 16.18 88.0573 16.02C88.1373 15.98 88.2973 15.88 88.5373 15.72C88.8173 15.56 88.9973 15.46 89.0773 15.42C89.1573 15.34 89.2973 15.24 89.4973 15.12C89.6973 15 89.8973 14.9 90.0973 14.82C90.2973 14.7 90.4773 14.6 90.6373 14.52C90.7973 14.44 90.8973 14.4 90.9373 14.4C91.0973 14.36 91.3373 14.3 91.6573 14.22C92.0173 14.1 92.2373 14.04 92.3173 14.04H93.9373H95.5573C95.5973 14.04 95.7973 14.1 96.1573 14.22C96.5173 14.3 96.7573 14.36 96.8773 14.4C96.9573 14.44 97.0973 14.5 97.2973 14.58C97.4973 14.62 97.6973 14.68 97.8973 14.76C98.0973 14.8 98.2773 14.84 98.4373 14.88C98.6373 14.92 98.7573 14.94 98.7973 14.94C98.9173 15.02 99.1373 15.14 99.4573 15.3C99.7773 15.46 99.9973 15.58 100.117 15.66C100.277 15.82 100.597 16.06 101.077 16.38C101.557 16.66 101.877 16.88 102.037 17.04C102.077 17.08 102.337 17.3 102.817 17.7C103.337 18.1 103.737 18.42 104.017 18.66L104.257 18.9C104.417 19.06 104.617 19.32 104.857 19.68C105.137 20 105.277 20.2 105.277 20.28C105.277 20.36 105.297 20.46 105.337 20.58C105.417 20.7 105.497 20.82 105.577 20.94C105.657 21.1 105.757 21.26 105.877 21.42V21.96V22.5C105.877 22.58 105.777 22.8 105.577 23.16C105.417 23.48 105.317 23.68 105.277 23.76C105.237 23.84 105.137 23.96 104.977 24.12C104.817 24.28 104.637 24.46 104.437 24.66C104.277 24.82 104.117 24.98 103.957 25.14C103.797 25.26 103.697 25.34 103.657 25.38C103.577 25.46 103.377 25.58 103.057 25.74C102.737 25.86 102.517 25.96 102.397 26.04H102.037H101.737C101.577 26.04 101.377 26 101.137 25.92C100.977 25.88 100.857 25.82 100.777 25.74C100.617 25.7 100.457 25.6 100.297 25.44C100.177 25.28 100.117 25.18 100.117 25.14C100.037 24.98 99.9973 24.76 99.9973 24.48C99.9973 24.16 100.037 23.92 100.117 23.76C100.037 23.72 99.8973 23.62 99.6973 23.46C99.5373 23.26 99.3573 23.06 99.1573 22.86C98.9573 22.62 98.7573 22.42 98.5573 22.26C98.3573 22.1 98.1973 21.98 98.0773 21.9C97.9973 21.82 97.7173 21.62 97.2373 21.3C96.7573 20.94 96.3973 20.68 96.1573 20.52C96.0373 20.44 95.8173 20.32 95.4973 20.16C95.1773 20 94.9573 19.88 94.8373 19.8H94.7173H94.5373C94.5373 20.04 94.4973 20.42 94.4173 20.94C94.3373 21.42 94.2973 21.74 94.2973 21.9C94.2173 21.94 94.1573 21.98 94.1173 22.02C94.0773 22.06 94.0373 22.08 93.9973 22.08C93.9573 22.08 93.9373 22.1 93.9373 22.14L93.7573 22.26C93.6773 22.26 93.6373 22.24 93.6373 22.2V22.14C93.5573 22.14 93.4773 22.04 93.3973 21.84C93.3573 21.64 93.2973 21.5 93.2173 21.42C93.2173 21.38 93.1973 21.26 93.1573 21.06C93.1173 20.82 93.0773 20.58 93.0373 20.34C93.0373 20.1 93.0173 19.88 92.9773 19.68C92.9373 19.48 92.9173 19.34 92.9173 19.26C92.7973 19.22 92.4773 19.16 91.9573 19.08C91.4773 18.96 91.1373 18.9 90.9373 18.9H90.7573H90.6973C90.6173 18.9 90.3973 18.96 90.0373 19.08C89.7173 19.16 89.4773 19.22 89.3173 19.26V20.64V22.14C89.3173 22.3 89.3573 22.54 89.4373 22.86C89.5573 23.14 89.6373 23.36 89.6773 23.52L91.2973 26.76C91.3773 26.8 91.4973 26.94 91.6573 27.18C91.8173 27.42 91.9373 27.58 92.0173 27.66C92.1773 27.86 92.4373 28.16 92.7973 28.56C93.1973 28.92 93.5973 29.32 93.9973 29.76C94.4373 30.16 94.8373 30.54 95.1973 30.9C95.5573 31.26 95.7973 31.5 95.9173 31.62C95.9573 31.62 96.0573 31.68 96.2173 31.8C96.3773 31.92 96.5573 32.06 96.7573 32.22C96.9573 32.38 97.1573 32.54 97.3573 32.7C97.5573 32.82 97.6973 32.9 97.7773 32.94C97.9373 33.02 98.2573 33.18 98.7373 33.42C99.2173 33.66 99.5373 33.8 99.6973 33.84C99.8173 33.84 99.9973 33.9 100.237 34.02C100.517 34.1 100.697 34.14 100.777 34.14H101.317V33.84C101.317 33.8 101.257 33.7 101.137 33.54C101.057 33.38 101.017 33.28 101.017 33.24V32.52V31.86C101.017 31.78 101.057 31.62 101.137 31.38C101.257 31.14 101.317 30.98 101.317 30.9C101.357 30.86 101.477 30.76 101.677 30.6C101.877 30.4 102.077 30.2 102.277 30C102.477 29.8 102.677 29.6 102.877 29.4C103.077 29.2 103.237 29.06 103.357 28.98C103.437 28.94 103.537 28.9 103.657 28.86C103.817 28.78 103.937 28.7 104.017 28.62H104.557H105.277C105.317 28.62 105.357 28.68 105.397 28.8C105.477 28.88 105.557 28.94 105.637 28.98C105.677 29.06 105.757 29.22 105.877 29.46C105.997 29.7 106.117 29.96 106.237 30.24C106.397 30.52 106.537 30.8 106.657 31.08C106.777 31.32 106.857 31.5 106.897 31.62C106.937 31.66 106.997 31.8 107.077 32.04C107.197 32.28 107.257 32.44 107.257 32.52V33.78V34.86C107.257 34.9 107.197 35.04 107.077 35.28C106.997 35.52 106.937 35.68 106.897 35.76C106.897 35.84 106.877 35.92 106.837 36C106.797 36.04 106.757 36.1 106.717 36.18C106.677 36.3 106.637 36.4 106.597 36.48C106.517 36.52 106.357 36.72 106.117 37.08C105.877 37.44 105.717 37.68 105.637 37.8C105.557 37.8 105.477 37.86 105.397 37.98C105.357 38.06 105.317 38.1 105.277 38.1C105.197 38.22 104.977 38.4 104.617 38.64C104.297 38.88 104.097 39 104.017 39C103.937 39.08 103.817 39.14 103.657 39.18C103.537 39.26 103.437 39.34 103.357 39.42C103.237 39.42 102.977 39.5 102.577 39.66C102.177 39.86 101.897 40 101.737 40.08C101.737 40.32 101.717 40.76 101.677 41.4C101.677 42.04 101.657 42.72 101.617 43.44C101.577 44.16 101.517 44.84 101.437 45.48C101.397 46.12 101.357 46.56 101.317 46.8C101.317 46.88 101.277 47.08 101.197 47.4C101.157 47.76 101.097 48.02 101.017 48.18L100.777 48.42L100.237 47.82V40.08ZM141.963 51.06C141.803 51.06 141.503 51 141.063 50.88C140.623 50.8 140.383 50.72 140.343 50.64C140.263 50.6 140.203 50.54 140.163 50.46C140.083 50.3 140.043 50.18 140.043 50.1V49.8V49.74C140.043 49.66 140.083 49.46 140.163 49.14C140.203 48.98 140.263 48.84 140.343 48.72C140.383 48.64 140.483 48.48 140.643 48.24C140.843 48.04 141.043 47.82 141.243 47.58C141.483 47.38 141.703 47.16 141.903 46.92C142.103 46.72 142.243 46.58 142.323 46.5V45.48C142.203 45.2 142.003 44.74 141.723 44.1C141.443 43.5 141.143 42.8 140.823 42C140.503 41.2 140.163 40.36 139.803 39.48C139.483 38.64 139.163 37.82 138.843 37.02C138.523 36.22 138.243 35.52 138.003 34.92C137.763 34.28 137.583 33.82 137.463 33.54C137.343 33.22 137.123 32.7 136.803 31.98C136.523 31.22 136.223 30.42 135.903 29.58C135.623 28.74 135.343 27.96 135.063 27.24C134.783 26.52 134.583 26 134.463 25.68V26.88V27.96C134.463 28.16 134.483 28.44 134.523 28.8C134.563 29.12 134.583 29.48 134.583 29.88C134.623 30.24 134.663 30.6 134.703 30.96C134.743 31.28 134.763 31.5 134.763 31.62C134.803 31.7 134.863 31.9 134.943 32.22C135.023 32.5 135.103 32.82 135.183 33.18C135.263 33.54 135.323 33.88 135.363 34.2C135.443 34.52 135.483 34.74 135.483 34.86V35.7V36.48C135.483 36.56 135.383 36.82 135.183 37.26C134.983 37.7 134.843 37.98 134.763 38.1C134.763 38.18 134.703 38.44 134.583 38.88C134.503 39.32 134.463 39.6 134.463 39.72L134.223 40.02C134.143 39.94 134.023 39.82 133.863 39.66C133.743 39.5 133.643 39.38 133.563 39.3H133.323H133.143L132.603 43.26C132.523 43.18 132.443 43.06 132.363 42.9C132.283 42.74 132.243 42.62 132.243 42.54C132.243 42.34 132.183 41.92 132.063 41.28C131.983 40.64 131.943 40.22 131.943 40.02C131.863 40.02 131.743 39.96 131.583 39.84C131.423 39.76 131.303 39.72 131.223 39.72C131.183 39.64 131.083 39.52 130.923 39.36C130.763 39.2 130.663 39.08 130.623 39C130.583 38.88 130.503 38.66 130.383 38.34C130.303 37.98 130.203 37.6 130.083 37.2C130.003 36.8 129.903 36.44 129.783 36.12C129.703 35.76 129.643 35.52 129.603 35.4C129.563 35.32 129.463 35.08 129.303 34.68C129.143 34.28 129.043 33.98 129.003 33.78C129.003 33.7 128.903 33.5 128.703 33.18C128.503 32.82 128.363 32.6 128.283 32.52C128.243 32.44 128.163 32.3 128.043 32.1C127.923 31.86 127.803 31.62 127.683 31.38C127.563 31.14 127.443 30.92 127.323 30.72C127.203 30.52 127.123 30.38 127.083 30.3C126.963 30.14 126.763 29.86 126.483 29.46C126.243 29.02 125.983 28.58 125.703 28.14C125.423 27.66 125.143 27.22 124.863 26.82C124.623 26.42 124.463 26.16 124.383 26.04L123.963 26.34V35.4C123.803 35.6 123.583 35.98 123.303 36.54C123.023 37.1 122.843 37.48 122.763 37.68C122.763 37.8 122.743 38.06 122.703 38.46C122.703 38.82 122.683 39.22 122.643 39.66C122.603 40.1 122.563 40.5 122.523 40.86C122.523 41.26 122.523 41.52 122.523 41.64C122.523 41.76 122.463 41.98 122.343 42.3C122.263 42.62 122.223 42.84 122.223 42.96C122.143 42.88 122.043 42.76 121.923 42.6C121.843 42.44 121.803 42.32 121.803 42.24C121.803 42.12 121.783 41.9 121.743 41.58C121.703 41.26 121.663 40.92 121.623 40.56C121.623 40.24 121.603 39.92 121.563 39.6C121.523 39.32 121.503 39.12 121.503 39H121.443H121.143C121.023 39.08 120.883 39.14 120.723 39.18C120.403 39.26 120.223 39.3 120.183 39.3H119.643H119.283C119.203 39.3 119.083 39.2 118.923 39C118.763 38.84 118.643 38.72 118.563 38.64C118.603 38.2 118.663 37.4 118.743 36.24C118.823 35.08 118.903 33.84 118.983 32.52C119.063 31.2 119.123 29.96 119.163 28.8C119.243 27.64 119.283 26.82 119.283 26.34V22.98V19.56C119.283 19.52 119.263 19.4 119.223 19.2C119.183 18.96 119.143 18.72 119.103 18.48C119.103 18.24 119.083 18.02 119.043 17.82C119.003 17.58 118.983 17.42 118.983 17.34C118.903 17.18 118.823 16.94 118.743 16.62C118.703 16.26 118.643 16.04 118.563 15.96C118.523 15.92 118.443 15.78 118.323 15.54C118.243 15.26 118.163 14.98 118.083 14.7C117.963 14.38 117.863 14.1 117.783 13.86C117.703 13.62 117.663 13.46 117.663 13.38V13.08V12.72C117.703 12.6 117.803 12.36 117.963 12C118.123 11.64 118.223 11.46 118.263 11.46C118.303 11.42 118.403 11.32 118.563 11.16C118.723 11 118.883 10.84 119.043 10.68C119.243 10.48 119.403 10.3 119.523 10.14C119.683 9.98 119.803 9.86 119.883 9.78C119.963 9.78 120.163 9.7 120.483 9.54C120.843 9.34 121.063 9.24 121.143 9.24C121.223 9.24 121.303 9.22 121.383 9.18C121.503 9.1 121.603 9.06 121.683 9.06C121.763 9.06 121.843 9.1 121.923 9.18C122.043 9.22 122.143 9.24 122.223 9.24C122.263 9.24 122.303 9.26 122.343 9.3C122.463 9.42 122.523 9.48 122.523 9.48C122.523 9.56 122.603 9.76 122.763 10.08C122.923 10.4 123.083 10.76 123.243 11.16C123.443 11.52 123.623 11.86 123.783 12.18C123.983 12.5 124.103 12.68 124.143 12.72C124.223 12.88 124.383 13.2 124.623 13.68C124.863 14.12 125.123 14.6 125.403 15.12C125.683 15.64 125.943 16.14 126.183 16.62C126.423 17.06 126.583 17.38 126.663 17.58C126.703 17.66 126.783 17.82 126.903 18.06C127.023 18.26 127.143 18.48 127.263 18.72C127.423 18.96 127.563 19.2 127.683 19.44C127.803 19.64 127.903 19.78 127.983 19.86C128.143 20.06 128.343 20.36 128.583 20.76C128.863 21.16 129.003 21.4 129.003 21.48C129.003 21.56 129.043 21.62 129.123 21.66C129.203 21.7 129.283 21.72 129.363 21.72C129.363 21.68 129.363 21.54 129.363 21.3C129.403 21.06 129.423 20.8 129.423 20.52C129.463 20.24 129.503 19.98 129.543 19.74C129.583 19.46 129.603 19.28 129.603 19.2C129.643 19.04 129.723 18.64 129.843 18C129.963 17.36 130.083 16.68 130.203 15.96C130.323 15.24 130.423 14.56 130.503 13.92C130.583 13.28 130.623 12.88 130.623 12.72C130.623 12.6 130.643 12.34 130.683 11.94C130.723 11.54 130.743 11.1 130.743 10.62C130.783 10.14 130.823 9.7 130.863 9.3C130.903 8.9 130.943 8.64 130.983 8.52C130.983 8.44 131.003 8.24 131.043 7.92C131.123 7.56 131.183 7.3 131.223 7.14C131.223 7.1 131.263 7 131.343 6.84C131.463 6.68 131.523 6.58 131.523 6.54C131.643 6.42 131.803 6.24 132.003 6C132.243 5.76 132.483 5.52 132.723 5.28C132.963 5.04 133.183 4.84 133.383 4.68C133.623 4.48 133.783 4.38 133.863 4.38C133.903 4.3 134.043 4.2 134.283 4.08C134.523 3.96 134.683 3.9 134.763 3.9H135.183H135.483C135.523 3.9 135.563 3.96 135.603 4.08C135.683 4.2 135.763 4.3 135.843 4.38C135.843 4.42 135.883 4.56 135.963 4.8C136.043 5.04 136.083 5.2 136.083 5.28V10.14C136.083 10.22 136.123 10.46 136.203 10.86C136.323 11.26 136.383 11.56 136.383 11.76C136.423 11.88 136.483 12.06 136.563 12.3C136.643 12.54 136.723 12.8 136.803 13.08C136.883 13.32 136.943 13.56 136.983 13.8C137.063 14.04 137.103 14.22 137.103 14.34C137.143 14.62 137.243 15.04 137.403 15.6C137.603 16.12 137.703 16.46 137.703 16.62C137.823 16.9 138.003 17.42 138.243 18.18C138.483 18.9 138.743 19.68 139.023 20.52C139.303 21.36 139.563 22.16 139.803 22.92C140.043 23.64 140.223 24.14 140.343 24.42C140.383 24.54 140.463 24.78 140.583 25.14C140.743 25.5 140.883 25.88 141.003 26.28C141.163 26.64 141.303 27 141.423 27.36C141.543 27.68 141.623 27.88 141.663 27.96C141.783 28.24 142.003 28.82 142.323 29.7C142.683 30.58 143.083 31.62 143.523 32.82C144.003 33.98 144.503 35.22 145.023 36.54C145.543 37.82 146.023 39.02 146.463 40.14C146.943 41.3 147.363 42.3 147.723 43.14C148.083 44.02 148.323 44.6 148.443 44.88C148.443 44.96 148.463 45.04 148.503 45.12C148.543 45.24 148.583 45.34 148.623 45.42C148.663 45.54 148.723 45.66 148.803 45.78V46.2V46.5C148.803 46.54 148.743 46.68 148.623 46.92C148.543 47.16 148.483 47.32 148.443 47.4C148.443 47.48 148.383 47.6 148.263 47.76C148.183 47.92 148.143 48.04 148.143 48.12C148.063 48.16 147.943 48.32 147.783 48.6C147.623 48.88 147.503 49.02 147.423 49.02C147.423 49.1 147.383 49.22 147.303 49.38C147.223 49.54 147.183 49.66 147.183 49.74C147.103 49.78 147.023 49.92 146.943 50.16C146.903 50.4 146.863 50.56 146.823 50.64L146.523 50.1L145.743 50.34V53.34L145.203 53.58L144.903 53.34C144.823 53.14 144.763 52.74 144.723 52.14C144.683 51.58 144.663 51.22 144.663 51.06H141.963ZM147.459 45.12V39.6C147.299 39.52 147.059 39.4 146.739 39.24C146.459 39.08 146.239 38.96 146.079 38.88C146.039 38.76 145.999 38.66 145.959 38.58C145.879 38.42 145.839 38.32 145.839 38.28C145.839 38.2 145.779 37.94 145.659 37.5C145.579 37.06 145.539 36.78 145.539 36.66C145.499 36.54 145.439 36.34 145.359 36.06C145.319 35.78 145.279 35.5 145.239 35.22C145.199 34.9 145.159 34.6 145.119 34.32C145.119 34 145.119 33.78 145.119 33.66C145.079 33.18 145.019 32.52 144.939 31.68C144.899 30.8 144.839 29.92 144.759 29.04C144.719 28.12 144.659 27.3 144.579 26.58C144.539 25.86 144.499 25.44 144.459 25.32V22.86V20.46C144.539 20.3 144.639 20.06 144.759 19.74C144.919 19.38 145.039 19.16 145.119 19.08C145.199 19 145.399 18.8 145.719 18.48C146.079 18.12 146.319 17.9 146.439 17.82C146.519 17.7 146.679 17.58 146.919 17.46C147.199 17.3 147.379 17.22 147.459 17.22C147.499 17.22 147.639 17.2 147.879 17.16C148.119 17.08 148.279 17.04 148.359 17.04C148.399 17.04 148.539 17.08 148.779 17.16C148.899 17.2 148.999 17.22 149.079 17.22L149.319 17.82C149.359 18.06 149.399 18.52 149.439 19.2C149.479 19.84 149.499 20.52 149.499 21.24C149.539 21.96 149.579 22.64 149.619 23.28C149.659 23.92 149.679 24.36 149.679 24.6C149.679 24.84 149.699 25.3 149.739 25.98C149.819 26.66 149.899 27.4 149.979 28.2C150.059 29 150.139 29.76 150.219 30.48C150.299 31.2 150.359 31.72 150.399 32.04C150.399 32.12 150.419 32.28 150.459 32.52C150.499 32.76 150.519 33.02 150.519 33.3C150.559 33.54 150.599 33.76 150.639 33.96C150.679 34.16 150.699 34.28 150.699 34.32V35.04V35.64C150.699 35.72 150.639 35.9 150.519 36.18C150.439 36.42 150.399 36.58 150.399 36.66C150.319 36.7 150.179 36.86 149.979 37.14C149.859 37.3 149.759 37.44 149.679 37.56C149.599 37.8 149.479 38.04 149.319 38.28C149.319 38.6 149.299 39.18 149.259 40.02C149.219 40.9 149.159 41.82 149.079 42.78C149.039 43.74 148.979 44.64 148.899 45.48C148.859 46.32 148.819 46.92 148.779 47.28C148.779 47.36 148.719 47.64 148.599 48.12C148.519 48.64 148.439 49.04 148.359 49.32C148.359 49.48 148.299 49.76 148.179 50.16C148.099 50.6 148.059 50.86 148.059 50.94C148.059 51.02 148.019 51.18 147.939 51.42C147.859 51.66 147.779 51.8 147.699 51.84V45.36L147.459 45.12ZM144.399 3.18C144.399 3.14 144.399 3.1 144.399 3.06C144.439 2.98 144.459 2.92 144.459 2.88C144.459 2.84 144.479 2.8 144.519 2.76C144.559 2.6 144.699 2.38 144.939 2.1C145.219 1.82 145.379 1.64 145.419 1.56C145.459 1.56 145.559 1.52 145.719 1.44C145.919 1.32 146.119 1.2 146.319 1.08C146.559 0.919998 146.779 0.779997 146.979 0.659997C147.179 0.539998 147.339 0.459999 147.459 0.42C147.539 0.379998 147.659 0.359997 147.819 0.359997C147.979 0.359997 148.099 0.359997 148.179 0.359997L148.539 0.479999C148.659 0.519998 148.819 0.539998 149.019 0.539998C149.179 0.619997 149.319 0.679997 149.439 0.719999C149.519 0.759999 149.619 0.799998 149.739 0.839998C149.739 1.04 149.759 1.22 149.799 1.38C149.879 1.78 149.939 2.04 149.979 2.16C149.979 2.24 149.979 2.42 149.979 2.7C150.019 2.98 150.039 3.28 150.039 3.6C150.079 3.92 150.119 4.24 150.159 4.56C150.199 4.88 150.219 5.12 150.219 5.28C150.219 5.64 150.219 6.14 150.219 6.78C150.219 7.38 150.219 7.98 150.219 8.58C150.259 9.18 150.279 9.72 150.279 10.2C150.319 10.68 150.359 10.96 150.399 11.04C150.359 11.2 150.319 11.34 150.279 11.46C150.199 11.7 150.139 11.88 150.099 12C150.059 12.08 150.039 12.18 150.039 12.3C150.039 12.38 150.019 12.46 149.979 12.54C149.939 12.66 149.899 12.76 149.859 12.84C149.739 12.92 149.619 13.1 149.499 13.38C149.379 13.62 149.279 13.74 149.199 13.74C149.119 13.78 148.939 13.88 148.659 14.04C148.419 14.2 148.139 14.36 147.819 14.52C147.539 14.68 147.259 14.84 146.979 15C146.699 15.12 146.499 15.2 146.379 15.24C146.379 15.32 146.239 15.36 145.959 15.36C145.719 15.36 145.539 15.4 145.419 15.48L145.299 15.42H145.119C145.079 15.34 144.979 15.24 144.819 15.12C144.659 14.96 144.599 14.84 144.639 14.76C144.679 14.72 144.679 14.52 144.639 14.16C144.639 13.8 144.639 13.6 144.639 13.56C144.599 13.28 144.559 12.86 144.519 12.3C144.519 11.7 144.519 11.1 144.519 10.5C144.519 9.86 144.519 9.28 144.519 8.76C144.519 8.24 144.519 7.9 144.519 7.74C144.519 7.66 144.499 7.42 144.459 7.02C144.419 6.62 144.379 6.2 144.339 5.76C144.299 5.28 144.279 4.84 144.279 4.44C144.279 4.04 144.279 3.8 144.279 3.72C144.279 3.64 144.299 3.56 144.339 3.48C144.339 3.4 144.339 3.34 144.339 3.3C144.379 3.26 144.399 3.22 144.399 3.18ZM155.151 39.3C155.071 39.22 154.931 39.06 154.731 38.82C154.571 38.54 154.451 38.36 154.371 38.28C154.411 38.2 154.371 37.9 154.251 37.38C154.171 36.82 154.091 36.44 154.011 36.24C153.971 36.16 153.931 36 153.891 35.76C153.851 35.52 153.811 35.26 153.771 34.98C153.731 34.7 153.691 34.42 153.651 34.14C153.611 33.86 153.571 33.66 153.531 33.54C153.491 33.38 153.431 32.94 153.351 32.22C153.311 31.5 153.251 30.66 153.171 29.7C153.091 28.7 152.991 27.64 152.871 26.52C152.791 25.4 152.691 24.36 152.571 23.4C152.491 22.4 152.411 21.56 152.331 20.88C152.291 20.16 152.251 19.7 152.211 19.5C152.131 19.18 152.051 18.7 151.971 18.06C151.891 17.38 151.811 16.96 151.731 16.8C151.731 16.76 151.691 16.66 151.611 16.5C151.531 16.3 151.491 16.18 151.491 16.14C151.451 16.1 151.411 16.02 151.371 15.9C151.371 15.78 151.331 15.66 151.251 15.54C151.171 15.38 151.091 15.24 151.011 15.12C151.011 15.08 151.011 14.98 151.011 14.82C151.011 14.66 151.031 14.56 151.071 14.52V14.1C151.071 13.98 151.091 13.88 151.131 13.8C151.131 13.72 151.231 13.52 151.431 13.2C151.631 12.88 151.771 12.64 151.851 12.48C151.891 12.48 151.991 12.42 152.151 12.3C152.311 12.14 152.471 11.98 152.631 11.82C152.831 11.66 153.011 11.5 153.171 11.34C153.371 11.18 153.511 11.06 153.591 10.98C153.671 10.94 153.871 10.86 154.191 10.74C154.551 10.62 154.771 10.56 154.851 10.56H155.451C155.531 10.56 155.691 10.6 155.931 10.68L156.051 10.8C156.171 10.92 156.231 10.98 156.231 10.98C156.271 11.1 156.351 11.34 156.471 11.7C156.591 12.02 156.671 12.24 156.711 12.36C156.711 12.4 156.731 12.52 156.771 12.72C156.811 12.88 156.851 13.08 156.891 13.32C156.971 13.56 157.031 13.8 157.071 14.04C157.151 14.24 157.211 14.42 157.251 14.58C157.251 14.7 157.251 14.9 157.251 15.18C157.291 15.42 157.331 15.68 157.371 15.96C157.411 16.24 157.451 16.52 157.491 16.8C157.531 17.04 157.551 17.2 157.551 17.28C157.551 17.36 157.571 17.56 157.611 17.88C157.691 18.16 157.751 18.46 157.791 18.78C157.831 19.1 157.871 19.42 157.911 19.74C157.951 20.02 157.971 20.18 157.971 20.22C158.051 20.3 158.111 20.42 158.151 20.58C158.191 20.74 158.251 20.86 158.331 20.94C158.411 20.86 158.551 20.7 158.751 20.46C158.951 20.18 159.151 19.9 159.351 19.62C159.591 19.3 159.811 19.02 160.011 18.78C160.251 18.54 160.411 18.38 160.491 18.3C160.531 18.22 160.771 17.94 161.211 17.46C161.651 16.98 161.991 16.62 162.231 16.38C162.271 16.38 162.331 16.34 162.411 16.26C162.491 16.14 162.571 16.1 162.651 16.14C162.771 16.02 162.991 15.86 163.311 15.66C163.671 15.42 163.891 15.26 163.971 15.18C164.171 15.14 164.511 15.02 164.991 14.82C165.511 14.62 165.871 14.48 166.071 14.4C166.111 14.44 166.151 14.46 166.191 14.46H166.491C166.531 14.46 166.571 14.48 166.611 14.52C166.651 14.52 166.711 14.52 166.791 14.52H167.031C167.071 14.6 167.151 14.68 167.271 14.76C167.431 14.84 167.551 14.9 167.631 14.94L168.111 15.54C168.191 15.62 168.291 15.8 168.411 16.08C168.571 16.32 168.691 16.52 168.771 16.68C168.811 16.68 168.851 16.78 168.891 16.98C168.931 17.18 168.971 17.32 169.011 17.4C169.051 17.56 169.171 18.02 169.371 18.78C169.611 19.5 169.851 20.3 170.091 21.18C170.371 22.02 170.611 22.82 170.811 23.58C171.051 24.34 171.211 24.82 171.291 25.02C171.291 25.06 171.311 25.18 171.351 25.38C171.431 25.58 171.511 25.82 171.591 26.1C171.671 26.34 171.751 26.6 171.831 26.88C171.911 27.12 171.951 27.3 171.951 27.42C171.991 27.5 172.071 27.9 172.191 28.62C172.351 29.34 172.511 30.14 172.671 31.02C172.831 31.86 172.971 32.66 173.091 33.42C173.211 34.14 173.271 34.56 173.271 34.68C173.351 34.72 173.431 34.88 173.511 35.16C173.591 35.4 173.631 35.56 173.631 35.64C173.591 35.76 173.571 35.9 173.571 36.06L173.511 36.36C173.511 36.48 173.451 36.66 173.331 36.9C173.211 37.1 173.111 37.2 173.031 37.2C173.031 37.28 172.971 37.42 172.851 37.62C172.731 37.78 172.591 37.96 172.431 38.16C172.271 38.36 172.111 38.56 171.951 38.76C171.791 38.96 171.691 39.08 171.651 39.12C171.611 39.2 171.571 39.38 171.531 39.66C171.491 39.94 171.451 40.24 171.411 40.56C171.371 40.88 171.331 41.18 171.291 41.46C171.251 41.74 171.231 41.92 171.231 42C171.231 41.92 171.151 41.74 170.991 41.46C170.831 41.18 170.771 41.02 170.811 40.98C170.811 40.9 170.771 40.68 170.691 40.32C170.651 40 170.631 39.8 170.631 39.72C170.551 39.68 170.371 39.68 170.091 39.72C169.851 39.8 169.671 39.84 169.551 39.84H169.371C169.251 39.84 169.191 39.82 169.191 39.78H168.651L168.411 39.48C168.331 39.4 168.271 39.18 168.231 38.82C168.231 38.42 168.191 38.18 168.111 38.1C168.071 37.98 167.971 37.46 167.811 36.54C167.651 35.62 167.471 34.64 167.271 33.6C167.071 32.56 166.871 31.58 166.671 30.66C166.511 29.74 166.411 29.22 166.371 29.1C166.291 28.86 166.151 28.42 165.951 27.78C165.791 27.14 165.591 26.48 165.351 25.8C165.111 25.08 164.891 24.4 164.691 23.76C164.491 23.12 164.351 22.66 164.271 22.38C164.271 22.66 164.251 23.32 164.211 24.36C164.211 25.36 164.171 26.46 164.091 27.66C164.051 28.82 163.991 29.9 163.911 30.9C163.831 31.9 163.751 32.54 163.671 32.82C163.671 32.98 163.611 33.3 163.491 33.78C163.411 34.26 163.311 34.56 163.191 34.68C163.191 34.6 163.191 34.26 163.191 33.66C163.191 33.02 163.191 32.34 163.191 31.62C163.191 30.9 163.191 30.24 163.191 29.64C163.191 29 163.191 28.64 163.191 28.56C163.191 28.44 163.171 28.22 163.131 27.9C163.131 27.54 163.131 27.18 163.131 26.82C163.131 26.42 163.131 26.06 163.131 25.74C163.131 25.38 163.131 25.14 163.131 25.02C163.131 24.82 163.131 24.5 163.131 24.06C163.171 23.58 163.191 23.08 163.191 22.56C163.191 22.04 163.191 21.56 163.191 21.12C163.231 20.64 163.251 20.32 163.251 20.16C163.171 20.24 163.051 20.4 162.891 20.64C162.771 20.84 162.631 21.08 162.471 21.36C162.351 21.6 162.211 21.84 162.051 22.08C161.891 22.32 161.791 22.48 161.751 22.56C161.631 22.68 161.471 22.94 161.271 23.34C161.111 23.74 160.971 24 160.851 24.12C160.811 24.24 160.751 24.44 160.671 24.72C160.591 24.96 160.511 25.22 160.431 25.5C160.351 25.78 160.271 26.04 160.191 26.28C160.111 26.52 160.071 26.66 160.071 26.7C160.031 26.9 159.971 27.42 159.891 28.26C159.851 29.1 159.811 30.02 159.771 31.02C159.731 32.02 159.691 32.96 159.651 33.84C159.651 34.68 159.651 35.18 159.651 35.34C159.571 35.5 159.431 35.74 159.231 36.06C159.071 36.38 158.951 36.58 158.871 36.66C158.831 36.74 158.711 36.86 158.511 37.02C158.311 37.18 158.111 37.36 157.911 37.56C157.711 37.76 157.511 37.96 157.311 38.16C157.151 38.32 157.071 38.44 157.071 38.52C157.031 38.56 156.971 38.72 156.891 39C156.851 39.24 156.791 39.52 156.711 39.84C156.671 40.2 156.611 40.52 156.531 40.8C156.491 41.08 156.451 41.26 156.411 41.34C156.411 41.38 156.331 41.5 156.171 41.7C156.051 41.94 155.991 42.1 155.991 42.18L156.291 39C156.211 39.16 156.111 39.44 155.991 39.84C155.911 40.24 155.831 40.66 155.751 41.1C155.671 41.58 155.591 42.02 155.511 42.42C155.431 42.82 155.371 43.1 155.331 43.26C155.331 43.38 155.231 43.68 155.031 44.16C154.831 44.64 154.711 44.94 154.671 45.06L155.151 39.3ZM182.583 40.56C182.463 40.44 182.243 40.28 181.923 40.08C181.643 39.92 181.443 39.8 181.323 39.72C181.243 39.68 181.083 39.52 180.843 39.24C180.643 39 180.503 38.84 180.423 38.76C180.383 38.64 180.283 38.46 180.123 38.22C180.003 37.98 179.923 37.78 179.883 37.62C179.803 37.5 179.703 37.3 179.583 37.02C179.503 36.74 179.403 36.46 179.283 36.18C179.163 35.9 179.043 35.64 178.923 35.4C178.843 35.16 178.783 35 178.743 34.92C178.743 34.84 178.703 34.68 178.623 34.44C178.583 34.16 178.523 33.88 178.443 33.6C178.363 33.28 178.283 32.98 178.203 32.7C178.123 32.38 178.063 32.16 178.023 32.04C178.023 31.92 178.003 31.74 177.963 31.5C177.963 31.22 177.923 30.94 177.843 30.66C177.803 30.34 177.763 30.06 177.723 29.82C177.683 29.54 177.643 29.36 177.603 29.28C177.603 29.2 177.583 28.92 177.543 28.44C177.543 27.96 177.543 27.62 177.543 27.42C177.543 27.34 177.523 27.18 177.483 26.94C177.483 26.66 177.483 26.38 177.483 26.1C177.483 25.78 177.483 25.5 177.483 25.26C177.483 24.98 177.483 24.8 177.483 24.72C177.403 24.6 177.343 24.32 177.303 23.88C177.303 23.44 177.263 23.18 177.183 23.1H177.063L176.883 23.04C176.883 23.04 176.803 23.06 176.643 23.1C176.483 23.1 176.303 23.12 176.103 23.16C175.943 23.16 175.763 23.18 175.563 23.22C175.403 23.22 175.303 23.22 175.263 23.22C175.223 23.22 175.103 23.22 174.903 23.22C174.703 23.18 174.523 23.16 174.363 23.16C174.283 23.16 174.203 23.16 174.123 23.16C174.083 23.12 174.023 23.1 173.943 23.1H173.643C173.603 23.1 173.503 23 173.343 22.8C173.223 22.6 173.143 22.46 173.103 22.38V22.2V22.14C173.103 22.06 173.143 21.9 173.223 21.66C173.343 21.38 173.423 21.2 173.463 21.12C173.543 20.96 173.623 20.84 173.703 20.76C173.743 20.68 173.803 20.62 173.883 20.58C173.963 20.46 174.123 20.28 174.363 20.04C174.643 19.8 174.923 19.56 175.203 19.32C175.523 19.04 175.823 18.8 176.103 18.6C176.383 18.4 176.583 18.26 176.703 18.18C176.743 18.14 176.883 18.04 177.123 17.88C177.403 17.72 177.583 17.64 177.663 17.64C177.703 17.48 177.783 17.18 177.903 16.74C178.023 16.3 178.123 15.84 178.203 15.36C178.323 14.88 178.423 14.44 178.503 14.04C178.623 13.6 178.723 13.3 178.803 13.14C178.803 13.02 178.823 12.86 178.863 12.66C178.903 12.42 178.943 12.2 178.983 12C179.023 11.76 179.083 11.52 179.163 11.28C179.243 11.04 179.443 10.68 179.763 10.2C180.083 9.72 180.303 9.42 180.423 9.3C180.503 9.26 180.703 9.08 181.023 8.76C181.343 8.44 181.583 8.28 181.743 8.28C181.863 8.2 182.083 8.08 182.403 7.92C182.763 7.72 183.003 7.62 183.123 7.62C183.203 7.66 183.283 7.68 183.363 7.68H183.663L184.143 7.74C184.183 7.74 184.223 7.78 184.263 7.86C184.303 7.94 184.363 7.98 184.443 7.98C184.443 8.14 184.423 8.46 184.383 8.94C184.343 9.42 184.323 9.7 184.323 9.78C184.283 10.06 184.243 10.44 184.203 10.92C184.163 11.36 184.143 11.62 184.143 11.7C184.063 11.86 183.983 12 183.903 12.12C183.783 12.36 183.723 12.52 183.723 12.6C183.723 12.8 183.703 13.12 183.663 13.56C183.623 14 183.583 14.46 183.543 14.94C183.503 15.42 183.463 15.88 183.423 16.32C183.383 16.72 183.363 16.98 183.363 17.1L183.903 17.16C184.183 17.12 184.623 17.04 185.223 16.92C185.823 16.76 186.463 16.6 187.143 16.44C187.823 16.28 188.463 16.14 189.063 16.02C189.663 15.9 190.083 15.8 190.323 15.72C190.443 15.68 190.623 15.64 190.863 15.6C191.143 15.56 191.403 15.5 191.643 15.42C191.923 15.34 192.223 15.28 192.543 15.24C192.623 15.24 192.803 15.26 193.083 15.3C193.363 15.3 193.583 15.3 193.743 15.3C193.783 15.34 193.943 15.38 194.223 15.42C194.543 15.42 194.743 15.42 194.823 15.42C194.863 15.5 194.903 15.58 194.943 15.66C195.023 15.74 195.103 15.84 195.183 15.96C195.143 16 195.123 16.04 195.123 16.08V16.26C195.123 16.34 195.103 16.4 195.063 16.44C195.063 16.48 195.063 16.54 195.063 16.62V16.8C194.983 16.88 194.923 16.98 194.883 17.1C194.803 17.18 194.743 17.26 194.703 17.34C194.703 17.42 194.683 17.48 194.643 17.52C194.563 17.56 194.423 17.7 194.223 17.94C194.063 18.14 193.943 18.28 193.863 18.36C193.863 18.44 193.763 18.56 193.563 18.72C193.363 18.84 193.263 18.94 193.263 19.02C193.183 19.06 193.003 19.16 192.723 19.32C192.443 19.44 192.243 19.5 192.123 19.5C192.043 19.5 191.843 19.58 191.523 19.74C191.203 19.9 191.003 19.98 190.923 19.98L190.563 23.64L190.203 23.16L189.903 20.34L189.243 20.28V20.52C189.203 20.68 189.203 21.06 189.243 21.66C189.323 22.26 189.343 22.64 189.303 22.8C189.303 22.96 189.303 23.2 189.303 23.52C189.303 23.84 189.303 24.18 189.303 24.54C189.303 24.9 189.303 25.24 189.303 25.56C189.343 25.84 189.383 26.02 189.423 26.1C189.383 26.18 189.363 26.26 189.363 26.34V26.64L189.303 27.06L188.943 26.76L188.163 20.28L182.943 21.6C182.903 21.68 182.883 21.78 182.883 21.9C182.883 21.98 182.863 22.08 182.823 22.2C182.823 22.28 182.823 22.36 182.823 22.44C182.823 22.56 182.803 22.78 182.763 23.1C182.763 23.38 182.763 23.54 182.763 23.58C182.763 23.86 182.783 24.12 182.823 24.36C182.863 24.56 182.883 24.78 182.883 25.02C182.883 25.22 182.903 25.38 182.943 25.5C182.943 25.62 182.963 25.9 183.003 26.34C183.043 26.74 183.063 27.02 183.063 27.18C183.023 27.3 183.043 27.54 183.123 27.9C183.203 28.26 183.243 28.46 183.243 28.5C183.283 28.7 183.343 28.96 183.423 29.28C183.503 29.56 183.583 29.86 183.663 30.18C183.743 30.5 183.823 30.78 183.903 31.02C183.983 31.26 184.023 31.4 184.023 31.44C184.023 31.52 184.063 31.7 184.143 31.98C184.223 32.22 184.323 32.5 184.443 32.82C184.563 33.1 184.663 33.38 184.743 33.66C184.863 33.94 184.963 34.14 185.043 34.26C185.083 34.34 185.123 34.4 185.163 34.44C185.283 34.56 185.363 34.62 185.403 34.62C185.483 34.62 185.683 34.68 186.003 34.8C186.323 34.88 186.523 34.92 186.603 34.92C186.643 35 186.703 35.08 186.783 35.16C186.903 35.24 186.963 35.3 186.963 35.34C186.923 35.46 186.903 35.56 186.903 35.64V36.06C186.903 36.1 186.883 36.14 186.843 36.18C186.843 36.22 186.843 36.28 186.843 36.36V36.6C186.763 36.68 186.623 36.88 186.423 37.2C186.263 37.52 186.143 37.76 186.063 37.92C185.983 37.92 185.823 38.04 185.583 38.28C185.383 38.52 185.263 38.68 185.223 38.76L184.803 43.56L184.263 43.5L184.143 43.02C184.103 42.9 184.063 42.76 184.023 42.6C184.023 42.48 184.043 42.38 184.083 42.3C184.043 42.18 184.003 42 183.963 41.76C183.963 41.56 183.963 41.34 183.963 41.1C183.963 40.86 183.943 40.62 183.903 40.38C183.903 40.18 183.883 40.04 183.843 39.96L182.703 52.86L182.583 40.56Z" fill="white"/>
</svg>