<svg width="221" height="52" viewBox="0 0 221 52" fill="none" xmlns="http://www.w3.org/2000/svg">
<path d="M24.7727 48.06C24.6127 48.06 24.3127 48 23.8727 47.88C23.4327 47.8 23.1927 47.72 23.1527 47.64C23.0727 47.6 23.0127 47.54 22.9727 47.46C22.8927 47.3 22.8527 47.18 22.8527 47.1V46.8V46.74C22.8527 46.66 22.8927 46.46 22.9727 46.14C23.0127 45.98 23.0727 45.84 23.1527 45.72C23.1927 45.64 23.2927 45.48 23.4527 45.24C23.6527 45.04 23.8527 44.82 24.0527 44.58C24.2927 44.38 24.5127 44.16 24.7127 43.92C24.9127 43.72 25.0527 43.58 25.1327 43.5V42.48C25.0127 42.2 24.8127 41.74 24.5327 41.1C24.2527 40.5 23.9527 39.8 23.6327 39C23.3127 38.2 22.9727 37.36 22.6127 36.48C22.2927 35.64 21.9727 34.82 21.6527 34.02C21.3327 33.22 21.0527 32.52 20.8127 31.92C20.5727 31.28 20.3927 30.82 20.2727 30.54C20.1527 30.22 19.9327 29.7 19.6127 28.98C19.3327 28.22 19.0327 27.42 18.7127 26.58C18.4327 25.74 18.1527 24.96 17.8727 24.24C17.5927 23.52 17.3927 23 17.2727 22.68V23.88V24.96C17.2727 25.16 17.2927 25.44 17.3327 25.8C17.3727 26.12 17.3927 26.48 17.3927 26.88C17.4327 27.24 17.4727 27.6 17.5127 27.96C17.5527 28.28 17.5727 28.5 17.5727 28.62C17.6127 28.7 17.6727 28.9 17.7527 29.22C17.8327 29.5 17.9127 29.82 17.9927 30.18C18.0727 30.54 18.1327 30.88 18.1727 31.2C18.2527 31.52 18.2927 31.74 18.2927 31.86V32.7V33.48C18.2927 33.56 18.1927 33.82 17.9927 34.26C17.7927 34.7 17.6527 34.98 17.5727 35.1C17.5727 35.18 17.5127 35.44 17.3927 35.88C17.3127 36.32 17.2727 36.6 17.2727 36.72L17.0327 37.02C16.9527 36.94 16.8327 36.82 16.6727 36.66C16.5527 36.5 16.4527 36.38 16.3727 36.3H16.1327H15.9527L15.4127 40.26C15.3327 40.18 15.2527 40.06 15.1727 39.9C15.0927 39.74 15.0527 39.62 15.0527 39.54C15.0527 39.34 14.9927 38.92 14.8727 38.28C14.7927 37.64 14.7527 37.22 14.7527 37.02C14.6727 37.02 14.5527 36.96 14.3927 36.84C14.2327 36.76 14.1127 36.72 14.0327 36.72C13.9927 36.64 13.8927 36.52 13.7327 36.36C13.5727 36.2 13.4727 36.08 13.4327 36C13.3927 35.88 13.3127 35.66 13.1927 35.34C13.1127 34.98 13.0127 34.6 12.8927 34.2C12.8127 33.8 12.7127 33.44 12.5927 33.12C12.5127 32.76 12.4527 32.52 12.4127 32.4C12.3727 32.32 12.2727 32.08 12.1127 31.68C11.9527 31.28 11.8527 30.98 11.8127 30.78C11.8127 30.7 11.7127 30.5 11.5127 30.18C11.3127 29.82 11.1727 29.6 11.0927 29.52C11.0527 29.44 10.9727 29.3 10.8527 29.1C10.7327 28.86 10.6127 28.62 10.4927 28.38C10.3727 28.14 10.2527 27.92 10.1327 27.72C10.0127 27.52 9.9327 27.38 9.8927 27.3C9.7727 27.14 9.5727 26.86 9.2927 26.46C9.0527 26.02 8.7927 25.58 8.5127 25.14C8.2327 24.66 7.9527 24.22 7.6727 23.82C7.4327 23.42 7.2727 23.16 7.1927 23.04L6.7727 23.34V32.4C6.6127 32.6 6.3927 32.98 6.1127 33.54C5.8327 34.1 5.6527 34.48 5.5727 34.68C5.5727 34.8 5.5527 35.06 5.5127 35.46C5.5127 35.82 5.4927 36.22 5.4527 36.66C5.4127 37.1 5.3727 37.5 5.3327 37.86C5.3327 38.26 5.3327 38.52 5.3327 38.64C5.3327 38.76 5.2727 38.98 5.1527 39.3C5.0727 39.62 5.0327 39.84 5.0327 39.96C4.9527 39.88 4.8527 39.76 4.7327 39.6C4.6527 39.44 4.6127 39.32 4.6127 39.24C4.6127 39.12 4.5927 38.9 4.5527 38.58C4.5127 38.26 4.4727 37.92 4.4327 37.56C4.4327 37.24 4.4127 36.92 4.3727 36.6C4.3327 36.32 4.3127 36.12 4.3127 36H4.2527H3.9527C3.8327 36.08 3.6927 36.14 3.5327 36.18C3.2127 36.26 3.0327 36.3 2.9927 36.3H2.4527H2.0927C2.0127 36.3 1.8927 36.2 1.7327 36C1.5727 35.84 1.4527 35.72 1.3727 35.64C1.4127 35.2 1.4727 34.4 1.5527 33.24C1.6327 32.08 1.7127 30.84 1.7927 29.52C1.8727 28.2 1.9327 26.96 1.9727 25.8C2.0527 24.64 2.0927 23.82 2.0927 23.34V19.98V16.56C2.0927 16.52 2.0727 16.4 2.0327 16.2C1.9927 15.96 1.9527 15.72 1.9127 15.48C1.9127 15.24 1.8927 15.02 1.8527 14.82C1.8127 14.58 1.7927 14.42 1.7927 14.34C1.7127 14.18 1.6327 13.94 1.5527 13.62C1.5127 13.26 1.4527 13.04 1.3727 12.96C1.3327 12.92 1.2527 12.78 1.1327 12.54C1.0527 12.26 0.972695 11.98 0.892695 11.7C0.772695 11.38 0.672695 11.1 0.592695 10.86C0.512695 10.62 0.472695 10.46 0.472695 10.38V10.08V9.72C0.512695 9.6 0.612695 9.36 0.772695 9C0.932695 8.64 1.0327 8.46 1.0727 8.46C1.1127 8.42 1.2127 8.32 1.3727 8.16C1.5327 8 1.6927 7.84 1.8527 7.68C2.0527 7.48 2.2127 7.3 2.3327 7.14C2.4927 6.98 2.6127 6.86 2.6927 6.78C2.7727 6.78 2.9727 6.7 3.2927 6.54C3.6527 6.34 3.8727 6.24 3.9527 6.24C4.0327 6.24 4.1127 6.22 4.1927 6.18C4.3127 6.1 4.4127 6.06 4.4927 6.06C4.5727 6.06 4.6527 6.1 4.7327 6.18C4.8527 6.22 4.9527 6.24 5.0327 6.24C5.0727 6.24 5.1127 6.26 5.1527 6.3C5.2727 6.42 5.3327 6.48 5.3327 6.48C5.3327 6.56 5.4127 6.76 5.5727 7.08C5.7327 7.4 5.8927 7.76 6.0527 8.16C6.2527 8.52 6.4327 8.86 6.5927 9.18C6.7927 9.5 6.9127 9.68 6.9527 9.72C7.0327 9.88 7.1927 10.2 7.4327 10.68C7.6727 11.12 7.9327 11.6 8.2127 12.12C8.4927 12.64 8.7527 13.14 8.9927 13.62C9.2327 14.06 9.3927 14.38 9.4727 14.58C9.5127 14.66 9.5927 14.82 9.7127 15.06C9.8327 15.26 9.9527 15.48 10.0727 15.72C10.2327 15.96 10.3727 16.2 10.4927 16.44C10.6127 16.64 10.7127 16.78 10.7927 16.86C10.9527 17.06 11.1527 17.36 11.3927 17.76C11.6727 18.16 11.8127 18.4 11.8127 18.48C11.8127 18.56 11.8527 18.62 11.9327 18.66C12.0127 18.7 12.0927 18.72 12.1727 18.72C12.1727 18.68 12.1727 18.54 12.1727 18.3C12.2127 18.06 12.2327 17.8 12.2327 17.52C12.2727 17.24 12.3127 16.98 12.3527 16.74C12.3927 16.46 12.4127 16.28 12.4127 16.2C12.4527 16.04 12.5327 15.64 12.6527 15C12.7727 14.36 12.8927 13.68 13.0127 12.96C13.1327 12.24 13.2327 11.56 13.3127 10.92C13.3927 10.28 13.4327 9.88 13.4327 9.72C13.4327 9.6 13.4527 9.34 13.4927 8.94C13.5327 8.54 13.5527 8.1 13.5527 7.62C13.5927 7.14 13.6327 6.7 13.6727 6.3C13.7127 5.9 13.7527 5.64 13.7927 5.52C13.7927 5.44 13.8127 5.24 13.8527 4.92C13.9327 4.56 13.9927 4.3 14.0327 4.14C14.0327 4.1 14.0727 4 14.1527 3.84C14.2727 3.68 14.3327 3.58 14.3327 3.54C14.4527 3.42 14.6127 3.24 14.8127 3C15.0527 2.76 15.2927 2.52 15.5327 2.28C15.7727 2.04 15.9927 1.84 16.1927 1.68C16.4327 1.48 16.5927 1.38 16.6727 1.38C16.7127 1.3 16.8527 1.2 17.0927 1.08C17.3327 0.959998 17.4927 0.899998 17.5727 0.899998H17.9927H18.2927C18.3327 0.899998 18.3727 0.959998 18.4127 1.08C18.4927 1.2 18.5727 1.3 18.6527 1.38C18.6527 1.42 18.6927 1.56 18.7727 1.8C18.8527 2.04 18.8927 2.2 18.8927 2.28V7.14C18.8927 7.22 18.9327 7.46 19.0127 7.86C19.1327 8.26 19.1927 8.56 19.1927 8.76C19.2327 8.88 19.2927 9.06 19.3727 9.3C19.4527 9.54 19.5327 9.8 19.6127 10.08C19.6927 10.32 19.7527 10.56 19.7927 10.8C19.8727 11.04 19.9127 11.22 19.9127 11.34C19.9527 11.62 20.0527 12.04 20.2127 12.6C20.4127 13.12 20.5127 13.46 20.5127 13.62C20.6327 13.9 20.8127 14.42 21.0527 15.18C21.2927 15.9 21.5527 16.68 21.8327 17.52C22.1127 18.36 22.3727 19.16 22.6127 19.92C22.8527 20.64 23.0327 21.14 23.1527 21.42C23.1927 21.54 23.2727 21.78 23.3927 22.14C23.5527 22.5 23.6927 22.88 23.8127 23.28C23.9727 23.64 24.1127 24 24.2327 24.36C24.3527 24.68 24.4327 24.88 24.4727 24.96C24.5927 25.24 24.8127 25.82 25.1327 26.7C25.4927 27.58 25.8927 28.62 26.3327 29.82C26.8127 30.98 27.3127 32.22 27.8327 33.54C28.3527 34.82 28.8327 36.02 29.2727 37.14C29.7527 38.3 30.1727 39.3 30.5327 40.14C30.8927 41.02 31.1327 41.6 31.2527 41.88C31.2527 41.96 31.2727 42.04 31.3127 42.12C31.3527 42.24 31.3927 42.34 31.4327 42.42C31.4727 42.54 31.5327 42.66 31.6127 42.78V43.2V43.5C31.6127 43.54 31.5527 43.68 31.4327 43.92C31.3527 44.16 31.2927 44.32 31.2527 44.4C31.2527 44.48 31.1927 44.6 31.0727 44.76C30.9927 44.92 30.9527 45.04 30.9527 45.12C30.8727 45.16 30.7527 45.32 30.5927 45.6C30.4327 45.88 30.3127 46.02 30.2327 46.02C30.2327 46.1 30.1927 46.22 30.1127 46.38C30.0327 46.54 29.9927 46.66 29.9927 46.74C29.9127 46.78 29.8327 46.92 29.7527 47.16C29.7127 47.4 29.6727 47.56 29.6327 47.64L29.3327 47.1L28.5527 47.34V50.34L28.0127 50.58L27.7127 50.34C27.6327 50.14 27.5727 49.74 27.5327 49.14C27.4927 48.58 27.4727 48.22 27.4727 48.06H24.7727ZM41.0683 37.8C41.0683 37.96 41.0083 38.32 40.8883 38.88C40.8083 39.48 40.7283 39.88 40.6483 40.08L40.3483 40.62L39.8083 40.32V36.48C39.7283 36.44 39.5483 36.38 39.2683 36.3C39.0283 36.26 38.7683 36.2 38.4883 36.12C38.2083 36.04 37.9283 35.98 37.6483 35.94C37.4083 35.86 37.2283 35.8 37.1083 35.76C37.0283 35.76 36.8883 35.74 36.6883 35.7C36.5283 35.62 36.3483 35.54 36.1483 35.46C35.9483 35.38 35.7483 35.32 35.5483 35.28C35.3483 35.2 35.2083 35.14 35.1283 35.1C35.0483 35.1 34.8483 35.04 34.5283 34.92C34.2483 34.76 34.0283 34.64 33.8683 34.56C33.8283 34.48 33.6883 34.36 33.4483 34.2C33.2083 34.04 33.0483 33.92 32.9683 33.84C32.8483 33.72 32.6083 33.54 32.2483 33.3C31.8883 33.06 31.6883 32.94 31.6483 32.94C31.5683 32.82 31.3483 32.58 30.9883 32.22C30.6683 31.86 30.4283 31.66 30.2683 31.62C30.2683 31.54 30.1283 31.34 29.8483 31.02C29.6083 30.7 29.4283 30.44 29.3083 30.24C29.2283 30.16 29.1083 30 28.9483 29.76C28.8283 29.52 28.7283 29.36 28.6483 29.28C28.6083 29.2 28.5283 29.08 28.4083 28.92C28.3283 28.72 28.2483 28.52 28.1683 28.32C28.0883 28.08 27.9883 27.88 27.8683 27.72C27.7883 27.52 27.7283 27.4 27.6883 27.36C27.6083 27.24 27.4883 26.94 27.3283 26.46C27.2083 25.94 27.1083 25.58 27.0283 25.38C27.0283 25.26 26.9883 24.96 26.9083 24.48C26.8283 23.96 26.7883 23.64 26.7883 23.52V21.9V20.28C26.7883 20.2 26.8283 19.94 26.9083 19.5C26.9883 19.06 27.0283 18.78 27.0283 18.66C27.1083 18.42 27.2083 18.06 27.3283 17.58C27.4883 17.06 27.6083 16.72 27.6883 16.56C27.7283 16.56 27.7883 16.48 27.8683 16.32C27.9883 16.16 28.0883 15.98 28.1683 15.78C28.2483 15.58 28.3283 15.38 28.4083 15.18C28.5283 14.98 28.6083 14.82 28.6483 14.7C28.7283 14.62 28.8283 14.46 28.9483 14.22C29.1083 13.98 29.2283 13.84 29.3083 13.8C29.4283 13.64 29.6083 13.4 29.8483 13.08C30.1283 12.72 30.2683 12.5 30.2683 12.42C30.3483 12.34 30.5083 12.18 30.7483 11.94C31.0283 11.7 31.2283 11.54 31.3483 11.46C31.3483 11.38 31.5083 11.22 31.8283 10.98C32.1483 10.74 32.3883 10.6 32.5483 10.56L33.5083 9.84C33.7083 9.76 34.0483 9.6 34.5283 9.36C35.0483 9.12 35.3683 8.98 35.4883 8.94C35.5683 8.94 35.7283 8.88 35.9683 8.76C36.2483 8.64 36.4283 8.54 36.5083 8.46C36.7083 8.46 36.9483 8.42 37.2283 8.34C37.5483 8.26 37.7483 8.22 37.8283 8.22H39.5683H41.3683C41.4083 8.22 41.6683 8.26 42.1483 8.34C42.6683 8.42 43.0683 8.46 43.3483 8.46C43.4683 8.54 43.7483 8.64 44.1883 8.76C44.6283 8.88 44.8883 8.94 44.9683 8.94C45.0883 8.94 45.3883 9.04 45.8683 9.24C46.3883 9.4 46.7083 9.5 46.8283 9.54C46.9083 9.58 47.0683 9.66 47.3083 9.78C47.5483 9.9 47.8083 10.02 48.0883 10.14C48.3683 10.26 48.6283 10.4 48.8683 10.56C49.1483 10.68 49.3483 10.76 49.4683 10.8C49.5883 10.88 49.7683 11 50.0083 11.16C50.2483 11.28 50.3683 11.38 50.3683 11.46C50.4883 11.58 50.7283 11.8 51.0883 12.12C51.4483 12.44 51.6483 12.66 51.6883 12.78C51.7683 12.86 51.9083 13.08 52.1083 13.44C52.3083 13.76 52.4083 13.96 52.4083 14.04V14.94V16.02C52.3683 16.14 52.3283 16.28 52.2883 16.44C52.2483 16.56 52.1883 16.68 52.1083 16.8C52.0683 16.88 52.0283 16.96 51.9883 17.04C51.9883 17.08 51.9483 17.18 51.8683 17.34C51.8283 17.5 51.7683 17.6 51.6883 17.64C51.6483 17.72 51.5083 17.94 51.2683 18.3C51.0283 18.62 50.8683 18.82 50.7883 18.9C50.7083 18.98 50.5483 19.16 50.3083 19.44C50.0683 19.72 49.9083 19.9 49.8283 19.98C49.6683 20.06 49.4083 20.22 49.0483 20.46C48.7283 20.7 48.5283 20.84 48.4483 20.88C48.4483 20.92 48.3683 21 48.2083 21.12C48.0483 21.2 47.8683 21.3 47.6683 21.42C47.4683 21.5 47.2683 21.6 47.0683 21.72C46.8683 21.8 46.7083 21.86 46.5883 21.9C46.5083 21.9 46.3283 21.94 46.0483 22.02C45.8083 22.1 45.6283 22.14 45.5083 22.14C45.3483 22.22 45.1283 22.3 44.8483 22.38C44.5683 22.46 44.3883 22.5 44.3083 22.5C44.1883 22.5 43.9683 22.52 43.6483 22.56C43.3283 22.6 42.9883 22.64 42.6283 22.68C42.2683 22.68 41.9283 22.7 41.6083 22.74C41.3283 22.78 41.1483 22.8 41.0683 22.8H39.4483H37.8283C37.7083 22.8 37.4083 22.78 36.9283 22.74C36.4883 22.7 36.0083 22.68 35.4883 22.68C34.9683 22.64 34.4883 22.6 34.0483 22.56C33.6083 22.52 33.3483 22.5 33.2683 22.5H32.7283H32.2483C32.2483 22.58 32.2883 22.76 32.3683 23.04C32.4883 23.28 32.5483 23.44 32.5483 23.52C32.6283 23.64 32.7883 23.96 33.0283 24.48C33.2683 24.96 33.4283 25.26 33.5083 25.38C33.5883 25.54 33.7083 25.74 33.8683 25.98C34.0683 26.22 34.1683 26.38 34.1683 26.46C34.2883 26.54 34.4683 26.7 34.7083 26.94C34.9483 27.18 35.2083 27.44 35.4883 27.72C35.7683 28 36.0283 28.26 36.2683 28.5C36.5483 28.74 36.7483 28.9 36.8683 28.98C36.8683 29.06 36.9883 29.18 37.2283 29.34C37.5083 29.5 37.7083 29.62 37.8283 29.7C37.9883 29.78 38.3083 29.94 38.7883 30.18C39.2683 30.42 39.5883 30.56 39.7483 30.6C39.7883 30.6 39.9283 30.66 40.1683 30.78C40.4083 30.86 40.5683 30.9 40.6483 30.9C40.8483 30.98 41.2083 31.06 41.7283 31.14C42.2483 31.18 42.5683 31.24 42.6883 31.32H43.5883H44.6083C44.7283 31.24 44.9483 31.18 45.2683 31.14C45.5883 31.06 45.8083 30.98 45.9283 30.9L46.2283 30.6V26.76C46.2683 26.64 46.3083 26.5 46.3483 26.34C46.3883 26.22 46.4283 26.12 46.4683 26.04C46.5083 25.92 46.5483 25.82 46.5883 25.74C46.6283 25.7 46.6483 25.66 46.6483 25.62C46.6483 25.54 46.6683 25.48 46.7083 25.44C46.7483 25.36 46.7883 25.26 46.8283 25.14L48.4483 23.52C48.5283 23.44 48.7283 23.32 49.0483 23.16C49.4083 23 49.6683 22.88 49.8283 22.8H50.0683H50.3683C50.4483 22.88 50.5883 23 50.7883 23.16C50.9883 23.32 51.0883 23.44 51.0883 23.52C51.1283 23.56 51.1683 23.8 51.2083 24.24C51.2883 24.68 51.3683 24.98 51.4483 25.14V26.22V27.36C51.3683 27.52 51.2883 27.8 51.2083 28.2C51.1683 28.6 51.1283 28.86 51.0883 28.98C51.0883 29.02 51.0483 29.14 50.9683 29.34C50.8883 29.5 50.7883 29.68 50.6683 29.88C50.5883 30.08 50.4883 30.28 50.3683 30.48C50.2483 30.68 50.1483 30.82 50.0683 30.9C50.0283 31.02 49.9283 31.22 49.7683 31.5C49.6083 31.74 49.5083 31.86 49.4683 31.86C49.3883 31.94 49.2283 32.1 48.9883 32.34C48.7883 32.54 48.5683 32.76 48.3283 33C48.0883 33.24 47.8483 33.48 47.6083 33.72C47.4083 33.92 47.2483 34.06 47.1283 34.14C47.1283 34.22 47.0083 34.34 46.7683 34.5C46.5283 34.66 46.3483 34.78 46.2283 34.86C46.1483 34.9 45.9283 35 45.5683 35.16C45.2483 35.32 45.0483 35.42 44.9683 35.46C44.8083 35.46 44.5083 35.56 44.0683 35.76C43.6683 35.96 43.4283 36.1 43.3483 36.18C43.2683 36.18 43.1483 36.22 42.9883 36.3C42.8683 36.42 42.7683 36.48 42.6883 36.48C42.6883 36.72 42.6683 37.14 42.6283 37.74C42.6283 38.34 42.6083 38.98 42.5683 39.66C42.5283 40.38 42.4683 41.04 42.3883 41.64C42.3483 42.28 42.3083 42.72 42.2683 42.96C42.2683 43.08 42.2283 43.34 42.1483 43.74C42.1083 44.14 42.0483 44.42 41.9683 44.58C41.9683 44.62 41.9283 44.72 41.8483 44.88C41.7683 45.04 41.7283 45.14 41.7283 45.18C41.6483 45.06 41.5683 44.8 41.4883 44.4C41.4083 44 41.3683 43.72 41.3683 43.56C41.3683 43.32 41.3483 42.92 41.3083 42.36C41.2683 41.84 41.2283 41.26 41.1883 40.62C41.1883 40.02 41.1683 39.44 41.1283 38.88C41.0883 38.36 41.0683 38 41.0683 37.8ZM31.8883 16.86C31.9683 16.86 32.1483 16.88 32.4283 16.92C32.7083 16.92 33.0083 16.94 33.3283 16.98C33.6483 16.98 33.9483 17 34.2283 17.04C34.5483 17.04 34.7683 17.04 34.8883 17.04L35.3683 17.16C35.5283 17.2 35.6683 17.24 35.7883 17.28C36.0683 17.36 36.5283 17.44 37.1683 17.52C37.8483 17.6 38.2883 17.64 38.4883 17.64H42.8083H45.9283L47.1283 17.28C47.0483 17.16 46.8083 16.9 46.4083 16.5C46.0083 16.1 45.7083 15.82 45.5083 15.66C45.4683 15.62 45.3483 15.54 45.1483 15.42C44.9483 15.3 44.7083 15.18 44.4283 15.06C44.1483 14.9 43.8683 14.76 43.5883 14.64C43.3483 14.52 43.1483 14.44 42.9883 14.4C42.9483 14.4 42.8283 14.38 42.6283 14.34C42.4683 14.26 42.2683 14.18 42.0283 14.1C41.8283 14.02 41.6283 13.96 41.4283 13.92C41.2683 13.84 41.1483 13.8 41.0683 13.8C40.8683 13.72 40.5683 13.62 40.1683 13.5C39.7683 13.38 39.5283 13.32 39.4483 13.32H37.0483H34.5883C34.4683 13.4 34.2483 13.54 33.9283 13.74C33.6083 13.94 33.3883 14.04 33.2683 14.04L33.0883 14.22C33.0483 14.26 33.0283 14.3 33.0283 14.34C33.0283 14.38 33.0083 14.4 32.9683 14.4C32.8883 14.48 32.7683 14.7 32.6083 15.06C32.4483 15.38 32.3283 15.58 32.2483 15.66C32.2083 15.74 32.1483 15.9 32.0683 16.14C32.0283 16.38 31.9683 16.52 31.8883 16.56V16.86ZM65.6107 47.52C65.5707 47.52 65.4107 47.44 65.1307 47.28C64.8907 47.16 64.6907 47.1 64.5307 47.1C64.4107 47.14 64.3107 47.18 64.2307 47.22C64.0707 47.3 63.9907 47.4 63.9907 47.52H63.7507H63.6307C63.6307 47.44 63.5307 47.3 63.3307 47.1C63.1307 46.9 62.9907 46.8 62.9107 46.8C62.9107 46.76 62.7107 46.68 62.3107 46.56C61.9507 46.44 61.7107 46.32 61.5907 46.2C61.5107 46.2 61.3707 46.14 61.1707 46.02C60.9707 45.9 60.8307 45.8 60.7507 45.72C60.6707 45.68 60.5107 45.58 60.2707 45.42C60.0707 45.3 59.8707 45.16 59.6707 45C59.4707 44.88 59.2907 44.76 59.1307 44.64C58.9707 44.52 58.8907 44.44 58.8907 44.4C58.8107 44.32 58.6507 44.12 58.4107 43.8C58.1707 43.52 57.9107 43.2 57.6307 42.84C57.3507 42.48 57.0907 42.14 56.8507 41.82C56.6507 41.5 56.5107 41.28 56.4307 41.16C56.3907 41 56.2507 40.62 56.0107 40.02C55.7707 39.42 55.6107 38.98 55.5307 38.7C55.4907 38.58 55.4307 38.38 55.3507 38.1C55.3107 37.86 55.2507 37.6 55.1707 37.32C55.1307 37.08 55.0907 36.86 55.0507 36.66C55.0107 36.46 54.9907 36.34 54.9907 36.3V35.94C54.9907 35.74 55.0307 35.56 55.1107 35.4C55.1107 35.24 55.1307 35.04 55.1707 34.8C55.2507 34.52 55.2907 34.36 55.2907 34.32L55.4107 34.08C55.4907 33.92 55.5707 33.84 55.6507 33.84C55.6907 33.8 55.8107 33.72 56.0107 33.6C56.2107 33.44 56.4307 33.3 56.6707 33.18C56.9107 33.02 57.1107 32.88 57.2707 32.76C57.4707 32.64 57.6107 32.56 57.6907 32.52C57.6907 32.44 57.8307 32.34 58.1107 32.22C58.3907 32.06 58.5507 31.98 58.5907 31.98C58.6307 31.9 58.6707 31.84 58.7107 31.8C58.8307 31.68 58.8907 31.62 58.8907 31.62C58.7307 31.62 58.4307 31.52 57.9907 31.32C57.5907 31.12 57.3107 30.98 57.1507 30.9C57.0307 30.7 56.7307 30.42 56.2507 30.06C55.8107 29.7 55.5107 29.5 55.3507 29.46C55.1107 29.26 54.9107 29.06 54.7507 28.86C54.4307 28.54 54.1507 28.22 53.9107 27.9C53.8707 27.86 53.8307 27.8 53.7907 27.72C53.7507 27.64 53.7307 27.52 53.7307 27.36C53.6107 27.24 53.4107 26.96 53.1307 26.52C52.8907 26.08 52.7307 25.82 52.6507 25.74C52.6107 25.62 52.4907 25.36 52.2907 24.96C52.1307 24.56 52.0507 24.28 52.0507 24.12C51.9707 24 51.8707 23.68 51.7507 23.16C51.6307 22.64 51.5707 22.3 51.5707 22.14C51.5707 22.02 51.5707 21.8 51.5707 21.48C51.5307 21.16 51.5107 20.96 51.5107 20.88C51.5107 20.88 51.5307 20.76 51.5707 20.52C51.6107 20.28 51.6707 20.02 51.7507 19.74C51.7907 19.42 51.8507 19.12 51.9307 18.84C51.9707 18.52 52.0107 18.28 52.0507 18.12C52.0507 17.76 52.0907 17.3 52.1707 16.74C52.2507 16.18 52.2907 15.86 52.2907 15.78C52.2907 15.7 52.4107 15.46 52.6507 15.06C52.8907 14.66 53.0707 14.36 53.1907 14.16C53.3507 14 53.5707 13.68 53.8507 13.2C54.1707 12.72 54.4107 12.38 54.5707 12.18C54.6507 12.1 54.7907 11.96 54.9907 11.76C55.1907 11.56 55.3107 11.42 55.3507 11.34C55.4707 11.22 55.6907 11.06 56.0107 10.86C56.3707 10.62 56.7307 10.38 57.0907 10.14C57.4507 9.9 57.7707 9.68 58.0507 9.48C58.3307 9.24 58.5107 9.08 58.5907 9C58.6707 8.96 58.9707 8.82 59.4907 8.58C60.0107 8.3 60.4307 8.08 60.7507 7.92H61.0507C61.1307 7.92 61.1907 7.92 61.2307 7.92C61.3107 7.88 61.3907 7.86 61.4707 7.86C61.6307 7.86 61.9307 7.78 62.3707 7.62C62.8507 7.46 63.1307 7.38 63.2107 7.38C63.3307 7.34 63.5707 7.34 63.9307 7.38C64.2907 7.38 64.4907 7.36 64.5307 7.32C64.6507 7.32 64.8507 7.32 65.1307 7.32C65.4507 7.32 65.7707 7.34 66.0907 7.38C66.4107 7.38 66.7107 7.38 66.9907 7.38C67.2707 7.38 67.4507 7.38 67.5307 7.38C67.5307 7.18 67.6307 6.82 67.8307 6.3C68.0307 5.74 68.1707 5.38 68.2507 5.22C68.2907 5.18 68.3307 5.04 68.3707 4.8C68.4507 4.56 68.5307 4.4 68.6107 4.32C68.6107 4.24 68.7107 4.1 68.9107 3.9C69.1107 3.7 69.2507 3.58 69.3307 3.54C69.3307 3.46 69.4507 3.36 69.6907 3.24C69.9707 3.08 70.1507 3 70.2307 3C70.3107 2.96 70.4307 2.9 70.5907 2.82C70.7507 2.7 70.9107 2.6 71.0707 2.52C71.2307 2.4 71.3907 2.28 71.5507 2.16H72.3907C72.4307 2.16 72.4907 2.18 72.5707 2.22C72.6907 2.26 72.7907 2.3 72.8707 2.34C72.9907 2.42 73.0907 2.48 73.1707 2.52L73.2907 2.64C73.4107 2.76 73.4707 2.82 73.4707 2.82C73.6707 3.02 73.7307 3.26 73.6507 3.54C73.6507 3.7 73.6707 4.02 73.7107 4.5C73.7907 4.98 73.8507 5.5 73.8907 6.06C73.9707 6.62 74.0107 7.16 74.0107 7.68C74.0507 8.2 74.0507 8.56 74.0107 8.76C74.0107 8.88 74.0107 9.1 74.0107 9.42C74.0507 9.74 74.0707 10.08 74.0707 10.44C74.1107 10.8 74.1307 11.16 74.1307 11.52C74.1707 11.84 74.1907 12.06 74.1907 12.18C74.2307 12.46 74.2307 12.9 74.1907 13.5C74.1907 14.06 74.1907 14.36 74.1907 14.4C74.1907 14.72 74.1507 15.28 74.0707 16.08C73.9907 16.84 73.8907 17.66 73.7707 18.54C73.6907 19.38 73.5907 20.18 73.4707 20.94C73.3507 21.7 73.2507 22.22 73.1707 22.5C73.1707 22.66 73.2107 22.9 73.2907 23.22C73.4107 23.5 73.4707 23.72 73.4707 23.88C73.4307 24 73.4307 24.26 73.4707 24.66C73.5107 25.06 73.5707 25.5 73.6507 25.98C73.7307 26.46 73.7907 26.9 73.8307 27.3C73.9107 27.7 73.9707 27.96 74.0107 28.08C74.0507 28.16 74.0707 28.32 74.0707 28.56C74.1107 28.76 74.1307 29 74.1307 29.28C74.1707 29.52 74.1907 29.76 74.1907 30C74.2307 30.24 74.2507 30.42 74.2507 30.54C74.2907 30.7 74.3307 30.98 74.3707 31.38C74.4507 31.74 74.5107 32.14 74.5507 32.58C74.5907 33.02 74.6307 33.44 74.6707 33.84C74.7107 34.2 74.7307 34.44 74.7307 34.56C74.6507 34.76 74.6307 35.06 74.6707 35.46C74.7107 35.86 74.7307 36.1 74.7307 36.18C74.7307 36.26 74.6707 36.62 74.5507 37.26C74.4707 37.9 74.4307 38.38 74.4307 38.7C74.4307 38.94 74.3307 39.38 74.1307 40.02C73.9707 40.66 73.8907 41.1 73.8907 41.34C73.8907 41.38 73.8307 41.52 73.7107 41.76C73.6307 42 73.5507 42.12 73.4707 42.12C73.3107 42.28 73.1307 42.52 72.9307 42.84C72.7307 43.2 72.6107 43.42 72.5707 43.5C72.4907 43.54 72.3707 43.64 72.2107 43.8C72.0507 44 71.9307 44.1 71.8507 44.1C71.8107 44.18 71.6907 44.3 71.4907 44.46C71.3307 44.62 71.1307 44.78 70.8907 44.94C70.6907 45.1 70.4707 45.24 70.2307 45.36C70.0307 45.52 69.9107 45.62 69.8707 45.66C69.8707 45.7 69.7307 45.74 69.4507 45.78C69.2107 45.86 69.0107 45.94 68.8507 46.02C68.8107 46.1 68.5707 46.24 68.1307 46.44C67.6907 46.64 67.3907 46.76 67.2307 46.8C67.1507 46.92 67.0507 47.14 66.9307 47.46C66.8107 47.82 66.6907 48.18 66.5707 48.54C66.4507 48.9 66.3507 49.24 66.2707 49.56C66.1907 49.88 66.1507 50.1 66.1507 50.22C66.1507 50.3 66.1107 50.46 66.0307 50.7C65.9507 50.94 65.8707 51.08 65.7907 51.12H65.6107H65.5507C65.5507 51.08 65.5307 50.96 65.4907 50.76C65.4907 50.6 65.4707 50.4 65.4307 50.16C65.4307 49.96 65.4307 49.78 65.4307 49.62C65.4707 49.46 65.5307 49.34 65.6107 49.26C65.5707 49.06 65.5507 48.76 65.5507 48.36C65.5907 47.96 65.6107 47.68 65.6107 47.52ZM59.9707 32.22C60.0107 32.34 60.0907 32.6 60.2107 33C60.3707 33.36 60.5107 33.76 60.6307 34.2C60.7907 34.64 60.9307 35.06 61.0507 35.46C61.1707 35.86 61.2307 36.14 61.2307 36.3C61.2307 36.42 61.2707 36.58 61.3507 36.78C61.4707 36.98 61.5907 37.18 61.7107 37.38C61.8307 37.62 61.9507 37.84 62.0707 38.04C62.1907 38.24 62.2907 38.38 62.3707 38.46C62.3707 38.58 62.5307 38.86 62.8507 39.3C63.1707 39.78 63.4307 40.12 63.6307 40.32C63.7107 40.4 63.8707 40.52 64.1107 40.68C64.3507 40.84 64.4907 41 64.5307 41.16C64.6107 41.24 64.7107 41.32 64.8307 41.4C64.9907 41.52 65.1707 41.58 65.3707 41.58C65.4507 41.66 65.6307 41.76 65.9107 41.88C66.1907 42.04 66.3707 42.12 66.4507 42.12C66.5307 42.16 66.6307 42.18 66.7507 42.18C66.8707 42.22 67.0307 42.24 67.2307 42.24C67.3107 42.32 67.4507 42.36 67.6507 42.36C67.8507 42.4 67.9907 42.42 68.0707 42.42L68.3107 42.3C68.5107 42.22 68.6107 42.16 68.6107 42.12C68.6907 42.04 68.7907 41.82 68.9107 41.46C69.0707 41.14 69.1507 40.94 69.1507 40.86C69.1507 40.66 69.1307 40.4 69.0907 40.08C69.0507 39.8 69.0307 39.62 69.0307 39.54C69.1907 39.38 69.2707 39.06 69.2707 38.58C69.2707 38.1 69.2307 37.78 69.1507 37.62C69.1107 37.54 69.0707 37.32 69.0307 36.96C68.9907 36.6 68.9507 36.2 68.9107 35.76C68.9107 35.32 68.9107 34.9 68.9107 34.5C68.9107 34.1 68.9507 33.8 69.0307 33.6C68.9907 33.52 68.9307 33.38 68.8507 33.18C68.8107 32.94 68.7707 32.7 68.7307 32.46C68.6907 32.18 68.6707 31.92 68.6707 31.68C68.6707 31.44 68.7107 31.26 68.7907 31.14C68.7907 31.06 68.7707 30.98 68.7307 30.9C68.6907 30.78 68.6507 30.68 68.6107 30.6L68.4907 30.24C68.4507 30.24 68.4107 30.22 68.3707 30.18L68.2507 30.06L68.0707 30.24C67.9907 30.32 67.7907 30.44 67.4707 30.6C67.1507 30.72 66.8107 30.86 66.4507 31.02C66.0907 31.14 65.7507 31.28 65.4307 31.44C65.1507 31.56 64.9507 31.64 64.8307 31.68C64.7507 31.76 64.6107 31.82 64.4107 31.86C64.2507 31.86 64.1707 31.9 64.1707 31.98C64.0907 31.9 63.9307 31.88 63.6907 31.92C63.4507 31.96 63.2907 31.98 63.2107 31.98C63.0507 31.98 62.7907 32.02 62.4307 32.1C62.1107 32.14 61.9107 32.16 61.8307 32.16C61.7107 32.2 61.3907 32.22 60.8707 32.22C60.3907 32.22 60.0907 32.22 59.9707 32.22ZM57.1507 16.2C57.1507 16.36 57.1107 16.6 57.0307 16.92C56.9907 17.08 56.9707 17.24 56.9707 17.4C56.9307 17.52 56.9107 17.8 56.9107 18.24C56.9507 18.68 56.9707 18.94 56.9707 19.02C57.0507 19.1 57.1107 19.4 57.1507 19.92C57.2307 20.4 57.2707 20.78 57.2707 21.06C57.3507 21.14 57.4107 21.28 57.4507 21.48C57.5307 21.64 57.6107 21.72 57.6907 21.72C57.7707 21.88 57.8507 22.08 57.9307 22.32C57.9707 22.48 58.0107 22.6 58.0507 22.68C58.0907 22.76 58.1907 22.92 58.3507 23.16C58.5107 23.36 58.6707 23.6 58.8307 23.88C59.0307 24.12 59.2107 24.36 59.3707 24.6C59.5707 24.84 59.7307 25.02 59.8507 25.14C59.9307 25.14 60.0507 25.24 60.2107 25.44C60.4107 25.6 60.5107 25.7 60.5107 25.74C60.6307 25.74 60.8307 25.84 61.1107 26.04C61.3907 26.24 61.6107 26.42 61.7707 26.58C61.8107 26.58 61.9507 26.68 62.1907 26.88C62.4307 27.04 62.5907 27.12 62.6707 27.12H63.3307C63.5307 27.12 63.7107 27.14 63.8707 27.18C64.0707 27.22 64.2107 27.26 64.2907 27.3C64.4107 27.34 64.6707 27.4 65.0707 27.48C65.4707 27.52 65.7507 27.54 65.9107 27.54L66.1507 27.3C66.2307 27.22 66.3107 27.06 66.3907 26.82C66.4707 26.54 66.5707 26.34 66.6907 26.22C66.8107 26.14 66.8907 26.04 66.9307 25.92C67.0107 25.8 67.0707 25.68 67.1107 25.56C67.1507 25.4 67.1907 25.26 67.2307 25.14V24.42V23.88C67.2707 23.6 67.2907 23.14 67.2907 22.5C67.2907 21.82 67.2707 21.14 67.2307 20.46C67.1907 19.74 67.1307 19.06 67.0507 18.42C67.0107 17.78 66.9507 17.34 66.8707 17.1C66.8307 16.98 66.7907 16.76 66.7507 16.44C66.7507 16.12 66.7307 15.8 66.6907 15.48C66.6907 15.16 66.6707 14.84 66.6307 14.52C66.6307 14.2 66.6307 13.98 66.6307 13.86C66.6307 13.82 66.5707 13.72 66.4507 13.56C66.3707 13.4 66.3307 13.3 66.3307 13.26C66.2507 13.26 66.0907 13.18 65.8507 13.02C65.6507 12.82 65.4907 12.72 65.3707 12.72C65.2107 12.56 64.9907 12.44 64.7107 12.36C64.4307 12.28 64.2507 12.22 64.1707 12.18C63.8907 12.18 63.7107 12.12 63.6307 12L62.0107 21.18H61.5907C61.5507 21.18 61.5307 21.1 61.5307 20.94C61.5307 20.74 61.5307 20.52 61.5307 20.28C61.5307 20.04 61.5307 19.8 61.5307 19.56C61.5707 19.28 61.5907 19.06 61.5907 18.9C61.6307 18.62 61.6907 18.14 61.7707 17.46C61.8907 16.78 61.9907 16.06 62.0707 15.3C62.1907 14.54 62.2907 13.82 62.3707 13.14C62.4507 12.46 62.5107 11.98 62.5507 11.7L62.0107 12.18L61.2907 15.66L60.6907 16.02V15.24C60.6907 15.12 60.6907 14.9 60.6907 14.58C60.7307 14.26 60.7507 13.94 60.7507 13.62C60.7907 13.26 60.8107 12.94 60.8107 12.66C60.8507 12.34 60.8907 12.12 60.9307 12H60.6907L60.5107 11.88C60.4307 11.88 60.1907 11.96 59.7907 12.12C59.4307 12.24 59.2107 12.34 59.1307 12.42C59.0907 12.42 58.9107 12.52 58.5907 12.72C58.5507 12.84 58.4307 13.04 58.2307 13.32C58.0307 13.56 57.8907 13.74 57.8107 13.86C57.8107 13.94 57.7507 14.14 57.6307 14.46C57.5107 14.74 57.4507 14.9 57.4507 14.94C57.4507 15.02 57.3907 15.2 57.2707 15.48C57.1907 15.76 57.1507 16 57.1507 16.2ZM82.9464 41.58C82.9064 41.46 82.8664 41.24 82.8264 40.92C82.7864 40.6 82.7464 40.26 82.7064 39.9C82.7064 39.58 82.6864 39.26 82.6464 38.94C82.6064 38.66 82.5664 38.46 82.5264 38.34C82.5264 38.14 82.4664 37.74 82.3464 37.14C82.2664 36.58 82.2264 36.22 82.2264 36.06C82.1864 35.98 82.0864 35.92 81.9264 35.88C81.7664 35.8 81.6664 35.72 81.6264 35.64C81.5464 35.64 81.3064 35.6 80.9064 35.52C80.5464 35.4 80.3264 35.34 80.2464 35.34C80.1264 35.34 79.9664 35.32 79.7664 35.28C79.5664 35.2 79.3664 35.12 79.1664 35.04C78.9664 34.96 78.7864 34.9 78.6264 34.86C78.4664 34.78 78.3864 34.74 78.3864 34.74C78.3064 34.74 78.1264 34.64 77.8464 34.44C77.6064 34.24 77.4464 34.1 77.3664 34.02C77.2864 33.94 77.1664 33.82 77.0064 33.66C76.8864 33.5 76.7264 33.34 76.5264 33.18C76.3664 33.02 76.2064 32.88 76.0464 32.76C75.8864 32.6 75.7864 32.48 75.7464 32.4L75.6264 32.16C75.5864 32.08 75.5464 32.02 75.5064 31.98C75.4664 31.9 75.4264 31.82 75.3864 31.74C75.3864 31.66 75.3464 31.5 75.2664 31.26C75.1864 31.02 75.1464 30.86 75.1464 30.78V29.94V29.16C75.1464 29.08 75.2264 28.8 75.3864 28.32C75.5864 27.84 75.7064 27.48 75.7464 27.24C75.7464 27.2 75.8464 27 76.0464 26.64C76.2464 26.28 76.3864 26.04 76.4664 25.92C76.5464 25.84 76.6464 25.68 76.7664 25.44C76.8464 25.32 76.9264 25.18 77.0064 25.02C77.1664 24.86 77.4264 24.6 77.7864 24.24C78.1464 23.84 78.5264 23.46 78.9264 23.1C79.3264 22.7 79.6864 22.36 80.0064 22.08C80.3264 21.76 80.5264 21.56 80.6064 21.48C80.6464 21.44 80.7464 21.36 80.9064 21.24C81.1064 21.12 81.3064 21 81.5064 20.88C81.7064 20.72 81.9064 20.58 82.1064 20.46C82.3064 20.34 82.4464 20.24 82.5264 20.16C82.5664 20.12 82.6864 20.06 82.8864 19.98C83.0864 19.86 83.2864 19.76 83.4864 19.68C83.6864 19.56 83.8864 19.46 84.0864 19.38C84.2864 19.26 84.4464 19.18 84.5664 19.14C84.6464 19.1 84.8864 19 85.2864 18.84C85.6864 18.68 85.9864 18.58 86.1864 18.54C86.2664 18.46 86.4264 18.4 86.6664 18.36C86.9064 18.28 87.0464 18.24 87.0864 18.24C87.2464 18.2 87.4664 18.14 87.7464 18.06C88.0664 17.94 88.3464 17.86 88.5864 17.82C88.8664 17.74 89.1064 17.68 89.3064 17.64C89.5464 17.56 89.6864 17.52 89.7264 17.52C89.7264 17.52 89.8664 17.52 90.1464 17.52C90.4264 17.52 90.7464 17.52 91.1064 17.52C91.4664 17.48 91.8264 17.46 92.1864 17.46C92.5464 17.46 92.8264 17.46 93.0264 17.46C93.1464 17.46 93.3664 17.46 93.6864 17.46C94.0464 17.46 94.4064 17.48 94.7664 17.52C95.1664 17.52 95.5264 17.52 95.8464 17.52C96.2064 17.52 96.4464 17.52 96.5664 17.52C96.6464 17.52 96.8064 17.62 97.0464 17.82C97.2864 18.02 97.4464 18.16 97.5264 18.24C97.5264 18.24 97.5864 18.3 97.7064 18.42L97.8264 18.54L97.8864 18.78C97.8864 18.86 97.8664 18.94 97.8264 19.02C97.8264 19.06 97.8264 19.1 97.8264 19.14C97.8264 19.22 97.7664 19.44 97.6464 19.8C97.5664 20.12 97.5264 20.32 97.5264 20.4C97.5264 20.44 97.5464 20.6 97.5864 20.88C97.6264 21.16 97.6664 21.5 97.7064 21.9C97.7864 22.3 97.8664 22.7 97.9464 23.1C98.0264 23.46 98.1064 23.76 98.1864 24C98.1864 24.08 98.2064 24.26 98.2464 24.54C98.3264 24.78 98.3864 25.06 98.4264 25.38C98.5064 25.66 98.5664 25.96 98.6064 26.28C98.6864 26.56 98.7264 26.76 98.7264 26.88C98.7664 27.04 98.8264 27.26 98.9064 27.54C98.9864 27.82 99.0664 28.1 99.1464 28.38C99.2264 28.66 99.2864 28.92 99.3264 29.16C99.4064 29.4 99.4464 29.54 99.4464 29.58C99.4864 29.66 99.5864 29.94 99.7464 30.42C99.9064 30.9 100.006 31.26 100.046 31.5C100.086 31.5 100.126 31.58 100.166 31.74C100.246 31.9 100.326 32.08 100.406 32.28C100.486 32.44 100.546 32.62 100.586 32.82C100.666 32.98 100.726 33.08 100.766 33.12C100.846 33.32 100.946 33.68 101.066 34.2C101.226 34.72 101.346 35.02 101.426 35.1V35.52V36.06C101.346 36.14 101.266 36.3 101.186 36.54C101.146 36.78 101.106 36.92 101.066 36.96C100.986 37.08 100.826 37.26 100.586 37.5C100.386 37.74 100.166 37.98 99.9264 38.22C99.6864 38.46 99.4464 38.68 99.2064 38.88C99.0064 39.12 98.8464 39.26 98.7264 39.3C98.6064 39.38 98.4864 39.44 98.3664 39.48C98.1264 39.56 97.9464 39.6 97.8264 39.6H97.2864H96.8064L96.5664 39.3C96.4864 39.22 96.3664 38.96 96.2064 38.52C96.0864 38.12 95.9864 37.84 95.9064 37.68C95.8264 37.56 95.7264 37.34 95.6064 37.02C95.5264 36.74 95.4264 36.44 95.3064 36.12C95.2264 35.84 95.1464 35.56 95.0664 35.28C94.9864 35 94.9464 34.82 94.9464 34.74C94.8664 34.62 94.7664 34.4 94.6464 34.08C94.5664 33.72 94.4664 33.36 94.3464 33C94.2664 32.6 94.1664 32.24 94.0464 31.92C93.9664 31.56 93.9064 31.32 93.8664 31.2L93.5664 30.78C93.4864 30.9 93.3064 31.1 93.0264 31.38C92.7464 31.62 92.4464 31.88 92.1264 32.16C91.8464 32.44 91.5464 32.72 91.2264 33C90.9464 33.24 90.7464 33.4 90.6264 33.48C90.5464 33.48 90.3864 33.58 90.1464 33.78C89.9064 33.94 89.7664 34.02 89.7264 34.02C89.4864 34.14 89.1264 34.34 88.6464 34.62C88.1664 34.86 87.8864 35.02 87.8064 35.1C87.6864 35.14 87.4864 35.22 87.2064 35.34C86.9264 35.42 86.6264 35.5 86.3064 35.58C85.9864 35.66 85.6864 35.76 85.4064 35.88C85.1264 35.96 84.9464 36.02 84.8664 36.06C84.7864 36.18 84.7264 36.28 84.6864 36.36C84.6064 36.6 84.5664 36.72 84.5664 36.72C84.4864 36.72 84.4064 36.76 84.3264 36.84C84.2864 36.92 84.2264 36.96 84.1464 36.96L83.8464 36.72C83.8064 36.64 83.7264 36.5 83.6064 36.3C83.4864 36.14 83.3864 36.06 83.3064 36.06V41.82L82.9464 41.58ZM80.2464 27.96C80.3264 28 80.3864 28.06 80.4264 28.14C80.4664 28.22 80.4864 28.3 80.4864 28.38C80.5264 28.42 80.5664 28.46 80.6064 28.5C80.6064 28.58 80.7064 28.72 80.9064 28.92C81.1064 29.08 81.2464 29.16 81.3264 29.16C81.4064 29.24 81.5664 29.38 81.8064 29.58C82.0464 29.78 82.1864 29.88 82.2264 29.88C82.4664 29.92 82.8264 30.04 83.3064 30.24C83.7864 30.4 84.0664 30.48 84.1464 30.48H86.4864H88.7064C88.7864 30.48 88.9064 30.44 89.0664 30.36C89.2264 30.28 89.3464 30.2 89.4264 30.12C89.5864 30.04 89.8264 29.84 90.1464 29.52C90.4664 29.16 90.6264 28.94 90.6264 28.86C90.7064 28.82 90.8264 28.56 90.9864 28.08C91.1464 27.56 91.2664 27.16 91.3464 26.88C91.3864 26.76 91.4464 26.5 91.5264 26.1C91.6464 25.7 91.7064 25.42 91.7064 25.26V24V22.68C91.6264 22.6 91.5064 22.54 91.3464 22.5C91.2264 22.42 91.1264 22.38 91.0464 22.38H89.7264H88.4664C88.3864 22.38 88.2664 22.4 88.1064 22.44C87.9464 22.48 87.7864 22.52 87.6264 22.56C87.4664 22.6 87.2864 22.64 87.0864 22.68C86.9664 22.8 86.8664 23.06 86.7864 23.46C86.7464 23.86 86.7664 24.14 86.8464 24.3L86.1864 23.1C86.1064 23.26 86.0264 23.58 85.9464 24.06C85.9064 24.54 85.8464 24.86 85.7664 25.02C85.7664 25.06 85.7064 25.16 85.5864 25.32C85.5064 25.48 85.4664 25.58 85.4664 25.62C85.4264 25.62 85.3664 25.58 85.2864 25.5C85.2464 25.42 85.2264 25.34 85.2264 25.26C85.1464 25.14 85.0664 24.84 84.9864 24.36C84.9064 23.84 84.8664 23.52 84.8664 23.4H84.5664H84.1464C84.0664 23.4 83.7864 23.54 83.3064 23.82C82.8264 24.06 82.4664 24.22 82.2264 24.3C82.1864 24.38 82.0464 24.5 81.8064 24.66C81.5664 24.82 81.4064 24.94 81.3264 25.02C81.2464 25.06 81.1064 25.16 80.9064 25.32C80.7064 25.48 80.6064 25.58 80.6064 25.62C80.5664 25.7 80.4864 25.82 80.3664 25.98C80.2864 26.14 80.2464 26.26 80.2464 26.34V27.18V27.96ZM127.564 36.12L126.964 36.54C126.964 36.7 126.904 37.02 126.784 37.5C126.704 37.98 126.664 38.3 126.664 38.46C126.664 38.5 126.604 38.6 126.484 38.76C126.404 38.92 126.324 39.02 126.244 39.06H126.124H125.944C125.944 38.98 125.924 38.82 125.884 38.58C125.884 38.38 125.864 38.16 125.824 37.92C125.784 37.68 125.744 37.46 125.704 37.26C125.704 37.06 125.704 36.92 125.704 36.84C125.584 36.64 125.464 36.54 125.344 36.54C125.304 36.5 125.184 36.48 124.984 36.48C124.784 36.48 124.564 36.48 124.324 36.48C124.124 36.48 123.924 36.48 123.724 36.48C123.564 36.52 123.464 36.54 123.424 36.54C123.304 36.46 122.984 36.38 122.464 36.3C121.944 36.26 121.584 36.2 121.384 36.12C121.304 36.12 121.144 36.08 120.904 36C120.664 35.88 120.524 35.82 120.484 35.82C120.404 35.82 120.224 35.76 119.944 35.64C119.704 35.52 119.444 35.38 119.164 35.22C118.884 35.06 118.604 34.92 118.324 34.8C118.084 34.64 117.924 34.54 117.844 34.5H117.784H117.484C117.404 34.58 117.144 34.72 116.704 34.92C116.304 35.12 116.024 35.22 115.864 35.22H115.684H115.624C115.544 35.14 115.404 35.02 115.204 34.86C115.004 34.7 114.904 34.58 114.904 34.5V34.14V33.6C114.904 33.56 114.924 33.46 114.964 33.3C115.004 33.1 115.044 32.92 115.084 32.76C115.164 32.56 115.224 32.38 115.264 32.22C115.304 32.06 115.324 31.98 115.324 31.98V28.98V26.1C115.084 26.02 114.844 25.9 114.604 25.74C114.524 25.74 114.384 25.74 114.184 25.74C113.984 25.7 113.744 25.66 113.464 25.62C113.224 25.58 112.984 25.56 112.744 25.56C112.544 25.52 112.424 25.5 112.384 25.5C112.304 25.5 112.184 25.4 112.024 25.2C111.864 25 111.744 24.86 111.664 24.78V24.48V24.12C111.744 24 111.864 23.78 112.024 23.46C112.184 23.14 112.304 22.94 112.384 22.86C112.424 22.78 112.544 22.64 112.744 22.44C112.984 22.2 113.224 21.96 113.464 21.72C113.704 21.48 113.924 21.26 114.124 21.06C114.364 20.86 114.524 20.72 114.604 20.64V20.16C114.364 18.92 114.124 17.72 113.884 16.56C113.684 15.56 113.464 14.54 113.224 13.5C112.984 12.46 112.784 11.6 112.624 10.92C112.624 10.76 112.584 10.54 112.504 10.26C112.424 9.94 112.384 9.7 112.384 9.54C112.384 9.46 112.324 9.3 112.204 9.06C112.124 8.82 112.084 8.66 112.084 8.58C112.044 8.5 111.964 8.36 111.844 8.16C111.764 7.96 111.664 7.76 111.544 7.56C111.424 7.36 111.304 7.18 111.184 7.02C111.104 6.82 111.044 6.68 111.004 6.6C111.004 6.52 110.964 6.36 110.884 6.12C110.804 5.84 110.764 5.66 110.764 5.58V4.68V3.72C110.764 3.64 110.844 3.44 111.004 3.12C111.204 2.76 111.324 2.5 111.364 2.34C111.444 2.3 111.644 2.12 111.964 1.8C112.284 1.44 112.504 1.24 112.624 1.2C112.784 1.04 112.984 0.879998 113.224 0.72C113.464 0.56 113.624 0.48 113.704 0.48H114.364H115.324L115.444 0.599998C115.444 0.639997 115.484 0.659997 115.564 0.659997C115.604 0.659997 115.624 0.679998 115.624 0.72C115.624 0.799999 115.664 0.919999 115.744 1.08C115.824 1.24 115.864 1.36 115.864 1.44C115.904 1.52 115.964 1.7 116.044 1.98C116.164 2.22 116.284 2.5 116.404 2.82C116.524 3.1 116.624 3.36 116.704 3.6C116.824 3.84 116.904 3.96 116.944 3.96C116.944 4.04 117.104 4.26 117.424 4.62C117.744 4.94 117.984 5.18 118.144 5.34C118.264 5.42 118.444 5.54 118.684 5.7C118.964 5.86 119.244 6.06 119.524 6.3C119.844 6.5 120.144 6.7 120.424 6.9C120.744 7.06 120.964 7.16 121.084 7.2C121.164 7.28 121.324 7.38 121.564 7.5C121.804 7.62 122.064 7.76 122.344 7.92C122.624 8.04 122.884 8.16 123.124 8.28C123.404 8.4 123.604 8.5 123.724 8.58C123.924 8.66 124.344 8.82 124.984 9.06C125.624 9.3 126.044 9.46 126.244 9.54C126.364 9.62 126.724 9.74 127.324 9.9C127.924 10.02 128.344 10.12 128.584 10.2C128.704 10.24 128.904 10.3 129.184 10.38C129.464 10.42 129.724 10.48 129.964 10.56C130.244 10.64 130.484 10.72 130.684 10.8C130.924 10.84 131.064 10.88 131.104 10.92C131.304 10.92 131.624 10.98 132.064 11.1C132.544 11.18 133.044 11.28 133.564 11.4C134.084 11.48 134.564 11.56 135.004 11.64C135.484 11.72 135.804 11.78 135.964 11.82C136.084 11.82 136.184 11.86 136.264 11.94L136.384 12.06V12.78V13.44C136.384 13.52 136.324 13.64 136.204 13.8C136.124 13.96 136.044 14.08 135.964 14.16C135.884 14.24 135.744 14.38 135.544 14.58C135.384 14.78 135.204 14.98 135.004 15.18C134.804 15.38 134.604 15.56 134.404 15.72C134.244 15.88 134.124 15.98 134.044 16.02C134.044 16.06 133.964 16.12 133.804 16.2C133.644 16.28 133.464 16.38 133.264 16.5C133.064 16.58 132.864 16.68 132.664 16.8C132.464 16.88 132.304 16.92 132.184 16.92C132.104 16.96 131.884 17.06 131.524 17.22C131.204 17.34 130.864 17.48 130.504 17.64C130.144 17.8 129.804 17.94 129.484 18.06C129.164 18.18 128.984 18.26 128.944 18.3C128.744 18.38 128.384 18.54 127.864 18.78C127.384 19.02 127.084 19.18 126.964 19.26H127.564H128.284C128.364 19.26 128.524 19.26 128.764 19.26C129.004 19.22 129.264 19.18 129.544 19.14C129.824 19.1 130.084 19.08 130.324 19.08C130.564 19.04 130.724 19.02 130.804 19.02C131.004 18.98 131.344 18.94 131.824 18.9C132.304 18.86 132.804 18.82 133.324 18.78C133.844 18.74 134.324 18.7 134.764 18.66C135.204 18.62 135.504 18.58 135.664 18.54H136.924H138.004C138.084 18.58 138.264 18.62 138.544 18.66C138.824 18.7 139.124 18.74 139.444 18.78C139.764 18.82 140.064 18.86 140.344 18.9C140.664 18.94 140.884 18.98 141.004 19.02L141.364 19.14C141.604 19.22 141.784 19.26 141.904 19.26C142.144 19.42 142.384 19.54 142.624 19.62C142.664 19.7 142.804 19.88 143.044 20.16C143.284 20.4 143.444 20.56 143.524 20.64C143.564 20.76 143.604 20.86 143.644 20.94C143.644 20.98 143.644 21.02 143.644 21.06C143.684 21.06 143.704 21.08 143.704 21.12C143.704 21.16 143.724 21.2 143.764 21.24C143.844 21.32 143.924 21.54 144.004 21.9C144.084 22.22 144.164 22.42 144.244 22.5V23.04V23.4C144.164 23.56 144.084 23.82 144.004 24.18C143.924 24.5 143.844 24.7 143.764 24.78C143.724 24.9 143.584 25.22 143.344 25.74C143.104 26.26 142.944 26.62 142.864 26.82C142.784 26.9 142.664 27.06 142.504 27.3C142.344 27.54 142.224 27.68 142.144 27.72C142.064 27.84 141.864 28.06 141.544 28.38C141.264 28.66 140.944 28.98 140.584 29.34C140.224 29.66 139.884 29.98 139.564 30.3C139.244 30.62 139.024 30.84 138.904 30.96C138.864 31.04 138.664 31.22 138.304 31.5C137.984 31.74 137.804 31.9 137.764 31.98C137.604 32.02 137.284 32.16 136.804 32.4C136.364 32.64 136.084 32.8 135.964 32.88C135.884 32.96 135.724 33.06 135.484 33.18C135.244 33.3 134.984 33.42 134.704 33.54C134.464 33.66 134.204 33.8 133.924 33.96C133.684 34.08 133.524 34.16 133.444 34.2C133.364 34.28 133.104 34.4 132.664 34.56C132.224 34.72 131.944 34.84 131.824 34.92C131.704 34.96 131.504 35.02 131.224 35.1C130.944 35.18 130.644 35.28 130.324 35.4C130.044 35.48 129.764 35.58 129.484 35.7C129.244 35.78 129.064 35.82 128.944 35.82C128.864 36.06 128.784 36.5 128.704 37.14C128.624 37.78 128.584 38.22 128.584 38.46C128.584 38.66 128.544 39.16 128.464 39.96C128.424 40.8 128.364 41.7 128.284 42.66C128.204 43.62 128.124 44.5 128.044 45.3C127.964 46.14 127.904 46.68 127.864 46.92C127.864 47.04 127.844 47.22 127.804 47.46C127.764 47.74 127.724 48.02 127.684 48.3C127.684 48.58 127.664 48.84 127.624 49.08C127.584 49.32 127.564 49.46 127.564 49.5C127.564 49.58 127.524 49.74 127.444 49.98C127.364 50.22 127.324 50.36 127.324 50.4C127.324 50.28 127.304 50.02 127.264 49.62C127.264 49.26 127.264 48.88 127.264 48.48C127.264 48.08 127.244 47.68 127.204 47.28C127.204 46.92 127.204 46.68 127.204 46.56C127.204 46.32 127.204 45.98 127.204 45.54C127.244 45.14 127.264 44.72 127.264 44.28C127.264 43.88 127.264 43.52 127.264 43.2C127.304 42.88 127.324 42.68 127.324 42.6C127.324 42.52 127.324 42.24 127.324 41.76C127.364 41.28 127.404 40.76 127.444 40.2C127.484 39.68 127.504 39.16 127.504 38.64C127.544 38.16 127.564 37.86 127.564 37.74V36.9V36.12ZM128.284 24.12C128.284 24.28 128.224 24.52 128.104 24.84C128.024 25.12 127.944 25.34 127.864 25.5C127.864 25.54 127.804 25.64 127.684 25.8C127.604 25.96 127.564 26.06 127.564 26.1C127.524 26.22 127.424 26.24 127.264 26.16L127.024 26.04V24.12H126.664C126.544 24.2 126.224 24.28 125.704 24.36C125.184 24.4 124.824 24.44 124.624 24.48C124.464 24.52 124.204 24.58 123.844 24.66C123.524 24.7 123.184 24.76 122.824 24.84C122.504 24.92 122.184 25 121.864 25.08C121.584 25.12 121.424 25.16 121.384 25.2C121.304 25.2 121.184 25.24 121.024 25.32C120.904 25.36 120.844 25.42 120.844 25.5V28.74C120.964 28.86 121.104 28.98 121.264 29.1C121.584 29.34 121.864 29.52 122.104 29.64C122.224 29.72 122.404 29.84 122.644 30C122.884 30.16 123.004 30.28 123.004 30.36C123.124 30.4 123.364 30.5 123.724 30.66C124.084 30.82 124.284 30.92 124.324 30.96C124.404 30.96 124.484 30.98 124.564 31.02C124.684 31.06 124.804 31.1 124.924 31.14C125.084 31.18 125.224 31.22 125.344 31.26H127.024H128.944C129.184 31.22 129.404 31.18 129.604 31.14C129.804 31.1 129.984 31.06 130.144 31.02C130.344 30.98 130.484 30.96 130.564 30.96C130.684 30.92 130.904 30.88 131.224 30.84C131.544 30.76 131.744 30.68 131.824 30.6C132.104 30.52 132.484 30.42 132.964 30.3C133.444 30.14 133.724 30.06 133.804 30.06C133.924 30.02 134.144 29.92 134.464 29.76C134.784 29.56 135.104 29.38 135.424 29.22C135.744 29.02 136.064 28.86 136.384 28.74C136.704 28.58 136.924 28.48 137.044 28.44C137.044 28.36 137.204 28.2 137.524 27.96C137.884 27.72 138.144 27.52 138.304 27.36C138.344 27.36 138.384 27.32 138.424 27.24C138.504 27.16 138.584 27.12 138.664 27.12C138.664 27.04 138.704 26.92 138.784 26.76C138.864 26.6 138.904 26.48 138.904 26.4V25.74V25.2C138.904 25.12 138.784 24.94 138.544 24.66C138.344 24.38 138.164 24.2 138.004 24.12C137.924 24.12 137.764 24.08 137.524 24C137.284 23.92 137.124 23.88 137.044 23.88H129.904C129.904 24.08 129.884 24.42 129.844 24.9C129.844 25.38 129.824 25.9 129.784 26.46C129.744 26.98 129.684 27.5 129.604 28.02C129.564 28.5 129.524 28.82 129.484 28.98C129.484 29.14 129.424 29.4 129.304 29.76C129.224 30.08 129.184 30.28 129.184 30.36C129.184 30.28 129.164 30.14 129.124 29.94C129.124 29.7 129.104 29.46 129.064 29.22C129.024 28.98 128.984 28.76 128.944 28.56C128.944 28.32 128.944 28.14 128.944 28.02C128.904 27.9 128.864 27.66 128.824 27.3C128.784 26.94 128.744 26.56 128.704 26.16C128.664 25.72 128.624 25.32 128.584 24.96C128.584 24.56 128.584 24.28 128.584 24.12H128.284ZM126.244 19.26C126.084 19.26 126.004 19.38 126.004 19.62C126.004 19.82 126.084 19.92 126.244 19.92C126.444 19.92 126.544 19.82 126.544 19.62C126.544 19.38 126.444 19.26 126.244 19.26ZM119.764 17.64C119.844 17.72 119.904 17.8 119.944 17.88C120.024 17.92 120.104 17.96 120.184 18H120.304H120.484C120.604 17.96 120.784 17.92 121.024 17.88C121.264 17.8 121.384 17.72 121.384 17.64C121.544 17.6 121.824 17.5 122.224 17.34C122.624 17.14 123.024 16.94 123.424 16.74C123.864 16.5 124.264 16.3 124.624 16.14C124.984 15.98 125.224 15.86 125.344 15.78C125.384 15.78 125.424 15.72 125.464 15.6C125.544 15.48 125.624 15.38 125.704 15.3L119.764 13.44H119.104V14.4C119.144 14.52 119.184 14.74 119.224 15.06C119.304 15.38 119.364 15.72 119.404 16.08C119.484 16.4 119.544 16.72 119.584 17.04C119.664 17.32 119.724 17.52 119.764 17.64ZM148.346 36H147.926C147.846 36 147.726 36.04 147.566 36.12C147.446 36.2 147.346 36.28 147.266 36.36C147.266 36.44 147.226 36.64 147.146 36.96C147.066 37.32 147.026 37.54 147.026 37.62C147.026 37.66 146.966 37.76 146.846 37.92C146.766 38.08 146.726 38.18 146.726 38.22C146.646 38.18 146.546 38.08 146.426 37.92C146.346 37.76 146.306 37.66 146.306 37.62C146.306 37.58 146.286 37.46 146.246 37.26C146.246 37.1 146.226 36.92 146.186 36.72C146.186 36.56 146.166 36.4 146.126 36.24C146.086 36.08 146.046 36 146.006 36C145.966 35.92 145.806 35.8 145.526 35.64C145.246 35.48 145.106 35.36 145.106 35.28C144.986 35.2 144.746 35 144.386 34.68C144.026 34.36 143.826 34.16 143.786 34.08C143.786 34 143.686 33.8 143.486 33.48C143.286 33.12 143.146 32.88 143.066 32.76C143.066 32.68 143.006 32.52 142.886 32.28C142.806 32 142.766 31.82 142.766 31.74C142.726 31.62 142.666 31.4 142.586 31.08C142.546 30.72 142.486 30.5 142.406 30.42C142.406 30.26 142.366 29.94 142.286 29.46C142.206 28.98 142.166 28.66 142.166 28.5V23.64V18.78C142.166 18.66 142.166 18.36 142.166 17.88C142.206 17.4 142.246 16.9 142.286 16.38C142.326 15.82 142.346 15.3 142.346 14.82C142.386 14.34 142.406 14.04 142.406 13.92V10.98C142.486 10.9 142.666 10.62 142.946 10.14C143.266 9.66 143.546 9.3 143.786 9.06C143.786 9.02 143.866 8.92 144.026 8.76C144.226 8.6 144.346 8.5 144.386 8.46C144.466 8.38 144.626 8.26 144.866 8.1C145.146 7.94 145.326 7.82 145.406 7.74C145.406 7.74 145.506 7.68 145.706 7.56C145.786 7.52 145.886 7.48 146.006 7.44H146.246C146.326 7.44 146.386 7.44 146.426 7.44C146.466 7.4 146.506 7.38 146.546 7.38C146.586 7.38 146.626 7.4 146.666 7.44C146.706 7.44 146.766 7.44 146.846 7.44H147.026C147.066 7.44 147.166 7.52 147.326 7.68C147.526 7.84 147.626 7.94 147.626 7.98V8.52V9.36C147.626 9.48 147.606 9.74 147.566 10.14C147.526 10.5 147.486 10.9 147.446 11.34C147.406 11.78 147.366 12.2 147.326 12.6C147.286 12.96 147.266 13.2 147.266 13.32V19.86V26.52C147.346 26.68 147.406 26.94 147.446 27.3C147.526 27.62 147.586 27.82 147.626 27.9C147.626 27.94 147.666 28.08 147.746 28.32C147.866 28.56 147.926 28.72 147.926 28.8C148.006 28.88 148.066 29.02 148.106 29.22C148.186 29.42 148.266 29.52 148.346 29.52C148.506 29.64 148.726 29.88 149.006 30.24C149.286 30.56 149.466 30.76 149.546 30.84H150.086H150.506C150.666 30.84 150.786 30.7 150.866 30.42C150.946 30.34 151.066 30.18 151.226 29.94C151.386 29.7 151.506 29.56 151.586 29.52C151.666 29.28 151.866 28.84 152.186 28.2C152.506 27.56 152.706 27.12 152.786 26.88C152.906 26.68 153.046 26.38 153.206 25.98C153.406 25.58 153.506 25.34 153.506 25.26V24.48V23.64C153.506 23.56 153.466 23.34 153.386 22.98C153.346 22.62 153.286 22.24 153.206 21.84C153.126 21.44 153.046 21.06 152.966 20.7C152.886 20.34 152.826 20.12 152.786 20.04C152.786 19.92 152.766 19.72 152.726 19.44C152.686 19.16 152.646 18.9 152.606 18.66C152.606 18.38 152.586 18.14 152.546 17.94C152.506 17.7 152.486 17.54 152.486 17.46V15V12.6C152.486 12.44 152.586 12.22 152.786 11.94C152.986 11.62 153.126 11.38 153.206 11.22C153.246 11.22 153.346 11.14 153.506 10.98C153.666 10.82 153.846 10.64 154.046 10.44C154.246 10.24 154.446 10.04 154.646 9.84C154.846 9.64 155.006 9.48 155.126 9.36C155.166 9.36 155.266 9.32 155.426 9.24C155.586 9.12 155.686 9.06 155.726 9.06H156.026C156.106 9.06 156.166 9.06 156.206 9.06C156.286 9.02 156.366 9 156.446 9C156.526 9 156.626 9.02 156.746 9.06C156.906 9.06 157.026 9.06 157.106 9.06L157.226 9.18C157.266 9.22 157.286 9.26 157.286 9.3C157.286 9.3 157.306 9.32 157.346 9.36C157.346 9.44 157.386 9.56 157.466 9.72C157.586 9.88 157.646 10 157.646 10.08C157.766 10.2 157.906 10.48 158.066 10.92C158.266 11.36 158.366 11.62 158.366 11.7C158.366 11.78 158.386 11.94 158.426 12.18C158.506 12.38 158.586 12.62 158.666 12.9C158.746 13.18 158.806 13.46 158.846 13.74C158.926 13.98 158.966 14.14 158.966 14.22C158.966 14.34 158.986 14.52 159.026 14.76C159.066 14.96 159.086 15.18 159.086 15.42C159.126 15.66 159.166 15.9 159.206 16.14C159.246 16.34 159.266 16.48 159.266 16.56C159.266 16.68 159.286 16.82 159.326 16.98C159.406 17.3 159.446 17.52 159.446 17.64C159.446 17.76 159.406 17.98 159.326 18.3C159.286 18.58 159.266 18.74 159.266 18.78C159.266 18.86 159.246 19.04 159.206 19.32C159.166 19.56 159.126 19.82 159.086 20.1C159.086 20.38 159.066 20.66 159.026 20.94C158.986 21.18 158.966 21.34 158.966 21.42V21.78V22.02C159.046 22.26 159.166 22.7 159.326 23.34C159.486 23.98 159.606 24.42 159.686 24.66C159.726 24.82 159.826 25.16 159.986 25.68C160.146 26.2 160.326 26.76 160.526 27.36C160.726 27.96 160.926 28.56 161.126 29.16C161.326 29.72 161.486 30.14 161.606 30.42C161.646 30.62 161.746 30.92 161.906 31.32C162.066 31.72 162.166 31.96 162.206 32.04C162.286 32.12 162.406 32.3 162.566 32.58C162.726 32.86 162.846 33.04 162.926 33.12L163.106 33.48C163.146 33.56 163.186 33.62 163.226 33.66V34.2V34.74C163.226 34.82 163.166 34.98 163.046 35.22C162.966 35.46 162.926 35.62 162.926 35.7C162.846 35.78 162.706 35.92 162.506 36.12C162.306 36.36 162.086 36.6 161.846 36.84C161.606 37.08 161.366 37.3 161.126 37.5C160.886 37.74 160.706 37.9 160.586 37.98C160.426 38.02 160.286 38.06 160.166 38.1C159.846 38.18 159.686 38.22 159.686 38.22H159.266H158.966C158.926 38.22 158.826 38.18 158.666 38.1C158.506 38.02 158.406 37.98 158.366 37.98C158.366 37.9 158.266 37.68 158.066 37.32C157.866 37 157.726 36.76 157.646 36.6C157.606 36.56 157.526 36.4 157.406 36.12C157.326 35.84 157.226 35.52 157.106 35.16C156.986 34.8 156.866 34.46 156.746 34.14C156.626 33.82 156.526 33.56 156.446 33.36C156.406 33.32 156.326 33.18 156.206 32.94C156.126 32.66 156.026 32.38 155.906 32.1C155.786 31.82 155.686 31.56 155.606 31.32C155.526 31.08 155.486 30.92 155.486 30.84C155.406 30.76 155.326 30.7 155.246 30.66C155.206 30.58 155.166 30.5 155.126 30.42C155.126 30.5 155.066 30.58 154.946 30.66C154.866 30.7 154.826 30.76 154.826 30.84C154.786 30.88 154.686 31 154.526 31.2C154.366 31.36 154.186 31.56 153.986 31.8C153.826 32 153.666 32.2 153.506 32.4C153.346 32.6 153.246 32.72 153.206 32.76C153.126 32.8 152.966 32.94 152.726 33.18C152.486 33.42 152.326 33.58 152.246 33.66C152.166 33.7 152.046 33.8 151.886 33.96C151.726 34.08 151.546 34.22 151.346 34.38C151.186 34.54 151.026 34.68 150.866 34.8C150.706 34.92 150.586 34.98 150.506 34.98L150.266 35.28C150.266 35.48 150.246 35.82 150.206 36.3C150.166 36.82 150.126 37.36 150.086 37.92C150.086 38.48 150.066 39 150.026 39.48C149.986 40 149.966 40.36 149.966 40.56C149.886 40.64 149.806 40.8 149.726 41.04C149.686 41.28 149.626 41.42 149.546 41.46C149.546 41.42 149.486 41.28 149.366 41.04C149.286 40.8 149.246 40.64 149.246 40.56C149.246 40.4 149.206 40.08 149.126 39.6C149.086 39.16 149.026 38.7 148.946 38.22C148.866 37.74 148.786 37.28 148.706 36.84C148.666 36.44 148.646 36.16 148.646 36H148.346ZM166.544 35.7C166.544 35.78 166.484 35.86 166.364 35.94C166.284 35.98 166.244 36.02 166.244 36.06C166.164 36.22 166.064 36.54 165.944 37.02C165.864 37.5 165.824 37.82 165.824 37.98L165.524 37.44C165.524 37.28 165.484 36.94 165.404 36.42C165.324 35.9 165.244 35.58 165.164 35.46C165.164 35.38 165.064 35.16 164.864 34.8C164.704 34.4 164.624 34.16 164.624 34.08C164.544 34.08 164.444 33.94 164.324 33.66C164.244 33.38 164.204 33.2 164.204 33.12C164.164 33.04 164.104 32.88 164.024 32.64C163.984 32.36 163.924 32.08 163.844 31.8C163.804 31.52 163.744 31.28 163.664 31.08C163.624 30.84 163.584 30.68 163.544 30.6C163.544 30.48 163.524 30.26 163.484 29.94C163.444 29.62 163.384 29.28 163.304 28.92C163.264 28.52 163.204 28.16 163.124 27.84C163.084 27.48 163.044 27.22 163.004 27.06C162.964 26.86 162.864 26.36 162.704 25.56C162.584 24.76 162.444 23.9 162.284 22.98C162.124 22.02 161.984 21.14 161.864 20.34C161.744 19.5 161.684 18.98 161.684 18.78C161.644 18.7 161.584 18.52 161.504 18.24C161.464 17.92 161.404 17.58 161.324 17.22C161.244 16.86 161.184 16.52 161.144 16.2C161.064 15.88 161.004 15.66 160.964 15.54C160.964 15.5 160.924 15.36 160.844 15.12C160.724 14.88 160.664 14.72 160.664 14.64C160.624 14.64 160.524 14.5 160.364 14.22C160.164 13.94 160.064 13.76 160.064 13.68V12.84V12.06C160.064 11.98 160.104 11.82 160.184 11.58C160.264 11.34 160.304 11.2 160.304 11.16C160.384 11.08 160.504 10.92 160.664 10.68C160.784 10.4 160.884 10.22 160.964 10.14C161.044 10.02 161.204 9.84 161.444 9.6C161.684 9.32 161.844 9.14 161.924 9.06C162.004 9.02 162.184 8.92 162.464 8.76C162.744 8.6 162.924 8.52 163.004 8.52C163.004 8.48 163.124 8.44 163.364 8.4C163.604 8.32 163.784 8.24 163.904 8.16H164.084H164.204C164.284 8.24 164.404 8.36 164.564 8.52C164.724 8.64 164.844 8.74 164.924 8.82C164.964 8.9 165.004 9 165.044 9.12C165.124 9.36 165.164 9.5 165.164 9.54C165.244 9.58 165.324 9.72 165.404 9.96C165.484 10.2 165.524 10.36 165.524 10.44C165.564 10.56 165.604 10.74 165.644 10.98C165.724 11.22 165.804 11.48 165.884 11.76C165.964 12 166.024 12.24 166.064 12.48C166.144 12.72 166.204 12.9 166.244 13.02C166.244 13.18 166.284 13.46 166.364 13.86C166.484 14.26 166.544 14.52 166.544 14.64C166.624 14.52 166.784 14.34 167.024 14.1C167.264 13.86 167.524 13.62 167.804 13.38C168.084 13.1 168.344 12.84 168.584 12.6C168.824 12.36 168.984 12.18 169.064 12.06C169.144 12.06 169.344 11.92 169.664 11.64C170.024 11.36 170.264 11.2 170.384 11.16C170.464 11.12 170.664 10.98 170.984 10.74C171.144 10.62 171.284 10.52 171.404 10.44C171.524 10.36 171.784 10.26 172.184 10.14C172.584 9.98 172.864 9.86 173.024 9.78C173.224 9.7 173.564 9.64 174.044 9.6C174.524 9.56 174.844 9.54 175.004 9.54C175.044 9.54 175.164 9.54 175.364 9.54C175.604 9.54 175.844 9.56 176.084 9.6C176.324 9.6 176.544 9.62 176.744 9.66C176.944 9.7 177.084 9.74 177.164 9.78C177.284 9.78 177.504 9.88 177.824 10.08C178.144 10.24 178.364 10.36 178.484 10.44C178.564 10.52 178.704 10.64 178.904 10.8C179.104 10.96 179.204 11.08 179.204 11.16V11.94V13.02C179.204 13.1 179.144 13.26 179.024 13.5C178.944 13.74 178.864 13.88 178.784 13.92C178.704 14.08 178.544 14.34 178.304 14.7C178.064 15.02 177.924 15.22 177.884 15.3C177.884 15.62 177.864 16.16 177.824 16.92C177.784 17.64 177.744 18.42 177.704 19.26C177.704 20.06 177.684 20.84 177.644 21.6C177.604 22.32 177.584 22.82 177.584 23.1C177.584 23.22 177.564 23.42 177.524 23.7C177.524 23.98 177.504 24.28 177.464 24.6C177.424 24.88 177.364 25.16 177.284 25.44C177.244 25.68 177.204 25.86 177.164 25.98C177.164 26.14 177.104 26.4 176.984 26.76C176.904 27.08 176.864 27.28 176.864 27.36V16.02C176.864 15.94 176.824 15.86 176.744 15.78C176.664 15.7 176.624 15.62 176.624 15.54H176.264H175.964C175.884 15.62 175.804 15.7 175.724 15.78C175.684 15.86 175.624 15.94 175.544 16.02C175.544 16.02 175.524 16.1 175.484 16.26C175.444 16.42 175.404 16.6 175.364 16.8C175.364 16.96 175.344 17.14 175.304 17.34C175.264 17.5 175.244 17.6 175.244 17.64C175.204 17.68 175.144 17.82 175.064 18.06C175.024 18.3 175.004 18.46 175.004 18.54C174.884 18.7 174.764 18.78 174.644 18.78L174.344 18.24C174.304 18.12 174.264 17.9 174.224 17.58C174.184 17.26 174.144 16.94 174.104 16.62C174.104 16.26 174.084 15.94 174.044 15.66C174.004 15.34 173.964 15.12 173.924 15C173.924 14.96 173.844 14.9 173.684 14.82C173.564 14.7 173.464 14.64 173.384 14.64H172.184H171.104C171.024 14.72 170.884 14.84 170.684 15C170.484 15.12 170.384 15.22 170.384 15.3C170.344 15.42 170.244 15.74 170.084 16.26C169.924 16.74 169.824 17.04 169.784 17.16V20.94V24.72C169.784 24.8 169.784 25.02 169.784 25.38C169.824 25.7 169.864 26.08 169.904 26.52C169.944 26.92 169.984 27.3 170.024 27.66C170.064 27.98 170.104 28.18 170.144 28.26V29.88V31.2C170.064 31.32 170.004 31.46 169.964 31.62C169.924 31.74 169.884 31.86 169.844 31.98C169.804 32.06 169.784 32.14 169.784 32.22C169.784 32.26 169.724 32.36 169.604 32.52C169.524 32.68 169.484 32.78 169.484 32.82C169.404 32.9 169.284 33.08 169.124 33.36C168.964 33.6 168.844 33.76 168.764 33.84C168.724 33.96 168.584 34.18 168.344 34.5C168.104 34.82 167.944 35.04 167.864 35.16C167.824 35.44 167.784 35.92 167.744 36.6C167.704 37.32 167.664 38.06 167.624 38.82C167.624 39.62 167.604 40.36 167.564 41.04C167.524 41.76 167.484 42.26 167.444 42.54C167.444 42.66 167.424 42.84 167.384 43.08C167.344 43.36 167.304 43.64 167.264 43.92C167.264 44.2 167.244 44.46 167.204 44.7C167.164 44.94 167.144 45.1 167.144 45.18C167.144 45.22 167.104 45.32 167.024 45.48C166.944 45.64 166.864 45.74 166.784 45.78C166.784 45.66 166.744 45.34 166.664 44.82C166.584 44.34 166.544 44.04 166.544 43.92V35.7ZM180.285 36.3C180.205 36.22 180.065 36.06 179.865 35.82C179.705 35.54 179.585 35.36 179.505 35.28C179.545 35.2 179.505 34.9 179.385 34.38C179.305 33.82 179.225 33.44 179.145 33.24C179.105 33.16 179.065 33 179.025 32.76C178.985 32.52 178.945 32.26 178.905 31.98C178.865 31.7 178.825 31.42 178.785 31.14C178.745 30.86 178.705 30.66 178.665 30.54C178.625 30.38 178.565 29.94 178.485 29.22C178.445 28.5 178.385 27.66 178.305 26.7C178.225 25.7 178.125 24.64 178.005 23.52C177.925 22.4 177.825 21.36 177.705 20.4C177.625 19.4 177.545 18.56 177.465 17.88C177.425 17.16 177.385 16.7 177.345 16.5C177.265 16.18 177.185 15.7 177.105 15.06C177.025 14.38 176.945 13.96 176.865 13.8C176.865 13.76 176.825 13.66 176.745 13.5C176.665 13.3 176.625 13.18 176.625 13.14C176.585 13.1 176.545 13.02 176.505 12.9C176.505 12.78 176.465 12.66 176.385 12.54C176.305 12.38 176.225 12.24 176.145 12.12C176.145 12.08 176.145 11.98 176.145 11.82C176.145 11.66 176.165 11.56 176.205 11.52V11.1C176.205 10.98 176.225 10.88 176.265 10.8C176.265 10.72 176.365 10.52 176.565 10.2C176.765 9.88 176.905 9.64 176.985 9.48C177.025 9.48 177.125 9.42 177.285 9.3C177.445 9.14 177.605 8.98 177.765 8.82C177.965 8.66 178.145 8.5 178.305 8.34C178.505 8.18 178.645 8.06 178.725 7.98C178.805 7.94 179.005 7.86 179.325 7.74C179.685 7.62 179.905 7.56 179.985 7.56H180.585C180.665 7.56 180.825 7.6 181.065 7.68L181.185 7.8C181.305 7.92 181.365 7.98 181.365 7.98C181.405 8.1 181.485 8.34 181.605 8.7C181.725 9.02 181.805 9.24 181.845 9.36C181.845 9.4 181.865 9.52 181.905 9.72C181.945 9.88 181.985 10.08 182.025 10.32C182.105 10.56 182.165 10.8 182.205 11.04C182.285 11.24 182.345 11.42 182.385 11.58C182.385 11.7 182.385 11.9 182.385 12.18C182.425 12.42 182.465 12.68 182.505 12.96C182.545 13.24 182.585 13.52 182.625 13.8C182.665 14.04 182.685 14.2 182.685 14.28C182.685 14.36 182.705 14.56 182.745 14.88C182.825 15.16 182.885 15.46 182.925 15.78C182.965 16.1 183.005 16.42 183.045 16.74C183.085 17.02 183.105 17.18 183.105 17.22C183.185 17.3 183.245 17.42 183.285 17.58C183.325 17.74 183.385 17.86 183.465 17.94C183.545 17.86 183.685 17.7 183.885 17.46C184.085 17.18 184.285 16.9 184.485 16.62C184.725 16.3 184.945 16.02 185.145 15.78C185.385 15.54 185.545 15.38 185.625 15.3C185.665 15.22 185.905 14.94 186.345 14.46C186.785 13.98 187.125 13.62 187.365 13.38C187.405 13.38 187.465 13.34 187.545 13.26C187.625 13.14 187.705 13.1 187.785 13.14C187.905 13.02 188.125 12.86 188.445 12.66C188.805 12.42 189.025 12.26 189.105 12.18C189.305 12.14 189.645 12.02 190.125 11.82C190.645 11.62 191.005 11.48 191.205 11.4C191.245 11.44 191.285 11.46 191.325 11.46H191.625C191.665 11.46 191.705 11.48 191.745 11.52C191.785 11.52 191.845 11.52 191.925 11.52H192.165C192.205 11.6 192.285 11.68 192.405 11.76C192.565 11.84 192.685 11.9 192.765 11.94L193.245 12.54C193.325 12.62 193.425 12.8 193.545 13.08C193.705 13.32 193.825 13.52 193.905 13.68C193.945 13.68 193.985 13.78 194.025 13.98C194.065 14.18 194.105 14.32 194.145 14.4C194.185 14.56 194.305 15.02 194.505 15.78C194.745 16.5 194.985 17.3 195.225 18.18C195.505 19.02 195.745 19.82 195.945 20.58C196.185 21.34 196.345 21.82 196.425 22.02C196.425 22.06 196.445 22.18 196.485 22.38C196.565 22.58 196.645 22.82 196.725 23.1C196.805 23.34 196.885 23.6 196.965 23.88C197.045 24.12 197.085 24.3 197.085 24.42C197.125 24.5 197.205 24.9 197.325 25.62C197.485 26.34 197.645 27.14 197.805 28.02C197.965 28.86 198.105 29.66 198.225 30.42C198.345 31.14 198.405 31.56 198.405 31.68C198.485 31.72 198.565 31.88 198.645 32.16C198.725 32.4 198.765 32.56 198.765 32.64C198.725 32.76 198.705 32.9 198.705 33.06L198.645 33.36C198.645 33.48 198.585 33.66 198.465 33.9C198.345 34.1 198.245 34.2 198.165 34.2C198.165 34.28 198.105 34.42 197.985 34.62C197.865 34.78 197.725 34.96 197.565 35.16C197.405 35.36 197.245 35.56 197.085 35.76C196.925 35.96 196.825 36.08 196.785 36.12C196.745 36.2 196.705 36.38 196.665 36.66C196.625 36.94 196.585 37.24 196.545 37.56C196.505 37.88 196.465 38.18 196.425 38.46C196.385 38.74 196.365 38.92 196.365 39C196.365 38.92 196.285 38.74 196.125 38.46C195.965 38.18 195.905 38.02 195.945 37.98C195.945 37.9 195.905 37.68 195.825 37.32C195.785 37 195.765 36.8 195.765 36.72C195.685 36.68 195.505 36.68 195.225 36.72C194.985 36.8 194.805 36.84 194.685 36.84H194.505C194.385 36.84 194.325 36.82 194.325 36.78H193.785L193.545 36.48C193.465 36.4 193.405 36.18 193.365 35.82C193.365 35.42 193.325 35.18 193.245 35.1C193.205 34.98 193.105 34.46 192.945 33.54C192.785 32.62 192.605 31.64 192.405 30.6C192.205 29.56 192.005 28.58 191.805 27.66C191.645 26.74 191.545 26.22 191.505 26.1C191.425 25.86 191.285 25.42 191.085 24.78C190.925 24.14 190.725 23.48 190.485 22.8C190.245 22.08 190.025 21.4 189.825 20.76C189.625 20.12 189.485 19.66 189.405 19.38C189.405 19.66 189.385 20.32 189.345 21.36C189.345 22.36 189.305 23.46 189.225 24.66C189.185 25.82 189.125 26.9 189.045 27.9C188.965 28.9 188.885 29.54 188.805 29.82C188.805 29.98 188.745 30.3 188.625 30.78C188.545 31.26 188.445 31.56 188.325 31.68C188.325 31.6 188.325 31.26 188.325 30.66C188.325 30.02 188.325 29.34 188.325 28.62C188.325 27.9 188.325 27.24 188.325 26.64C188.325 26 188.325 25.64 188.325 25.56C188.325 25.44 188.305 25.22 188.265 24.9C188.265 24.54 188.265 24.18 188.265 23.82C188.265 23.42 188.265 23.06 188.265 22.74C188.265 22.38 188.265 22.14 188.265 22.02C188.265 21.82 188.265 21.5 188.265 21.06C188.305 20.58 188.325 20.08 188.325 19.56C188.325 19.04 188.325 18.56 188.325 18.12C188.365 17.64 188.385 17.32 188.385 17.16C188.305 17.24 188.185 17.4 188.025 17.64C187.905 17.84 187.765 18.08 187.605 18.36C187.485 18.6 187.345 18.84 187.185 19.08C187.025 19.32 186.925 19.48 186.885 19.56C186.765 19.68 186.605 19.94 186.405 20.34C186.245 20.74 186.105 21 185.985 21.12C185.945 21.24 185.885 21.44 185.805 21.72C185.725 21.96 185.645 22.22 185.565 22.5C185.485 22.78 185.405 23.04 185.325 23.28C185.245 23.52 185.205 23.66 185.205 23.7C185.165 23.9 185.105 24.42 185.025 25.26C184.985 26.1 184.945 27.02 184.905 28.02C184.865 29.02 184.825 29.96 184.785 30.84C184.785 31.68 184.785 32.18 184.785 32.34C184.705 32.5 184.565 32.74 184.365 33.06C184.205 33.38 184.085 33.58 184.005 33.66C183.965 33.74 183.845 33.86 183.645 34.02C183.445 34.18 183.245 34.36 183.045 34.56C182.845 34.76 182.645 34.96 182.445 35.16C182.285 35.32 182.205 35.44 182.205 35.52C182.165 35.56 182.105 35.72 182.025 36C181.985 36.24 181.925 36.52 181.845 36.84C181.805 37.2 181.745 37.52 181.665 37.8C181.625 38.08 181.585 38.26 181.545 38.34C181.545 38.38 181.465 38.5 181.305 38.7C181.185 38.94 181.125 39.1 181.125 39.18L181.425 36C181.345 36.16 181.245 36.44 181.125 36.84C181.045 37.24 180.965 37.66 180.885 38.1C180.805 38.58 180.725 39.02 180.645 39.42C180.565 39.82 180.505 40.1 180.465 40.26C180.465 40.38 180.365 40.68 180.165 41.16C179.965 41.64 179.845 41.94 179.805 42.06L180.285 36.3ZM207.716 37.56C207.596 37.44 207.376 37.28 207.056 37.08C206.776 36.92 206.576 36.8 206.456 36.72C206.376 36.68 206.216 36.52 205.976 36.24C205.776 36 205.636 35.84 205.556 35.76C205.516 35.64 205.416 35.46 205.256 35.22C205.136 34.98 205.056 34.78 205.016 34.62C204.936 34.5 204.836 34.3 204.716 34.02C204.636 33.74 204.536 33.46 204.416 33.18C204.296 32.9 204.176 32.64 204.056 32.4C203.976 32.16 203.916 32 203.876 31.92C203.876 31.84 203.836 31.68 203.756 31.44C203.716 31.16 203.656 30.88 203.576 30.6C203.496 30.28 203.416 29.98 203.336 29.7C203.256 29.38 203.196 29.16 203.156 29.04C203.156 28.92 203.136 28.74 203.096 28.5C203.096 28.22 203.056 27.94 202.976 27.66C202.936 27.34 202.896 27.06 202.856 26.82C202.816 26.54 202.776 26.36 202.736 26.28C202.736 26.2 202.716 25.92 202.676 25.44C202.676 24.96 202.676 24.62 202.676 24.42C202.676 24.34 202.656 24.18 202.616 23.94C202.616 23.66 202.616 23.38 202.616 23.1C202.616 22.78 202.616 22.5 202.616 22.26C202.616 21.98 202.616 21.8 202.616 21.72C202.536 21.6 202.476 21.32 202.436 20.88C202.436 20.44 202.396 20.18 202.316 20.1H202.196L202.016 20.04C202.016 20.04 201.936 20.06 201.776 20.1C201.616 20.1 201.436 20.12 201.236 20.16C201.076 20.16 200.896 20.18 200.696 20.22C200.536 20.22 200.436 20.22 200.396 20.22C200.356 20.22 200.236 20.22 200.036 20.22C199.836 20.18 199.656 20.16 199.496 20.16C199.416 20.16 199.336 20.16 199.256 20.16C199.216 20.12 199.156 20.1 199.076 20.1H198.776C198.736 20.1 198.636 20 198.476 19.8C198.356 19.6 198.276 19.46 198.236 19.38V19.2V19.14C198.236 19.06 198.276 18.9 198.356 18.66C198.476 18.38 198.556 18.2 198.596 18.12C198.676 17.96 198.756 17.84 198.836 17.76C198.876 17.68 198.936 17.62 199.016 17.58C199.096 17.46 199.256 17.28 199.496 17.04C199.776 16.8 200.056 16.56 200.336 16.32C200.656 16.04 200.956 15.8 201.236 15.6C201.516 15.4 201.716 15.26 201.836 15.18C201.876 15.14 202.016 15.04 202.256 14.88C202.536 14.72 202.716 14.64 202.796 14.64C202.836 14.48 202.916 14.18 203.036 13.74C203.156 13.3 203.256 12.84 203.336 12.36C203.456 11.88 203.556 11.44 203.636 11.04C203.756 10.6 203.856 10.3 203.936 10.14C203.936 10.02 203.956 9.86 203.996 9.66C204.036 9.42 204.076 9.2 204.116 9C204.156 8.76 204.216 8.52 204.296 8.28C204.376 8.04 204.576 7.68 204.896 7.2C205.216 6.72 205.436 6.42 205.556 6.3C205.636 6.26 205.836 6.08 206.156 5.76C206.476 5.44 206.716 5.28 206.876 5.28C206.996 5.2 207.216 5.08 207.536 4.92C207.896 4.72 208.136 4.62 208.256 4.62C208.336 4.66 208.416 4.68 208.496 4.68H208.796L209.276 4.74C209.316 4.74 209.356 4.78 209.396 4.86C209.436 4.94 209.496 4.98 209.576 4.98C209.576 5.14 209.556 5.46 209.516 5.94C209.476 6.42 209.456 6.7 209.456 6.78C209.416 7.06 209.376 7.44 209.336 7.92C209.296 8.36 209.276 8.62 209.276 8.7C209.196 8.86 209.116 9 209.036 9.12C208.916 9.36 208.856 9.52 208.856 9.6C208.856 9.8 208.836 10.12 208.796 10.56C208.756 11 208.716 11.46 208.676 11.94C208.636 12.42 208.596 12.88 208.556 13.32C208.516 13.72 208.496 13.98 208.496 14.1L209.036 14.16C209.316 14.12 209.756 14.04 210.356 13.92C210.956 13.76 211.596 13.6 212.276 13.44C212.956 13.28 213.596 13.14 214.196 13.02C214.796 12.9 215.216 12.8 215.456 12.72C215.576 12.68 215.756 12.64 215.996 12.6C216.276 12.56 216.536 12.5 216.776 12.42C217.056 12.34 217.356 12.28 217.676 12.24C217.756 12.24 217.936 12.26 218.216 12.3C218.496 12.3 218.716 12.3 218.876 12.3C218.916 12.34 219.076 12.38 219.356 12.42C219.676 12.42 219.876 12.42 219.956 12.42C219.996 12.5 220.036 12.58 220.076 12.66C220.156 12.74 220.236 12.84 220.316 12.96C220.276 13 220.256 13.04 220.256 13.08V13.26C220.256 13.34 220.236 13.4 220.196 13.44C220.196 13.48 220.196 13.54 220.196 13.62V13.8C220.116 13.88 220.056 13.98 220.016 14.1C219.936 14.18 219.876 14.26 219.836 14.34C219.836 14.42 219.816 14.48 219.776 14.52C219.696 14.56 219.556 14.7 219.356 14.94C219.196 15.14 219.076 15.28 218.996 15.36C218.996 15.44 218.896 15.56 218.696 15.72C218.496 15.84 218.396 15.94 218.396 16.02C218.316 16.06 218.136 16.16 217.856 16.32C217.576 16.44 217.376 16.5 217.256 16.5C217.176 16.5 216.976 16.58 216.656 16.74C216.336 16.9 216.136 16.98 216.056 16.98L215.696 20.64L215.336 20.16L215.036 17.34L214.376 17.28V17.52C214.336 17.68 214.336 18.06 214.376 18.66C214.456 19.26 214.476 19.64 214.436 19.8C214.436 19.96 214.436 20.2 214.436 20.52C214.436 20.84 214.436 21.18 214.436 21.54C214.436 21.9 214.436 22.24 214.436 22.56C214.476 22.84 214.516 23.02 214.556 23.1C214.516 23.18 214.496 23.26 214.496 23.34V23.64L214.436 24.06L214.076 23.76L213.296 17.28L208.076 18.6C208.036 18.68 208.016 18.78 208.016 18.9C208.016 18.98 207.996 19.08 207.956 19.2C207.956 19.28 207.956 19.36 207.956 19.44C207.956 19.56 207.936 19.78 207.896 20.1C207.896 20.38 207.896 20.54 207.896 20.58C207.896 20.86 207.916 21.12 207.956 21.36C207.996 21.56 208.016 21.78 208.016 22.02C208.016 22.22 208.036 22.38 208.076 22.5C208.076 22.62 208.096 22.9 208.136 23.34C208.176 23.74 208.196 24.02 208.196 24.18C208.156 24.3 208.176 24.54 208.256 24.9C208.336 25.26 208.376 25.46 208.376 25.5C208.416 25.7 208.476 25.96 208.556 26.28C208.636 26.56 208.716 26.86 208.796 27.18C208.876 27.5 208.956 27.78 209.036 28.02C209.116 28.26 209.156 28.4 209.156 28.44C209.156 28.52 209.196 28.7 209.276 28.98C209.356 29.22 209.456 29.5 209.576 29.82C209.696 30.1 209.796 30.38 209.876 30.66C209.996 30.94 210.096 31.14 210.176 31.26C210.216 31.34 210.256 31.4 210.296 31.44C210.416 31.56 210.496 31.62 210.536 31.62C210.616 31.62 210.816 31.68 211.136 31.8C211.456 31.88 211.656 31.92 211.736 31.92C211.776 32 211.836 32.08 211.916 32.16C212.036 32.24 212.096 32.3 212.096 32.34C212.056 32.46 212.036 32.56 212.036 32.64V33.06C212.036 33.1 212.016 33.14 211.976 33.18C211.976 33.22 211.976 33.28 211.976 33.36V33.6C211.896 33.68 211.756 33.88 211.556 34.2C211.396 34.52 211.276 34.76 211.196 34.92C211.116 34.92 210.956 35.04 210.716 35.28C210.516 35.52 210.396 35.68 210.356 35.76L209.936 40.56L209.396 40.5L209.276 40.02C209.236 39.9 209.196 39.76 209.156 39.6C209.156 39.48 209.176 39.38 209.216 39.3C209.176 39.18 209.136 39 209.096 38.76C209.096 38.56 209.096 38.34 209.096 38.1C209.096 37.86 209.076 37.62 209.036 37.38C209.036 37.18 209.016 37.04 208.976 36.96L207.836 49.86L207.716 37.56Z" fill="white"/>
</svg>