<svg width="104" height="30" viewBox="0 0 104 30" fill="none" xmlns="http://www.w3.org/2000/svg">
<path d="M15.53 23.945C15.4833 23.945 15.39 23.91 15.25 23.84C15.11 23.7933 15.0167 23.77 14.97 23.77C14.8767 23.77 14.8067 23.6883 14.76 23.525C14.62 23.3617 14.41 23.14 14.13 22.86C13.8733 22.5567 13.6167 22.265 13.36 21.985C13.1033 21.6817 12.87 21.4133 12.66 21.18C12.45 20.9233 12.3217 20.76 12.275 20.69C12.2283 20.6433 12.135 20.5383 11.995 20.375C11.8783 20.2117 11.7383 20.0367 11.575 19.85C11.4117 19.64 11.2483 19.4417 11.085 19.255C10.945 19.0683 10.8517 18.9167 10.805 18.8C10.7583 18.7533 10.6767 18.66 10.56 18.52C10.4667 18.38 10.35 18.2283 10.21 18.065C10.07 17.9017 9.94167 17.75 9.825 17.61C9.70833 17.47 9.63833 17.3767 9.615 17.33C9.615 17.2833 9.55667 17.2133 9.44 17.12C9.34667 17.0267 9.3 16.9567 9.3 16.91H9.125H9.09C9.09 16.9567 9.03167 17.05 8.915 17.19C8.79833 17.33 8.71667 17.4233 8.67 17.47C8.62333 17.54 8.55333 17.6683 8.46 17.855C8.36667 18.0417 8.27333 18.24 8.18 18.45C8.08667 18.6367 7.99333 18.8233 7.9 19.01C7.80667 19.1733 7.74833 19.29 7.725 19.36C7.725 19.4067 7.69 19.5117 7.62 19.675C7.57333 19.815 7.55 19.92 7.55 19.99C7.52667 20.0367 7.49167 20.1533 7.445 20.34C7.42167 20.5267 7.41 20.6433 7.41 20.69V20.795V20.935C7.43333 21.005 7.45667 21.0867 7.48 21.18L7.55 21.46V21.565V21.635C7.52667 21.705 7.46833 21.845 7.375 22.055C7.28167 22.265 7.22333 22.3817 7.2 22.405L6.255 23.35C6.20833 23.3967 6.08 23.4667 5.87 23.56C5.68333 23.6533 5.54333 23.7233 5.45 23.77H5.31H5.135L4.505 23.14V22.58V21.88C4.505 21.8333 4.52833 21.7167 4.575 21.53C4.645 21.32 4.69167 21.18 4.715 21.11C4.715 21.0633 4.73833 20.97 4.785 20.83C4.855 20.6667 4.89 20.5617 4.89 20.515C4.93667 20.3983 5.01833 20.2233 5.135 19.99C5.25167 19.7567 5.31 19.6167 5.31 19.57C5.33333 19.5 5.415 19.325 5.555 19.045C5.695 18.7417 5.78833 18.5317 5.835 18.415C5.85833 18.3917 5.905 18.3217 5.975 18.205C6.045 18.0883 6.115 17.96 6.185 17.82C6.27833 17.68 6.36 17.5517 6.43 17.435C6.5 17.295 6.55833 17.2017 6.605 17.155C6.65167 17.085 6.72167 16.9567 6.815 16.77C6.93167 16.5833 7.04833 16.385 7.165 16.175C7.28167 15.965 7.38667 15.7783 7.48 15.615C7.59667 15.4283 7.67833 15.3117 7.725 15.265C7.725 15.2183 7.73667 15.1833 7.76 15.16C7.80667 15.1133 7.83 15.0667 7.83 15.02C7.83 14.9967 7.80667 14.9617 7.76 14.915C7.73667 14.8917 7.725 14.8683 7.725 14.845C7.725 14.8217 7.69 14.7633 7.62 14.67C7.57333 14.5767 7.55 14.5183 7.55 14.495C7.50333 14.425 7.41 14.285 7.27 14.075C7.13 13.865 6.96667 13.6433 6.78 13.41C6.61667 13.1533 6.44167 12.92 6.255 12.71C6.06833 12.4767 5.92833 12.3017 5.835 12.185C5.74167 12.0917 5.60167 11.9283 5.415 11.695C5.22833 11.4383 5.135 11.2867 5.135 11.24C5.065 11.1933 4.94833 11.1 4.785 10.96C4.62167 10.82 4.49333 10.7383 4.4 10.715V14.075H4.19L3.77 9.91L3.56 9.77L3.245 10.435L2.825 9.35H2.79H2.615C2.545 9.37333 2.46333 9.39667 2.37 9.42C2.18333 9.46667 2.07833 9.49 2.055 9.49H1.985H1.88C1.85667 9.49 1.79833 9.46667 1.705 9.42C1.65833 9.39667 1.6 9.37333 1.53 9.35C1.48333 9.35 1.41333 9.30333 1.32 9.21C1.22667 9.09333 1.15667 9.01167 1.11 8.965C1.11 8.91833 1.06333 8.825 0.97 8.685C0.853333 8.545 0.771667 8.45167 0.725 8.405C0.725 8.35833 0.701667 8.3 0.655 8.23C0.608333 8.13667 0.585 8.06667 0.585 8.02V7.705V7.46C0.585 7.36667 0.643333 7.23833 0.76 7.075C0.853333 6.88833 0.911667 6.74833 0.935 6.655C0.981667 6.63167 1.06333 6.57333 1.18 6.48C1.27333 6.36333 1.37833 6.24667 1.495 6.13C1.61167 5.99 1.72833 5.87333 1.845 5.78C1.93833 5.68667 2.00833 5.61667 2.055 5.57C2.10167 5.52333 2.23 5.465 2.44 5.395C2.62667 5.30167 2.755 5.23167 2.825 5.185H3.105H3.42C3.44333 5.185 3.525 5.22 3.665 5.29C3.805 5.33667 3.89833 5.37167 3.945 5.395C3.99167 5.395 4.06167 5.41833 4.155 5.465C4.24833 5.48833 4.31833 5.52333 4.365 5.57C4.38833 5.61667 4.47 5.68667 4.61 5.78C4.75 5.87333 4.84333 5.94333 4.89 5.99C5.00667 6.06 5.18167 6.18833 5.415 6.375C5.64833 6.53833 5.78833 6.63167 5.835 6.655C5.85833 6.70167 5.92833 6.78333 6.045 6.9C6.16167 6.99333 6.29 7.11 6.43 7.25C6.57 7.36667 6.68667 7.48333 6.78 7.6C6.89667 7.71667 6.97833 7.81 7.025 7.88C7.04833 7.88 7.10667 7.93833 7.2 8.055C7.31667 8.17167 7.43333 8.3 7.55 8.44C7.66667 8.58 7.78333 8.72 7.9 8.86C8.01667 9 8.09833 9.105 8.145 9.175C8.16833 9.22167 8.25 9.33833 8.39 9.525C8.55333 9.71167 8.71667 9.91 8.88 10.12C9.04333 10.33 9.195 10.5283 9.335 10.715C9.475 10.9017 9.56833 11.0183 9.615 11.065C9.685 11.1117 9.79 11.2167 9.93 11.38C10.0933 11.52 10.1983 11.6133 10.245 11.66H10.35H10.385C10.4083 11.6367 10.4317 11.6017 10.455 11.555C10.4783 11.5083 10.5017 11.485 10.525 11.485C10.5483 11.4617 10.56 11.4267 10.56 11.38C10.63 11.3333 10.7583 11.1933 10.945 10.96C11.155 10.7033 11.3767 10.4467 11.61 10.19C11.8667 9.91 12.0883 9.65333 12.275 9.42C12.485 9.16333 12.625 9.01167 12.695 8.965C12.765 8.87167 12.8933 8.72 13.08 8.51C13.2667 8.3 13.4533 8.09 13.64 7.88C13.85 7.67 14.0367 7.47167 14.2 7.285C14.3867 7.09833 14.515 6.98167 14.585 6.935C14.725 6.795 14.97 6.55 15.32 6.2C15.67 5.82667 16.0433 5.44167 16.44 5.045C16.86 4.625 17.245 4.24 17.595 3.89C17.9683 3.54 18.225 3.295 18.365 3.155C18.4117 3.10833 18.505 3.02667 18.645 2.91C18.785 2.79333 18.8667 2.735 18.89 2.735C18.9367 2.68833 19.03 2.65333 19.17 2.63C19.3333 2.58333 19.4383 2.54833 19.485 2.525H19.695H19.835C19.8817 2.54833 19.9283 2.58333 19.975 2.63C20.0217 2.65333 20.0683 2.68833 20.115 2.735V2.98V3.295C20.0683 3.34167 19.9983 3.47 19.905 3.68C19.8117 3.86667 19.7417 4.00667 19.695 4.1C19.6483 4.12333 19.5667 4.205 19.45 4.345C19.3567 4.485 19.31 4.57833 19.31 4.625L15.705 8.405C15.6583 8.45167 15.6233 8.51 15.6 8.58C15.5533 8.72 15.53 8.80167 15.53 8.825C15.4833 8.84833 15.4367 8.97667 15.39 9.21C15.3667 9.44333 15.3317 9.63 15.285 9.77C15.285 9.81667 15.2733 9.91 15.25 10.05C15.2267 10.19 15.2033 10.3417 15.18 10.505C15.18 10.6683 15.1683 10.82 15.145 10.96C15.1217 11.1 15.11 11.1933 15.11 11.24C15.11 11.31 15.0867 11.4617 15.04 11.695C14.9933 11.9283 14.97 12.0917 14.97 12.185C14.9233 12.2317 14.8767 12.325 14.83 12.465C14.8067 12.605 14.7833 12.6983 14.76 12.745C14.76 12.6983 14.725 12.5817 14.655 12.395C14.6083 12.185 14.585 12.0567 14.585 12.01C14.5617 11.94 14.5383 11.8117 14.515 11.625C14.4917 11.415 14.4683 11.1933 14.445 10.96C14.445 10.7267 14.4333 10.5167 14.41 10.33C14.3867 10.12 14.3633 9.98 14.34 9.91C14.2933 10.0033 14.1767 10.1433 13.99 10.33C13.8033 10.4933 13.6867 10.6217 13.64 10.715C13.6167 10.715 13.5583 10.7617 13.465 10.855C13.395 10.9483 13.3017 11.0533 13.185 11.17C13.0917 11.2867 12.9983 11.4033 12.905 11.52C12.8117 11.6367 12.7417 11.73 12.695 11.8C12.625 11.9167 12.485 12.0917 12.275 12.325C12.065 12.5583 11.9483 12.6983 11.925 12.745C11.8783 12.8383 11.8083 12.955 11.715 13.095C11.6217 13.2117 11.5517 13.27 11.505 13.27V13.445V13.55C11.5517 13.5733 11.5867 13.6317 11.61 13.725C11.6567 13.8183 11.7033 13.8767 11.75 13.9C11.7733 13.9233 11.82 13.9933 11.89 14.11C11.96 14.2267 12.0417 14.355 12.135 14.495C12.2517 14.635 12.3567 14.7867 12.45 14.95C12.5433 15.09 12.625 15.195 12.695 15.265C12.7417 15.3117 12.8117 15.405 12.905 15.545C13.0217 15.685 13.1383 15.8367 13.255 16C13.3717 16.1633 13.4767 16.315 13.57 16.455C13.6867 16.595 13.7683 16.6883 13.815 16.735C13.815 16.7583 13.85 16.8167 13.92 16.91C13.99 17.0033 14.0717 17.1083 14.165 17.225C14.2583 17.3183 14.34 17.4117 14.41 17.505C14.48 17.5983 14.5383 17.6567 14.585 17.68C14.7017 17.82 14.8767 18.03 15.11 18.31C15.3433 18.59 15.4833 18.7533 15.53 18.8C15.6 18.87 15.7283 19.01 15.915 19.22C16.1017 19.43 16.2883 19.6517 16.475 19.885C16.6617 20.095 16.8483 20.305 17.035 20.515C17.2217 20.725 17.35 20.865 17.42 20.935V21.425V21.88C17.42 21.9267 17.35 22.0433 17.21 22.23C17.07 22.4167 17 22.5333 17 22.58C17 22.65 16.9883 22.7783 16.965 22.965C16.965 23.1517 16.9533 23.35 16.93 23.56C16.9067 23.77 16.8833 23.9567 16.86 24.12C16.86 24.3067 16.86 24.4233 16.86 24.47C16.8133 24.5167 16.755 24.5983 16.685 24.715C16.6383 24.8317 16.5917 24.89 16.545 24.89V23.35H16.335C16.2883 23.35 16.2533 23.3617 16.23 23.385C16.2067 23.4083 16.1717 23.4317 16.125 23.455C16.0783 23.4783 16.0433 23.5017 16.02 23.525V29.02H15.705C15.6583 28.81 15.6233 28.6 15.6 28.39C15.5767 28.2033 15.5533 28.005 15.53 27.795C15.53 27.6083 15.53 27.445 15.53 27.305V23.945ZM29.8171 23.945C29.7704 23.945 29.6771 23.91 29.5371 23.84C29.3971 23.7933 29.3038 23.77 29.2571 23.77C29.1638 23.77 29.0938 23.6883 29.0471 23.525C28.9071 23.3617 28.6971 23.14 28.4171 22.86C28.1604 22.5567 27.9038 22.265 27.6471 21.985C27.3904 21.6817 27.1571 21.4133 26.9471 21.18C26.7371 20.9233 26.6088 20.76 26.5621 20.69C26.5154 20.6433 26.4221 20.5383 26.2821 20.375C26.1654 20.2117 26.0254 20.0367 25.8621 19.85C25.6988 19.64 25.5354 19.4417 25.3721 19.255C25.2321 19.0683 25.1388 18.9167 25.0921 18.8C25.0454 18.7533 24.9638 18.66 24.8471 18.52C24.7538 18.38 24.6371 18.2283 24.4971 18.065C24.3571 17.9017 24.2288 17.75 24.1121 17.61C23.9954 17.47 23.9254 17.3767 23.9021 17.33C23.9021 17.2833 23.8438 17.2133 23.7271 17.12C23.6338 17.0267 23.5871 16.9567 23.5871 16.91H23.4121H23.3771C23.3771 16.9567 23.3188 17.05 23.2021 17.19C23.0854 17.33 23.0038 17.4233 22.9571 17.47C22.9104 17.54 22.8404 17.6683 22.7471 17.855C22.6538 18.0417 22.5604 18.24 22.4671 18.45C22.3738 18.6367 22.2804 18.8233 22.1871 19.01C22.0938 19.1733 22.0354 19.29 22.0121 19.36C22.0121 19.4067 21.9771 19.5117 21.9071 19.675C21.8604 19.815 21.8371 19.92 21.8371 19.99C21.8138 20.0367 21.7788 20.1533 21.7321 20.34C21.7088 20.5267 21.6971 20.6433 21.6971 20.69V20.795V20.935C21.7204 21.005 21.7438 21.0867 21.7671 21.18L21.8371 21.46V21.565V21.635C21.8138 21.705 21.7554 21.845 21.6621 22.055C21.5688 22.265 21.5104 22.3817 21.4871 22.405L20.5421 23.35C20.4954 23.3967 20.3671 23.4667 20.1571 23.56C19.9704 23.6533 19.8304 23.7233 19.7371 23.77H19.5971H19.4221L18.7921 23.14V22.58V21.88C18.7921 21.8333 18.8154 21.7167 18.8621 21.53C18.9321 21.32 18.9788 21.18 19.0021 21.11C19.0021 21.0633 19.0254 20.97 19.0721 20.83C19.1421 20.6667 19.1771 20.5617 19.1771 20.515C19.2238 20.3983 19.3054 20.2233 19.4221 19.99C19.5388 19.7567 19.5971 19.6167 19.5971 19.57C19.6204 19.5 19.7021 19.325 19.8421 19.045C19.9821 18.7417 20.0754 18.5317 20.1221 18.415C20.1454 18.3917 20.1921 18.3217 20.2621 18.205C20.3321 18.0883 20.4021 17.96 20.4721 17.82C20.5654 17.68 20.6471 17.5517 20.7171 17.435C20.7871 17.295 20.8454 17.2017 20.8921 17.155C20.9388 17.085 21.0088 16.9567 21.1021 16.77C21.2188 16.5833 21.3354 16.385 21.4521 16.175C21.5688 15.965 21.6738 15.7783 21.7671 15.615C21.8838 15.4283 21.9654 15.3117 22.0121 15.265C22.0121 15.2183 22.0238 15.1833 22.0471 15.16C22.0938 15.1133 22.1171 15.0667 22.1171 15.02C22.1171 14.9967 22.0938 14.9617 22.0471 14.915C22.0238 14.8917 22.0121 14.8683 22.0121 14.845C22.0121 14.8217 21.9771 14.7633 21.9071 14.67C21.8604 14.5767 21.8371 14.5183 21.8371 14.495C21.7904 14.425 21.6971 14.285 21.5571 14.075C21.4171 13.865 21.2538 13.6433 21.0671 13.41C20.9038 13.1533 20.7288 12.92 20.5421 12.71C20.3554 12.4767 20.2154 12.3017 20.1221 12.185C20.0288 12.0917 19.8888 11.9283 19.7021 11.695C19.5154 11.4383 19.4221 11.2867 19.4221 11.24C19.3521 11.1933 19.2354 11.1 19.0721 10.96C18.9088 10.82 18.7804 10.7383 18.6871 10.715V14.075H18.4771L18.0571 9.91L17.8471 9.77L17.5321 10.435L17.1121 9.35H17.0771H16.9021C16.8321 9.37333 16.7504 9.39667 16.6571 9.42C16.4704 9.46667 16.3654 9.49 16.3421 9.49H16.2721H16.1671C16.1438 9.49 16.0854 9.46667 15.9921 9.42C15.9454 9.39667 15.8871 9.37333 15.8171 9.35C15.7704 9.35 15.7004 9.30333 15.6071 9.21C15.5138 9.09333 15.4438 9.01167 15.3971 8.965C15.3971 8.91833 15.3504 8.825 15.2571 8.685C15.1404 8.545 15.0588 8.45167 15.0121 8.405C15.0121 8.35833 14.9888 8.3 14.9421 8.23C14.8954 8.13667 14.8721 8.06667 14.8721 8.02V7.705V7.46C14.8721 7.36667 14.9304 7.23833 15.0471 7.075C15.1404 6.88833 15.1988 6.74833 15.2221 6.655C15.2688 6.63167 15.3504 6.57333 15.4671 6.48C15.5604 6.36333 15.6654 6.24667 15.7821 6.13C15.8988 5.99 16.0154 5.87333 16.1321 5.78C16.2254 5.68667 16.2954 5.61667 16.3421 5.57C16.3888 5.52333 16.5171 5.465 16.7271 5.395C16.9138 5.30167 17.0421 5.23167 17.1121 5.185H17.3921H17.7071C17.7304 5.185 17.8121 5.22 17.9521 5.29C18.0921 5.33667 18.1854 5.37167 18.2321 5.395C18.2788 5.395 18.3488 5.41833 18.4421 5.465C18.5354 5.48833 18.6054 5.52333 18.6521 5.57C18.6754 5.61667 18.7571 5.68667 18.8971 5.78C19.0371 5.87333 19.1304 5.94333 19.1771 5.99C19.2938 6.06 19.4688 6.18833 19.7021 6.375C19.9354 6.53833 20.0754 6.63167 20.1221 6.655C20.1454 6.70167 20.2154 6.78333 20.3321 6.9C20.4488 6.99333 20.5771 7.11 20.7171 7.25C20.8571 7.36667 20.9738 7.48333 21.0671 7.6C21.1838 7.71667 21.2654 7.81 21.3121 7.88C21.3354 7.88 21.3938 7.93833 21.4871 8.055C21.6038 8.17167 21.7204 8.3 21.8371 8.44C21.9538 8.58 22.0704 8.72 22.1871 8.86C22.3038 9 22.3854 9.105 22.4321 9.175C22.4554 9.22167 22.5371 9.33833 22.6771 9.525C22.8404 9.71167 23.0038 9.91 23.1671 10.12C23.3304 10.33 23.4821 10.5283 23.6221 10.715C23.7621 10.9017 23.8554 11.0183 23.9021 11.065C23.9721 11.1117 24.0771 11.2167 24.2171 11.38C24.3804 11.52 24.4854 11.6133 24.5321 11.66H24.6371H24.6721C24.6954 11.6367 24.7188 11.6017 24.7421 11.555C24.7654 11.5083 24.7888 11.485 24.8121 11.485C24.8354 11.4617 24.8471 11.4267 24.8471 11.38C24.9171 11.3333 25.0454 11.1933 25.2321 10.96C25.4421 10.7033 25.6638 10.4467 25.8971 10.19C26.1538 9.91 26.3754 9.65333 26.5621 9.42C26.7721 9.16333 26.9121 9.01167 26.9821 8.965C27.0521 8.87167 27.1804 8.72 27.3671 8.51C27.5538 8.3 27.7404 8.09 27.9271 7.88C28.1371 7.67 28.3238 7.47167 28.4871 7.285C28.6738 7.09833 28.8021 6.98167 28.8721 6.935C29.0121 6.795 29.2571 6.55 29.6071 6.2C29.9571 5.82667 30.3304 5.44167 30.7271 5.045C31.1471 4.625 31.5321 4.24 31.8821 3.89C32.2554 3.54 32.5121 3.295 32.6521 3.155C32.6988 3.10833 32.7921 3.02667 32.9321 2.91C33.0721 2.79333 33.1538 2.735 33.1771 2.735C33.2238 2.68833 33.3171 2.65333 33.4571 2.63C33.6204 2.58333 33.7254 2.54833 33.7721 2.525H33.9821H34.1221C34.1688 2.54833 34.2154 2.58333 34.2621 2.63C34.3088 2.65333 34.3554 2.68833 34.4021 2.735V2.98V3.295C34.3554 3.34167 34.2854 3.47 34.1921 3.68C34.0988 3.86667 34.0288 4.00667 33.9821 4.1C33.9354 4.12333 33.8538 4.205 33.7371 4.345C33.6438 4.485 33.5971 4.57833 33.5971 4.625L29.9921 8.405C29.9454 8.45167 29.9104 8.51 29.8871 8.58C29.8404 8.72 29.8171 8.80167 29.8171 8.825C29.7704 8.84833 29.7238 8.97667 29.6771 9.21C29.6538 9.44333 29.6188 9.63 29.5721 9.77C29.5721 9.81667 29.5604 9.91 29.5371 10.05C29.5138 10.19 29.4904 10.3417 29.4671 10.505C29.4671 10.6683 29.4554 10.82 29.4321 10.96C29.4088 11.1 29.3971 11.1933 29.3971 11.24C29.3971 11.31 29.3738 11.4617 29.3271 11.695C29.2804 11.9283 29.2571 12.0917 29.2571 12.185C29.2104 12.2317 29.1638 12.325 29.1171 12.465C29.0938 12.605 29.0704 12.6983 29.0471 12.745C29.0471 12.6983 29.0121 12.5817 28.9421 12.395C28.8954 12.185 28.8721 12.0567 28.8721 12.01C28.8488 11.94 28.8254 11.8117 28.8021 11.625C28.7788 11.415 28.7554 11.1933 28.7321 10.96C28.7321 10.7267 28.7204 10.5167 28.6971 10.33C28.6738 10.12 28.6504 9.98 28.6271 9.91C28.5804 10.0033 28.4638 10.1433 28.2771 10.33C28.0904 10.4933 27.9738 10.6217 27.9271 10.715C27.9038 10.715 27.8454 10.7617 27.7521 10.855C27.6821 10.9483 27.5888 11.0533 27.4721 11.17C27.3788 11.2867 27.2854 11.4033 27.1921 11.52C27.0988 11.6367 27.0288 11.73 26.9821 11.8C26.9121 11.9167 26.7721 12.0917 26.5621 12.325C26.3521 12.5583 26.2354 12.6983 26.2121 12.745C26.1654 12.8383 26.0954 12.955 26.0021 13.095C25.9088 13.2117 25.8388 13.27 25.7921 13.27V13.445V13.55C25.8388 13.5733 25.8738 13.6317 25.8971 13.725C25.9438 13.8183 25.9904 13.8767 26.0371 13.9C26.0604 13.9233 26.1071 13.9933 26.1771 14.11C26.2471 14.2267 26.3288 14.355 26.4221 14.495C26.5388 14.635 26.6438 14.7867 26.7371 14.95C26.8304 15.09 26.9121 15.195 26.9821 15.265C27.0288 15.3117 27.0988 15.405 27.1921 15.545C27.3088 15.685 27.4254 15.8367 27.5421 16C27.6588 16.1633 27.7638 16.315 27.8571 16.455C27.9738 16.595 28.0554 16.6883 28.1021 16.735C28.1021 16.7583 28.1371 16.8167 28.2071 16.91C28.2771 17.0033 28.3588 17.1083 28.4521 17.225C28.5454 17.3183 28.6271 17.4117 28.6971 17.505C28.7671 17.5983 28.8254 17.6567 28.8721 17.68C28.9888 17.82 29.1638 18.03 29.3971 18.31C29.6304 18.59 29.7704 18.7533 29.8171 18.8C29.8871 18.87 30.0154 19.01 30.2021 19.22C30.3888 19.43 30.5754 19.6517 30.7621 19.885C30.9488 20.095 31.1354 20.305 31.3221 20.515C31.5088 20.725 31.6371 20.865 31.7071 20.935V21.425V21.88C31.7071 21.9267 31.6371 22.0433 31.4971 22.23C31.3571 22.4167 31.2871 22.5333 31.2871 22.58C31.2871 22.65 31.2754 22.7783 31.2521 22.965C31.2521 23.1517 31.2404 23.35 31.2171 23.56C31.1938 23.77 31.1704 23.9567 31.1471 24.12C31.1471 24.3067 31.1471 24.4233 31.1471 24.47C31.1004 24.5167 31.0421 24.5983 30.9721 24.715C30.9254 24.8317 30.8788 24.89 30.8321 24.89V23.35H30.6221C30.5754 23.35 30.5404 23.3617 30.5171 23.385C30.4938 23.4083 30.4588 23.4317 30.4121 23.455C30.3654 23.4783 30.3304 23.5017 30.3071 23.525V29.02H29.9921C29.9454 28.81 29.9104 28.6 29.8871 28.39C29.8638 28.2033 29.8404 28.005 29.8171 27.795C29.8171 27.6083 29.8171 27.445 29.8171 27.305V23.945ZM31.8192 21.74C31.8426 21.67 31.8659 21.5883 31.8892 21.495C31.9359 21.3083 31.9592 21.1917 31.9592 21.145C32.0526 21.0283 32.1342 20.8533 32.2042 20.62C32.2976 20.3867 32.3442 20.2467 32.3442 20.2L42.0392 1.3C42.0392 1.27667 42.1092 1.195 42.2492 1.055C42.3892 0.891666 42.4942 0.763333 42.5642 0.67C42.6109 0.67 42.7042 0.634999 42.8442 0.564999C43.0076 0.471665 43.1126 0.401666 43.1592 0.354999C43.1826 0.354999 43.2059 0.343333 43.2292 0.32C43.2526 0.296666 43.2642 0.284998 43.2642 0.284998C43.2876 0.284998 43.3109 0.273332 43.3342 0.249999C43.3809 0.226666 43.4392 0.191665 43.5092 0.144998H43.8242H44.1042C44.1276 0.144998 44.1626 0.179998 44.2092 0.249999C44.2792 0.296666 44.3142 0.331666 44.3142 0.354999V0.774998V1.09C44.2909 1.13667 44.2442 1.25333 44.1742 1.44C44.1042 1.60333 44.0109 1.80167 43.8942 2.035C43.8009 2.245 43.7076 2.455 43.6142 2.665C43.5209 2.875 43.4392 3.05 43.3692 3.19C43.2059 3.49333 42.9492 3.995 42.5992 4.695C42.2492 5.395 41.8759 6.13 41.4792 6.9C41.1059 7.67 40.7442 8.39333 40.3942 9.07C40.0676 9.72333 39.8459 10.1667 39.7292 10.4C39.6592 10.5633 39.4492 10.96 39.0992 11.59C38.7726 12.22 38.4226 12.8967 38.0492 13.62C37.6759 14.3433 37.3142 15.02 36.9642 15.65C36.6376 16.28 36.4392 16.6767 36.3692 16.84C36.3226 16.8867 36.2642 16.9917 36.1942 17.155C36.1242 17.295 36.0426 17.4467 35.9492 17.61C35.8559 17.7733 35.7742 17.925 35.7042 18.065C35.6342 18.205 35.5992 18.2867 35.5992 18.31C35.5526 18.4033 35.4826 18.5783 35.3892 18.835C35.2959 19.0917 35.2259 19.2317 35.1792 19.255C35.1792 19.2783 35.1676 19.3483 35.1442 19.465C35.1209 19.5817 35.0976 19.71 35.0742 19.85C35.0742 19.9667 35.0626 20.0833 35.0392 20.2C35.0159 20.2933 35.0042 20.3517 35.0042 20.375C35.0042 20.4217 34.9459 20.55 34.8292 20.76C34.7359 20.9467 34.6776 21.075 34.6542 21.145C34.6076 21.1917 34.5376 21.2967 34.4442 21.46C34.3509 21.6 34.2809 21.6933 34.2342 21.74C34.1876 21.7867 34.1176 21.8567 34.0242 21.95C33.9309 22.0433 33.8376 22.1483 33.7442 22.265C33.6509 22.3583 33.5576 22.4517 33.4642 22.545C33.3709 22.615 33.3126 22.6617 33.2892 22.685C33.2426 22.7083 33.1259 22.7783 32.9392 22.895C32.7526 22.9883 32.6359 23.035 32.5892 23.035H32.2742H31.9592L31.8192 22.895V22.37V21.74ZM51.6918 22.23H51.2718C51.2485 22.23 51.1668 22.2417 51.0268 22.265C50.9102 22.265 50.7702 22.2767 50.6068 22.3C50.4435 22.3233 50.2685 22.3583 50.0818 22.405C49.9185 22.4283 49.7902 22.4517 49.6968 22.475C49.6502 22.475 49.5568 22.4867 49.4168 22.51C49.3002 22.5333 49.1718 22.5567 49.0318 22.58C48.8918 22.58 48.7635 22.5917 48.6468 22.615C48.5302 22.6383 48.4602 22.65 48.4368 22.65C48.2502 22.6967 47.9935 22.755 47.6668 22.825C47.3402 22.8717 47.0018 22.9183 46.6518 22.965C46.3018 23.0117 45.9868 23.0583 45.7068 23.105C45.4268 23.1517 45.2635 23.175 45.2168 23.175C45.1702 23.1983 45.0768 23.2333 44.9368 23.28C44.7735 23.3267 44.6102 23.3733 44.4468 23.42C44.2602 23.4667 44.0968 23.5017 43.9568 23.525C43.7935 23.5717 43.6885 23.595 43.6418 23.595H43.1868H42.6968C42.6968 23.5483 42.6735 23.4783 42.6268 23.385C42.5802 23.2917 42.5568 23.2217 42.5568 23.175V23.105V23C42.5568 22.9767 42.6152 22.86 42.7318 22.65C42.8252 22.44 42.8835 22.3 42.9068 22.23C42.9535 22.1833 43.0235 22.09 43.1168 21.95C43.2102 21.81 43.2802 21.7283 43.3268 21.705C43.3268 21.6583 43.4202 21.565 43.6068 21.425C43.7935 21.2617 43.9335 21.1567 44.0268 21.11C44.0502 21.11 44.1085 21.0867 44.2018 21.04C44.2952 20.97 44.4002 20.9 44.5168 20.83C44.6102 20.76 44.7035 20.7017 44.7968 20.655C44.8902 20.6083 44.9485 20.585 44.9718 20.585C44.9952 20.5617 45.0535 20.515 45.1468 20.445C45.2402 20.3517 45.3452 20.2583 45.4618 20.165C45.6018 20.0483 45.7302 19.9433 45.8468 19.85C45.9868 19.7567 46.0918 19.6867 46.1618 19.64C46.1618 19.5933 46.1852 19.5583 46.2318 19.535C46.3018 19.4883 46.3368 19.4417 46.3368 19.395C46.4068 19.3017 46.5235 19.1733 46.6868 19.01C46.8502 18.8233 47.0018 18.6483 47.1418 18.485C47.3052 18.2983 47.4452 18.135 47.5618 17.995C47.7018 17.855 47.7835 17.7733 47.8068 17.75C47.8768 17.68 48.0052 17.5283 48.1918 17.295C48.3785 17.0617 48.5068 16.8983 48.5768 16.805C48.6235 16.735 48.6935 16.6183 48.7868 16.455C48.9035 16.2917 49.0202 16.1283 49.1368 15.965C49.2535 15.8017 49.3585 15.65 49.4518 15.51C49.5685 15.37 49.6502 15.2767 49.6968 15.23C49.7902 15.1133 49.9302 14.9267 50.1168 14.67C50.3268 14.4133 50.5252 14.145 50.7118 13.865C50.9218 13.585 51.1085 13.3283 51.2718 13.095C51.4352 12.8383 51.5402 12.675 51.5868 12.605C51.6568 12.4883 51.7968 12.2783 52.0068 11.975C52.2168 11.6483 52.4385 11.31 52.6718 10.96C52.9285 10.5867 53.1618 10.2367 53.3718 9.91C53.6052 9.56 53.7802 9.30333 53.8968 9.14C53.9202 9.07 54.0018 8.91833 54.1418 8.685C54.2818 8.45167 54.3752 8.28833 54.4218 8.195C54.4452 8.14833 54.4918 8.055 54.5618 7.915C54.6552 7.775 54.7485 7.62333 54.8418 7.46C54.9352 7.29667 55.0168 7.145 55.0868 7.005C55.1568 6.865 55.1918 6.77167 55.1918 6.725C55.2385 6.67833 55.2735 6.585 55.2968 6.445C55.3435 6.305 55.3668 6.21167 55.3668 6.165C55.3668 6.11833 55.3785 6.06 55.4018 5.99C55.4485 5.89667 55.4718 5.82667 55.4718 5.78C55.4718 5.73333 55.4485 5.66333 55.4018 5.57C55.3785 5.47667 55.3668 5.40667 55.3668 5.36C55.3668 5.33667 55.3435 5.255 55.2968 5.115C55.2735 4.975 55.2385 4.88167 55.1918 4.835C55.1685 4.78833 55.0868 4.695 54.9468 4.555C54.8068 4.415 54.7135 4.32167 54.6668 4.275C54.6202 4.22833 54.5502 4.19333 54.4568 4.17C54.3635 4.12333 54.2935 4.1 54.2468 4.1C54.1768 4.07667 54.0252 4.04167 53.7918 3.995C53.5585 3.925 53.3952 3.89 53.3018 3.89C53.2785 3.89 53.1502 3.90167 52.9168 3.925C52.7068 3.94833 52.5552 3.96 52.4618 3.96C52.4618 4.00667 52.4618 4.08833 52.4618 4.205C52.4852 4.29833 52.5085 4.415 52.5318 4.555C52.5552 4.695 52.5668 4.835 52.5668 4.975C52.5668 5.09166 52.5552 5.17333 52.5318 5.22C52.5318 5.38333 52.4735 5.52333 52.3568 5.64C52.3568 5.59333 52.3335 5.54667 52.2868 5.5C52.2402 5.45333 52.2168 5.40667 52.2168 5.36C52.1935 5.33667 52.1702 5.26667 52.1468 5.15C52.1235 5.01 52.1002 4.87 52.0768 4.73C52.0535 4.59 52.0302 4.46167 52.0068 4.345C52.0068 4.22833 52.0068 4.14667 52.0068 4.1C51.9602 4.1 51.8785 4.1 51.7618 4.1C51.6452 4.07667 51.5635 4.065 51.5168 4.065C51.4702 4.065 51.4235 4.07667 51.3768 4.1C51.3302 4.1 51.2835 4.1 51.2368 4.1H51.0618C50.9452 4.12333 50.8402 4.14667 50.7468 4.17C50.5135 4.21667 50.3735 4.25167 50.3268 4.275C50.2335 4.275 50.1168 4.29833 49.9768 4.345C49.8368 4.39167 49.7435 4.415 49.6968 4.415C49.6502 4.46167 49.5802 4.50833 49.4868 4.555C49.4168 4.60167 49.3818 4.64833 49.3818 4.695C49.3352 4.695 49.2885 4.71833 49.2418 4.765L49.1718 4.835C49.1718 4.88167 49.1952 5.01 49.2418 5.22C49.2885 5.40667 49.3352 5.54667 49.3818 5.64C49.3818 5.66333 49.4168 5.78 49.4868 5.99C49.5802 6.17667 49.6502 6.28167 49.6968 6.305C49.7202 6.35167 49.7668 6.43333 49.8368 6.55C49.9302 6.66667 50.0118 6.795 50.0818 6.935C50.1752 7.05167 50.2568 7.16833 50.3268 7.285C50.4202 7.40167 50.4668 7.48333 50.4668 7.53C50.4902 7.57667 50.5252 7.65833 50.5718 7.775C50.6418 7.86833 50.7002 7.97333 50.7468 8.09C50.8168 8.20667 50.8752 8.32333 50.9218 8.44C50.9918 8.53333 51.0385 8.59167 51.0618 8.615V8.825V9C51.0618 9.07 51.0035 9.21 50.8868 9.42C50.7702 9.63 50.6885 9.74667 50.6418 9.77C50.6185 9.81667 50.5602 9.88667 50.4668 9.98C50.3968 10.0733 50.3035 10.1667 50.1868 10.26C50.0935 10.3533 49.9885 10.4467 49.8718 10.54C49.7785 10.6333 49.7202 10.6917 49.6968 10.715C49.6502 10.715 49.5452 10.7733 49.3818 10.89C49.2185 10.9833 49.0902 11.03 48.9968 11.03L48.9268 11.1C48.9035 11.1233 48.8452 11.135 48.7518 11.135L48.5768 11.03C48.5535 11.03 48.4835 11.0183 48.3668 10.995C48.2735 10.9717 48.2268 10.9367 48.2268 10.89C48.1802 10.8433 48.1102 10.715 48.0168 10.505C47.9235 10.2717 47.8535 10.1317 47.8068 10.085C47.7835 10.085 47.7252 10.015 47.6318 9.875C47.5385 9.735 47.4335 9.58333 47.3168 9.42C47.2235 9.23333 47.1302 9.07 47.0368 8.93C46.9435 8.76667 46.8852 8.66167 46.8618 8.615C46.8618 8.56833 46.8035 8.45167 46.6868 8.265C46.5935 8.055 46.5235 7.92667 46.4768 7.88C46.4768 7.81 46.4535 7.705 46.4068 7.565C46.3602 7.40167 46.3368 7.29667 46.3368 7.25V6.48V5.78C46.3368 5.71 46.3718 5.605 46.4418 5.465C46.5118 5.325 46.5935 5.185 46.6868 5.045C46.7802 4.88167 46.8618 4.73 46.9318 4.59C47.0018 4.45 47.0602 4.345 47.1068 4.275C47.1302 4.22833 47.1885 4.14667 47.2818 4.03C47.3985 3.91333 47.5268 3.79666 47.6668 3.68C47.8068 3.54 47.9468 3.4 48.0868 3.26C48.2502 3.12 48.3668 3.015 48.4368 2.945C48.4368 2.89833 48.5068 2.82833 48.6468 2.735C48.8102 2.64167 48.9268 2.57167 48.9968 2.525C49.0435 2.50167 49.1485 2.44333 49.3118 2.35C49.4985 2.25667 49.6968 2.16333 49.9068 2.07C50.1168 1.97666 50.3152 1.88333 50.5018 1.79C50.6885 1.69667 50.8168 1.62667 50.8868 1.58L51.0968 1.51C51.2368 1.46333 51.3418 1.44 51.4118 1.44C51.4585 1.44 51.5752 1.41666 51.7618 1.37C51.9718 1.3 52.1235 1.25333 52.2168 1.23C52.3335 1.23 52.5085 1.20667 52.7418 1.16C52.9752 1.09 53.1152 1.055 53.1618 1.055H54.5268H55.7868C55.8102 1.055 55.8918 1.09 56.0318 1.16C56.1718 1.20667 56.2652 1.23 56.3118 1.23C56.3818 1.23 56.4752 1.265 56.5918 1.335C56.7085 1.38167 56.8252 1.44 56.9418 1.51C57.0585 1.58 57.1635 1.65 57.2568 1.72C57.3735 1.79 57.4552 1.83667 57.5018 1.86L57.6768 2C57.6768 2.04667 57.6885 2.105 57.7118 2.175C57.7585 2.22167 57.8052 2.26833 57.8518 2.315C57.8985 2.385 57.9568 2.455 58.0268 2.525L58.2018 2.875C58.2485 2.96833 58.2835 3.05 58.3068 3.12V3.96V4.835C58.3068 4.88167 58.2718 5.01 58.2018 5.22C58.1318 5.40667 58.0735 5.54667 58.0268 5.64C58.0268 5.66333 57.9685 5.80333 57.8518 6.06C57.7585 6.31667 57.7002 6.49167 57.6768 6.585C57.6302 6.655 57.5252 6.84167 57.3618 7.145C57.2218 7.425 57.1285 7.6 57.0818 7.67C57.0352 7.74 56.9652 7.86833 56.8718 8.055C56.7785 8.24167 56.6618 8.44 56.5218 8.65C56.4052 8.83667 56.2885 9.02333 56.1718 9.21C56.0785 9.37333 56.0202 9.49 55.9968 9.56C55.9502 9.63 55.8335 9.79333 55.6468 10.05C55.4835 10.3067 55.2968 10.5867 55.0868 10.89C54.8768 11.1933 54.6785 11.485 54.4918 11.765C54.3052 12.045 54.1768 12.255 54.1068 12.395C54.0602 12.4883 53.9668 12.64 53.8268 12.85C53.7102 13.0367 53.5818 13.235 53.4418 13.445C53.3018 13.6317 53.1618 13.8183 53.0218 14.005C52.9052 14.1683 52.8235 14.2617 52.7768 14.285C52.7068 14.4017 52.5318 14.635 52.2518 14.985C51.9952 15.3117 51.7152 15.6733 51.4118 16.07C51.1085 16.4667 50.8168 16.8517 50.5368 17.225C50.2568 17.5983 50.0585 17.8783 49.9418 18.065C49.9185 18.1117 49.8602 18.1817 49.7668 18.275C49.6968 18.3683 49.6152 18.4733 49.5218 18.59C49.4285 18.6833 49.3468 18.7767 49.2768 18.87C49.2068 18.94 49.1718 18.9867 49.1718 19.01C49.1252 19.1033 49.0202 19.255 48.8568 19.465C48.7168 19.6517 48.6235 19.7683 48.5768 19.815H48.9968H49.3818C49.4518 19.815 49.6035 19.8033 49.8368 19.78C50.0935 19.7333 50.3735 19.6867 50.6768 19.64C50.9802 19.5933 51.2602 19.5467 51.5168 19.5C51.7735 19.4533 51.9368 19.4183 52.0068 19.395C52.0535 19.395 52.1585 19.3833 52.3218 19.36C52.4852 19.3367 52.6485 19.325 52.8118 19.325C52.9985 19.3017 53.1735 19.2783 53.3368 19.255C53.5235 19.2317 53.6518 19.22 53.7218 19.22L53.8968 19.01C53.8502 18.94 53.7802 18.8233 53.6868 18.66C53.5935 18.4733 53.5002 18.2867 53.4068 18.1C53.3135 17.89 53.2202 17.6917 53.1268 17.505C53.0335 17.3183 52.9752 17.19 52.9518 17.12C52.9518 17.0733 52.9168 16.98 52.8468 16.84C52.8002 16.7 52.7768 16.6067 52.7768 16.56V16.175V15.86C52.7768 15.6967 52.8352 15.5567 52.9518 15.44C52.9518 15.3933 52.9635 15.3467 52.9868 15.3C53.0335 15.23 53.0802 15.1717 53.1268 15.125C53.1735 15.055 53.2318 14.985 53.3018 14.915C53.3485 14.8683 53.4185 14.7867 53.5118 14.67C53.6052 14.5533 53.6752 14.495 53.7218 14.495C53.7685 14.4717 53.8618 14.4133 54.0018 14.32C54.1418 14.2267 54.2235 14.1683 54.2468 14.145C54.3635 14.0283 54.5035 13.97 54.6668 13.97L54.8418 13.865C54.8418 13.8883 54.8535 13.9 54.8768 13.9C54.9002 13.9 54.9118 13.9117 54.9118 13.935C54.9118 13.935 54.9235 13.935 54.9468 13.935C54.9702 13.9583 55.0052 13.97 55.0518 13.97C55.0985 13.97 55.1452 13.9817 55.1918 14.005C55.3085 14.075 55.3668 14.1217 55.3668 14.145C55.3902 14.215 55.4485 14.3433 55.5418 14.53C55.6585 14.7167 55.7635 14.9033 55.8568 15.09C55.9735 15.2767 56.0668 15.4633 56.1368 15.65C56.2302 15.8367 56.2885 15.965 56.3118 16.035L56.9418 16.98C56.9652 17.0267 57.0585 17.1433 57.2218 17.33C57.4085 17.4933 57.5952 17.68 57.7818 17.89C57.9918 18.1 58.1902 18.2983 58.3768 18.485C58.5868 18.6717 58.7385 18.8 58.8318 18.87C58.8785 18.8933 58.9368 18.9167 59.0068 18.94C59.1468 18.9867 59.2285 19.01 59.2518 19.01C59.2518 19.0567 59.3452 19.1033 59.5318 19.15C59.7185 19.1733 59.8468 19.1967 59.9168 19.22C59.9402 19.22 59.9985 19.2317 60.0918 19.255C60.2085 19.2783 60.3135 19.3017 60.4068 19.325C60.5235 19.325 60.6285 19.3367 60.7218 19.36C60.8152 19.3833 60.8618 19.395 60.8618 19.395C60.9085 19.395 60.9785 19.43 61.0718 19.5C61.1652 19.5467 61.2352 19.5933 61.2818 19.64C61.3285 19.64 61.3868 19.6983 61.4568 19.815C61.5502 19.9083 61.6202 19.955 61.6668 19.955V20.025V20.165C61.6202 20.2117 61.5735 20.3167 61.5268 20.48C61.5035 20.62 61.4802 20.7133 61.4568 20.76C61.4568 20.7833 61.4102 20.865 61.3168 21.005C61.2235 21.145 61.1652 21.2383 61.1418 21.285L60.7218 21.705C60.6285 21.775 60.4768 21.88 60.2668 22.02C60.0802 22.16 59.9635 22.23 59.9168 22.23C59.8935 22.2767 59.8118 22.3233 59.6718 22.37C59.5318 22.3933 59.4385 22.4283 59.3918 22.475H58.9718H58.6218C58.5752 22.4517 58.4585 22.4167 58.2718 22.37C58.0852 22.3233 57.8868 22.2767 57.6768 22.23C57.4668 22.1833 57.2685 22.1483 57.0818 22.125C56.8952 22.0783 56.7785 22.055 56.7318 22.055H55.3668H54.1068C54.0835 22.055 54.0368 22.09 53.9668 22.16L53.8968 22.23V23.42C53.8968 23.4667 53.8618 23.5833 53.7918 23.77C53.7452 23.9567 53.7218 24.0733 53.7218 24.12C53.6752 24.12 53.6285 24.085 53.5818 24.015C53.5585 23.9683 53.5235 23.945 53.4768 23.945C53.4768 23.9217 53.4418 23.84 53.3718 23.7C53.3252 23.56 53.3018 23.4667 53.3018 23.42C53.3018 23.35 53.2785 23.1517 53.2318 22.825C53.1852 22.4983 53.1618 22.3 53.1618 22.23H52.7768C52.7768 22.4167 52.7652 22.7433 52.7418 23.21C52.7418 23.7 52.7302 24.2017 52.7068 24.715C52.6835 25.2517 52.6485 25.7533 52.6018 26.22C52.5785 26.6867 52.5552 27.0133 52.5318 27.2C52.5318 27.3167 52.5202 27.4567 52.4968 27.62C52.4735 27.7833 52.4502 27.9467 52.4268 28.11C52.4035 28.2967 52.3802 28.4833 52.3568 28.67H52.0418V22.23H51.6918ZM66.1969 29.195C66.1969 29.125 66.2085 28.915 66.2319 28.565C66.2552 28.215 66.2669 27.83 66.2669 27.41C66.2902 27.0133 66.3135 26.64 66.3369 26.29C66.3602 25.94 66.3719 25.73 66.3719 25.66V23.98V23L66.1969 22.825L65.9519 23C65.9519 23.1167 65.9169 23.3617 65.8469 23.735C65.8002 24.1083 65.7769 24.3533 65.7769 24.47C65.7769 24.54 65.7535 24.645 65.7069 24.785C65.6602 24.9483 65.6135 25.0533 65.5669 25.1H65.4619H65.4269C65.4269 25.0067 65.3919 24.8317 65.3219 24.575C65.2752 24.3417 65.2519 24.1783 65.2519 24.085C65.2285 24.0617 65.2052 23.98 65.1819 23.84C65.1585 23.7233 65.1352 23.595 65.1119 23.455C65.1119 23.315 65.1002 23.1867 65.0769 23.07C65.0535 22.9533 65.0302 22.8717 65.0069 22.825C64.9602 22.7783 64.8435 22.7083 64.6569 22.615C64.4702 22.5217 64.3535 22.4517 64.3069 22.405C64.2369 22.3817 64.1202 22.3233 63.9569 22.23C63.8169 22.1367 63.7235 22.0783 63.6769 22.055C63.6069 22.0083 63.5485 21.95 63.5019 21.88C63.4085 21.74 63.3619 21.6583 63.3619 21.635C63.3152 21.5883 63.2219 21.4833 63.0819 21.32C62.9419 21.1567 62.8252 21.0283 62.7319 20.935C62.6852 20.865 62.6152 20.76 62.5219 20.62C62.4519 20.4567 62.4169 20.3517 62.4169 20.305C62.3702 20.2817 62.3119 20.2117 62.2419 20.095C62.1952 19.9783 62.1369 19.8617 62.0669 19.745C61.9969 19.605 61.9385 19.4883 61.8919 19.395C61.8452 19.2783 61.8102 19.22 61.7869 19.22C61.7635 19.15 61.7169 19.01 61.6469 18.8C61.5769 18.59 61.4952 18.3683 61.4019 18.135C61.3319 17.8783 61.2619 17.645 61.1919 17.435C61.1219 17.2017 61.0752 17.0267 61.0519 16.91C61.0285 16.8633 60.9935 16.7117 60.9469 16.455C60.9235 16.1983 60.8885 16.035 60.8419 15.965C60.8419 15.895 60.8302 15.7783 60.8069 15.615C60.8069 15.4283 60.7952 15.2533 60.7719 15.09C60.7485 14.9033 60.7252 14.7283 60.7019 14.565C60.7019 14.4017 60.7019 14.285 60.7019 14.215V13.235V12.185C60.7019 12.1383 60.7019 12.0333 60.7019 11.87C60.7252 11.7067 60.7485 11.5317 60.7719 11.345C60.7952 11.135 60.8069 10.9367 60.8069 10.75C60.8302 10.5633 60.8419 10.4117 60.8419 10.295C60.8885 10.2017 60.9235 10.015 60.9469 9.735C60.9935 9.455 61.0285 9.26833 61.0519 9.175C61.0519 9.15167 61.0752 9.035 61.1219 8.825C61.1919 8.615 61.2269 8.475 61.2269 8.405C61.2502 8.35833 61.2852 8.27667 61.3319 8.16C61.3785 8.02 61.4252 7.88 61.4719 7.74C61.5185 7.6 61.5535 7.47167 61.5769 7.355C61.6235 7.215 61.6469 7.12167 61.6469 7.075V6.935V6.655C61.6002 6.585 61.5652 6.50333 61.5419 6.41C61.4952 6.27 61.4719 6.17667 61.4719 6.13V6.025V5.99C61.4719 5.94333 61.4952 5.82667 61.5419 5.64C61.5652 5.54667 61.6002 5.465 61.6469 5.395C61.6702 5.325 61.7285 5.22 61.8219 5.08C61.9152 4.91667 61.9735 4.81167 61.9969 4.765C62.0435 4.74167 62.1252 4.67167 62.2419 4.555C62.3819 4.415 62.5219 4.275 62.6619 4.135C62.8019 3.995 62.9302 3.86667 63.0469 3.75C63.1869 3.61 63.2919 3.51667 63.3619 3.47C63.4085 3.42333 63.5252 3.33 63.7119 3.19C63.8985 3.02667 64.0152 2.92167 64.0619 2.875C64.0852 2.875 64.1552 2.85167 64.2719 2.805C64.3885 2.735 64.5169 2.67667 64.6569 2.63C64.7969 2.56 64.9135 2.50167 65.0069 2.455C65.1235 2.40833 65.2052 2.37333 65.2519 2.35C65.2985 2.35 65.4152 2.32667 65.6019 2.28C65.7885 2.23333 65.9052 2.21 65.9519 2.21C65.9985 2.21 66.0802 2.19833 66.1969 2.175C66.3135 2.12833 66.3835 2.105 66.4069 2.105C66.4769 2.105 66.5819 2.12833 66.7219 2.175C66.7919 2.19833 66.8502 2.21 66.8969 2.21C66.9669 2.21 67.0952 2.23333 67.2819 2.28C67.4685 2.32667 67.5969 2.35 67.6669 2.35C67.7135 2.39667 67.8302 2.46667 68.0169 2.56C68.2269 2.63 68.3785 2.68833 68.4719 2.735C68.5185 2.78167 68.6119 2.85167 68.7519 2.945C68.8919 3.03833 68.9852 3.10833 69.0319 3.155C69.0785 3.20167 69.1602 3.295 69.2769 3.435C69.4169 3.55167 69.5569 3.68 69.6969 3.82C69.8369 3.93667 69.9652 4.05333 70.0819 4.17C70.2219 4.28666 70.3152 4.36833 70.3619 4.415C70.3619 4.43833 70.4552 4.60167 70.6419 4.905C70.8519 5.185 71.0035 5.40667 71.0969 5.57C71.1202 5.61667 71.1435 5.675 71.1669 5.745C71.1902 5.86167 71.2369 5.94333 71.3069 5.99C71.3535 6.06 71.4119 6.21167 71.4819 6.445C71.5752 6.67833 71.6219 6.84167 71.6219 6.935C71.6452 6.98167 71.6802 7.06333 71.7269 7.18C71.7735 7.29667 71.8202 7.41333 71.8669 7.53C71.9135 7.64667 71.9485 7.75167 71.9719 7.845C72.0185 7.93833 72.0419 7.99667 72.0419 8.02C72.0652 8.13667 72.1002 8.31167 72.1469 8.545C72.2169 8.77833 72.2519 8.91833 72.2519 8.965V10.855V12.745C72.2519 12.7917 72.2169 12.955 72.1469 13.235C72.1002 13.515 72.0652 13.7367 72.0419 13.9C72.0419 13.9933 72.0069 14.1567 71.9369 14.39C71.8902 14.6233 71.8669 14.775 71.8669 14.845C71.8202 14.9383 71.7735 15.0783 71.7269 15.265C71.7035 15.4283 71.6685 15.5333 71.6219 15.58C71.5985 15.65 71.5635 15.7783 71.5169 15.965C71.4702 16.1283 71.4119 16.315 71.3419 16.525C71.2952 16.7117 71.2369 16.8867 71.1669 17.05C71.1202 17.19 71.0969 17.2833 71.0969 17.33C71.0735 17.3767 71.0269 17.47 70.9569 17.61C70.9102 17.7267 70.8519 17.855 70.7819 17.995C70.7352 18.135 70.6769 18.275 70.6069 18.415C70.5602 18.5317 70.5252 18.6017 70.5019 18.625C70.4319 18.765 70.3619 18.8933 70.2919 19.01C70.1752 19.2433 70.0702 19.43 69.9769 19.57C69.9302 19.6167 69.8485 19.7217 69.7319 19.885C69.6152 20.025 69.5569 20.1183 69.5569 20.165C69.5335 20.235 69.4169 20.3867 69.2069 20.62C68.9969 20.8533 68.8569 21.0167 68.7869 21.11C68.7869 21.1333 68.7285 21.1917 68.6119 21.285C68.5185 21.3783 68.4719 21.4367 68.4719 21.46C68.4252 21.4833 68.3552 21.53 68.2619 21.6C68.1685 21.67 68.0635 21.7517 67.9469 21.845C67.8535 21.915 67.7602 21.985 67.6669 22.055C67.5969 22.125 67.5502 22.1717 67.5269 22.195L67.1419 22.58C67.1185 22.7667 67.0952 23.07 67.0719 23.49C67.0485 23.91 67.0252 24.3417 67.0019 24.785C67.0019 25.2517 66.9902 25.695 66.9669 26.115C66.9435 26.535 66.9202 26.8267 66.8969 26.99C66.8969 27.0133 66.8852 27.0833 66.8619 27.2C66.8619 27.3167 66.8502 27.4567 66.8269 27.62C66.8269 27.7833 66.8152 27.9467 66.7919 28.11C66.7685 28.2733 66.7452 28.4017 66.7219 28.495C66.7219 28.5417 66.7102 28.6233 66.6869 28.74C66.6635 28.8567 66.6402 28.9733 66.6169 29.09C66.6169 29.2067 66.6052 29.3117 66.5819 29.405C66.5819 29.5217 66.5819 29.5917 66.5819 29.615C66.5352 29.6383 66.4885 29.6967 66.4419 29.79C66.4185 29.8833 66.3952 29.9417 66.3719 29.965C66.3719 29.9417 66.3369 29.86 66.2669 29.72C66.2202 29.58 66.1969 29.4867 66.1969 29.44V29.335V29.195ZM63.6769 13.27C63.6769 13.3167 63.6885 13.41 63.7119 13.55C63.7352 13.6667 63.7585 13.795 63.7819 13.935C63.8052 14.075 63.8285 14.215 63.8519 14.355C63.8752 14.4717 63.8869 14.565 63.8869 14.635C63.8869 14.7283 63.9452 14.95 64.0619 15.3C64.1785 15.6267 64.2602 15.8483 64.3069 15.965C64.3069 16.035 64.3535 16.1867 64.4469 16.42C64.5635 16.6533 64.6219 16.8167 64.6219 16.91C64.7152 17.0267 64.8202 17.2367 64.9369 17.54C65.0769 17.8433 65.1819 18.03 65.2519 18.1C65.2519 18.1467 65.2985 18.24 65.3919 18.38C65.5085 18.52 65.5669 18.6017 65.5669 18.625C65.6602 18.7183 65.8235 18.8817 66.0569 19.115C66.3135 19.3483 66.4885 19.5 66.5819 19.57L66.8969 19.745H67.2119H67.5269L67.6669 19.535C67.7135 19.4883 67.7485 19.4417 67.7719 19.395C67.7952 19.325 67.8185 19.2667 67.8419 19.22C67.8885 19.1267 67.9702 18.9983 68.0869 18.835C68.2035 18.6483 68.2619 18.5083 68.2619 18.415C68.2619 18.3917 68.2852 18.31 68.3319 18.17C68.4019 18.0067 68.4602 17.8317 68.5069 17.645C68.5769 17.4583 68.6352 17.2833 68.6819 17.12C68.7285 16.9333 68.7635 16.805 68.7869 16.735C68.8335 16.7117 68.8685 16.595 68.8919 16.385C68.9385 16.175 68.9852 16.035 69.0319 15.965C69.0319 15.8483 69.0552 15.6733 69.1019 15.44C69.1719 15.2067 69.2069 15.0667 69.2069 15.02C69.2069 14.95 69.2185 14.8333 69.2419 14.67C69.2652 14.4833 69.2769 14.3083 69.2769 14.145C69.3002 13.9583 69.3235 13.7833 69.3469 13.62C69.3702 13.4567 69.3935 13.34 69.4169 13.27V12.605V11.8C69.3935 11.73 69.3702 11.625 69.3469 11.485C69.3235 11.3217 69.3002 11.1583 69.2769 10.995C69.2769 10.8317 69.2652 10.6917 69.2419 10.575C69.2185 10.435 69.2069 10.3417 69.2069 10.295C69.2069 10.2483 69.1835 10.155 69.1369 10.015C69.0902 9.85167 69.0319 9.68833 68.9619 9.525C68.9152 9.33833 68.8569 9.16333 68.7869 9C68.7169 8.81333 68.6585 8.66167 68.6119 8.545C68.5885 8.52167 68.5302 8.41667 68.4369 8.23C68.3435 8.02 68.2852 7.90333 68.2619 7.88C68.2619 7.83333 68.2035 7.74 68.0869 7.6C67.9702 7.43667 67.8885 7.33167 67.8419 7.285C67.7952 7.16833 67.7019 7.02833 67.5619 6.865C67.4219 6.67833 67.3402 6.56167 67.3169 6.515C67.2702 6.46833 67.1652 6.375 67.0019 6.235C66.8619 6.095 66.7685 6.01333 66.7219 5.99C66.6985 5.94333 66.6169 5.87333 66.4769 5.78C66.3369 5.68667 66.2435 5.61667 66.1969 5.57C66.1502 5.61667 66.0685 5.68667 65.9519 5.78C65.8585 5.85 65.7419 5.93167 65.6019 6.025C65.4619 6.11833 65.3335 6.21167 65.2169 6.305C65.1002 6.39833 65.0302 6.46833 65.0069 6.515C64.9369 6.56167 64.8552 6.62 64.7619 6.69C64.5752 6.83 64.4819 6.91167 64.4819 6.935C64.4352 6.95833 64.3652 7.01667 64.2719 7.11C64.1785 7.20333 64.1085 7.26167 64.0619 7.285C64.0152 7.40167 63.9802 7.50667 63.9569 7.6C63.9102 7.83333 63.8869 7.97333 63.8869 8.02C63.8635 8.18333 63.8169 8.44 63.7469 8.79C63.7002 9.11667 63.6769 9.30333 63.6769 9.35V11.345V13.27ZM67.2119 9.14C67.2585 9.14 67.3052 9.15167 67.3519 9.175C67.4219 9.175 67.4802 9.175 67.5269 9.175L67.6669 9.35V12.605C67.6669 12.6283 67.6202 12.745 67.5269 12.955C67.4569 13.1417 67.3869 13.2467 67.3169 13.27C67.2702 13.3633 67.1302 13.5267 66.8969 13.76C66.6635 13.9933 66.4885 14.145 66.3719 14.215C66.3252 14.2617 66.2552 14.32 66.1619 14.39C66.0685 14.46 65.9985 14.495 65.9519 14.495H65.5669H65.2519C65.2052 14.495 65.1469 14.46 65.0769 14.39C65.0302 14.32 65.0069 14.2617 65.0069 14.215V11.065C65.0069 11.0417 65.0302 10.9833 65.0769 10.89C65.1469 10.7967 65.2052 10.7383 65.2519 10.715L65.4269 10.365C65.4735 10.2717 65.5202 10.19 65.5669 10.12C65.6602 10.05 65.7769 9.945 65.9169 9.805C66.0569 9.64167 66.1502 9.53667 66.1969 9.49C66.2435 9.46667 66.3602 9.40833 66.5469 9.315C66.7335 9.22167 66.8502 9.175 66.8969 9.175C66.9435 9.175 66.9902 9.175 67.0369 9.175C67.1069 9.15167 67.1652 9.14 67.2119 9.14ZM79.1039 22.23H78.6839C78.6606 22.23 78.5789 22.2417 78.4389 22.265C78.3223 22.265 78.1823 22.2767 78.0189 22.3C77.8556 22.3233 77.6806 22.3583 77.4939 22.405C77.3306 22.4283 77.2023 22.4517 77.1089 22.475C77.0623 22.475 76.9689 22.4867 76.8289 22.51C76.7123 22.5333 76.5839 22.5567 76.4439 22.58C76.3039 22.58 76.1756 22.5917 76.0589 22.615C75.9423 22.6383 75.8723 22.65 75.8489 22.65C75.6623 22.6967 75.4056 22.755 75.0789 22.825C74.7523 22.8717 74.4139 22.9183 74.0639 22.965C73.7139 23.0117 73.3989 23.0583 73.1189 23.105C72.8389 23.1517 72.6756 23.175 72.6289 23.175C72.5823 23.1983 72.4889 23.2333 72.3489 23.28C72.1856 23.3267 72.0223 23.3733 71.8589 23.42C71.6723 23.4667 71.5089 23.5017 71.3689 23.525C71.2056 23.5717 71.1006 23.595 71.0539 23.595H70.5989H70.1089C70.1089 23.5483 70.0856 23.4783 70.0389 23.385C69.9923 23.2917 69.9689 23.2217 69.9689 23.175V23.105V23C69.9689 22.9767 70.0273 22.86 70.1439 22.65C70.2373 22.44 70.2956 22.3 70.3189 22.23C70.3656 22.1833 70.4356 22.09 70.5289 21.95C70.6223 21.81 70.6923 21.7283 70.7389 21.705C70.7389 21.6583 70.8323 21.565 71.0189 21.425C71.2056 21.2617 71.3456 21.1567 71.4389 21.11C71.4623 21.11 71.5206 21.0867 71.6139 21.04C71.7073 20.97 71.8123 20.9 71.9289 20.83C72.0223 20.76 72.1156 20.7017 72.2089 20.655C72.3023 20.6083 72.3606 20.585 72.3839 20.585C72.4073 20.5617 72.4656 20.515 72.5589 20.445C72.6523 20.3517 72.7573 20.2583 72.8739 20.165C73.0139 20.0483 73.1423 19.9433 73.2589 19.85C73.3989 19.7567 73.5039 19.6867 73.5739 19.64C73.5739 19.5933 73.5973 19.5583 73.6439 19.535C73.7139 19.4883 73.7489 19.4417 73.7489 19.395C73.8189 19.3017 73.9356 19.1733 74.0989 19.01C74.2623 18.8233 74.4139 18.6483 74.5539 18.485C74.7173 18.2983 74.8573 18.135 74.9739 17.995C75.1139 17.855 75.1956 17.7733 75.2189 17.75C75.2889 17.68 75.4173 17.5283 75.6039 17.295C75.7906 17.0617 75.9189 16.8983 75.9889 16.805C76.0356 16.735 76.1056 16.6183 76.1989 16.455C76.3156 16.2917 76.4323 16.1283 76.5489 15.965C76.6656 15.8017 76.7706 15.65 76.8639 15.51C76.9806 15.37 77.0623 15.2767 77.1089 15.23C77.2023 15.1133 77.3423 14.9267 77.5289 14.67C77.7389 14.4133 77.9373 14.145 78.1239 13.865C78.3339 13.585 78.5206 13.3283 78.6839 13.095C78.8473 12.8383 78.9523 12.675 78.9989 12.605C79.0689 12.4883 79.2089 12.2783 79.4189 11.975C79.6289 11.6483 79.8506 11.31 80.0839 10.96C80.3406 10.5867 80.5739 10.2367 80.7839 9.91C81.0173 9.56 81.1923 9.30333 81.3089 9.14C81.3323 9.07 81.4139 8.91833 81.5539 8.685C81.6939 8.45167 81.7873 8.28833 81.8339 8.195C81.8573 8.14833 81.9039 8.055 81.9739 7.915C82.0673 7.775 82.1606 7.62333 82.2539 7.46C82.3473 7.29667 82.4289 7.145 82.4989 7.005C82.5689 6.865 82.6039 6.77167 82.6039 6.725C82.6506 6.67833 82.6856 6.585 82.7089 6.445C82.7556 6.305 82.7789 6.21167 82.7789 6.165C82.7789 6.11833 82.7906 6.06 82.8139 5.99C82.8606 5.89667 82.8839 5.82667 82.8839 5.78C82.8839 5.73333 82.8606 5.66333 82.8139 5.57C82.7906 5.47667 82.7789 5.40667 82.7789 5.36C82.7789 5.33667 82.7556 5.255 82.7089 5.115C82.6856 4.975 82.6506 4.88167 82.6039 4.835C82.5806 4.78833 82.4989 4.695 82.3589 4.555C82.2189 4.415 82.1256 4.32167 82.0789 4.275C82.0323 4.22833 81.9623 4.19333 81.8689 4.17C81.7756 4.12333 81.7056 4.1 81.6589 4.1C81.5889 4.07667 81.4373 4.04167 81.2039 3.995C80.9706 3.925 80.8073 3.89 80.7139 3.89C80.6906 3.89 80.5623 3.90167 80.3289 3.925C80.1189 3.94833 79.9673 3.96 79.8739 3.96C79.8739 4.00667 79.8739 4.08833 79.8739 4.205C79.8973 4.29833 79.9206 4.415 79.9439 4.555C79.9673 4.695 79.9789 4.835 79.9789 4.975C79.9789 5.09166 79.9673 5.17333 79.9439 5.22C79.9439 5.38333 79.8856 5.52333 79.7689 5.64C79.7689 5.59333 79.7456 5.54667 79.6989 5.5C79.6523 5.45333 79.6289 5.40667 79.6289 5.36C79.6056 5.33667 79.5823 5.26667 79.5589 5.15C79.5356 5.01 79.5123 4.87 79.4889 4.73C79.4656 4.59 79.4423 4.46167 79.4189 4.345C79.4189 4.22833 79.4189 4.14667 79.4189 4.1C79.3723 4.1 79.2906 4.1 79.1739 4.1C79.0573 4.07667 78.9756 4.065 78.9289 4.065C78.8823 4.065 78.8356 4.07667 78.7889 4.1C78.7423 4.1 78.6956 4.1 78.6489 4.1H78.4739C78.3573 4.12333 78.2523 4.14667 78.1589 4.17C77.9256 4.21667 77.7856 4.25167 77.7389 4.275C77.6456 4.275 77.5289 4.29833 77.3889 4.345C77.2489 4.39167 77.1556 4.415 77.1089 4.415C77.0623 4.46167 76.9923 4.50833 76.8989 4.555C76.8289 4.60167 76.7939 4.64833 76.7939 4.695C76.7473 4.695 76.7006 4.71833 76.6539 4.765L76.5839 4.835C76.5839 4.88167 76.6073 5.01 76.6539 5.22C76.7006 5.40667 76.7473 5.54667 76.7939 5.64C76.7939 5.66333 76.8289 5.78 76.8989 5.99C76.9923 6.17667 77.0623 6.28167 77.1089 6.305C77.1323 6.35167 77.1789 6.43333 77.2489 6.55C77.3423 6.66667 77.4239 6.795 77.4939 6.935C77.5873 7.05167 77.6689 7.16833 77.7389 7.285C77.8323 7.40167 77.8789 7.48333 77.8789 7.53C77.9023 7.57667 77.9373 7.65833 77.9839 7.775C78.0539 7.86833 78.1123 7.97333 78.1589 8.09C78.2289 8.20667 78.2873 8.32333 78.3339 8.44C78.4039 8.53333 78.4506 8.59167 78.4739 8.615V8.825V9C78.4739 9.07 78.4156 9.21 78.2989 9.42C78.1823 9.63 78.1006 9.74667 78.0539 9.77C78.0306 9.81667 77.9723 9.88667 77.8789 9.98C77.8089 10.0733 77.7156 10.1667 77.5989 10.26C77.5056 10.3533 77.4006 10.4467 77.2839 10.54C77.1906 10.6333 77.1323 10.6917 77.1089 10.715C77.0623 10.715 76.9573 10.7733 76.7939 10.89C76.6306 10.9833 76.5023 11.03 76.4089 11.03L76.3389 11.1C76.3156 11.1233 76.2573 11.135 76.1639 11.135L75.9889 11.03C75.9656 11.03 75.8956 11.0183 75.7789 10.995C75.6856 10.9717 75.6389 10.9367 75.6389 10.89C75.5923 10.8433 75.5223 10.715 75.4289 10.505C75.3356 10.2717 75.2656 10.1317 75.2189 10.085C75.1956 10.085 75.1373 10.015 75.0439 9.875C74.9506 9.735 74.8456 9.58333 74.7289 9.42C74.6356 9.23333 74.5423 9.07 74.4489 8.93C74.3556 8.76667 74.2973 8.66167 74.2739 8.615C74.2739 8.56833 74.2156 8.45167 74.0989 8.265C74.0056 8.055 73.9356 7.92667 73.8889 7.88C73.8889 7.81 73.8656 7.705 73.8189 7.565C73.7723 7.40167 73.7489 7.29667 73.7489 7.25V6.48V5.78C73.7489 5.71 73.7839 5.605 73.8539 5.465C73.9239 5.325 74.0056 5.185 74.0989 5.045C74.1923 4.88167 74.2739 4.73 74.3439 4.59C74.4139 4.45 74.4723 4.345 74.5189 4.275C74.5423 4.22833 74.6006 4.14667 74.6939 4.03C74.8106 3.91333 74.9389 3.79666 75.0789 3.68C75.2189 3.54 75.3589 3.4 75.4989 3.26C75.6623 3.12 75.7789 3.015 75.8489 2.945C75.8489 2.89833 75.9189 2.82833 76.0589 2.735C76.2223 2.64167 76.3389 2.57167 76.4089 2.525C76.4556 2.50167 76.5606 2.44333 76.7239 2.35C76.9106 2.25667 77.1089 2.16333 77.3189 2.07C77.5289 1.97666 77.7273 1.88333 77.9139 1.79C78.1006 1.69667 78.2289 1.62667 78.2989 1.58L78.5089 1.51C78.6489 1.46333 78.7539 1.44 78.8239 1.44C78.8706 1.44 78.9873 1.41666 79.1739 1.37C79.3839 1.3 79.5356 1.25333 79.6289 1.23C79.7456 1.23 79.9206 1.20667 80.1539 1.16C80.3873 1.09 80.5273 1.055 80.5739 1.055H81.9389H83.1989C83.2223 1.055 83.3039 1.09 83.4439 1.16C83.5839 1.20667 83.6773 1.23 83.7239 1.23C83.7939 1.23 83.8873 1.265 84.0039 1.335C84.1206 1.38167 84.2373 1.44 84.3539 1.51C84.4706 1.58 84.5756 1.65 84.6689 1.72C84.7856 1.79 84.8673 1.83667 84.9139 1.86L85.0889 2C85.0889 2.04667 85.1006 2.105 85.1239 2.175C85.1706 2.22167 85.2173 2.26833 85.2639 2.315C85.3106 2.385 85.3689 2.455 85.4389 2.525L85.6139 2.875C85.6606 2.96833 85.6956 3.05 85.7189 3.12V3.96V4.835C85.7189 4.88167 85.6839 5.01 85.6139 5.22C85.5439 5.40667 85.4856 5.54667 85.4389 5.64C85.4389 5.66333 85.3806 5.80333 85.2639 6.06C85.1706 6.31667 85.1123 6.49167 85.0889 6.585C85.0423 6.655 84.9373 6.84167 84.7739 7.145C84.6339 7.425 84.5406 7.6 84.4939 7.67C84.4473 7.74 84.3773 7.86833 84.2839 8.055C84.1906 8.24167 84.0739 8.44 83.9339 8.65C83.8173 8.83667 83.7006 9.02333 83.5839 9.21C83.4906 9.37333 83.4323 9.49 83.4089 9.56C83.3623 9.63 83.2456 9.79333 83.0589 10.05C82.8956 10.3067 82.7089 10.5867 82.4989 10.89C82.2889 11.1933 82.0906 11.485 81.9039 11.765C81.7173 12.045 81.5889 12.255 81.5189 12.395C81.4723 12.4883 81.3789 12.64 81.2389 12.85C81.1223 13.0367 80.9939 13.235 80.8539 13.445C80.7139 13.6317 80.5739 13.8183 80.4339 14.005C80.3173 14.1683 80.2356 14.2617 80.1889 14.285C80.1189 14.4017 79.9439 14.635 79.6639 14.985C79.4073 15.3117 79.1273 15.6733 78.8239 16.07C78.5206 16.4667 78.2289 16.8517 77.9489 17.225C77.6689 17.5983 77.4706 17.8783 77.3539 18.065C77.3306 18.1117 77.2723 18.1817 77.1789 18.275C77.1089 18.3683 77.0273 18.4733 76.9339 18.59C76.8406 18.6833 76.7589 18.7767 76.6889 18.87C76.6189 18.94 76.5839 18.9867 76.5839 19.01C76.5373 19.1033 76.4323 19.255 76.2689 19.465C76.1289 19.6517 76.0356 19.7683 75.9889 19.815H76.4089H76.7939C76.8639 19.815 77.0156 19.8033 77.2489 19.78C77.5056 19.7333 77.7856 19.6867 78.0889 19.64C78.3923 19.5933 78.6723 19.5467 78.9289 19.5C79.1856 19.4533 79.3489 19.4183 79.4189 19.395C79.4656 19.395 79.5706 19.3833 79.7339 19.36C79.8973 19.3367 80.0606 19.325 80.2239 19.325C80.4106 19.3017 80.5856 19.2783 80.7489 19.255C80.9356 19.2317 81.0639 19.22 81.1339 19.22L81.3089 19.01C81.2623 18.94 81.1923 18.8233 81.0989 18.66C81.0056 18.4733 80.9123 18.2867 80.8189 18.1C80.7256 17.89 80.6323 17.6917 80.5389 17.505C80.4456 17.3183 80.3873 17.19 80.3639 17.12C80.3639 17.0733 80.3289 16.98 80.2589 16.84C80.2123 16.7 80.1889 16.6067 80.1889 16.56V16.175V15.86C80.1889 15.6967 80.2473 15.5567 80.3639 15.44C80.3639 15.3933 80.3756 15.3467 80.3989 15.3C80.4456 15.23 80.4923 15.1717 80.5389 15.125C80.5856 15.055 80.6439 14.985 80.7139 14.915C80.7606 14.8683 80.8306 14.7867 80.9239 14.67C81.0173 14.5533 81.0873 14.495 81.1339 14.495C81.1806 14.4717 81.2739 14.4133 81.4139 14.32C81.5539 14.2267 81.6356 14.1683 81.6589 14.145C81.7756 14.0283 81.9156 13.97 82.0789 13.97L82.2539 13.865C82.2539 13.8883 82.2656 13.9 82.2889 13.9C82.3123 13.9 82.3239 13.9117 82.3239 13.935C82.3239 13.935 82.3356 13.935 82.3589 13.935C82.3823 13.9583 82.4173 13.97 82.4639 13.97C82.5106 13.97 82.5573 13.9817 82.6039 14.005C82.7206 14.075 82.7789 14.1217 82.7789 14.145C82.8023 14.215 82.8606 14.3433 82.9539 14.53C83.0706 14.7167 83.1756 14.9033 83.2689 15.09C83.3856 15.2767 83.4789 15.4633 83.5489 15.65C83.6423 15.8367 83.7006 15.965 83.7239 16.035L84.3539 16.98C84.3773 17.0267 84.4706 17.1433 84.6339 17.33C84.8206 17.4933 85.0073 17.68 85.1939 17.89C85.4039 18.1 85.6023 18.2983 85.7889 18.485C85.9989 18.6717 86.1506 18.8 86.2439 18.87C86.2906 18.8933 86.3489 18.9167 86.4189 18.94C86.5589 18.9867 86.6406 19.01 86.6639 19.01C86.6639 19.0567 86.7573 19.1033 86.9439 19.15C87.1306 19.1733 87.2589 19.1967 87.3289 19.22C87.3523 19.22 87.4106 19.2317 87.5039 19.255C87.6206 19.2783 87.7256 19.3017 87.8189 19.325C87.9356 19.325 88.0406 19.3367 88.1339 19.36C88.2273 19.3833 88.2739 19.395 88.2739 19.395C88.3206 19.395 88.3906 19.43 88.4839 19.5C88.5773 19.5467 88.6473 19.5933 88.6939 19.64C88.7406 19.64 88.7989 19.6983 88.8689 19.815C88.9623 19.9083 89.0323 19.955 89.0789 19.955V20.025V20.165C89.0323 20.2117 88.9856 20.3167 88.9389 20.48C88.9156 20.62 88.8923 20.7133 88.8689 20.76C88.8689 20.7833 88.8223 20.865 88.7289 21.005C88.6356 21.145 88.5773 21.2383 88.5539 21.285L88.1339 21.705C88.0406 21.775 87.8889 21.88 87.6789 22.02C87.4923 22.16 87.3756 22.23 87.3289 22.23C87.3056 22.2767 87.2239 22.3233 87.0839 22.37C86.9439 22.3933 86.8506 22.4283 86.8039 22.475H86.3839H86.0339C85.9873 22.4517 85.8706 22.4167 85.6839 22.37C85.4973 22.3233 85.2989 22.2767 85.0889 22.23C84.8789 22.1833 84.6806 22.1483 84.4939 22.125C84.3073 22.0783 84.1906 22.055 84.1439 22.055H82.7789H81.5189C81.4956 22.055 81.4489 22.09 81.3789 22.16L81.3089 22.23V23.42C81.3089 23.4667 81.2739 23.5833 81.2039 23.77C81.1573 23.9567 81.1339 24.0733 81.1339 24.12C81.0873 24.12 81.0406 24.085 80.9939 24.015C80.9706 23.9683 80.9356 23.945 80.8889 23.945C80.8889 23.9217 80.8539 23.84 80.7839 23.7C80.7373 23.56 80.7139 23.4667 80.7139 23.42C80.7139 23.35 80.6906 23.1517 80.6439 22.825C80.5973 22.4983 80.5739 22.3 80.5739 22.23H80.1889C80.1889 22.4167 80.1773 22.7433 80.1539 23.21C80.1539 23.7 80.1423 24.2017 80.1189 24.715C80.0956 25.2517 80.0606 25.7533 80.0139 26.22C79.9906 26.6867 79.9673 27.0133 79.9439 27.2C79.9439 27.3167 79.9323 27.4567 79.9089 27.62C79.8856 27.7833 79.8623 27.9467 79.8389 28.11C79.8156 28.2967 79.7923 28.4833 79.7689 28.67H79.4539V22.23H79.1039ZM96.549 23.07C96.5023 23.0467 96.4673 23.0233 96.444 23L96.339 22.895C96.2923 22.895 96.234 22.9067 96.164 22.93C96.1173 22.9533 96.0707 22.9767 96.024 23C95.954 23.0233 95.8957 23.0467 95.849 23.07V24.645L95.604 24.785C95.5573 24.7617 95.5107 24.7033 95.464 24.61C95.4173 24.5167 95.394 24.4583 95.394 24.435C95.394 24.3883 95.3823 24.295 95.359 24.155C95.3357 24.0383 95.3123 23.91 95.289 23.77C95.289 23.63 95.2773 23.49 95.254 23.35C95.2307 23.2333 95.219 23.14 95.219 23.07C95.149 23.07 95.0207 23.0467 94.834 23C94.6473 22.93 94.519 22.895 94.449 22.895C94.4023 22.895 94.2973 22.8717 94.134 22.825C93.994 22.7783 93.9007 22.755 93.854 22.755C93.8307 22.7083 93.7723 22.6733 93.679 22.65C93.5857 22.6033 93.5273 22.5683 93.504 22.545C93.4573 22.545 93.3523 22.4867 93.189 22.37C93.049 22.2533 92.9557 22.1717 92.909 22.125C92.839 22.0783 92.699 21.985 92.489 21.845C92.3023 21.705 92.1857 21.6233 92.139 21.6C92.0923 21.5533 91.999 21.46 91.859 21.32C91.719 21.1567 91.6373 21.0517 91.614 21.005C91.5673 20.935 91.439 20.7833 91.229 20.55C91.0423 20.3167 90.9023 20.1533 90.809 20.06C90.7623 20.0133 90.7273 19.9667 90.704 19.92C90.6807 19.85 90.6457 19.7917 90.599 19.745C90.5523 19.675 90.5173 19.605 90.494 19.535C90.424 19.4417 90.3307 19.2783 90.214 19.045C90.0973 18.8117 89.9807 18.5783 89.864 18.345C89.7473 18.0883 89.6307 17.855 89.514 17.645C89.3973 17.435 89.3273 17.295 89.304 17.225C89.304 17.2017 89.269 17.12 89.199 16.98C89.1523 16.84 89.129 16.7467 89.129 16.7C89.1057 16.63 89.0707 16.5017 89.024 16.315C89.0007 16.1283 88.9657 16 88.919 15.93C88.919 15.79 88.8957 15.6033 88.849 15.37C88.8023 15.1367 88.779 15.0083 88.779 14.985V14.39V13.865C88.779 13.8183 88.8023 13.7483 88.849 13.655C88.8957 13.5617 88.919 13.4917 88.919 13.445C88.9423 13.3983 88.9657 13.3517 88.989 13.305C89.0357 13.235 89.0823 13.1767 89.129 13.13C89.1757 13.06 89.234 12.99 89.304 12.92C89.3507 12.8733 89.4207 12.7917 89.514 12.675C89.6073 12.5583 89.6773 12.5 89.724 12.5C89.7473 12.4767 89.829 12.4183 89.969 12.325C90.109 12.2317 90.2023 12.1733 90.249 12.15C90.2957 12.1033 90.3773 12.0567 90.494 12.01C90.564 11.9867 90.6223 11.975 90.669 11.975C90.6923 11.975 90.7273 11.9633 90.774 11.94C90.8673 11.8933 90.9373 11.87 90.984 11.87C90.984 11.8933 90.9957 11.905 91.019 11.905C91.0423 11.905 91.054 11.9167 91.054 11.94C91.054 11.94 91.0657 11.94 91.089 11.94C91.1123 11.9633 91.1473 11.975 91.194 11.975C91.2407 11.975 91.3223 12.0333 91.439 12.15C91.439 12.1733 91.4623 12.255 91.509 12.395C91.579 12.535 91.614 12.6283 91.614 12.675C91.614 12.6983 91.614 12.7567 91.614 12.85C91.6373 12.9433 91.6607 13.0483 91.684 13.165C91.7073 13.2583 91.719 13.3517 91.719 13.445C91.7423 13.5383 91.754 13.5967 91.754 13.62C91.8007 13.69 91.8473 13.83 91.894 14.04C91.9407 14.25 91.964 14.3667 91.964 14.39C91.964 14.4367 91.9873 14.5417 92.034 14.705C92.104 14.845 92.139 14.9383 92.139 14.985C92.209 15.0783 92.3023 15.2417 92.419 15.475C92.5357 15.685 92.6523 15.9183 92.769 16.175C92.8857 16.4083 92.9907 16.63 93.084 16.84C93.2007 17.05 93.2823 17.1783 93.329 17.225C93.329 17.2717 93.399 17.4 93.539 17.61C93.679 17.7967 93.784 17.9133 93.854 17.96C93.9007 18.0067 93.9823 18.1 94.099 18.24C94.239 18.3567 94.379 18.485 94.519 18.625C94.659 18.765 94.7873 18.905 94.904 19.045C95.044 19.1617 95.149 19.2433 95.219 19.29C95.219 19.3367 95.289 19.4067 95.429 19.5C95.569 19.5933 95.674 19.6633 95.744 19.71C95.7907 19.7333 95.8607 19.7683 95.954 19.815C96.0473 19.8383 96.1173 19.85 96.164 19.85C96.2107 19.8967 96.3273 19.9433 96.514 19.99C96.7007 20.0367 96.8173 20.06 96.864 20.06H97.109H97.284C97.354 20.0367 97.4823 19.9783 97.669 19.885C97.879 19.7917 98.0073 19.7333 98.054 19.71C98.124 19.5933 98.194 19.4883 98.264 19.395C98.3107 19.3017 98.3573 19.2083 98.404 19.115C98.474 19.0217 98.5323 18.9517 98.579 18.905C98.6257 18.8583 98.7073 18.765 98.824 18.625C98.9407 18.485 98.999 18.3917 98.999 18.345C99.0223 18.2983 99.069 18.205 99.139 18.065C99.209 17.925 99.279 17.785 99.349 17.645C99.419 17.4817 99.489 17.33 99.559 17.19C99.629 17.0267 99.6757 16.9217 99.699 16.875C99.7457 16.8283 99.8273 16.6767 99.944 16.42C100.061 16.1633 100.119 16 100.119 15.93C100.142 15.8367 100.201 15.65 100.294 15.37C100.387 15.09 100.446 14.9033 100.469 14.81C100.516 14.6933 100.551 14.5417 100.574 14.355C100.621 14.1683 100.644 14.0633 100.644 14.04C100.644 14.0167 100.644 13.9583 100.644 13.865C100.667 13.7483 100.679 13.6317 100.679 13.515C100.702 13.3983 100.714 13.2817 100.714 13.165C100.737 13.0483 100.749 12.9667 100.749 12.92C100.749 12.85 100.737 12.7683 100.714 12.675C100.714 12.5583 100.702 12.4417 100.679 12.325C100.656 12.2083 100.644 12.0917 100.644 11.975C100.644 11.9283 100.597 11.8117 100.504 11.625C100.434 11.415 100.376 11.275 100.329 11.205C100.282 11.1583 100.212 11.0883 100.119 10.995C100.049 10.9017 99.9907 10.8317 99.944 10.785C99.8973 10.7383 99.769 10.68 99.559 10.61C99.3723 10.5167 99.244 10.4467 99.174 10.4C99.1273 10.4 98.999 10.3767 98.789 10.33C98.6023 10.2833 98.4857 10.26 98.439 10.26H97.739H97.109C97.109 10.3067 97.0973 10.4117 97.074 10.575C97.074 10.7383 97.0623 10.9133 97.039 11.1C97.0157 11.2633 96.9807 11.4383 96.934 11.625C96.9107 11.7883 96.8873 11.905 96.864 11.975L96.689 12.29C96.6657 12.2433 96.6307 12.1267 96.584 11.94C96.5607 11.73 96.549 11.6017 96.549 11.555C96.5023 11.4383 96.4557 11.2283 96.409 10.925C96.3623 10.5983 96.339 10.3767 96.339 10.26H95.849V11.975C95.6857 11.975 95.604 11.8933 95.604 11.73C95.5107 11.6133 95.4173 11.3683 95.324 10.995C95.254 10.6217 95.219 10.3767 95.219 10.26H94.974H94.799C94.7757 10.26 94.6473 10.2833 94.414 10.33C94.1807 10.3767 93.994 10.4 93.854 10.4C93.784 10.4467 93.644 10.4933 93.434 10.54C93.2473 10.5633 93.1307 10.5867 93.084 10.61C92.9907 10.61 92.804 10.6683 92.524 10.785C92.244 10.8783 92.0573 10.925 91.964 10.925C91.964 10.9483 91.9173 10.9833 91.824 11.03C91.7307 11.0767 91.6257 11.1233 91.509 11.17C91.4157 11.2167 91.3107 11.2633 91.194 11.31C91.1007 11.3333 91.0423 11.345 91.019 11.345C90.949 11.3917 90.7507 11.415 90.424 11.415C90.1207 11.415 89.899 11.415 89.759 11.415C89.759 11.3683 89.7707 11.2167 89.794 10.96C89.8407 10.68 89.864 10.4933 89.864 10.4C89.9107 10.3533 89.9457 10.295 89.969 10.225C89.9923 10.155 90.0273 10.0733 90.074 9.98C90.1673 9.91 90.3307 9.75833 90.564 9.525C90.7973 9.29167 90.949 9.12833 91.019 9.035C91.0423 9.035 91.1123 9 91.229 8.93C91.3457 8.86 91.4623 8.79 91.579 8.72C91.719 8.62667 91.8357 8.545 91.929 8.475C92.0457 8.405 92.1157 8.37 92.139 8.37C92.209 8.3 92.3373 8.17167 92.524 7.985C92.7107 7.79833 92.909 7.6 93.119 7.39C93.3523 7.15667 93.574 6.935 93.784 6.725C93.994 6.49167 94.1573 6.31667 94.274 6.2C94.3673 6.08333 94.4607 5.96667 94.554 5.85C94.694 5.64 94.834 5.44167 94.974 5.255C95.044 5.20833 95.1373 5.115 95.254 4.975C95.3707 4.835 95.4873 4.68333 95.604 4.52C95.7207 4.35667 95.8257 4.205 95.919 4.065C96.0357 3.925 96.1173 3.83167 96.164 3.785C96.1173 3.785 96.024 3.82 95.884 3.89C95.744 3.93667 95.6507 3.97167 95.604 3.995C95.3473 4.11167 94.904 4.29833 94.274 4.555C93.644 4.81167 92.9673 5.09167 92.244 5.395C91.544 5.69833 90.879 5.99 90.249 6.27C89.619 6.52667 89.1757 6.71333 88.919 6.83H87.974C87.9507 6.76 87.9273 6.70167 87.904 6.655C87.8573 6.56167 87.834 6.50333 87.834 6.48V6.2V6.06C87.8573 6.01333 87.8807 5.955 87.904 5.885C87.9507 5.79167 87.974 5.72167 87.974 5.675C88.0207 5.62833 88.0907 5.535 88.184 5.395C88.3007 5.255 88.359 5.16167 88.359 5.115C88.4057 5.06833 88.499 4.975 88.639 4.835C88.779 4.695 88.8723 4.61333 88.919 4.59C88.9657 4.54333 89.059 4.47333 89.199 4.38C89.3623 4.28667 89.479 4.21667 89.549 4.17C89.549 4.14667 89.5957 4.11167 89.689 4.065C89.7357 4.04167 89.794 4.01833 89.864 3.995C90.3307 3.80833 90.9723 3.54 91.789 3.19C92.629 2.84 93.4573 2.50167 94.274 2.175C95.114 1.825 95.849 1.52167 96.479 1.265C97.1323 1.00833 97.5173 0.856666 97.634 0.81C97.704 0.763332 97.8207 0.704998 97.984 0.634998C98.1707 0.564999 98.3573 0.506666 98.544 0.459998C98.7307 0.389999 98.9057 0.331666 99.069 0.284998C99.2323 0.214999 99.3373 0.18 99.384 0.18H99.699H100.119L100.329 0.389999V0.81V1.125C100.282 1.14833 100.212 1.265 100.119 1.475C100.049 1.685 99.9907 1.825 99.944 1.895C99.8973 1.94167 99.8273 2.035 99.734 2.175C99.6407 2.315 99.5707 2.39667 99.524 2.42C99.384 2.60667 99.139 2.93333 98.789 3.4C98.4623 3.84333 98.1007 4.32167 97.704 4.835C97.3307 5.325 96.969 5.79167 96.619 6.235C96.2923 6.67833 96.059 6.98167 95.919 7.145H99.524C99.5473 7.145 99.6057 7.15667 99.699 7.18C99.8157 7.20333 99.9323 7.22667 100.049 7.25C100.166 7.27333 100.282 7.30833 100.399 7.355C100.516 7.37833 100.597 7.40167 100.644 7.425C100.761 7.425 100.912 7.44833 101.099 7.495C101.286 7.54167 101.391 7.565 101.414 7.565C101.507 7.61167 101.647 7.68167 101.834 7.775C102.044 7.845 102.172 7.90333 102.219 7.95L103.164 8.895C103.164 8.94167 103.222 9.07 103.339 9.28C103.456 9.46667 103.537 9.595 103.584 9.665C103.584 9.71167 103.607 9.86333 103.654 10.12C103.701 10.3767 103.724 10.54 103.724 10.61V11.205V11.73C103.724 11.7767 103.701 11.9517 103.654 12.255C103.607 12.535 103.584 12.7567 103.584 12.92C103.537 12.9667 103.491 13.0833 103.444 13.27C103.397 13.4567 103.351 13.5733 103.304 13.62C103.304 13.7367 103.269 13.8883 103.199 14.075C103.152 14.2383 103.094 14.4133 103.024 14.6C102.977 14.7633 102.931 14.9267 102.884 15.09C102.837 15.23 102.802 15.3117 102.779 15.335C102.732 15.405 102.662 15.545 102.569 15.755C102.499 15.9417 102.417 16.1517 102.324 16.385C102.231 16.595 102.137 16.805 102.044 17.015C101.951 17.2017 101.881 17.33 101.834 17.4C101.811 17.4467 101.764 17.5283 101.694 17.645C101.624 17.7617 101.542 17.89 101.449 18.03C101.379 18.17 101.297 18.31 101.204 18.45C101.134 18.59 101.087 18.695 101.064 18.765C101.064 18.7883 101.006 18.87 100.889 19.01C100.772 19.15 100.691 19.2433 100.644 19.29C100.597 19.4067 100.504 19.5583 100.364 19.745C100.224 19.9317 100.142 20.0367 100.119 20.06C100.049 20.13 99.9323 20.2467 99.769 20.41C99.6057 20.5733 99.4307 20.7483 99.244 20.935C99.0807 21.0983 98.9173 21.2733 98.754 21.46C98.614 21.6233 98.509 21.74 98.439 21.81C98.4157 21.81 98.369 21.8333 98.299 21.88C98.229 21.9267 98.1473 21.985 98.054 22.055C97.9607 22.125 97.8673 22.195 97.774 22.265C97.704 22.3117 97.6573 22.3467 97.634 22.37C97.6107 22.37 97.5523 22.4283 97.459 22.545C97.3657 22.6383 97.3073 22.7083 97.284 22.755V25.38C97.284 25.4267 97.2723 25.5083 97.249 25.625C97.2257 25.765 97.2023 25.905 97.179 26.045C97.179 26.185 97.1673 26.3133 97.144 26.43C97.1207 26.57 97.109 26.6517 97.109 26.675L96.864 26.535C96.864 26.325 96.8523 26.115 96.829 25.905C96.8057 25.7183 96.7823 25.5433 96.759 25.38C96.7357 25.2167 96.7123 25.0767 96.689 24.96C96.689 24.9133 96.6773 24.7967 96.654 24.61C96.6307 24.4467 96.6073 24.26 96.584 24.05C96.584 23.84 96.5723 23.6417 96.549 23.455C96.549 23.2683 96.549 23.14 96.549 23.07Z" fill="#E72A70"/>
</svg>