<svg width="76" height="96" viewBox="0 0 76 96" fill="none" xmlns="http://www.w3.org/2000/svg">
<path d="M0 0H47.4219C51.0371 0 54.444 1.67802 56.629 4.53481L73.2865 26.3139C76.4193 30.4099 76.4193 36.0738 73.2865 40.1698L56.629 61.9489C54.444 64.8057 51.0371 66.4837 47.4219 66.4837H0L20.1259 40.1698C23.2586 36.0738 23.2586 30.4099 20.1259 26.3139L0 0Z" fill="#E72A70"/>
<path d="M6.93399 96C-2.31098 96 15.0237 77.7822 0 66.3176L20.802 57.3136C20.802 57.3136 15.0237 64.0698 12.7123 66.3624C2.31135 76.6788 15.1072 96 6.93399 96Z" fill="#E72A70"/>
<path d="M0 0H47.4219C51.0371 0 54.444 1.67802 56.629 4.53481L73.2865 26.3139C76.4193 30.4099 76.4193 36.0738 73.2865 40.1698L56.629 61.9489C54.444 64.8057 51.0371 66.4837 47.4219 66.4837H0L20.1259 40.1698C23.2586 36.0738 23.2586 30.4099 20.1259 26.3139L0 0Z" fill="#E72A70"/>
<path d="M6.93399 96C-2.31098 96 15.0237 77.7822 0 66.3176L20.802 57.3136C20.802 57.3136 15.0237 64.0698 12.7123 66.3624C2.31135 76.6788 15.1072 96 6.93399 96Z" fill="#E72A70"/>
</svg>