<svg width="76" height="79" viewBox="0 0 76 79" fill="none" xmlns="http://www.w3.org/2000/svg">
<path d="M0 0H47.4219C51.0371 0 54.444 1.67802 56.629 4.5348L73.2865 26.314C76.4193 30.4099 76.4193 36.0738 73.2865 40.1698L56.629 61.9489C54.444 64.8057 51.0371 66.4837 47.4219 66.4837H0L20.1259 40.1698C23.2587 36.0738 23.2587 30.4099 20.1259 26.314L0 0Z" fill="#E72A70"/>
<path d="M12.7123 78.9561C6.81957 78.9562 18.4906 65.2035 9.24532 62.909C10.5854 50.8933 24.1549 61.7999 20.802 62.9084C6.93399 67.4935 20.802 78.9561 12.7123 78.9561Z" fill="#E72A70"/>
<path d="M0 0H47.4219C51.0371 0 54.444 1.67802 56.629 4.5348L73.2865 26.314C76.4193 30.4099 76.4193 36.0738 73.2865 40.1698L56.629 61.9489C54.444 64.8057 51.0371 66.4837 47.4219 66.4837H0L20.1259 40.1698C23.2587 36.0738 23.2587 30.4099 20.1259 26.314L0 0Z" fill="#E72A70"/>
<path d="M12.7123 78.9561C6.81957 78.9562 18.4906 65.2035 9.24532 62.909C10.5854 50.8933 24.1549 61.7999 20.802 62.9084C6.93399 67.4935 20.802 78.9561 12.7123 78.9561Z" fill="#E72A70"/>
</svg>