<svg width="1333" height="96" viewBox="0 0 1333 96" fill="none" xmlns="http://www.w3.org/2000/svg">
<path d="M0 0H47.4219C51.0371 0 54.444 1.67802 56.629 4.5348L73.2865 26.314C76.4193 30.4099 76.4193 36.0738 73.2865 40.1698L56.629 61.9489C54.444 64.8057 51.0371 66.4837 47.4219 66.4837H0L20.1259 40.1698C23.2587 36.0738 23.2587 30.4099 20.1259 26.314L0 0Z" fill="#E72A70"/>
<path d="M392.926 0H440.348C443.963 0 447.37 1.67802 449.555 4.5348L466.213 26.314C469.346 30.4099 469.346 36.0738 466.213 40.1698L449.555 61.9489C447.37 64.8057 443.963 66.4837 440.348 66.4837H392.926L413.052 40.1698C416.185 36.0738 416.185 30.4099 413.052 26.314L392.926 0Z" fill="#E72A70"/>
<path d="M314.341 0H361.763C365.378 0 368.785 1.67802 370.97 4.5348L387.628 26.314C390.76 30.4099 390.76 36.0738 387.628 40.1698L370.97 61.9489C368.785 64.8057 365.378 66.4837 361.763 66.4837H314.341L334.467 40.1698C337.6 36.0738 337.6 30.4099 334.467 26.314L314.341 0Z" fill="#E72A70"/>
<path d="M550.097 0H597.519C601.134 0 604.541 1.67802 606.726 4.5348L623.383 26.314C626.516 30.4099 626.516 36.0738 623.383 40.1698L606.726 61.9489C604.541 64.8057 601.134 66.4837 597.519 66.4837H550.097L570.223 40.1698C573.355 36.0738 573.355 30.4099 570.223 26.314L550.097 0Z" fill="#E72A70"/>
<path d="M157.17 0H204.592C208.208 0 211.615 1.67802 213.799 4.5348L230.457 26.314C233.59 30.4099 233.59 36.0738 230.457 40.1698L213.799 61.9489C211.615 64.8057 208.208 66.4837 204.592 66.4837H157.17L177.296 40.1698C180.429 36.0738 180.429 30.4099 177.296 26.314L157.17 0Z" fill="#E72A70"/>
<path d="M169.883 78.9561C163.99 78.9562 175.661 65.2035 166.416 62.909C167.756 50.8933 181.325 61.7999 177.972 62.9084C164.104 67.4935 177.972 78.9561 169.883 78.9561Z" fill="#E72A70"/>
<path d="M78.5852 0H126.007C129.622 0 133.029 1.67802 135.214 4.5348L151.872 26.314C155.005 30.4099 155.005 36.0738 151.872 40.1698L135.214 61.9489C133.029 64.8057 129.622 66.4837 126.007 66.4837H78.5852L98.7112 40.1698C101.844 36.0738 101.844 30.4099 98.7112 26.314L78.5852 0Z" fill="#E72A70"/>
<path d="M100.543 82.5315C94.6501 82.5315 106.321 68.7789 97.0759 66.4844C98.4159 54.4687 111.986 65.3753 108.633 66.4838C94.7646 71.0688 108.633 82.5315 100.543 82.5315Z" fill="#E72A70"/>
<path d="M124.812 95.9989C115.567 95.9989 132.902 77.781 117.878 66.3165L138.68 57.3124C138.68 57.3124 132.902 64.0687 130.59 66.3613C120.189 76.6777 132.985 95.9989 124.812 95.9989Z" fill="#E72A70"/>
<path d="M471.511 0H518.933C522.549 0 525.956 1.67802 528.14 4.5348L544.798 26.314C547.931 30.4099 547.931 36.0738 544.798 40.1698L528.14 61.9489C525.956 64.8057 522.549 66.4837 518.933 66.4837H471.511L491.637 40.1698C494.77 36.0738 494.77 30.4099 491.637 26.314L471.511 0Z" fill="#E72A70"/>
<path d="M493.469 82.5315C487.576 82.5315 499.247 68.7789 490.002 66.4844C491.342 54.4687 504.912 65.3753 501.559 66.4838C487.691 71.0688 501.559 82.5315 493.469 82.5315Z" fill="#E72A70"/>
<path d="M517.738 95.9989C508.493 95.9989 525.828 77.781 510.804 66.3165L531.606 57.3124C531.606 57.3124 525.828 64.0687 523.516 66.3613C513.115 76.6777 525.911 95.9989 517.738 95.9989Z" fill="#E72A70"/>
<path d="M235.756 0H283.178C286.793 0 290.2 1.67802 292.385 4.5348L309.042 26.314C312.175 30.4099 312.175 36.0738 309.042 40.1698L292.385 61.9489C290.2 64.8057 286.793 66.4837 283.178 66.4837H235.756L255.882 40.1698C259.014 36.0738 259.014 30.4099 255.882 26.314L235.756 0Z" fill="#E72A70"/>
<path d="M242.69 96C233.445 96 250.779 77.7821 235.756 66.3176L256.558 57.3136C256.558 57.3136 250.779 64.0698 248.468 66.3624C238.067 76.6788 250.863 96 242.69 96Z" fill="#E72A70"/>
<path d="M628.682 0H676.104C679.719 0 683.126 1.67802 685.311 4.5348L701.968 26.314C705.101 30.4099 705.101 36.0738 701.968 40.1698L685.311 61.9489C683.126 64.8057 679.719 66.4837 676.104 66.4837H628.682L648.808 40.1698C651.941 36.0738 651.941 30.4099 648.808 26.314L628.682 0Z" fill="#E72A70"/>
<path d="M635.616 96C626.371 96 643.706 77.7821 628.682 66.3176L649.484 57.3136C649.484 57.3136 643.706 64.0698 641.394 66.3624C630.993 76.6788 643.789 96 635.616 96Z" fill="#E72A70"/>
<path d="M707.267 0H754.689C758.304 0 761.711 1.67802 763.896 4.5348L780.554 26.314C783.686 30.4099 783.686 36.0738 780.554 40.1698L763.896 61.9489C761.711 64.8057 758.304 66.4837 754.689 66.4837H707.267L727.393 40.1698C730.526 36.0738 730.526 30.4099 727.393 26.314L707.267 0Z" fill="#E72A70"/>
<path d="M1100.19 0H1147.62C1151.23 0 1154.64 1.67802 1156.82 4.5348L1173.48 26.314C1176.61 30.4099 1176.61 36.0738 1173.48 40.1698L1156.82 61.9489C1154.64 64.8057 1151.23 66.4837 1147.62 66.4837H1100.19L1120.32 40.1698C1123.45 36.0738 1123.45 30.4099 1120.32 26.314L1100.19 0Z" fill="#E72A70"/>
<path d="M1021.61 0H1069.03C1072.65 0 1076.05 1.67802 1078.24 4.5348L1094.89 26.314C1098.03 30.4099 1098.03 36.0738 1094.89 40.1698L1078.24 61.9489C1076.05 64.8057 1072.65 66.4837 1069.03 66.4837H1021.61L1041.73 40.1698C1044.87 36.0738 1044.87 30.4099 1041.73 26.314L1021.61 0Z" fill="#E72A70"/>
<path d="M1257.36 0H1304.79C1308.4 0 1311.81 1.67802 1313.99 4.5348L1330.65 26.314C1333.78 30.4099 1333.78 36.0738 1330.65 40.1698L1313.99 61.9489C1311.81 64.8057 1308.4 66.4837 1304.79 66.4837H1257.36L1277.49 40.1698C1280.62 36.0738 1280.62 30.4099 1277.49 26.314L1257.36 0Z" fill="#E72A70"/>
<path d="M864.438 0H911.86C915.475 0 918.882 1.67802 921.067 4.5348L937.724 26.314C940.857 30.4099 940.857 36.0738 937.724 40.1698L921.067 61.9489C918.882 64.8057 915.475 66.4837 911.86 66.4837H864.438L884.564 40.1698C887.696 36.0738 887.696 30.4099 884.564 26.314L864.438 0Z" fill="#E72A70"/>
<path d="M877.15 78.9561C871.257 78.9562 882.928 65.2035 873.683 62.909C875.023 50.8933 888.593 61.7999 885.24 62.9084C871.372 67.4935 885.24 78.9561 877.15 78.9561Z" fill="#E72A70"/>
<path d="M785.852 0H833.274C836.89 0 840.297 1.67802 842.481 4.5348L859.139 26.314C862.272 30.4099 862.272 36.0738 859.139 40.1698L842.481 61.9489C840.297 64.8057 836.89 66.4837 833.274 66.4837H785.852L805.978 40.1698C809.111 36.0738 809.111 30.4099 805.978 26.314L785.852 0Z" fill="#E72A70"/>
<path d="M807.81 82.5315C801.917 82.5315 813.588 68.7789 804.343 66.4844C805.683 54.4687 819.253 65.3753 815.9 66.4838C802.032 71.0688 815.9 82.5315 807.81 82.5315Z" fill="#E72A70"/>
<path d="M832.079 95.9989C822.834 95.9989 840.169 77.781 825.145 66.3165L845.947 57.3124C845.947 57.3124 840.169 64.0687 837.857 66.3613C827.456 76.6777 840.252 95.9989 832.079 95.9989Z" fill="#E72A70"/>
<path d="M1178.78 0H1226.2C1229.82 0 1233.22 1.67802 1235.41 4.5348L1252.07 26.314C1255.2 30.4099 1255.2 36.0738 1252.07 40.1698L1235.41 61.9489C1233.22 64.8057 1229.82 66.4837 1226.2 66.4837H1178.78L1198.9 40.1698C1202.04 36.0738 1202.04 30.4099 1198.9 26.314L1178.78 0Z" fill="#E72A70"/>
<path d="M1200.74 82.5315C1194.84 82.5315 1206.51 68.7789 1197.27 66.4844C1198.61 54.4687 1212.18 65.3753 1208.83 66.4838C1194.96 71.0688 1208.83 82.5315 1200.74 82.5315Z" fill="#E72A70"/>
<path d="M1225.01 95.9989C1215.76 95.9989 1233.09 77.781 1218.07 66.3165L1238.87 57.3124C1238.87 57.3124 1233.09 64.0687 1230.78 66.3613C1220.38 76.6777 1233.18 95.9989 1225.01 95.9989Z" fill="#E72A70"/>
<path d="M943.023 0H990.445C994.06 0 997.467 1.67802 999.652 4.5348L1016.31 26.314C1019.44 30.4099 1019.44 36.0738 1016.31 40.1698L999.652 61.9489C997.467 64.8057 994.06 66.4837 990.445 66.4837H943.023L963.149 40.1698C966.282 36.0738 966.282 30.4099 963.149 26.314L943.023 0Z" fill="#E72A70"/>
<path d="M949.957 96C940.712 96 958.047 77.7821 943.023 66.3176L963.825 57.3136C963.825 57.3136 958.047 64.0698 955.735 66.3624C945.334 76.6788 958.13 96 949.957 96Z" fill="#E72A70"/>
<path d="M0 0H47.4219C51.0371 0 54.444 1.67802 56.629 4.5348L73.2865 26.314C76.4193 30.4099 76.4193 36.0738 73.2865 40.1698L56.629 61.9489C54.444 64.8057 51.0371 66.4837 47.4219 66.4837H0L20.1259 40.1698C23.2587 36.0738 23.2587 30.4099 20.1259 26.314L0 0Z" fill="#E72A70"/>
<path d="M392.926 0H440.348C443.963 0 447.37 1.67802 449.555 4.5348L466.213 26.314C469.346 30.4099 469.346 36.0738 466.213 40.1698L449.555 61.9489C447.37 64.8057 443.963 66.4837 440.348 66.4837H392.926L413.052 40.1698C416.185 36.0738 416.185 30.4099 413.052 26.314L392.926 0Z" fill="#E72A70"/>
<path d="M314.341 0H361.763C365.378 0 368.785 1.67802 370.97 4.5348L387.628 26.314C390.76 30.4099 390.76 36.0738 387.628 40.1698L370.97 61.9489C368.785 64.8057 365.378 66.4837 361.763 66.4837H314.341L334.467 40.1698C337.6 36.0738 337.6 30.4099 334.467 26.314L314.341 0Z" fill="#E72A70"/>
<path d="M550.097 0H597.519C601.134 0 604.541 1.67802 606.726 4.5348L623.383 26.314C626.516 30.4099 626.516 36.0738 623.383 40.1698L606.726 61.9489C604.541 64.8057 601.134 66.4837 597.519 66.4837H550.097L570.223 40.1698C573.355 36.0738 573.355 30.4099 570.223 26.314L550.097 0Z" fill="#E72A70"/>
<path d="M157.17 0H204.592C208.208 0 211.615 1.67802 213.799 4.5348L230.457 26.314C233.59 30.4099 233.59 36.0738 230.457 40.1698L213.799 61.9489C211.615 64.8057 208.208 66.4837 204.592 66.4837H157.17L177.296 40.1698C180.429 36.0738 180.429 30.4099 177.296 26.314L157.17 0Z" fill="#E72A70"/>
<path d="M169.883 78.9561C163.99 78.9562 175.661 65.2035 166.416 62.909C167.756 50.8933 181.325 61.7999 177.972 62.9084C164.104 67.4935 177.972 78.9561 169.883 78.9561Z" fill="#E72A70"/>
<path d="M78.5852 0H126.007C129.622 0 133.029 1.67802 135.214 4.5348L151.872 26.314C155.005 30.4099 155.005 36.0738 151.872 40.1698L135.214 61.9489C133.029 64.8057 129.622 66.4837 126.007 66.4837H78.5852L98.7112 40.1698C101.844 36.0738 101.844 30.4099 98.7112 26.314L78.5852 0Z" fill="#E72A70"/>
<path d="M100.543 82.5315C94.6501 82.5315 106.321 68.7789 97.0759 66.4844C98.4159 54.4687 111.986 65.3753 108.633 66.4838C94.7646 71.0688 108.633 82.5315 100.543 82.5315Z" fill="#E72A70"/>
<path d="M124.812 95.9989C115.567 95.9989 132.902 77.781 117.878 66.3165L138.68 57.3124C138.68 57.3124 132.902 64.0687 130.59 66.3613C120.189 76.6777 132.985 95.9989 124.812 95.9989Z" fill="#E72A70"/>
<path d="M471.511 0H518.933C522.549 0 525.956 1.67802 528.14 4.5348L544.798 26.314C547.931 30.4099 547.931 36.0738 544.798 40.1698L528.14 61.9489C525.956 64.8057 522.549 66.4837 518.933 66.4837H471.511L491.637 40.1698C494.77 36.0738 494.77 30.4099 491.637 26.314L471.511 0Z" fill="#E72A70"/>
<path d="M493.469 82.5315C487.576 82.5315 499.247 68.7789 490.002 66.4844C491.342 54.4687 504.912 65.3753 501.559 66.4838C487.691 71.0688 501.559 82.5315 493.469 82.5315Z" fill="#E72A70"/>
<path d="M517.738 95.9989C508.493 95.9989 525.828 77.781 510.804 66.3165L531.606 57.3124C531.606 57.3124 525.828 64.0687 523.516 66.3613C513.115 76.6777 525.911 95.9989 517.738 95.9989Z" fill="#E72A70"/>
<path d="M235.756 0H283.178C286.793 0 290.2 1.67802 292.385 4.5348L309.042 26.314C312.175 30.4099 312.175 36.0738 309.042 40.1698L292.385 61.9489C290.2 64.8057 286.793 66.4837 283.178 66.4837H235.756L255.882 40.1698C259.014 36.0738 259.014 30.4099 255.882 26.314L235.756 0Z" fill="#E72A70"/>
<path d="M242.69 96C233.445 96 250.779 77.7821 235.756 66.3176L256.558 57.3136C256.558 57.3136 250.779 64.0698 248.468 66.3624C238.067 76.6788 250.863 96 242.69 96Z" fill="#E72A70"/>
<path d="M628.682 0H676.104C679.719 0 683.126 1.67802 685.311 4.5348L701.968 26.314C705.101 30.4099 705.101 36.0738 701.968 40.1698L685.311 61.9489C683.126 64.8057 679.719 66.4837 676.104 66.4837H628.682L648.808 40.1698C651.941 36.0738 651.941 30.4099 648.808 26.314L628.682 0Z" fill="#E72A70"/>
<path d="M635.616 96C626.371 96 643.706 77.7821 628.682 66.3176L649.484 57.3136C649.484 57.3136 643.706 64.0698 641.394 66.3624C630.993 76.6788 643.789 96 635.616 96Z" fill="#E72A70"/>
<path d="M707.267 0H754.689C758.304 0 761.711 1.67802 763.896 4.5348L780.554 26.314C783.686 30.4099 783.686 36.0738 780.554 40.1698L763.896 61.9489C761.711 64.8057 758.304 66.4837 754.689 66.4837H707.267L727.393 40.1698C730.526 36.0738 730.526 30.4099 727.393 26.314L707.267 0Z" fill="#E72A70"/>
<path d="M1100.19 0H1147.62C1151.23 0 1154.64 1.67802 1156.82 4.5348L1173.48 26.314C1176.61 30.4099 1176.61 36.0738 1173.48 40.1698L1156.82 61.9489C1154.64 64.8057 1151.23 66.4837 1147.62 66.4837H1100.19L1120.32 40.1698C1123.45 36.0738 1123.45 30.4099 1120.32 26.314L1100.19 0Z" fill="#E72A70"/>
<path d="M1021.61 0H1069.03C1072.65 0 1076.05 1.67802 1078.24 4.5348L1094.89 26.314C1098.03 30.4099 1098.03 36.0738 1094.89 40.1698L1078.24 61.9489C1076.05 64.8057 1072.65 66.4837 1069.03 66.4837H1021.61L1041.73 40.1698C1044.87 36.0738 1044.87 30.4099 1041.73 26.314L1021.61 0Z" fill="#E72A70"/>
<path d="M1257.36 0H1304.79C1308.4 0 1311.81 1.67802 1313.99 4.5348L1330.65 26.314C1333.78 30.4099 1333.78 36.0738 1330.65 40.1698L1313.99 61.9489C1311.81 64.8057 1308.4 66.4837 1304.79 66.4837H1257.36L1277.49 40.1698C1280.62 36.0738 1280.62 30.4099 1277.49 26.314L1257.36 0Z" fill="#E72A70"/>
<path d="M864.438 0H911.86C915.475 0 918.882 1.67802 921.067 4.5348L937.724 26.314C940.857 30.4099 940.857 36.0738 937.724 40.1698L921.067 61.9489C918.882 64.8057 915.475 66.4837 911.86 66.4837H864.438L884.564 40.1698C887.696 36.0738 887.696 30.4099 884.564 26.314L864.438 0Z" fill="#E72A70"/>
<path d="M877.15 78.9561C871.257 78.9562 882.928 65.2035 873.683 62.909C875.023 50.8933 888.593 61.7999 885.24 62.9084C871.372 67.4935 885.24 78.9561 877.15 78.9561Z" fill="#E72A70"/>
<path d="M785.852 0H833.274C836.89 0 840.297 1.67802 842.481 4.5348L859.139 26.314C862.272 30.4099 862.272 36.0738 859.139 40.1698L842.481 61.9489C840.297 64.8057 836.89 66.4837 833.274 66.4837H785.852L805.978 40.1698C809.111 36.0738 809.111 30.4099 805.978 26.314L785.852 0Z" fill="#E72A70"/>
<path d="M807.81 82.5315C801.917 82.5315 813.588 68.7789 804.343 66.4844C805.683 54.4687 819.253 65.3753 815.9 66.4838C802.032 71.0688 815.9 82.5315 807.81 82.5315Z" fill="#E72A70"/>
<path d="M832.079 95.9989C822.834 95.9989 840.169 77.781 825.145 66.3165L845.947 57.3124C845.947 57.3124 840.169 64.0687 837.857 66.3613C827.456 76.6777 840.252 95.9989 832.079 95.9989Z" fill="#E72A70"/>
<path d="M1178.78 0H1226.2C1229.82 0 1233.22 1.67802 1235.41 4.5348L1252.07 26.314C1255.2 30.4099 1255.2 36.0738 1252.07 40.1698L1235.41 61.9489C1233.22 64.8057 1229.82 66.4837 1226.2 66.4837H1178.78L1198.9 40.1698C1202.04 36.0738 1202.04 30.4099 1198.9 26.314L1178.78 0Z" fill="#E72A70"/>
<path d="M1200.74 82.5315C1194.84 82.5315 1206.51 68.7789 1197.27 66.4844C1198.61 54.4687 1212.18 65.3753 1208.83 66.4838C1194.96 71.0688 1208.83 82.5315 1200.74 82.5315Z" fill="#E72A70"/>
<path d="M1225.01 95.9989C1215.76 95.9989 1233.09 77.781 1218.07 66.3165L1238.87 57.3124C1238.87 57.3124 1233.09 64.0687 1230.78 66.3613C1220.38 76.6777 1233.18 95.9989 1225.01 95.9989Z" fill="#E72A70"/>
<path d="M943.023 0H990.445C994.06 0 997.467 1.67802 999.652 4.5348L1016.31 26.314C1019.44 30.4099 1019.44 36.0738 1016.31 40.1698L999.652 61.9489C997.467 64.8057 994.06 66.4837 990.445 66.4837H943.023L963.149 40.1698C966.282 36.0738 966.282 30.4099 963.149 26.314L943.023 0Z" fill="#E72A70"/>
<path d="M949.957 96C940.712 96 958.047 77.7821 943.023 66.3176L963.825 57.3136C963.825 57.3136 958.047 64.0698 955.735 66.3624C945.334 76.6788 958.13 96 949.957 96Z" fill="#E72A70"/>
</svg>