<svg width="76" height="67" viewBox="0 0 76 67" fill="none" xmlns="http://www.w3.org/2000/svg">
<path d="M0 0H47.4219C51.0371 0 54.444 1.67802 56.629 4.5348L73.2865 26.314C76.4193 30.4099 76.4193 36.0738 73.2865 40.1698L56.629 61.9489C54.444 64.8057 51.0371 66.4837 47.4219 66.4837H0L20.1259 40.1698C23.2587 36.0738 23.2587 30.4099 20.1259 26.314L0 0Z" fill="#E72A70"/>
<path d="M0 0H47.4219C51.0371 0 54.444 1.67802 56.629 4.5348L73.2865 26.314C76.4193 30.4099 76.4193 36.0738 73.2865 40.1698L56.629 61.9489C54.444 64.8057 51.0371 66.4837 47.4219 66.4837H0L20.1259 40.1698C23.2587 36.0738 23.2587 30.4099 20.1259 26.314L0 0Z" fill="#E72A70"/>
</svg>