<svg width="76" height="96" viewBox="0 0 76 96" fill="none" xmlns="http://www.w3.org/2000/svg">
<path d="M47.4219 66.4837H39.5089C47.9921 73.1322 45.8105 81.986 44.2652 88.257C43.1438 92.8081 42.3576 95.9989 46.2266 95.9989C49.9259 95.9989 49.3296 92.0409 48.5326 86.7513C47.5688 80.3538 46.3115 72.0084 52.005 66.3613C52.4244 65.9452 52.9581 65.3821 53.5506 64.7391C51.7359 65.8649 49.6173 66.4837 47.4219 66.4837Z" fill="#E72A70"/>
<path fill-rule="evenodd" clip-rule="evenodd" d="M30.0473 66.4838C30.0474 66.4838 30.0472 66.4839 30.0473 66.4838ZM18.4906 66.4844C18.4907 66.4842 18.4906 66.4846 18.4906 66.4844Z" fill="#E72A70"/>
<path d="M60.0946 57.3124C46.3776 46.6898 40.4606 45.217 39.2926 66.3165C39.3655 66.3721 39.4376 66.4278 39.5089 66.4837H47.4219C49.6173 66.4837 51.7359 65.8649 53.5506 64.7391C56.2233 61.839 60.0946 57.3124 60.0946 57.3124Z" fill="#E72A70"/>
<path d="M47.4219 0H0L20.1259 26.314C23.2587 30.4099 23.2587 36.0738 20.1259 40.1698L0 66.4837L18.4906 66.4844C19.8311 54.4701 33.3991 65.3747 30.0473 66.4838L39.5089 66.4837C39.4376 66.4278 39.3655 66.3721 39.2926 66.3165C40.4606 45.217 46.3776 46.6898 60.0946 57.3124C60.0946 57.3124 56.2233 61.839 53.5506 64.7391C54.7243 64.011 55.7709 63.0709 56.629 61.9489L73.2865 40.1698C76.4193 36.0738 76.4193 30.4099 73.2865 26.314L56.629 4.5348C54.444 1.67802 51.0371 0 47.4219 0Z" fill="#E72A70"/>
<path fill-rule="evenodd" clip-rule="evenodd" d="M21.9576 82.5315C19.3925 82.5315 20.1555 79.9256 21.0726 76.7933C22.2623 72.7297 23.7115 67.7801 18.4906 66.4844C18.4907 66.4842 18.4906 66.4846 18.4906 66.4844L30.0473 66.4838C30.0474 66.4838 30.0472 66.4839 30.0473 66.4838C22.0505 69.1277 23.2762 74.0585 24.1963 77.7597C24.8718 80.477 25.3825 82.5315 21.9576 82.5315Z" fill="#E72A70"/>
<path d="M18.4906 66.4844C19.8315 54.4715 33.3979 65.3742 30.0473 66.4838L18.4906 66.4844Z" fill="#E72A70"/>
</svg>