<svg width="81" height="59" viewBox="0 0 81 59" fill="none" xmlns="http://www.w3.org/2000/svg">
<path d="M2.73875 40.6898C2.64542 40.6898 2.43542 40.7365 2.10875 40.8298C1.82875 40.9231 1.64208 40.9698 1.54875 40.9698C1.50208 40.9231 1.36208 40.8065 1.12875 40.6198C0.942083 40.4331 0.84875 40.3165 0.84875 40.2698V35.8598V31.5198C0.84875 31.1931 0.84875 30.3765 0.84875 29.0698C0.895417 27.7165 0.942083 26.1298 0.98875 24.3098C1.03542 22.4898 1.08208 20.5298 1.12875 18.4298C1.22208 16.3298 1.29208 14.3698 1.33875 12.5498C1.38542 10.7298 1.43208 9.14314 1.47875 7.7898C1.52542 6.43647 1.54875 5.59647 1.54875 5.2698C1.64208 5.1298 1.82875 4.7798 2.10875 4.2198C2.43542 3.61314 2.64542 3.2398 2.73875 3.0998C2.73875 3.00647 2.87875 2.8198 3.15875 2.5398C3.48542 2.21314 3.69542 2.00314 3.78875 1.9098C3.88208 1.86314 4.06875 1.74647 4.34875 1.5598C4.62875 1.37313 4.81542 1.25647 4.90875 1.2098C5.04875 1.0698 5.18875 0.953137 5.32875 0.859802C5.42208 0.76647 5.53875 0.69647 5.67875 0.649801H6.30875H6.79875C6.89208 0.649801 6.98542 0.719802 7.07875 0.859802C7.17208 0.999803 7.21875 1.11647 7.21875 1.2098C7.21875 1.25647 7.26542 1.4198 7.35875 1.6998C7.49875 1.9798 7.56875 2.16647 7.56875 2.2598V3.0998V3.7998C7.56875 3.89314 7.54542 4.10314 7.49875 4.4298C7.45208 4.7098 7.40542 5.01314 7.35875 5.3398C7.35875 5.66647 7.33542 5.99314 7.28875 6.3198C7.24208 6.5998 7.21875 6.78647 7.21875 6.8798C7.21875 7.2998 7.19542 8.2798 7.14875 9.8198C7.10208 11.3131 7.03208 13.1098 6.93875 15.2098C6.89208 17.2631 6.82208 19.4798 6.72875 21.8598C6.63542 24.1931 6.54208 26.4098 6.44875 28.5098C6.40208 30.5631 6.33208 32.3598 6.23875 33.8998C6.19208 35.3931 6.16875 36.3498 6.16875 36.7698C6.07542 36.9565 5.98208 37.1898 5.88875 37.4698C5.84208 37.7498 5.77208 37.9365 5.67875 38.0298C5.53875 38.1698 5.42208 38.3331 5.32875 38.5198C5.04875 38.8931 4.90875 39.0798 4.90875 39.0798C4.90875 39.1731 4.86208 39.3131 4.76875 39.4998C4.67542 39.6865 4.62875 39.8265 4.62875 39.9198C4.62875 40.1065 4.60542 40.4331 4.55875 40.8998C4.51208 41.4131 4.46542 41.9498 4.41875 42.5098C4.41875 43.0698 4.39542 43.5831 4.34875 44.0498C4.30208 44.5631 4.27875 44.9131 4.27875 45.0998C4.23208 45.3331 4.16208 45.6598 4.06875 46.0798C4.02208 46.4998 3.97542 46.9198 3.92875 47.3398C3.88208 47.8065 3.83542 48.2265 3.78875 48.5998C3.78875 48.9731 3.78875 49.2298 3.78875 49.3698C3.78875 49.4631 3.71875 49.8131 3.57875 50.4198C3.48542 51.0265 3.43875 51.4231 3.43875 51.6098C3.43875 51.6565 3.39208 51.8898 3.29875 52.3098C3.20542 52.7298 3.11208 53.0098 3.01875 53.1498C3.01875 53.2431 2.97208 53.4298 2.87875 53.7098C2.78542 53.9898 2.73875 54.1531 2.73875 54.1998V40.6898ZM24.3819 53.9898C24.3352 53.9898 24.1485 53.8965 23.8219 53.7098C23.5419 53.5698 23.3085 53.4998 23.1219 53.4998C22.9819 53.5465 22.8652 53.5931 22.7719 53.6398C22.5852 53.7331 22.4919 53.8498 22.4919 53.9898H22.2119H22.0719C22.0719 53.8965 21.9552 53.7331 21.7219 53.4998C21.4885 53.2665 21.3252 53.1498 21.2319 53.1498C21.2319 53.1031 20.9985 53.0098 20.5319 52.8698C20.1119 52.7298 19.8319 52.5898 19.6919 52.4498C19.5985 52.4498 19.4352 52.3798 19.2019 52.2398C18.9685 52.0998 18.8052 51.9831 18.7119 51.8898C18.6185 51.8431 18.4319 51.7265 18.1519 51.5398C17.9185 51.3998 17.6852 51.2365 17.4519 51.0498C17.2185 50.9098 17.0085 50.7698 16.8219 50.6298C16.6352 50.4898 16.5419 50.3965 16.5419 50.3498C16.4485 50.2565 16.2619 50.0231 15.9819 49.6498C15.7019 49.3231 15.3985 48.9498 15.0719 48.5298C14.7452 48.1098 14.4419 47.7131 14.1619 47.3398C13.9285 46.9665 13.7652 46.7098 13.6719 46.5698C13.6252 46.3831 13.4619 45.9398 13.1819 45.2398C12.9019 44.5398 12.7152 44.0265 12.6219 43.6998C12.5752 43.5598 12.5052 43.3265 12.4119 42.9998C12.3652 42.7198 12.2952 42.4165 12.2019 42.0898C12.1552 41.8098 12.1085 41.5531 12.0619 41.3198C12.0152 41.0865 11.9919 40.9465 11.9919 40.8998V40.4798C11.9919 40.2465 12.0385 40.0365 12.1319 39.8498C12.1319 39.6631 12.1552 39.4298 12.2019 39.1498C12.2952 38.8231 12.3419 38.6365 12.3419 38.5898L12.4819 38.3098C12.5752 38.1231 12.6685 38.0298 12.7619 38.0298C12.8085 37.9831 12.9485 37.8898 13.1819 37.7498C13.4152 37.5631 13.6719 37.3998 13.9519 37.2598C14.2319 37.0731 14.4652 36.9098 14.6519 36.7698C14.8852 36.6298 15.0485 36.5365 15.1419 36.4898C15.1419 36.3965 15.3052 36.2798 15.6319 36.1398C15.9585 35.9531 16.1452 35.8598 16.1919 35.8598C16.2385 35.7665 16.2852 35.6965 16.3319 35.6498C16.4719 35.5098 16.5419 35.4398 16.5419 35.4398C16.3552 35.4398 16.0052 35.3231 15.4919 35.0898C15.0252 34.8565 14.6985 34.6931 14.5119 34.5998C14.3719 34.3665 14.0219 34.0398 13.4619 33.6198C12.9485 33.1998 12.5985 32.9665 12.4119 32.9198C12.1319 32.6865 11.8985 32.4531 11.7119 32.2198C11.3385 31.8465 11.0119 31.4731 10.7319 31.0998C10.6852 31.0531 10.6385 30.9831 10.5919 30.8898C10.5452 30.7965 10.5219 30.6565 10.5219 30.4698C10.3819 30.3298 10.1485 30.0031 9.82188 29.4898C9.54188 28.9765 9.35521 28.6731 9.26188 28.5798C9.21521 28.4398 9.07521 28.1365 8.84188 27.6698C8.65521 27.2031 8.56188 26.8765 8.56188 26.6898C8.46854 26.5498 8.35187 26.1765 8.21187 25.5698C8.07187 24.9631 8.00187 24.5665 8.00187 24.3798C8.00187 24.2398 8.00187 23.9831 8.00187 23.6098C7.95521 23.2365 7.93187 23.0031 7.93187 22.9098C7.93187 22.9098 7.95521 22.7698 8.00187 22.4898C8.04854 22.2098 8.11854 21.9065 8.21187 21.5798C8.25854 21.2065 8.32854 20.8565 8.42188 20.5298C8.46854 20.1565 8.51521 19.8765 8.56188 19.6898C8.56188 19.2698 8.60854 18.7331 8.70188 18.0798C8.79521 17.4265 8.84188 17.0531 8.84188 16.9598C8.84188 16.8665 8.98188 16.5865 9.26188 16.1198C9.54188 15.6531 9.75188 15.3031 9.89188 15.0698C10.0785 14.8831 10.3352 14.5098 10.6619 13.9498C11.0352 13.3898 11.3152 12.9931 11.5019 12.7598C11.5952 12.6665 11.7585 12.5031 11.9919 12.2698C12.2252 12.0365 12.3652 11.8731 12.4119 11.7798C12.5519 11.6398 12.8085 11.4531 13.1819 11.2198C13.6019 10.9398 14.0219 10.6598 14.4419 10.3798C14.8619 10.0998 15.2352 9.84314 15.5619 9.6098C15.8885 9.3298 16.0985 9.14314 16.1919 9.0498C16.2852 9.00314 16.6352 8.8398 17.2419 8.5598C17.8485 8.23314 18.3385 7.97647 18.7119 7.7898H19.0619C19.1552 7.7898 19.2252 7.7898 19.2719 7.7898C19.3652 7.74314 19.4585 7.7198 19.5519 7.7198C19.7385 7.7198 20.0885 7.62647 20.6019 7.4398C21.1619 7.25314 21.4885 7.1598 21.5819 7.1598C21.7219 7.11314 22.0019 7.11314 22.4219 7.1598C22.8419 7.1598 23.0752 7.13647 23.1219 7.0898C23.2619 7.0898 23.4952 7.0898 23.8219 7.0898C24.1952 7.0898 24.5685 7.11314 24.9419 7.1598C25.3152 7.1598 25.6652 7.1598 25.9919 7.1598C26.3185 7.1598 26.5285 7.1598 26.6219 7.1598C26.6219 6.92647 26.7385 6.50647 26.9719 5.8998C27.2052 5.24647 27.3685 4.82647 27.4619 4.6398C27.5085 4.59314 27.5552 4.4298 27.6019 4.1498C27.6952 3.8698 27.7885 3.68314 27.8819 3.5898C27.8819 3.49647 27.9985 3.33314 28.2319 3.0998C28.4652 2.86647 28.6285 2.72647 28.7219 2.6798C28.7219 2.58647 28.8619 2.4698 29.1419 2.3298C29.4685 2.14314 29.6785 2.0498 29.7719 2.0498C29.8652 2.00314 30.0052 1.93314 30.1919 1.8398C30.3785 1.6998 30.5652 1.58313 30.7519 1.4898C30.9385 1.3498 31.1252 1.2098 31.3119 1.0698H32.2919C32.3385 1.0698 32.4085 1.09314 32.5019 1.1398C32.6419 1.18647 32.7585 1.23314 32.8519 1.2798C32.9919 1.37314 33.1085 1.44314 33.2019 1.4898L33.3419 1.6298C33.4819 1.7698 33.5519 1.8398 33.5519 1.8398C33.7852 2.07314 33.8552 2.35314 33.7619 2.6798C33.7619 2.86647 33.7852 3.2398 33.8319 3.7998C33.9252 4.3598 33.9952 4.96647 34.0419 5.6198C34.1352 6.27314 34.1819 6.90314 34.1819 7.5098C34.2285 8.11647 34.2285 8.53647 34.1819 8.7698C34.1819 8.9098 34.1819 9.16647 34.1819 9.5398C34.2285 9.91314 34.2519 10.3098 34.2519 10.7298C34.2985 11.1498 34.3219 11.5698 34.3219 11.9898C34.3685 12.3631 34.3919 12.6198 34.3919 12.7598C34.4385 13.0865 34.4385 13.5998 34.3919 14.2998C34.3919 14.9531 34.3919 15.3031 34.3919 15.3498C34.3919 15.7231 34.3452 16.3765 34.2519 17.3098C34.1585 18.1965 34.0419 19.1531 33.9019 20.1798C33.8085 21.1598 33.6919 22.0931 33.5519 22.9798C33.4119 23.8665 33.2952 24.4731 33.2019 24.7998C33.2019 24.9865 33.2485 25.2665 33.3419 25.6398C33.4819 25.9665 33.5519 26.2231 33.5519 26.4098C33.5052 26.5498 33.5052 26.8531 33.5519 27.3198C33.5985 27.7865 33.6685 28.2998 33.7619 28.8598C33.8552 29.4198 33.9252 29.9331 33.9719 30.3998C34.0652 30.8665 34.1352 31.1698 34.1819 31.3098C34.2285 31.4031 34.2519 31.5898 34.2519 31.8698C34.2985 32.1031 34.3219 32.3831 34.3219 32.7098C34.3685 32.9898 34.3919 33.2698 34.3919 33.5498C34.4385 33.8298 34.4619 34.0398 34.4619 34.1798C34.5085 34.3665 34.5552 34.6931 34.6019 35.1598C34.6952 35.5798 34.7652 36.0465 34.8119 36.5598C34.8585 37.0731 34.9052 37.5631 34.9519 38.0298C34.9985 38.4498 35.0219 38.7298 35.0219 38.8698C34.9285 39.1031 34.9052 39.4531 34.9519 39.9198C34.9985 40.3865 35.0219 40.6665 35.0219 40.7598C35.0219 40.8531 34.9519 41.2731 34.8119 42.0198C34.7185 42.7665 34.6719 43.3265 34.6719 43.6998C34.6719 43.9798 34.5552 44.4931 34.3219 45.2398C34.1352 45.9865 34.0419 46.4998 34.0419 46.7798C34.0419 46.8265 33.9719 46.9898 33.8319 47.2698C33.7385 47.5498 33.6452 47.6898 33.5519 47.6898C33.3652 47.8765 33.1552 48.1565 32.9219 48.5298C32.6885 48.9498 32.5485 49.2065 32.5019 49.2998C32.4085 49.3465 32.2685 49.4631 32.0819 49.6498C31.8952 49.8831 31.7552 49.9998 31.6619 49.9998C31.6152 50.0931 31.4752 50.2331 31.2419 50.4198C31.0552 50.6065 30.8219 50.7931 30.5419 50.9798C30.3085 51.1665 30.0519 51.3298 29.7719 51.4698C29.5385 51.6565 29.3985 51.7731 29.3519 51.8198C29.3519 51.8665 29.1885 51.9131 28.8619 51.9598C28.5819 52.0531 28.3485 52.1465 28.1619 52.2398C28.1152 52.3331 27.8352 52.4965 27.3219 52.7298C26.8085 52.9631 26.4585 53.1031 26.2719 53.1498C26.1785 53.2898 26.0619 53.5465 25.9219 53.9198C25.7819 54.3398 25.6419 54.7598 25.5019 55.1798C25.3619 55.5998 25.2452 55.9965 25.1519 56.3698C25.0585 56.7431 25.0119 56.9998 25.0119 57.1398C25.0119 57.2331 24.9652 57.4198 24.8719 57.6998C24.7785 57.9798 24.6852 58.1431 24.5919 58.1898H24.3819H24.3119C24.3119 58.1431 24.2885 58.0031 24.2419 57.7698C24.2419 57.5831 24.2185 57.3498 24.1719 57.0698C24.1719 56.8365 24.1719 56.6265 24.1719 56.4398C24.2185 56.2531 24.2885 56.1131 24.3819 56.0198C24.3352 55.7865 24.3119 55.4365 24.3119 54.9698C24.3585 54.5031 24.3819 54.1765 24.3819 53.9898ZM17.8019 36.1398C17.8485 36.2798 17.9419 36.5831 18.0819 37.0498C18.2685 37.4698 18.4319 37.9365 18.5719 38.4498C18.7585 38.9631 18.9219 39.4531 19.0619 39.9198C19.2019 40.3865 19.2719 40.7131 19.2719 40.8998C19.2719 41.0398 19.3185 41.2265 19.4119 41.4598C19.5519 41.6931 19.6919 41.9265 19.8319 42.1598C19.9719 42.4398 20.1119 42.6965 20.2519 42.9298C20.3919 43.1631 20.5085 43.3265 20.6019 43.4198C20.6019 43.5598 20.7885 43.8865 21.1619 44.3998C21.5352 44.9598 21.8385 45.3565 22.0719 45.5898C22.1652 45.6831 22.3519 45.8231 22.6319 46.0098C22.9119 46.1965 23.0752 46.3831 23.1219 46.5698C23.2152 46.6631 23.3319 46.7565 23.4719 46.8498C23.6585 46.9898 23.8685 47.0598 24.1019 47.0598C24.1952 47.1531 24.4052 47.2698 24.7319 47.4098C25.0585 47.5965 25.2685 47.6898 25.3619 47.6898C25.4552 47.7365 25.5719 47.7598 25.7119 47.7598C25.8519 47.8065 26.0385 47.8298 26.2719 47.8298C26.3652 47.9231 26.5285 47.9698 26.7619 47.9698C26.9952 48.0165 27.1585 48.0398 27.2519 48.0398L27.5319 47.8998C27.7652 47.8065 27.8819 47.7365 27.8819 47.6898C27.9752 47.5965 28.0919 47.3398 28.2319 46.9198C28.4185 46.5465 28.5119 46.3131 28.5119 46.2198C28.5119 45.9865 28.4885 45.6831 28.4419 45.3098C28.3952 44.9831 28.3719 44.7731 28.3719 44.6798C28.5585 44.4931 28.6519 44.1198 28.6519 43.5598C28.6519 42.9998 28.6052 42.6265 28.5119 42.4398C28.4652 42.3465 28.4185 42.0898 28.3719 41.6698C28.3252 41.2498 28.2785 40.7831 28.2319 40.2698C28.2319 39.7565 28.2319 39.2665 28.2319 38.7998C28.2319 38.3331 28.2785 37.9831 28.3719 37.7498C28.3252 37.6565 28.2552 37.4931 28.1619 37.2598C28.1152 36.9798 28.0685 36.6998 28.0219 36.4198C27.9752 36.0931 27.9519 35.7898 27.9519 35.5098C27.9519 35.2298 27.9985 35.0198 28.0919 34.8798C28.0919 34.7865 28.0685 34.6931 28.0219 34.5998C27.9752 34.4598 27.9285 34.3431 27.8819 34.2498L27.7419 33.8298C27.6952 33.8298 27.6485 33.8065 27.6019 33.7598L27.4619 33.6198L27.2519 33.8298C27.1585 33.9231 26.9252 34.0631 26.5519 34.2498C26.1785 34.3898 25.7819 34.5531 25.3619 34.7398C24.9419 34.8798 24.5452 35.0431 24.1719 35.2298C23.8452 35.3698 23.6119 35.4631 23.4719 35.5098C23.3785 35.6031 23.2152 35.6731 22.9819 35.7198C22.7952 35.7198 22.7019 35.7665 22.7019 35.8598C22.6085 35.7665 22.4219 35.7431 22.1419 35.7898C21.8619 35.8365 21.6752 35.8598 21.5819 35.8598C21.3952 35.8598 21.0919 35.9065 20.6719 35.9998C20.2985 36.0465 20.0652 36.0698 19.9719 36.0698C19.8319 36.1165 19.4585 36.1398 18.8519 36.1398C18.2919 36.1398 17.9419 36.1398 17.8019 36.1398ZM14.5119 17.4498C14.5119 17.6365 14.4652 17.9165 14.3719 18.2898C14.3252 18.4765 14.3019 18.6631 14.3019 18.8498C14.2552 18.9898 14.2319 19.3165 14.2319 19.8298C14.2785 20.3431 14.3019 20.6465 14.3019 20.7398C14.3952 20.8331 14.4652 21.1831 14.5119 21.7898C14.6052 22.3498 14.6519 22.7931 14.6519 23.1198C14.7452 23.2131 14.8152 23.3765 14.8619 23.6098C14.9552 23.7965 15.0485 23.8898 15.1419 23.8898C15.2352 24.0765 15.3285 24.3098 15.4219 24.5898C15.4685 24.7765 15.5152 24.9165 15.5619 25.0098C15.6085 25.1031 15.7252 25.2898 15.9119 25.5698C16.0985 25.8031 16.2852 26.0831 16.4719 26.4098C16.7052 26.6898 16.9152 26.9698 17.1019 27.2498C17.3352 27.5298 17.5219 27.7398 17.6619 27.8798C17.7552 27.8798 17.8952 27.9965 18.0819 28.2298C18.3152 28.4165 18.4319 28.5331 18.4319 28.5798C18.5719 28.5798 18.8052 28.6965 19.1319 28.9298C19.4585 29.1631 19.7152 29.3731 19.9019 29.5598C19.9485 29.5598 20.1119 29.6765 20.3919 29.9098C20.6719 30.0965 20.8585 30.1898 20.9519 30.1898H21.7219C21.9552 30.1898 22.1652 30.2131 22.3519 30.2598C22.5852 30.3065 22.7485 30.3531 22.8419 30.3998C22.9819 30.4465 23.2852 30.5165 23.7519 30.6098C24.2185 30.6565 24.5452 30.6798 24.7319 30.6798L25.0119 30.3998C25.1052 30.3065 25.1985 30.1198 25.2919 29.8398C25.3852 29.5131 25.5019 29.2798 25.6419 29.1398C25.7819 29.0465 25.8752 28.9298 25.9219 28.7898C26.0152 28.6498 26.0852 28.5098 26.1319 28.3698C26.1785 28.1831 26.2252 28.0198 26.2719 27.8798V27.0398V26.4098C26.3185 26.0831 26.3419 25.5465 26.3419 24.7998C26.3419 24.0065 26.3185 23.2131 26.2719 22.4198C26.2252 21.5798 26.1552 20.7865 26.0619 20.0398C26.0152 19.2931 25.9452 18.7798 25.8519 18.4998C25.8052 18.3598 25.7585 18.1031 25.7119 17.7298C25.7119 17.3565 25.6885 16.9831 25.6419 16.6098C25.6419 16.2365 25.6185 15.8631 25.5719 15.4898C25.5719 15.1165 25.5719 14.8598 25.5719 14.7198C25.5719 14.6731 25.5019 14.5565 25.3619 14.3698C25.2685 14.1831 25.2219 14.0665 25.2219 14.0198C25.1285 14.0198 24.9419 13.9265 24.6619 13.7398C24.4285 13.5065 24.2419 13.3898 24.1019 13.3898C23.9152 13.2031 23.6585 13.0631 23.3319 12.9698C23.0052 12.8765 22.7952 12.8065 22.7019 12.7598C22.3752 12.7598 22.1652 12.6898 22.0719 12.5498L20.1819 23.2598H19.6919C19.6452 23.2598 19.6219 23.1665 19.6219 22.9798C19.6219 22.7465 19.6219 22.4898 19.6219 22.2098C19.6219 21.9298 19.6219 21.6498 19.6219 21.3698C19.6685 21.0431 19.6919 20.7865 19.6919 20.5998C19.7385 20.2731 19.8085 19.7131 19.9019 18.9198C20.0419 18.1265 20.1585 17.2865 20.2519 16.3998C20.3919 15.5131 20.5085 14.6731 20.6019 13.8798C20.6952 13.0865 20.7652 12.5265 20.8119 12.1998L20.1819 12.7598L19.3419 16.8198L18.6419 17.2398V16.3298C18.6419 16.1898 18.6419 15.9331 18.6419 15.5598C18.6885 15.1865 18.7119 14.8131 18.7119 14.4398C18.7585 14.0198 18.7819 13.6465 18.7819 13.3198C18.8285 12.9465 18.8752 12.6898 18.9219 12.5498H18.6419L18.4319 12.4098C18.3385 12.4098 18.0585 12.5031 17.5919 12.6898C17.1719 12.8298 16.9152 12.9465 16.8219 13.0398C16.7752 13.0398 16.5652 13.1565 16.1919 13.3898C16.1452 13.5298 16.0052 13.7631 15.7719 14.0898C15.5385 14.3698 15.3752 14.5798 15.2819 14.7198C15.2819 14.8131 15.2119 15.0465 15.0719 15.4198C14.9319 15.7465 14.8619 15.9331 14.8619 15.9798C14.8619 16.0731 14.7919 16.2831 14.6519 16.6098C14.5585 16.9365 14.5119 17.2165 14.5119 17.4498ZM47.267 40.0598C47.0803 40.0598 46.707 39.9665 46.147 39.7798C45.587 39.5465 45.2136 39.4298 45.027 39.4298C44.9336 39.3831 44.747 39.2898 44.467 39.1498C44.2336 39.0098 43.9536 38.8698 43.627 38.7298C43.3003 38.5431 42.9736 38.3798 42.647 38.2398C42.367 38.0998 42.1803 37.9831 42.087 37.8898C41.947 37.7965 41.7136 37.6565 41.387 37.4698C41.107 37.2831 40.9203 37.1431 40.827 37.0498C40.687 36.9565 40.4536 36.7465 40.127 36.4198C39.847 36.0931 39.5203 35.7431 39.147 35.3698C38.8203 34.9965 38.4936 34.6465 38.167 34.3198C37.8403 33.9465 37.607 33.6898 37.467 33.5498C37.4203 33.5498 37.3036 33.4331 37.117 33.1998C36.9303 32.9198 36.8136 32.6865 36.767 32.4998C36.6736 32.3598 36.557 32.1498 36.417 31.8698C36.277 31.5898 36.1136 31.3098 35.927 31.0298C35.787 30.7031 35.647 30.3998 35.507 30.1198C35.367 29.8398 35.2503 29.6298 35.157 29.4898C35.157 29.3965 35.1103 29.2098 35.017 28.9298C34.9236 28.6498 34.877 28.4865 34.877 28.4398V25.5698V23.0498C34.877 23.0031 34.9003 22.8865 34.947 22.6998C34.9936 22.5131 35.0403 22.3031 35.087 22.0698C35.1803 21.8365 35.2503 21.6031 35.297 21.3698C35.3903 21.1365 35.4836 20.9731 35.577 20.8798C35.577 20.7865 35.6236 20.6465 35.717 20.4598C35.857 20.2731 35.927 20.1331 35.927 20.0398C35.9736 19.9465 36.067 19.7831 36.207 19.5498C36.3936 19.2698 36.5803 19.0131 36.767 18.7798C36.9536 18.4998 37.117 18.2665 37.257 18.0798C37.397 17.8931 37.467 17.7998 37.467 17.7998C37.5136 17.7531 37.6303 17.6365 37.817 17.4498C38.0503 17.2165 38.2836 16.9831 38.517 16.7498C38.7503 16.4698 38.9836 16.2131 39.217 15.9798C39.4503 15.7465 39.6136 15.5831 39.707 15.4898C39.847 15.3965 40.1036 15.2098 40.477 14.9298C40.8503 14.6498 41.107 14.4631 41.247 14.3698C41.387 14.2765 41.597 14.1598 41.877 14.0198C42.157 13.8331 42.4603 13.6698 42.787 13.5298C43.1136 13.3431 43.417 13.1798 43.697 13.0398C43.977 12.8998 44.187 12.8065 44.327 12.7598C44.467 12.7598 44.7236 12.7131 45.097 12.6198C45.4703 12.5265 45.727 12.4798 45.867 12.4798H48.107H50.417C50.5103 12.4798 50.7203 12.5265 51.047 12.6198C51.4203 12.7131 51.7003 12.7598 51.887 12.7598C51.9336 12.7598 52.0503 12.8298 52.237 12.9698C52.4236 13.1098 52.5403 13.2265 52.587 13.3198C52.7736 13.3665 53.007 13.5298 53.287 13.8098C53.6136 14.0898 53.777 14.2765 53.777 14.3698C53.777 14.4165 53.8003 14.5331 53.847 14.7198C53.8936 14.9065 53.917 15.1165 53.917 15.3498C53.9636 15.5365 54.0103 15.7231 54.057 15.9098C54.1036 16.0965 54.1503 16.2131 54.197 16.2598C54.2436 16.3531 54.337 16.5398 54.477 16.8198C54.6636 17.0531 54.8503 17.3331 55.037 17.6598C55.2703 17.9398 55.4803 18.2198 55.667 18.4998C55.8536 18.7331 55.9936 18.8965 56.087 18.9898C56.1803 19.0365 56.367 19.3165 56.647 19.8298C56.927 20.3431 57.1136 20.6931 57.207 20.8798C57.3936 21.2065 57.6503 21.7431 57.977 22.4898C58.3036 23.1898 58.5136 23.6331 58.607 23.8198C58.7003 23.9598 58.8636 24.3331 59.097 24.9398C59.3303 25.4998 59.447 25.8498 59.447 25.9898C59.4936 26.2698 59.5636 26.6431 59.657 27.1098C59.797 27.5765 59.867 27.8331 59.867 27.8798V29.3498V30.6098C59.867 30.7031 59.797 30.9365 59.657 31.3098C59.5636 31.6365 59.4936 31.9398 59.447 32.2198C59.447 32.2665 59.377 32.4298 59.237 32.7098C59.1436 32.9898 59.097 33.1765 59.097 33.2698C59.097 33.3631 59.027 33.5031 58.887 33.6898C58.7936 33.8765 58.7003 34.0165 58.607 34.1098C58.607 34.1565 58.5136 34.3198 58.327 34.5998C58.187 34.8798 58.0703 35.0665 57.977 35.1598C57.7903 35.2998 57.557 35.5565 57.277 35.9298C56.997 36.3031 56.8103 36.5598 56.717 36.6998L56.367 37.0498C56.3203 37.1431 56.087 37.3298 55.667 37.6098C55.247 37.8898 54.967 38.0765 54.827 38.1698C54.7336 38.2631 54.547 38.4265 54.267 38.6598C53.987 38.8465 53.8236 38.9398 53.777 38.9398C53.6836 39.0331 53.4036 39.1731 52.937 39.3598C52.517 39.5465 52.307 39.6865 52.307 39.7798C52.1203 39.8265 51.9336 40.0598 51.747 40.4798C51.607 40.8998 51.537 41.1798 51.537 41.3198H51.327H51.047C51.047 41.2265 50.9303 41.0165 50.697 40.6898C50.5103 40.3631 50.417 40.1531 50.417 40.0598H50.277H49.997C49.9036 40.1531 49.7403 40.2465 49.507 40.3398C49.2736 40.3865 49.157 40.4331 49.157 40.4798L48.527 47.3398L48.387 47.4098H48.177C48.1303 47.4098 48.107 47.3865 48.107 47.3398C48.107 47.2465 48.037 47.0365 47.897 46.7098C47.8036 46.4298 47.757 46.2431 47.757 46.1498C47.7103 45.9165 47.6403 45.5198 47.547 44.9598C47.5003 44.3998 47.4536 43.7931 47.407 43.1398C47.3603 42.4865 47.3136 41.8565 47.267 41.2498C47.267 40.6898 47.267 40.2931 47.267 40.0598ZM40.547 23.4698C40.547 23.5631 40.5936 23.8198 40.687 24.2398C40.7803 24.6131 40.827 24.8465 40.827 24.9398C40.9203 25.0331 41.037 25.2431 41.177 25.5698C41.317 25.8498 41.457 26.1531 41.597 26.4798C41.7836 26.8065 41.947 27.1098 42.087 27.3898C42.227 27.6698 42.3436 27.8331 42.437 27.8798C42.4836 28.0665 42.647 28.3465 42.927 28.7198C43.207 29.0465 43.3936 29.3031 43.487 29.4898C43.627 29.5831 43.8836 29.8398 44.257 30.2598C44.6303 30.6331 44.887 30.8898 45.027 31.0298C45.2136 31.1231 45.4703 31.3331 45.797 31.6598C46.1703 31.9398 46.4503 32.1265 46.637 32.2198C46.6836 32.2198 46.8236 32.2898 47.057 32.4298C47.337 32.5698 47.6403 32.7331 47.967 32.9198C48.2936 33.0598 48.6203 33.1998 48.947 33.3398C49.2736 33.4798 49.507 33.5498 49.647 33.5498C49.7403 33.6431 49.927 33.7598 50.207 33.8998C50.487 34.0398 50.6503 34.1098 50.697 34.1098C50.837 34.1098 51.0703 34.1098 51.397 34.1098C51.7236 34.1098 52.0503 34.1331 52.377 34.1798C52.7503 34.1798 53.077 34.1798 53.357 34.1798C53.6836 34.1798 53.917 34.1798 54.057 34.1798C54.057 34.0398 54.0336 33.8065 53.987 33.4798C53.987 33.1065 53.9636 32.7331 53.917 32.3598C53.917 31.9398 53.8936 31.5665 53.847 31.2398C53.8003 30.9131 53.777 30.7031 53.777 30.6098C53.777 30.5631 53.7303 30.4465 53.637 30.2598C53.5903 30.0731 53.5203 29.8631 53.427 29.6298C53.3803 29.3965 53.287 29.1631 53.147 28.9298C53.0536 28.6965 52.9836 28.5331 52.937 28.4398C52.8903 28.3465 52.797 28.1598 52.657 27.8798C52.5636 27.5998 52.447 27.2965 52.307 26.9698C52.167 26.6431 52.027 26.3398 51.887 26.0598C51.747 25.7331 51.6303 25.4998 51.537 25.3598C51.4436 25.2198 51.257 24.8931 50.977 24.3798C50.697 23.8665 50.5103 23.5631 50.417 23.4698C50.3236 23.3298 50.1136 23.0731 49.787 22.6998C49.507 22.2798 49.297 22.0231 49.157 21.9298C49.157 21.8365 49.0403 21.7198 48.807 21.5798C48.6203 21.3931 48.527 21.2531 48.527 21.1598C48.4336 21.3931 48.3403 21.8831 48.247 22.6298C48.2003 23.3765 48.1536 23.8665 48.107 24.0998C48.107 24.2865 48.037 24.5898 47.897 25.0098C47.8036 25.3831 47.757 25.6165 47.757 25.7098H47.547H47.267C47.267 25.6165 47.197 25.4298 47.057 25.1498C46.9636 24.8698 46.917 24.7065 46.917 24.6598C46.917 24.5198 46.8936 24.2398 46.847 23.8198C46.8003 23.3998 46.7536 22.9565 46.707 22.4898C46.707 22.0231 46.6836 21.5798 46.637 21.1598C46.637 20.7398 46.637 20.4598 46.637 20.3198C46.5436 20.2731 46.4503 20.1098 46.357 19.8298C46.3103 19.5498 46.2636 19.3631 46.217 19.2698L45.867 18.9898L45.657 18.7798C45.657 18.7798 45.6103 18.8265 45.517 18.9198C45.4703 18.9665 45.4236 18.9898 45.377 18.9898C45.237 19.1298 45.0736 19.2465 44.887 19.3398C44.7936 19.3865 44.7003 19.4331 44.607 19.4798C44.5603 19.4798 44.5136 19.5031 44.467 19.5498C44.3736 19.5965 44.327 19.6431 44.327 19.6898C44.2336 19.6898 44.0936 19.7598 43.907 19.8998C43.7203 19.9931 43.5803 20.0398 43.487 20.0398H43.067H42.437L42.087 19.6898C41.9936 19.6431 41.9003 19.5265 41.807 19.3398C41.7603 19.1065 41.6903 18.9898 41.597 18.9898C41.5036 18.9898 41.3636 19.1065 41.177 19.3398C41.037 19.5265 40.9203 19.6431 40.827 19.6898C40.7803 19.8298 40.7336 19.9931 40.687 20.1798C40.5936 20.5531 40.547 20.7865 40.547 20.8798V22.1398V23.4698ZM65.3696 40.1998C65.3696 40.2931 65.2996 40.3865 65.1596 40.4798C65.0663 40.5265 65.0196 40.5731 65.0196 40.6198C64.9263 40.8065 64.8096 41.1798 64.6696 41.7398C64.5763 42.2998 64.5296 42.6731 64.5296 42.8598L64.1796 42.2298C64.1796 42.0431 64.1329 41.6465 64.0396 41.0398C63.9463 40.4331 63.8529 40.0598 63.7596 39.9198C63.7596 39.8265 63.6429 39.5698 63.4096 39.1498C63.2229 38.6831 63.1296 38.4031 63.1296 38.3098C63.0363 38.3098 62.9196 38.1465 62.7796 37.8198C62.6863 37.4931 62.6396 37.2831 62.6396 37.1898C62.5929 37.0965 62.5229 36.9098 62.4296 36.6298C62.3829 36.3031 62.3129 35.9765 62.2196 35.6498C62.1729 35.3231 62.1029 35.0431 62.0096 34.8098C61.9629 34.5298 61.9163 34.3431 61.8696 34.2498C61.8696 34.1098 61.8463 33.8531 61.7996 33.4798C61.7529 33.1065 61.6829 32.7098 61.5896 32.2898C61.5429 31.8231 61.4729 31.4031 61.3796 31.0298C61.3329 30.6098 61.2863 30.3065 61.2396 30.1198C61.1929 29.8865 61.0763 29.3031 60.8896 28.3698C60.7496 27.4365 60.5863 26.4331 60.3996 25.3598C60.2129 24.2398 60.0496 23.2131 59.9096 22.2798C59.7696 21.2998 59.6996 20.6931 59.6996 20.4598C59.6529 20.3665 59.5829 20.1565 59.4896 19.8298C59.4429 19.4565 59.3729 19.0598 59.2796 18.6398C59.1863 18.2198 59.1163 17.8231 59.0696 17.4498C58.9763 17.0765 58.9063 16.8198 58.8596 16.6798C58.8596 16.6331 58.8129 16.4698 58.7196 16.1898C58.5796 15.9098 58.5096 15.7231 58.5096 15.6298C58.4629 15.6298 58.3463 15.4665 58.1596 15.1398C57.9263 14.8131 57.8096 14.6031 57.8096 14.5098V13.5298V12.6198C57.8096 12.5265 57.8563 12.3398 57.9496 12.0598C58.0429 11.7798 58.0896 11.6165 58.0896 11.5698C58.1829 11.4765 58.3229 11.2898 58.5096 11.0098C58.6496 10.6831 58.7663 10.4731 58.8596 10.3798C58.9529 10.2398 59.1396 10.0298 59.4196 9.7498C59.6996 9.42314 59.8863 9.21314 59.9796 9.1198C60.0729 9.07314 60.2829 8.95647 60.6096 8.7698C60.9363 8.58314 61.1463 8.4898 61.2396 8.4898C61.2396 8.44314 61.3796 8.39647 61.6596 8.3498C61.9396 8.25647 62.1496 8.16314 62.2896 8.0698H62.4996H62.6396C62.7329 8.16314 62.8729 8.30314 63.0596 8.4898C63.2463 8.6298 63.3863 8.74647 63.4796 8.8398C63.5263 8.93314 63.5729 9.0498 63.6196 9.1898C63.7129 9.4698 63.7596 9.63314 63.7596 9.6798C63.8529 9.72647 63.9463 9.8898 64.0396 10.1698C64.1329 10.4498 64.1796 10.6365 64.1796 10.7298C64.2263 10.8698 64.2729 11.0798 64.3196 11.3598C64.4129 11.6398 64.5063 11.9431 64.5996 12.2698C64.6929 12.5498 64.7629 12.8298 64.8096 13.1098C64.9029 13.3898 64.9729 13.5998 65.0196 13.7398C65.0196 13.9265 65.0663 14.2531 65.1596 14.7198C65.2996 15.1865 65.3696 15.4898 65.3696 15.6298C65.4629 15.4898 65.6496 15.2798 65.9296 14.9998C66.2096 14.7198 66.5129 14.4398 66.8396 14.1598C67.1663 13.8331 67.4696 13.5298 67.7496 13.2498C68.0296 12.9698 68.2163 12.7598 68.3096 12.6198C68.4029 12.6198 68.6363 12.4565 69.0096 12.1298C69.4296 11.8031 69.7096 11.6165 69.8496 11.5698C69.9429 11.5231 70.1763 11.3598 70.5496 11.0798C70.7363 10.9398 70.8996 10.8231 71.0396 10.7298C71.1796 10.6365 71.4829 10.5198 71.9496 10.3798C72.4163 10.1931 72.7429 10.0531 72.9296 9.9598C73.1629 9.86647 73.5596 9.79647 74.1196 9.7498C74.6796 9.70314 75.0529 9.6798 75.2396 9.6798C75.2863 9.6798 75.4263 9.6798 75.6596 9.6798C75.9396 9.6798 76.2196 9.70314 76.4996 9.7498C76.7796 9.7498 77.0363 9.77314 77.2696 9.8198C77.5029 9.86647 77.6663 9.91314 77.7596 9.9598C77.8996 9.9598 78.1563 10.0765 78.5296 10.3098C78.9029 10.4965 79.1596 10.6365 79.2996 10.7298C79.3929 10.8231 79.5563 10.9631 79.7896 11.1498C80.0229 11.3365 80.1396 11.4765 80.1396 11.5698V12.4798V13.7398C80.1396 13.8331 80.0696 14.0198 79.9296 14.2998C79.8363 14.5798 79.7429 14.7431 79.6496 14.7898C79.5563 14.9765 79.3696 15.2798 79.0896 15.6998C78.8096 16.0731 78.6463 16.3065 78.5996 16.3998C78.5996 16.7731 78.5763 17.4031 78.5296 18.2898C78.4829 19.1298 78.4363 20.0398 78.3896 21.0198C78.3896 21.9531 78.3663 22.8631 78.3196 23.7498C78.2729 24.5898 78.2496 25.1731 78.2496 25.4998C78.2496 25.6398 78.2263 25.8731 78.1796 26.1998C78.1796 26.5265 78.1563 26.8765 78.1096 27.2498C78.0629 27.5765 77.9929 27.9031 77.8996 28.2298C77.8529 28.5098 77.8063 28.7198 77.7596 28.8598C77.7596 29.0465 77.6896 29.3498 77.5496 29.7698C77.4563 30.1431 77.4096 30.3765 77.4096 30.4698V17.2398C77.4096 17.1465 77.3629 17.0531 77.2696 16.9598C77.1763 16.8665 77.1296 16.7731 77.1296 16.6798H76.7096H76.3596C76.2663 16.7731 76.1729 16.8665 76.0796 16.9598C76.0329 17.0531 75.9629 17.1465 75.8696 17.2398C75.8696 17.2398 75.8463 17.3331 75.7996 17.5198C75.7529 17.7065 75.7063 17.9165 75.6596 18.1498C75.6596 18.3365 75.6363 18.5465 75.5896 18.7798C75.5429 18.9665 75.5196 19.0831 75.5196 19.1298C75.4729 19.1765 75.4029 19.3398 75.3096 19.6198C75.2629 19.8998 75.2396 20.0865 75.2396 20.1798C75.0996 20.3665 74.9596 20.4598 74.8196 20.4598L74.4696 19.8298C74.4229 19.6898 74.3763 19.4331 74.3296 19.0598C74.2829 18.6865 74.2363 18.3131 74.1896 17.9398C74.1896 17.5198 74.1663 17.1465 74.1196 16.8198C74.0729 16.4465 74.0263 16.1898 73.9796 16.0498C73.9796 16.0031 73.8863 15.9331 73.6996 15.8398C73.5596 15.6998 73.4429 15.6298 73.3496 15.6298H71.9496H70.6896C70.5963 15.7231 70.4329 15.8631 70.1996 16.0498C69.9663 16.1898 69.8496 16.3065 69.8496 16.3998C69.8029 16.5398 69.6863 16.9131 69.4996 17.5198C69.3129 18.0798 69.1963 18.4298 69.1496 18.5698V22.9798V27.3898C69.1496 27.4831 69.1496 27.7398 69.1496 28.1598C69.1963 28.5331 69.2429 28.9765 69.2896 29.4898C69.3363 29.9565 69.3829 30.3998 69.4296 30.8198C69.4763 31.1931 69.5229 31.4265 69.5696 31.5198V33.4098V34.9498C69.4763 35.0898 69.4063 35.2531 69.3596 35.4398C69.3129 35.5798 69.2663 35.7198 69.2196 35.8598C69.1729 35.9531 69.1496 36.0465 69.1496 36.1398C69.1496 36.1865 69.0796 36.3031 68.9396 36.4898C68.8463 36.6765 68.7996 36.7931 68.7996 36.8398C68.7063 36.9331 68.5663 37.1431 68.3796 37.4698C68.1929 37.7498 68.0529 37.9365 67.9596 38.0298C67.9129 38.1698 67.7496 38.4265 67.4696 38.7998C67.1896 39.1731 67.0029 39.4298 66.9096 39.5698C66.8629 39.8965 66.8163 40.4565 66.7696 41.2498C66.7229 42.0898 66.6763 42.9531 66.6296 43.8398C66.6296 44.7731 66.6063 45.6365 66.5596 46.4298C66.5129 47.2698 66.4663 47.8531 66.4196 48.1798C66.4196 48.3198 66.3963 48.5298 66.3496 48.8098C66.3029 49.1365 66.2563 49.4631 66.2096 49.7898C66.2096 50.1165 66.1863 50.4198 66.1396 50.6998C66.0929 50.9798 66.0696 51.1665 66.0696 51.2598C66.0696 51.3065 66.0229 51.4231 65.9296 51.6098C65.8363 51.7965 65.7429 51.9131 65.6496 51.9598C65.6496 51.8198 65.6029 51.4465 65.5096 50.8398C65.4163 50.2798 65.3696 49.9298 65.3696 49.7898V40.1998Z" fill="#E72A70"/>
</svg>