<svg width="118" height="63" viewBox="0 0 118 63" fill="none" xmlns="http://www.w3.org/2000/svg">
<path d="M0.262929 36.03C0.262929 35.8433 0.309596 35.47 0.402929 34.91C0.496263 34.35 0.542929 33.9767 0.542929 33.79C0.636263 33.65 0.776263 33.2767 0.96293 32.67C1.10293 32.0633 1.2196 31.6667 1.31293 31.48C1.3596 31.34 1.45293 31.1533 1.59293 30.92C1.68626 30.6867 1.7796 30.4533 1.87293 30.22C1.96626 29.9867 2.08293 29.7767 2.22293 29.59C2.31626 29.4033 2.38626 29.31 2.43293 29.31C2.52626 29.2167 2.73626 29.03 3.06293 28.75C3.34293 28.4233 3.55293 28.2133 3.69293 28.12C3.69293 28.0733 3.83293 27.9567 4.11293 27.77C4.39293 27.5833 4.60293 27.4667 4.74293 27.42C4.83626 27.3267 4.97626 27.21 5.16293 27.07C5.3496 26.93 5.4896 26.86 5.58293 26.86H6.00293H6.63293C6.86626 27.0933 6.98293 27.28 6.98293 27.42C6.98293 27.5133 7.00626 27.6067 7.05293 27.7C7.14626 27.8867 7.19293 28.0267 7.19293 28.12C7.19293 28.2133 7.14626 28.3533 7.05293 28.54C7.00626 28.6333 6.98293 28.7033 6.98293 28.75C6.98293 28.8433 6.93626 29.03 6.84293 29.31C6.79626 29.59 6.72626 29.8933 6.63293 30.22C6.5396 30.5 6.44626 30.78 6.35293 31.06C6.30626 31.2933 6.2596 31.4333 6.21293 31.48V34.42V37.92C6.21293 38.0133 6.2596 38.2933 6.35293 38.76C6.49293 39.2267 6.58626 39.5767 6.63293 39.81C6.63293 39.95 6.6796 40.23 6.77293 40.65C6.91293 41.07 6.98293 41.3033 6.98293 41.35C7.07626 41.4433 7.21626 41.7467 7.40293 42.26C7.5896 42.7733 7.7296 43.1 7.82293 43.24L9.36293 46.32C9.36293 46.3667 9.43293 46.53 9.57293 46.81C9.7596 47.09 9.8996 47.2767 9.99293 47.37C10.1796 47.51 10.4129 47.79 10.6929 48.21C10.9729 48.63 11.1596 48.8633 11.2529 48.91C11.3463 49.0033 11.5329 49.19 11.8129 49.47C12.0929 49.7967 12.2563 50.0067 12.3029 50.1C12.3963 50.1467 12.6296 50.31 13.0029 50.59C13.4229 50.87 13.7263 51.0567 13.9129 51.15C13.9129 51.2433 13.9829 51.3133 14.1229 51.36C14.3096 51.4533 14.4496 51.5467 14.5429 51.64C14.6829 51.64 14.8929 51.6867 15.1729 51.78C15.4996 51.92 15.7096 51.99 15.8029 51.99H16.9229H17.9729L18.4629 51.5C18.6029 51.36 18.7196 51.22 18.8129 51.08C18.9529 50.9867 19.0696 50.8933 19.1629 50.8C19.2096 50.66 19.2563 50.5433 19.3029 50.45C19.3496 50.3567 19.4429 50.24 19.5829 50.1C19.5829 50.0067 19.6296 49.7967 19.7229 49.47C19.8163 49.19 19.8629 49.0033 19.8629 48.91C19.9563 48.6767 20.0263 48.3733 20.0729 48C20.1663 47.6733 20.2129 47.4633 20.2129 47.37C20.2129 46.9033 20.2363 46.4367 20.2829 45.97C20.3296 45.5967 20.3529 45.2 20.3529 44.78C20.3996 44.4067 20.4229 44.1033 20.4229 43.87C20.4229 43.6367 20.3996 43.3333 20.3529 42.96C20.3529 42.5867 20.3296 42.19 20.2829 41.77C20.2829 41.3967 20.2596 41.07 20.2129 40.79C20.2129 40.51 20.2129 40.3467 20.2129 40.3C20.2129 40.16 20.1663 39.7633 20.0729 39.11C20.0263 38.41 19.9563 37.8967 19.8629 37.57C19.8629 37.43 19.8163 37.1733 19.7229 36.8C19.6763 36.4267 19.6063 36.0533 19.5129 35.68C19.4196 35.26 19.3263 34.8867 19.2329 34.56C19.1863 34.1867 19.1629 33.93 19.1629 33.79C19.1629 33.7433 19.1163 33.58 19.0229 33.3C18.9763 33.02 18.9063 32.7167 18.8129 32.39C18.7196 32.0167 18.6263 31.6667 18.5329 31.34C18.4396 31.0133 18.3696 30.78 18.3229 30.64C18.2763 30.4533 18.2063 30.1733 18.1129 29.8C18.0196 29.38 17.9029 28.96 17.7629 28.54C17.6696 28.12 17.5529 27.7233 17.4129 27.35C17.3196 26.9767 17.2729 26.72 17.2729 26.58C17.1796 26.2533 16.9696 25.5767 16.6429 24.55C16.3629 23.4767 16.0363 22.2633 15.6629 20.91C15.2896 19.51 14.8696 18.0167 14.4029 16.43C13.9829 14.8433 13.5863 13.3733 13.2129 12.02C12.8396 10.62 12.4896 9.40666 12.1629 8.38C11.8829 7.30667 11.6963 6.60667 11.6029 6.28C11.6029 6.18666 11.5563 6.02333 11.4629 5.79C11.4163 5.55667 11.3929 5.41667 11.3929 5.37C11.3929 5.32333 11.3929 5.25333 11.3929 5.16C11.3929 5.02 11.4163 4.90333 11.4629 4.81L11.6029 4.39C11.6029 4.29666 11.6729 4.06333 11.8129 3.69C11.9996 3.27 12.1629 2.99 12.3029 2.85L14.1929 0.959998C14.2863 0.866666 14.5196 0.749999 14.8929 0.609998C15.2663 0.423331 15.5229 0.329998 15.6629 0.329998C15.7563 0.329998 15.8263 0.306665 15.8729 0.259999C15.9663 0.166664 16.0363 0.119996 16.0829 0.119996L16.4329 0.329998C16.5263 0.329998 16.6663 0.423331 16.8529 0.609998C17.0396 0.749999 17.1796 0.866666 17.2729 0.959998C17.2729 1.1 17.3196 1.42667 17.4129 1.94C17.5063 2.45333 17.5529 2.75666 17.5529 2.85C17.5996 3.13 17.7863 3.87666 18.1129 5.09C18.4396 6.25666 18.8363 7.65666 19.3029 9.29C19.7696 10.9233 20.2596 12.6733 20.7729 14.54C21.2863 16.4067 21.7763 18.1567 22.2429 19.79C22.7096 21.4233 23.0829 22.8467 23.3629 24.06C23.6896 25.2267 23.8996 25.95 23.9929 26.23C24.0396 26.2767 24.0863 26.44 24.1329 26.72C24.2263 27 24.3196 27.3033 24.4129 27.63C24.5063 27.9567 24.5763 28.2833 24.6229 28.61C24.7163 28.9367 24.7863 29.17 24.8329 29.31C24.8329 29.4967 24.8796 29.7767 24.9729 30.15C25.0663 30.4767 25.1363 30.8267 25.1829 31.2C25.2763 31.5733 25.3463 31.9233 25.3929 32.25C25.4863 32.53 25.5329 32.6933 25.5329 32.74C25.5329 32.7867 25.5563 32.9267 25.6029 33.16C25.6496 33.3467 25.6729 33.58 25.6729 33.86C25.7196 34.14 25.7663 34.42 25.8129 34.7C25.8596 34.9333 25.8829 35.12 25.8829 35.26C25.9296 35.4933 25.9763 35.7967 26.0229 36.17C26.1163 36.5433 26.1863 36.9167 26.2329 37.29C26.2796 37.6633 26.3029 37.99 26.3029 38.27C26.3496 38.55 26.3729 38.7133 26.3729 38.76V40.65V42.54C26.3729 42.68 26.3029 43.0533 26.1629 43.66C26.0696 44.3133 25.9763 44.8033 25.8829 45.13C25.8829 45.2233 25.8363 45.4567 25.7429 45.83C25.6963 46.25 25.6263 46.5067 25.5329 46.6C25.5329 46.6933 25.4863 46.88 25.3929 47.16C25.2996 47.4867 25.2529 47.72 25.2529 47.86C25.1596 48.0467 25.0196 48.3733 24.8329 48.84C24.6929 49.3067 24.5763 49.61 24.4829 49.75C24.3896 49.8433 24.2963 49.96 24.2029 50.1C24.1563 50.2867 24.0863 50.38 23.9929 50.38C23.8063 50.7067 23.5496 51.15 23.2229 51.71C22.8963 52.3167 22.6863 52.6433 22.5929 52.69C22.4996 52.7833 22.3363 52.9467 22.1029 53.18C21.8696 53.46 21.6129 53.74 21.3329 54.02C21.0529 54.3 20.7729 54.5567 20.4929 54.79C20.2129 55.07 20.0029 55.28 19.8629 55.42C19.8163 55.5133 19.5829 55.7 19.1629 55.98C18.7429 56.26 18.4629 56.4233 18.3229 56.47C18.2763 56.5167 18.1363 56.5867 17.9029 56.68C17.7163 56.82 17.4829 56.9367 17.2029 57.03C16.9696 57.17 16.7363 57.2867 16.5029 57.38C16.2696 57.52 16.1296 57.6133 16.0829 57.66C16.0363 57.66 15.9663 57.7067 15.8729 57.8C15.8263 57.8933 15.8029 57.9867 15.8029 58.08C15.7563 58.1267 15.7096 58.2667 15.6629 58.5C15.6163 58.78 15.5696 59.06 15.5229 59.34C15.5229 59.6667 15.4996 59.9467 15.4529 60.18C15.4063 60.4133 15.3829 60.5533 15.3829 60.6C15.3829 60.6933 15.3129 60.8333 15.1729 61.02C15.0796 61.2067 15.0329 61.3467 15.0329 61.44C14.9396 61.3467 14.8463 61.2067 14.7529 61.02C14.7063 60.8333 14.6363 60.6933 14.5429 60.6C14.5429 60.4133 14.4729 60.04 14.3329 59.48C14.2396 58.92 14.1929 58.5467 14.1929 58.36H13.5629V62.14H13.1429C13.0496 62 12.9563 61.6267 12.8629 61.02C12.8163 60.46 12.7463 60.11 12.6529 59.97C12.6529 59.83 12.6296 59.6433 12.5829 59.41C12.5363 59.2233 12.4896 59.0133 12.4429 58.78C12.3963 58.5467 12.3496 58.3133 12.3029 58.08C12.3029 58.0333 12.1863 57.9633 11.9529 57.87C11.7663 57.8233 11.5329 57.7533 11.2529 57.66C10.9729 57.5667 10.7163 57.4733 10.4829 57.38C10.2496 57.3333 10.0863 57.31 9.99293 57.31C9.85293 57.2633 9.73626 57.2167 9.64293 57.17C9.45626 57.0767 9.36293 56.96 9.36293 56.82C9.22293 56.7267 8.9896 56.5867 8.66293 56.4C8.38293 56.26 8.19626 56.19 8.10293 56.19C7.96293 56.05 7.7296 55.8167 7.40293 55.49C7.12293 55.21 6.8196 54.9067 6.49293 54.58C6.16626 54.2533 5.86293 53.95 5.58293 53.67C5.30293 53.39 5.1396 53.18 5.09293 53.04C4.9996 52.9467 4.76626 52.62 4.39293 52.06C4.0196 51.5 3.78626 51.08 3.69293 50.8C3.5996 50.7067 3.48293 50.4967 3.34293 50.17C3.20293 49.89 3.0396 49.5867 2.85293 49.26C2.66626 48.98 2.50293 48.7 2.36293 48.42C2.22293 48.14 2.15293 47.9533 2.15293 47.86C2.10626 47.8133 2.03626 47.6267 1.94293 47.3C1.80293 47.02 1.68626 46.6933 1.59293 46.32C1.45293 45.9467 1.33626 45.5733 1.24293 45.2C1.10293 44.8733 1.0096 44.6167 0.96293 44.43C0.916263 44.2433 0.869596 43.9633 0.82293 43.59C0.729596 43.2633 0.636263 43.0067 0.542929 42.82C0.542929 42.68 0.542929 42.47 0.542929 42.19C0.496263 41.9567 0.449596 41.7 0.402929 41.42C0.356263 41.14 0.33293 40.9067 0.33293 40.72C0.286263 40.4867 0.262929 40.3467 0.262929 40.3V38.13V36.03ZM39.1332 40.51C38.9465 40.51 38.5732 40.4167 38.0132 40.23C37.4532 39.9967 37.0798 39.88 36.8932 39.88C36.7998 39.8333 36.6132 39.74 36.3332 39.6C36.0998 39.46 35.8198 39.32 35.4932 39.18C35.1665 38.9933 34.8398 38.83 34.5132 38.69C34.2332 38.55 34.0465 38.4333 33.9532 38.34C33.8132 38.2467 33.5798 38.1067 33.2532 37.92C32.9732 37.7333 32.7865 37.5933 32.6932 37.5C32.5532 37.4067 32.3198 37.1967 31.9932 36.87C31.7132 36.5433 31.3865 36.1933 31.0132 35.82C30.6865 35.4467 30.3598 35.0967 30.0332 34.77C29.7065 34.3967 29.4732 34.14 29.3332 34C29.2865 34 29.1698 33.8833 28.9832 33.65C28.7965 33.37 28.6798 33.1367 28.6332 32.95C28.5398 32.81 28.4232 32.6 28.2832 32.32C28.1432 32.04 27.9798 31.76 27.7932 31.48C27.6532 31.1533 27.5132 30.85 27.3732 30.57C27.2332 30.29 27.1165 30.08 27.0232 29.94C27.0232 29.8467 26.9765 29.66 26.8832 29.38C26.7898 29.1 26.7432 28.9367 26.7432 28.89V26.02V23.5C26.7432 23.4533 26.7665 23.3367 26.8132 23.15C26.8598 22.9633 26.9065 22.7533 26.9532 22.52C27.0465 22.2867 27.1165 22.0533 27.1632 21.82C27.2565 21.5867 27.3498 21.4233 27.4432 21.33C27.4432 21.2367 27.4898 21.0967 27.5832 20.91C27.7232 20.7233 27.7932 20.5833 27.7932 20.49C27.8398 20.3967 27.9332 20.2333 28.0732 20C28.2598 19.72 28.4465 19.4633 28.6332 19.23C28.8198 18.95 28.9832 18.7167 29.1232 18.53C29.2632 18.3433 29.3332 18.25 29.3332 18.25C29.3798 18.2033 29.4965 18.0867 29.6832 17.9C29.9165 17.6667 30.1498 17.4333 30.3832 17.2C30.6165 16.92 30.8498 16.6633 31.0832 16.43C31.3165 16.1967 31.4798 16.0333 31.5732 15.94C31.7132 15.8467 31.9698 15.66 32.3432 15.38C32.7165 15.1 32.9732 14.9133 33.1132 14.82C33.2532 14.7267 33.4632 14.61 33.7432 14.47C34.0232 14.2833 34.3265 14.12 34.6532 13.98C34.9798 13.7933 35.2832 13.63 35.5632 13.49C35.8432 13.35 36.0532 13.2567 36.1932 13.21C36.3332 13.21 36.5898 13.1633 36.9632 13.07C37.3365 12.9767 37.5932 12.93 37.7332 12.93H39.9732H42.2832C42.3765 12.93 42.5865 12.9767 42.9132 13.07C43.2865 13.1633 43.5665 13.21 43.7532 13.21C43.7998 13.21 43.9165 13.28 44.1032 13.42C44.2898 13.56 44.4065 13.6767 44.4532 13.77C44.6398 13.8167 44.8732 13.98 45.1532 14.26C45.4798 14.54 45.6432 14.7267 45.6432 14.82C45.6432 14.8667 45.6665 14.9833 45.7132 15.17C45.7598 15.3567 45.7832 15.5667 45.7832 15.8C45.8298 15.9867 45.8765 16.1733 45.9232 16.36C45.9698 16.5467 46.0165 16.6633 46.0632 16.71C46.1098 16.8033 46.2032 16.99 46.3432 17.27C46.5298 17.5033 46.7165 17.7833 46.9032 18.11C47.1365 18.39 47.3465 18.67 47.5332 18.95C47.7198 19.1833 47.8598 19.3467 47.9532 19.44C48.0465 19.4867 48.2332 19.7667 48.5132 20.28C48.7932 20.7933 48.9798 21.1433 49.0732 21.33C49.2598 21.6567 49.5165 22.1933 49.8432 22.94C50.1698 23.64 50.3798 24.0833 50.4732 24.27C50.5665 24.41 50.7298 24.7833 50.9632 25.39C51.1965 25.95 51.3132 26.3 51.3132 26.44C51.3598 26.72 51.4298 27.0933 51.5232 27.56C51.6632 28.0267 51.7332 28.2833 51.7332 28.33V29.8V31.06C51.7332 31.1533 51.6632 31.3867 51.5232 31.76C51.4298 32.0867 51.3598 32.39 51.3132 32.67C51.3132 32.7167 51.2432 32.88 51.1032 33.16C51.0098 33.44 50.9632 33.6267 50.9632 33.72C50.9632 33.8133 50.8932 33.9533 50.7532 34.14C50.6598 34.3267 50.5665 34.4667 50.4732 34.56C50.4732 34.6067 50.3798 34.77 50.1932 35.05C50.0532 35.33 49.9365 35.5167 49.8432 35.61C49.6565 35.75 49.4232 36.0067 49.1432 36.38C48.8632 36.7533 48.6765 37.01 48.5832 37.15L48.2332 37.5C48.1865 37.5933 47.9532 37.78 47.5332 38.06C47.1132 38.34 46.8332 38.5267 46.6932 38.62C46.5998 38.7133 46.4132 38.8767 46.1332 39.11C45.8532 39.2967 45.6898 39.39 45.6432 39.39C45.5498 39.4833 45.2698 39.6233 44.8032 39.81C44.3832 39.9967 44.1732 40.1367 44.1732 40.23C43.9865 40.2767 43.7998 40.51 43.6132 40.93C43.4732 41.35 43.4032 41.63 43.4032 41.77H43.1932H42.9132C42.9132 41.6767 42.7965 41.4667 42.5632 41.14C42.3765 40.8133 42.2832 40.6033 42.2832 40.51H42.1432H41.8632C41.7698 40.6033 41.6065 40.6967 41.3732 40.79C41.1398 40.8367 41.0232 40.8833 41.0232 40.93L40.3932 47.79L40.2532 47.86H40.0432C39.9965 47.86 39.9732 47.8367 39.9732 47.79C39.9732 47.6967 39.9032 47.4867 39.7632 47.16C39.6698 46.88 39.6232 46.6933 39.6232 46.6C39.5765 46.3667 39.5065 45.97 39.4132 45.41C39.3665 44.85 39.3198 44.2433 39.2732 43.59C39.2265 42.9367 39.1798 42.3067 39.1332 41.7C39.1332 41.14 39.1332 40.7433 39.1332 40.51ZM32.4132 23.92C32.4132 24.0133 32.4598 24.27 32.5532 24.69C32.6465 25.0633 32.6932 25.2967 32.6932 25.39C32.7865 25.4833 32.9032 25.6933 33.0432 26.02C33.1832 26.3 33.3232 26.6033 33.4632 26.93C33.6498 27.2567 33.8132 27.56 33.9532 27.84C34.0932 28.12 34.2098 28.2833 34.3032 28.33C34.3498 28.5167 34.5132 28.7967 34.7932 29.17C35.0732 29.4967 35.2598 29.7533 35.3532 29.94C35.4932 30.0333 35.7498 30.29 36.1232 30.71C36.4965 31.0833 36.7532 31.34 36.8932 31.48C37.0798 31.5733 37.3365 31.7833 37.6632 32.11C38.0365 32.39 38.3165 32.5767 38.5032 32.67C38.5498 32.67 38.6898 32.74 38.9232 32.88C39.2032 33.02 39.5065 33.1833 39.8332 33.37C40.1598 33.51 40.4865 33.65 40.8132 33.79C41.1398 33.93 41.3732 34 41.5132 34C41.6065 34.0933 41.7932 34.21 42.0732 34.35C42.3532 34.49 42.5165 34.56 42.5632 34.56C42.7032 34.56 42.9365 34.56 43.2632 34.56C43.5898 34.56 43.9165 34.5833 44.2432 34.63C44.6165 34.63 44.9432 34.63 45.2232 34.63C45.5498 34.63 45.7832 34.63 45.9232 34.63C45.9232 34.49 45.8998 34.2567 45.8532 33.93C45.8532 33.5567 45.8298 33.1833 45.7832 32.81C45.7832 32.39 45.7598 32.0167 45.7132 31.69C45.6665 31.3633 45.6432 31.1533 45.6432 31.06C45.6432 31.0133 45.5965 30.8967 45.5032 30.71C45.4565 30.5233 45.3865 30.3133 45.2932 30.08C45.2465 29.8467 45.1532 29.6133 45.0132 29.38C44.9198 29.1467 44.8498 28.9833 44.8032 28.89C44.7565 28.7967 44.6632 28.61 44.5232 28.33C44.4298 28.05 44.3132 27.7467 44.1732 27.42C44.0332 27.0933 43.8932 26.79 43.7532 26.51C43.6132 26.1833 43.4965 25.95 43.4032 25.81C43.3098 25.67 43.1232 25.3433 42.8432 24.83C42.5632 24.3167 42.3765 24.0133 42.2832 23.92C42.1898 23.78 41.9798 23.5233 41.6532 23.15C41.3732 22.73 41.1632 22.4733 41.0232 22.38C41.0232 22.2867 40.9065 22.17 40.6732 22.03C40.4865 21.8433 40.3932 21.7033 40.3932 21.61C40.2998 21.8433 40.2065 22.3333 40.1132 23.08C40.0665 23.8267 40.0198 24.3167 39.9732 24.55C39.9732 24.7367 39.9032 25.04 39.7632 25.46C39.6698 25.8333 39.6232 26.0667 39.6232 26.16H39.4132H39.1332C39.1332 26.0667 39.0632 25.88 38.9232 25.6C38.8298 25.32 38.7832 25.1567 38.7832 25.11C38.7832 24.97 38.7598 24.69 38.7132 24.27C38.6665 23.85 38.6198 23.4067 38.5732 22.94C38.5732 22.4733 38.5498 22.03 38.5032 21.61C38.5032 21.19 38.5032 20.91 38.5032 20.77C38.4098 20.7233 38.3165 20.56 38.2232 20.28C38.1765 20 38.1298 19.8133 38.0832 19.72L37.7332 19.44L37.5232 19.23C37.5232 19.23 37.4765 19.2767 37.3832 19.37C37.3365 19.4167 37.2898 19.44 37.2432 19.44C37.1032 19.58 36.9398 19.6967 36.7532 19.79C36.6598 19.8367 36.5665 19.8833 36.4732 19.93C36.4265 19.93 36.3798 19.9533 36.3332 20C36.2398 20.0467 36.1932 20.0933 36.1932 20.14C36.0998 20.14 35.9598 20.21 35.7732 20.35C35.5865 20.4433 35.4465 20.49 35.3532 20.49H34.9332H34.3032L33.9532 20.14C33.8598 20.0933 33.7665 19.9767 33.6732 19.79C33.6265 19.5567 33.5565 19.44 33.4632 19.44C33.3698 19.44 33.2298 19.5567 33.0432 19.79C32.9032 19.9767 32.7865 20.0933 32.6932 20.14C32.6465 20.28 32.5998 20.4433 32.5532 20.63C32.4598 21.0033 32.4132 21.2367 32.4132 21.33V22.59V23.92ZM60.9458 47.51C60.8992 47.37 60.8525 47.1133 60.8058 46.74C60.7592 46.3667 60.7125 45.97 60.6658 45.55C60.6658 45.1767 60.6425 44.8033 60.5958 44.43C60.5492 44.1033 60.5025 43.87 60.4558 43.73C60.4558 43.4967 60.3858 43.03 60.2458 42.33C60.1525 41.6767 60.1058 41.2567 60.1058 41.07C60.0592 40.9767 59.9425 40.9067 59.7558 40.86C59.5692 40.7667 59.4525 40.6733 59.4058 40.58C59.3125 40.58 59.0325 40.5333 58.5658 40.44C58.1458 40.3 57.8892 40.23 57.7958 40.23C57.6558 40.23 57.4692 40.2067 57.2358 40.16C57.0025 40.0667 56.7692 39.9733 56.5358 39.88C56.3025 39.7867 56.0925 39.7167 55.9058 39.67C55.7192 39.5767 55.6258 39.53 55.6258 39.53C55.5325 39.53 55.3225 39.4133 54.9958 39.18C54.7158 38.9467 54.5292 38.7833 54.4358 38.69C54.3425 38.5967 54.2025 38.4567 54.0158 38.27C53.8758 38.0833 53.6892 37.8967 53.4558 37.71C53.2692 37.5233 53.0825 37.36 52.8958 37.22C52.7092 37.0333 52.5925 36.8933 52.5458 36.8L52.4058 36.52C52.3592 36.4267 52.3125 36.3567 52.2658 36.31C52.2192 36.2167 52.1725 36.1233 52.1258 36.03C52.1258 35.9367 52.0792 35.75 51.9858 35.47C51.8925 35.19 51.8458 35.0033 51.8458 34.91V33.93V33.02C51.8458 32.9267 51.9392 32.6 52.1258 32.04C52.3592 31.48 52.4992 31.06 52.5458 30.78C52.5458 30.7333 52.6625 30.5 52.8958 30.08C53.1292 29.66 53.2925 29.38 53.3858 29.24C53.4792 29.1467 53.5958 28.96 53.7358 28.68C53.8292 28.54 53.9225 28.3767 54.0158 28.19C54.2025 28.0033 54.5058 27.7 54.9258 27.28C55.3458 26.8133 55.7892 26.37 56.2558 25.95C56.7225 25.4833 57.1425 25.0867 57.5158 24.76C57.8892 24.3867 58.1225 24.1533 58.2158 24.06C58.2625 24.0133 58.3792 23.92 58.5658 23.78C58.7992 23.64 59.0325 23.5 59.2658 23.36C59.4992 23.1733 59.7325 23.01 59.9658 22.87C60.1992 22.73 60.3625 22.6133 60.4558 22.52C60.5025 22.4733 60.6425 22.4033 60.8758 22.31C61.1092 22.17 61.3425 22.0533 61.5758 21.96C61.8092 21.82 62.0425 21.7033 62.2758 21.61C62.5092 21.47 62.6958 21.3767 62.8358 21.33C62.9292 21.2833 63.2092 21.1667 63.6758 20.98C64.1425 20.7933 64.4925 20.6767 64.7258 20.63C64.8192 20.5367 65.0058 20.4667 65.2858 20.42C65.5658 20.3267 65.7292 20.28 65.7758 20.28C65.9625 20.2333 66.2192 20.1633 66.5458 20.07C66.9192 19.93 67.2458 19.8367 67.5258 19.79C67.8525 19.6967 68.1325 19.6267 68.3658 19.58C68.6458 19.4867 68.8092 19.44 68.8558 19.44C68.8558 19.44 69.0192 19.44 69.3458 19.44C69.6725 19.44 70.0458 19.44 70.4658 19.44C70.8858 19.3933 71.3058 19.37 71.7258 19.37C72.1458 19.37 72.4725 19.37 72.7058 19.37C72.8458 19.37 73.1025 19.37 73.4758 19.37C73.8958 19.37 74.3158 19.3933 74.7358 19.44C75.2025 19.44 75.6225 19.44 75.9958 19.44C76.4158 19.44 76.6958 19.44 76.8358 19.44C76.9292 19.44 77.1158 19.5567 77.3958 19.79C77.6758 20.0233 77.8625 20.1867 77.9558 20.28C77.9558 20.28 78.0258 20.35 78.1658 20.49L78.3058 20.63L78.3758 20.91C78.3758 21.0033 78.3525 21.0967 78.3058 21.19C78.3058 21.2367 78.3058 21.2833 78.3058 21.33C78.3058 21.4233 78.2358 21.68 78.0958 22.1C78.0025 22.4733 77.9558 22.7067 77.9558 22.8C77.9558 22.8467 77.9792 23.0333 78.0258 23.36C78.0725 23.6867 78.1192 24.0833 78.1658 24.55C78.2592 25.0167 78.3525 25.4833 78.4458 25.95C78.5392 26.37 78.6325 26.72 78.7258 27C78.7258 27.0933 78.7492 27.3033 78.7958 27.63C78.8892 27.91 78.9592 28.2367 79.0058 28.61C79.0992 28.9367 79.1692 29.2867 79.2158 29.66C79.3092 29.9867 79.3558 30.22 79.3558 30.36C79.4025 30.5467 79.4725 30.8033 79.5658 31.13C79.6592 31.4567 79.7525 31.7833 79.8458 32.11C79.9392 32.4367 80.0092 32.74 80.0558 33.02C80.1492 33.3 80.1958 33.4633 80.1958 33.51C80.2425 33.6033 80.3592 33.93 80.5458 34.49C80.7325 35.05 80.8492 35.47 80.8958 35.75C80.9425 35.75 80.9892 35.8433 81.0358 36.03C81.1292 36.2167 81.2225 36.4267 81.3158 36.66C81.4092 36.8467 81.4792 37.0567 81.5258 37.29C81.6192 37.4767 81.6892 37.5933 81.7358 37.64C81.8292 37.8733 81.9458 38.2933 82.0858 38.9C82.2725 39.5067 82.4125 39.8567 82.5058 39.95V40.44V41.07C82.4125 41.1633 82.3192 41.35 82.2258 41.63C82.1792 41.91 82.1325 42.0733 82.0858 42.12C81.9925 42.26 81.8058 42.47 81.5258 42.75C81.2925 43.03 81.0358 43.31 80.7558 43.59C80.4758 43.87 80.1958 44.1267 79.9158 44.36C79.6825 44.64 79.4958 44.8033 79.3558 44.85C79.2158 44.9433 79.0758 45.0133 78.9358 45.06C78.6558 45.1533 78.4458 45.2 78.3058 45.2H77.6758H77.1158L76.8358 44.85C76.7425 44.7567 76.6025 44.4533 76.4158 43.94C76.2758 43.4733 76.1592 43.1467 76.0658 42.96C75.9725 42.82 75.8558 42.5633 75.7158 42.19C75.6225 41.8633 75.5058 41.5133 75.3658 41.14C75.2725 40.8133 75.1792 40.4867 75.0858 40.16C74.9925 39.8333 74.9458 39.6233 74.9458 39.53C74.8525 39.39 74.7358 39.1333 74.5958 38.76C74.5025 38.34 74.3858 37.92 74.2458 37.5C74.1525 37.0333 74.0358 36.6133 73.8958 36.24C73.8025 35.82 73.7325 35.54 73.6858 35.4L73.3358 34.91C73.2425 35.05 73.0325 35.2833 72.7058 35.61C72.3792 35.89 72.0292 36.1933 71.6558 36.52C71.3292 36.8467 70.9792 37.1733 70.6058 37.5C70.2792 37.78 70.0458 37.9667 69.9058 38.06C69.8125 38.06 69.6258 38.1767 69.3458 38.41C69.0658 38.5967 68.9025 38.69 68.8558 38.69C68.5758 38.83 68.1558 39.0633 67.5958 39.39C67.0358 39.67 66.7092 39.8567 66.6158 39.95C66.4758 39.9967 66.2425 40.09 65.9158 40.23C65.5892 40.3233 65.2392 40.4167 64.8658 40.51C64.4925 40.6033 64.1425 40.72 63.8158 40.86C63.4892 40.9533 63.2792 41.0233 63.1858 41.07C63.0925 41.21 63.0225 41.3267 62.9758 41.42C62.8825 41.7 62.8358 41.84 62.8358 41.84C62.7425 41.84 62.6492 41.8867 62.5558 41.98C62.5092 42.0733 62.4392 42.12 62.3458 42.12L61.9958 41.84C61.9492 41.7467 61.8558 41.5833 61.7158 41.35C61.5758 41.1633 61.4592 41.07 61.3658 41.07V47.79L60.9458 47.51ZM57.7958 31.62C57.8892 31.6667 57.9592 31.7367 58.0058 31.83C58.0525 31.9233 58.0758 32.0167 58.0758 32.11C58.1225 32.1567 58.1692 32.2033 58.2158 32.25C58.2158 32.3433 58.3325 32.5067 58.5658 32.74C58.7992 32.9267 58.9625 33.02 59.0558 33.02C59.1492 33.1133 59.3358 33.2767 59.6158 33.51C59.8958 33.7433 60.0592 33.86 60.1058 33.86C60.3858 33.9067 60.8058 34.0467 61.3658 34.28C61.9258 34.4667 62.2525 34.56 62.3458 34.56H65.0758H67.6658C67.7592 34.56 67.8992 34.5133 68.0858 34.42C68.2725 34.3267 68.4125 34.2333 68.5058 34.14C68.6925 34.0467 68.9725 33.8133 69.3458 33.44C69.7192 33.02 69.9058 32.7633 69.9058 32.67C69.9992 32.6233 70.1392 32.32 70.3258 31.76C70.5125 31.1533 70.6525 30.6867 70.7458 30.36C70.7925 30.22 70.8625 29.9167 70.9558 29.45C71.0958 28.9833 71.1658 28.6567 71.1658 28.47V27V25.46C71.0725 25.3667 70.9325 25.2967 70.7458 25.25C70.6058 25.1567 70.4892 25.11 70.3958 25.11H68.8558H67.3858C67.2925 25.11 67.1525 25.1333 66.9658 25.18C66.7792 25.2267 66.5925 25.2733 66.4058 25.32C66.2192 25.3667 66.0092 25.4133 65.7758 25.46C65.6358 25.6 65.5192 25.9033 65.4258 26.37C65.3792 26.8367 65.4025 27.1633 65.4958 27.35L64.7258 25.95C64.6325 26.1367 64.5392 26.51 64.4458 27.07C64.3992 27.63 64.3292 28.0033 64.2358 28.19C64.2358 28.2367 64.1658 28.3533 64.0258 28.54C63.9325 28.7267 63.8858 28.8433 63.8858 28.89C63.8392 28.89 63.7692 28.8433 63.6758 28.75C63.6292 28.6567 63.6058 28.5633 63.6058 28.47C63.5125 28.33 63.4192 27.98 63.3258 27.42C63.2325 26.8133 63.1858 26.44 63.1858 26.3H62.8358H62.3458C62.2525 26.3 61.9258 26.4633 61.3658 26.79C60.8058 27.07 60.3858 27.2567 60.1058 27.35C60.0592 27.4433 59.8958 27.5833 59.6158 27.77C59.3358 27.9567 59.1492 28.0967 59.0558 28.19C58.9625 28.2367 58.7992 28.3533 58.5658 28.54C58.3325 28.7267 58.2158 28.8433 58.2158 28.89C58.1692 28.9833 58.0758 29.1233 57.9358 29.31C57.8425 29.4967 57.7958 29.6367 57.7958 29.73V30.71V31.62ZM82.805 42.54C82.7116 42.4467 82.5483 42.26 82.315 41.98C82.0816 41.7 81.965 41.5367 81.965 41.49C81.965 41.4433 81.9416 41.3033 81.895 41.07C81.8483 40.8367 81.8016 40.58 81.755 40.3C81.755 40.02 81.7316 39.74 81.685 39.46C81.6383 39.1333 81.5916 38.9 81.545 38.76C81.545 38.5267 81.4983 37.8967 81.405 36.87C81.3583 35.8433 81.2883 34.7467 81.195 33.58C81.1483 32.3667 81.0783 31.2467 80.985 30.22C80.9383 29.1933 80.915 28.54 80.915 28.26C80.8683 28.1667 80.8216 27.9567 80.775 27.63C80.7283 27.3033 80.6816 26.93 80.635 26.51C80.635 26.09 80.6116 25.6933 80.565 25.32C80.5183 24.9467 80.4716 24.6667 80.425 24.48C80.425 24.2 80.355 23.6867 80.215 22.94C80.1216 22.1933 80.075 21.68 80.075 21.4C80.075 21.26 80.0283 20.9333 79.935 20.42C79.8416 19.86 79.7483 19.3 79.655 18.74C79.6083 18.1333 79.5616 17.5733 79.515 17.06C79.4216 16.5467 79.375 16.22 79.375 16.08V14.05V12.3C79.375 12.2067 79.4683 11.9733 79.655 11.6C79.8883 11.18 80.0283 10.8767 80.075 10.69C80.1683 10.6433 80.355 10.48 80.635 10.2C80.9616 9.92 81.1716 9.73333 81.265 9.64C81.3116 9.64 81.475 9.52333 81.755 9.29C82.035 9.05666 82.2216 8.89333 82.315 8.8C82.3616 8.8 82.525 8.75333 82.805 8.66C82.945 8.61333 83.0616 8.56666 83.155 8.52H83.785H84.205L84.345 8.66C84.4383 8.75333 84.555 8.8 84.695 8.8C84.695 8.84667 84.7416 9.01 84.835 9.29C84.8816 9.43 84.9516 9.54667 85.045 9.64V11.25C85.045 11.4367 85.0916 11.9033 85.185 12.65C85.325 13.3967 85.465 14.2133 85.605 15.1C85.745 15.9867 85.8616 16.8267 85.955 17.62C86.0483 18.4133 86.095 18.9033 86.095 19.09C86.1416 19.1833 86.1883 19.3933 86.235 19.72C86.2816 20 86.305 20.3033 86.305 20.63C86.3516 20.9567 86.3983 21.2833 86.445 21.61C86.4916 21.89 86.5383 22.1 86.585 22.24L86.935 22.59C87.0283 22.3567 87.215 21.96 87.495 21.4C87.775 20.7933 88.0783 20.1633 88.405 19.51C88.7316 18.81 89.035 18.18 89.315 17.62C89.595 17.0133 89.7816 16.5933 89.875 16.36C89.9683 16.3133 90.1083 16.15 90.295 15.87C90.4816 15.59 90.6216 15.4033 90.715 15.31C90.855 15.2167 91.1116 14.9833 91.485 14.61C91.8583 14.19 92.115 13.9333 92.255 13.84C92.3483 13.7933 92.535 13.6767 92.815 13.49C93.095 13.2567 93.2583 13.14 93.305 13.14C93.3983 13.0467 93.585 12.9533 93.865 12.86C94.1916 12.7667 94.4016 12.6733 94.495 12.58H94.565H94.915C95.0083 12.6733 95.125 12.7667 95.265 12.86C95.4516 12.9533 95.545 13.0467 95.545 13.14C95.6383 13.14 95.7083 13.2333 95.755 13.42C95.8483 13.56 95.9416 13.7 96.035 13.84C96.035 13.9333 96.0816 14.1433 96.175 14.47C96.315 14.75 96.385 14.9367 96.385 15.03C96.385 15.0767 96.4316 15.31 96.525 15.73C96.6183 16.15 96.7116 16.36 96.805 16.36C96.8516 16.5933 96.9216 16.8967 97.015 17.27C97.155 17.5967 97.2716 17.9467 97.365 18.32C97.4583 18.6467 97.5516 18.9733 97.645 19.3C97.785 19.58 97.8783 19.7667 97.925 19.86C97.925 20 98.0183 20.2567 98.205 20.63C98.4383 21.0033 98.6016 21.26 98.695 21.4C98.695 21.3533 98.7416 21.2367 98.835 21.05C98.9283 20.8633 98.975 20.7467 98.975 20.7C98.975 20.6533 98.9983 20.5367 99.045 20.35C99.1383 20.1167 99.2316 19.9067 99.325 19.72C99.4183 19.4867 99.5116 19.2767 99.605 19.09C99.6983 18.9033 99.7683 18.81 99.815 18.81C99.9083 18.67 100.048 18.4133 100.235 18.04C100.422 17.6667 100.608 17.27 100.795 16.85C100.982 16.43 101.145 16.0567 101.285 15.73C101.472 15.3567 101.612 15.1233 101.705 15.03C101.798 14.8433 101.915 14.61 102.055 14.33C102.242 14.0033 102.382 13.84 102.475 13.84C102.522 13.7933 102.615 13.6767 102.755 13.49C102.942 13.3033 103.128 13.1167 103.315 12.93C103.548 12.6967 103.758 12.4867 103.945 12.3C104.132 12.1133 104.272 11.9967 104.365 11.95C104.458 11.9033 104.645 11.7867 104.925 11.6C105.205 11.3667 105.392 11.25 105.485 11.25C105.578 11.1567 105.765 11.0633 106.045 10.97C106.325 10.8767 106.488 10.7833 106.535 10.69H106.885H107.375C107.468 10.7833 107.585 10.8767 107.725 10.97C107.912 11.0633 108.052 11.1567 108.145 11.25C108.238 11.2967 108.355 11.4133 108.495 11.6C108.682 11.7867 108.775 11.9033 108.775 11.95C108.822 12.0433 108.915 12.23 109.055 12.51C109.242 12.79 109.428 13.0933 109.615 13.42C109.802 13.7 109.965 14.0033 110.105 14.33C110.245 14.6567 110.315 14.89 110.315 15.03C110.362 15.03 110.408 15.1233 110.455 15.31C110.548 15.4967 110.642 15.7067 110.735 15.94C110.828 16.1733 110.898 16.4067 110.945 16.64C111.038 16.8733 111.108 17.06 111.155 17.2C111.155 17.2933 111.202 17.55 111.295 17.97C111.435 18.3433 111.505 18.6233 111.505 18.81C111.552 19.09 111.692 19.7433 111.925 20.77C112.158 21.7967 112.392 22.8933 112.625 24.06C112.858 25.2267 113.092 26.3233 113.325 27.35C113.558 28.3767 113.722 29.03 113.815 29.31C113.815 29.5433 113.932 29.9867 114.165 30.64C114.398 31.2933 114.562 31.76 114.655 32.04C114.655 32.18 114.748 32.5067 114.935 33.02C115.168 33.5333 115.285 33.8367 115.285 33.93C115.332 33.9767 115.378 34.0467 115.425 34.14C115.518 34.1867 115.612 34.21 115.705 34.21C115.705 34.3033 115.868 34.3967 116.195 34.49C116.522 34.5367 116.732 34.5833 116.825 34.63C116.918 34.7233 117.058 34.8633 117.245 35.05C117.478 35.2367 117.595 35.3767 117.595 35.47V35.89V36.52C117.502 36.7067 117.362 36.9867 117.175 37.36C117.035 37.6867 116.918 37.8967 116.825 37.99C116.778 38.0833 116.638 38.2467 116.405 38.48C116.218 38.7133 116.008 38.9467 115.775 39.18C115.542 39.4133 115.308 39.6467 115.075 39.88C114.842 40.1133 114.702 40.2533 114.655 40.3C114.562 40.3 114.422 40.37 114.235 40.51C114.048 40.6033 113.908 40.65 113.815 40.65C113.722 40.7433 113.512 40.8367 113.185 40.93C112.905 40.9767 112.765 41.0467 112.765 41.14H112.415H112.205C112.158 41.0467 112.042 40.9767 111.855 40.93C111.668 40.8367 111.552 40.7433 111.505 40.65C111.412 40.5567 111.202 40.37 110.875 40.09C110.595 39.81 110.408 39.6467 110.315 39.6C110.268 39.5067 110.152 39.32 109.965 39.04C109.778 38.7133 109.662 38.5033 109.615 38.41C109.522 38.2233 109.405 37.92 109.265 37.5C109.125 37.08 108.985 36.6367 108.845 36.17C108.705 35.6567 108.565 35.19 108.425 34.77C108.285 34.35 108.192 34.07 108.145 33.93C108.052 33.65 107.888 32.9733 107.655 31.9C107.422 30.8267 107.188 29.7067 106.955 28.54C106.722 27.3267 106.488 26.2067 106.255 25.18C106.022 24.1533 105.882 23.5233 105.835 23.29C105.835 23.15 105.765 22.8933 105.625 22.52C105.532 22.1 105.485 21.8433 105.485 21.75C105.392 21.5633 105.252 21.19 105.065 20.63C104.878 20.07 104.738 19.6967 104.645 19.51L104.365 19.86C104.318 19.9533 104.248 20.14 104.155 20.42C104.108 20.6533 104.038 20.9333 103.945 21.26C103.898 21.5867 103.828 21.9133 103.735 22.24C103.688 22.52 103.642 22.73 103.595 22.87C103.502 23.1033 103.408 23.57 103.315 24.27C103.268 24.9233 103.198 25.3433 103.105 25.53V27.28V28.96C103.105 29.0533 103.152 29.3333 103.245 29.8C103.385 30.2667 103.502 30.6167 103.595 30.85C103.595 30.9433 103.642 31.1533 103.735 31.48C103.875 31.76 103.945 31.9467 103.945 32.04V32.95V33.93C103.945 33.9767 103.898 34.0933 103.805 34.28C103.758 34.4667 103.688 34.5833 103.595 34.63C103.502 34.7233 103.338 34.8867 103.105 35.12C102.918 35.3067 102.708 35.5167 102.475 35.75C102.242 35.9833 102.008 36.2167 101.775 36.45C101.542 36.6367 101.355 36.7767 101.215 36.87C101.215 37.01 101.098 37.1267 100.865 37.22L100.585 37.36H99.325H98.695L91.765 23.64L91.415 23.29C91.3216 23.5233 91.1583 23.9667 90.925 24.62C90.7383 25.2733 90.5283 25.9733 90.295 26.72C90.0616 27.4667 89.8283 28.1667 89.595 28.82C89.3616 29.4733 89.1983 29.9167 89.105 30.15C89.105 30.2433 89.0583 30.4533 88.965 30.78C88.9183 31.06 88.8483 31.3633 88.755 31.69C88.7083 31.97 88.6383 32.25 88.545 32.53C88.4983 32.81 88.475 32.9967 88.475 33.09C88.4283 33.1833 88.3816 33.3933 88.335 33.72C88.2883 34.0467 88.2416 34.42 88.195 34.84C88.195 35.2133 88.1716 35.5867 88.125 35.96C88.0783 36.2867 88.0316 36.4733 87.985 36.52C87.985 36.7067 87.915 36.9867 87.775 37.36C87.6816 37.6867 87.635 37.8967 87.635 37.99C87.635 38.0833 87.565 38.2467 87.425 38.48C87.3316 38.7133 87.215 38.9467 87.075 39.18C86.935 39.4133 86.8183 39.6467 86.725 39.88C86.6316 40.1133 86.585 40.2533 86.585 40.3C86.5383 40.3933 86.4916 40.6033 86.445 40.93C86.3983 41.21 86.3516 41.5133 86.305 41.84C86.305 42.1667 86.2816 42.47 86.235 42.75C86.1883 43.0767 86.1416 43.2867 86.095 43.38C86.095 43.4267 86.025 43.59 85.885 43.87C85.7916 44.15 85.745 44.3367 85.745 44.43C85.6983 44.3367 85.6283 44.15 85.535 43.87C85.4883 43.59 85.4183 43.4267 85.325 43.38C85.325 43.2867 85.2783 43.03 85.185 42.61C85.0916 42.2367 85.045 42.0033 85.045 41.91L84.835 41.77L84.695 41.91C84.3683 41.91 84.205 42.0033 84.205 42.19C84.205 42.4233 84.1583 42.82 84.065 43.38C84.0183 43.9867 83.9483 44.6167 83.855 45.27C83.7616 45.9233 83.6683 46.53 83.575 47.09C83.5283 47.65 83.4816 48.0233 83.435 48.21C83.435 48.35 83.3883 48.63 83.295 49.05C83.2483 49.47 83.2016 49.7033 83.155 49.75L82.805 48.7V42.54Z" fill="#E72A70"/>
</svg>