<svg width="178" height="71" viewBox="0 0 178 71" fill="none" xmlns="http://www.w3.org/2000/svg">
<path d="M17.994 39.04V40.93H17.574C17.5274 40.7433 17.4807 40.5567 17.434 40.37C17.3874 40.1833 17.3174 40.02 17.224 39.88C17.1774 39.6933 17.1307 39.53 17.084 39.39C17.084 39.2967 17.0607 39.0867 17.014 38.76C16.9674 38.4333 16.9207 38.1067 16.874 37.78C16.874 37.4067 16.8507 37.0567 16.804 36.73C16.7574 36.4033 16.734 36.1933 16.734 36.1C16.734 36.0067 16.6874 35.82 16.594 35.54C16.5007 35.26 16.454 35.0267 16.454 34.84L16.034 34.21C15.9407 34.1167 15.8007 33.9533 15.614 33.72C15.4274 33.4867 15.2874 33.37 15.194 33.37V33.72V34.21C15.2407 34.3967 15.2874 34.8867 15.334 35.68C15.4274 36.4267 15.4974 37.2433 15.544 38.13C15.5907 39.0167 15.614 39.8567 15.614 40.65C15.6607 41.4433 15.684 41.9333 15.684 42.12V48.42V52.62L15.194 54.51L14.844 54.16C14.844 54.16 14.8207 54.0433 14.774 53.81C14.7274 53.5767 14.6807 53.2967 14.634 52.97C14.634 52.6433 14.6107 52.3167 14.564 51.99C14.564 51.6633 14.564 51.4067 14.564 51.22C14.5174 50.9867 14.4707 50.45 14.424 49.61C14.3774 48.8167 14.3307 47.8833 14.284 46.81C14.2374 45.69 14.1674 44.5233 14.074 43.31C14.0274 42.05 13.9807 40.8833 13.934 39.81C13.8874 38.69 13.8407 37.7333 13.794 36.94C13.794 36.1 13.794 35.54 13.794 35.26C13.7474 35.1667 13.7007 34.98 13.654 34.7C13.6074 34.3733 13.5607 34.07 13.514 33.79C13.514 33.4633 13.4907 33.16 13.444 32.88C13.3974 32.6 13.3507 32.4133 13.304 32.32C13.2107 32.32 13.024 32.2967 12.744 32.25C12.464 32.1567 12.3007 32.11 12.254 32.11C12.1607 32.11 11.9274 32.1567 11.554 32.25C11.3674 32.2967 11.204 32.32 11.064 32.32C11.0174 32.32 10.6907 32.4133 10.084 32.6C9.52402 32.74 9.08069 32.8567 8.75402 32.95C8.66069 33.0433 8.40402 33.1833 7.98402 33.37C7.61069 33.51 7.37736 33.6267 7.28402 33.72C7.28402 33.86 7.30736 34.07 7.35402 34.35C7.40069 34.5833 7.42402 34.84 7.42402 35.12C7.47069 35.4 7.51736 35.68 7.56402 35.96C7.61069 36.1933 7.63402 36.3567 7.63402 36.45C7.72736 36.6833 7.79736 37.08 7.84402 37.64C7.93736 38.2 8.03069 38.5267 8.12402 38.62C8.12402 38.76 8.14736 39.0167 8.19402 39.39C8.28736 39.7633 8.35736 40.16 8.40402 40.58C8.49736 40.9533 8.56736 41.3267 8.61402 41.7C8.70736 42.0267 8.75402 42.26 8.75402 42.4C8.84736 42.4933 8.94069 42.7733 9.03402 43.24C9.12736 43.66 9.17402 43.9167 9.17402 44.01V44.29V44.71C9.17402 44.8033 9.12736 45.0133 9.03402 45.34C8.94069 45.62 8.84736 45.8067 8.75402 45.9C8.75402 45.9467 8.66069 46.11 8.47402 46.39C8.33402 46.67 8.21736 46.8567 8.12402 46.95L7.28402 47.79C7.23736 47.8367 7.07402 47.9533 6.79402 48.14C6.51402 48.3267 6.32736 48.4433 6.23402 48.49C6.14069 48.5833 6.04736 48.63 5.95402 48.63C5.86069 48.6767 5.76736 48.7233 5.67402 48.77C5.53402 48.8167 5.44069 48.84 5.39402 48.84C5.25402 48.8867 5.13736 48.9333 5.04402 48.98C4.99736 49.0267 4.92736 49.05 4.83402 49.05H4.69402C4.50736 49.05 4.34402 49.0267 4.20402 48.98C4.06402 48.9333 3.94736 48.8867 3.85402 48.84C3.76069 48.84 3.69069 48.8167 3.64402 48.77C3.55069 48.6767 3.50402 48.5833 3.50402 48.49C3.50402 48.4433 3.45736 48.2333 3.36402 47.86C3.27069 47.4867 3.17736 47.1833 3.08402 46.95C3.03736 46.67 2.94402 46.25 2.80402 45.69C2.71069 45.13 2.61736 44.5467 2.52402 43.94C2.43069 43.3333 2.31402 42.7733 2.17402 42.26C2.08069 41.7467 2.01069 41.42 1.96402 41.28C1.96402 41.2333 1.94069 41.1167 1.89402 40.93C1.84736 40.6967 1.80069 40.44 1.75402 40.16C1.75402 39.88 1.73069 39.6 1.68402 39.32C1.63736 39.04 1.61402 38.8067 1.61402 38.62C1.61402 38.48 1.59069 38.2467 1.54402 37.92C1.49736 37.5933 1.45069 37.2667 1.40402 36.94C1.35736 36.6133 1.31069 36.3333 1.26402 36.1C1.21736 35.82 1.19402 35.6567 1.19402 35.61C1.19402 35.33 1.17069 34.91 1.12402 34.35C1.12402 33.79 1.10069 33.2067 1.05402 32.6C1.00736 31.9467 0.984023 31.3867 0.984023 30.92C0.937357 30.4067 0.914023 30.08 0.914023 29.94V21.4V12.93C0.914023 12.8367 0.96069 12.65 1.05402 12.37C1.14736 12.09 1.19402 11.9267 1.19402 11.88C1.28736 11.7867 1.38069 11.6233 1.47402 11.39C1.52069 11.25 1.56736 11.1333 1.61402 11.04C1.70736 10.9467 1.84736 10.8067 2.03402 10.62C2.22069 10.4333 2.40736 10.2467 2.59402 10.06C2.78069 9.82666 2.94402 9.64 3.08402 9.5C3.27069 9.31333 3.41069 9.19667 3.50402 9.15C3.59736 9.05666 3.83069 8.94 4.20402 8.8C4.62402 8.61333 4.88069 8.47333 4.97402 8.38H5.60402H6.23402C6.28069 8.47333 6.32736 8.54333 6.37402 8.59L6.58402 8.8C6.63069 8.89333 6.67736 9.15 6.72402 9.57C6.81736 9.94333 6.86402 10.1767 6.86402 10.27V28.89C7.00402 28.7967 7.26069 28.6567 7.63402 28.47C8.00736 28.2833 8.38069 28.0967 8.75402 27.91C9.17402 27.7233 9.54736 27.56 9.87402 27.42C10.2474 27.2333 10.504 27.0933 10.644 27C10.7374 26.9067 10.924 26.7667 11.204 26.58C11.5307 26.3933 11.764 26.2533 11.904 26.16C12.0907 26.02 12.3474 25.8333 12.674 25.6C13.0007 25.32 13.304 25.0633 13.584 24.83C13.9107 24.55 14.1907 24.34 14.424 24.2C14.704 24.0133 14.844 23.92 14.844 23.92C15.0307 23.7333 15.3574 23.4067 15.824 22.94C16.3374 22.4733 16.8507 21.9833 17.364 21.47C17.924 20.91 18.4374 20.3967 18.904 19.93C19.3707 19.4633 19.674 19.1133 19.814 18.88C19.8607 18.88 19.9074 18.7867 19.954 18.6C20.0474 18.3667 20.1407 18.25 20.234 18.25C20.234 18.2033 20.2807 18.0167 20.374 17.69C20.4674 17.3167 20.514 17.0833 20.514 16.99C20.5607 16.9433 20.584 16.8967 20.584 16.85C20.584 16.7567 20.6074 16.6867 20.654 16.64C20.7007 16.5467 20.7707 16.4533 20.864 16.36C21.004 16.1267 21.214 15.8467 21.494 15.52C21.8207 15.1467 22.0307 14.9133 22.124 14.82C22.2174 14.7267 22.4974 14.4933 22.964 14.12C23.4307 13.7 23.7807 13.3967 24.014 13.21L24.294 13.07C24.4807 12.9767 24.5974 12.93 24.644 12.93C24.784 12.8367 24.994 12.7667 25.274 12.72C25.6007 12.6267 25.8107 12.58 25.904 12.58L26.184 12.51C26.2307 12.51 26.2774 12.5333 26.324 12.58C26.3707 12.58 26.4174 12.58 26.464 12.58H26.534C26.8607 12.58 27.024 12.6967 27.024 12.93V13.84V14.82C27.024 14.8667 26.9774 14.9833 26.884 15.17C26.7907 15.3567 26.674 15.5667 26.534 15.8C26.4407 16.0333 26.324 16.2667 26.184 16.5C26.044 16.7333 25.9507 16.8967 25.904 16.99C25.8107 17.1767 25.554 17.5733 25.134 18.18C24.7607 18.74 24.4807 19.16 24.294 19.44C24.2474 19.58 24.014 19.8833 23.594 20.35C23.174 20.8167 22.894 21.1433 22.754 21.33C22.614 21.5167 22.334 21.8433 21.914 22.31C21.494 22.7767 21.0274 23.2667 20.514 23.78C20.0474 24.2933 19.604 24.7833 19.184 25.25C18.764 25.7167 18.484 26.02 18.344 26.16C18.4374 26.2533 18.624 26.3933 18.904 26.58C19.184 26.7667 19.3707 26.9067 19.464 27C19.5574 27.0933 19.6974 27.2333 19.884 27.42C20.0707 27.56 20.2574 27.7467 20.444 27.98C20.6774 28.1667 20.864 28.3533 21.004 28.54C21.1907 28.7267 21.3074 28.8433 21.354 28.89C21.4474 28.9367 21.6574 29.31 21.984 30.01C22.3107 30.6633 22.5674 31.1533 22.754 31.48C22.8007 31.62 22.9874 31.9933 23.314 32.6C23.6407 33.2067 23.9674 33.8367 24.294 34.49C24.6674 35.1433 24.994 35.7733 25.274 36.38C25.6007 36.9867 25.8107 37.36 25.904 37.5C25.904 37.5933 25.974 37.8033 26.114 38.13C26.3007 38.41 26.5107 38.76 26.744 39.18C26.9774 39.5533 27.2107 39.95 27.444 40.37C27.724 40.7433 27.934 41.0467 28.074 41.28C28.1674 41.3733 28.3074 41.56 28.494 41.84C28.6807 42.12 28.8207 42.3067 28.914 42.4C29.0074 42.5867 29.194 42.8667 29.474 43.24C29.754 43.5667 29.9174 43.8233 29.964 44.01C30.1507 44.2433 30.4307 44.6167 30.804 45.13C31.224 45.6433 31.4807 45.9 31.574 45.9C31.714 46.0867 32.0174 46.4133 32.484 46.88C32.9507 47.3467 33.4407 47.8367 33.954 48.35C34.4674 48.8633 34.9574 49.3533 35.424 49.82C35.8907 50.2867 36.2407 50.59 36.474 50.73C36.474 50.8233 36.5207 50.9633 36.614 51.15C36.754 51.3367 36.824 51.4767 36.824 51.57V51.64V51.99C36.7307 52.13 36.5907 52.3867 36.404 52.76C36.264 53.1333 36.194 53.3667 36.194 53.46C36.1007 53.5533 35.9374 53.7167 35.704 53.95C35.5174 54.1833 35.284 54.4167 35.004 54.65C34.7707 54.8833 34.5374 55.0933 34.304 55.28C34.0707 55.5133 33.884 55.6767 33.744 55.77L33.324 55.91C33.044 56.0033 32.834 56.05 32.694 56.05H32.414H31.854C31.714 56.0033 31.5974 55.9567 31.504 55.91C31.4574 55.91 31.4107 55.8867 31.364 55.84C31.364 55.84 31.3407 55.84 31.294 55.84C31.2474 55.84 31.2007 55.8167 31.154 55.77C31.0607 55.5833 30.804 55.35 30.384 55.07C30.0107 54.79 29.7774 54.6033 29.684 54.51C29.4974 54.4633 29.1707 54.1833 28.704 53.67C28.2374 53.2033 27.934 52.8533 27.794 52.62C27.7007 52.5267 27.5374 52.3633 27.304 52.13C27.0707 51.8967 26.8374 51.64 26.604 51.36C26.3707 51.08 26.1374 50.8233 25.904 50.59C25.6707 50.3567 25.5307 50.1933 25.484 50.1C25.4374 50.0067 25.2974 49.82 25.064 49.54C24.8774 49.26 24.6674 48.9567 24.434 48.63C24.2007 48.3033 23.9674 47.9767 23.734 47.65C23.5007 47.3233 23.3374 47.09 23.244 46.95C23.1507 46.8567 23.0107 46.67 22.824 46.39C22.6374 46.11 22.4974 45.9467 22.404 45.9C22.264 45.6667 22.0074 45.2467 21.634 44.64C21.2607 43.9867 20.8874 43.31 20.514 42.61C20.1407 41.91 19.7674 41.2567 19.394 40.65C19.0207 40.0433 18.764 39.6233 18.624 39.39L17.994 39.04ZM43.5921 47.51C43.4055 47.51 43.0321 47.4167 42.4721 47.23C41.9121 46.9967 41.5388 46.88 41.3521 46.88C41.2588 46.8333 41.0721 46.74 40.7921 46.6C40.5588 46.46 40.2788 46.32 39.9521 46.18C39.6255 45.9933 39.2988 45.83 38.9721 45.69C38.6921 45.55 38.5055 45.4333 38.4121 45.34C38.2721 45.2467 38.0388 45.1067 37.7121 44.92C37.4321 44.7333 37.2455 44.5933 37.1521 44.5C37.0121 44.4067 36.7788 44.1967 36.4521 43.87C36.1721 43.5433 35.8455 43.1933 35.4721 42.82C35.1455 42.4467 34.8188 42.0967 34.4921 41.77C34.1655 41.3967 33.9321 41.14 33.7921 41C33.7455 41 33.6288 40.8833 33.4421 40.65C33.2555 40.37 33.1388 40.1367 33.0921 39.95C32.9988 39.81 32.8821 39.6 32.7421 39.32C32.6021 39.04 32.4388 38.76 32.2521 38.48C32.1121 38.1533 31.9721 37.85 31.8321 37.57C31.6921 37.29 31.5755 37.08 31.4821 36.94C31.4821 36.8467 31.4355 36.66 31.3421 36.38C31.2488 36.1 31.2021 35.9367 31.2021 35.89V33.02V30.5C31.2021 30.4533 31.2255 30.3367 31.2721 30.15C31.3188 29.9633 31.3655 29.7533 31.4121 29.52C31.5055 29.2867 31.5755 29.0533 31.6221 28.82C31.7155 28.5867 31.8088 28.4233 31.9021 28.33C31.9021 28.2367 31.9488 28.0967 32.0421 27.91C32.1821 27.7233 32.2521 27.5833 32.2521 27.49C32.2988 27.3967 32.3921 27.2333 32.5321 27C32.7188 26.72 32.9055 26.4633 33.0921 26.23C33.2788 25.95 33.4421 25.7167 33.5821 25.53C33.7221 25.3433 33.7921 25.25 33.7921 25.25C33.8388 25.2033 33.9555 25.0867 34.1421 24.9C34.3755 24.6667 34.6088 24.4333 34.8421 24.2C35.0755 23.92 35.3088 23.6633 35.5421 23.43C35.7755 23.1967 35.9388 23.0333 36.0321 22.94C36.1721 22.8467 36.4288 22.66 36.8021 22.38C37.1755 22.1 37.4321 21.9133 37.5721 21.82C37.7121 21.7267 37.9221 21.61 38.2021 21.47C38.4821 21.2833 38.7855 21.12 39.1121 20.98C39.4388 20.7933 39.7421 20.63 40.0221 20.49C40.3021 20.35 40.5121 20.2567 40.6521 20.21C40.7921 20.21 41.0488 20.1633 41.4221 20.07C41.7955 19.9767 42.0521 19.93 42.1921 19.93H44.4321H46.7421C46.8355 19.93 47.0455 19.9767 47.3721 20.07C47.7455 20.1633 48.0255 20.21 48.2121 20.21C48.2588 20.21 48.3755 20.28 48.5621 20.42C48.7488 20.56 48.8655 20.6767 48.9121 20.77C49.0988 20.8167 49.3321 20.98 49.6121 21.26C49.9388 21.54 50.1021 21.7267 50.1021 21.82C50.1021 21.8667 50.1255 21.9833 50.1722 22.17C50.2188 22.3567 50.2421 22.5667 50.2421 22.8C50.2888 22.9867 50.3355 23.1733 50.3821 23.36C50.4288 23.5467 50.4755 23.6633 50.5222 23.71C50.5688 23.8033 50.6621 23.99 50.8021 24.27C50.9888 24.5033 51.1755 24.7833 51.3621 25.11C51.5955 25.39 51.8055 25.67 51.9921 25.95C52.1788 26.1833 52.3188 26.3467 52.4121 26.44C52.5055 26.4867 52.6921 26.7667 52.9721 27.28C53.2521 27.7933 53.4388 28.1433 53.5321 28.33C53.7188 28.6567 53.9755 29.1933 54.3021 29.94C54.6288 30.64 54.8388 31.0833 54.9321 31.27C55.0255 31.41 55.1888 31.7833 55.4221 32.39C55.6555 32.95 55.7721 33.3 55.7721 33.44C55.8188 33.72 55.8888 34.0933 55.9821 34.56C56.1221 35.0267 56.1922 35.2833 56.1922 35.33V36.8V38.06C56.1922 38.1533 56.1221 38.3867 55.9821 38.76C55.8888 39.0867 55.8188 39.39 55.7721 39.67C55.7721 39.7167 55.7021 39.88 55.5621 40.16C55.4688 40.44 55.4221 40.6267 55.4221 40.72C55.4221 40.8133 55.3521 40.9533 55.2122 41.14C55.1188 41.3267 55.0255 41.4667 54.9321 41.56C54.9321 41.6067 54.8388 41.77 54.6521 42.05C54.5121 42.33 54.3955 42.5167 54.3021 42.61C54.1155 42.75 53.8821 43.0067 53.6022 43.38C53.3221 43.7533 53.1355 44.01 53.0421 44.15L52.6921 44.5C52.6455 44.5933 52.4122 44.78 51.9921 45.06C51.5721 45.34 51.2921 45.5267 51.1522 45.62C51.0588 45.7133 50.8721 45.8767 50.5921 46.11C50.3121 46.2967 50.1488 46.39 50.1021 46.39C50.0088 46.4833 49.7288 46.6233 49.2621 46.81C48.8421 46.9967 48.6321 47.1367 48.6321 47.23C48.4455 47.2767 48.2588 47.51 48.0721 47.93C47.9321 48.35 47.8621 48.63 47.8621 48.77H47.6521H47.3721C47.3721 48.6767 47.2555 48.4667 47.0221 48.14C46.8355 47.8133 46.7421 47.6033 46.7421 47.51H46.6021H46.3221C46.2288 47.6033 46.0655 47.6967 45.8321 47.79C45.5988 47.8367 45.4821 47.8833 45.4821 47.93L44.8521 54.79L44.7121 54.86H44.5021C44.4555 54.86 44.4321 54.8367 44.4321 54.79C44.4321 54.6967 44.3621 54.4867 44.2221 54.16C44.1288 53.88 44.0821 53.6933 44.0821 53.6C44.0355 53.3667 43.9655 52.97 43.8721 52.41C43.8255 51.85 43.7788 51.2433 43.7321 50.59C43.6855 49.9367 43.6388 49.3067 43.5921 48.7C43.5921 48.14 43.5921 47.7433 43.5921 47.51ZM36.8721 30.92C36.8721 31.0133 36.9188 31.27 37.0121 31.69C37.1055 32.0633 37.1521 32.2967 37.1521 32.39C37.2455 32.4833 37.3621 32.6933 37.5021 33.02C37.6421 33.3 37.7821 33.6033 37.9221 33.93C38.1088 34.2567 38.2721 34.56 38.4121 34.84C38.5521 35.12 38.6688 35.2833 38.7621 35.33C38.8088 35.5167 38.9721 35.7967 39.2521 36.17C39.5321 36.4967 39.7188 36.7533 39.8121 36.94C39.9521 37.0333 40.2088 37.29 40.5821 37.71C40.9555 38.0833 41.2121 38.34 41.3521 38.48C41.5388 38.5733 41.7955 38.7833 42.1221 39.11C42.4955 39.39 42.7755 39.5767 42.9621 39.67C43.0088 39.67 43.1488 39.74 43.3821 39.88C43.6621 40.02 43.9655 40.1833 44.2921 40.37C44.6188 40.51 44.9455 40.65 45.2721 40.79C45.5988 40.93 45.8321 41 45.9721 41C46.0655 41.0933 46.2521 41.21 46.5321 41.35C46.8121 41.49 46.9755 41.56 47.0221 41.56C47.1621 41.56 47.3955 41.56 47.7221 41.56C48.0488 41.56 48.3755 41.5833 48.7021 41.63C49.0755 41.63 49.4021 41.63 49.6821 41.63C50.0088 41.63 50.2422 41.63 50.3821 41.63C50.3821 41.49 50.3588 41.2567 50.3121 40.93C50.3121 40.5567 50.2888 40.1833 50.2421 39.81C50.2421 39.39 50.2188 39.0167 50.1722 38.69C50.1255 38.3633 50.1021 38.1533 50.1021 38.06C50.1021 38.0133 50.0555 37.8967 49.9621 37.71C49.9155 37.5233 49.8455 37.3133 49.7521 37.08C49.7055 36.8467 49.6121 36.6133 49.4721 36.38C49.3788 36.1467 49.3088 35.9833 49.2621 35.89C49.2155 35.7967 49.1221 35.61 48.9821 35.33C48.8888 35.05 48.7721 34.7467 48.6321 34.42C48.4921 34.0933 48.3521 33.79 48.2121 33.51C48.0721 33.1833 47.9555 32.95 47.8621 32.81C47.7688 32.67 47.5821 32.3433 47.3021 31.83C47.0221 31.3167 46.8355 31.0133 46.7421 30.92C46.6488 30.78 46.4388 30.5233 46.1121 30.15C45.8321 29.73 45.6221 29.4733 45.4821 29.38C45.4821 29.2867 45.3655 29.17 45.1321 29.03C44.9455 28.8433 44.8521 28.7033 44.8521 28.61C44.7588 28.8433 44.6655 29.3333 44.5721 30.08C44.5255 30.8267 44.4788 31.3167 44.4321 31.55C44.4321 31.7367 44.3621 32.04 44.2221 32.46C44.1288 32.8333 44.0821 33.0667 44.0821 33.16H43.8721H43.5921C43.5921 33.0667 43.5221 32.88 43.3821 32.6C43.2888 32.32 43.2421 32.1567 43.2421 32.11C43.2421 31.97 43.2188 31.69 43.1721 31.27C43.1255 30.85 43.0788 30.4067 43.0321 29.94C43.0321 29.4733 43.0088 29.03 42.9621 28.61C42.9621 28.19 42.9621 27.91 42.9621 27.77C42.8688 27.7233 42.7755 27.56 42.6821 27.28C42.6355 27 42.5888 26.8133 42.5421 26.72L42.1921 26.44L41.9821 26.23C41.9821 26.23 41.9355 26.2767 41.8421 26.37C41.7955 26.4167 41.7488 26.44 41.7021 26.44C41.5621 26.58 41.3988 26.6967 41.2121 26.79C41.1188 26.8367 41.0255 26.8833 40.9321 26.93C40.8855 26.93 40.8388 26.9533 40.7921 27C40.6988 27.0467 40.6521 27.0933 40.6521 27.14C40.5588 27.14 40.4188 27.21 40.2321 27.35C40.0455 27.4433 39.9055 27.49 39.8121 27.49H39.3921H38.7621L38.4121 27.14C38.3188 27.0933 38.2255 26.9767 38.1321 26.79C38.0855 26.5567 38.0155 26.44 37.9221 26.44C37.8288 26.44 37.6888 26.5567 37.5021 26.79C37.3621 26.9767 37.2455 27.0933 37.1521 27.14C37.1055 27.28 37.0588 27.4433 37.0121 27.63C36.9188 28.0033 36.8721 28.2367 36.8721 28.33V29.59V30.92ZM61.6948 47.65C61.6948 47.7433 61.6248 47.8367 61.4848 47.93C61.3915 47.9767 61.3448 48.0233 61.3448 48.07C61.2515 48.2567 61.1348 48.63 60.9948 49.19C60.9015 49.75 60.8548 50.1233 60.8548 50.31L60.5048 49.68C60.5048 49.4933 60.4581 49.0967 60.3648 48.49C60.2715 47.8833 60.1781 47.51 60.0848 47.37C60.0848 47.2767 59.9681 47.02 59.7348 46.6C59.5481 46.1333 59.4548 45.8533 59.4548 45.76C59.3615 45.76 59.2448 45.5967 59.1048 45.27C59.0115 44.9433 58.9648 44.7333 58.9648 44.64C58.9181 44.5467 58.8481 44.36 58.7548 44.08C58.7081 43.7533 58.6381 43.4267 58.5448 43.1C58.4981 42.7733 58.4281 42.4933 58.3348 42.26C58.2881 41.98 58.2415 41.7933 58.1948 41.7C58.1948 41.56 58.1715 41.3033 58.1248 40.93C58.0781 40.5567 58.0081 40.16 57.9148 39.74C57.8681 39.2733 57.7981 38.8533 57.7048 38.48C57.6581 38.06 57.6115 37.7567 57.5648 37.57C57.5181 37.3367 57.4015 36.7533 57.2148 35.82C57.0748 34.8867 56.9115 33.8833 56.7248 32.81C56.5381 31.69 56.3748 30.6633 56.2348 29.73C56.0948 28.75 56.0248 28.1433 56.0248 27.91C55.9781 27.8167 55.9081 27.6067 55.8148 27.28C55.7681 26.9067 55.6981 26.51 55.6048 26.09C55.5115 25.67 55.4415 25.2733 55.3948 24.9C55.3015 24.5267 55.2315 24.27 55.1848 24.13C55.1848 24.0833 55.1381 23.92 55.0448 23.64C54.9048 23.36 54.8348 23.1733 54.8348 23.08C54.7881 23.08 54.6715 22.9167 54.4848 22.59C54.2515 22.2633 54.1348 22.0533 54.1348 21.96V20.98V20.07C54.1348 19.9767 54.1815 19.79 54.2748 19.51C54.3681 19.23 54.4148 19.0667 54.4148 19.02C54.5081 18.9267 54.6481 18.74 54.8348 18.46C54.9748 18.1333 55.0915 17.9233 55.1848 17.83C55.2781 17.69 55.4648 17.48 55.7448 17.2C56.0248 16.8733 56.2115 16.6633 56.3048 16.57C56.3981 16.5233 56.6081 16.4067 56.9348 16.22C57.2615 16.0333 57.4715 15.94 57.5648 15.94C57.5648 15.8933 57.7048 15.8467 57.9848 15.8C58.2648 15.7067 58.4748 15.6133 58.6148 15.52H58.8248H58.9648C59.0581 15.6133 59.1981 15.7533 59.3848 15.94C59.5715 16.08 59.7115 16.1967 59.8048 16.29C59.8515 16.3833 59.8981 16.5 59.9448 16.64C60.0381 16.92 60.0848 17.0833 60.0848 17.13C60.1781 17.1767 60.2715 17.34 60.3648 17.62C60.4581 17.9 60.5048 18.0867 60.5048 18.18C60.5515 18.32 60.5981 18.53 60.6448 18.81C60.7381 19.09 60.8315 19.3933 60.9248 19.72C61.0181 20 61.0881 20.28 61.1348 20.56C61.2281 20.84 61.2981 21.05 61.3448 21.19C61.3448 21.3767 61.3915 21.7033 61.4848 22.17C61.6248 22.6367 61.6948 22.94 61.6948 23.08C61.7881 22.94 61.9748 22.73 62.2548 22.45C62.5348 22.17 62.8381 21.89 63.1648 21.61C63.4915 21.2833 63.7948 20.98 64.0748 20.7C64.3548 20.42 64.5415 20.21 64.6348 20.07C64.7281 20.07 64.9615 19.9067 65.3348 19.58C65.7548 19.2533 66.0348 19.0667 66.1748 19.02C66.2681 18.9733 66.5015 18.81 66.8748 18.53C67.0615 18.39 67.2248 18.2733 67.3648 18.18C67.5048 18.0867 67.8081 17.97 68.2748 17.83C68.7415 17.6433 69.0681 17.5033 69.2548 17.41C69.4881 17.3167 69.8848 17.2467 70.4448 17.2C71.0048 17.1533 71.3781 17.13 71.5648 17.13C71.6115 17.13 71.7515 17.13 71.9848 17.13C72.2648 17.13 72.5448 17.1533 72.8248 17.2C73.1048 17.2 73.3615 17.2233 73.5948 17.27C73.8281 17.3167 73.9915 17.3633 74.0848 17.41C74.2248 17.41 74.4815 17.5267 74.8548 17.76C75.2281 17.9467 75.4848 18.0867 75.6248 18.18C75.7181 18.2733 75.8815 18.4133 76.1148 18.6C76.3481 18.7867 76.4648 18.9267 76.4648 19.02V19.93V21.19C76.4648 21.2833 76.3948 21.47 76.2548 21.75C76.1615 22.03 76.0681 22.1933 75.9748 22.24C75.8815 22.4267 75.6948 22.73 75.4148 23.15C75.1348 23.5233 74.9715 23.7567 74.9248 23.85C74.9248 24.2233 74.9015 24.8533 74.8548 25.74C74.8081 26.58 74.7615 27.49 74.7148 28.47C74.7148 29.4033 74.6915 30.3133 74.6448 31.2C74.5981 32.04 74.5748 32.6233 74.5748 32.95C74.5748 33.09 74.5515 33.3233 74.5048 33.65C74.5048 33.9767 74.4815 34.3267 74.4348 34.7C74.3881 35.0267 74.3181 35.3533 74.2248 35.68C74.1781 35.96 74.1315 36.17 74.0848 36.31C74.0848 36.4967 74.0148 36.8 73.8748 37.22C73.7815 37.5933 73.7348 37.8267 73.7348 37.92V24.69C73.7348 24.5967 73.6881 24.5033 73.5948 24.41C73.5015 24.3167 73.4548 24.2233 73.4548 24.13H73.0348H72.6848C72.5915 24.2233 72.4981 24.3167 72.4048 24.41C72.3581 24.5033 72.2881 24.5967 72.1948 24.69C72.1948 24.69 72.1715 24.7833 72.1248 24.97C72.0781 25.1567 72.0315 25.3667 71.9848 25.6C71.9848 25.7867 71.9615 25.9967 71.9148 26.23C71.8681 26.4167 71.8448 26.5333 71.8448 26.58C71.7981 26.6267 71.7281 26.79 71.6348 27.07C71.5881 27.35 71.5648 27.5367 71.5648 27.63C71.4248 27.8167 71.2848 27.91 71.1448 27.91L70.7948 27.28C70.7481 27.14 70.7015 26.8833 70.6548 26.51C70.6081 26.1367 70.5615 25.7633 70.5148 25.39C70.5148 24.97 70.4915 24.5967 70.4448 24.27C70.3981 23.8967 70.3515 23.64 70.3048 23.5C70.3048 23.4533 70.2115 23.3833 70.0248 23.29C69.8848 23.15 69.7681 23.08 69.6748 23.08H68.2748H67.0148C66.9215 23.1733 66.7581 23.3133 66.5248 23.5C66.2915 23.64 66.1748 23.7567 66.1748 23.85C66.1281 23.99 66.0115 24.3633 65.8248 24.97C65.6381 25.53 65.5215 25.88 65.4748 26.02V30.43V34.84C65.4748 34.9333 65.4748 35.19 65.4748 35.61C65.5215 35.9833 65.5681 36.4267 65.6148 36.94C65.6615 37.4067 65.7081 37.85 65.7548 38.27C65.8015 38.6433 65.8481 38.8767 65.8948 38.97V40.86V42.4C65.8015 42.54 65.7315 42.7033 65.6848 42.89C65.6381 43.03 65.5915 43.17 65.5448 43.31C65.4981 43.4033 65.4748 43.4967 65.4748 43.59C65.4748 43.6367 65.4048 43.7533 65.2648 43.94C65.1715 44.1267 65.1248 44.2433 65.1248 44.29C65.0315 44.3833 64.8915 44.5933 64.7048 44.92C64.5181 45.2 64.3781 45.3867 64.2848 45.48C64.2381 45.62 64.0748 45.8767 63.7948 46.25C63.5148 46.6233 63.3281 46.88 63.2348 47.02C63.1881 47.3467 63.1415 47.9067 63.0948 48.7C63.0481 49.54 63.0015 50.4033 62.9548 51.29C62.9548 52.2233 62.9315 53.0867 62.8848 53.88C62.8381 54.72 62.7915 55.3033 62.7448 55.63C62.7448 55.77 62.7215 55.98 62.6748 56.26C62.6281 56.5867 62.5815 56.9133 62.5348 57.24C62.5348 57.5667 62.5115 57.87 62.4648 58.15C62.4181 58.43 62.3948 58.6167 62.3948 58.71C62.3948 58.7567 62.3481 58.8733 62.2548 59.06C62.1615 59.2467 62.0681 59.3633 61.9748 59.41C61.9748 59.27 61.9281 58.8967 61.8348 58.29C61.7415 57.73 61.6948 57.38 61.6948 57.24V47.65ZM85.4964 47.51C85.3098 47.51 84.9364 47.4167 84.3764 47.23C83.8164 46.9967 83.4431 46.88 83.2564 46.88C83.1631 46.8333 82.9764 46.74 82.6964 46.6C82.4631 46.46 82.1831 46.32 81.8564 46.18C81.5298 45.9933 81.2031 45.83 80.8764 45.69C80.5964 45.55 80.4098 45.4333 80.3164 45.34C80.1764 45.2467 79.9431 45.1067 79.6164 44.92C79.3364 44.7333 79.1498 44.5933 79.0564 44.5C78.9164 44.4067 78.6831 44.1967 78.3564 43.87C78.0764 43.5433 77.7498 43.1933 77.3764 42.82C77.0498 42.4467 76.7231 42.0967 76.3964 41.77C76.0698 41.3967 75.8364 41.14 75.6964 41C75.6498 41 75.5331 40.8833 75.3464 40.65C75.1598 40.37 75.0431 40.1367 74.9964 39.95C74.9031 39.81 74.7864 39.6 74.6464 39.32C74.5064 39.04 74.3431 38.76 74.1564 38.48C74.0164 38.1533 73.8764 37.85 73.7364 37.57C73.5964 37.29 73.4798 37.08 73.3864 36.94C73.3864 36.8467 73.3398 36.66 73.2464 36.38C73.1531 36.1 73.1064 35.9367 73.1064 35.89V33.02V30.5C73.1064 30.4533 73.1298 30.3367 73.1764 30.15C73.2231 29.9633 73.2698 29.7533 73.3164 29.52C73.4098 29.2867 73.4798 29.0533 73.5264 28.82C73.6198 28.5867 73.7131 28.4233 73.8064 28.33C73.8064 28.2367 73.8531 28.0967 73.9464 27.91C74.0864 27.7233 74.1564 27.5833 74.1564 27.49C74.2031 27.3967 74.2964 27.2333 74.4364 27C74.6231 26.72 74.8098 26.4633 74.9964 26.23C75.1831 25.95 75.3464 25.7167 75.4864 25.53C75.6264 25.3433 75.6964 25.25 75.6964 25.25C75.7431 25.2033 75.8598 25.0867 76.0464 24.9C76.2798 24.6667 76.5131 24.4333 76.7464 24.2C76.9798 23.92 77.2131 23.6633 77.4464 23.43C77.6798 23.1967 77.8431 23.0333 77.9364 22.94C78.0764 22.8467 78.3331 22.66 78.7064 22.38C79.0798 22.1 79.3364 21.9133 79.4764 21.82C79.6164 21.7267 79.8264 21.61 80.1064 21.47C80.3864 21.2833 80.6898 21.12 81.0164 20.98C81.3431 20.7933 81.6464 20.63 81.9264 20.49C82.2064 20.35 82.4164 20.2567 82.5564 20.21C82.6964 20.21 82.9531 20.1633 83.3264 20.07C83.6998 19.9767 83.9564 19.93 84.0964 19.93H86.3364H88.6464C88.7398 19.93 88.9498 19.9767 89.2764 20.07C89.6498 20.1633 89.9298 20.21 90.1164 20.21C90.1631 20.21 90.2798 20.28 90.4664 20.42C90.6531 20.56 90.7698 20.6767 90.8164 20.77C91.0031 20.8167 91.2364 20.98 91.5164 21.26C91.8431 21.54 92.0064 21.7267 92.0064 21.82C92.0064 21.8667 92.0298 21.9833 92.0764 22.17C92.1231 22.3567 92.1464 22.5667 92.1464 22.8C92.1931 22.9867 92.2398 23.1733 92.2864 23.36C92.3331 23.5467 92.3798 23.6633 92.4264 23.71C92.4731 23.8033 92.5664 23.99 92.7064 24.27C92.8931 24.5033 93.0798 24.7833 93.2664 25.11C93.4998 25.39 93.7098 25.67 93.8964 25.95C94.0831 26.1833 94.2231 26.3467 94.3164 26.44C94.4098 26.4867 94.5964 26.7667 94.8764 27.28C95.1564 27.7933 95.3431 28.1433 95.4364 28.33C95.6231 28.6567 95.8798 29.1933 96.2064 29.94C96.5331 30.64 96.7431 31.0833 96.8364 31.27C96.9298 31.41 97.0931 31.7833 97.3264 32.39C97.5598 32.95 97.6764 33.3 97.6764 33.44C97.7231 33.72 97.7931 34.0933 97.8864 34.56C98.0264 35.0267 98.0964 35.2833 98.0964 35.33V36.8V38.06C98.0964 38.1533 98.0264 38.3867 97.8864 38.76C97.7931 39.0867 97.7231 39.39 97.6764 39.67C97.6764 39.7167 97.6064 39.88 97.4664 40.16C97.3731 40.44 97.3264 40.6267 97.3264 40.72C97.3264 40.8133 97.2564 40.9533 97.1164 41.14C97.0231 41.3267 96.9298 41.4667 96.8364 41.56C96.8364 41.6067 96.7431 41.77 96.5564 42.05C96.4164 42.33 96.2998 42.5167 96.2064 42.61C96.0198 42.75 95.7864 43.0067 95.5064 43.38C95.2264 43.7533 95.0398 44.01 94.9464 44.15L94.5964 44.5C94.5498 44.5933 94.3164 44.78 93.8964 45.06C93.4764 45.34 93.1964 45.5267 93.0564 45.62C92.9631 45.7133 92.7764 45.8767 92.4964 46.11C92.2164 46.2967 92.0531 46.39 92.0064 46.39C91.9131 46.4833 91.6331 46.6233 91.1664 46.81C90.7464 46.9967 90.5364 47.1367 90.5364 47.23C90.3498 47.2767 90.1631 47.51 89.9764 47.93C89.8364 48.35 89.7664 48.63 89.7664 48.77H89.5564H89.2764C89.2764 48.6767 89.1598 48.4667 88.9264 48.14C88.7398 47.8133 88.6464 47.6033 88.6464 47.51H88.5064H88.2264C88.1331 47.6033 87.9698 47.6967 87.7364 47.79C87.5031 47.8367 87.3864 47.8833 87.3864 47.93L86.7564 54.79L86.6164 54.86H86.4064C86.3598 54.86 86.3364 54.8367 86.3364 54.79C86.3364 54.6967 86.2664 54.4867 86.1264 54.16C86.0331 53.88 85.9864 53.6933 85.9864 53.6C85.9398 53.3667 85.8698 52.97 85.7764 52.41C85.7298 51.85 85.6831 51.2433 85.6364 50.59C85.5898 49.9367 85.5431 49.3067 85.4964 48.7C85.4964 48.14 85.4964 47.7433 85.4964 47.51ZM78.7764 30.92C78.7764 31.0133 78.8231 31.27 78.9164 31.69C79.0098 32.0633 79.0564 32.2967 79.0564 32.39C79.1498 32.4833 79.2664 32.6933 79.4064 33.02C79.5464 33.3 79.6864 33.6033 79.8264 33.93C80.0131 34.2567 80.1764 34.56 80.3164 34.84C80.4564 35.12 80.5731 35.2833 80.6664 35.33C80.7131 35.5167 80.8764 35.7967 81.1564 36.17C81.4364 36.4967 81.6231 36.7533 81.7164 36.94C81.8564 37.0333 82.1131 37.29 82.4864 37.71C82.8598 38.0833 83.1164 38.34 83.2564 38.48C83.4431 38.5733 83.6998 38.7833 84.0264 39.11C84.3998 39.39 84.6798 39.5767 84.8664 39.67C84.9131 39.67 85.0531 39.74 85.2864 39.88C85.5664 40.02 85.8698 40.1833 86.1964 40.37C86.5231 40.51 86.8498 40.65 87.1764 40.79C87.5031 40.93 87.7364 41 87.8764 41C87.9698 41.0933 88.1564 41.21 88.4364 41.35C88.7164 41.49 88.8798 41.56 88.9264 41.56C89.0664 41.56 89.2998 41.56 89.6264 41.56C89.9531 41.56 90.2798 41.5833 90.6064 41.63C90.9798 41.63 91.3064 41.63 91.5864 41.63C91.9131 41.63 92.1464 41.63 92.2864 41.63C92.2864 41.49 92.2631 41.2567 92.2164 40.93C92.2164 40.5567 92.1931 40.1833 92.1464 39.81C92.1464 39.39 92.1231 39.0167 92.0764 38.69C92.0298 38.3633 92.0064 38.1533 92.0064 38.06C92.0064 38.0133 91.9598 37.8967 91.8664 37.71C91.8198 37.5233 91.7498 37.3133 91.6564 37.08C91.6098 36.8467 91.5164 36.6133 91.3764 36.38C91.2831 36.1467 91.2131 35.9833 91.1664 35.89C91.1198 35.7967 91.0264 35.61 90.8864 35.33C90.7931 35.05 90.6764 34.7467 90.5364 34.42C90.3964 34.0933 90.2564 33.79 90.1164 33.51C89.9764 33.1833 89.8598 32.95 89.7664 32.81C89.6731 32.67 89.4864 32.3433 89.2064 31.83C88.9264 31.3167 88.7398 31.0133 88.6464 30.92C88.5531 30.78 88.3431 30.5233 88.0164 30.15C87.7364 29.73 87.5264 29.4733 87.3864 29.38C87.3864 29.2867 87.2698 29.17 87.0364 29.03C86.8498 28.8433 86.7564 28.7033 86.7564 28.61C86.6631 28.8433 86.5698 29.3333 86.4764 30.08C86.4298 30.8267 86.3831 31.3167 86.3364 31.55C86.3364 31.7367 86.2664 32.04 86.1264 32.46C86.0331 32.8333 85.9864 33.0667 85.9864 33.16H85.7764H85.4964C85.4964 33.0667 85.4264 32.88 85.2864 32.6C85.1931 32.32 85.1464 32.1567 85.1464 32.11C85.1464 31.97 85.1231 31.69 85.0764 31.27C85.0298 30.85 84.9831 30.4067 84.9364 29.94C84.9364 29.4733 84.9131 29.03 84.8664 28.61C84.8664 28.19 84.8664 27.91 84.8664 27.77C84.7731 27.7233 84.6798 27.56 84.5864 27.28C84.5398 27 84.4931 26.8133 84.4464 26.72L84.0964 26.44L83.8864 26.23C83.8864 26.23 83.8398 26.2767 83.7464 26.37C83.6998 26.4167 83.6531 26.44 83.6064 26.44C83.4664 26.58 83.3031 26.6967 83.1164 26.79C83.0231 26.8367 82.9298 26.8833 82.8364 26.93C82.7898 26.93 82.7431 26.9533 82.6964 27C82.6031 27.0467 82.5564 27.0933 82.5564 27.14C82.4631 27.14 82.3231 27.21 82.1364 27.35C81.9498 27.4433 81.8098 27.49 81.7164 27.49H81.2964H80.6664L80.3164 27.14C80.2231 27.0933 80.1298 26.9767 80.0364 26.79C79.9898 26.5567 79.9198 26.44 79.8264 26.44C79.7331 26.44 79.5931 26.5567 79.4064 26.79C79.2664 26.9767 79.1498 27.0933 79.0564 27.14C79.0098 27.28 78.9631 27.4433 78.9164 27.63C78.8231 28.0033 78.7764 28.2367 78.7764 28.33V29.59V30.92ZM117.669 48.91C117.576 48.91 117.506 48.8867 117.459 48.84C117.412 48.84 117.342 48.84 117.249 48.84H117.039C117.039 48.9333 116.992 48.98 116.899 48.98C116.806 48.98 116.759 49.0033 116.759 49.05C116.619 49.2367 116.409 49.5867 116.129 50.1C115.896 50.66 115.756 51.0333 115.709 51.22C115.709 51.1267 115.709 50.9633 115.709 50.73C115.756 50.4967 115.779 50.3333 115.779 50.24C115.732 50.1933 115.686 49.9133 115.639 49.4C115.592 48.8867 115.569 48.5367 115.569 48.35C115.429 48.35 115.172 48.28 114.799 48.14C114.472 48 114.122 47.86 113.749 47.72C113.376 47.58 113.002 47.44 112.629 47.3C112.256 47.16 111.999 47.09 111.859 47.09C111.719 47.0433 111.509 46.95 111.229 46.81C110.949 46.6233 110.646 46.4367 110.319 46.25C109.992 46.0167 109.689 45.8067 109.409 45.62C109.176 45.4333 109.012 45.2933 108.919 45.2C108.826 45.2 108.686 45.1533 108.499 45.06C108.312 44.92 108.102 44.7567 107.869 44.57C107.636 44.3833 107.402 44.22 107.169 44.08C106.982 43.94 106.842 43.8233 106.749 43.73C106.609 43.6367 106.469 43.52 106.329 43.38L105.699 42.75C105.559 42.5633 105.349 42.3067 105.069 41.98C104.836 41.6067 104.672 41.3733 104.579 41.28C104.486 41.1867 104.276 40.93 103.949 40.51C103.622 40.0433 103.412 39.74 103.319 39.6C103.226 39.6 103.132 39.4367 103.039 39.11C102.946 38.7367 102.876 38.4567 102.829 38.27C102.829 38.1767 102.759 37.92 102.619 37.5C102.479 37.0333 102.386 36.7533 102.339 36.66C102.339 36.52 102.316 36.31 102.269 36.03C102.222 35.7033 102.199 35.4933 102.199 35.4C102.246 35.1667 102.292 34.9567 102.339 34.77C102.386 34.5833 102.432 34.42 102.479 34.28C102.526 34.0933 102.549 33.9533 102.549 33.86C102.549 33.6267 102.596 33.3233 102.689 32.95L102.829 32.39C102.876 32.2967 102.969 32.2733 103.109 32.32C103.296 32.3667 103.459 32.4367 103.599 32.53C103.786 32.5767 103.949 32.6467 104.089 32.74C104.276 32.7867 104.416 32.7867 104.509 32.74V32.32C104.416 32.2733 104.182 32.18 103.809 32.04C103.482 31.8533 103.109 31.6667 102.689 31.48C102.316 31.2467 101.942 31.0133 101.569 30.78C101.242 30.5467 101.056 30.36 101.009 30.22C100.962 30.22 100.776 30.0567 100.449 29.73C100.122 29.3567 99.9124 29.0767 99.8191 28.89C99.7258 28.8433 99.6091 28.7267 99.4691 28.54C99.3291 28.3067 99.2591 28.1667 99.2591 28.12C99.2591 28.0267 99.1658 27.84 98.9791 27.56C98.8391 27.2333 98.7458 27.0233 98.6991 26.93C98.6058 26.6967 98.5124 26.37 98.4191 25.95C98.3258 25.4833 98.2558 25.1567 98.2091 24.97C97.2758 22.17 96.9258 19.8833 97.1591 18.11C97.3924 16.3367 98.0224 15.0067 99.0491 14.12C100.122 13.1867 101.499 12.65 103.179 12.51C104.859 12.37 106.656 12.5333 108.569 13C110.529 13.4667 112.489 14.19 114.449 15.17C116.456 16.1033 118.276 17.2233 119.909 18.53C121.589 19.8367 122.989 21.2833 124.109 22.87C125.276 24.41 125.999 25.9967 126.279 27.63C126.232 27.7233 126.209 27.7933 126.209 27.84V27.91L126.139 27.84C126.046 27.7933 125.952 27.7233 125.859 27.63C125.766 27.5833 125.672 27.5367 125.579 27.49C125.486 27.4433 125.392 27.4433 125.299 27.49C125.299 27.5833 125.182 27.8867 124.949 28.4C124.716 28.8667 124.599 29.1467 124.599 29.24C124.506 29.3333 124.342 29.45 124.109 29.59C123.922 29.73 123.782 29.8467 123.689 29.94C123.642 29.94 123.456 30.0567 123.129 30.29C122.849 30.4767 122.662 30.6167 122.569 30.71C122.476 30.71 122.382 30.71 122.289 30.71C122.196 30.6633 122.079 30.64 121.939 30.64C121.752 30.64 121.589 30.6167 121.449 30.57H121.239C121.006 30.57 120.866 30.5467 120.819 30.5H120.399C120.306 30.5 120.259 30.4533 120.259 30.36C120.306 30.22 120.282 30.15 120.189 30.15C120.236 30.0567 120.189 29.9167 120.049 29.73C119.956 29.4967 119.909 29.3333 119.909 29.24C119.909 29.1933 119.886 29.03 119.839 28.75C119.792 28.4233 119.722 28.1667 119.629 27.98C120.002 27.6067 120.212 27.21 120.259 26.79C120.306 26.37 120.259 25.9733 120.119 25.6C119.979 25.18 119.769 24.8533 119.489 24.62C119.209 24.34 118.952 24.1767 118.719 24.13C118.672 24.13 118.439 23.8733 118.019 23.36C117.646 22.8467 117.226 22.31 116.759 21.75C116.292 21.1433 115.849 20.6067 115.429 20.14C115.056 19.6267 114.846 19.37 114.799 19.37C114.799 19.4633 114.776 19.3467 114.729 19.02C114.682 18.6467 114.636 18.4833 114.589 18.53C114.496 18.7167 114.402 19.0433 114.309 19.51C114.262 19.6967 114.239 19.8833 114.239 20.07C114.192 20.4433 114.099 21.0033 113.959 21.75C113.819 22.4967 113.656 23.29 113.469 24.13C113.329 24.97 113.189 25.7633 113.049 26.51C112.909 27.2567 112.839 27.7933 112.839 28.12C113.352 28.6333 114.006 29.1 114.799 29.52C115.592 29.8933 116.292 30.2667 116.899 30.64C116.992 30.64 117.272 30.71 117.739 30.85C118.252 30.99 118.789 31.1533 119.349 31.34C119.956 31.48 120.516 31.6667 121.029 31.9C121.542 32.0867 121.869 32.2733 122.009 32.46C122.102 32.5533 122.266 32.6933 122.499 32.88C122.732 33.02 122.989 33.16 123.269 33.3C123.549 33.44 123.782 33.58 123.969 33.72C124.202 33.86 124.366 33.93 124.459 33.93C124.646 34.1633 124.996 34.4667 125.509 34.84C126.069 35.1667 126.419 35.4233 126.559 35.61C126.606 35.6567 126.746 35.7733 126.979 35.96C127.212 36.1467 127.446 36.3567 127.679 36.59C127.912 36.7767 128.122 36.9633 128.309 37.15C128.542 37.3367 128.706 37.4533 128.799 37.5C128.892 37.5933 129.032 37.7567 129.219 37.99C129.406 38.1767 129.592 38.3867 129.779 38.62C130.012 38.8533 130.222 39.0633 130.409 39.25C130.596 39.4367 130.736 39.53 130.829 39.53C130.876 39.6233 131.086 39.9733 131.459 40.58C131.879 41.14 132.182 41.5367 132.369 41.77C132.369 41.8633 132.392 42.0033 132.439 42.19C132.486 42.3767 132.509 42.5167 132.509 42.61C132.462 42.75 132.416 42.8667 132.369 42.96C132.276 43.24 132.229 43.4033 132.229 43.45C132.182 43.5433 132.159 43.7067 132.159 43.94C132.159 44.1733 132.136 44.3367 132.089 44.43C132.089 44.5233 132.019 44.6867 131.879 44.92C131.739 45.1533 131.646 45.2933 131.599 45.34C131.506 45.4333 131.296 45.62 130.969 45.9C130.689 46.1333 130.549 46.2967 130.549 46.39C130.409 46.53 130.082 46.7867 129.569 47.16C129.056 47.4867 128.706 47.7433 128.519 47.93C128.379 48.0233 128.122 48.1167 127.749 48.21C127.422 48.3033 127.166 48.3733 126.979 48.42C126.839 48.5133 126.559 48.5833 126.139 48.63C125.766 48.7233 125.532 48.8167 125.439 48.91C125.206 49.0033 124.786 49.0733 124.179 49.12C123.572 49.2133 123.199 49.2833 123.059 49.33C122.919 49.2833 122.662 49.26 122.289 49.26C121.962 49.26 121.589 49.26 121.169 49.26C120.796 49.26 120.422 49.26 120.049 49.26C119.676 49.26 119.419 49.26 119.279 49.26L118.789 58.01H118.509C118.509 57.9633 118.486 57.8233 118.439 57.59C118.439 57.4033 118.439 57.1933 118.439 56.96C118.439 56.7267 118.462 56.4933 118.509 56.26C118.556 56.0733 118.626 55.9567 118.719 55.91C118.672 55.63 118.602 55.1633 118.509 54.51C118.416 53.8567 118.322 53.1567 118.229 52.41C118.136 51.6633 118.066 50.9633 118.019 50.31C117.972 49.6567 117.996 49.19 118.089 48.91H117.669ZM108.989 32.81C108.989 32.9033 108.942 32.9967 108.849 33.09L108.709 33.23C108.802 33.4167 108.896 33.72 108.989 34.14C109.082 34.5133 109.152 34.7467 109.199 34.84C109.292 34.98 109.432 35.19 109.619 35.47C109.806 35.75 110.016 36.0533 110.249 36.38C110.482 36.7067 110.692 37.01 110.879 37.29C111.112 37.5233 111.299 37.71 111.439 37.85C111.439 37.9433 111.556 38.1533 111.789 38.48C112.069 38.8067 112.256 39.0167 112.349 39.11C112.489 39.2033 112.816 39.4133 113.329 39.74C113.842 40.0667 114.169 40.3467 114.309 40.58C114.449 40.6267 114.729 40.8133 115.149 41.14C115.616 41.4667 115.942 41.63 116.129 41.63C116.269 41.7233 116.432 41.8167 116.619 41.91C116.992 42.0967 117.249 42.19 117.389 42.19C117.669 42.4233 118.042 42.61 118.509 42.75C118.742 42.8433 118.999 42.9133 119.279 42.96C119.326 42.96 119.466 43.0067 119.699 43.1C119.979 43.1467 120.282 43.2167 120.609 43.31C120.936 43.3567 121.262 43.4267 121.589 43.52C121.916 43.5667 122.149 43.59 122.289 43.59C122.382 43.59 122.522 43.6133 122.709 43.66C122.942 43.7067 123.176 43.7533 123.409 43.8C123.642 43.8933 123.899 43.9633 124.179 44.01L124.599 43.66C124.506 43.6133 124.436 43.5667 124.389 43.52L124.179 43.31C124.039 43.17 123.899 43.0067 123.759 42.82C123.666 42.7267 123.549 42.6333 123.409 42.54C123.316 42.4 123.222 42.3067 123.129 42.26C122.989 42.12 122.732 41.8867 122.359 41.56C121.986 41.1867 121.752 40.9533 121.659 40.86C121.566 40.8133 121.356 40.6733 121.029 40.44C120.702 40.16 120.352 39.88 119.979 39.6C119.606 39.32 119.232 39.04 118.859 38.76C118.532 38.48 118.299 38.27 118.159 38.13C118.112 38.13 117.996 38.0833 117.809 37.99C117.669 37.85 117.482 37.71 117.249 37.57C117.016 37.3833 116.759 37.22 116.479 37.08C116.246 36.8933 116.059 36.7767 115.919 36.73C115.732 36.6367 115.406 36.4033 114.939 36.03C114.472 35.6567 114.216 35.47 114.169 35.47C113.936 35.3767 113.586 35.2133 113.119 34.98C112.652 34.7 112.139 34.42 111.579 34.14C111.066 33.8133 110.552 33.51 110.039 33.23C109.572 32.95 109.222 32.7167 108.989 32.53V32.81ZM104.999 20.21C104.952 20.35 104.882 20.63 104.789 21.05C104.696 21.47 104.649 21.7033 104.649 21.75C104.602 21.8433 104.649 22.1 104.789 22.52C104.929 22.8933 105.046 23.1733 105.139 23.36C105.232 23.7333 105.466 24.06 105.839 24.34C106.259 24.5733 106.539 24.7367 106.679 24.83C106.726 24.8767 106.842 24.9933 107.029 25.18C107.262 25.32 107.519 25.5067 107.799 25.74C108.079 25.9267 108.336 26.1367 108.569 26.37C108.849 26.5567 109.036 26.6967 109.129 26.79C109.549 26.8833 109.946 27.14 110.319 27.56C110.692 27.98 111.182 28.26 111.789 28.4C111.789 28.2133 111.812 28.05 111.859 27.91C111.952 27.77 111.999 27.6067 111.999 27.42C112.046 26.86 112.139 26.1367 112.279 25.25C112.419 24.3167 112.559 23.4067 112.699 22.52C112.839 21.5867 112.979 20.77 113.119 20.07C113.259 19.37 113.329 18.9733 113.329 18.88C113.329 18.74 113.329 18.5767 113.329 18.39C113.329 18.1567 113.282 18.04 113.189 18.04C113.142 18.04 113.049 18.2267 112.909 18.6C112.816 18.9733 112.676 19.6733 112.489 20.7L112.069 21.12C112.069 21.0267 112.022 20.84 111.929 20.56C111.882 20.2333 111.859 20.0467 111.859 20C111.859 19.8133 111.882 19.72 111.929 19.72C111.976 19.6733 111.999 19.58 111.999 19.44C112.419 19.2067 112.536 18.9733 112.349 18.74C112.209 18.46 111.882 18.2267 111.369 18.04C110.856 17.8067 110.226 17.6667 109.479 17.62C108.732 17.5733 108.032 17.62 107.379 17.76C106.726 17.8533 106.166 18.11 105.699 18.53C105.232 18.9033 104.999 19.4633 104.999 20.21ZM129.565 4.81C129.611 4.71666 129.658 4.6 129.705 4.46C129.798 4.18 129.845 4.01667 129.845 3.97C129.938 3.87666 130.078 3.69 130.265 3.41C130.498 3.13 130.615 2.96667 130.615 2.92C130.708 2.82666 130.895 2.64 131.175 2.36C131.455 2.03333 131.641 1.82333 131.735 1.73C131.828 1.68333 132.038 1.56666 132.365 1.38C132.691 1.14667 132.901 1.03 132.995 1.03C132.995 0.936665 133.135 0.843331 133.415 0.749999C133.695 0.656664 133.905 0.563331 134.045 0.469999H134.255H134.395L135.235 1.31C135.281 1.40333 135.328 1.54333 135.375 1.73C135.468 1.87 135.515 1.98666 135.515 2.08C135.608 2.22 135.701 2.59333 135.795 3.2C135.888 3.76 135.935 4.11 135.935 4.25C135.935 4.43666 135.935 4.99666 135.935 5.93C135.981 6.81667 136.005 7.93667 136.005 9.29C136.051 10.5967 136.075 11.9967 136.075 13.49C136.121 14.9833 136.145 16.3833 136.145 17.69C136.191 18.9967 136.215 20.1167 136.215 21.05C136.261 21.9833 136.285 22.52 136.285 22.66C136.425 22.6133 136.611 22.4967 136.845 22.31C137.078 22.0767 137.335 21.8433 137.615 21.61C137.895 21.33 138.151 21.0967 138.385 20.91C138.665 20.7233 138.875 20.5833 139.015 20.49C139.061 20.3967 139.225 20.2567 139.505 20.07C139.785 19.8833 139.971 19.7433 140.065 19.65C140.158 19.65 140.298 19.6033 140.485 19.51C140.671 19.37 140.811 19.3 140.905 19.3C140.998 19.3 141.091 19.2767 141.185 19.23C141.325 19.1833 141.441 19.1367 141.535 19.09C141.675 19.0433 141.815 18.9733 141.955 18.88H143.425H144.685L146.225 19.65C146.411 19.79 146.738 20.0933 147.205 20.56C147.671 21.0267 147.975 21.3533 148.115 21.54C148.208 21.6333 148.395 21.9367 148.675 22.45C148.955 22.9167 149.118 23.2433 149.165 23.43C149.211 23.5233 149.281 23.6867 149.375 23.92C149.515 24.1533 149.631 24.41 149.725 24.69C149.865 24.97 149.981 25.25 150.075 25.53C150.215 25.81 150.308 26.02 150.355 26.16C150.355 26.2533 150.401 26.44 150.495 26.72C150.635 27 150.751 27.3267 150.845 27.7C150.985 28.0267 151.101 28.3767 151.195 28.75C151.288 29.1233 151.358 29.4033 151.405 29.59C151.451 29.6833 151.521 29.8467 151.615 30.08C151.708 30.3133 151.801 30.57 151.895 30.85C151.988 31.0833 152.058 31.3167 152.105 31.55C152.198 31.7833 152.245 31.97 152.245 32.11C152.245 32.2967 152.338 32.7633 152.525 33.51C152.711 34.21 152.898 34.98 153.085 35.82C153.318 36.6133 153.528 37.3833 153.715 38.13C153.948 38.83 154.088 39.25 154.135 39.39C154.135 39.4833 154.181 39.6467 154.275 39.88C154.368 40.1133 154.438 40.3933 154.485 40.72C154.578 41 154.648 41.28 154.695 41.56C154.788 41.7933 154.835 41.9333 154.835 41.98C154.928 42.1667 154.998 42.47 155.045 42.89C155.138 43.2633 155.185 43.4967 155.185 43.59V43.8V43.87C155.185 43.9633 155.091 44.22 154.905 44.64C154.765 45.0133 154.648 45.2933 154.555 45.48C154.461 45.5733 154.321 45.76 154.135 46.04C153.995 46.32 153.878 46.5067 153.785 46.6C153.738 46.6933 153.691 46.7633 153.645 46.81C153.551 46.9033 153.435 46.95 153.295 46.95C153.201 46.9967 153.015 47.1133 152.735 47.3C152.455 47.4867 152.291 47.6033 152.245 47.65C152.011 47.8833 151.731 48 151.405 48C151.358 48.0467 151.288 48.0933 151.195 48.14C151.101 48.1867 150.961 48.21 150.775 48.21C150.541 48.21 150.378 48.1867 150.285 48.14L150.005 48C149.958 48 149.911 47.9767 149.865 47.93C149.818 47.8833 149.748 47.86 149.655 47.86C149.608 47.8133 149.561 47.7433 149.515 47.65C149.515 47.6033 149.445 47.4867 149.305 47.3C149.211 47.1133 149.165 46.9967 149.165 46.95C149.165 46.8567 149.118 46.67 149.025 46.39C148.931 46.0633 148.885 45.8533 148.885 45.76C148.791 45.5267 148.628 44.9667 148.395 44.08C148.161 43.1933 147.928 42.2367 147.695 41.21C147.461 40.1833 147.228 39.2267 146.995 38.34C146.761 37.4533 146.621 36.8933 146.575 36.66C146.481 36.4733 146.341 36.0533 146.155 35.4C145.968 34.7 145.828 34.2333 145.735 34C145.688 33.86 145.618 33.65 145.525 33.37C145.431 33.0433 145.315 32.7167 145.175 32.39C145.081 32.0167 144.965 31.6667 144.825 31.34C144.731 31.0133 144.685 30.78 144.685 30.64C144.685 30.5 144.568 30.1967 144.335 29.73C144.101 29.2633 143.938 28.9367 143.845 28.75C143.845 28.7033 143.821 28.6567 143.775 28.61C143.681 28.5167 143.635 28.4467 143.635 28.4C143.588 28.3067 143.541 28.19 143.495 28.05C143.448 27.9567 143.308 27.77 143.075 27.49C142.841 27.1633 142.678 26.9533 142.585 26.86V32.11C142.491 32.0167 142.375 31.7367 142.235 31.27C142.141 30.7567 142.048 30.4067 141.955 30.22C141.955 30.08 141.931 29.8 141.885 29.38C141.838 28.96 141.791 28.5167 141.745 28.05C141.745 27.5367 141.721 27.07 141.675 26.65C141.628 26.23 141.605 25.95 141.605 25.81C141.558 25.7167 141.441 25.5533 141.255 25.32C141.068 25.0867 140.951 24.97 140.905 24.97C140.811 24.9233 140.671 24.8533 140.485 24.76C140.298 24.62 140.158 24.55 140.065 24.55C140.065 24.6433 139.948 24.7833 139.715 24.97C139.528 25.11 139.388 25.2267 139.295 25.32C139.201 25.5533 139.061 25.9733 138.875 26.58C138.735 27.1867 138.665 27.56 138.665 27.7V45.76C138.665 45.8533 138.595 46.11 138.455 46.53C138.361 46.9033 138.268 47.1833 138.175 47.37C138.175 47.4633 138.058 47.6967 137.825 48.07C137.638 48.49 137.498 48.7467 137.405 48.84C137.311 48.98 137.008 49.2833 136.495 49.75C136.028 50.2167 135.701 50.5433 135.515 50.73C135.421 50.7767 135.235 50.8933 134.955 51.08C134.675 51.3133 134.488 51.43 134.395 51.43H133.415H132.505L132.155 51.15C132.108 51.0567 132.038 50.9167 131.945 50.73C131.898 50.59 131.828 50.4733 131.735 50.38C131.735 50.24 131.688 49.9833 131.595 49.61C131.501 49.2367 131.455 48.98 131.455 48.84C131.455 48.56 131.385 48.0467 131.245 47.3C131.151 46.5533 131.105 46.04 131.105 45.76C131.058 45.48 130.988 45.0367 130.895 44.43C130.848 43.8233 130.801 43.1933 130.755 42.54C130.708 41.84 130.661 41.21 130.615 40.65C130.615 40.0433 130.615 39.6233 130.615 39.39C130.615 39.11 130.591 38.5733 130.545 37.78C130.545 36.94 130.521 35.9833 130.475 34.91C130.475 33.79 130.451 32.6233 130.405 31.41C130.405 30.15 130.381 28.9833 130.335 27.91C130.335 26.79 130.311 25.8333 130.265 25.04C130.265 24.2467 130.265 23.71 130.265 23.43C130.265 23.3367 130.241 22.8933 130.195 22.1C130.195 21.26 130.171 20.28 130.125 19.16C130.125 17.9933 130.101 16.7567 130.055 15.45C130.055 14.0967 130.031 12.8367 129.985 11.67C129.985 10.5033 129.961 9.52333 129.915 8.73C129.868 7.93667 129.845 7.49333 129.845 7.4C129.798 7.35333 129.775 7.30666 129.775 7.26C129.775 7.21333 129.775 7.19 129.775 7.19C129.728 7.14333 129.705 7.09666 129.705 7.05C129.658 6.95667 129.611 6.84 129.565 6.7V5.72V4.81ZM169.796 69.07C169.796 68.93 169.889 68.72 170.076 68.44C170.169 68.3 170.262 68.1833 170.356 68.09C170.402 68.0433 170.426 67.9967 170.426 67.95C170.426 67.8567 170.449 67.7867 170.496 67.74C170.542 67.6467 170.589 67.53 170.636 67.39C170.636 67.2967 170.659 67.2033 170.706 67.11C170.706 67.0167 170.706 66.9467 170.706 66.9C170.752 66.8533 170.776 66.8067 170.776 66.76L170.636 66.2C170.682 65.8733 170.659 65.3367 170.566 64.59C170.519 63.89 170.449 63.12 170.356 62.28C170.309 61.44 170.239 60.6467 170.146 59.9C170.099 59.2 170.099 58.6867 170.146 58.36C170.146 58.2667 170.122 58.0567 170.076 57.73C170.076 57.45 170.076 57.1233 170.076 56.75C170.076 56.3767 170.052 56.0267 170.006 55.7C170.006 55.3733 170.006 55.1633 170.006 55.07C169.912 54.7433 169.819 54.0433 169.726 52.97C169.632 51.9433 169.539 50.8233 169.446 49.61C169.399 48.3967 169.329 47.2533 169.236 46.18C169.189 45.1067 169.166 44.43 169.166 44.15V43.73C168.979 43.8233 168.722 43.9867 168.396 44.22C168.116 44.4067 167.812 44.6167 167.486 44.85C167.159 45.0833 166.856 45.3167 166.576 45.55C166.296 45.7367 166.109 45.8767 166.016 45.97C166.016 45.97 165.876 46.0167 165.596 46.11C165.362 46.2033 165.082 46.32 164.756 46.46C164.476 46.5533 164.196 46.67 163.916 46.81C163.636 46.9033 163.472 46.9733 163.426 47.02L162.866 47.3C162.866 47.3933 162.819 47.58 162.726 47.86L162.586 48.28C162.539 48.3267 162.446 48.35 162.306 48.35C162.259 48.35 162.212 48.3267 162.166 48.28C162.166 48.3733 162.096 48.4433 161.956 48.49C161.862 48.5833 161.816 48.6767 161.816 48.77C161.676 48.9567 161.536 49.3533 161.396 49.96C161.256 50.5667 161.116 51.1967 160.976 51.85C160.836 52.55 160.696 53.2033 160.556 53.81C160.416 54.4167 160.322 54.8367 160.276 55.07L159.646 56.96C159.552 57.1933 159.412 57.5433 159.226 58.01C159.039 58.4767 158.899 58.7567 158.806 58.85C158.806 58.9433 158.736 59.13 158.596 59.41C158.502 59.69 158.432 59.8533 158.386 59.9L160.346 46.6C160.299 46.6 160.206 46.5067 160.066 46.32C159.926 46.1333 159.809 46.0167 159.716 45.97C159.622 45.8767 159.459 45.69 159.226 45.41C158.992 45.13 158.759 44.85 158.526 44.57C158.292 44.2433 158.082 43.94 157.896 43.66C157.709 43.38 157.592 43.1933 157.546 43.1C157.546 43.0067 157.429 42.7033 157.196 42.19C156.962 41.6767 156.752 41.28 156.566 41C156.659 40.86 156.636 40.58 156.496 40.16C156.356 39.6933 156.239 39.4133 156.146 39.32C156.146 39.18 156.099 38.8533 156.006 38.34C155.912 37.78 155.866 37.4067 155.866 37.22C155.819 37.08 155.749 36.8 155.656 36.38C155.562 35.96 155.469 35.5167 155.376 35.05C155.282 34.5367 155.189 34.07 155.096 33.65C155.049 33.23 155.026 32.9267 155.026 32.74C155.026 32.6467 155.002 32.4833 154.956 32.25C154.909 31.97 154.862 31.69 154.816 31.41C154.769 31.0833 154.722 30.8033 154.676 30.57C154.629 30.29 154.606 30.1033 154.606 30.01C154.652 29.8233 154.629 29.6133 154.536 29.38C154.489 29.1467 154.512 29.0067 154.606 28.96C154.512 28.7733 154.396 28.4933 154.256 28.12C154.116 27.7 154.022 27.4433 153.976 27.35C153.976 27.21 154.022 26.9067 154.116 26.44C154.209 25.9733 154.256 25.6467 154.256 25.46C154.256 25.3667 154.256 25.2267 154.256 25.04C154.256 24.8067 154.279 24.5733 154.326 24.34C154.326 24.1067 154.349 23.85 154.396 23.57C154.489 23.57 154.676 23.43 154.956 23.15C155.236 22.8233 155.422 22.59 155.516 22.45C155.609 22.3567 155.842 22.1233 156.216 21.75C156.636 21.3767 156.939 21.1433 157.126 21.05C157.172 20.9567 157.359 20.8633 157.686 20.77C158.059 20.6767 158.316 20.6767 158.456 20.77C158.549 20.6767 158.736 20.56 159.016 20.42C159.342 20.28 159.552 20.21 159.646 20.21C159.786 20.2567 159.902 20.3267 159.996 20.42L160.346 20.77L160.696 21.19C160.696 21.2833 160.719 21.47 160.766 21.75C160.812 22.03 160.789 22.2167 160.696 22.31C160.742 22.45 160.789 22.73 160.836 23.15C160.882 23.5233 160.906 23.92 160.906 24.34C160.906 24.76 160.906 25.1567 160.906 25.53C160.906 25.8567 160.906 26.0433 160.906 26.09C160.906 26.1833 160.929 26.3933 160.976 26.72C161.022 27 161.046 27.3033 161.046 27.63C161.092 27.9567 161.116 28.26 161.116 28.54C161.162 28.82 161.186 28.9833 161.186 29.03C161.232 29.17 161.279 29.4033 161.326 29.73C161.372 30.01 161.396 30.29 161.396 30.57C161.442 30.85 161.489 31.1067 161.536 31.34C161.582 31.5733 161.606 31.7133 161.606 31.76C161.606 31.8533 161.629 32.0633 161.676 32.39C161.769 32.67 161.839 32.9733 161.886 33.3C161.979 33.6267 162.049 33.93 162.096 34.21C162.189 34.49 162.236 34.6533 162.236 34.7C162.282 34.9333 162.352 35.2367 162.446 35.61C162.539 35.9367 162.632 36.2867 162.726 36.66C162.866 37.0333 162.959 37.3833 163.006 37.71C163.099 38.0367 163.169 38.27 163.216 38.41C163.309 38.5967 163.449 38.7833 163.636 38.97C163.729 39.11 163.846 39.25 163.986 39.39C164.126 39.53 164.242 39.6467 164.336 39.74C164.429 39.8333 164.522 39.9733 164.616 40.16C164.709 40.3467 164.756 40.5333 164.756 40.72H164.966H165.106C165.199 40.72 165.292 40.6967 165.386 40.65C165.526 40.6033 165.642 40.58 165.736 40.58C165.736 40.5333 165.759 40.3933 165.806 40.16C165.899 39.9267 165.992 39.6467 166.086 39.32C166.226 38.9933 166.342 38.69 166.436 38.41C166.576 38.0833 166.716 37.8033 166.856 37.57C167.042 37.4767 167.159 37.1733 167.206 36.66C167.299 36.1467 167.392 35.82 167.486 35.68C167.532 35.5867 167.579 35.4233 167.626 35.19C167.719 34.9567 167.812 34.7233 167.906 34.49C167.999 34.2567 168.069 34.0467 168.116 33.86C168.209 33.6267 168.256 33.4867 168.256 33.44C168.302 33.2533 168.372 32.9967 168.466 32.67C168.559 32.2967 168.652 31.9467 168.746 31.62C168.886 31.2467 168.979 30.92 169.026 30.64C169.119 30.36 169.166 30.22 169.166 30.22C169.212 29.9867 169.282 29.7533 169.376 29.52C169.469 29.2867 169.516 29.0767 169.516 28.89C169.562 28.7033 169.632 28.5167 169.726 28.33C169.726 28.0033 169.772 27.5367 169.866 26.93C169.959 26.3233 170.006 25.9733 170.006 25.88C170.006 25.74 170.006 25.1567 170.006 24.13C170.052 23.1033 170.076 22.0067 170.076 20.84C170.076 19.6267 170.076 18.53 170.076 17.55C170.122 16.5233 170.146 15.94 170.146 15.8C170.146 15.8 170.169 15.6367 170.216 15.31C170.262 14.9833 170.332 14.61 170.426 14.19C170.519 13.7233 170.612 13.28 170.706 12.86C170.846 12.3933 170.962 12.02 171.056 11.74C171.056 11.6467 171.079 11.4133 171.126 11.04C171.172 10.6667 171.219 10.27 171.266 9.85C171.359 9.43 171.429 9.03333 171.476 8.66C171.569 8.24 171.616 7.96 171.616 7.82C171.662 7.82 171.779 7.63333 171.966 7.26C172.152 6.88666 172.269 6.65333 172.316 6.56C172.456 6.51333 172.642 6.42 172.876 6.28C173.156 6.09333 173.412 5.93 173.646 5.79C173.879 5.60333 174.089 5.44 174.276 5.3C174.509 5.11333 174.672 5.02 174.766 5.02C174.812 4.92666 175.046 4.81 175.466 4.67C175.886 4.53 176.166 4.46 176.306 4.46H176.656L176.796 4.6C176.842 4.64667 176.889 4.67 176.936 4.67C177.029 4.67 177.169 4.78667 177.356 5.02C177.589 5.20667 177.706 5.34667 177.706 5.44C177.659 5.76667 177.636 6.04667 177.636 6.28C177.636 6.51333 177.636 6.74667 177.636 6.98C177.636 7.21333 177.659 7.4 177.706 7.54C177.706 7.72667 177.682 7.96 177.636 8.24C177.636 8.47333 177.636 8.73 177.636 9.01C177.589 9.33667 177.566 9.68666 177.566 10.06C177.566 10.2933 177.519 10.8767 177.426 11.81C177.379 12.7433 177.286 13.8867 177.146 15.24C177.052 16.5467 176.936 17.9467 176.796 19.44C176.656 20.9333 176.516 22.3333 176.376 23.64C176.282 24.9467 176.189 26.09 176.096 27.07C176.049 28.0033 176.026 28.5633 176.026 28.75C176.026 28.89 176.002 29.2167 175.956 29.73C175.956 30.2433 175.932 30.8267 175.886 31.48C175.839 32.1333 175.792 32.7867 175.746 33.44C175.746 34.0467 175.769 34.5367 175.816 34.91C175.722 35.0967 175.652 35.5167 175.606 36.17C175.606 36.8233 175.606 37.5467 175.606 38.34C175.606 39.0867 175.606 39.8333 175.606 40.58C175.606 41.28 175.559 41.8167 175.466 42.19C175.512 42.33 175.559 42.61 175.606 43.03C175.652 43.4033 175.676 43.8 175.676 44.22C175.722 44.64 175.746 45.06 175.746 45.48C175.792 45.8533 175.816 46.11 175.816 46.25C175.862 46.4367 175.909 46.9733 175.956 47.86C176.002 48.7 176.026 49.61 176.026 50.59C176.072 51.57 176.119 52.48 176.166 53.32C176.212 54.16 176.259 54.6733 176.306 54.86C176.352 55 176.399 55.28 176.446 55.7C176.492 56.1667 176.539 56.6567 176.586 57.17C176.679 57.6833 176.749 58.15 176.796 58.57C176.889 59.0367 176.982 59.34 177.076 59.48C176.982 59.62 176.959 59.9467 177.006 60.46C177.052 61.02 177.099 61.6033 177.146 62.21C177.239 62.8167 177.332 63.3767 177.426 63.89C177.519 64.4033 177.566 64.73 177.566 64.87C177.566 64.9167 177.519 65.1033 177.426 65.43C177.379 65.8033 177.356 66.0367 177.356 66.13C177.309 66.27 177.239 66.4567 177.146 66.69C177.099 66.9233 177.076 67.0867 177.076 67.18C177.076 67.2733 176.982 67.5067 176.796 67.88C176.656 68.3 176.492 68.5567 176.306 68.65C176.212 68.7433 176.049 68.86 175.816 69C175.629 69.14 175.396 69.28 175.116 69.42C174.836 69.6067 174.579 69.77 174.346 69.91C174.112 70.05 173.972 70.1433 173.926 70.19C173.832 70.19 173.599 70.26 173.226 70.4C172.852 70.54 172.619 70.61 172.526 70.61H172.036C171.896 70.61 171.779 70.5867 171.686 70.54C171.592 70.54 171.499 70.54 171.406 70.54C171.219 70.54 170.986 70.4933 170.706 70.4C170.426 70.3533 170.239 70.33 170.146 70.33L169.796 69.98V69.07Z" fill="#E72A70"/>
</svg>