<svg width="104" height="55" viewBox="0 0 104 55" fill="none" xmlns="http://www.w3.org/2000/svg">
<path d="M17.2626 37.2198C17.3092 37.1265 17.2392 37.0565 17.0526 37.0098C16.9126 36.9165 16.7726 36.7998 16.6326 36.6598L15.7926 43.8698L15.3026 44.1498C15.2092 44.0565 15.1626 43.8465 15.1626 43.5198C15.1626 43.2398 15.1159 43.0765 15.0226 43.0298C15.0226 42.8898 15.0226 42.5398 15.0226 41.9798C15.0692 41.4198 15.0926 40.8131 15.0926 40.1598C15.1392 39.5531 15.1859 38.9698 15.2326 38.4098C15.2792 37.8498 15.3026 37.4998 15.3026 37.3598C15.3026 37.2198 15.3026 36.9631 15.3026 36.5898C15.3492 36.2165 15.3726 35.8431 15.3726 35.4698C15.4192 35.0965 15.4426 34.7465 15.4426 34.4198C15.4426 34.0931 15.4426 33.8831 15.4426 33.7898C15.3959 33.7431 15.3492 33.6731 15.3026 33.5798C15.2092 33.3931 15.1626 33.2531 15.1626 33.1598C15.0692 33.0198 14.8826 32.7398 14.6026 32.3198C14.3692 31.8998 14.2059 31.6198 14.1126 31.4798C14.0192 31.3398 13.8792 31.1298 13.6926 30.8498C13.5526 30.5231 13.3892 30.1965 13.2026 29.8698C13.0159 29.5431 12.8292 29.2631 12.6426 29.0298C12.5026 28.7498 12.4092 28.5631 12.3626 28.4698C12.2226 28.3765 11.9659 28.1431 11.5926 27.7698C11.2659 27.3498 10.9159 26.9298 10.5426 26.5098C10.2159 26.0431 9.88925 25.5998 9.56258 25.1798C9.28258 24.7598 9.07258 24.4565 8.93258 24.2698C8.88591 24.3631 8.83925 24.5265 8.79258 24.7598C8.79258 24.9931 8.79258 25.1331 8.79258 25.1798C8.74591 25.3198 8.72258 25.5298 8.72258 25.8098C8.72258 25.9498 8.69925 26.0665 8.65258 26.1598C8.65258 26.3931 8.65258 26.9531 8.65258 27.8398C8.69925 28.6798 8.72258 29.5898 8.72258 30.5698C8.76925 31.5498 8.79258 32.4831 8.79258 33.3698C8.83925 34.2098 8.86258 34.7465 8.86258 34.9798C8.81591 35.0265 8.79258 35.1431 8.79258 35.3298C8.79258 35.4231 8.76925 35.5165 8.72258 35.6098V36.2398C8.62925 36.2865 8.44258 36.4965 8.16258 36.8698C7.92925 37.1965 7.76591 37.3831 7.67258 37.4298C7.57925 37.5231 7.41591 37.6631 7.18258 37.8498C6.99591 38.0365 6.76258 38.2465 6.48258 38.4798C6.20258 38.6665 5.92258 38.8531 5.64258 39.0398C5.40924 39.2731 5.24591 39.4365 5.15258 39.5298L4.45258 39.8098C4.35924 39.8098 4.21924 39.7865 4.03258 39.7398C3.84591 39.7398 3.70591 39.7398 3.61258 39.7398C3.51925 39.7398 3.42591 39.7165 3.33258 39.6698C3.28591 39.6698 3.21591 39.6698 3.12258 39.6698C3.02924 39.6698 2.95924 39.6465 2.91258 39.5998L2.63258 39.2498C2.63258 39.2031 2.63258 39.0631 2.63258 38.8298C2.63258 38.5965 2.63258 38.3398 2.63258 38.0598C2.63258 37.7798 2.60924 37.4998 2.56258 37.2198C2.51591 36.8931 2.46924 36.6598 2.42258 36.5198C2.42258 36.4731 2.42258 36.3098 2.42258 36.0298C2.42258 35.7031 2.42258 35.3765 2.42258 35.0498C2.42258 34.7231 2.42258 34.4198 2.42258 34.1398C2.46924 33.8131 2.49258 33.6031 2.49258 33.5098C2.49258 33.3698 2.49258 33.1831 2.49258 32.9498C2.49258 32.6698 2.49258 32.3898 2.49258 32.1098C2.49258 31.7831 2.46924 31.5031 2.42258 31.2698C2.42258 30.9898 2.39924 30.8031 2.35258 30.7098C2.35258 30.4765 2.32924 30.1265 2.28258 29.6598C2.28258 29.1931 2.28258 28.7265 2.28258 28.2598C2.28258 27.7465 2.28258 27.3031 2.28258 26.9298C2.28258 26.5098 2.28258 26.2531 2.28258 26.1598C2.28258 25.8798 2.23591 25.4598 2.14258 24.8998C2.09591 24.2931 2.04924 23.6865 2.00258 23.0798C1.95591 22.4731 1.88591 21.9131 1.79258 21.3998C1.74591 20.8865 1.72258 20.5598 1.72258 20.4198C1.72258 20.2331 1.69924 19.9065 1.65258 19.4398C1.60591 18.9731 1.53591 18.5065 1.44258 18.0398C1.39591 17.5265 1.34924 17.0598 1.30258 16.6398C1.25591 16.1731 1.20924 15.8698 1.16258 15.7298C1.16258 15.6365 1.11591 15.4265 1.02258 15.0998C0.975911 14.7265 0.905911 14.3531 0.812578 13.9798C0.765911 13.6065 0.695911 13.2331 0.602578 12.8598C0.555911 12.4865 0.532578 12.2298 0.532578 12.0898C0.719245 12.0898 0.835911 12.0198 0.882578 11.8798C0.929245 11.8331 0.952578 11.7165 0.952578 11.5298C0.999245 11.3431 1.02258 11.1565 1.02258 10.9698C1.06924 10.7365 1.09258 10.5265 1.09258 10.3398C1.09258 10.1531 1.09258 10.0365 1.09258 9.9898C1.18591 9.9898 1.32591 9.8498 1.51258 9.5698C1.74591 9.2898 1.90924 9.12647 2.00258 9.0798C2.37591 8.7998 2.67924 8.54314 2.91258 8.3098C2.95924 8.3098 3.14591 8.2398 3.47258 8.0998C3.79925 7.91314 4.00924 7.77314 4.10258 7.6798C4.14924 7.63314 4.21924 7.6098 4.31258 7.6098C4.40591 7.6098 4.49924 7.58647 4.59258 7.5398C4.73258 7.5398 4.84924 7.51647 4.94258 7.4698C4.98924 7.51647 5.05924 7.5398 5.15258 7.5398C5.24591 7.5398 5.31591 7.56314 5.36258 7.6098C5.40925 7.6098 5.47925 7.6098 5.57258 7.6098H5.99258C6.08591 7.65647 6.20258 7.77314 6.34258 7.9598C6.48258 8.14647 6.59925 8.3098 6.69258 8.4498C6.69258 8.49647 6.73925 8.61314 6.83258 8.7998C6.92591 8.98647 7.01925 9.19647 7.11258 9.4298C7.25258 9.61647 7.34591 9.82647 7.39258 10.0598C7.48591 10.2465 7.53258 10.3631 7.53258 10.4098C7.62591 10.6431 7.81258 10.9465 8.09258 11.3198C8.37258 11.6931 8.51258 11.9265 8.51258 12.0198C8.55925 12.1131 8.72258 12.3465 9.00258 12.7198C9.28258 13.0465 9.58591 13.4198 9.91258 13.8398C10.2859 14.2131 10.6126 14.6098 10.8926 15.0298C11.2192 15.4031 11.4526 15.7065 11.5926 15.9398C11.8726 16.2198 12.3392 16.7565 12.9926 17.5498C13.6459 18.3431 14.3226 19.2065 15.0226 20.1398C15.7692 21.0265 16.4692 21.8898 17.1226 22.7298C17.7759 23.5231 18.2426 24.0831 18.5226 24.4098V24.1998L18.5926 24.0598C18.5926 23.9198 18.5692 23.6865 18.5226 23.3598C18.4759 22.9865 18.4292 22.6131 18.3826 22.2398C18.3359 21.8665 18.2892 21.5165 18.2426 21.1898C18.1959 20.8631 18.1726 20.6531 18.1726 20.5598C18.1726 20.2331 18.1259 19.4865 18.0326 18.3198C17.9392 17.1531 17.8459 15.8931 17.7526 14.5398C17.6592 13.1398 17.5659 11.8565 17.4726 10.6898C17.3792 9.52314 17.3092 8.77647 17.2626 8.4498C17.2626 8.21647 17.2392 8.00647 17.1926 7.8198C17.1459 7.6798 17.1226 7.51647 17.1226 7.3298C17.1226 7.3298 16.9359 7.28314 16.5626 7.1898C16.3759 7.14314 16.2126 7.07314 16.0726 6.9798C15.7459 6.88647 15.6292 6.67647 15.7226 6.3498V6.2098C15.7226 6.02314 15.7226 5.9298 15.7226 5.9298V5.5098C15.7226 5.41647 15.7459 5.34647 15.7926 5.2998C15.8392 5.20647 15.9326 5.04314 16.0726 4.8098C16.2126 4.5298 16.3292 4.34314 16.4226 4.2498C16.4226 4.15647 16.4926 4.0398 16.6326 3.8998C16.7726 3.7598 16.8426 3.64314 16.8426 3.5498C16.9359 3.4098 17.0759 3.1998 17.2626 2.9198C17.4959 2.6398 17.6359 2.52314 17.6826 2.5698C17.8226 2.33647 18.1026 2.0798 18.5226 1.7998C18.9426 1.5198 19.2692 1.3098 19.5026 1.1698C19.6426 1.07647 19.8059 0.983136 19.9926 0.889801C20.3659 0.703134 20.5759 0.609801 20.6226 0.609801C20.7159 0.563135 20.8559 0.493136 21.0426 0.399804C21.2292 0.306469 21.3692 0.283136 21.4626 0.329804H21.6026C21.6492 0.329804 21.6959 0.353137 21.7426 0.399804C21.7892 0.399804 21.8592 0.399804 21.9526 0.399804H22.3026H22.5826C22.6759 0.44647 22.7926 0.586469 22.9326 0.819802C23.0726 1.05314 23.1659 1.21647 23.2126 1.3098C23.2126 1.4498 23.2359 1.61314 23.2826 1.7998C23.3759 2.17314 23.4226 2.38314 23.4226 2.4298C23.4226 2.52314 23.4459 2.82647 23.4926 3.3398C23.5859 3.80647 23.6092 4.15647 23.5626 4.3898C23.5626 4.57647 23.5859 5.0898 23.6326 5.9298C23.7259 6.72314 23.7959 7.6098 23.8426 8.5898C23.8892 9.5698 23.9359 10.4798 23.9826 11.3198C24.0292 12.1598 24.0526 12.6731 24.0526 12.8598C24.0992 13.0931 24.1459 13.4198 24.1926 13.8398C24.2392 14.2131 24.2626 14.6098 24.2626 15.0298C24.3092 15.4498 24.3326 15.8231 24.3326 16.1498C24.3792 16.4298 24.4026 16.5931 24.4026 16.6398C24.4959 17.3398 24.6126 18.3898 24.7526 19.7898C24.9392 21.1898 25.1492 22.7765 25.3826 24.5498C25.6159 26.3231 25.8492 28.1898 26.0826 30.1498C26.3626 32.0631 26.6192 33.9065 26.8526 35.6798C27.0859 37.4065 27.2959 38.9698 27.4826 40.3698C27.6692 41.7698 27.8092 42.7965 27.9026 43.4498L27.8326 43.7998C27.8326 43.9865 27.8092 44.1498 27.7626 44.2898C27.7626 44.3831 27.6226 44.5931 27.3426 44.9198C27.1092 45.2465 26.9692 45.4565 26.9226 45.5498C26.8759 45.5965 26.7359 45.6898 26.5026 45.8298C26.3159 46.0165 26.1059 46.2031 25.8726 46.3898C25.6392 46.5765 25.4059 46.7398 25.1726 46.8798C24.9859 47.0665 24.8692 47.1831 24.8226 47.2298C24.7292 47.3231 24.4726 47.4165 24.0526 47.5098C23.6792 47.6498 23.3992 47.7665 23.2126 47.8598C23.1192 47.8598 23.0259 47.8365 22.9326 47.7898C22.8859 47.7898 22.8392 47.7898 22.7926 47.7898L22.4426 47.7198C22.3492 47.6265 22.1859 47.4165 21.9526 47.0898C21.7659 46.7631 21.6259 46.5531 21.5326 46.4598C21.3926 46.2731 21.1826 45.8765 20.9026 45.2698C20.6692 44.7098 20.4126 44.1031 20.1326 43.4498C19.8526 42.7965 19.5726 42.1665 19.2926 41.5598C19.0592 40.9998 18.8726 40.6031 18.7326 40.3698L18.1026 40.2998L17.0526 48.6298L16.5626 49.6098C16.5626 49.4698 16.5626 49.1898 16.5626 48.7698C16.5626 48.3965 16.5626 47.9998 16.5626 47.5798C16.6092 47.1598 16.6326 46.7398 16.6326 46.3198C16.6326 45.9465 16.6092 45.6898 16.5626 45.5498C16.6092 45.2231 16.6792 44.6865 16.7726 43.9398C16.8659 43.2398 16.9592 42.4931 17.0526 41.6998C17.1459 40.9065 17.2392 40.1365 17.3326 39.3898C17.4259 38.6898 17.4959 38.1998 17.5426 37.9198L17.2626 37.2198ZM35.8941 45.0598C35.8474 44.9198 35.8007 44.6631 35.7541 44.2898C35.7074 43.9165 35.6607 43.5198 35.6141 43.0998C35.6141 42.7265 35.5907 42.3531 35.5441 41.9798C35.4974 41.6531 35.4507 41.4198 35.4041 41.2798C35.4041 41.0465 35.3341 40.5798 35.1941 39.8798C35.1007 39.2265 35.0541 38.8065 35.0541 38.6198C35.0074 38.5265 34.8907 38.4565 34.7041 38.4098C34.5174 38.3165 34.4007 38.2231 34.3541 38.1298C34.2607 38.1298 33.9807 38.0831 33.5141 37.9898C33.0941 37.8498 32.8374 37.7798 32.7441 37.7798C32.6041 37.7798 32.4174 37.7565 32.1841 37.7098C31.9507 37.6165 31.7174 37.5231 31.4841 37.4298C31.2507 37.3365 31.0407 37.2665 30.8541 37.2198C30.6674 37.1265 30.5741 37.0798 30.5741 37.0798C30.4807 37.0798 30.2707 36.9631 29.9441 36.7298C29.6641 36.4965 29.4774 36.3331 29.3841 36.2398C29.2907 36.1465 29.1507 36.0065 28.9641 35.8198C28.8241 35.6331 28.6374 35.4465 28.4041 35.2598C28.2174 35.0731 28.0307 34.9098 27.8441 34.7698C27.6574 34.5831 27.5407 34.4431 27.4941 34.3498L27.3541 34.0698C27.3074 33.9765 27.2607 33.9065 27.2141 33.8598C27.1674 33.7665 27.1207 33.6731 27.0741 33.5798C27.0741 33.4865 27.0274 33.2998 26.9341 33.0198C26.8407 32.7398 26.7941 32.5531 26.7941 32.4598V31.4798V30.5698C26.7941 30.4765 26.8874 30.1498 27.0741 29.5898C27.3074 29.0298 27.4474 28.6098 27.4941 28.3298C27.4941 28.2831 27.6107 28.0498 27.8441 27.6298C28.0774 27.2098 28.2407 26.9298 28.3341 26.7898C28.4274 26.6965 28.5441 26.5098 28.6841 26.2298C28.7774 26.0898 28.8707 25.9265 28.9641 25.7398C29.1507 25.5531 29.4541 25.2498 29.8741 24.8298C30.2941 24.3631 30.7374 23.9198 31.2041 23.4998C31.6707 23.0331 32.0907 22.6365 32.4641 22.3098C32.8374 21.9365 33.0707 21.7031 33.1641 21.6098C33.2107 21.5631 33.3274 21.4698 33.5141 21.3298C33.7474 21.1898 33.9807 21.0498 34.2141 20.9098C34.4474 20.7231 34.6807 20.5598 34.9141 20.4198C35.1474 20.2798 35.3107 20.1631 35.4041 20.0698C35.4507 20.0231 35.5907 19.9531 35.8241 19.8598C36.0574 19.7198 36.2907 19.6031 36.5241 19.5098C36.7574 19.3698 36.9907 19.2531 37.2241 19.1598C37.4574 19.0198 37.6441 18.9265 37.7841 18.8798C37.8774 18.8331 38.1574 18.7165 38.6241 18.5298C39.0907 18.3431 39.4407 18.2265 39.6741 18.1798C39.7674 18.0865 39.9541 18.0165 40.2341 17.9698C40.5141 17.8765 40.6774 17.8298 40.7241 17.8298C40.9107 17.7831 41.1674 17.7131 41.4941 17.6198C41.8674 17.4798 42.1941 17.3865 42.4741 17.3398C42.8007 17.2465 43.0807 17.1765 43.3141 17.1298C43.5941 17.0365 43.7574 16.9898 43.8041 16.9898C43.8041 16.9898 43.9674 16.9898 44.2941 16.9898C44.6207 16.9898 44.9941 16.9898 45.4141 16.9898C45.8341 16.9431 46.2541 16.9198 46.6741 16.9198C47.0941 16.9198 47.4207 16.9198 47.6541 16.9198C47.7941 16.9198 48.0507 16.9198 48.4241 16.9198C48.8441 16.9198 49.2641 16.9431 49.6841 16.9898C50.1507 16.9898 50.5707 16.9898 50.9441 16.9898C51.3641 16.9898 51.6441 16.9898 51.7841 16.9898C51.8774 16.9898 52.0641 17.1065 52.3441 17.3398C52.6241 17.5731 52.8107 17.7365 52.9041 17.8298C52.9041 17.8298 52.9741 17.8998 53.1141 18.0398L53.2541 18.1798L53.3241 18.4598C53.3241 18.5531 53.3007 18.6465 53.2541 18.7398C53.2541 18.7865 53.2541 18.8331 53.2541 18.8798C53.2541 18.9731 53.1841 19.2298 53.0441 19.6498C52.9507 20.0231 52.9041 20.2565 52.9041 20.3498C52.9041 20.3965 52.9274 20.5831 52.9741 20.9098C53.0207 21.2365 53.0674 21.6331 53.1141 22.0998C53.2074 22.5665 53.3007 23.0331 53.3941 23.4998C53.4874 23.9198 53.5807 24.2698 53.6741 24.5498C53.6741 24.6431 53.6974 24.8531 53.7441 25.1798C53.8374 25.4598 53.9074 25.7865 53.9541 26.1598C54.0474 26.4865 54.1174 26.8365 54.1641 27.2098C54.2574 27.5365 54.3041 27.7698 54.3041 27.9098C54.3507 28.0965 54.4207 28.3531 54.5141 28.6798C54.6074 29.0065 54.7007 29.3331 54.7941 29.6598C54.8874 29.9865 54.9574 30.2898 55.0041 30.5698C55.0974 30.8498 55.1441 31.0131 55.1441 31.0598C55.1907 31.1531 55.3074 31.4798 55.4941 32.0398C55.6807 32.5998 55.7974 33.0198 55.8441 33.2998C55.8907 33.2998 55.9374 33.3931 55.9841 33.5798C56.0774 33.7665 56.1707 33.9765 56.2641 34.2098C56.3574 34.3965 56.4274 34.6065 56.4741 34.8398C56.5674 35.0265 56.6374 35.1431 56.6841 35.1898C56.7774 35.4231 56.8941 35.8431 57.0341 36.4498C57.2207 37.0565 57.3607 37.4065 57.4541 37.4998V37.9898V38.6198C57.3607 38.7131 57.2674 38.8998 57.1741 39.1798C57.1274 39.4598 57.0807 39.6231 57.0341 39.6698C56.9407 39.8098 56.7541 40.0198 56.4741 40.2998C56.2407 40.5798 55.9841 40.8598 55.7041 41.1398C55.4241 41.4198 55.1441 41.6765 54.8641 41.9098C54.6307 42.1898 54.4441 42.3531 54.3041 42.3998C54.1641 42.4931 54.0241 42.5631 53.8841 42.6098C53.6041 42.7031 53.3941 42.7498 53.2541 42.7498H52.6241H52.0641L51.7841 42.3998C51.6907 42.3065 51.5507 42.0031 51.3641 41.4898C51.2241 41.0231 51.1074 40.6965 51.0141 40.5098C50.9207 40.3698 50.8041 40.1131 50.6641 39.7398C50.5707 39.4131 50.4541 39.0631 50.3141 38.6898C50.2207 38.3631 50.1274 38.0365 50.0341 37.7098C49.9407 37.3831 49.8941 37.1731 49.8941 37.0798C49.8007 36.9398 49.6841 36.6831 49.5441 36.3098C49.4507 35.8898 49.3341 35.4698 49.1941 35.0498C49.1007 34.5831 48.9841 34.1631 48.8441 33.7898C48.7507 33.3698 48.6807 33.0898 48.6341 32.9498L48.2841 32.4598C48.1907 32.5998 47.9807 32.8331 47.6541 33.1598C47.3274 33.4398 46.9774 33.7431 46.6041 34.0698C46.2774 34.3965 45.9274 34.7231 45.5541 35.0498C45.2274 35.3298 44.9941 35.5165 44.8541 35.6098C44.7607 35.6098 44.5741 35.7265 44.2941 35.9598C44.0141 36.1465 43.8507 36.2398 43.8041 36.2398C43.5241 36.3798 43.1041 36.6131 42.5441 36.9398C41.9841 37.2198 41.6574 37.4065 41.5641 37.4998C41.4241 37.5465 41.1907 37.6398 40.8641 37.7798C40.5374 37.8731 40.1874 37.9665 39.8141 38.0598C39.4407 38.1531 39.0907 38.2698 38.7641 38.4098C38.4374 38.5031 38.2274 38.5731 38.1341 38.6198C38.0407 38.7598 37.9707 38.8765 37.9241 38.9698C37.8307 39.2498 37.7841 39.3898 37.7841 39.3898C37.6907 39.3898 37.5974 39.4365 37.5041 39.5298C37.4574 39.6231 37.3874 39.6698 37.2941 39.6698L36.9441 39.3898C36.8974 39.2965 36.8041 39.1331 36.6641 38.8998C36.5241 38.7131 36.4074 38.6198 36.3141 38.6198V45.3398L35.8941 45.0598ZM32.7441 29.1698C32.8374 29.2165 32.9074 29.2865 32.9541 29.3798C33.0007 29.4731 33.0241 29.5665 33.0241 29.6598C33.0707 29.7065 33.1174 29.7531 33.1641 29.7998C33.1641 29.8931 33.2807 30.0565 33.5141 30.2898C33.7474 30.4765 33.9107 30.5698 34.0041 30.5698C34.0974 30.6631 34.2841 30.8265 34.5641 31.0598C34.8441 31.2931 35.0074 31.4098 35.0541 31.4098C35.3341 31.4565 35.7541 31.5965 36.3141 31.8298C36.8741 32.0165 37.2007 32.1098 37.2941 32.1098H40.0241H42.6141C42.7074 32.1098 42.8474 32.0631 43.0341 31.9698C43.2207 31.8765 43.3607 31.7831 43.4541 31.6898C43.6407 31.5965 43.9207 31.3631 44.2941 30.9898C44.6674 30.5698 44.8541 30.3131 44.8541 30.2198C44.9474 30.1731 45.0874 29.8698 45.2741 29.3098C45.4607 28.7031 45.6007 28.2365 45.6941 27.9098C45.7407 27.7698 45.8107 27.4665 45.9041 26.9998C46.0441 26.5331 46.1141 26.2065 46.1141 26.0198V24.5498V23.0098C46.0207 22.9165 45.8807 22.8465 45.6941 22.7998C45.5541 22.7065 45.4374 22.6598 45.3441 22.6598H43.8041H42.3341C42.2407 22.6598 42.1007 22.6831 41.9141 22.7298C41.7274 22.7765 41.5407 22.8231 41.3541 22.8698C41.1674 22.9165 40.9574 22.9631 40.7241 23.0098C40.5841 23.1498 40.4674 23.4531 40.3741 23.9198C40.3274 24.3865 40.3507 24.7131 40.4441 24.8998L39.6741 23.4998C39.5807 23.6865 39.4874 24.0598 39.3941 24.6198C39.3474 25.1798 39.2774 25.5531 39.1841 25.7398C39.1841 25.7865 39.1141 25.9031 38.9741 26.0898C38.8807 26.2765 38.8341 26.3931 38.8341 26.4398C38.7874 26.4398 38.7174 26.3931 38.6241 26.2998C38.5774 26.2065 38.5541 26.1131 38.5541 26.0198C38.4607 25.8798 38.3674 25.5298 38.2741 24.9698C38.1807 24.3631 38.1341 23.9898 38.1341 23.8498H37.7841H37.2941C37.2007 23.8498 36.8741 24.0131 36.3141 24.3398C35.7541 24.6198 35.3341 24.8065 35.0541 24.8998C35.0074 24.9931 34.8441 25.1331 34.5641 25.3198C34.2841 25.5065 34.0974 25.6465 34.0041 25.7398C33.9107 25.7865 33.7474 25.9031 33.5141 26.0898C33.2807 26.2765 33.1641 26.3931 33.1641 26.4398C33.1174 26.5331 33.0241 26.6731 32.8841 26.8598C32.7907 27.0465 32.7441 27.1865 32.7441 27.2798V28.2598V29.1698ZM65.4532 40.3698C65.3132 40.2298 65.0565 40.0431 64.6832 39.8098C64.3565 39.6231 64.1232 39.4831 63.9832 39.3898C63.8899 39.3431 63.7032 39.1565 63.4232 38.8298C63.1899 38.5498 63.0265 38.3631 62.9332 38.2698C62.8865 38.1298 62.7699 37.9198 62.5832 37.6398C62.4432 37.3598 62.3499 37.1265 62.3032 36.9398C62.2099 36.7998 62.0932 36.5665 61.9532 36.2398C61.8599 35.9131 61.7432 35.5865 61.6032 35.2598C61.4632 34.9331 61.3232 34.6298 61.1832 34.3498C61.0899 34.0698 61.0199 33.8831 60.9732 33.7898C60.9732 33.6965 60.9265 33.5098 60.8332 33.2298C60.7865 32.9031 60.7165 32.5765 60.6232 32.2498C60.5299 31.8765 60.4365 31.5265 60.3432 31.1998C60.2499 30.8265 60.1799 30.5698 60.1332 30.4298C60.1332 30.2898 60.1099 30.0798 60.0632 29.7998C60.0632 29.4731 60.0165 29.1465 59.9232 28.8198C59.8765 28.4465 59.8299 28.1198 59.7832 27.8398C59.7365 27.5131 59.6899 27.3031 59.6432 27.2098C59.6432 27.1165 59.6199 26.7898 59.5732 26.2298C59.5732 25.6698 59.5732 25.2731 59.5732 25.0398C59.5732 24.9465 59.5499 24.7598 59.5032 24.4798C59.5032 24.1531 59.5032 23.8265 59.5032 23.4998C59.5032 23.1265 59.5032 22.7998 59.5032 22.5198C59.5032 22.1931 59.5032 21.9831 59.5032 21.8898C59.4099 21.7498 59.3399 21.4231 59.2932 20.9098C59.2932 20.3965 59.2465 20.0931 59.1532 19.9998H59.0132L58.8032 19.9298C58.8032 19.9298 58.7099 19.9531 58.5232 19.9998C58.3365 19.9998 58.1265 20.0231 57.8932 20.0698C57.7065 20.0698 57.4965 20.0931 57.2632 20.1398C57.0765 20.1398 56.9599 20.1398 56.9132 20.1398C56.8665 20.1398 56.7265 20.1398 56.4932 20.1398C56.2599 20.0931 56.0499 20.0698 55.8632 20.0698C55.7699 20.0698 55.6765 20.0698 55.5832 20.0698C55.5365 20.0231 55.4665 19.9998 55.3732 19.9998H55.0232C54.9765 19.9998 54.8599 19.8831 54.6732 19.6498C54.5332 19.4165 54.4399 19.2531 54.3932 19.1598V18.9498V18.8798C54.3932 18.7865 54.4399 18.5998 54.5332 18.3198C54.6732 17.9931 54.7665 17.7831 54.8132 17.6898C54.9065 17.5031 54.9999 17.3631 55.0932 17.2698C55.1399 17.1765 55.2099 17.1065 55.3032 17.0598C55.3965 16.9198 55.5832 16.7098 55.8632 16.4298C56.1899 16.1498 56.5165 15.8698 56.8432 15.5898C57.2165 15.2631 57.5665 14.9831 57.8932 14.7498C58.2199 14.5165 58.4532 14.3531 58.5932 14.2598C58.6399 14.2131 58.8032 14.0965 59.0832 13.9098C59.4099 13.7231 59.6199 13.6298 59.7132 13.6298C59.7599 13.4431 59.8532 13.0931 59.9932 12.5798C60.1332 12.0665 60.2499 11.5298 60.3432 10.9698C60.4832 10.4098 60.5999 9.89647 60.6932 9.4298C60.8332 8.91647 60.9499 8.56647 61.0432 8.3798C61.0432 8.2398 61.0665 8.05314 61.1132 7.8198C61.1599 7.5398 61.2065 7.28314 61.2532 7.0498C61.2999 6.7698 61.3699 6.4898 61.4632 6.2098C61.5565 5.9298 61.7899 5.5098 62.1632 4.9498C62.5365 4.3898 62.7932 4.0398 62.9332 3.8998C63.0265 3.85314 63.2599 3.64314 63.6332 3.2698C64.0065 2.89647 64.2865 2.7098 64.4732 2.7098C64.6132 2.61647 64.8699 2.47647 65.2432 2.2898C65.6632 2.05647 65.9432 1.9398 66.0832 1.9398C66.1765 1.98647 66.2699 2.0098 66.3632 2.0098H66.7132L67.2732 2.0798C67.3199 2.0798 67.3665 2.12647 67.4132 2.2198C67.4599 2.31314 67.5299 2.3598 67.6232 2.3598C67.6232 2.54647 67.5999 2.9198 67.5532 3.4798C67.5065 4.0398 67.4832 4.36647 67.4832 4.4598C67.4365 4.78647 67.3899 5.2298 67.3432 5.7898C67.2965 6.30314 67.2732 6.60647 67.2732 6.6998C67.1799 6.88647 67.0865 7.0498 66.9932 7.1898C66.8532 7.4698 66.7832 7.65647 66.7832 7.7498C66.7832 7.98314 66.7599 8.35647 66.7132 8.8698C66.6665 9.38314 66.6199 9.9198 66.5732 10.4798C66.5265 11.0398 66.4799 11.5765 66.4332 12.0898C66.3865 12.5565 66.3632 12.8598 66.3632 12.9998L66.9932 13.0698C67.3199 13.0231 67.8332 12.9298 68.5332 12.7898C69.2332 12.6031 69.9799 12.4165 70.7732 12.2298C71.5665 12.0431 72.3132 11.8798 73.0132 11.7398C73.7132 11.5998 74.2032 11.4831 74.4832 11.3898C74.6232 11.3431 74.8332 11.2965 75.1132 11.2498C75.4399 11.2031 75.7432 11.1331 76.0232 11.0398C76.3499 10.9465 76.6999 10.8765 77.0732 10.8298C77.1665 10.8298 77.3765 10.8531 77.7032 10.8998C78.0299 10.8998 78.2865 10.8998 78.4732 10.8998C78.5199 10.9465 78.7065 10.9931 79.0332 11.0398C79.4065 11.0398 79.6399 11.0398 79.7332 11.0398C79.7799 11.1331 79.8265 11.2265 79.8732 11.3198C79.9665 11.4131 80.0599 11.5298 80.1532 11.6698C80.1065 11.7165 80.0832 11.7631 80.0832 11.8098V12.0198C80.0832 12.1131 80.0599 12.1831 80.0132 12.2298C80.0132 12.2765 80.0132 12.3465 80.0132 12.4398V12.6498C79.9199 12.7431 79.8499 12.8598 79.8032 12.9998C79.7099 13.0931 79.6399 13.1865 79.5932 13.2798C79.5932 13.3731 79.5699 13.4431 79.5232 13.4898C79.4299 13.5365 79.2665 13.6998 79.0332 13.9798C78.8465 14.2131 78.7065 14.3765 78.6132 14.4698C78.6132 14.5631 78.4965 14.7031 78.2632 14.8898C78.0299 15.0298 77.9132 15.1465 77.9132 15.2398C77.8199 15.2865 77.6099 15.4031 77.2832 15.5898C76.9565 15.7298 76.7232 15.7998 76.5832 15.7998C76.4899 15.7998 76.2565 15.8931 75.8832 16.0798C75.5099 16.2665 75.2765 16.3598 75.1832 16.3598L74.7632 20.6298L74.3432 20.0698L73.9932 16.7798L73.2232 16.7098V16.9898C73.1765 17.1765 73.1765 17.6198 73.2232 18.3198C73.3165 19.0198 73.3399 19.4631 73.2932 19.6498C73.2932 19.8365 73.2932 20.1165 73.2932 20.4898C73.2932 20.8631 73.2932 21.2598 73.2932 21.6798C73.2932 22.0998 73.2932 22.4965 73.2932 22.8698C73.3399 23.1965 73.3865 23.4065 73.4332 23.4998C73.3865 23.5931 73.3632 23.6865 73.3632 23.7798V24.1298L73.2932 24.6198L72.8732 24.2698L71.9632 16.7098L65.8732 18.2498C65.8265 18.3431 65.8032 18.4598 65.8032 18.5998C65.8032 18.6931 65.7799 18.8098 65.7332 18.9498C65.7332 19.0431 65.7332 19.1365 65.7332 19.2298C65.7332 19.3698 65.7099 19.6265 65.6632 19.9998C65.6632 20.3265 65.6632 20.5131 65.6632 20.5598C65.6632 20.8865 65.6865 21.1898 65.7332 21.4698C65.7799 21.7031 65.8032 21.9598 65.8032 22.2398C65.8032 22.4731 65.8265 22.6598 65.8732 22.7998C65.8732 22.9398 65.8965 23.2665 65.9432 23.7798C65.9899 24.2465 66.0132 24.5731 66.0132 24.7598C65.9665 24.8998 65.9899 25.1798 66.0832 25.5998C66.1765 26.0198 66.2232 26.2531 66.2232 26.2998C66.2699 26.5331 66.3399 26.8365 66.4332 27.2098C66.5265 27.5365 66.6199 27.8865 66.7132 28.2598C66.8065 28.6331 66.8999 28.9598 66.9932 29.2398C67.0865 29.5198 67.1332 29.6831 67.1332 29.7298C67.1332 29.8231 67.1799 30.0331 67.2732 30.3598C67.3665 30.6398 67.4832 30.9665 67.6232 31.3398C67.7632 31.6665 67.8799 31.9931 67.9732 32.3198C68.1132 32.6465 68.2299 32.8798 68.3232 33.0198C68.3699 33.1131 68.4165 33.1831 68.4632 33.2298C68.6032 33.3698 68.6965 33.4398 68.7432 33.4398C68.8365 33.4398 69.0699 33.5098 69.4432 33.6498C69.8165 33.7431 70.0499 33.7898 70.1432 33.7898C70.1899 33.8831 70.2599 33.9765 70.3532 34.0698C70.4932 34.1631 70.5632 34.2331 70.5632 34.2798C70.5165 34.4198 70.4932 34.5365 70.4932 34.6298V35.1198C70.4932 35.1665 70.4699 35.2131 70.4232 35.2598C70.4232 35.3065 70.4232 35.3765 70.4232 35.4698V35.7498C70.3299 35.8431 70.1665 36.0765 69.9332 36.4498C69.7465 36.8231 69.6065 37.1031 69.5132 37.2898C69.4199 37.2898 69.2332 37.4298 68.9532 37.7098C68.7199 37.9898 68.5799 38.1765 68.5332 38.2698L68.0432 43.8698L67.4132 43.7998L67.2732 43.2398C67.2265 43.0998 67.1799 42.9365 67.1332 42.7498C67.1332 42.6098 67.1565 42.4931 67.2032 42.3998C67.1565 42.2598 67.1099 42.0498 67.0632 41.7698C67.0632 41.5365 67.0632 41.2798 67.0632 40.9998C67.0632 40.7198 67.0399 40.4398 66.9932 40.1598C66.9932 39.9265 66.9699 39.7631 66.9232 39.6698L65.5932 54.7198L65.4532 40.3698ZM81.9683 45.0598C81.9216 44.9198 81.8749 44.6631 81.8283 44.2898C81.7816 43.9165 81.7349 43.5198 81.6883 43.0998C81.6883 42.7265 81.6649 42.3531 81.6183 41.9798C81.5716 41.6531 81.5249 41.4198 81.4783 41.2798C81.4783 41.0465 81.4083 40.5798 81.2683 39.8798C81.1749 39.2265 81.1283 38.8065 81.1283 38.6198C81.0816 38.5265 80.9649 38.4565 80.7783 38.4098C80.5916 38.3165 80.4749 38.2231 80.4283 38.1298C80.3349 38.1298 80.0549 38.0831 79.5883 37.9898C79.1683 37.8498 78.9116 37.7798 78.8183 37.7798C78.6783 37.7798 78.4916 37.7565 78.2583 37.7098C78.0249 37.6165 77.7916 37.5231 77.5583 37.4298C77.3249 37.3365 77.1149 37.2665 76.9283 37.2198C76.7416 37.1265 76.6483 37.0798 76.6483 37.0798C76.5549 37.0798 76.3449 36.9631 76.0183 36.7298C75.7383 36.4965 75.5516 36.3331 75.4583 36.2398C75.3649 36.1465 75.2249 36.0065 75.0383 35.8198C74.8983 35.6331 74.7116 35.4465 74.4783 35.2598C74.2916 35.0731 74.1049 34.9098 73.9183 34.7698C73.7316 34.5831 73.6149 34.4431 73.5683 34.3498L73.4283 34.0698C73.3816 33.9765 73.3349 33.9065 73.2883 33.8598C73.2416 33.7665 73.1949 33.6731 73.1483 33.5798C73.1483 33.4865 73.1016 33.2998 73.0083 33.0198C72.9149 32.7398 72.8683 32.5531 72.8683 32.4598V31.4798V30.5698C72.8683 30.4765 72.9616 30.1498 73.1483 29.5898C73.3816 29.0298 73.5216 28.6098 73.5683 28.3298C73.5683 28.2831 73.6849 28.0498 73.9183 27.6298C74.1516 27.2098 74.3149 26.9298 74.4083 26.7898C74.5016 26.6965 74.6183 26.5098 74.7583 26.2298C74.8516 26.0898 74.9449 25.9265 75.0383 25.7398C75.2249 25.5531 75.5283 25.2498 75.9483 24.8298C76.3683 24.3631 76.8116 23.9198 77.2783 23.4998C77.7449 23.0331 78.1649 22.6365 78.5383 22.3098C78.9116 21.9365 79.1449 21.7031 79.2383 21.6098C79.2849 21.5631 79.4016 21.4698 79.5883 21.3298C79.8216 21.1898 80.0549 21.0498 80.2883 20.9098C80.5216 20.7231 80.7549 20.5598 80.9883 20.4198C81.2216 20.2798 81.3849 20.1631 81.4783 20.0698C81.5249 20.0231 81.6649 19.9531 81.8983 19.8598C82.1316 19.7198 82.3649 19.6031 82.5983 19.5098C82.8316 19.3698 83.0649 19.2531 83.2983 19.1598C83.5316 19.0198 83.7183 18.9265 83.8583 18.8798C83.9516 18.8331 84.2316 18.7165 84.6983 18.5298C85.1649 18.3431 85.5149 18.2265 85.7483 18.1798C85.8416 18.0865 86.0283 18.0165 86.3083 17.9698C86.5883 17.8765 86.7516 17.8298 86.7983 17.8298C86.9849 17.7831 87.2416 17.7131 87.5683 17.6198C87.9416 17.4798 88.2683 17.3865 88.5483 17.3398C88.8749 17.2465 89.1549 17.1765 89.3883 17.1298C89.6683 17.0365 89.8316 16.9898 89.8783 16.9898C89.8783 16.9898 90.0416 16.9898 90.3683 16.9898C90.6949 16.9898 91.0683 16.9898 91.4883 16.9898C91.9083 16.9431 92.3283 16.9198 92.7483 16.9198C93.1683 16.9198 93.4949 16.9198 93.7283 16.9198C93.8683 16.9198 94.1249 16.9198 94.4983 16.9198C94.9183 16.9198 95.3383 16.9431 95.7583 16.9898C96.2249 16.9898 96.6449 16.9898 97.0183 16.9898C97.4383 16.9898 97.7183 16.9898 97.8583 16.9898C97.9516 16.9898 98.1383 17.1065 98.4183 17.3398C98.6983 17.5731 98.8849 17.7365 98.9783 17.8298C98.9783 17.8298 99.0483 17.8998 99.1883 18.0398L99.3283 18.1798L99.3983 18.4598C99.3983 18.5531 99.3749 18.6465 99.3283 18.7398C99.3283 18.7865 99.3283 18.8331 99.3283 18.8798C99.3283 18.9731 99.2583 19.2298 99.1183 19.6498C99.0249 20.0231 98.9783 20.2565 98.9783 20.3498C98.9783 20.3965 99.0016 20.5831 99.0483 20.9098C99.0949 21.2365 99.1416 21.6331 99.1883 22.0998C99.2816 22.5665 99.3749 23.0331 99.4683 23.4998C99.5616 23.9198 99.6549 24.2698 99.7483 24.5498C99.7483 24.6431 99.7716 24.8531 99.8183 25.1798C99.9116 25.4598 99.9816 25.7865 100.028 26.1598C100.122 26.4865 100.192 26.8365 100.238 27.2098C100.332 27.5365 100.378 27.7698 100.378 27.9098C100.425 28.0965 100.495 28.3531 100.588 28.6798C100.682 29.0065 100.775 29.3331 100.868 29.6598C100.962 29.9865 101.032 30.2898 101.078 30.5698C101.172 30.8498 101.218 31.0131 101.218 31.0598C101.265 31.1531 101.382 31.4798 101.568 32.0398C101.755 32.5998 101.872 33.0198 101.918 33.2998C101.965 33.2998 102.012 33.3931 102.058 33.5798C102.152 33.7665 102.245 33.9765 102.338 34.2098C102.432 34.3965 102.502 34.6065 102.548 34.8398C102.642 35.0265 102.712 35.1431 102.758 35.1898C102.852 35.4231 102.968 35.8431 103.108 36.4498C103.295 37.0565 103.435 37.4065 103.528 37.4998V37.9898V38.6198C103.435 38.7131 103.342 38.8998 103.248 39.1798C103.202 39.4598 103.155 39.6231 103.108 39.6698C103.015 39.8098 102.828 40.0198 102.548 40.2998C102.315 40.5798 102.058 40.8598 101.778 41.1398C101.498 41.4198 101.218 41.6765 100.938 41.9098C100.705 42.1898 100.518 42.3531 100.378 42.3998C100.238 42.4931 100.098 42.5631 99.9583 42.6098C99.6783 42.7031 99.4683 42.7498 99.3283 42.7498H98.6983H98.1383L97.8583 42.3998C97.7649 42.3065 97.6249 42.0031 97.4383 41.4898C97.2983 41.0231 97.1816 40.6965 97.0883 40.5098C96.9949 40.3698 96.8783 40.1131 96.7383 39.7398C96.6449 39.4131 96.5283 39.0631 96.3883 38.6898C96.2949 38.3631 96.2016 38.0365 96.1083 37.7098C96.0149 37.3831 95.9683 37.1731 95.9683 37.0798C95.8749 36.9398 95.7583 36.6831 95.6183 36.3098C95.5249 35.8898 95.4083 35.4698 95.2683 35.0498C95.1749 34.5831 95.0583 34.1631 94.9183 33.7898C94.8249 33.3698 94.7549 33.0898 94.7083 32.9498L94.3583 32.4598C94.2649 32.5998 94.0549 32.8331 93.7283 33.1598C93.4016 33.4398 93.0516 33.7431 92.6783 34.0698C92.3516 34.3965 92.0016 34.7231 91.6283 35.0498C91.3016 35.3298 91.0683 35.5165 90.9283 35.6098C90.8349 35.6098 90.6483 35.7265 90.3683 35.9598C90.0883 36.1465 89.9249 36.2398 89.8783 36.2398C89.5983 36.3798 89.1783 36.6131 88.6183 36.9398C88.0583 37.2198 87.7316 37.4065 87.6383 37.4998C87.4983 37.5465 87.2649 37.6398 86.9383 37.7798C86.6116 37.8731 86.2616 37.9665 85.8883 38.0598C85.5149 38.1531 85.1649 38.2698 84.8383 38.4098C84.5116 38.5031 84.3016 38.5731 84.2083 38.6198C84.1149 38.7598 84.0449 38.8765 83.9983 38.9698C83.9049 39.2498 83.8583 39.3898 83.8583 39.3898C83.7649 39.3898 83.6716 39.4365 83.5783 39.5298C83.5316 39.6231 83.4616 39.6698 83.3683 39.6698L83.0183 39.3898C82.9716 39.2965 82.8783 39.1331 82.7383 38.8998C82.5983 38.7131 82.4816 38.6198 82.3883 38.6198V45.3398L81.9683 45.0598ZM78.8183 29.1698C78.9116 29.2165 78.9816 29.2865 79.0283 29.3798C79.0749 29.4731 79.0983 29.5665 79.0983 29.6598C79.1449 29.7065 79.1916 29.7531 79.2383 29.7998C79.2383 29.8931 79.3549 30.0565 79.5883 30.2898C79.8216 30.4765 79.9849 30.5698 80.0783 30.5698C80.1716 30.6631 80.3583 30.8265 80.6383 31.0598C80.9183 31.2931 81.0816 31.4098 81.1283 31.4098C81.4083 31.4565 81.8283 31.5965 82.3883 31.8298C82.9483 32.0165 83.2749 32.1098 83.3683 32.1098H86.0983H88.6883C88.7816 32.1098 88.9216 32.0631 89.1083 31.9698C89.2949 31.8765 89.4349 31.7831 89.5283 31.6898C89.7149 31.5965 89.9949 31.3631 90.3683 30.9898C90.7416 30.5698 90.9283 30.3131 90.9283 30.2198C91.0216 30.1731 91.1616 29.8698 91.3483 29.3098C91.5349 28.7031 91.6749 28.2365 91.7683 27.9098C91.8149 27.7698 91.8849 27.4665 91.9783 26.9998C92.1183 26.5331 92.1883 26.2065 92.1883 26.0198V24.5498V23.0098C92.0949 22.9165 91.9549 22.8465 91.7683 22.7998C91.6283 22.7065 91.5116 22.6598 91.4183 22.6598H89.8783H88.4083C88.3149 22.6598 88.1749 22.6831 87.9883 22.7298C87.8016 22.7765 87.6149 22.8231 87.4283 22.8698C87.2416 22.9165 87.0316 22.9631 86.7983 23.0098C86.6583 23.1498 86.5416 23.4531 86.4483 23.9198C86.4016 24.3865 86.4249 24.7131 86.5183 24.8998L85.7483 23.4998C85.6549 23.6865 85.5616 24.0598 85.4683 24.6198C85.4216 25.1798 85.3516 25.5531 85.2583 25.7398C85.2583 25.7865 85.1883 25.9031 85.0483 26.0898C84.9549 26.2765 84.9083 26.3931 84.9083 26.4398C84.8616 26.4398 84.7916 26.3931 84.6983 26.2998C84.6516 26.2065 84.6283 26.1131 84.6283 26.0198C84.5349 25.8798 84.4416 25.5298 84.3483 24.9698C84.2549 24.3631 84.2083 23.9898 84.2083 23.8498H83.8583H83.3683C83.2749 23.8498 82.9483 24.0131 82.3883 24.3398C81.8283 24.6198 81.4083 24.8065 81.1283 24.8998C81.0816 24.9931 80.9183 25.1331 80.6383 25.3198C80.3583 25.5065 80.1716 25.6465 80.0783 25.7398C79.9849 25.7865 79.8216 25.9031 79.5883 26.0898C79.3549 26.2765 79.2383 26.3931 79.2383 26.4398C79.1916 26.5331 79.0983 26.6731 78.9583 26.8598C78.8649 27.0465 78.8183 27.1865 78.8183 27.2798V28.2598V29.1698Z" fill="#E72A70"/>
</svg>