<svg width="167" height="63" viewBox="0 0 167 63" fill="none" xmlns="http://www.w3.org/2000/svg">
<path d="M22.0412 39.32C22.0878 39.0867 22.0878 38.6667 22.0412 38.06C22.0412 37.4067 22.0412 37.01 22.0412 36.87C21.9478 36.87 21.7612 36.9167 21.4812 37.01C21.2012 37.1033 21.0378 37.1967 20.9912 37.29C20.8978 37.3367 20.7112 37.4067 20.4312 37.5C20.1978 37.5467 19.9178 37.6167 19.5912 37.71C19.3112 37.8033 19.0312 37.8967 18.7512 37.99C18.5178 38.0833 18.3312 38.13 18.1912 38.13C18.0978 38.2233 17.8412 38.34 17.4212 38.48C17.0478 38.62 16.8145 38.7367 16.7212 38.83C16.6278 39.0167 16.5345 39.3667 16.4412 39.88C16.3945 40.3467 16.3245 40.86 16.2312 41.42C16.1378 41.9333 16.0445 42.4467 15.9512 42.96C15.8578 43.4267 15.7878 43.7533 15.7412 43.94C15.7412 44.0333 15.7412 44.22 15.7412 44.5C15.7412 44.7333 15.7178 45.0133 15.6712 45.34C15.6712 45.62 15.6478 45.9 15.6012 46.18C15.6012 46.4133 15.5778 46.5767 15.5312 46.67C15.5312 46.7167 15.4845 46.88 15.3912 47.16C15.2978 47.44 15.2045 47.6033 15.1112 47.65C15.0178 47.79 14.8545 48 14.6212 48.28C14.4345 48.56 14.3178 48.7467 14.2712 48.84C14.1778 48.9333 13.9212 49.1667 13.5012 49.54C13.0812 49.9133 12.8012 50.1233 12.6612 50.17C12.5678 50.2167 12.3578 50.3333 12.0312 50.52C11.7512 50.7067 11.5412 50.8 11.4012 50.8C11.2145 50.8467 11.0512 50.8933 10.9112 50.94C10.5378 51.0333 10.3278 51.08 10.2812 51.08L10.0712 51.01H9.93117C9.83784 50.9633 9.67451 50.8233 9.44117 50.59L9.16117 50.31L10.0712 39.67C9.97784 39.7167 9.79117 39.7167 9.51117 39.67C9.27784 39.6233 9.02117 39.5767 8.74117 39.53C8.46117 39.4367 8.20451 39.3667 7.97117 39.32C7.73784 39.2267 7.59784 39.1333 7.55117 39.04C7.45784 38.9933 7.27117 38.83 6.99117 38.55C6.71117 38.2233 6.52451 38.0133 6.43117 37.92C6.47784 37.8267 6.50117 37.7333 6.50117 37.64C6.50117 37.5 6.50117 37.3833 6.50117 37.29C6.50117 37.1967 6.50117 37.1033 6.50117 37.01C6.54784 36.87 6.57117 36.7533 6.57117 36.66C6.57117 36.5667 6.68784 36.3333 6.92117 35.96C7.20117 35.5867 7.41117 35.3533 7.55117 35.26C7.59784 35.1667 7.71451 35.0267 7.90117 34.84C8.08784 34.6067 8.29784 34.3967 8.53117 34.21C8.76451 33.9767 8.97451 33.7667 9.16117 33.58C9.34784 33.3933 9.48784 33.2533 9.58117 33.16C9.48784 33.02 9.41784 32.7633 9.37117 32.39C9.37117 31.97 9.32451 31.7133 9.23117 31.62C9.23117 31.4333 9.18451 31.1533 9.09117 30.78C9.04451 30.4067 8.97451 30.01 8.88117 29.59C8.78784 29.17 8.69451 28.7967 8.60117 28.47C8.55451 28.0967 8.53117 27.8633 8.53117 27.77C8.43784 27.5367 8.27451 27.0467 8.04117 26.3C7.85451 25.5067 7.71451 24.9933 7.62117 24.76C7.62117 24.62 7.55117 24.3867 7.41117 24.06C7.31784 23.7333 7.20117 23.3833 7.06117 23.01C6.92117 22.6367 6.78117 22.2867 6.64117 21.96C6.50117 21.5867 6.40784 21.33 6.36117 21.19C6.40784 21.0033 6.33784 20.7 6.15117 20.28C5.96451 19.86 5.82451 19.6033 5.73117 19.51C5.73117 19.4167 5.61451 19.1367 5.38117 18.67C5.10117 18.1567 4.91451 17.7833 4.82117 17.55C4.72784 17.4567 4.61117 17.27 4.47117 16.99C4.33117 16.6633 4.21451 16.4533 4.12117 16.36C4.02784 16.2667 3.86451 16.08 3.63117 15.8C3.35117 15.4733 3.16451 15.2867 3.07117 15.24C3.02451 15.1 2.83784 14.8433 2.51117 14.47C2.13784 14.0967 1.90451 13.91 1.81117 13.91C1.71784 13.8633 1.62451 13.7933 1.53117 13.7C1.39117 13.6067 1.3445 13.5133 1.39117 13.42C1.29784 13.3267 1.18117 13.14 1.04117 12.86C0.901172 12.58 0.784505 12.37 0.691172 12.23C0.691172 12.1367 0.667838 11.95 0.621171 11.67C0.527838 11.39 0.481172 11.2267 0.481172 11.18C0.527838 11.0867 0.597838 10.9 0.691172 10.62C0.784505 10.34 0.854505 10.1533 0.901172 10.06C0.994505 9.92 1.13451 9.71 1.32117 9.43C1.50784 9.15 1.64784 8.96333 1.74117 8.87C1.92784 8.73 2.25451 8.52 2.72117 8.24C3.14117 7.91333 3.37451 7.72666 3.42117 7.68C3.51451 7.58667 3.77117 7.44667 4.19117 7.26C4.61117 7.02667 4.86784 6.93333 4.96117 6.98H5.38117H5.73117C5.82451 7.02666 5.94117 7.09666 6.08117 7.19C6.26784 7.28333 6.40784 7.33 6.50117 7.33C6.54784 7.42333 6.71117 7.63333 6.99117 7.96C7.27117 8.24 7.55117 8.56666 7.83117 8.94C8.15784 9.26667 8.43784 9.57 8.67117 9.85C8.95117 10.13 9.13784 10.2933 9.23117 10.34C9.32451 10.4333 9.55784 10.5967 9.93117 10.83C10.3045 11.0167 10.5612 11.1567 10.7012 11.25C10.8878 11.3433 11.2378 11.5067 11.7512 11.74C12.3112 11.9733 12.6845 12.16 12.8712 12.3C13.0112 12.3 13.2445 12.37 13.5712 12.51C13.8978 12.6033 14.2478 12.6967 14.6212 12.79C15.0412 12.8833 15.4378 13 15.8112 13.14C16.1845 13.2333 16.4412 13.28 16.5812 13.28C16.9078 13.3267 17.4445 13.4433 18.1912 13.63C18.9378 13.8167 19.4278 13.91 19.6612 13.91C19.9878 13.9567 20.8045 14.0733 22.1112 14.26C23.4178 14.4467 24.8178 14.6567 26.3112 14.89C27.8045 15.0767 29.2045 15.2867 30.5112 15.52C31.8645 15.7067 32.7045 15.8467 33.0312 15.94C33.1712 15.94 33.4045 15.9867 33.7312 16.08C34.0578 16.1267 34.3845 16.1967 34.7112 16.29C35.0845 16.3367 35.4345 16.3833 35.7612 16.43C36.1345 16.4767 36.3912 16.5 36.5312 16.5L37.0912 16.78C37.4645 16.9667 37.7445 17.06 37.9312 17.06C38.0712 17.06 38.2812 17.13 38.5612 17.27C38.8878 17.41 39.0978 17.5033 39.1912 17.55C39.2845 17.6433 39.4945 17.8067 39.8212 18.04C40.1945 18.2267 40.3812 18.3667 40.3812 18.46C40.4745 18.5067 40.5912 18.6467 40.7312 18.88C40.9178 19.0667 41.0578 19.1833 41.1512 19.23L41.3612 19.65L41.5012 19.93C41.4545 20.0233 41.4312 20.2567 41.4312 20.63C41.4312 21.0033 41.4312 21.3067 41.4312 21.54C41.3845 21.68 41.3378 21.96 41.2912 22.38C41.2445 22.8 41.2212 23.0333 41.2212 23.08L41.0812 23.5C41.0345 23.5933 40.9645 23.71 40.8712 23.85C40.8245 23.99 40.7778 24.1067 40.7312 24.2C40.6378 24.34 40.4745 24.5967 40.2412 24.97C40.0545 25.3433 39.8912 25.5767 39.7512 25.67C39.7045 25.7633 39.5178 25.9967 39.1912 26.37C38.9112 26.6967 38.7245 26.9067 38.6312 27C38.3978 27.1867 38.0478 27.4667 37.5812 27.84C37.1612 28.2133 36.7178 28.61 36.2512 29.03C35.7845 29.45 35.3412 29.8467 34.9212 30.22C34.5478 30.5467 34.3145 30.7567 34.2212 30.85C34.1745 30.85 34.0112 30.9433 33.7312 31.13C33.4512 31.27 33.1245 31.4567 32.7512 31.69C32.3778 31.8767 32.0045 32.0867 31.6312 32.32C31.3045 32.5067 31.0478 32.67 30.8612 32.81C30.7678 32.8567 30.5578 32.9733 30.2312 33.16C29.9045 33.3 29.6945 33.3933 29.6012 33.44C29.5078 33.5333 29.1578 33.72 28.5512 34C27.9912 34.28 27.3845 34.5833 26.7312 34.91C26.0778 35.19 25.4478 35.47 24.8412 35.75C24.2345 36.03 23.8378 36.1933 23.6512 36.24C23.6512 36.3333 23.6045 36.4267 23.5112 36.52C23.4178 36.5667 23.3712 36.6133 23.3712 36.66C23.3245 36.8933 23.2545 37.2433 23.1612 37.71C23.1145 38.1767 23.0678 38.6667 23.0212 39.18C22.9745 39.6933 22.9278 40.1833 22.8812 40.65C22.8345 41.1167 22.8112 41.42 22.8112 41.56C22.8112 41.7 22.7878 41.9567 22.7412 42.33C22.7412 42.7033 22.7178 43.1 22.6712 43.52C22.6712 43.8933 22.6478 44.2667 22.6012 44.64C22.6012 44.9667 22.6012 45.2 22.6012 45.34C22.4145 47.6267 22.2512 49.2133 22.1112 50.1C21.9712 50.9867 21.8778 51.3833 21.8312 51.29C21.7845 51.2433 21.7378 50.8 21.6912 49.96C21.6912 49.1667 21.6912 48.2567 21.6912 47.23C21.7378 46.1567 21.7845 45.0833 21.8312 44.01C21.8778 42.9367 21.9245 42.0967 21.9712 41.49C21.9712 41.3967 21.9712 41.07 21.9712 40.51C22.0178 39.95 22.0412 39.5533 22.0412 39.32ZM13.5012 19.37C13.5478 19.6967 13.6412 20.2567 13.7812 21.05C13.9678 21.7967 14.1545 22.6133 14.3412 23.5C14.5745 24.3867 14.7612 25.2267 14.9012 26.02C15.0878 26.8133 15.2278 27.3733 15.3212 27.7C15.3678 27.8867 15.4378 28.2367 15.5312 28.75C15.6712 29.2633 15.7878 29.8467 15.8812 30.5C16.0212 31.1067 16.1145 31.69 16.1612 32.25C16.2545 32.81 16.3012 33.2067 16.3012 33.44C16.3945 33.4867 16.4878 33.51 16.5812 33.51H16.9312C16.9778 33.51 17.0245 33.5333 17.0712 33.58C17.1178 33.58 17.1878 33.58 17.2812 33.58H17.4912C17.5378 33.58 17.7012 33.5333 17.9812 33.44C18.3078 33.3467 18.5178 33.3 18.6112 33.3C18.8445 33.2067 19.1712 33.09 19.5912 32.95C20.0112 32.81 20.4312 32.6933 20.8512 32.6C21.2712 32.46 21.6212 32.3433 21.9012 32.25C22.2278 32.1567 22.4145 32.11 22.4612 32.11C22.6478 32.0633 22.9512 31.97 23.3712 31.83C23.8378 31.6433 24.3278 31.4567 24.8412 31.27C25.3545 31.0367 25.8212 30.85 26.2412 30.71C26.7078 30.5233 27.0578 30.3833 27.2912 30.29C27.3378 30.1967 27.6178 30.0333 28.1312 29.8C28.6912 29.5667 29.0645 29.3567 29.2512 29.17C29.3912 29.1233 29.5778 29.0533 29.8112 28.96C30.0912 28.82 30.3478 28.68 30.5812 28.54C30.8612 28.4 31.0945 28.2833 31.2812 28.19C31.5145 28.05 31.6545 27.9567 31.7012 27.91C31.7478 27.91 31.8645 27.84 32.0512 27.7C32.2845 27.56 32.5178 27.42 32.7512 27.28C33.0312 27.0933 33.2878 26.9067 33.5212 26.72C33.7545 26.5333 33.9178 26.37 34.0112 26.23C34.1045 26.1833 34.1978 26.1367 34.2912 26.09C34.4312 25.9967 34.5478 25.9033 34.6412 25.81C34.6878 25.7167 34.8045 25.5533 34.9912 25.32C35.2245 25.04 35.3412 24.8533 35.3412 24.76L35.4812 24.41C35.4345 24.41 35.4112 24.3867 35.4112 24.34V24.2V23.99C35.3178 23.8967 35.2245 23.78 35.1312 23.64C34.9445 23.36 34.8512 23.1967 34.8512 23.15C34.7578 23.1033 34.6178 23.0567 34.4312 23.01C34.2912 22.9633 34.1745 22.8933 34.0812 22.8C33.9412 22.8 33.7312 22.7067 33.4512 22.52C33.3112 22.4267 33.1712 22.3567 33.0312 22.31C32.7512 22.2633 32.3312 22.17 31.7712 22.03C31.2112 21.89 30.8378 21.7733 30.6512 21.68C30.6512 21.68 30.4412 21.6567 30.0212 21.61C29.6478 21.5167 29.2045 21.4467 28.6912 21.4C28.1778 21.3067 27.6412 21.2367 27.0812 21.19C26.5678 21.0967 26.1478 21.0267 25.8212 20.98H25.6112H25.3312C25.3312 21.0733 25.3078 21.2833 25.2612 21.61C25.2145 21.89 25.1678 22.2167 25.1212 22.59C25.0745 22.9167 25.0045 23.2667 24.9112 23.64C24.8178 23.9667 24.7478 24.2 24.7012 24.34C24.6545 24.5267 24.6078 24.76 24.5612 25.04C24.5612 25.2733 24.5145 25.53 24.4212 25.81C24.3278 26.1367 24.2578 26.4867 24.2112 26.86C24.1178 26.9067 24.0012 27.0467 23.8612 27.28C23.7212 27.4667 23.6045 27.56 23.5112 27.56L24.1412 20.84L23.5112 20.77C23.4645 20.91 23.3945 21.2133 23.3012 21.68C23.2078 22.1467 23.0912 22.4733 22.9512 22.66C22.9512 22.7067 22.8578 22.7533 22.6712 22.8C22.5312 22.8467 22.4145 22.87 22.3212 22.87L22.5312 20.7C21.3645 20.5133 20.2445 20.3267 19.1712 20.14C18.2378 19.9533 17.2578 19.7667 16.2312 19.58C15.2512 19.3933 14.4345 19.23 13.7812 19.09H13.5012V19.37ZM33.8137 4.81C33.8604 4.71666 33.9071 4.6 33.9537 4.46C34.0471 4.18 34.0938 4.01667 34.0938 3.97C34.1871 3.87666 34.3271 3.69 34.5138 3.41C34.7471 3.13 34.8638 2.96667 34.8638 2.92C34.9571 2.82666 35.1438 2.64 35.4238 2.36C35.7038 2.03333 35.8904 1.82333 35.9838 1.73C36.0771 1.68333 36.2871 1.56666 36.6138 1.38C36.9404 1.14667 37.1504 1.03 37.2438 1.03C37.2438 0.936665 37.3838 0.843331 37.6638 0.749999C37.9438 0.656664 38.1538 0.563331 38.2938 0.469999H38.5038H38.6438L39.4838 1.31C39.5304 1.40333 39.5771 1.54333 39.6238 1.73C39.7171 1.87 39.7638 1.98666 39.7638 2.08C39.8571 2.22 39.9504 2.59333 40.0438 3.2C40.1371 3.76 40.1838 4.11 40.1838 4.25C40.1838 4.43666 40.1838 4.99666 40.1838 5.93C40.2304 6.81667 40.2538 7.93667 40.2538 9.29C40.3004 10.5967 40.3238 11.9967 40.3238 13.49C40.3704 14.9833 40.3938 16.3833 40.3938 17.69C40.4404 18.9967 40.4638 20.1167 40.4638 21.05C40.5104 21.9833 40.5338 22.52 40.5338 22.66C40.6738 22.6133 40.8604 22.4967 41.0938 22.31C41.3271 22.0767 41.5838 21.8433 41.8638 21.61C42.1438 21.33 42.4004 21.0967 42.6338 20.91C42.9138 20.7233 43.1238 20.5833 43.2638 20.49C43.3104 20.3967 43.4738 20.2567 43.7538 20.07C44.0338 19.8833 44.2204 19.7433 44.3138 19.65C44.4071 19.65 44.5471 19.6033 44.7338 19.51C44.9204 19.37 45.0604 19.3 45.1538 19.3C45.2471 19.3 45.3404 19.2767 45.4338 19.23C45.5738 19.1833 45.6904 19.1367 45.7838 19.09C45.9238 19.0433 46.0638 18.9733 46.2038 18.88H47.6738H48.9338L50.4738 19.65C50.6604 19.79 50.9871 20.0933 51.4538 20.56C51.9204 21.0267 52.2238 21.3533 52.3638 21.54C52.4571 21.6333 52.6438 21.9367 52.9238 22.45C53.2038 22.9167 53.3671 23.2433 53.4138 23.43C53.4604 23.5233 53.5304 23.6867 53.6238 23.92C53.7638 24.1533 53.8804 24.41 53.9738 24.69C54.1138 24.97 54.2304 25.25 54.3238 25.53C54.4638 25.81 54.5571 26.02 54.6038 26.16C54.6038 26.2533 54.6504 26.44 54.7438 26.72C54.8838 27 55.0004 27.3267 55.0938 27.7C55.2338 28.0267 55.3504 28.3767 55.4438 28.75C55.5371 29.1233 55.6071 29.4033 55.6538 29.59C55.7004 29.6833 55.7704 29.8467 55.8638 30.08C55.9571 30.3133 56.0504 30.57 56.1438 30.85C56.2371 31.0833 56.3071 31.3167 56.3538 31.55C56.4471 31.7833 56.4938 31.97 56.4938 32.11C56.4938 32.2967 56.5871 32.7633 56.7738 33.51C56.9604 34.21 57.1471 34.98 57.3338 35.82C57.5671 36.6133 57.7771 37.3833 57.9638 38.13C58.1971 38.83 58.3371 39.25 58.3838 39.39C58.3838 39.4833 58.4304 39.6467 58.5238 39.88C58.6171 40.1133 58.6871 40.3933 58.7338 40.72C58.8271 41 58.8971 41.28 58.9438 41.56C59.0371 41.7933 59.0838 41.9333 59.0838 41.98C59.1771 42.1667 59.2471 42.47 59.2938 42.89C59.3871 43.2633 59.4338 43.4967 59.4338 43.59V43.8V43.87C59.4338 43.9633 59.3404 44.22 59.1538 44.64C59.0138 45.0133 58.8971 45.2933 58.8038 45.48C58.7104 45.5733 58.5704 45.76 58.3838 46.04C58.2438 46.32 58.1271 46.5067 58.0338 46.6C57.9871 46.6933 57.9404 46.7633 57.8938 46.81C57.8004 46.9033 57.6838 46.95 57.5438 46.95C57.4504 46.9967 57.2638 47.1133 56.9838 47.3C56.7038 47.4867 56.5404 47.6033 56.4938 47.65C56.2604 47.8833 55.9804 48 55.6538 48C55.6071 48.0467 55.5371 48.0933 55.4438 48.14C55.3504 48.1867 55.2104 48.21 55.0238 48.21C54.7904 48.21 54.6271 48.1867 54.5338 48.14L54.2538 48C54.2071 48 54.1604 47.9767 54.1138 47.93C54.0671 47.8833 53.9971 47.86 53.9038 47.86C53.8571 47.8133 53.8104 47.7433 53.7638 47.65C53.7638 47.6033 53.6938 47.4867 53.5538 47.3C53.4604 47.1133 53.4138 46.9967 53.4138 46.95C53.4138 46.8567 53.3671 46.67 53.2738 46.39C53.1804 46.0633 53.1338 45.8533 53.1338 45.76C53.0404 45.5267 52.8771 44.9667 52.6438 44.08C52.4104 43.1933 52.1771 42.2367 51.9438 41.21C51.7104 40.1833 51.4771 39.2267 51.2438 38.34C51.0104 37.4533 50.8704 36.8933 50.8238 36.66C50.7304 36.4733 50.5904 36.0533 50.4038 35.4C50.2171 34.7 50.0771 34.2333 49.9838 34C49.9371 33.86 49.8671 33.65 49.7738 33.37C49.6804 33.0433 49.5638 32.7167 49.4238 32.39C49.3304 32.0167 49.2138 31.6667 49.0738 31.34C48.9804 31.0133 48.9338 30.78 48.9338 30.64C48.9338 30.5 48.8171 30.1967 48.5838 29.73C48.3504 29.2633 48.1871 28.9367 48.0938 28.75C48.0938 28.7033 48.0704 28.6567 48.0238 28.61C47.9304 28.5167 47.8838 28.4467 47.8838 28.4C47.8371 28.3067 47.7904 28.19 47.7438 28.05C47.6971 27.9567 47.5571 27.77 47.3238 27.49C47.0904 27.1633 46.9271 26.9533 46.8338 26.86V32.11C46.7404 32.0167 46.6238 31.7367 46.4838 31.27C46.3904 30.7567 46.2971 30.4067 46.2038 30.22C46.2038 30.08 46.1804 29.8 46.1338 29.38C46.0871 28.96 46.0404 28.5167 45.9938 28.05C45.9938 27.5367 45.9704 27.07 45.9238 26.65C45.8771 26.23 45.8538 25.95 45.8538 25.81C45.8071 25.7167 45.6904 25.5533 45.5038 25.32C45.3171 25.0867 45.2004 24.97 45.1538 24.97C45.0604 24.9233 44.9204 24.8533 44.7338 24.76C44.5471 24.62 44.4071 24.55 44.3138 24.55C44.3138 24.6433 44.1971 24.7833 43.9638 24.97C43.7771 25.11 43.6371 25.2267 43.5438 25.32C43.4504 25.5533 43.3104 25.9733 43.1238 26.58C42.9838 27.1867 42.9138 27.56 42.9138 27.7V45.76C42.9138 45.8533 42.8438 46.11 42.7038 46.53C42.6104 46.9033 42.5171 47.1833 42.4238 47.37C42.4238 47.4633 42.3071 47.6967 42.0738 48.07C41.8871 48.49 41.7471 48.7467 41.6538 48.84C41.5604 48.98 41.2571 49.2833 40.7438 49.75C40.2771 50.2167 39.9504 50.5433 39.7638 50.73C39.6704 50.7767 39.4838 50.8933 39.2038 51.08C38.9238 51.3133 38.7371 51.43 38.6438 51.43H37.6638H36.7538L36.4037 51.15C36.3571 51.0567 36.2871 50.9167 36.1938 50.73C36.1471 50.59 36.0771 50.4733 35.9838 50.38C35.9838 50.24 35.9371 49.9833 35.8438 49.61C35.7504 49.2367 35.7038 48.98 35.7038 48.84C35.7038 48.56 35.6338 48.0467 35.4938 47.3C35.4004 46.5533 35.3538 46.04 35.3538 45.76C35.3071 45.48 35.2371 45.0367 35.1438 44.43C35.0971 43.8233 35.0504 43.1933 35.0038 42.54C34.9571 41.84 34.9104 41.21 34.8638 40.65C34.8638 40.0433 34.8638 39.6233 34.8638 39.39C34.8638 39.11 34.8404 38.5733 34.7938 37.78C34.7938 36.94 34.7704 35.9833 34.7238 34.91C34.7238 33.79 34.7004 32.6233 34.6538 31.41C34.6538 30.15 34.6304 28.9833 34.5838 27.91C34.5838 26.79 34.5604 25.8333 34.5138 25.04C34.5138 24.2467 34.5138 23.71 34.5138 23.43C34.5138 23.3367 34.4904 22.8933 34.4438 22.1C34.4438 21.26 34.4204 20.28 34.3738 19.16C34.3738 17.9933 34.3504 16.7567 34.3038 15.45C34.3038 14.0967 34.2804 12.8367 34.2338 11.67C34.2338 10.5033 34.2104 9.52333 34.1638 8.73C34.1171 7.93667 34.0938 7.49333 34.0938 7.4C34.0471 7.35333 34.0237 7.30666 34.0237 7.26C34.0237 7.21333 34.0237 7.19 34.0237 7.19C33.9771 7.14333 33.9537 7.09666 33.9537 7.05C33.9071 6.95667 33.8604 6.84 33.8137 6.7V5.72V4.81ZM74.6046 50.1C74.6046 50.2867 74.5346 50.7067 74.3946 51.36C74.3013 52.06 74.2079 52.5267 74.1146 52.76L73.7646 53.39L73.1346 53.04V48.56C73.0413 48.5133 72.8313 48.4433 72.5046 48.35C72.2246 48.3033 71.9213 48.2333 71.5946 48.14C71.2679 48.0467 70.9413 47.9767 70.6146 47.93C70.3346 47.8367 70.1246 47.7667 69.9846 47.72C69.8913 47.72 69.7279 47.6967 69.4946 47.65C69.3079 47.5567 69.0979 47.4633 68.8646 47.37C68.6313 47.2767 68.3979 47.2067 68.1646 47.16C67.9313 47.0667 67.7679 46.9967 67.6746 46.95C67.5813 46.95 67.3479 46.88 66.9746 46.74C66.6479 46.5533 66.3913 46.4133 66.2046 46.32C66.1579 46.2267 65.9946 46.0867 65.7146 45.9C65.4346 45.7133 65.2479 45.5733 65.1546 45.48C65.0146 45.34 64.7346 45.13 64.3146 44.85C63.8946 44.57 63.6613 44.43 63.6146 44.43C63.5213 44.29 63.2646 44.01 62.8446 43.59C62.4713 43.17 62.1913 42.9367 62.0046 42.89C62.0046 42.7967 61.8413 42.5633 61.5146 42.19C61.2346 41.8167 61.0246 41.5133 60.8846 41.28C60.7913 41.1867 60.6513 41 60.4646 40.72C60.3246 40.44 60.2079 40.2533 60.1146 40.16C60.0679 40.0667 59.9746 39.9267 59.8346 39.74C59.7413 39.5067 59.6479 39.2733 59.5546 39.04C59.4613 38.76 59.3446 38.5267 59.2046 38.34C59.1113 38.1067 59.0413 37.9667 58.9946 37.92C58.9013 37.78 58.7613 37.43 58.5746 36.87C58.4346 36.2633 58.3179 35.8433 58.2246 35.61C58.2246 35.47 58.1779 35.12 58.0846 34.56C57.9913 33.9533 57.9446 33.58 57.9446 33.44V31.55V29.66C57.9446 29.5667 57.9913 29.2633 58.0846 28.75C58.1779 28.2367 58.2246 27.91 58.2246 27.77C58.3179 27.49 58.4346 27.07 58.5746 26.51C58.7613 25.9033 58.9013 25.5067 58.9946 25.32C59.0413 25.32 59.1113 25.2267 59.2046 25.04C59.3446 24.8533 59.4613 24.6433 59.5546 24.41C59.6479 24.1767 59.7413 23.9433 59.8346 23.71C59.9746 23.4767 60.0679 23.29 60.1146 23.15C60.2079 23.0567 60.3246 22.87 60.4646 22.59C60.6513 22.31 60.7913 22.1467 60.8846 22.1C61.0246 21.9133 61.2346 21.6333 61.5146 21.26C61.8413 20.84 62.0046 20.5833 62.0046 20.49C62.0979 20.3967 62.2846 20.21 62.5646 19.93C62.8913 19.65 63.1246 19.4633 63.2646 19.37C63.2646 19.2767 63.4513 19.09 63.8246 18.81C64.1979 18.53 64.4779 18.3667 64.6646 18.32L65.7846 17.48C66.0179 17.3867 66.4146 17.2 66.9746 16.92C67.5813 16.64 67.9546 16.4767 68.0946 16.43C68.1879 16.43 68.3746 16.36 68.6546 16.22C68.9813 16.08 69.1913 15.9633 69.2846 15.87C69.5179 15.87 69.7979 15.8233 70.1246 15.73C70.4979 15.6367 70.7313 15.59 70.8246 15.59H72.8546H74.9546C75.0013 15.59 75.3046 15.6367 75.8646 15.73C76.4713 15.8233 76.9379 15.87 77.2646 15.87C77.4046 15.9633 77.7313 16.08 78.2446 16.22C78.7579 16.36 79.0613 16.43 79.1546 16.43C79.2946 16.43 79.6446 16.5467 80.2046 16.78C80.8113 16.9667 81.1846 17.0833 81.3246 17.13C81.4179 17.1767 81.6046 17.27 81.8846 17.41C82.1646 17.55 82.4679 17.69 82.7946 17.83C83.1213 17.97 83.4246 18.1333 83.7046 18.32C84.0313 18.46 84.2646 18.5533 84.4046 18.6C84.5446 18.6933 84.7546 18.8333 85.0346 19.02C85.3146 19.16 85.4546 19.2767 85.4546 19.37C85.5946 19.51 85.8746 19.7667 86.2946 20.14C86.7146 20.5133 86.9479 20.77 86.9946 20.91C87.0879 21.0033 87.2513 21.26 87.4846 21.68C87.7179 22.0533 87.8346 22.2867 87.8346 22.38V23.43V24.69C87.7879 24.83 87.7413 24.9933 87.6946 25.18C87.6479 25.32 87.5779 25.46 87.4846 25.6C87.4379 25.6933 87.3913 25.7867 87.3446 25.88C87.3446 25.9267 87.2979 26.0433 87.2046 26.23C87.1579 26.4167 87.0879 26.5333 86.9946 26.58C86.9479 26.6733 86.7846 26.93 86.5046 27.35C86.2246 27.7233 86.0379 27.9567 85.9446 28.05C85.8513 28.1433 85.6646 28.3533 85.3846 28.68C85.1046 29.0067 84.9179 29.2167 84.8246 29.31C84.6379 29.4033 84.3346 29.59 83.9146 29.87C83.5413 30.15 83.3079 30.3133 83.2146 30.36C83.2146 30.4067 83.1213 30.5 82.9346 30.64C82.7479 30.7333 82.5379 30.85 82.3046 30.99C82.0713 31.0833 81.8379 31.2 81.6046 31.34C81.3713 31.4333 81.1846 31.5033 81.0446 31.55C80.9513 31.55 80.7413 31.5967 80.4146 31.69C80.1346 31.7833 79.9246 31.83 79.7846 31.83C79.5979 31.9233 79.3413 32.0167 79.0146 32.11C78.6879 32.2033 78.4779 32.25 78.3846 32.25C78.2446 32.25 77.9879 32.2733 77.6146 32.32C77.2413 32.3667 76.8446 32.4133 76.4246 32.46C76.0046 32.46 75.6079 32.4833 75.2346 32.53C74.9079 32.5767 74.6979 32.6 74.6046 32.6H72.7146H70.8246C70.6846 32.6 70.3346 32.5767 69.7746 32.53C69.2613 32.4833 68.7013 32.46 68.0946 32.46C67.4879 32.4133 66.9279 32.3667 66.4146 32.32C65.9013 32.2733 65.5979 32.25 65.5046 32.25H64.8746H64.3146C64.3146 32.3433 64.3613 32.5533 64.4546 32.88C64.5946 33.16 64.6646 33.3467 64.6646 33.44C64.7579 33.58 64.9446 33.9533 65.2246 34.56C65.5046 35.12 65.6913 35.47 65.7846 35.61C65.8779 35.7967 66.0179 36.03 66.2046 36.31C66.4379 36.59 66.5546 36.7767 66.5546 36.87C66.6946 36.9633 66.9046 37.15 67.1846 37.43C67.4646 37.71 67.7679 38.0133 68.0946 38.34C68.4213 38.6667 68.7246 38.97 69.0046 39.25C69.3313 39.53 69.5646 39.7167 69.7046 39.81C69.7046 39.9033 69.8446 40.0433 70.1246 40.23C70.4513 40.4167 70.6846 40.5567 70.8246 40.65C71.0113 40.7433 71.3846 40.93 71.9446 41.21C72.5046 41.49 72.8779 41.6533 73.0646 41.7C73.1113 41.7 73.2746 41.77 73.5546 41.91C73.8346 42.0033 74.0213 42.05 74.1146 42.05C74.3479 42.1433 74.7679 42.2367 75.3746 42.33C75.9813 42.3767 76.3546 42.4467 76.4946 42.54H77.5446H78.7346C78.8746 42.4467 79.1313 42.3767 79.5046 42.33C79.8779 42.2367 80.1346 42.1433 80.2746 42.05L80.6246 41.7V37.22C80.6713 37.08 80.7179 36.9167 80.7646 36.73C80.8113 36.59 80.8579 36.4733 80.9046 36.38C80.9513 36.24 80.9979 36.1233 81.0446 36.03C81.0913 35.9833 81.1146 35.9367 81.1146 35.89C81.1146 35.7967 81.1379 35.7267 81.1846 35.68C81.2313 35.5867 81.2779 35.47 81.3246 35.33L83.2146 33.44C83.3079 33.3467 83.5413 33.2067 83.9146 33.02C84.3346 32.8333 84.6379 32.6933 84.8246 32.6H85.1046H85.4546C85.5479 32.6933 85.7113 32.8333 85.9446 33.02C86.1779 33.2067 86.2946 33.3467 86.2946 33.44C86.3413 33.4867 86.3879 33.7667 86.4346 34.28C86.5279 34.7933 86.6213 35.1433 86.7146 35.33V36.59V37.92C86.6213 38.1067 86.5279 38.4333 86.4346 38.9C86.3879 39.3667 86.3413 39.67 86.2946 39.81C86.2946 39.8567 86.2479 39.9967 86.1546 40.23C86.0613 40.4167 85.9446 40.6267 85.8046 40.86C85.7113 41.0933 85.5946 41.3267 85.4546 41.56C85.3146 41.7933 85.1979 41.9567 85.1046 42.05C85.0579 42.19 84.9413 42.4233 84.7546 42.75C84.5679 43.03 84.4513 43.17 84.4046 43.17C84.3113 43.2633 84.1246 43.45 83.8446 43.73C83.6113 43.9633 83.3546 44.22 83.0746 44.5C82.7946 44.78 82.5146 45.06 82.2346 45.34C82.0013 45.5733 81.8146 45.7367 81.6746 45.83C81.6746 45.9233 81.5346 46.0633 81.2546 46.25C80.9746 46.4367 80.7646 46.5767 80.6246 46.67C80.5313 46.7167 80.2746 46.8333 79.8546 47.02C79.4813 47.2067 79.2479 47.3233 79.1546 47.37C78.9679 47.37 78.6179 47.4867 78.1046 47.72C77.6379 47.9533 77.3579 48.1167 77.2646 48.21C77.1713 48.21 77.0313 48.2567 76.8446 48.35C76.7046 48.49 76.5879 48.56 76.4946 48.56C76.4946 48.84 76.4713 49.33 76.4246 50.03C76.4246 50.73 76.4013 51.4767 76.3546 52.27C76.3079 53.11 76.2379 53.88 76.1446 54.58C76.0979 55.3267 76.0513 55.84 76.0046 56.12C76.0046 56.26 75.9579 56.5633 75.8646 57.03C75.8179 57.4967 75.7479 57.8233 75.6546 58.01C75.6546 58.0567 75.6079 58.1733 75.5146 58.36C75.4213 58.5467 75.3746 58.6633 75.3746 58.71C75.2813 58.57 75.1879 58.2667 75.0946 57.8C75.0013 57.3333 74.9546 57.0067 74.9546 56.82C74.9546 56.54 74.9313 56.0733 74.8846 55.42C74.8379 54.8133 74.7913 54.1367 74.7446 53.39C74.7446 52.69 74.7213 52.0133 74.6746 51.36C74.6279 50.7533 74.6046 50.3333 74.6046 50.1ZM63.8946 25.67C63.9879 25.67 64.1979 25.6933 64.5246 25.74C64.8513 25.74 65.2013 25.7633 65.5746 25.81C65.9479 25.81 66.2979 25.8333 66.6246 25.88C66.9979 25.88 67.2546 25.88 67.3946 25.88L67.9546 26.02C68.1413 26.0667 68.3046 26.1133 68.4446 26.16C68.7713 26.2533 69.3079 26.3467 70.0546 26.44C70.8479 26.5333 71.3613 26.58 71.5946 26.58H76.6346H80.2746L81.6746 26.16C81.5813 26.02 81.3013 25.7167 80.8346 25.25C80.3679 24.7833 80.0179 24.4567 79.7846 24.27C79.7379 24.2233 79.5979 24.13 79.3646 23.99C79.1313 23.85 78.8513 23.71 78.5246 23.57C78.1979 23.3833 77.8713 23.22 77.5446 23.08C77.2646 22.94 77.0313 22.8467 76.8446 22.8C76.7979 22.8 76.6579 22.7767 76.4246 22.73C76.2379 22.6367 76.0046 22.5433 75.7246 22.45C75.4913 22.3567 75.2579 22.2867 75.0246 22.24C74.8379 22.1467 74.6979 22.1 74.6046 22.1C74.3713 22.0067 74.0213 21.89 73.5546 21.75C73.0879 21.61 72.8079 21.54 72.7146 21.54H69.9146H67.0446C66.9046 21.6333 66.6479 21.7967 66.2746 22.03C65.9013 22.2633 65.6446 22.38 65.5046 22.38L65.2946 22.59C65.2479 22.6367 65.2246 22.6833 65.2246 22.73C65.2246 22.7767 65.2013 22.8 65.1546 22.8C65.0613 22.8933 64.9213 23.15 64.7346 23.57C64.5479 23.9433 64.4079 24.1767 64.3146 24.27C64.2679 24.3633 64.1979 24.55 64.1046 24.83C64.0579 25.11 63.9879 25.2733 63.8946 25.32V25.67ZM88.9573 45.06C88.9573 44.9667 89.074 44.7333 89.3073 44.36C89.5407 43.94 89.704 43.6833 89.7973 43.59V40.02V36.38C89.7507 36.24 89.6807 35.8667 89.5873 35.26C89.5407 34.6067 89.4707 33.9067 89.3773 33.16C89.284 32.3667 89.1907 31.5967 89.0973 30.85C89.0507 30.1033 89.004 29.52 88.9573 29.1C88.9573 28.9133 88.8873 28.4933 88.7473 27.84C88.654 27.14 88.5373 26.37 88.3973 25.53C88.304 24.69 88.2107 23.8733 88.1173 23.08C88.024 22.24 87.954 21.6333 87.9073 21.26C87.814 20.98 87.7207 20.6067 87.6273 20.14C87.534 19.6733 87.4407 19.2067 87.3473 18.74C87.3007 18.2267 87.254 17.7833 87.2073 17.41C87.114 17.0367 87.0673 16.8033 87.0673 16.71C87.0673 16.6633 87.044 16.57 86.9973 16.43C86.904 16.2433 86.8107 16.0567 86.7173 15.87C86.5773 15.6833 86.4607 15.4733 86.3673 15.24V14.82V14.54C86.3673 14.4467 86.414 14.26 86.5073 13.98C86.6007 13.6533 86.6473 13.4433 86.6473 13.35C86.7407 13.0233 86.8807 12.72 87.0673 12.44C87.1607 12.2533 87.2773 12.0433 87.4173 11.81C87.5573 11.6233 87.8607 11.2967 88.3273 10.83C88.794 10.3633 89.1207 10.06 89.3073 9.92C89.4007 9.82667 89.634 9.71 90.0073 9.57C90.4273 9.38333 90.7073 9.24333 90.8473 9.15H91.1973H91.6873C91.7807 9.24333 91.8973 9.38333 92.0373 9.57C92.224 9.71 92.3173 9.82667 92.3173 9.92C92.4107 9.92 92.4807 10.1767 92.5273 10.69C92.6207 11.2033 92.6907 11.5767 92.7373 11.81C92.784 12.0433 92.8307 12.3933 92.8773 12.86C92.9707 13.28 93.064 13.7467 93.1573 14.26C93.2507 14.7267 93.3207 15.17 93.3673 15.59C93.4607 16.01 93.5307 16.29 93.5773 16.43C93.624 16.7567 93.694 17.3167 93.7873 18.11C93.8807 18.8567 93.974 19.65 94.0673 20.49C94.2073 21.33 94.324 22.1233 94.4173 22.87C94.5573 23.57 94.6273 24.0367 94.6273 24.27C94.674 24.55 94.7207 25.0167 94.7673 25.67C94.8607 26.2767 94.954 26.93 95.0473 27.63C95.1407 28.2833 95.2107 28.9133 95.2573 29.52C95.3507 30.1267 95.4207 30.5233 95.4673 30.71C95.4673 30.99 95.4907 31.3867 95.5373 31.9C95.584 32.3667 95.6073 32.8567 95.6073 33.37C95.654 33.8833 95.7007 34.35 95.7473 34.77C95.794 35.19 95.8173 35.47 95.8173 35.61V40.65V45.48C95.8173 45.5733 95.7007 45.83 95.4673 46.25C95.234 46.6233 95.0707 46.8567 94.9773 46.95C94.884 47.1367 94.6973 47.44 94.4173 47.86C94.1373 48.2333 93.974 48.4667 93.9273 48.56C93.9273 48.7 93.904 48.98 93.8573 49.4C93.8107 49.8667 93.764 50.3333 93.7173 50.8C93.7173 51.2667 93.694 51.71 93.6473 52.13C93.6007 52.5967 93.5773 52.9 93.5773 53.04C93.484 53.1333 93.3907 53.3667 93.2973 53.74C93.2507 54.16 93.1807 54.4633 93.0873 54.65C93.0873 54.6033 93.064 54.5333 93.0173 54.44C92.9707 54.3933 92.924 54.3233 92.8773 54.23C92.8307 54.1367 92.784 54.02 92.7373 53.88C92.7373 53.74 92.714 53.46 92.6673 53.04C92.6207 52.62 92.574 52.1767 92.5273 51.71C92.4807 51.29 92.434 50.87 92.3873 50.45C92.3407 50.03 92.3173 49.75 92.3173 49.61V60.6L92.0373 62.49C92.0373 62.4433 92.014 62.28 91.9673 62C91.9207 61.7667 91.874 61.51 91.8273 61.23C91.8273 60.95 91.804 60.67 91.7573 60.39C91.7107 60.1567 91.6873 59.9933 91.6873 59.9C91.6407 59.76 91.5707 59.34 91.4773 58.64C91.4307 57.9867 91.384 57.2633 91.3373 56.47C91.2907 55.6767 91.244 54.93 91.1973 54.23C91.1973 53.5767 91.1973 53.18 91.1973 53.04C91.1973 52.8533 91.174 52.5733 91.1273 52.2C91.0807 51.8733 91.034 51.5233 90.9873 51.15C90.9873 50.7767 90.964 50.45 90.9173 50.17C90.8707 49.89 90.8473 49.7033 90.8473 49.61C90.7073 49.47 90.5907 49.3067 90.4973 49.12C90.404 48.98 90.3107 48.8633 90.2173 48.77C90.1707 48.6767 90.1473 48.6067 90.1473 48.56C90.054 48.4667 89.984 48.35 89.9373 48.21C89.844 47.93 89.7973 47.7667 89.7973 47.72C89.704 47.72 89.5407 47.6267 89.3073 47.44C89.074 47.2067 88.9573 47.0433 88.9573 46.95V46.11V45.06ZM98.0491 45.06C98.0491 44.9667 98.1658 44.7333 98.3991 44.36C98.6325 43.94 98.7958 43.6833 98.8891 43.59V40.02V36.38C98.8425 36.24 98.7725 35.8667 98.6791 35.26C98.6325 34.6067 98.5625 33.9067 98.4691 33.16C98.3758 32.3667 98.2825 31.5967 98.1891 30.85C98.1425 30.1033 98.0958 29.52 98.0491 29.1C98.0491 28.9133 97.9791 28.4933 97.8391 27.84C97.7458 27.14 97.6291 26.37 97.4891 25.53C97.3958 24.69 97.3025 23.8733 97.2091 23.08C97.1158 22.24 97.0458 21.6333 96.9991 21.26C96.9058 20.98 96.8125 20.6067 96.7191 20.14C96.6258 19.6733 96.5325 19.2067 96.4391 18.74C96.3925 18.2267 96.3458 17.7833 96.2991 17.41C96.2058 17.0367 96.1591 16.8033 96.1591 16.71C96.1591 16.6633 96.1358 16.57 96.0891 16.43C95.9958 16.2433 95.9025 16.0567 95.8091 15.87C95.6691 15.6833 95.5525 15.4733 95.4591 15.24V14.82V14.54C95.4591 14.4467 95.5058 14.26 95.5991 13.98C95.6925 13.6533 95.7391 13.4433 95.7391 13.35C95.8325 13.0233 95.9725 12.72 96.1591 12.44C96.2525 12.2533 96.3691 12.0433 96.5091 11.81C96.6491 11.6233 96.9525 11.2967 97.4191 10.83C97.8858 10.3633 98.2125 10.06 98.3991 9.92C98.4925 9.82667 98.7258 9.71 99.0991 9.57C99.5191 9.38333 99.7991 9.24333 99.9391 9.15H100.289H100.779C100.872 9.24333 100.989 9.38333 101.129 9.57C101.316 9.71 101.409 9.82667 101.409 9.92C101.502 9.92 101.572 10.1767 101.619 10.69C101.712 11.2033 101.782 11.5767 101.829 11.81C101.876 12.0433 101.922 12.3933 101.969 12.86C102.062 13.28 102.156 13.7467 102.249 14.26C102.342 14.7267 102.412 15.17 102.459 15.59C102.552 16.01 102.622 16.29 102.669 16.43C102.716 16.7567 102.786 17.3167 102.879 18.11C102.972 18.8567 103.066 19.65 103.159 20.49C103.299 21.33 103.416 22.1233 103.509 22.87C103.649 23.57 103.719 24.0367 103.719 24.27C103.766 24.55 103.812 25.0167 103.859 25.67C103.952 26.2767 104.046 26.93 104.139 27.63C104.232 28.2833 104.302 28.9133 104.349 29.52C104.442 30.1267 104.512 30.5233 104.559 30.71C104.559 30.99 104.582 31.3867 104.629 31.9C104.676 32.3667 104.699 32.8567 104.699 33.37C104.746 33.8833 104.792 34.35 104.839 34.77C104.886 35.19 104.909 35.47 104.909 35.61V40.65V45.48C104.909 45.5733 104.792 45.83 104.559 46.25C104.326 46.6233 104.162 46.8567 104.069 46.95C103.976 47.1367 103.789 47.44 103.509 47.86C103.229 48.2333 103.066 48.4667 103.019 48.56C103.019 48.7 102.996 48.98 102.949 49.4C102.902 49.8667 102.856 50.3333 102.809 50.8C102.809 51.2667 102.786 51.71 102.739 52.13C102.692 52.5967 102.669 52.9 102.669 53.04C102.576 53.1333 102.482 53.3667 102.389 53.74C102.342 54.16 102.272 54.4633 102.179 54.65C102.179 54.6033 102.156 54.5333 102.109 54.44C102.062 54.3933 102.016 54.3233 101.969 54.23C101.922 54.1367 101.876 54.02 101.829 53.88C101.829 53.74 101.806 53.46 101.759 53.04C101.712 52.62 101.666 52.1767 101.619 51.71C101.572 51.29 101.526 50.87 101.479 50.45C101.432 50.03 101.409 49.75 101.409 49.61V60.6L101.129 62.49C101.129 62.4433 101.106 62.28 101.059 62C101.012 61.7667 100.966 61.51 100.919 61.23C100.919 60.95 100.896 60.67 100.849 60.39C100.802 60.1567 100.779 59.9933 100.779 59.9C100.732 59.76 100.662 59.34 100.569 58.64C100.522 57.9867 100.476 57.2633 100.429 56.47C100.382 55.6767 100.336 54.93 100.289 54.23C100.289 53.5767 100.289 53.18 100.289 53.04C100.289 52.8533 100.266 52.5733 100.219 52.2C100.172 51.8733 100.126 51.5233 100.079 51.15C100.079 50.7767 100.056 50.45 100.009 50.17C99.9625 49.89 99.9391 49.7033 99.9391 49.61C99.7991 49.47 99.6825 49.3067 99.5891 49.12C99.4958 48.98 99.4025 48.8633 99.3091 48.77C99.2625 48.6767 99.2391 48.6067 99.2391 48.56C99.1458 48.4667 99.0758 48.35 99.0291 48.21C98.9358 47.93 98.8891 47.7667 98.8891 47.72C98.7958 47.72 98.6325 47.6267 98.3991 47.44C98.1658 47.2067 98.0491 47.0433 98.0491 46.95V46.11V45.06ZM109.241 55.14V48.7C109.054 48.6067 108.774 48.4667 108.401 48.28C108.074 48.0933 107.818 47.9533 107.631 47.86C107.584 47.72 107.538 47.6033 107.491 47.51C107.398 47.3233 107.351 47.2067 107.351 47.16C107.351 47.0667 107.281 46.7633 107.141 46.25C107.048 45.7367 107.001 45.41 107.001 45.27C106.954 45.13 106.884 44.8967 106.791 44.57C106.744 44.2433 106.698 43.9167 106.651 43.59C106.604 43.2167 106.558 42.8667 106.511 42.54C106.511 42.1667 106.511 41.91 106.511 41.77C106.464 41.21 106.394 40.44 106.301 39.46C106.254 38.4333 106.184 37.4067 106.091 36.38C106.044 35.3067 105.974 34.35 105.881 33.51C105.834 32.67 105.788 32.18 105.741 32.04V29.17V26.37C105.834 26.1833 105.951 25.9033 106.091 25.53C106.278 25.11 106.418 24.8533 106.511 24.76C106.604 24.6667 106.838 24.4333 107.211 24.06C107.631 23.64 107.911 23.3833 108.051 23.29C108.144 23.15 108.331 23.01 108.611 22.87C108.938 22.6833 109.148 22.59 109.241 22.59C109.288 22.59 109.451 22.5667 109.731 22.52C110.011 22.4267 110.198 22.38 110.291 22.38C110.338 22.38 110.501 22.4267 110.781 22.52C110.921 22.5667 111.038 22.59 111.131 22.59L111.411 23.29C111.458 23.57 111.504 24.1067 111.551 24.9C111.598 25.6467 111.621 26.44 111.621 27.28C111.668 28.12 111.714 28.9133 111.761 29.66C111.808 30.4067 111.831 30.92 111.831 31.2C111.831 31.48 111.854 32.0167 111.901 32.81C111.994 33.6033 112.088 34.4667 112.181 35.4C112.274 36.3333 112.368 37.22 112.461 38.06C112.554 38.9 112.624 39.5067 112.671 39.88C112.671 39.9733 112.694 40.16 112.741 40.44C112.788 40.72 112.811 41.0233 112.811 41.35C112.858 41.63 112.904 41.8867 112.951 42.12C112.998 42.3533 113.021 42.4933 113.021 42.54V43.38V44.08C113.021 44.1733 112.951 44.3833 112.811 44.71C112.718 44.99 112.671 45.1767 112.671 45.27C112.578 45.3167 112.414 45.5033 112.181 45.83C112.041 46.0167 111.924 46.18 111.831 46.32C111.738 46.6 111.598 46.88 111.411 47.16C111.411 47.5333 111.388 48.21 111.341 49.19C111.294 50.2167 111.224 51.29 111.131 52.41C111.084 53.53 111.014 54.58 110.921 55.56C110.874 56.54 110.828 57.24 110.781 57.66C110.781 57.7533 110.711 58.08 110.571 58.64C110.478 59.2467 110.384 59.7133 110.291 60.04C110.291 60.2267 110.221 60.5533 110.081 61.02C109.988 61.5333 109.941 61.8367 109.941 61.93C109.941 62.0233 109.894 62.21 109.801 62.49C109.708 62.77 109.614 62.9333 109.521 62.98V55.42L109.241 55.14ZM105.671 6.21C105.671 6.16333 105.671 6.11666 105.671 6.07C105.718 5.97667 105.741 5.90666 105.741 5.86C105.741 5.81333 105.764 5.76666 105.811 5.72C105.858 5.53333 106.021 5.27666 106.301 4.95C106.628 4.62333 106.814 4.41333 106.861 4.32C106.908 4.32 107.024 4.27333 107.211 4.18C107.444 4.04 107.678 3.9 107.911 3.76C108.191 3.57333 108.448 3.41 108.681 3.27C108.914 3.13 109.101 3.03667 109.241 2.99C109.334 2.94333 109.474 2.92 109.661 2.92C109.848 2.92 109.988 2.92 110.081 2.92L110.501 3.06C110.641 3.10666 110.828 3.13 111.061 3.13C111.248 3.22333 111.411 3.29333 111.551 3.34C111.644 3.38667 111.761 3.43333 111.901 3.48C111.901 3.71333 111.924 3.92333 111.971 4.11C112.064 4.57666 112.134 4.88 112.181 5.02C112.181 5.11333 112.181 5.32333 112.181 5.65C112.228 5.97666 112.251 6.32666 112.251 6.7C112.298 7.07333 112.344 7.44667 112.391 7.82C112.438 8.19333 112.461 8.47333 112.461 8.66C112.461 9.08 112.461 9.66333 112.461 10.41C112.461 11.11 112.461 11.81 112.461 12.51C112.508 13.21 112.531 13.84 112.531 14.4C112.578 14.96 112.624 15.2867 112.671 15.38C112.624 15.5667 112.578 15.73 112.531 15.87C112.438 16.15 112.368 16.36 112.321 16.5C112.274 16.5933 112.251 16.71 112.251 16.85C112.251 16.9433 112.228 17.0367 112.181 17.13C112.134 17.27 112.088 17.3867 112.041 17.48C111.901 17.5733 111.761 17.7833 111.621 18.11C111.481 18.39 111.364 18.53 111.271 18.53C111.178 18.5767 110.968 18.6933 110.641 18.88C110.361 19.0667 110.034 19.2533 109.661 19.44C109.334 19.6267 109.008 19.8133 108.681 20C108.354 20.14 108.121 20.2333 107.981 20.28C107.981 20.3733 107.818 20.42 107.491 20.42C107.211 20.42 107.001 20.4667 106.861 20.56L106.721 20.49H106.511C106.464 20.3967 106.348 20.28 106.161 20.14C105.974 19.9533 105.904 19.8133 105.951 19.72C105.998 19.6733 105.998 19.44 105.951 19.02C105.951 18.6 105.951 18.3667 105.951 18.32C105.904 17.9933 105.858 17.5033 105.811 16.85C105.811 16.15 105.811 15.45 105.811 14.75C105.811 14.0033 105.811 13.3267 105.811 12.72C105.811 12.1133 105.811 11.7167 105.811 11.53C105.811 11.4367 105.788 11.1567 105.741 10.69C105.694 10.2233 105.648 9.73333 105.601 9.22C105.554 8.66 105.531 8.14666 105.531 7.68C105.531 7.21333 105.531 6.93333 105.531 6.84C105.531 6.74667 105.554 6.65333 105.601 6.56C105.601 6.46666 105.601 6.39666 105.601 6.35C105.648 6.30333 105.671 6.25667 105.671 6.21ZM116.256 57.1C116.256 56.96 116.232 56.7033 116.186 56.33C116.186 55.9567 116.162 55.56 116.116 55.14C116.069 54.7667 116.022 54.3933 115.976 54.02C115.976 53.6933 115.976 53.46 115.976 53.32C115.929 52.9 115.859 52.1067 115.766 50.94C115.672 49.7733 115.556 48.4433 115.416 46.95C115.322 45.4567 115.206 43.87 115.066 42.19C114.972 40.4633 114.879 38.83 114.786 37.29C114.692 35.75 114.599 34.3967 114.506 33.23C114.412 32.0633 114.366 31.2467 114.366 30.78C114.366 30.6867 114.342 30.5233 114.296 30.29C114.296 30.01 114.296 29.73 114.296 29.45C114.296 29.17 114.296 28.9133 114.296 28.68C114.296 28.4 114.296 28.19 114.296 28.05C114.296 27.91 114.296 27.5133 114.296 26.86C114.296 26.2067 114.272 25.53 114.226 24.83C114.179 24.0833 114.132 23.3833 114.086 22.73C114.086 22.0767 114.062 21.68 114.016 21.54V20.77C114.016 20.5367 113.992 20.3267 113.946 20.14C113.899 19.9067 113.852 19.7433 113.806 19.65C113.806 19.6033 113.782 19.4167 113.736 19.09C113.689 18.7167 113.642 18.3433 113.596 17.97C113.549 17.5967 113.526 17.2467 113.526 16.92C113.479 16.5467 113.456 16.3133 113.456 16.22C113.456 16.1733 113.479 15.9867 113.526 15.66C113.526 15.2867 113.526 15.03 113.526 14.89C113.526 14.7967 113.549 14.68 113.596 14.54C113.596 14.4 113.596 14.26 113.596 14.12C113.596 13.9333 113.619 13.77 113.666 13.63C113.666 13.5367 113.712 13.3967 113.806 13.21C113.946 13.0233 114.016 12.8833 114.016 12.79C114.109 12.7433 114.272 12.6267 114.506 12.44C114.739 12.2067 114.972 11.9967 115.206 11.81C115.486 11.5767 115.742 11.3667 115.976 11.18C116.209 10.9933 116.396 10.8533 116.536 10.76C116.629 10.76 116.769 10.7133 116.956 10.62C117.142 10.48 117.282 10.4333 117.376 10.48H118.006C118.052 10.5267 118.192 10.55 118.426 10.55H118.776C118.869 10.69 119.032 10.8767 119.266 11.11C119.499 11.3433 119.732 11.6 119.966 11.88C120.246 12.16 120.502 12.4167 120.736 12.65C120.969 12.8833 121.156 13.0467 121.296 13.14C121.342 13.1867 121.459 13.3033 121.646 13.49C121.879 13.63 122.089 13.7933 122.276 13.98C122.509 14.12 122.719 14.2833 122.906 14.47C123.092 14.61 123.232 14.7033 123.326 14.75C123.559 14.89 124.049 15.1933 124.796 15.66C125.542 16.1267 126.336 16.64 127.176 17.2C128.062 17.76 128.856 18.2733 129.556 18.74C130.302 19.2067 130.746 19.51 130.886 19.65C130.932 19.6967 131.049 19.8133 131.236 20C131.469 20.14 131.702 20.3033 131.936 20.49C132.169 20.63 132.379 20.7933 132.566 20.98C132.752 21.12 132.892 21.2367 132.986 21.33C133.126 21.4233 133.406 21.68 133.826 22.1C134.292 22.52 134.596 22.8467 134.736 23.08C134.876 23.08 134.992 23.1267 135.086 23.22L135.226 23.36C135.412 23.5933 135.599 23.92 135.786 24.34C136.019 24.76 136.136 25.0167 136.136 25.11C136.229 25.25 136.392 25.6233 136.626 26.23C136.859 26.8367 137.022 27.21 137.116 27.35C137.162 27.5367 137.209 27.84 137.256 28.26C137.349 28.6333 137.396 28.8667 137.396 28.96C137.396 29.0067 137.372 29.3567 137.326 30.01C137.279 30.6633 137.232 31.1767 137.186 31.55C137.139 31.7367 137.116 31.9467 137.116 32.18C137.116 32.4133 137.092 32.6467 137.046 32.88C136.999 33.16 136.976 33.4633 136.976 33.79C136.976 33.8833 136.836 34.21 136.556 34.77C136.276 35.33 136.089 35.7733 135.996 36.1C135.949 36.1933 135.879 36.2867 135.786 36.38C135.692 36.4733 135.622 36.5667 135.576 36.66C135.529 36.7067 135.482 36.7067 135.436 36.66C135.436 36.7533 135.342 36.9633 135.156 37.29C134.969 37.57 134.829 37.78 134.736 37.92C134.502 38.06 134.222 38.2933 133.896 38.62C133.616 38.9 133.429 39.0867 133.336 39.18C133.336 39.2733 133.219 39.4133 132.986 39.6C132.752 39.74 132.636 39.8567 132.636 39.95C132.449 39.9967 132.099 40.2067 131.586 40.58C131.072 40.9533 130.746 41.21 130.606 41.35C130.512 41.35 130.396 41.56 130.256 41.98C130.162 42.3533 130.116 42.5867 130.116 42.68C130.069 42.82 129.976 43.0533 129.836 43.38C129.696 43.66 129.626 43.8467 129.626 43.94L129.486 44.08C129.439 44.1267 129.322 44.15 129.136 44.15C129.136 44.1033 129.089 43.9867 128.996 43.8C128.902 43.6133 128.856 43.4967 128.856 43.45C128.809 43.3567 128.762 43.1467 128.716 42.82C128.669 42.4933 128.646 42.2833 128.646 42.19L127.666 42.47L127.246 46.74C127.199 46.7867 127.129 46.8333 127.036 46.88C126.849 46.9733 126.709 47.02 126.616 47.02H126.546H126.336C126.242 46.9267 126.149 46.7167 126.056 46.39C126.009 46.0633 126.009 45.8533 126.056 45.76C126.056 45.5267 126.032 45.0367 125.986 44.29C125.939 43.5433 125.916 43.0533 125.916 42.82C125.682 42.68 125.239 42.5633 124.586 42.47C123.979 42.33 123.536 42.2133 123.256 42.12L122.976 42.26L122.346 53.88C122.346 53.9733 122.229 54.1833 121.996 54.51C121.762 54.8367 121.599 55.0933 121.506 55.28C121.412 55.3267 121.272 55.42 121.086 55.56C120.899 55.7467 120.689 55.9333 120.456 56.12C120.269 56.3067 120.059 56.47 119.826 56.61C119.639 56.7967 119.499 56.9133 119.406 56.96C119.266 57.0067 119.009 57.1233 118.636 57.31C118.262 57.4967 118.006 57.5667 117.866 57.52H117.236L116.676 57.45C116.629 57.45 116.559 57.4033 116.466 57.31C116.419 57.2167 116.349 57.1467 116.256 57.1ZM121.156 22.17C121.156 22.2633 121.132 22.4733 121.086 22.8C121.086 23.1267 121.086 23.3367 121.086 23.43C121.132 23.5233 121.202 23.8967 121.296 24.55C121.389 25.2033 121.459 25.95 121.506 26.79C121.599 27.5833 121.669 28.4 121.716 29.24C121.809 30.0333 121.879 30.64 121.926 31.06C121.972 31.2467 122.019 31.5267 122.066 31.9C122.159 32.2267 122.206 32.4367 122.206 32.53L122.346 32.67C122.439 32.7633 122.486 32.88 122.486 33.02C122.626 33.1133 122.836 33.2767 123.116 33.51C123.396 33.6967 123.676 33.9067 123.956 34.14C124.236 34.3733 124.469 34.5833 124.656 34.77C124.889 34.9567 125.029 35.0733 125.076 35.12C125.262 35.3533 125.612 35.6333 126.126 35.96C126.686 36.24 127.059 36.38 127.246 36.38C127.479 36.4267 127.689 36.45 127.876 36.45C128.062 36.4967 128.226 36.52 128.366 36.52C128.552 36.52 128.692 36.52 128.786 36.52C128.972 36.5667 129.299 36.6133 129.766 36.66C130.232 36.66 130.512 36.66 130.606 36.66C130.652 36.66 130.746 36.52 130.886 36.24C131.026 35.96 131.096 35.7733 131.096 35.68C131.142 35.5867 131.166 35.3767 131.166 35.05C131.212 34.6767 131.236 34.3967 131.236 34.21C131.236 34.1167 131.236 34.0233 131.236 33.93C131.282 33.79 131.306 33.65 131.306 33.51C131.306 33.3233 131.329 33.1367 131.376 32.95C131.282 32.81 131.212 32.5533 131.166 32.18C131.119 31.8067 131.096 31.55 131.096 31.41C131.002 31.1767 130.839 30.7567 130.606 30.15C130.372 29.5433 130.209 29.17 130.116 29.03C130.116 28.9833 130.022 28.8433 129.836 28.61C129.649 28.3767 129.439 28.1433 129.206 27.91C129.019 27.63 128.809 27.3733 128.576 27.14C128.389 26.86 128.249 26.6733 128.156 26.58C128.062 26.58 127.922 26.5333 127.736 26.44C127.596 26.3933 127.479 26.3233 127.386 26.23C127.339 26.4633 127.222 26.8833 127.036 27.49C126.896 28.0967 126.779 28.5167 126.686 28.75L126.266 29.1C126.219 29.1 126.172 29.03 126.126 28.89C126.079 28.8433 126.056 28.7733 126.056 28.68C125.962 28.6333 125.869 28.47 125.776 28.19C125.729 27.91 125.706 27.7233 125.706 27.63C125.706 27.5833 125.706 27.42 125.706 27.14C125.706 26.86 125.682 26.5567 125.636 26.23C125.636 25.9033 125.636 25.6233 125.636 25.39C125.636 25.11 125.636 24.9467 125.636 24.9C125.636 24.8533 125.566 24.7833 125.426 24.69C125.332 24.5967 125.239 24.5033 125.146 24.41C124.912 24.27 124.609 24.0833 124.236 23.85C123.862 23.6167 123.489 23.3833 123.116 23.15C122.742 22.87 122.392 22.6367 122.066 22.45C121.786 22.2633 121.622 22.17 121.576 22.17H121.156ZM152.876 50.1C152.876 50.2867 152.806 50.7067 152.666 51.36C152.573 52.06 152.479 52.5267 152.386 52.76L152.036 53.39L151.406 53.04V48.56C151.313 48.5133 151.103 48.4433 150.776 48.35C150.496 48.3033 150.193 48.2333 149.866 48.14C149.539 48.0467 149.213 47.9767 148.886 47.93C148.606 47.8367 148.396 47.7667 148.256 47.72C148.163 47.72 147.999 47.6967 147.766 47.65C147.579 47.5567 147.369 47.4633 147.136 47.37C146.903 47.2767 146.669 47.2067 146.436 47.16C146.203 47.0667 146.039 46.9967 145.946 46.95C145.853 46.95 145.619 46.88 145.246 46.74C144.919 46.5533 144.663 46.4133 144.476 46.32C144.429 46.2267 144.266 46.0867 143.986 45.9C143.706 45.7133 143.519 45.5733 143.426 45.48C143.286 45.34 143.006 45.13 142.586 44.85C142.166 44.57 141.933 44.43 141.886 44.43C141.793 44.29 141.536 44.01 141.116 43.59C140.743 43.17 140.463 42.9367 140.276 42.89C140.276 42.7967 140.113 42.5633 139.786 42.19C139.506 41.8167 139.296 41.5133 139.156 41.28C139.063 41.1867 138.923 41 138.736 40.72C138.596 40.44 138.479 40.2533 138.386 40.16C138.339 40.0667 138.246 39.9267 138.106 39.74C138.013 39.5067 137.919 39.2733 137.826 39.04C137.733 38.76 137.616 38.5267 137.476 38.34C137.383 38.1067 137.313 37.9667 137.266 37.92C137.173 37.78 137.033 37.43 136.846 36.87C136.706 36.2633 136.589 35.8433 136.496 35.61C136.496 35.47 136.449 35.12 136.356 34.56C136.263 33.9533 136.216 33.58 136.216 33.44V31.55V29.66C136.216 29.5667 136.263 29.2633 136.356 28.75C136.449 28.2367 136.496 27.91 136.496 27.77C136.589 27.49 136.706 27.07 136.846 26.51C137.033 25.9033 137.173 25.5067 137.266 25.32C137.313 25.32 137.383 25.2267 137.476 25.04C137.616 24.8533 137.733 24.6433 137.826 24.41C137.919 24.1767 138.013 23.9433 138.106 23.71C138.246 23.4767 138.339 23.29 138.386 23.15C138.479 23.0567 138.596 22.87 138.736 22.59C138.923 22.31 139.063 22.1467 139.156 22.1C139.296 21.9133 139.506 21.6333 139.786 21.26C140.113 20.84 140.276 20.5833 140.276 20.49C140.369 20.3967 140.556 20.21 140.836 19.93C141.163 19.65 141.396 19.4633 141.536 19.37C141.536 19.2767 141.723 19.09 142.096 18.81C142.469 18.53 142.749 18.3667 142.936 18.32L144.056 17.48C144.289 17.3867 144.686 17.2 145.246 16.92C145.853 16.64 146.226 16.4767 146.366 16.43C146.459 16.43 146.646 16.36 146.926 16.22C147.253 16.08 147.463 15.9633 147.556 15.87C147.789 15.87 148.069 15.8233 148.396 15.73C148.769 15.6367 149.003 15.59 149.096 15.59H151.126H153.226C153.273 15.59 153.576 15.6367 154.136 15.73C154.743 15.8233 155.209 15.87 155.536 15.87C155.676 15.9633 156.003 16.08 156.516 16.22C157.029 16.36 157.333 16.43 157.426 16.43C157.566 16.43 157.916 16.5467 158.476 16.78C159.083 16.9667 159.456 17.0833 159.596 17.13C159.689 17.1767 159.876 17.27 160.156 17.41C160.436 17.55 160.739 17.69 161.066 17.83C161.393 17.97 161.696 18.1333 161.976 18.32C162.303 18.46 162.536 18.5533 162.676 18.6C162.816 18.6933 163.026 18.8333 163.306 19.02C163.586 19.16 163.726 19.2767 163.726 19.37C163.866 19.51 164.146 19.7667 164.566 20.14C164.986 20.5133 165.219 20.77 165.266 20.91C165.359 21.0033 165.523 21.26 165.756 21.68C165.989 22.0533 166.106 22.2867 166.106 22.38V23.43V24.69C166.059 24.83 166.013 24.9933 165.966 25.18C165.919 25.32 165.849 25.46 165.756 25.6C165.709 25.6933 165.663 25.7867 165.616 25.88C165.616 25.9267 165.569 26.0433 165.476 26.23C165.429 26.4167 165.359 26.5333 165.266 26.58C165.219 26.6733 165.056 26.93 164.776 27.35C164.496 27.7233 164.309 27.9567 164.216 28.05C164.123 28.1433 163.936 28.3533 163.656 28.68C163.376 29.0067 163.189 29.2167 163.096 29.31C162.909 29.4033 162.606 29.59 162.186 29.87C161.813 30.15 161.579 30.3133 161.486 30.36C161.486 30.4067 161.393 30.5 161.206 30.64C161.019 30.7333 160.809 30.85 160.576 30.99C160.343 31.0833 160.109 31.2 159.876 31.34C159.643 31.4333 159.456 31.5033 159.316 31.55C159.223 31.55 159.013 31.5967 158.686 31.69C158.406 31.7833 158.196 31.83 158.056 31.83C157.869 31.9233 157.613 32.0167 157.286 32.11C156.959 32.2033 156.749 32.25 156.656 32.25C156.516 32.25 156.259 32.2733 155.886 32.32C155.513 32.3667 155.116 32.4133 154.696 32.46C154.276 32.46 153.879 32.4833 153.506 32.53C153.179 32.5767 152.969 32.6 152.876 32.6H150.986H149.096C148.956 32.6 148.606 32.5767 148.046 32.53C147.533 32.4833 146.973 32.46 146.366 32.46C145.759 32.4133 145.199 32.3667 144.686 32.32C144.173 32.2733 143.869 32.25 143.776 32.25H143.146H142.586C142.586 32.3433 142.633 32.5533 142.726 32.88C142.866 33.16 142.936 33.3467 142.936 33.44C143.029 33.58 143.216 33.9533 143.496 34.56C143.776 35.12 143.963 35.47 144.056 35.61C144.149 35.7967 144.289 36.03 144.476 36.31C144.709 36.59 144.826 36.7767 144.826 36.87C144.966 36.9633 145.176 37.15 145.456 37.43C145.736 37.71 146.039 38.0133 146.366 38.34C146.693 38.6667 146.996 38.97 147.276 39.25C147.603 39.53 147.836 39.7167 147.976 39.81C147.976 39.9033 148.116 40.0433 148.396 40.23C148.723 40.4167 148.956 40.5567 149.096 40.65C149.283 40.7433 149.656 40.93 150.216 41.21C150.776 41.49 151.149 41.6533 151.336 41.7C151.383 41.7 151.546 41.77 151.826 41.91C152.106 42.0033 152.293 42.05 152.386 42.05C152.619 42.1433 153.039 42.2367 153.646 42.33C154.253 42.3767 154.626 42.4467 154.766 42.54H155.816H157.006C157.146 42.4467 157.403 42.3767 157.776 42.33C158.149 42.2367 158.406 42.1433 158.546 42.05L158.896 41.7V37.22C158.943 37.08 158.989 36.9167 159.036 36.73C159.083 36.59 159.129 36.4733 159.176 36.38C159.223 36.24 159.269 36.1233 159.316 36.03C159.363 35.9833 159.386 35.9367 159.386 35.89C159.386 35.7967 159.409 35.7267 159.456 35.68C159.503 35.5867 159.549 35.47 159.596 35.33L161.486 33.44C161.579 33.3467 161.813 33.2067 162.186 33.02C162.606 32.8333 162.909 32.6933 163.096 32.6H163.376H163.726C163.819 32.6933 163.983 32.8333 164.216 33.02C164.449 33.2067 164.566 33.3467 164.566 33.44C164.613 33.4867 164.659 33.7667 164.706 34.28C164.799 34.7933 164.893 35.1433 164.986 35.33V36.59V37.92C164.893 38.1067 164.799 38.4333 164.706 38.9C164.659 39.3667 164.613 39.67 164.566 39.81C164.566 39.8567 164.519 39.9967 164.426 40.23C164.333 40.4167 164.216 40.6267 164.076 40.86C163.983 41.0933 163.866 41.3267 163.726 41.56C163.586 41.7933 163.469 41.9567 163.376 42.05C163.329 42.19 163.213 42.4233 163.026 42.75C162.839 43.03 162.723 43.17 162.676 43.17C162.583 43.2633 162.396 43.45 162.116 43.73C161.883 43.9633 161.626 44.22 161.346 44.5C161.066 44.78 160.786 45.06 160.506 45.34C160.273 45.5733 160.086 45.7367 159.946 45.83C159.946 45.9233 159.806 46.0633 159.526 46.25C159.246 46.4367 159.036 46.5767 158.896 46.67C158.803 46.7167 158.546 46.8333 158.126 47.02C157.753 47.2067 157.519 47.3233 157.426 47.37C157.239 47.37 156.889 47.4867 156.376 47.72C155.909 47.9533 155.629 48.1167 155.536 48.21C155.443 48.21 155.303 48.2567 155.116 48.35C154.976 48.49 154.859 48.56 154.766 48.56C154.766 48.84 154.743 49.33 154.696 50.03C154.696 50.73 154.673 51.4767 154.626 52.27C154.579 53.11 154.509 53.88 154.416 54.58C154.369 55.3267 154.323 55.84 154.276 56.12C154.276 56.26 154.229 56.5633 154.136 57.03C154.089 57.4967 154.019 57.8233 153.926 58.01C153.926 58.0567 153.879 58.1733 153.786 58.36C153.693 58.5467 153.646 58.6633 153.646 58.71C153.553 58.57 153.459 58.2667 153.366 57.8C153.273 57.3333 153.226 57.0067 153.226 56.82C153.226 56.54 153.203 56.0733 153.156 55.42C153.109 54.8133 153.063 54.1367 153.016 53.39C153.016 52.69 152.993 52.0133 152.946 51.36C152.899 50.7533 152.876 50.3333 152.876 50.1ZM142.166 25.67C142.259 25.67 142.469 25.6933 142.796 25.74C143.123 25.74 143.473 25.7633 143.846 25.81C144.219 25.81 144.569 25.8333 144.896 25.88C145.269 25.88 145.526 25.88 145.666 25.88L146.226 26.02C146.413 26.0667 146.576 26.1133 146.716 26.16C147.043 26.2533 147.579 26.3467 148.326 26.44C149.119 26.5333 149.633 26.58 149.866 26.58H154.906H158.546L159.946 26.16C159.853 26.02 159.573 25.7167 159.106 25.25C158.639 24.7833 158.289 24.4567 158.056 24.27C158.009 24.2233 157.869 24.13 157.636 23.99C157.403 23.85 157.123 23.71 156.796 23.57C156.469 23.3833 156.143 23.22 155.816 23.08C155.536 22.94 155.303 22.8467 155.116 22.8C155.069 22.8 154.929 22.7767 154.696 22.73C154.509 22.6367 154.276 22.5433 153.996 22.45C153.763 22.3567 153.529 22.2867 153.296 22.24C153.109 22.1467 152.969 22.1 152.876 22.1C152.643 22.0067 152.293 21.89 151.826 21.75C151.359 21.61 151.079 21.54 150.986 21.54H148.186H145.316C145.176 21.6333 144.919 21.7967 144.546 22.03C144.173 22.2633 143.916 22.38 143.776 22.38L143.566 22.59C143.519 22.6367 143.496 22.6833 143.496 22.73C143.496 22.7767 143.473 22.8 143.426 22.8C143.333 22.8933 143.193 23.15 143.006 23.57C142.819 23.9433 142.679 24.1767 142.586 24.27C142.539 24.3633 142.469 24.55 142.376 24.83C142.329 25.11 142.259 25.2733 142.166 25.32V25.67Z" fill="#E72A70"/>
</svg>
