<svg width="45" height="56" viewBox="0 0 45 56" fill="none" xmlns="http://www.w3.org/2000/svg">
<path d="M43.5921 42.1825C43.6711 42.5547 43.7176 42.933 43.7312 43.3133C43.609 44.341 43.3166 45.341 42.8658 46.272C42.325 46.9846 42.3559 47.8211 41.2279 48.0844C40.9219 48.1728 40.6015 48.1991 40.2853 48.1618C39.899 48.1618 39.6826 48.1619 39.2345 48.8589C39.0336 49.1842 39.0336 49.3547 39.08 49.4786C39.2036 49.7729 39.559 49.7729 37.9056 51.0276C35.5569 52.84 36.0359 53.1188 34.9542 53.3512C34.5279 53.4642 34.0942 53.547 33.6562 53.599C33.1644 53.788 32.6347 53.857 32.111 53.8004L31.292 54.0792C29.7308 54.5835 28.1277 54.9464 26.5018 55.1635L25.3892 55.3029C24.7341 55.6028 24.0508 55.8363 23.3495 56C22.6541 56 21.8815 55.7212 20.089 55.4424C17.3127 55.3886 14.5589 54.9294 11.9147 54.0792C11.1421 53.8314 10.3695 53.5371 9.73594 53.2427C9.10239 52.9484 8.82426 52.8244 8.39159 52.5921C8.31051 52.5451 8.22142 52.5136 8.12888 52.4991C6.72251 52.1853 5.33895 51.7765 3.98765 51.2754C2.6433 50.6403 1.63891 50.7643 1.2526 48.673C0.98495 47.6127 0.82447 46.528 0.773579 45.4355C0.773579 45.1567 0.773579 44.9244 0.773579 44.723C0.560115 44.2205 0.384502 43.7027 0.248204 43.1739C0.248204 43.1739 0.248204 43.0345 0.248204 42.9105L0.109091 42.291V42.0122C0.0507281 41.6065 0.014654 41.198 0.000960611 40.7884C-0.00661519 40.573 0.030685 40.3585 0.110506 40.1585C0.190327 39.9584 0.310895 39.7773 0.464513 39.6266C0.524198 39.5617 0.591679 39.5045 0.665401 39.4562C1.54017 39.401 2.41756 39.401 3.29232 39.4562C3.82198 39.4486 4.34574 39.3436 4.83756 39.1464C5.39554 38.9528 5.9628 38.7874 6.53729 38.6507C6.93748 38.518 7.36052 38.4688 7.78039 38.5061C8.20025 38.5434 8.6081 38.6664 8.97879 38.8676L9.6587 39.1464H10.0759C10.5677 39.133 11.0522 39.2679 11.4666 39.5336C11.7354 39.7133 11.9708 39.9387 12.162 40.1997C12.6492 40.3271 13.1169 40.52 13.5527 40.7729C13.8154 41.0053 13.7381 40.68 14.2017 41.8108C14.6653 42.9416 14.3408 42.8021 15.2524 43.6851C15.6542 44.0723 15.8397 44.3202 16.0405 44.5061C16.5788 44.7673 17.1435 44.9699 17.7248 45.1103C19.0733 45.3775 20.4452 45.5073 21.8197 45.4975C22.616 45.4987 23.4113 45.4417 24.1994 45.3271L24.6011 45.1412C24.7711 45.1412 25.1111 44.9088 25.7755 44.6765C26.1904 44.4824 26.6476 44.3972 27.1044 44.4287C27.6579 44.1818 28.1773 43.8642 28.6496 43.4838C29.4395 42.8594 30.0654 42.0511 30.473 41.1292C30.7453 40.5186 30.9275 39.8716 31.0138 39.2084C30.8284 38.7127 30.7666 38.5423 30.6121 38.093C30.4576 37.6438 29.7468 37.7368 30.6121 36.6524C30.8199 36.3519 30.9329 35.9958 30.9366 35.6301C30.6477 34.3782 29.911 33.276 28.866 32.532C27.8031 31.8289 26.6014 31.364 25.3428 31.1688C24.972 31.0914 24.5702 31.0449 24.1685 30.9985C23.7667 30.952 23.4268 30.9985 23.1795 30.9985C22.7603 31.0402 22.3462 31.1232 21.9433 31.2463C21.1376 31.5248 20.2923 31.6712 19.44 31.68C17.8948 31.8039 16.4732 31.9279 15.8551 31.9589C15.0724 32.0623 14.2764 31.9498 13.5527 31.6335C12.7801 31.2153 12.6873 31.8969 12.4865 30.859C12.2856 29.8212 11.8529 30.2394 12.1774 29.31C12.1687 29.2691 12.1687 29.2269 12.1774 29.186V27.2652C11.8755 26.7943 11.6706 26.2676 11.5748 25.7162C11.4868 24.6525 11.6786 23.5843 12.1311 22.6181C12.7028 21.9365 13.2282 21.3323 13.6763 21.2239C14.2916 21.1993 14.898 21.0682 15.4688 20.8366L16.3959 20.3875C16.2421 20.4487 16.0707 20.4487 15.9169 20.3875C15.7469 20.3875 15.6542 20.0932 15.7933 19.551C16.1641 18.1104 19.1155 17.4133 19.5946 16.995L19.8263 16.7937L23.7049 13.2154L23.844 13.076C24.153 12.7972 23.3186 11.5269 23.1332 11.4185C22.9477 11.3101 22.8705 10.6595 21.2016 10.6595H14.758C13.3816 10.8821 11.9938 11.0268 10.6013 11.0932C9.60155 11.0948 8.60704 10.9487 7.64986 10.6595H6.10462C5.84886 10.6616 5.60007 10.7431 5.3925 10.8929C5.18494 11.0427 5.02881 11.2535 4.94569 11.4959C4.79659 11.9081 4.55315 12.2795 4.2349 12.5803C4.2349 12.5803 3.09144 13.866 2.22611 13.2619C1.36077 12.6578 0.804488 12.4874 0.680869 11.7128C0.590714 11.4053 0.574481 11.0807 0.633571 10.7657C0.69266 10.4506 0.825394 10.1541 1.02082 9.90038C1.61289 8.90811 2.12944 7.87247 2.56606 6.80229C2.62809 6.64987 2.65959 6.4867 2.65877 6.32209V2.5115C2.64862 2.25435 2.6914 1.99782 2.78444 1.75796C2.87749 1.51811 3.01877 1.30003 3.19957 1.11732C3.28655 1.02697 3.38531 0.948863 3.49317 0.885018L3.66317 0.590696C3.66317 0.590696 3.66318 0.265335 4.83756 0.141412C5.86042 -0.07461 6.91994 -0.0427499 7.92804 0.234351L9.05603 0.590696H13.8617C14.9774 0.419649 16.1023 0.316172 17.2303 0.280868C18.3239 0.231129 19.4193 0.319578 20.4908 0.544179C20.5829 0.558947 20.6768 0.558947 20.769 0.544179H30.0404C30.1636 0.559104 30.2881 0.559104 30.4112 0.544179C31.0696 0.332774 31.7683 0.279745 32.4509 0.389312C32.903 0.418706 33.3522 0.480822 33.7953 0.57519H34.0271H38.91C39.1661 0.568594 39.421 0.613152 39.6597 0.706231C39.8985 0.79931 40.1164 0.939013 40.3007 1.11732C40.4786 1.30213 40.618 1.5206 40.7109 1.75995C40.8037 1.99929 40.8482 2.25477 40.8416 2.5115V4.47872C40.9648 4.71885 41.0334 4.98336 41.0425 5.25324C41.0188 6.02063 40.9517 6.78612 40.8416 7.5459V8.08802C40.8658 8.62189 40.7597 9.15362 40.5325 9.63707C40.4577 9.77818 40.3641 9.90845 40.2544 10.0243C39.8983 10.9306 39.3377 11.7418 38.6164 12.3944C37.9685 13.1692 37.404 14.0103 36.9321 14.9039C36.4222 15.5545 36.484 15.8798 35.7423 15.8798C35.3138 15.8714 34.8881 15.809 34.4752 15.6939L32.3737 17.7851L31.5856 18.5596C31.4725 18.7917 31.4093 19.045 31.4002 19.3031C31.4929 19.9382 31.8792 19.9382 31.4002 20.3875C31.0601 20.8576 30.6088 21.2356 30.0867 21.4873C29.4697 21.7257 28.8339 21.9122 28.1861 22.0449C28.0913 22.0851 27.993 22.1162 27.8925 22.1379C27.3207 22.3083 26.6099 22.4167 27.1817 22.8505H27.3671H27.9543C29.2142 22.9814 30.4635 23.1988 31.6938 23.501H31.8638L32.2037 23.594L32.5282 23.6869C33.7373 24.024 34.9117 24.4753 36.0359 25.0346C37.0029 25.5133 37.9063 26.1118 38.7246 26.816C38.9601 26.8056 39.1955 26.837 39.4199 26.909C39.9734 27.0646 40.4513 27.4171 40.7643 27.9004C41.506 28.9073 41.8305 29.0931 42.0005 29.8676C42.2294 30.5055 42.395 31.1645 42.495 31.8349C42.907 32.83 43.2026 33.8697 43.3757 34.933C43.4145 35.1524 43.5045 35.3594 43.6385 35.5372C44.0402 36.0638 44.5502 36.8848 44.3802 37.3805C44.2166 37.9895 43.9501 38.5658 43.5921 39.0844C43.5768 39.853 43.5045 40.6192 43.3757 41.377C43.4954 41.6303 43.5687 41.9032 43.5921 42.1825Z" fill="#303031"/>
</svg>