<svg width="33" height="56" viewBox="0 0 33 56" fill="none" xmlns="http://www.w3.org/2000/svg">
<path d="M31.9194 55.9977H30.0245H29.6391H20.775C20.499 56.0018 20.2253 55.9471 19.9721 55.8374C19.8003 55.7975 19.6371 55.7269 19.4904 55.629C19.2656 55.4982 19.0818 55.3073 18.9598 55.0779C18.8378 54.8485 18.7824 54.5896 18.7999 54.3304C18.7841 54.2188 18.7841 54.1054 18.7999 53.9937V51.557C18.2378 52.2944 18.1415 51.3165 18.3502 50.6112C18.559 49.9058 18.6714 43.91 18.7357 39.6297C18.6393 39.79 18.4948 39.79 18.3021 39.5335C16.8247 37.6899 18.7999 34.4837 18.7999 21.0816C18.7999 20.8251 18.6072 19.6388 18.1575 20.28C17.7079 20.9213 17.0496 19.799 17.6277 18.1318C17.8006 17.6773 17.8485 17.1849 17.7666 16.7057C17.6847 16.2265 17.476 15.7779 17.162 15.4064L12.8584 18.741L9.74309 21.1296C9.13288 21.6747 8.13728 22.5885 6.98109 23.887C4.84536 26.1955 5.92123 23.887 4.79716 24.3519C3.67309 24.8168 3.94611 22.9572 2.62934 24.2397C1.31258 25.5222 0.445404 18.8692 0.188474 17.1378C0.172395 17.0639 0.172395 16.9873 0.188474 16.9134C0.0330423 16.578 -0.0279964 16.2067 0.0118578 15.8393C0.0650935 15.5772 0.170747 15.3286 0.322504 15.1082C0.474261 14.8878 0.668981 14.7003 0.895037 14.5568L1.6337 13.9796C1.79428 12.8735 3.94611 11.575 6.03366 10.6452L7.96061 9.17024C8.36503 8.19509 8.84281 7.25198 9.38981 6.34881C10.819 4.20062 17.9167 1.01037 19.0247 0.513402C19.1043 0.498973 19.1859 0.498973 19.2656 0.513402C19.5073 0.354715 19.773 0.235598 20.0524 0.160663C20.3907 0.056927 20.7423 0.00296194 21.0962 0.000389394H29.607C29.861 -0.00482062 30.1132 0.0422994 30.3481 0.138843C30.5829 0.235387 30.7953 0.37924 30.972 0.561445C31.1599 0.750535 31.3067 0.976229 31.4034 1.22446C31.5001 1.47269 31.5446 1.73817 31.534 2.0043V4.80977C31.534 5.35484 31.7267 5.93199 31.8551 6.54118C32.2861 8.67193 32.1757 10.8765 31.534 12.9537V21.9312C31.8113 22.743 32.0049 23.581 32.1121 24.4321C32.1507 26.7381 31.957 29.0421 31.534 31.3094V41.4733C31.9372 43.011 32.0246 44.6142 31.7909 46.1865C31.7106 46.6675 31.6143 47.0682 31.534 47.4369V52.2463C31.8712 52.9036 32.3369 53.6732 32.7544 54.3304C32.8848 54.4813 32.9675 54.6673 32.9922 54.8651C33.0169 55.0628 32.9825 55.2634 32.8932 55.4417C32.8039 55.6199 32.6638 55.7678 32.4906 55.8667C32.3173 55.9657 32.1185 56.0112 31.9194 55.9977Z" fill="#303031"/>
</svg>