<svg width="49" height="56" viewBox="0 0 49 56" fill="none" xmlns="http://www.w3.org/2000/svg">
<path d="M48.4715 37.9741C48.3807 37.7159 48.1233 37.0933 48.1233 37.0933C48.0124 37.0123 47.921 36.9077 47.8555 36.7869C47.79 36.666 47.7522 36.5321 47.7447 36.3948V35.5444C47.7462 35.3048 47.7 35.0672 47.6091 34.8456C47.5181 34.624 47.384 34.4228 47.2148 34.2536C47.0409 34.0696 46.8285 33.9265 46.5929 33.8346C46.3573 33.7427 46.1043 33.7043 45.8521 33.7222H42.7027C42.4551 33.4548 42.2554 33.1465 42.1122 32.811C41.9597 32.2664 41.7138 31.7525 41.3855 31.2925C41.2038 30.9584 40.583 31.1862 40.3104 31.1862C40.0379 31.1862 39.6291 29.3792 39.6291 29.3792L39.2808 26.5243C39.257 26.3524 39.2796 26.1772 39.3462 26.017C39.4127 25.8568 39.5209 25.7173 39.6594 25.6132C40.1514 25.1951 40.7091 24.8616 41.3097 24.6262C43.1418 23.8365 41.3097 23.9276 41.3097 23.1076C41.3097 22.2876 41.128 22.4091 40.7798 21.5891C40.4315 20.7691 40.0833 20.5413 40.0681 20.3591C40.053 20.1769 39.9168 20.1768 39.6745 20.0402C39.5052 19.9369 39.3649 19.7922 39.2669 19.6195C39.1688 19.4468 39.1163 19.2518 39.1143 19.0531C39.1143 19.0531 38.9477 16.259 39.947 15.3327C40.1071 15.1121 40.1932 14.8463 40.1932 14.5735C40.1932 14.3006 40.1071 14.0348 39.947 13.8142C39.6393 12.8049 39.5924 11.7336 39.8108 10.7011C39.957 9.59533 39.9314 8.47349 39.735 7.37553C39.5533 6.14552 39.9924 4.47513 39.735 3.86772C39.5368 3.53075 39.2977 3.21965 39.0234 2.94144C39.0234 2.75921 38.6297 1.89363 37.9938 1.87844C37.3579 1.86326 36.4797 2.45549 35.8892 1.87844C35.2987 1.3014 35.3744 0.359905 34.148 0.0713835C32.9216 -0.217138 33.0124 0.420684 31.9677 1.05847C30.9229 1.69625 29.7873 0.86104 29.0908 1.13438C28.3943 1.40771 27.2588 0.86104 26.3806 1.13438C25.5024 1.40771 24.2305 1.04325 24.2911 2.34919C24.3799 2.98016 24.2853 3.62349 24.0185 4.20185C23.7157 4.58148 22.8073 4.52076 22.5044 4.7941C22.2016 5.06743 23.0495 6.49482 21.6868 6.46445C20.3241 6.43408 19.8244 8.19554 20.1727 8.60554C21.2628 10.0026 18.7797 10.7771 18.3709 11.2327C17.9573 11.8908 17.6315 12.6004 17.4018 13.3435L17.311 13.4497L16.9628 13.9204C16.6099 14.4193 16.2148 14.8868 15.7818 15.3175C15.1458 15.9553 14.3888 17.489 13.6923 17.5953C12.9958 17.7016 13.132 19.2049 12.6324 19.9034L11.4817 21.422L11.2697 21.6954C11.2697 21.6954 8.33227 23.2139 7.80233 23.5328C7.08507 24.3255 6.52496 25.2481 6.15195 26.251C6.18763 26.7566 6.18763 27.264 6.15195 27.7695C6.15195 27.9366 6.40933 28.1491 6.42447 28.301C6.42447 29.1514 4.44099 31.0647 4.44099 31.0647C4.38689 31.1277 4.33638 31.1936 4.28961 31.2622C4.24284 31.3307 4.19228 31.3966 4.13819 31.4596C3.39627 32.2796 2.80576 31.5355 1.95786 32.1884C1.07322 32.7927 0.42973 33.6908 0.1409 34.7244C-0.25277 35.8936 0.292332 35.9848 0.39832 36.3948C0.504308 36.8048 0.125773 37.1085 0.534585 37.2148C0.782151 37.2621 1.0098 37.383 1.188 37.5617C1.36621 37.7404 1.48674 37.9687 1.53391 38.217C1.53391 38.6574 1.03425 39.5381 0.867692 40.3278C0.68498 41.4338 0.68498 42.5625 0.867692 43.6686C1.03425 44.0937 1.29164 44.5341 2.60892 44.7164C3.44239 44.8948 4.30404 44.8948 5.13751 44.7164C5.73455 44.449 6.34621 44.2157 6.96958 44.0178C7.76651 43.7569 8.62552 43.7569 9.42244 44.0178C10.9366 44.4582 9.7707 44.6253 12.1327 44.8531C13.1803 44.9503 14.2345 44.9503 15.2821 44.8531C15.9785 44.7882 16.6565 44.5925 17.2807 44.276C18.5684 44.356 19.861 44.2691 21.1266 44.0178C21.5232 43.8663 21.9478 43.8028 22.3713 43.8316C22.7947 43.8604 23.2069 43.981 23.5794 44.1849C24.1851 44.5342 24.3062 44.6253 24.8967 44.929C25.5732 45.1879 26.2729 45.3811 26.9862 45.506C26.9862 45.506 27.5919 44.4582 26.9862 46.5538C26.6328 47.4989 26.4235 48.4921 26.3654 49.4998C26.3654 49.7883 26.4563 50.5779 26.4563 51.1094C26.4534 51.5562 26.5146 52.0012 26.6379 52.4305C26.8111 52.7702 27.0192 53.0909 27.2587 53.3872L28.1521 54.1161L28.3337 54.2679C28.4634 54.3641 28.6 54.4505 28.7426 54.5261L29.0454 54.6172H29.1211H29.4391H30.393C30.8169 54.6172 31.0895 55.1032 32.1342 55.3765C33.1789 55.6498 32.9215 56.242 34.2237 55.8927C35.5258 55.5435 35.011 55.6346 35.9801 55.3765C36.9491 55.1183 37.4942 55.1942 38.1604 55.0272C38.8266 54.8601 39.0386 55.0272 39.8259 54.6172C40.6133 54.2072 40.8707 54.4957 40.9615 53.6149C41.0524 52.7342 41.658 52.8253 40.9615 52.0964C40.265 51.3675 40.265 51.3068 39.735 50.7905C39.2051 50.2742 39.2051 50.5475 39.2051 49.439V45.5363C39.2051 45.0048 39.5534 44.9138 39.6442 44.6556C39.735 44.3975 38.4178 44.033 40.3407 44.3063C42.2637 44.5797 42.4453 44.4734 42.7027 44.5645C43.1065 44.6437 43.5182 44.6742 43.9292 44.6556C44.3169 44.747 44.7249 44.6816 45.0648 44.4734C45.8521 44.1242 45.307 44.7011 45.8521 44.1241C46.3972 43.5471 46.5486 43.623 46.8968 43.3496H47.0028C47.2451 43.3496 47.1542 44.3823 47.8053 42.5297C48.5321 40.4189 48.5321 41.2996 48.5321 40.4189C48.5321 39.5381 48.5472 38.2018 48.4715 37.9741ZM28.1066 30.0321C27.7584 30.9736 28.1975 31.5507 27.7584 32.0214C27.3612 32.3476 26.9355 32.6373 26.4865 32.887C25.9488 33.1292 25.3848 33.3075 24.8059 33.4184C24.1851 33.6007 23.4432 33.2211 23.4886 34.1018C23.6249 36.577 13.6014 34.1018 13.6014 34.1018L14.0708 33.4488C14.1126 33.2608 14.2269 33.097 14.3887 32.9932C14.8278 32.6895 15.6 32.5377 16.0543 32.1884L16.2662 32.0214C17.1406 31.3253 17.8061 30.4004 18.1892 29.3488C18.2882 29.1085 18.3643 28.8594 18.4163 28.6047C18.5213 27.9097 18.6989 27.2276 18.9462 26.5698L22.7618 21.2095L25.6235 17.1701C25.8052 17.7927 26.9105 19.5542 26.6683 20.4198C26.426 21.2854 27.2588 22.6976 26.6683 23.7606C26.2209 24.4397 25.8645 25.1749 25.6084 25.9473C25.2904 26.904 24.6999 27.6329 24.7756 28.3162C24.8513 28.9995 25.4569 29.9713 25.8052 29.9713C26.1534 29.9713 26.2443 30.2447 26.5925 29.9713C26.9322 29.7442 27.322 29.6035 27.7281 29.5614C28.0612 29.4703 28.258 29.5917 28.1066 30.0017V30.0321Z" fill="#303031"/>
</svg>