<svg width="46" height="56" viewBox="0 0 46 56" fill="none" xmlns="http://www.w3.org/2000/svg">
<path d="M45.5093 55.5078C44.72 56.2837 41.821 55.0515 41.2139 55.0515C40.0287 55.2627 38.8578 55.5472 37.7077 55.9034C35.8712 56.3597 31.3633 55.0515 30.1187 55.0515C28.802 55.0157 27.4914 55.2432 26.2634 55.7208C24.1233 56.3902 19.0842 55.0515 17.7789 55.0515C16.4788 55.1765 15.19 55.4003 13.9236 55.7208C13.2103 55.7969 8.88451 55.0515 8.74791 55.0515C7.65355 55.105 6.56892 55.2836 5.51501 55.5839C5.06651 55.7096 4.59461 55.7269 4.13815 55.6343C3.68169 55.5418 3.25367 55.342 2.88918 55.0515C2.49455 54.6104 3.3749 52.8306 1.05265 53.9714C-1.2696 55.1123 0.961579 50.1837 1.05265 50.0164C1.14372 49.8491 4.08827 46.2895 4.08827 46.2895L4.17933 46.183C4.36147 46.0005 4.81678 45.5289 5.33284 44.9356C6.57744 43.5361 8.12561 41.5434 7.0935 41.4674C5.57569 41.3609 14.7736 35.3827 15.3049 35.0024L15.5781 34.7894C16.3977 34.1201 18.7503 32.0969 18.1432 31.3972C17.536 30.6974 24.0323 26.9248 26.7492 25.5101C27.7317 24.5481 28.6258 23.4994 29.4205 22.3765C29.8774 21.7272 30.2593 21.0281 30.5589 20.2925C30.7666 18.7806 30.858 17.2549 30.8321 15.729C30.7683 15.4023 30.6769 15.0817 30.5589 14.7706C30.4876 14.5472 30.3909 14.3328 30.2705 14.1317C30.2802 14.0969 30.2802 14.0601 30.2705 14.0252C30.0498 13.6088 29.7797 13.2206 29.466 12.8691C28.7984 12.1354 27.9692 11.5678 27.0444 11.2114C26.1197 10.8549 25.1247 10.7194 24.1385 10.8156C23.2799 10.8054 22.4248 10.9285 21.6038 11.1806C20.6475 12.0021 20.7993 12.5041 20.2833 13.9796C19.7672 15.4552 19.5851 16.307 19.1449 17.5696C18.5514 19.0253 17.5497 20.2776 16.2611 21.1748C14.7433 22.407 14.2879 21.0835 12.8915 20.7793C11.4952 20.475 10.7363 20.3838 9.55239 20.2012C8.46057 20.1778 7.39221 20.5205 6.51677 21.1748C5.38426 21.4561 4.22284 21.6042 3.05612 21.6159C3.34759 20.2169 3.71753 18.8356 4.16414 17.4783C4.18906 16.7577 4.02137 16.0435 3.67843 15.4096C3.08648 14.3295 5.81855 9.32484 5.81855 9.32484C5.81855 9.32484 10.7211 4.10714 11.2979 3.75727C11.647 3.52909 14.4245 2.69248 16.4584 2.08401H16.5343C17.0684 1.88287 17.6163 1.72018 18.1735 1.59722L18.4619 1.52118H18.6289H18.7807C19.6458 1.26258 24.1385 0 24.3358 0L27.9634 1.17125C28.5705 1.24223 29.1625 1.33359 29.7392 1.44514C31.4846 1.75709 33.1797 2.30454 34.7784 3.07272C35.3795 3.35562 35.9624 3.67569 36.5239 4.03107L37.6622 4.79166L40.3639 6.6171C40.3639 6.6171 43.0808 10.6634 43.2022 11.0589C43.7161 13.2803 44.0561 15.5385 44.2192 17.813C43.8533 19.3774 43.3452 20.905 42.7014 22.3765V22.4678C42.5799 22.7872 42.4585 23.0915 42.3522 23.3349L42.0942 23.9281C42.0627 23.9809 42.0373 24.037 42.0183 24.0954C41.1967 26.2795 39.9537 28.2799 38.3604 29.9824C35.9167 32.4315 37.5408 31.5036 34.915 36.5539C32.2892 41.6042 31.6365 35.4282 31.166 35.7781L30.999 35.9455C30.6798 36.549 30.4643 37.2021 30.3616 37.8773C29.9697 38.6806 29.4579 39.4193 28.8437 40.0678C28.3413 40.564 27.798 41.0169 27.2197 41.4217C26.8813 41.7248 26.5987 42.0853 26.3849 42.4866C26.2781 43.1108 26.2781 43.7486 26.3849 44.3728C27.2724 44.6765 28.219 44.7651 29.1473 44.6314C29.9821 44.4488 33.3516 44.1446 33.3516 44.1446L38.0872 44.7531H42.8683C43.1201 44.744 43.3712 44.7865 43.6061 44.8781C43.841 44.9696 44.0547 45.1082 44.2343 45.2855C44.5059 45.5566 44.6817 45.9091 44.7352 46.2895C44.7427 46.4111 44.7427 46.533 44.7352 46.6546V50.3663C44.7504 52.6937 46.2985 54.7168 45.5093 55.5078Z" fill="#303031"/>
</svg>