<svg width="1728" height="128" viewBox="0 0 1728 128" fill="none" xmlns="http://www.w3.org/2000/svg">
<path d="M660.747 102.477C660.086 102.605 659.47 102.906 658.964 103.351C657.877 104.548 658.181 106.987 660.184 108.646C661.076 109.362 662.124 109.857 663.243 110.09C666.606 110.863 672.635 108.488 671.156 105.023C669.836 101.863 663.907 101.616 660.747 102.477Z" fill="#E72A70"/>
<path d="M974.222 99.076C968.065 99.5062 961.965 100.55 956.013 102.192C955.756 102.378 955.55 102.627 955.416 102.915C955.282 103.204 955.224 103.522 955.248 103.839C954.869 107.576 966.828 112.972 971.05 109.729C974.26 107.278 977.895 103.44 977.699 101.204C977.819 99.9248 976.864 99.057 974.222 99.076Z" fill="#E72A70"/>
<path d="M1204.29 95.6052C1202.79 97.2646 1203.93 101.305 1208.57 102.35C1211.93 103.117 1217.96 100.748 1216.48 97.2836C1214.84 93.2871 1205.78 93.9522 1204.29 95.6052Z" fill="#E72A70"/>
<path d="M1359.51 79.9423C1354.99 83.8944 1349.71 90.969 1357.03 90.4496C1363.15 89.6187 1369.17 88.1781 1375 86.1492C1379.03 82.33 1364.04 75.9965 1359.51 79.9423Z" fill="#E72A70"/>
<path d="M3.93103 91.9444C4.82861 92.2421 5.71985 92.5778 6.61096 92.8945L9.22131 93.8761L11.9075 94.8705L14.6696 95.8839L17.4885 96.8972C20.3328 97.9233 23.2339 98.9366 26.1096 99.8993C28.5051 100.704 30.8815 101.476 33.201 102.179L35.9379 102.996C36.3929 103.136 36.8416 103.262 37.2966 103.389C38.624 103.769 39.926 104.118 41.1837 104.434C42.4479 104.757 43.655 105.068 44.818 105.289C46.3729 105.625 47.8331 105.923 49.1793 106.087C61.6006 107.852 74.2158 107.736 86.6028 105.745L107.308 102.407C114.803 101.199 122.479 101.852 129.664 104.307C130.783 104.687 131.882 105.118 132.976 105.574L141.907 109.431L142.115 109.501C147.367 110.882 184.766 96.5299 200.504 97.955C201.578 98.0446 202.638 98.2571 203.664 98.5883C211.666 101.261 210.572 110.673 216.627 112.592C218.338 113.042 220.137 113.042 221.848 112.592L222.214 112.49L239.343 106.353C245.354 104.2 253.039 98.8036 260.365 94.6172C261.749 93.8318 263.12 93.0844 264.467 92.4068C264.662 92.3181 264.852 92.223 265.048 92.1217C265.427 91.9317 265.807 91.7544 266.179 91.5834L267.311 91.0893C267.684 90.9246 268.05 90.779 268.411 90.6397C268.777 90.4919 269.137 90.3589 269.491 90.2406L270.566 89.8986C271.715 89.5471 272.897 89.3116 274.093 89.1956C274.409 89.1956 274.725 89.1576 275.035 89.1576C276.567 89.2044 278.082 89.4974 279.522 90.0253C285.684 92.1027 293.427 97.3089 299.672 99.38C301.141 99.9143 302.685 100.209 304.248 100.254C306.27 100.254 312.066 99.057 318.064 97.8726C324.146 96.6745 330.407 96.7392 336.463 98.0626L337.006 98.183C340.179 98.9036 343.264 99.9653 346.209 101.35L359.747 107.753C359.801 107.78 359.859 107.799 359.918 107.81C359.98 107.831 360.043 107.846 360.108 107.854C363.319 108.19 378.722 112.693 400.154 105.239C400.501 105.124 400.875 105.124 401.222 105.239C401.331 105.273 401.435 105.32 401.532 105.378C401.689 105.473 401.83 105.593 401.949 105.733C402.701 106.626 403.422 107.417 404.111 108.127C404.283 108.304 404.454 108.475 404.623 108.64L404.863 108.88L405.375 109.362C406.18 110.102 407.024 110.8 407.903 111.452L408.535 111.92C409.275 112.433 409.945 112.851 410.545 113.187L411.43 113.694C412.024 114.036 412.53 114.327 412.928 114.6C413.035 114.676 413.136 114.752 413.231 114.834C413.338 114.922 413.44 115.018 413.535 115.119C413.718 115.299 413.932 115.445 414.167 115.55L414.47 115.695C417.447 117 425.847 117.994 432.218 118.507C432.673 118.545 433.094 118.571 433.482 118.583H433.627C439.632 118.843 440.681 117.177 448.562 115.113C450.673 114.562 452.355 114.093 453.828 113.669C455.597 113.174 457.139 112.744 458.941 112.307C459.32 112.212 459.705 112.123 460.11 112.034L462.069 111.616L462.777 111.471L463.523 111.325L465.584 110.945C467.056 110.685 468.744 110.407 470.703 110.096C474.293 109.533 476.809 109.691 478.711 110.293C480.302 110.804 481.731 111.723 482.858 112.959C482.971 113.073 483.078 113.187 483.18 113.301C484.779 115.037 486.093 117.057 488.495 118.501C492.869 121.129 500.036 124.752 506.193 126.64C508.031 127.239 509.927 127.647 511.849 127.856C518.555 128.438 524.389 127.273 532.561 124.056C537.814 121.984 539.691 119.673 541.834 116.455C542.333 115.708 542.845 114.916 543.414 114.061C543.584 113.802 543.825 113.598 544.109 113.472C549.386 111.129 555.119 107.139 560.542 107.246C578.473 107.645 594.186 115.315 604.684 111.73C605.442 111.449 606.149 111.045 606.776 110.533C607.141 110.252 607.489 109.949 607.819 109.628C607.933 109.526 608.047 109.419 608.167 109.292C609.158 108.295 610.087 107.237 610.948 106.125C611.182 105.828 611.416 105.53 611.637 105.226C612.332 104.327 613.008 103.402 613.684 102.502C614.367 101.597 615.037 100.716 615.694 99.8993L616.055 99.4624C616.599 98.7999 617.177 98.1657 617.787 97.5623C618.295 97.0459 618.856 96.5851 619.461 96.1879C620.655 95.3821 622.023 94.8737 623.453 94.7051C624.882 94.5366 626.33 94.7127 627.678 95.2188C629.436 95.8559 631.094 96.741 632.602 97.8473L632.981 98.1196C633.297 98.3477 633.613 98.5946 633.948 98.8479C634.283 99.1013 634.58 99.3673 634.947 99.6523C637.348 101.696 639.611 103.896 641.722 106.239C641.969 106.514 642.262 106.743 642.588 106.917C642.787 107.03 643 107.119 643.22 107.183C644.958 107.69 647.284 106.86 649.844 105.378C651.891 104.151 653.864 102.803 655.753 101.343C657.795 99.8107 659.836 98.1766 661.733 96.7769C661.91 96.6566 662.087 96.5299 662.257 96.3969C662.94 95.9028 663.603 95.4342 664.235 95.0162C664.458 94.8716 664.724 94.811 664.988 94.8452C666.893 95.0992 668.783 95.4672 670.645 95.9472L671.447 96.1625C673.554 96.7417 675.619 97.4633 677.628 98.3223L686.559 102.179L686.768 102.249C692.02 103.63 729.412 89.2843 745.15 90.7093C746.224 90.7989 747.284 91.0114 748.31 91.3427C756.312 94.0154 755.225 103.421 761.28 105.34C762.988 105.8 764.787 105.811 766.501 105.372L766.867 105.27L783.995 99.133C787.339 97.936 791.195 95.7318 795.221 93.2997C795.45 93.1626 795.708 93.0829 795.975 93.0675C796.241 93.052 796.507 93.1014 796.75 93.2111L796.965 93.3314C798.325 94.1856 799.754 94.9229 801.238 95.5355C801.712 95.7382 802.198 95.9346 802.691 96.1309L804.208 96.6946L805.788 97.2393C812.798 99.5764 821.558 101.261 831.279 102.034C843.237 102.977 844.406 102.838 854.911 99.3926C855.764 99.1076 856.719 98.7593 857.749 98.3159L858.798 97.8663L859.898 97.3722C862.148 96.3525 864.657 95.0985 867.255 93.7241C868.987 92.8121 870.763 91.824 872.526 90.8677L873.853 90.1329C874.135 89.9755 874.455 89.903 874.776 89.924C878.592 90.2038 882.357 90.9656 885.982 92.1914C887.639 92.7526 889.261 93.4082 890.843 94.1548L904.381 100.558C904.435 100.585 904.493 100.604 904.552 100.615C904.614 100.636 904.677 100.651 904.741 100.659C908.009 101.001 923.867 105.65 945.862 97.6572C951.129 95.7703 956.581 94.4455 962.125 93.7051L984.36 90.6206C992.477 89.4832 1000.73 89.9023 1008.69 91.8557C1010.11 92.2041 1011.36 92.4891 1012.49 92.7044L1012.78 92.7614C1016.18 93.4328 1018.38 93.6101 1020.53 93.9078L1020.95 93.9965L1053.43 103.313C1054.6 103.651 1055.77 103.965 1056.94 104.257C1059.41 104.89 1061.89 105.439 1064.39 105.904C1068.4 106.667 1072.45 107.223 1076.51 107.569C1077.84 107.688 1079.17 107.78 1080.5 107.848L1082.16 107.93C1088.95 108.196 1097.38 99.8803 1105.16 100.051C1123.09 100.45 1138.81 108.12 1149.31 104.536C1149.92 104.313 1150.5 104.001 1151.03 103.611C1154.41 101.666 1157.8 96.1815 1161 92.2104C1161.97 90.9279 1163.1 89.7707 1164.36 88.765C1165.56 88.015 1166.91 87.5566 1168.31 87.4268C1169.72 87.297 1171.13 87.4993 1172.44 88.0176C1176.1 89.2843 1180.55 92.6664 1186.35 98.9873C1186.76 99.4398 1187.28 99.7672 1187.87 99.931C1190.08 100.564 1193.22 99.0633 1196.6 96.8149C1196.87 96.6439 1197.14 96.4666 1197.41 96.2766C1198.23 95.7319 1199.06 95.1428 1199.89 94.5221C1200.18 94.3258 1200.46 94.1168 1200.73 93.8888C1203.82 91.5897 1206.91 89.0753 1209.54 87.3272H1209.59L1209.91 87.1182L1210.63 87.2068H1210.85C1211.32 87.2638 1211.8 87.3399 1212.26 87.4159L1212.55 87.4665C1213 87.5425 1213.44 87.6312 1213.89 87.7199L1214.23 87.7896C1216.92 88.3656 1219.55 89.1773 1222.09 90.2153L1222.88 90.551L1231.81 94.4081C1231.88 94.4361 1231.95 94.4594 1232.02 94.4778C1237.27 95.8586 1274.67 81.513 1290.4 82.938C1291.48 83.0276 1292.54 83.2402 1293.56 83.5714C1301.57 86.2441 1300.48 95.6496 1306.54 97.5686C1308.24 98.0312 1310.03 98.0443 1311.74 97.6066L1312.12 97.4989L1329.25 91.3617C1335.26 89.2083 1342.94 83.8121 1350.26 79.6256C1351.65 78.8402 1353.02 78.0929 1354.37 77.4152C1354.56 77.3265 1354.75 77.2315 1354.95 77.1302C1355.33 76.9402 1355.71 76.7628 1356.08 76.5918L1357.21 76.0978C1357.58 75.9332 1357.95 75.7874 1358.31 75.6481C1358.68 75.5003 1359.04 75.3673 1359.39 75.2491L1360.47 74.9071C1361.61 74.5556 1362.8 74.3201 1363.99 74.2041C1364.31 74.2041 1364.62 74.1661 1364.93 74.1661C1366.47 74.2128 1367.98 74.5058 1369.42 75.0337C1375.59 77.1112 1383.33 82.3174 1389.58 84.3884C1391.05 84.9227 1392.59 85.2178 1394.15 85.2625C1396.18 85.2625 1401.97 84.0654 1407.96 82.8874C1415.8 81.3413 1423.9 81.8963 1431.45 84.4961C1433.04 85.039 1434.6 85.6734 1436.12 86.3962L1449.65 92.7994C1449.71 92.8265 1449.76 92.8457 1449.82 92.8564C1449.89 92.8772 1449.95 92.892 1450.01 92.9007C1453.28 93.2427 1469.14 97.8916 1491.13 89.8986C1496.4 88.0116 1501.85 86.6869 1507.4 85.9465L1529.63 82.862C1537.75 81.7246 1546.01 82.1437 1553.97 84.0971C1555.41 84.4518 1556.68 84.7305 1557.82 84.9585C1557.88 84.9742 1557.94 84.9868 1558 84.9964C1559.95 85.3828 1561.51 85.6298 1562.89 85.7755H1563.04C1564.03 85.9085 1564.94 86.0098 1565.8 86.1302L1566.22 86.2188L1598.7 95.5355C1602.1 96.5193 1605.55 97.3448 1609.03 98.0119C1609.24 98.0584 1609.45 98.0963 1609.66 98.1259C1613.68 98.8919 1617.74 99.45 1621.82 99.798C1623.08 99.9035 1624.34 99.9922 1625.61 100.064C1626.24 100.102 1626.83 100.127 1627.44 100.153C1634.22 100.419 1642.65 92.1027 1650.43 92.2737C1668.37 92.6727 1684.08 100.343 1694.58 96.7579C1695.93 96.2956 1697.28 95.1808 1698.63 93.7431L1699.34 92.9578L1699.82 92.4068L1700.52 91.5454L1701.23 90.6523C1704.06 86.9979 1706.81 82.8177 1709.36 81.2026C1709.55 81.0823 1709.75 80.962 1709.94 80.8543L1710.12 80.7593C1711.11 80.2649 1712.16 79.9172 1713.25 79.7269H1713.32C1717.04 79.0493 1721.54 88.5243 1728 90.76V0H-0.00012207V90.76C-0.00012207 90.76 3.02722 91.6467 3.93103 91.9444Z" fill="#E72A70"/>
</svg>