<svg width="1728" height="128" viewBox="0 0 1728 128" fill="none" xmlns="http://www.w3.org/2000/svg">
<path d="M1067.25 25.5229C1067.91 25.3952 1068.53 25.0936 1069.04 24.6489C1070.12 23.4519 1069.82 21.0134 1067.82 19.354C1066.92 18.6381 1065.88 18.1434 1064.76 17.91C1061.39 17.1373 1055.36 19.5124 1056.84 22.9768C1058.16 26.1373 1064.09 26.3842 1067.25 25.5229Z" fill="#E72A70"/>
<path d="M753.777 28.924C759.935 28.4938 766.035 27.4499 771.987 25.8079C772.244 25.6221 772.45 25.373 772.584 25.0847C772.718 24.7963 772.776 24.4783 772.751 24.1612C773.131 20.4243 761.172 15.0281 756.95 18.2709C753.74 20.722 750.105 24.5601 750.301 26.7959C750.181 28.0752 751.135 28.943 753.777 28.924Z" fill="#E72A70"/>
<path d="M523.713 32.3948C525.211 30.7354 524.073 26.6946 519.434 25.6495C516.072 24.8832 510.042 27.2519 511.521 30.7164C513.164 34.7129 522.215 34.0478 523.713 32.3948Z" fill="#E72A70"/>
<path d="M368.489 48.0577C373.014 44.1056 378.292 37.031 370.966 37.5504C364.851 38.3813 358.834 39.8219 353.004 41.8508C348.965 45.67 363.963 52.0035 368.489 48.0577Z" fill="#E72A70"/>
<path d="M1724.07 36.0556C1723.17 35.7579 1722.28 35.4222 1721.39 35.1055L1718.78 34.1239L1716.09 33.1295L1713.33 32.1161L1710.51 31.1028C1707.67 30.0767 1704.77 29.0634 1701.89 28.1007C1699.49 27.2963 1697.12 26.5236 1694.8 25.8206L1692.06 25.0035C1691.61 24.8642 1691.16 24.7375 1690.7 24.6109C1689.38 24.2309 1688.07 23.8825 1686.82 23.5658C1685.55 23.2428 1684.34 22.9325 1683.18 22.7108C1681.63 22.3751 1680.17 22.0774 1678.82 21.9128C1666.4 20.1482 1653.78 20.2636 1641.4 22.2548L1620.69 25.5926C1613.2 26.8006 1605.52 26.1481 1598.34 23.6925C1597.22 23.3125 1596.12 22.8818 1595.02 22.4258L1586.09 18.5686L1585.88 18.499C1580.63 17.1182 1543.23 31.4701 1527.5 30.045C1526.42 29.9554 1525.36 29.7429 1524.34 29.4117C1516.33 26.7389 1517.43 17.3272 1511.37 15.4082C1509.66 14.9584 1507.86 14.9584 1506.15 15.4082L1505.79 15.5095L1488.66 21.6467C1482.65 23.8001 1474.96 29.1964 1467.64 33.3828C1466.25 34.1682 1464.88 34.9156 1463.53 35.5932C1463.34 35.6819 1463.15 35.777 1462.95 35.8783C1462.57 36.0683 1462.19 36.2456 1461.82 36.4166L1460.69 36.9107C1460.32 37.0754 1459.95 37.221 1459.59 37.3603C1459.22 37.5081 1458.86 37.6411 1458.51 37.7594L1457.43 38.1014C1456.28 38.4529 1455.1 38.6884 1453.91 38.8044C1453.59 38.8044 1453.28 38.8424 1452.97 38.8424C1451.43 38.7956 1449.92 38.5026 1448.48 37.9747C1442.32 35.8973 1434.57 30.6911 1428.33 28.62C1426.86 28.0857 1425.31 27.7907 1423.75 27.7459C1421.73 27.7459 1415.93 28.943 1409.94 30.1274C1403.85 31.3255 1397.59 31.2608 1391.54 29.9374L1390.99 29.817C1387.82 29.0964 1384.74 28.0347 1381.79 26.6503L1368.25 20.247C1368.2 20.22 1368.14 20.2008 1368.08 20.19C1368.02 20.1693 1367.96 20.1544 1367.89 20.1457C1364.68 19.81 1349.28 15.3068 1327.85 22.7614C1327.5 22.8755 1327.12 22.8755 1326.78 22.7614C1326.67 22.7268 1326.57 22.6801 1326.47 22.6221C1326.31 22.5269 1326.17 22.4072 1326.05 22.2675C1325.3 21.3744 1324.58 20.5827 1323.89 19.8734C1323.72 19.696 1323.55 19.525 1323.38 19.3603L1323.14 19.1196L1322.63 18.6383C1321.82 17.8976 1320.98 17.2 1320.1 16.5482L1319.46 16.0796C1318.73 15.5666 1318.06 15.1485 1317.45 14.8129L1316.57 14.3061C1315.98 13.9641 1315.47 13.6728 1315.07 13.4005C1314.96 13.3245 1314.86 13.2485 1314.77 13.1661C1314.66 13.0776 1314.56 12.9823 1314.47 12.8811C1314.28 12.7007 1314.07 12.5549 1313.83 12.4504L1313.53 12.3047C1310.55 11 1302.15 10.0057 1295.78 9.49264C1295.33 9.45464 1294.91 9.42931 1294.52 9.41665H1294.37C1288.37 9.15697 1287.32 10.8227 1279.44 12.8874C1277.33 13.4384 1275.65 13.9071 1274.17 14.3315C1272.4 14.8255 1270.86 15.2562 1269.06 15.6932C1268.68 15.7882 1268.29 15.8769 1267.89 15.9655L1265.93 16.3836L1265.22 16.5292L1264.48 16.6749L1262.42 17.0549C1260.94 17.3146 1259.26 17.5933 1257.3 17.9036C1253.71 18.4673 1251.19 18.309 1249.29 17.7073C1247.7 17.196 1246.27 16.2768 1245.14 15.0409C1245.03 14.9269 1244.92 14.8128 1244.82 14.6988C1243.22 12.9634 1241.91 10.943 1239.5 9.49898C1235.13 6.87055 1227.96 3.24777 1221.81 1.36037C1219.97 0.760588 1218.07 0.353042 1216.15 0.144294C1209.44 -0.438394 1203.61 0.726982 1195.44 3.94443C1190.19 6.01551 1188.31 8.32726 1186.17 11.5447C1185.67 12.2921 1185.15 13.0838 1184.59 13.9388C1184.42 14.198 1184.17 14.4025 1183.89 14.5278C1178.61 16.8712 1172.88 20.8614 1167.46 20.7537C1149.53 20.3547 1133.81 12.6847 1123.32 16.2695C1122.56 16.551 1121.85 16.9554 1121.22 17.4666C1120.86 17.7483 1120.51 18.0508 1120.18 18.3723C1120.07 18.4737 1119.95 18.5813 1119.83 18.708C1118.84 19.7051 1117.91 20.7627 1117.05 21.8748C1116.82 22.1725 1116.58 22.4701 1116.36 22.7741C1115.67 23.6735 1114.99 24.5982 1114.32 25.4976C1113.63 26.4033 1112.96 27.2836 1112.31 28.1007L1111.95 28.5376C1111.4 29.2001 1110.82 29.8343 1110.21 30.4377C1109.71 30.9541 1109.14 31.4149 1108.54 31.8121C1107.34 32.6179 1105.98 33.1263 1104.55 33.2949C1103.12 33.4634 1101.67 33.2873 1100.32 32.7812C1098.56 32.1441 1096.91 31.259 1095.4 30.1527L1095.02 29.8804C1094.7 29.6523 1094.39 29.4054 1094.05 29.1521C1093.72 28.8987 1093.42 28.6327 1093.05 28.3477C1090.65 26.3042 1088.39 24.1037 1086.28 21.7608C1086.03 21.4859 1085.74 21.2566 1085.41 21.0831C1085.21 20.97 1085 20.8807 1084.78 20.8171C1083.04 20.3104 1080.72 21.1401 1078.16 22.6221C1076.11 23.8495 1074.14 25.1966 1072.25 26.6566C1070.2 28.1893 1068.16 29.8234 1066.27 31.2231C1066.09 31.3434 1065.91 31.4701 1065.74 31.6031C1065.06 32.0972 1064.4 32.5658 1063.76 32.9838C1063.54 33.1284 1063.28 33.189 1063.01 33.1548C1061.11 32.9008 1059.22 32.5328 1057.36 32.0528L1056.55 31.8375C1054.45 31.2583 1052.38 30.5367 1050.37 29.6777L1041.44 25.8206L1041.23 25.7509C1035.98 24.3702 998.588 38.7157 982.85 37.2907C981.776 37.2011 980.716 36.9886 979.69 36.6573C971.688 33.9846 972.775 24.5792 966.72 22.6602C965.012 22.2 963.213 22.1891 961.499 22.6285L961.133 22.7298L944.004 28.867C940.661 30.064 936.805 32.2682 932.779 34.7003C932.55 34.8374 932.292 34.9171 932.025 34.9325C931.759 34.948 931.493 34.8986 931.25 34.7889L931.035 34.6686C929.675 33.8144 928.246 33.0771 926.762 32.4645C926.288 32.2618 925.801 32.0654 925.308 31.8691L923.792 31.3054L922.211 30.7607C915.202 28.4236 906.442 26.739 896.721 25.9663C884.763 25.0226 883.593 25.1619 873.089 28.6074C872.236 28.8924 871.281 29.2407 870.251 29.6841L869.202 30.1337L868.102 30.6278C865.852 31.6475 863.343 32.9015 860.745 34.2759C859.013 35.1879 857.237 36.176 855.474 37.1323L854.146 37.8671C853.865 38.0245 853.545 38.097 853.224 38.076C849.408 37.7962 845.643 37.0344 842.017 35.8086C840.361 35.2474 838.739 34.5918 837.157 33.8452L823.619 27.4419C823.565 27.4149 823.507 27.3957 823.448 27.385C823.386 27.3642 823.323 27.3494 823.258 27.3407C819.991 26.9987 804.133 22.3498 782.138 30.3428C776.87 32.2297 771.419 33.5545 765.875 34.2949L743.639 37.3794C735.523 38.5168 727.266 38.0977 719.306 36.1443C717.89 35.7959 716.638 35.5109 715.513 35.2956L715.216 35.2386C711.816 34.5672 709.617 34.3899 707.474 34.0922L707.05 34.0035L674.57 24.6869C673.398 24.3491 672.227 24.0345 671.055 23.7432C668.591 23.1098 666.109 22.5609 663.61 22.0965C659.6 21.3326 655.554 20.7766 651.487 20.4307C650.16 20.3125 648.831 20.2196 647.499 20.152L645.837 20.0697C639.049 19.8037 630.617 28.1197 622.843 27.9487C604.906 27.5497 589.193 19.8797 578.695 23.4645C578.078 23.6872 577.496 23.9988 576.969 24.3892C573.594 26.3336 570.2 31.8185 567.002 35.7896C566.026 37.0721 564.897 38.2293 563.639 39.235C562.444 39.985 561.09 40.4434 559.686 40.5732C558.282 40.703 556.867 40.5007 555.555 39.9824C551.896 38.7157 547.453 35.3336 541.65 29.0127C541.244 28.5602 540.718 28.2329 540.133 28.069C537.921 27.4356 534.78 28.9367 531.399 31.1851C531.133 31.3561 530.861 31.5334 530.59 31.7234C529.774 32.2681 528.94 32.8572 528.106 33.4779C527.821 33.6742 527.543 33.8832 527.265 34.1112C524.181 36.4103 521.09 38.9247 518.461 40.6728H518.41L518.094 40.8818L517.367 40.7932H517.146C516.678 40.7362 516.204 40.6601 515.737 40.5841L515.452 40.5335C515.003 40.4575 514.561 40.3688 514.112 40.2801L513.771 40.2104C511.084 39.6344 508.453 38.8227 505.908 37.7847L505.118 37.449L496.187 33.5919C496.119 33.5639 496.05 33.5406 495.979 33.5222C490.727 32.1414 453.335 46.487 437.597 45.062C436.523 44.9724 435.462 44.7598 434.436 44.4286C426.435 41.7559 427.522 32.3504 421.461 30.4314C419.759 29.9688 417.967 29.9557 416.259 30.3934L415.88 30.5011L398.751 36.6383C392.74 38.7917 385.061 44.1879 377.736 48.3744C376.352 49.1598 374.98 49.9071 373.634 50.5848C373.438 50.6735 373.248 50.7685 373.052 50.8698C372.673 51.0598 372.294 51.2372 371.921 51.4082L370.79 51.9022C370.417 52.0668 370.05 52.2126 369.69 52.3519C369.323 52.4997 368.963 52.6327 368.609 52.7509L367.535 53.0929C366.385 53.4444 365.204 53.6799 364.008 53.7959C363.692 53.7959 363.376 53.8339 363.066 53.8339C361.533 53.7872 360.018 53.4942 358.578 52.9663C352.41 50.8888 344.673 45.6826 338.422 43.6116C336.953 43.0773 335.409 42.7822 333.846 42.7375C331.824 42.7375 326.034 43.9346 320.036 45.1126C312.203 46.6587 304.1 46.1037 296.549 43.5039C294.959 42.961 293.402 42.3266 291.885 41.6038L278.346 35.2006C278.293 35.1735 278.235 35.1543 278.176 35.1436C278.114 35.1228 278.051 35.108 277.986 35.0993C274.719 34.7573 258.861 30.1084 236.865 38.1014C231.598 39.9884 226.147 41.3131 220.603 42.0535L198.367 45.138C190.251 46.2754 181.993 45.8563 174.034 43.9029C172.586 43.5482 171.316 43.2695 170.178 43.0415C170.12 43.0258 170.061 43.0132 170.001 43.0036C168.048 42.6172 166.487 42.3702 165.109 42.2245H164.958C163.972 42.0915 163.061 41.9902 162.195 41.8698L161.785 41.7812L129.304 32.4645C125.899 31.4807 122.455 30.6552 118.97 29.9881C118.763 29.9416 118.553 29.9037 118.338 29.8741C114.318 29.1081 110.261 28.55 106.184 28.202C104.92 28.0965 103.655 28.0078 102.391 27.936C101.759 27.898 101.171 27.8726 100.565 27.8473C93.7765 27.5813 85.3451 35.8973 77.5709 35.7263C59.6335 35.3273 43.9208 27.6573 33.4225 31.2421C32.0699 31.7044 30.7174 32.8192 29.3711 34.2569L28.6569 35.0422L28.1828 35.5932L27.475 36.4546L26.767 37.3477C23.9355 41.0021 21.1862 45.1823 18.639 46.7974C18.4494 46.9177 18.2534 47.038 18.0574 47.1457L17.8804 47.2407C16.8931 47.7351 15.8392 48.0828 14.7518 48.2731H14.6761C10.9597 48.9507 6.45951 39.4757 0 37.24V128H1728V37.24C1728 37.24 1724.97 36.3533 1724.07 36.0556Z" fill="#E72A70"/>
</svg>