<svg width="1728" height="220" viewBox="0 0 1728 220" fill="none" xmlns="http://www.w3.org/2000/svg">
<path d="M335.53 97.3747C330.353 97.9214 327.041 103.194 328.514 108.159C329.677 112.081 331.156 115.757 332.148 113.426C336.428 103.37 341.333 100.856 338.685 98.2106C337.92 97.4376 336.794 97.2427 335.53 97.3747Z" fill="#E72A70"/>
<path d="M159.516 92.9629C156.21 92.391 153.46 89.8834 151.602 92.0956C149.743 94.3078 147.999 96.8719 154.263 100.197C156.094 101.132 158.075 101.744 160.116 102.007H160.173C163.138 102.34 164.731 99.9829 163.542 97.2553C162.544 94.9552 161.659 93.34 159.516 92.9629Z" fill="#E72A70"/>
<path d="M1201.03 88.903C1200.5 88.1917 1199.78 87.6446 1198.95 87.3262C1198.12 87.0078 1197.22 86.9313 1196.35 87.1056L1196.13 87.1558C1194.64 87.5172 1193.21 88.0864 1191.88 88.8465C1188.38 90.9644 1192.51 92.1899 1193.21 93.4405C1193.9 94.6912 1199.01 93.0006 1201.38 92.1144C1202.31 91.7688 1202.21 90.9204 1201.72 89.9965C1201.52 89.6141 1201.29 89.2485 1201.03 88.903Z" fill="#E72A70"/>
<path d="M0 0V83.7244C0 83.7244 3.79273 90.1599 5.6891 88.1802C10.5944 83.0142 14.9245 82.1218 19.0649 83.5547C24.0081 85.2704 28.6731 90.3233 33.6795 95.3573C38.256 99.964 43.1234 104.552 48.762 106.563C52.4246 107.902 56.436 107.967 60.1402 106.745C76.4679 101.592 80.9305 94.9803 91.1709 91.9134C96.2785 90.3799 102.815 89.7389 112.985 90.5873C113.061 90.5936 113.137 90.5936 113.213 90.5873L151.197 88.4379C154.08 88.2685 156.968 88.6701 159.693 89.6194C162.003 90.4278 164.145 91.6481 166.014 93.2205C167.124 94.0953 168.067 95.1593 168.802 96.3629C169.282 97.2365 169.693 97.6198 170.066 97.7643C170.97 98.1037 171.754 97.0919 173.024 97.557C173.758 97.8335 174.662 98.6128 175.844 100.46C176.749 101.926 177.465 103.499 177.974 105.143C178.758 107.543 179.238 109.906 179.795 111.666C180.269 113.124 180.825 114.18 181.691 114.482C182.198 114.635 182.743 114.602 183.227 114.387C186.779 113.055 186.552 108.461 187.898 105.589C187.945 105.476 188 105.367 188.063 105.262C188.331 104.751 188.703 104.302 189.156 103.942C189.245 103.873 189.333 103.81 189.415 103.735C189.58 103.603 189.731 103.477 189.871 103.345C191.931 101.529 191.457 100.636 194.106 100.467C195.939 100.341 197.121 100.184 198.278 100.542L198.505 100.618C199.206 100.897 199.848 101.302 200.402 101.812C200.797 102.196 201.12 102.647 201.356 103.144C201.533 103.49 201.71 103.873 201.881 104.282C202.165 104.973 202.45 105.746 202.728 106.538C203.803 109.561 204.877 112.898 206.375 113.363C208.904 114.136 210.446 108.26 211.483 105.287C212.115 103.49 213.43 101.045 215.471 101.812C215.641 101.875 215.805 101.955 215.958 102.051C216.533 102.396 217.039 102.679 217.501 102.899C217.807 103.054 218.121 103.193 218.442 103.314C219.301 103.648 220.197 103.882 221.11 104.011H221.167C221.352 104.047 221.534 104.1 221.71 104.168C221.824 104.208 221.932 104.261 222.033 104.326C222.113 104.365 222.189 104.411 222.26 104.464C222.311 104.497 222.359 104.533 222.406 104.571C222.481 104.63 222.553 104.693 222.621 104.759L222.69 104.822C222.744 104.869 222.795 104.919 222.842 104.973C223.164 105.312 223.43 105.601 223.651 105.903C223.777 106.06 223.891 106.205 223.992 106.343C224.328 106.835 224.695 107.306 225.092 107.751C225.199 107.861 225.313 107.964 225.434 108.059C225.568 108.166 225.709 108.265 225.857 108.354C226.553 108.781 227.185 109.611 228.215 109.913C229.056 110.158 230.168 110.045 231.793 109.039C233.923 107.719 235.168 107.185 236.034 106.475C236.211 106.331 236.376 106.173 236.527 106.004C236.649 105.876 236.757 105.738 236.85 105.589C236.88 105.534 236.914 105.482 236.951 105.432C237.134 105.135 237.293 104.824 237.425 104.501C237.476 104.376 237.539 104.244 237.602 104.118C237.957 103.429 238.411 102.794 238.948 102.233C239.763 101.402 240.734 100.739 241.807 100.283C242.88 99.8266 244.033 99.5858 245.2 99.5743C247.729 99.5366 252.545 100.831 258.152 102.673C258.386 102.742 258.62 102.824 258.848 102.905L259.549 103.138C260.965 103.609 262.413 104.112 263.879 104.634C264.788 104.956 265.72 105.21 266.667 105.394C268.195 105.682 269.738 105.892 271.288 106.022L272.394 106.136C273.209 106.211 274.025 106.299 274.828 106.399C275.757 106.519 276.673 106.663 277.577 106.852C278.315 107.005 279.043 107.201 279.758 107.436C280.525 107.691 281.27 108.008 281.983 108.385C284.777 109.825 286.939 112.785 288.444 117.021C288.545 117.303 288.646 117.593 288.734 117.888C291.035 125.071 291.611 135.686 290.384 148.903C286.857 186.824 281.073 198.608 284.695 209.713C285.074 210.877 285.543 212.009 286.098 213.101C287.925 216.727 290.182 218.795 292.533 219.599C298.222 221.554 304.405 216.168 306.333 207.69C308.994 195.981 294.853 125.813 309.398 104.407C309.475 104.297 309.56 104.192 309.651 104.093C309.746 103.987 309.852 103.892 309.967 103.81C310.349 103.529 310.763 103.293 311.2 103.106L311.68 102.905C312.357 102.648 313.103 102.421 313.861 102.189C314.051 102.126 314.247 102.063 314.436 102.013C315.352 101.751 316.242 101.41 317.098 100.995L333.862 92.259C335.357 91.4736 337.104 91.3065 338.723 91.7939L339.083 91.9134C340.3 92.3477 341.357 93.136 342.117 94.1758C342.468 94.67 342.895 95.1068 343.381 95.4704C343.513 95.5644 343.65 95.6505 343.792 95.7281C344.016 95.8476 344.251 95.9444 344.494 96.0172C346.39 96.564 349.323 95.6904 354.69 92.0076C356.03 91.0837 357.18 90.9957 358.097 91.31C358.625 91.5153 359.102 91.83 359.498 92.2331C359.893 92.6362 360.198 93.1186 360.392 93.6479C360.392 93.7171 360.436 93.7799 360.455 93.8427C360.505 94.0375 360.569 94.2261 360.632 94.4146C361.259 96.3525 362.561 98.004 364.305 99.0716C364.453 99.1571 364.607 99.2326 364.766 99.2978C364.93 99.3607 365.088 99.4235 365.246 99.4738C365.803 99.6555 366.393 99.7114 366.973 99.6375C367.554 99.5635 368.111 99.3616 368.603 99.0464C369.413 98.5229 370.099 97.8302 370.613 97.0165L370.676 96.9222C371.781 95.3096 373.381 94.0963 375.238 93.4641C377.094 92.8319 379.107 92.8148 380.974 93.4154C381.531 93.5897 382.068 93.8192 382.579 94.1004C382.987 94.3359 383.409 94.5458 383.843 94.7289H383.938C386.467 95.2945 388.54 95.2128 390.525 95.8035C390.727 95.8664 390.923 95.9293 391.119 96.0047L391.422 96.1366C391.707 96.2686 391.985 96.4194 392.251 96.5765C393.152 97.142 393.929 97.8841 394.533 98.7574L398.218 104.062C398.488 104.456 398.792 104.826 399.128 105.168C399.293 105.344 399.463 105.507 399.64 105.664C400.435 106.379 401.369 106.924 402.384 107.267C402.497 107.311 402.613 107.349 402.731 107.38C403.036 107.466 403.347 107.531 403.66 107.575L403.913 107.612C408.464 108.172 413.041 104.803 416.992 100.592C417.984 99.5429 418.629 97.5884 420.089 97.5192C420.807 97.5041 421.522 97.6257 422.194 97.8775C427.011 99.5744 433.933 106.99 437.365 117.404C440.195 125.855 440.195 134.99 437.365 143.441C434.976 150.675 435.191 156.639 436.663 160.862C437.896 164.401 440.026 166.682 442.233 167.399C448.073 169.284 454.496 160.228 446.619 134.41C437.485 104.464 456.936 95.2442 472.372 92.5041C472.625 92.4587 472.885 92.4738 473.131 92.5481L473.282 92.5984L473.478 92.6801C473.858 92.8435 474.237 93.0069 474.616 93.1829C475.185 93.428 475.741 93.6856 476.279 93.937C477.743 94.5896 479.16 95.3413 480.52 96.1869C481.609 96.9452 482.532 97.916 483.232 99.0402C483.403 99.3167 483.561 99.6058 483.712 99.9012C483.864 100.197 484.06 100.586 484.237 100.951C484.408 101.315 484.585 101.692 484.781 102.094C484.882 102.296 484.983 102.503 485.097 102.723C485.261 103.037 485.438 103.351 485.628 103.71C486.197 104.71 486.831 105.674 487.524 106.594C488.004 107.196 488.384 107.871 488.649 108.593C488.684 108.691 488.711 108.792 488.731 108.895V108.964C488.953 110.02 488.554 110.598 488.858 111.408C489.25 112.452 490.824 113.878 496.443 117.203C497.89 118.086 499.416 118.835 501.001 119.44V119.516C502.446 120.522 503.965 121.419 505.546 122.199C506.395 122.613 507.269 122.974 508.163 123.28C519.712 127.183 524.326 116.581 543.404 119.509H543.454C543.669 119.629 543.865 119.779 544.036 119.956C545.333 121.15 546.329 122.631 546.943 124.279C547.013 124.462 547.076 124.644 547.127 124.826C547.807 126.975 547.831 129.276 547.196 131.438C545.174 138.407 542.594 144.78 543.947 148.343C544.168 148.939 544.524 149.476 544.988 149.912C545.452 150.348 546.011 150.672 546.621 150.857C547.506 151.155 548.431 151.316 549.365 151.335C562.007 151.863 550.629 131.852 557.658 118.554C557.833 118.235 558.111 117.985 558.448 117.844C560.286 117.015 562.032 115.998 563.657 114.808C566.266 112.852 568.765 110.754 571.141 108.524C571.307 108.376 571.5 108.26 571.71 108.184C581.432 104.816 592.172 104.879 600.156 101.743C602.773 100.786 605.147 99.2692 607.109 97.2993C607.312 97.0866 607.568 96.9314 607.851 96.8496C608.135 96.7679 608.435 96.7626 608.721 96.8342L608.91 96.8908C608.974 96.9115 609.036 96.9389 609.094 96.9725C611.611 98.3721 613.876 100.18 615.794 102.321C616.022 102.572 616.256 102.824 616.502 103.069C616.894 103.483 617.305 103.886 617.728 104.282C618.044 104.577 618.361 104.86 618.689 105.136C618.709 105.157 618.73 105.176 618.753 105.193C619.069 105.469 619.385 105.733 619.726 105.991C621.167 107.124 622.724 108.101 624.372 108.907C631.325 112.294 637.368 115.016 642.704 116.826C652.603 120.182 660.068 120.395 666.389 115.871C675.182 109.586 683.653 103.823 688.653 105.249C688.779 105.287 688.912 105.325 689.038 105.375C689.417 105.513 689.775 105.704 690.1 105.941C691.434 106.95 692.641 108.115 693.697 109.41C696.03 112.622 697.821 116.19 699 119.974C701.093 126.422 702.275 135.001 701.472 146.37C701.409 147.181 701.339 148.01 701.263 148.884C697.736 186.806 691.959 198.589 695.574 209.694C695.948 210.859 696.415 211.992 696.971 213.082C698.798 216.708 701.055 218.776 703.406 219.58C709.095 221.535 715.284 216.149 717.206 207.671C717.774 205.157 716.719 201.254 715.031 196.17C714.955 195.937 714.873 195.705 714.797 195.472C714.241 193.832 713.634 192.072 712.996 190.206C712.907 189.935 712.819 189.665 712.724 189.395C712.629 189.125 712.54 188.854 712.452 188.584L712.168 187.742C712.073 187.466 711.978 187.183 711.889 186.906C707.964 175.022 703.716 159.411 705.872 141.656C705.987 140.728 706.308 139.836 706.81 139.045C707.312 138.253 707.984 137.582 708.777 137.078C709.571 136.575 710.466 136.251 711.399 136.131C712.333 136.011 713.282 136.097 714.178 136.384C714.394 136.449 714.605 136.528 714.81 136.623C715.504 136.934 716.215 137.206 716.94 137.439C719.867 138.382 722.598 138.489 724.696 137.54C728.969 135.611 731.308 133.285 737.92 127.874C743.394 123.393 742.838 116.838 746.89 113.363C747.206 113.098 747.54 112.854 747.889 112.634C748.161 112.471 748.451 112.313 748.755 112.163C749.192 111.964 749.642 111.794 750.101 111.653C752.052 111.031 754.156 111.08 756.075 111.792C759.425 112.973 762.314 115.669 766.1 116.82C767.295 117.201 768.543 117.396 769.798 117.398C777.965 117.398 774.463 118.95 785.746 118.171C797.03 117.391 799.653 122.337 808.699 114.695L809.186 114.28C809.818 113.734 810.488 113.218 811.082 112.747C812.513 111.579 814.119 110.642 815.842 109.969C817.222 109.529 818.711 109.562 820.071 110.063L820.583 110.252C820.987 110.409 821.316 110.56 821.556 110.648C821.636 110.679 821.718 110.702 821.803 110.717C821.803 110.717 827.492 112.194 837.713 105.457C837.919 105.319 838.153 105.23 838.399 105.196C838.644 105.162 838.894 105.185 839.129 105.262C839.412 105.353 839.664 105.52 839.856 105.746C843.579 109.938 846.456 114.803 848.333 120.075C850.596 126.674 851.19 134.53 848.238 143.441C845.95 150.355 846.083 155.904 847.442 159.706C848.491 162.647 850.261 164.552 852.214 165.268C854.667 166.173 857.404 165.193 859.307 162C862.265 157.054 863.238 146.822 858.143 130.112C851.19 107.386 860.596 97.5947 872.183 93.5411C879.136 91.1277 886.829 90.7632 892.316 90.9203C894.957 90.9915 897.574 91.4424 900.085 92.259C902.595 93.0675 904.966 94.2544 907.114 95.7784C907.67 96.1743 908.188 96.5765 908.644 96.9725C910.532 98.6284 911.973 100.729 912.835 103.081C916.906 113.903 910.155 129.125 911.665 133.348C911.73 133.579 911.847 133.791 912.008 133.969C912.17 134.147 912.37 134.285 912.594 134.373C912.821 134.455 913.061 134.493 913.302 134.486C916.741 134.448 916.95 129.163 916.564 122.344C916.564 122.3 916.564 122.262 916.564 122.218C916.179 115.305 915.199 106.909 916.336 100.743C916.49 99.9277 916.826 99.1571 917.321 98.489C917.816 97.821 918.456 97.2727 919.194 96.8853C919.932 96.4979 920.749 96.2814 921.583 96.2519C922.417 96.2223 923.247 96.3806 924.01 96.7149C924.449 96.9228 924.858 97.1891 925.224 97.5067L925.269 97.5444L925.629 97.8586L926.261 98.4306L926.583 98.7322C926.779 98.9207 926.969 99.103 927.146 99.2853L927.418 99.5555C927.683 99.8194 927.93 100.083 928.164 100.335L928.612 100.831C929.125 101.403 929.573 101.937 929.984 102.44L930.332 102.874C930.445 103.006 930.553 103.144 930.654 103.276C931.315 104.157 932.031 104.997 932.797 105.79L933.126 106.104L933.303 106.261C933.984 106.855 934.735 107.364 935.541 107.776C935.881 107.96 936.231 108.126 936.59 108.272C936.779 108.354 936.975 108.436 937.178 108.511C937.487 108.631 937.81 108.75 938.157 108.869C938.617 109.033 939.116 109.19 939.655 109.341C940.098 109.466 940.623 109.63 941.21 109.818C943.202 110.447 945.983 111.421 949.257 112.401L951.66 113.099C952.342 113.288 953.05 113.476 953.765 113.658L955.496 114.098C955.587 114.12 955.676 114.149 955.762 114.186C955.93 114.258 956.084 114.358 956.217 114.482C956.349 114.6 956.458 114.74 956.539 114.896C956.696 115.189 956.76 115.522 956.723 115.852C955.623 125.128 951.28 139.419 953.891 146.709C954.177 147.685 954.694 148.577 955.399 149.312C956.104 150.047 956.977 150.603 957.943 150.933C958.693 151.176 959.474 151.312 960.263 151.335C967.393 151.63 966.868 145.383 966.331 137.509C966.328 137.473 966.328 137.437 966.331 137.402C965.863 130.489 965.408 122.319 970.073 116.216C979.195 116.449 988.101 114.155 993.5 106.066C993.564 105.973 993.636 105.885 993.715 105.802C993.797 105.726 993.883 105.655 993.974 105.589C994.165 105.464 994.38 105.38 994.606 105.344C1002.86 103.942 1010.76 103.075 1016.2 98.9396C1016.34 98.829 1016.5 98.7401 1016.67 98.6757C1016.95 98.5794 1017.26 98.5642 1017.55 98.6316L1017.99 98.7322C1018.72 98.8893 1019.42 99.015 1020.05 99.0904C1020.15 99.1009 1020.24 99.122 1020.33 99.1533C1020.55 99.2271 1020.74 99.3515 1020.89 99.5158C1021.05 99.6801 1021.16 99.8792 1021.22 100.096C1021.29 100.332 1021.31 100.579 1021.29 100.825C1021.28 100.881 1021.28 100.939 1021.29 100.995C1021.32 101.076 1021.36 101.151 1021.41 101.215C1021.45 101.255 1021.49 101.293 1021.53 101.328C1023.61 103.045 1025.2 105.272 1026.15 107.788C1026.19 107.902 1026.23 108.015 1026.26 108.128C1028.6 115.405 1023.35 122.111 1024.37 124.606C1024.45 124.811 1024.59 124.993 1024.76 125.139C1024.92 125.285 1025.12 125.391 1025.34 125.448C1025.8 125.594 1026.29 125.66 1026.77 125.643C1034.89 125.643 1024.21 114.331 1031.29 98.418C1031.55 98.7322 1031.79 99.0464 1032.03 99.367C1032.81 100.48 1033.45 101.688 1033.92 102.962C1034.12 103.465 1034.31 103.98 1034.48 104.483C1034.56 104.69 1034.63 104.897 1034.7 105.111C1034.73 105.212 1034.76 105.312 1034.8 105.413L1034.9 105.714C1034.94 105.815 1034.97 105.916 1035 106.016C1035.04 106.117 1035.07 106.211 1035.11 106.311C1035.14 106.412 1035.18 106.513 1035.21 106.607C1035.94 108.719 1036.67 110.378 1038 110.786C1038.75 111.006 1039.7 110.786 1040.95 109.988L1041.07 109.913C1041.25 109.808 1041.44 109.752 1041.65 109.752C1041.85 109.752 1042.05 109.808 1042.22 109.913C1043.57 110.707 1045 111.375 1046.48 111.911C1052.7 114.035 1054.48 110.233 1058.34 106.022C1059.34 104.911 1060.43 103.889 1061.61 102.968C1061.77 102.844 1061.95 102.758 1062.15 102.719C1062.35 102.68 1062.55 102.688 1062.74 102.742C1062.91 102.784 1063.07 102.862 1063.21 102.971C1063.35 103.079 1063.47 103.215 1063.55 103.37C1064.03 104.341 1064.73 105.188 1065.6 105.846C1066.21 106.286 1066.92 106.565 1067.66 106.657C1068.33 106.739 1068.92 106.161 1069.42 105.161L1069.51 105.004C1069.63 104.859 1069.77 104.741 1069.94 104.659C1070.66 104.315 1071.33 103.893 1071.95 103.402C1072.91 102.642 1073.95 101.993 1075.05 101.466C1076.95 100.52 1079.12 100.26 1081.19 100.731C1082.09 100.913 1082.95 101.183 1083.8 101.435C1084.06 101.505 1084.29 101.641 1084.48 101.831L1085.3 102.622C1085.84 103.134 1086.38 103.624 1086.93 104.093C1087.21 104.332 1087.48 104.558 1087.76 104.784C1088.5 105.413 1089.27 105.966 1090.04 106.487C1090.56 106.833 1091.08 107.16 1091.62 107.462C1092.15 107.763 1092.7 108.046 1093.26 108.31C1093.82 108.569 1094.39 108.8 1094.97 109.001C1098.61 110.258 1102.81 110.56 1108.03 109.366C1119.8 106.676 1118.05 99.2412 1124.58 93.2834C1124.97 92.9251 1125.4 92.5669 1125.87 92.2087C1128.2 90.5388 1130.79 89.2645 1133.53 88.4379C1133.96 88.2997 1134.4 88.1614 1134.85 88.0294C1135.18 87.9285 1135.52 87.9285 1135.85 88.0294C1135.93 88.0537 1136.01 88.0874 1136.09 88.13C1136.24 88.2059 1136.38 88.3056 1136.5 88.4253C1136.68 88.616 1136.82 88.849 1136.9 89.104C1137.74 91.907 1138.34 94.9802 1139.18 97.4501C1139.95 99.7503 1140.91 101.529 1142.43 102.088C1142.85 102.244 1143.3 102.304 1143.74 102.264C1143.83 102.27 1143.92 102.27 1144.01 102.264C1145.44 102.018 1146.91 102.018 1148.34 102.264C1148.61 102.317 1148.87 102.386 1149.12 102.472C1149.24 102.502 1149.36 102.542 1149.48 102.591C1149.69 102.679 1149.91 102.773 1150.11 102.874C1150.65 103.169 1151.16 103.532 1151.61 103.955L1152.02 104.338C1152.65 105.02 1153.43 105.564 1154.29 105.934C1155.63 106.418 1157.57 106.349 1161.13 105.004C1172.11 100.869 1173.88 100.021 1178.98 94.9866L1179.14 94.842L1179.32 94.7226C1179.61 94.5465 1179.86 94.3353 1180.09 94.0941C1181.9 92.303 1182.93 91.1466 1183.71 90.2731C1183.83 90.1411 1183.94 90.0153 1184.05 89.8959C1184.92 88.8825 1185.93 87.998 1187.06 87.269L1187.33 87.0867H1187.38L1187.6 86.9484H1187.69L1188.74 86.32C1191.46 84.6797 1193.21 83.8627 1194.96 83.3976C1195.18 83.3347 1195.4 83.2845 1195.62 83.2405C1197.46 82.924 1199.32 82.7267 1201.19 82.6497C1202.44 82.5308 1203.7 82.683 1204.88 83.0959C1205 83.1336 1205.12 83.1776 1205.22 83.2216L1205.54 83.3348C1205.82 83.4416 1206.08 83.5421 1206.34 83.6301C1207.73 84.0952 1209.27 84.2586 1212.86 82.6497C1215.24 81.624 1217.54 80.4115 1219.74 79.0235L1220.05 78.8286L1220.4 78.5961C1222.09 77.5214 1223.44 76.5033 1225.1 75.4098L1225.18 75.3595C1225.63 75.0641 1226.11 74.731 1226.63 74.4419H1226.73L1240.99 73.6375C1241.59 73.5998 1242.2 73.5935 1242.8 73.6375C1243.22 73.8967 1243.62 74.1844 1243.99 74.4985C1244.12 74.6053 1244.24 74.7185 1244.36 74.8316C1244.84 75.2839 1245.29 75.7804 1245.68 76.3148C1246.54 77.472 1247.56 78.506 1248.71 79.388L1249.26 79.8216L1250.25 80.5884L1250.72 80.9403C1251.32 81.3928 1251.85 81.7824 1252.33 82.1281C1252.69 82.392 1253.02 82.6309 1253.32 82.8445L1254.38 83.649C1254.74 83.933 1255.08 84.2394 1255.4 84.5665C1255.57 84.7441 1255.72 84.9308 1255.87 85.1259C1256.11 85.4787 1256.32 85.8532 1256.5 86.2446C1256.58 86.408 1256.65 86.5902 1256.72 86.7787C1256.79 86.9673 1256.87 87.1684 1256.95 87.4072C1257.4 88.727 1258.01 89.5315 1258.67 89.7828C1259.54 90.1222 1260.5 89.4874 1261.3 87.8094C1261.49 87.4324 1261.66 87.0239 1261.83 86.5525C1262.33 85.2076 1262.81 84.0764 1263.31 83.0331C1263.43 83.1085 1263.54 83.1965 1263.67 83.2907C1264.44 83.9815 1265.1 84.7871 1265.63 85.6789C1266.53 87.1443 1267.25 88.7174 1267.76 90.361C1268.54 92.7617 1269.02 95.1248 1269.58 96.8845C1270.05 98.3425 1270.61 99.3984 1271.48 99.7001C1271.98 99.8536 1272.53 99.8201 1273.01 99.6058C1276.56 98.2734 1276.34 93.6793 1277.68 90.8072C1277.73 90.6947 1277.78 90.5855 1277.85 90.4804C1278.12 89.9697 1278.49 89.5202 1278.94 89.1607C1279.03 89.0915 1279.12 89.0286 1279.2 88.9532C1279.36 88.8212 1279.52 88.6956 1279.65 88.5636C1281.72 86.7473 1281.24 85.8549 1283.89 85.6852C1285.72 85.5595 1286.91 85.4024 1288.06 85.7606L1288.29 85.836C1288.99 86.1153 1289.63 86.5201 1290.19 87.0302C1290.58 87.4141 1290.9 87.8653 1291.14 88.3625C1291.32 88.7082 1291.49 89.0915 1291.67 89.5C1291.95 90.1913 1292.23 90.9644 1292.51 91.7562C1293.59 94.7792 1294.66 98.1163 1296.16 98.5814C1298.69 99.3544 1300.23 93.4782 1301.27 90.5056C1301.9 88.7082 1303.21 86.2634 1305.26 87.0302C1305.43 87.0931 1305.59 87.1731 1305.74 87.269C1306.25 87.5706 1306.7 87.822 1307.11 88.0357C1307.39 88.1677 1307.65 88.2871 1307.89 88.3877C1308.13 88.4882 1308.35 88.5824 1308.56 88.6579L1308.88 88.7647C1309 88.8014 1309.12 88.8543 1309.23 88.9218C1312.78 91.1026 1318.21 95.8727 1321.53 105.689C1322.38 108.221 1323.02 110.814 1323.47 113.445C1323.48 113.544 1323.5 113.643 1323.52 113.74C1324.46 119.979 1324.67 126.306 1324.15 132.594C1324.09 133.405 1324.02 134.234 1323.94 135.108C1320.41 173.03 1314.63 184.807 1318.25 195.925C1318.63 197.088 1319.1 198.22 1319.66 199.312C1321.48 202.938 1323.74 205.006 1326.08 205.81C1331.77 207.765 1337.96 202.379 1339.89 193.87C1340.46 191.356 1339.4 187.453 1337.71 182.375C1337.63 182.142 1337.55 181.91 1337.47 181.677C1336.77 179.559 1335.96 177.278 1335.12 174.764C1335.03 174.488 1334.94 174.211 1334.85 173.935C1334.42 172.678 1334 171.379 1333.58 170.038C1333.54 169.931 1333.51 169.812 1333.47 169.705C1333.41 169.485 1333.34 169.265 1333.27 169.045L1333.1 168.48C1333.05 168.329 1333.01 168.184 1332.96 168.033C1332.92 167.882 1332.84 167.6 1332.77 167.405L1332.65 167.015C1332.58 166.776 1332.51 166.525 1332.44 166.28C1332.44 166.179 1332.38 166.079 1332.35 165.978C1332.27 165.708 1332.2 165.431 1332.11 165.161C1332.11 165.079 1332.07 164.998 1332.05 164.922L1331.8 164.036C1331.8 163.973 1331.77 163.911 1331.75 163.848C1331.68 163.559 1331.6 163.257 1331.52 162.962L1331.46 162.754C1331.38 162.453 1331.31 162.126 1331.23 161.843C1331.23 161.78 1331.23 161.717 1331.18 161.654C1331.1 161.34 1331.02 161.026 1330.94 160.693C1330.94 160.645 1330.94 160.596 1330.94 160.548C1330.86 160.221 1330.78 159.92 1330.7 159.562C1330.69 159.513 1330.68 159.464 1330.67 159.417C1330.59 159.078 1330.51 158.745 1330.43 158.399C1330.43 158.361 1330.43 158.317 1330.43 158.279L1330.21 157.236C1330.21 157.199 1330.21 157.161 1330.21 157.123C1330.13 156.765 1330.05 156.407 1329.98 156.048V155.96C1329.91 155.596 1329.84 155.231 1329.77 154.861V154.779C1329.7 154.408 1329.64 154.031 1329.57 153.66C1329.57 153.66 1329.57 153.61 1329.57 153.585C1329.5 153.208 1329.43 152.824 1329.37 152.441C1329.37 152.441 1329.37 152.403 1329.37 152.384C1329.31 152.001 1329.24 151.611 1329.19 151.216C1329.18 151.199 1329.18 151.182 1329.19 151.165C1329.12 150.776 1329.07 150.38 1329.01 149.984C1329.01 149.984 1329.01 149.984 1329.01 149.94C1328.95 149.537 1328.9 149.135 1328.85 148.727L1328.69 147.47C1326.74 130.25 1329.26 109.762 1344.87 88.0859C1345.07 87.8014 1345.35 87.5873 1345.68 87.4743C1346.01 87.3614 1346.37 87.3554 1346.7 87.4575L1347.49 87.7089C1348.09 87.9037 1348.68 88.0922 1349.3 88.3373L1351.07 88.9344C1351.97 89.2424 1352.88 89.5628 1353.8 89.8896C1354.25 90.053 1354.7 90.2039 1355.16 90.3548C1363.62 93.1556 1372.57 94.2312 1381.46 93.5174C1390.35 92.8037 1399 90.3151 1406.91 86.2005L1423.67 77.4649C1425.17 76.6796 1426.91 76.5124 1428.53 76.9998L1428.89 77.1192C1430.11 77.5535 1431.17 78.3419 1431.93 79.3817C1432.28 79.8759 1432.7 80.3127 1433.19 80.6764C1433.32 80.7703 1433.46 80.8563 1433.6 80.934C1433.83 81.0544 1434.06 81.1513 1434.3 81.2231C1436.2 81.7699 1439.13 80.8963 1444.5 77.2135C1445.84 76.2896 1446.99 76.2017 1447.91 76.5159C1448.43 76.7219 1448.91 77.0369 1449.31 77.4399C1449.7 77.8429 1450.01 78.3248 1450.2 78.8538C1450.2 78.9229 1450.25 78.9857 1450.26 79.0486C1450.31 79.2057 1450.35 79.3691 1450.41 79.5199C1450.51 79.8279 1450.63 80.1484 1450.76 80.4249C1450.83 80.5758 1450.9 80.7266 1450.98 80.8711C1451.19 81.3104 1451.44 81.7309 1451.72 82.1281C1452.17 82.7567 1452.71 83.3176 1453.32 83.7935C1453.66 84.0561 1454.03 84.2797 1454.42 84.4597C1454.54 84.5226 1454.68 84.5728 1454.8 84.6231C1454.97 84.6817 1455.13 84.7666 1455.26 84.8745C1459.69 88.3436 1467.53 95.6716 1471.19 106.18C1471.26 106.399 1471.34 106.619 1471.41 106.808C1473.53 113.306 1474.03 120.986 1471.14 129.691C1468.96 136.302 1469.03 141.719 1470.31 145.61C1471.43 149.06 1473.47 151.303 1475.73 152.12C1482.24 154.484 1490.33 144.881 1482.05 117.706C1481.98 117.448 1481.9 117.197 1481.83 116.945C1481.76 116.694 1481.67 116.436 1481.6 116.178C1481.47 115.682 1481.33 115.192 1481.21 114.708C1481.05 114.079 1480.9 113.451 1480.76 112.822C1480.65 112.351 1480.56 111.886 1480.47 111.434C1480.38 110.981 1480.3 110.522 1480.23 110.076C1480.13 109.448 1480.04 108.895 1479.97 108.323C1479.9 107.751 1479.84 107.185 1479.79 106.632L1479.73 105.865C1479.73 105.832 1479.73 105.798 1479.73 105.765C1479.73 105.507 1479.7 105.256 1479.7 105.004C1479.38 97.8775 1481.19 92.5544 1484.23 88.595C1484.37 88.4334 1484.54 88.3022 1484.73 88.2102C1484.93 88.1182 1485.13 88.0673 1485.35 88.0608C1486.4 87.9603 1487.28 86.2822 1488.73 84.3277C1488.84 84.1857 1488.97 84.0607 1489.11 83.9569C1490.14 83.237 1491.21 82.5861 1492.32 82.0087C1493.44 81.4371 1494.59 80.9272 1495.77 80.4815C1496.14 80.3432 1496.54 80.3432 1496.9 80.4815C1497.08 80.5481 1497.25 80.646 1497.4 80.7706C1499.6 82.5869 1501.8 85.88 1503.94 86.6719C1504.45 86.8733 1505 86.9049 1505.52 86.7617C1506.04 86.6186 1506.5 86.3087 1506.83 85.88C1508.31 84.3026 1507.74 82.832 1507.96 81.6191C1507.97 81.5573 1507.98 81.4963 1508 81.4368C1508.07 81.2121 1508.17 80.9998 1508.31 80.8083C1508.34 80.7505 1508.38 80.6976 1508.43 80.6512C1508.71 80.3614 1509.04 80.1269 1509.41 79.9599C1509.54 79.9021 1509.68 79.868 1509.82 79.8593L1515.35 79.5577C1517.84 79.3028 1520.28 78.7064 1522.6 77.7854C1523 77.6282 1523.43 77.5616 1523.86 77.5906H1524.13C1525.32 77.8322 1526.42 78.3636 1527.34 79.1366C1527.55 79.3 1527.78 79.476 1527.97 79.6519C1528.31 79.9222 1528.64 80.2176 1528.98 80.5192C1530.66 82.0191 1532.64 83.1555 1534.78 83.8564C1537.02 84.5993 1539.41 84.8365 1541.75 84.5507C1544.1 84.2648 1546.35 83.463 1548.35 82.2035L1550.97 80.5506C1554.62 78.2504 1558.12 78.2378 1561.83 79.4445C1563.1 79.8665 1564.33 80.3769 1565.52 80.9717C1566.66 81.5248 1570.29 84.2397 1573.69 87.646C1573.98 87.9414 1574.27 88.2368 1574.56 88.5448L1574.99 89.0098C1575.56 89.6383 1576.12 90.2668 1576.64 90.8952C1576.9 91.2158 1577.15 91.5237 1577.4 91.863C1578.41 93.3269 1579.21 94.9322 1579.75 96.6269V96.696C1588.49 124.6 1578.88 146.621 1582.01 159.882C1582.06 160.129 1582.13 160.372 1582.21 160.611C1582.56 161.747 1583.18 162.781 1584.02 163.625C1584.86 164.468 1585.89 165.095 1587.03 165.45C1591.18 166.764 1596.36 164.539 1597.03 159.078C1598.88 143.994 1582.54 114.815 1590.92 100.165C1595.73 98.3614 1600.32 98.4305 1604.53 98.4997C1607.37 98.55 1610.04 98.6002 1612.48 98.0723C1614.24 97.7238 1615.9 96.9754 1617.33 95.8852C1622.44 91.9196 1625.73 92.8749 1628.88 93.8238C1631.72 94.6848 1634.46 95.5458 1638.36 92.7931C1646.53 86.9861 1652.08 77.0124 1657.81 78.0934C1667.56 79.9285 1664.81 74.3226 1674.93 73.6941C1675.61 73.6458 1676.29 73.7225 1676.94 73.9203C1679.56 74.7311 1681.01 77.5215 1682.07 80.8335C1683.08 83.9758 1683.74 87.558 1684.71 90.3107C1685.49 92.5166 1686.46 94.1821 1687.98 94.6535C1688.36 94.7699 1688.76 94.8125 1689.16 94.7791C1689.24 94.7853 1689.33 94.7853 1689.42 94.7791C1691.12 94.4511 1692.87 94.52 1694.54 94.9803C1694.66 95.0106 1694.77 95.0505 1694.89 95.0996C1695.11 95.1876 1695.32 95.2882 1695.52 95.3825C1697.29 96.3189 1698 97.8272 1699.7 98.4431C1701.04 98.9271 1702.99 98.8579 1706.55 97.5129L1706.81 97.4187C1715.77 94.0313 1718.49 92.8623 1722.1 89.6571C1722.51 89.2926 1722.94 88.8967 1723.36 88.4631C1723.81 88.0357 1724.28 87.5706 1724.79 87.0678C1725.74 86.1188 1726.48 85.3459 1727.08 84.6986C1727.39 84.4535 1727.72 84.202 1728 83.9381V0H0ZM1243.11 73.4929C1243.04 73.4453 1242.98 73.4013 1242.9 73.361C1242.94 73.3814 1242.97 73.3983 1243 73.4112C1243.11 73.4595 1243.22 73.4893 1243.33 73.4992L1243.11 73.4929Z" fill="#E72A70"/>
</svg>