<svg width="1729" height="1261" viewBox="0 0 1729 1261" fill="none" xmlns="http://www.w3.org/2000/svg">
<path d="M1729 0H0.916748V1260.67H1729V0Z" fill="#2F2F30"/>
<path d="M1640.72 832.872C1640.72 832.872 1615.91 828.246 1618.88 843.383C1621.85 858.52 1621.14 909.836 1613.62 917.597C1606.1 925.358 1597.93 937.552 1604.99 946.61C1612.05 955.667 1615.02 962.675 1627.61 956.158C1640.19 949.641 1693.44 906.892 1682.39 883.206C1670.79 863.49 1656.7 846.47 1640.72 832.872Z" fill="#343434"/>
<path d="M1716.93 1164.57C1716.93 1164.57 1700.65 1139.89 1695.17 1153.8C1689.68 1167.71 1663.1 1205.69 1653.51 1205.1C1643.93 1204.5 1631.57 1206.67 1632.28 1219.51C1632.98 1232.36 1631.66 1240.19 1644.43 1246.04C1657.2 1251.89 1718.95 1265.31 1722.73 1238.09C1724.02 1213.33 1722.05 1188.48 1716.93 1164.57Z" fill="#343434"/>
<path d="M530.27 756.003C530.27 756.003 506.956 744.095 507.158 759.696C507.361 775.297 497.552 825.035 488.858 830.319C480.164 835.602 470.045 845.039 475.306 855.966C480.566 866.893 482.207 874.618 495.596 872.04C508.986 869.461 568.411 843.81 561.876 817.456C554.098 794.797 543.411 774.017 530.27 756.003Z" fill="#343434"/>
<path d="M1057.01 533.073C1057.01 533.073 1081.81 537.699 1078.84 522.562C1075.87 507.425 1076.57 456.109 1084.1 448.348C1091.64 440.587 1099.79 428.393 1092.73 419.335C1085.67 410.278 1082.69 403.27 1070.12 409.787C1057.55 416.304 1004.28 459.035 1015.33 482.792C1026.93 502.493 1041.02 519.495 1057.01 533.073Z" fill="#343434"/>
<path d="M1121.81 722.514C1121.81 722.514 1097.01 717.907 1099.98 733.026C1102.95 748.146 1102.25 799.479 1094.73 807.222C1087.21 814.966 1079.04 827.177 1086.1 836.235C1093.16 845.293 1096.13 852.318 1108.7 845.801C1121.27 839.284 1174.53 796.535 1163.49 772.849C1151.89 753.129 1137.8 736.109 1121.81 722.514Z" fill="#343434"/>
<path d="M1619.72 501.888C1619.72 501.888 1644.52 506.513 1641.55 491.376C1638.58 476.239 1639.28 424.924 1646.8 417.163C1654.32 409.401 1662.49 397.208 1655.45 388.15C1648.4 379.092 1645.4 372.084 1632.83 378.602C1620.26 385.119 1567 427.867 1578.04 451.554C1589.64 471.274 1603.73 488.294 1619.72 501.888Z" fill="#343434"/>
<path d="M515.015 396.524C515.015 396.524 539.83 401.132 536.846 386.013C533.862 370.893 534.591 319.578 542.112 311.816C549.632 304.055 557.8 291.861 550.739 282.804C543.678 273.746 540.707 266.721 528.138 273.238C515.568 279.755 462.306 322.468 473.391 346.138C484.967 365.87 499.041 382.908 515.015 396.524Z" fill="#343434"/>
<path d="M229.249 204.578C229.249 204.578 204.758 197.57 206.891 213.058C209.024 228.545 205.473 279.633 197.548 286.641C189.623 293.649 180.793 305.089 187.341 314.777C193.889 324.466 196.468 331.754 209.361 326.411C222.255 321.067 277.745 283.4 268.038 258.749C257.569 237.968 244.452 219.65 229.249 204.578Z" fill="#343434"/>
<path d="M1263.43 311.098C1263.43 311.098 1280.42 334.995 1285.49 320.804C1290.55 306.613 1316.05 267.422 1325.67 267.562C1335.28 267.702 1347.54 264.934 1346.47 252.127C1345.4 239.32 1346.47 231.436 1333.58 226.198C1320.68 220.959 1258.56 210.43 1255.59 237.901C1254.99 262.699 1257.64 287.45 1263.43 311.098Z" fill="#343434"/>
<path d="M528.745 1105.36C528.745 1105.36 503.93 1100.73 506.914 1115.87C509.897 1131.01 509.168 1182.32 501.648 1190.08C494.128 1197.84 485.96 1210.04 493.021 1219.09C500.082 1228.15 503.052 1235.16 515.635 1228.64C528.219 1222.13 581.454 1179.38 570.41 1155.69C558.819 1135.97 544.73 1118.95 528.745 1105.36Z" fill="#343434"/>
<path d="M1064.26 155.172C1064.26 155.172 1089.06 159.78 1086.09 144.661C1083.12 129.541 1083.82 78.2257 1091.34 70.4645C1098.86 62.7032 1107.03 50.5095 1099.97 41.4518C1092.91 32.3941 1089.94 25.3862 1077.37 31.9035C1064.8 38.4209 1011.53 81.1515 1022.58 104.856C1034.17 124.569 1048.27 141.584 1064.26 155.172Z" fill="#343434"/>
<path d="M807.409 1193.08C807.409 1193.08 806.059 1225.54 817.454 1220.34C828.849 1215.13 868.246 1211.47 874.875 1220.5C881.504 1229.52 891.603 1238.98 897.921 1229.05C904.24 1219.11 909.357 1214.64 903.227 1198.98C897.098 1183.32 859.537 1118.39 842.337 1134.7C828.231 1151.45 816.421 1171.19 807.409 1193.08Z" fill="#343434"/>
<path d="M1039.64 1173.47C1039.64 1173.47 1058.38 1195.06 1062.34 1180.29C1066.29 1165.52 1088.68 1123.23 1098.25 1122.14C1107.82 1121.05 1119.85 1116.71 1117.77 1104.09C1115.7 1091.48 1116.22 1083.51 1102.92 1079.95C1089.62 1076.4 1027.07 1073.96 1026.22 1101.62C1027.53 1126.39 1032.07 1150.68 1039.64 1173.47Z" fill="#343434"/>
<path d="M228.533 1251.16C225.833 1251.47 221.985 1255.19 217.854 1260.67H159.799C158.202 1250.77 157.137 1240.74 156.612 1230.66C157.449 1202.99 220.068 1205.41 233.299 1208.99C246.53 1212.56 246.071 1220.51 248.15 1233.13C250.229 1245.74 238.105 1250.16 228.533 1251.16Z" fill="#343434"/>
<path d="M1534.95 251.531C1534.95 251.531 1545.32 281.718 1553.38 270.26C1561.44 258.802 1594.53 232.102 1603.51 236.342C1612.48 240.581 1624.65 243.157 1626.63 230.42C1628.62 217.683 1631.49 210.587 1620.6 200.023C1609.7 189.459 1553.88 152.912 1544.7 177.966C1538.32 201.614 1535.02 226.477 1534.95 251.531Z" fill="#343434"/>
<path d="M544.285 240.248C544.285 240.248 554.654 270.435 562.714 258.994C570.774 247.554 603.866 220.819 612.844 225.059C621.822 229.299 633.987 231.874 635.972 219.137C637.956 206.4 640.832 199.305 629.937 188.758C619.041 178.211 563.214 141.63 554.033 166.683C547.668 190.336 544.374 215.195 544.285 240.248Z" fill="#343434"/>
<path d="M1685.92 935.274C1699.54 927.022 1724.65 974.781 1723.84 998.24C1723.03 1021.7 1700.77 1007.37 1700.77 1007.37C1700.77 1007.37 1635.56 966.547 1685.92 935.274Z" fill="#343434"/>
<path d="M581.211 829.893C594.847 821.659 619.959 869.4 619.149 892.877C618.339 916.353 596.062 902.004 596.062 902.004C596.062 902.004 530.851 861.218 581.211 829.893Z" fill="#343434"/>
<path d="M1011.8 430.67C998.168 438.922 973.069 391.163 973.879 367.704C974.689 344.246 996.952 358.577 996.952 358.577C996.952 358.577 1062.16 399.398 1011.8 430.67Z" fill="#343434"/>
<path d="M1168.88 851.407C1182.51 843.191 1207.61 890.932 1206.8 914.479C1205.99 938.025 1183.73 923.606 1183.73 923.606C1183.73 923.606 1118.52 882.698 1168.88 851.407Z" fill="#343434"/>
<path d="M1108.57 1138.24C1122.2 1130.01 1147.32 1177.75 1146.51 1201.31C1145.69 1224.88 1123.42 1210.42 1123.42 1210.42C1123.42 1210.42 1058.21 1169.57 1108.57 1138.24Z" fill="#343434"/>
<path d="M1524.46 335.205C1510.82 343.44 1485.72 295.698 1486.53 272.239C1487.34 248.78 1509.61 263.112 1509.61 263.112C1509.61 263.112 1574.82 303.933 1524.46 335.205Z" fill="#343434"/>
<path d="M562.757 681.03C577.892 680.989 586.854 737.551 578.998 758.317C571.142 779.083 554.811 754.066 554.811 754.066C554.811 754.066 506.567 681.979 562.757 681.03Z" fill="#343434"/>
<path d="M985.085 584.056C974.595 569.882 999.937 522.404 1016.93 515.431C1033.93 508.458 1031.26 541.062 1031.26 541.062C1031.26 541.062 1024.39 636.107 985.085 584.056Z" fill="#343434"/>
<path d="M1185.87 624.071C1197.62 636.335 1176.94 687.72 1160.79 697.444C1144.64 707.167 1144.14 674.388 1144.14 674.388C1144.14 674.388 1141.91 578.958 1185.87 624.071Z" fill="#343434"/>
<path d="M1397.14 1170.55C1408.89 1182.81 1388.19 1234.18 1372.04 1243.9C1355.89 1253.63 1355.4 1220.86 1355.4 1220.86C1355.4 1220.86 1353.18 1125.42 1397.14 1170.55Z" fill="#343434"/>
<path d="M1555.66 600.332C1543.91 588.068 1564.6 536.7 1580.76 526.977C1596.92 517.253 1597.39 550.015 1597.39 550.015C1597.39 550.015 1599.62 645.463 1555.66 600.332Z" fill="#343434"/>
<path d="M1628.54 1093.9C1642.17 1085.66 1667.27 1133.41 1666.46 1156.86C1665.65 1180.32 1643.39 1165.99 1643.39 1165.99C1643.39 1165.99 1578.18 1125.17 1628.54 1093.9Z" fill="#343434"/>
<path d="M523.831 988.517C537.467 980.3 562.579 1028.04 561.769 1051.59C560.959 1075.13 538.682 1060.72 538.682 1060.72C538.682 1060.72 473.471 1019.81 523.831 988.517Z" fill="#343434"/>
<path d="M1069.18 272.047C1055.55 280.281 1030.45 232.54 1031.25 209.081C1032.04 185.622 1054.33 199.953 1054.33 199.953C1054.33 199.953 1119.54 240.774 1069.18 272.047Z" fill="#343434"/>
<path d="M1070.01 984.698C1083.64 976.463 1108.74 1024.2 1107.95 1047.66C1107.15 1071.12 1084.86 1056.79 1084.86 1056.79C1084.86 1056.79 1019.65 1015.97 1070.01 984.698Z" fill="#343434"/>
<path d="M1671.53 239.723C1657.9 247.957 1632.79 200.198 1633.6 176.739C1634.41 153.28 1656.69 167.611 1656.69 167.611C1656.69 167.611 1721.88 208.432 1671.53 239.723Z" fill="#343434"/>
<path d="M661.718 188.88C648.082 197.115 622.97 149.356 623.78 125.897C624.59 102.438 646.867 116.769 646.867 116.769C646.867 116.769 712.078 157.59 661.718 188.88Z" fill="#343434"/>
<path d="M837.652 92.4342C824.029 100.668 798.917 52.9096 799.727 29.4507C800.537 5.99175 822.801 20.2704 822.801 20.2704C822.801 20.2704 888.011 61.1439 837.652 92.4342Z" fill="#343434"/>
<path d="M1301.53 1164.31C1315.16 1156.08 1340.27 1203.82 1339.46 1227.28C1338.65 1250.73 1316.38 1236.4 1316.38 1236.4C1316.38 1236.4 1251.17 1195.6 1301.53 1164.31Z" fill="#343434"/>
<path d="M1370.89 209.851C1357.27 218.086 1332.16 170.344 1332.97 146.885C1333.78 123.427 1356.06 137.758 1356.06 137.758C1356.06 137.758 1421.27 178.579 1370.89 209.851Z" fill="#343434"/>
<path d="M1403.25 731.955C1416.89 723.721 1441.99 771.462 1441.19 794.921C1440.4 818.38 1418.11 804.049 1418.11 804.049C1418.11 804.049 1352.9 763.228 1403.25 731.955Z" fill="#343434"/>
<path d="M1685.92 777.124C1699.54 768.889 1724.65 816.648 1723.84 840.195C1723.03 863.741 1700.77 849.305 1700.77 849.305C1700.77 849.305 1635.56 808.326 1685.92 777.124Z" fill="#343434"/>
<path d="M1345.01 541.588C1331.39 549.822 1306.28 502.081 1307.09 478.622C1307.9 455.163 1330.17 469.494 1330.17 469.494C1330.17 469.494 1395.39 510.315 1345.01 541.588Z" fill="#343434"/>
<path d="M921.17 615.732C934.806 607.498 959.905 655.256 959.109 678.715C958.312 702.174 936.022 687.843 936.022 687.843C936.022 687.843 870.811 647.022 921.17 615.732Z" fill="#343434"/>
<path d="M1704.7 691.014C1691.06 699.248 1665.96 651.49 1666.76 627.943C1667.56 604.396 1689.85 618.815 1689.85 618.815C1689.85 618.815 1755.02 659.741 1704.7 691.014Z" fill="#343434"/>
<path d="M1482.21 1252.42C1468.58 1260.65 1443.48 1212.91 1444.29 1189.45C1445.1 1165.99 1467.36 1180.32 1467.36 1180.32C1467.36 1180.32 1532.57 1221.14 1482.21 1252.42Z" fill="#343434"/>
<path d="M599.95 585.633C586.328 593.867 561.215 546.126 562.025 522.667C562.836 499.208 585.113 513.539 585.113 513.539C585.113 513.539 650.256 554.36 599.95 585.633Z" fill="#343434"/>
<path d="M1155.73 156.486C1142.09 164.721 1116.99 116.979 1117.8 93.5204C1118.61 70.0615 1140.87 84.3926 1140.87 84.3926C1140.87 84.3926 1206.09 125.214 1155.73 156.486Z" fill="#343434"/>
<path d="M1078.77 1260.67H1035.9C1028.23 1246.93 1022.4 1229.57 1022.78 1218.06C1023.59 1194.6 1045.85 1208.93 1045.85 1208.93C1045.85 1208.93 1086.69 1234.49 1078.77 1260.67Z" fill="#343434"/>
<path d="M983.465 1100.26C997.087 1092.02 1022.2 1139.76 1021.39 1163.24C1020.58 1186.72 998.316 1172.35 998.316 1172.35C998.316 1172.35 933.105 1131.53 983.465 1100.26Z" fill="#343434"/>
<path d="M717.073 615.714C703.437 623.948 678.338 576.19 679.135 552.731C679.931 529.272 702.222 543.603 702.222 543.603C702.222 543.603 767.432 584.406 717.073 615.714Z" fill="#343434"/>
<path d="M27.8515 867.455C20.2638 872.046 9.12534 859.291 0.849121 843.033V791.139C5.06503 791.613 9.18089 793.067 13.0002 795.432C13.0002 795.432 78.2514 836.183 27.8515 867.455Z" fill="#343434"/>
<path d="M650.067 865.844C660.544 851.425 684.171 884.169 682.092 894.979C680.012 905.789 672.546 934.188 663.851 930.123C655.157 926.059 637.74 882.4 650.067 865.844Z" fill="#343434"/>
<path d="M942.948 394.737C932.484 409.156 908.857 376.412 910.923 365.602C912.989 354.792 920.468 326.375 929.163 330.458C937.858 334.54 955.274 378.164 942.948 394.737Z" fill="#343434"/>
<path d="M1222.88 807.713C1233.34 793.277 1256.97 826.039 1254.91 836.848C1252.84 847.658 1245.36 876.058 1236.65 871.975C1227.94 867.893 1210.55 824.269 1222.88 807.713Z" fill="#343434"/>
<path d="M1494.61 390.477C1484.13 404.896 1460.51 372.152 1462.59 361.342C1464.67 350.532 1472.13 322.133 1480.83 326.197C1489.52 330.262 1506.94 373.904 1494.61 390.477Z" fill="#343434"/>
<path d="M1722.25 327.321C1711.77 341.74 1688.14 308.996 1690.22 298.186C1692.3 287.376 1699.77 258.959 1708.46 263.042C1717.16 267.124 1734.58 310.748 1722.25 327.321Z" fill="#343434"/>
<path d="M1043.86 725.458C1054.32 711.022 1077.95 743.784 1075.88 754.593C1073.81 765.403 1066.34 793.802 1057.64 789.72C1048.95 785.638 1031.52 742.084 1043.86 725.458Z" fill="#343434"/>
<path d="M592.984 393.581C582.507 408.017 558.88 375.255 560.959 364.446C563.038 353.636 570.504 325.237 579.199 329.406C587.894 333.576 605.31 377.025 592.984 393.581Z" fill="#343434"/>
<path d="M1601.13 1071.89C1607.96 1089.75 1576.83 1108.47 1569.79 1102.31C1562.76 1096.14 1544.97 1077.45 1550.78 1067.95C1556.6 1058.46 1593.38 1051.03 1601.13 1071.89Z" fill="#343434"/>
<path d="M1096.59 294.052C1089.76 276.216 1120.89 257.488 1127.93 263.637C1134.96 269.787 1152.74 288.498 1146.98 298.011C1141.21 307.524 1104.34 314.918 1096.59 294.052Z" fill="#343434"/>
<path d="M1517.03 812.058C1523.86 829.893 1492.73 848.622 1485.69 842.472C1478.66 836.323 1460.88 817.612 1466.64 808.098C1472.41 798.585 1509.23 791.139 1517.03 812.058Z" fill="#343434"/>
<path d="M1180.74 553.887C1173.9 536.052 1205.05 517.323 1212.08 523.473C1219.11 529.622 1236.9 548.333 1231.13 557.864C1225.37 567.395 1188.49 574.753 1180.74 553.887Z" fill="#343434"/>
<path d="M978.334 719.922C971.489 702.086 1002.64 683.358 1009.67 689.507C1016.7 695.657 1034.49 714.368 1028.71 723.899C1022.93 733.429 986.016 740.788 978.334 719.922Z" fill="#343434"/>
<path d="M1096.9 576.102C1090.07 558.267 1121.2 539.538 1128.24 545.688C1135.27 551.837 1153.05 570.548 1147.29 580.079C1141.52 589.61 1104.65 596.968 1096.9 576.102Z" fill="#343434"/>
<path d="M969.788 653.066C962.943 635.231 994.09 616.503 1001.12 622.652C1008.16 628.801 1025.94 647.477 1020.19 657.043C1014.44 666.609 977.538 673.95 969.788 653.066Z" fill="#343434"/>
<path d="M1042.6 962.693C1049.43 980.545 1018.3 999.274 1011.26 993.107C1004.23 986.94 986.435 968.246 992.214 958.733C997.992 949.22 1034.85 941.809 1042.6 962.693Z" fill="#343434"/>
<path d="M662.218 234.519C655.386 216.684 686.52 197.956 693.568 204.105C700.615 210.255 718.383 228.966 712.604 238.496C706.826 248.027 669.968 255.385 662.218 234.519Z" fill="#343434"/>
<path d="M1660.59 1003.76C1645.94 1011.84 1633.22 1011.35 1633.33 1025.38C1633.44 1039.41 1626.09 1050.06 1635.38 1059.24C1644.67 1068.42 1655.22 1077.27 1663.21 1051.83C1665.44 1044 1666.36 1035.64 1665.91 1027.31C1665.45 1019.05 1663.64 1011.02 1660.59 1003.76Z" fill="#343434"/>
<path d="M546.07 905.981C538.704 924.29 528.64 934.365 535.588 945.142C542.535 955.92 542.085 970.165 553.745 969.591C565.404 969.017 577.897 967.193 571.615 940.965C569.514 933.069 566.133 925.848 561.7 919.791C557.314 913.785 551.983 909.076 546.07 905.981Z" fill="#343434"/>
<path d="M1037.13 362.186C1051.78 354.109 1064.5 354.6 1064.39 340.566C1064.28 326.533 1071.63 315.881 1062.33 306.701C1053.02 297.52 1042.51 288.673 1034.51 314.112C1032.28 321.945 1031.36 330.307 1031.81 338.639C1032.27 346.891 1034.08 354.92 1037.13 362.186Z" fill="#343434"/>
<path d="M1102.06 894.506C1087.41 902.6 1074.69 902.092 1074.8 916.125C1074.91 930.159 1067.56 940.811 1076.85 949.991C1086.14 959.171 1096.69 968.036 1104.68 942.58C1106.91 934.747 1107.83 926.385 1107.38 918.053C1106.92 909.801 1105.11 901.773 1102.06 894.506Z" fill="#343434"/>
<path d="M976.62 1182.29C961.971 1190.36 949.253 1189.87 949.347 1203.9C949.442 1217.94 942.124 1228.59 951.413 1237.77C960.702 1246.95 971.246 1255.82 979.225 1230.36C981.465 1222.57 982.392 1214.25 981.943 1205.96C981.493 1197.66 979.678 1189.59 976.62 1182.29Z" fill="#343434"/>
<path d="M1639.47 329.844C1654.12 321.768 1666.84 322.276 1666.73 308.225C1666.62 294.174 1673.97 283.54 1664.68 274.377C1655.39 265.214 1644.85 256.331 1636.87 281.77C1634.64 289.561 1633.72 297.882 1634.16 306.173C1634.61 314.464 1636.42 322.535 1639.47 329.844Z" fill="#343434"/>
<path d="M610.697 308.12C625.346 300.043 638.105 300.586 637.97 286.57C637.835 272.555 645.193 261.868 635.904 252.705C626.615 243.542 616.071 234.659 608.092 260.098C605.861 267.89 604.94 276.21 605.389 284.501C605.838 292.792 607.648 300.863 610.697 308.172V308.12Z" fill="#343434"/>
<path d="M706.515 946.557C706.083 944.209 694.364 915.652 704.679 914.811C714.994 913.97 737.082 913.182 738.202 920.838C739.323 928.494 753.877 941.459 737.635 946.978C727.389 950.116 716.709 949.972 706.515 946.557Z" fill="#343434"/>
<path d="M886.527 314.024C886.959 316.372 898.678 344.911 888.363 345.77C878.048 346.628 855.96 347.399 854.853 339.743C853.746 332.087 839.165 319.122 855.406 313.604C865.652 310.456 876.334 310.601 886.527 314.024Z" fill="#343434"/>
<path d="M1252.69 942.72C1252.26 940.373 1240.54 911.833 1250.86 910.975C1261.17 910.116 1283.26 909.345 1284.37 917.019C1285.47 924.693 1300.05 937.64 1283.81 943.158C1273.57 946.3 1262.88 946.149 1252.69 942.72Z" fill="#343434"/>
<path d="M1530.9 413.721C1531.33 416.069 1543.05 444.626 1532.73 445.484C1522.42 446.343 1500.33 447.096 1499.22 439.44C1498.12 431.784 1483.53 418.819 1499.79 413.301C1510.03 410.161 1520.71 410.306 1530.9 413.721Z" fill="#343434"/>
<path d="M1555.74 1177.08C1555.31 1174.73 1543.59 1146.19 1553.89 1145.34C1564.19 1144.48 1586.29 1143.71 1587.41 1151.36C1588.53 1159.02 1603.1 1171.98 1586.86 1177.5C1576.61 1180.65 1565.93 1180.5 1555.74 1177.08Z" fill="#343434"/>
<path d="M1141.98 188.863C1142.41 191.211 1154.13 219.75 1143.82 220.626C1133.5 221.502 1111.42 222.238 1110.31 214.582C1109.2 206.926 1094.62 193.961 1110.86 188.443C1121.11 185.295 1131.79 185.44 1141.98 188.863Z" fill="#343434"/>
<path d="M997.236 1067.95C996.804 1065.6 985.085 1037.06 995.4 1036.21C1005.71 1035.35 1027.8 1034.58 1028.91 1042.23C1030.02 1049.89 1044.58 1062.85 1028.34 1068.39C1018.1 1071.53 1007.42 1071.38 997.236 1067.95Z" fill="#343434"/>
<path d="M782.918 615.084C783.35 617.431 795.069 645.971 784.755 646.829C774.44 647.688 752.352 648.441 751.245 640.802C750.138 633.164 735.57 620.164 751.812 614.646C762.054 611.504 772.732 611.655 782.918 615.084Z" fill="#343434"/>
<path d="M807.194 337.378C807.626 339.725 819.345 368.265 809.03 369.123C798.715 369.982 776.627 370.753 775.52 363.097C774.413 355.441 759.831 342.476 776.073 336.957C786.319 333.81 797.001 333.955 807.194 337.378Z" fill="#343434"/>
<path d="M102.459 628.416C102.891 630.764 114.61 659.303 104.309 660.162C94.0073 661.02 71.9058 661.791 70.7852 654.135C69.6646 646.479 55.1104 633.497 71.3523 627.978C81.5941 624.837 92.2721 624.987 102.459 628.416Z" fill="#343434"/>
<path d="M1399.23 690.882C1398.81 688.534 1387.08 659.995 1397.4 659.136C1407.71 658.278 1429.8 657.507 1430.92 665.163C1432.04 672.819 1446.6 685.784 1430.35 691.302C1420.11 694.449 1409.43 694.305 1399.23 690.882Z" fill="#343434"/>
<path d="M1293.56 529.324C1293.99 531.672 1305.71 560.212 1295.4 561.07C1285.08 561.928 1262.99 562.699 1261.89 555.043C1260.78 547.387 1246.2 534.405 1262.44 528.886C1272.69 525.745 1283.37 525.895 1293.56 529.324Z" fill="#343434"/>
<path d="M1323.87 619.551C1322.4 619.726 1303.79 628.819 1304.4 617.799C1305.01 606.779 1306.95 583.285 1311.72 582.97C1316.48 582.654 1325.94 568.779 1327.52 586.649C1328.31 597.836 1327.06 609.108 1323.87 619.551Z" fill="#343434"/>
<path d="M1427.92 945.05C1427.49 942.72 1415.77 914.163 1426.09 913.304C1436.4 912.446 1458.49 911.693 1459.61 919.331C1460.73 926.97 1475.29 939.97 1459.04 945.488C1448.8 948.63 1438.11 948.479 1427.92 945.05Z" fill="#343434"/>
<path d="M1285.72 427.114C1286.16 429.462 1297.87 458.001 1287.57 458.86C1277.26 459.718 1255.16 460.489 1254.04 452.833C1252.92 445.177 1238.37 432.212 1254.61 426.694C1264.85 423.547 1275.53 423.691 1285.72 427.114Z" fill="#343434"/>
<path d="M914.015 903.266C913.583 900.918 901.864 872.378 912.165 871.52C922.466 870.661 944.568 869.891 945.688 877.547C946.809 885.203 961.363 898.167 945.121 903.686C934.881 906.833 924.203 906.689 914.015 903.266Z" fill="#343434"/>
<path d="M667.591 584.564C668.023 586.912 679.742 615.469 669.441 616.327C659.14 617.186 637.038 617.939 635.918 610.283C634.797 602.627 620.243 589.662 636.485 584.143C646.726 581.004 657.403 581.148 667.591 584.564Z" fill="#343434"/>
<path d="M591.269 803.403C596.805 805.155 599.734 799.058 601.3 802.072C602.867 805.085 599.95 811.602 602.178 814.02C604.406 816.438 606.701 820.572 609.185 818.12C611.669 815.667 615.936 812.023 615.936 812.023C615.936 812.023 616.179 824.427 617.907 822.184C619.635 819.942 629.653 811.112 629.761 800.057C629.869 789.002 634.054 759.937 634.054 759.937C634.054 759.937 644.855 785.883 653.348 784.78C661.84 783.676 669.09 771.36 672.425 766.384C675.759 761.408 687.884 744.922 687.884 744.922C687.884 744.922 686.115 807.152 683.901 812.145C681.687 817.139 682.064 843.839 682.767 849.27C683.469 854.701 687.33 858.625 690.152 856.541C692.973 854.456 698.82 847.097 704.368 855.016C709.917 862.935 705.368 863.251 718.801 849.042C732.235 834.834 738.027 851.074 744.453 833.905C750.88 816.736 755.416 823.183 747.613 816.052C739.809 808.922 712.51 810.919 718.113 796.5C723.716 782.082 727.658 775.599 736.731 777.702C744.201 779.546 751.93 778.29 758.819 774.11C765.488 770.501 767.054 770.221 764.219 766.104C761.384 761.986 765.218 760.48 769.147 758.465C773.076 756.45 779.665 757.729 769.147 752.018C758.63 746.306 738.648 747.778 747.316 737.056C755.983 726.334 769.012 722.952 784.849 726.124C800.686 729.295 808.76 724.126 806.451 719.939C804.142 715.752 795.353 711.267 801.239 710.128C807.126 708.989 820.735 713.72 816.172 708.814C811.608 703.909 757.968 682.044 751.177 688.649C744.386 695.254 715.223 771.289 715.115 750.616C715.007 729.943 720.151 646.759 703.288 655.904C686.425 665.05 677.069 701.648 674.315 708.919C671.561 716.19 659.342 744.519 657.83 730.889C656.318 717.259 661.583 652.506 647.704 647.933C633.825 643.36 623.847 672.005 623.847 672.005C623.847 672.005 617.286 712.3 613.046 728.664C608.807 745.027 583.938 801.108 591.269 803.403Z" fill="#343434"/>
<path d="M1001.75 457.196C996.224 455.444 993.28 461.523 991.714 458.527C990.148 455.531 993.064 448.996 990.837 446.579C988.609 444.161 986.327 440.009 983.83 442.461C981.332 444.914 977.079 448.576 977.079 448.576C977.079 448.576 976.822 436.172 975.108 438.414C973.393 440.657 963.348 449.469 963.254 460.542C963.159 471.614 958.987 500.644 958.987 500.644C958.987 500.644 948.105 474.68 939.64 475.784C931.175 476.888 923.884 489.222 920.563 494.197C917.242 499.173 905.104 515.641 905.104 515.641C905.104 515.641 906.873 453.429 909.074 448.436C911.274 443.443 910.923 416.742 910.221 411.311C909.519 405.88 905.658 401.956 902.836 404.041C900.014 406.125 894.155 413.484 888.606 405.565C883.057 397.646 887.62 397.313 874.173 411.539C860.726 425.765 854.947 409.507 848.521 426.676C842.094 443.845 837.571 437.398 845.362 444.529C853.152 451.659 880.465 449.662 874.862 464.063C869.259 478.464 865.33 484.982 856.243 482.879C848.773 481.035 841.044 482.292 834.156 486.471C827.499 490.08 825.933 490.36 828.755 494.478C831.577 498.595 827.769 500.101 823.841 502.099C819.912 504.096 813.323 502.834 823.841 508.546C834.358 514.257 854.34 512.786 845.686 523.525C837.031 534.265 824.016 537.629 808.22 534.44C792.423 531.251 784.309 536.437 786.618 540.642C788.927 544.847 797.716 549.402 791.829 550.453C785.943 551.504 772.334 546.862 776.978 551.75C781.622 556.638 835.168 578.537 841.973 571.932C848.777 565.327 877.913 489.292 878.021 509.965C878.129 530.638 872.998 613.822 889.848 604.659C906.697 595.496 916.067 558.933 918.821 551.662C921.576 544.391 933.673 516.079 935.131 529.675C936.589 543.27 931.378 608.058 945.27 612.631C959.163 617.203 969.14 588.488 969.14 588.488C969.14 588.488 975.702 548.193 979.941 531.847C984.181 515.501 1009.08 459.473 1001.75 457.196Z" fill="#343434"/>
<path d="M1729 476.064C1720.9 472.771 1711.3 462.224 1711.3 462.224C1711.3 462.224 1715.57 491.219 1718.58 501.573C1721.59 511.927 1714.71 524.892 1713.74 527.853C1712.77 530.814 1709.06 519.321 1709.06 519.321C1709.06 519.321 1706.16 524.717 1704.52 528.186C1702.89 531.654 1699.54 528.886 1696.84 527.677C1694.14 526.469 1694.99 519.005 1692.67 516.955C1690.35 514.906 1689.33 521.931 1683.7 522.947C1676.24 524.296 1683.7 460.297 1683.05 443.11C1682.41 425.923 1677.18 385.294 1677.18 385.294C1677.18 385.294 1678.42 353.847 1692.64 351.534C1706.86 349.221 1720.13 412.012 1725.35 423.996C1726.7 427.062 1727.91 427.237 1729 425.748V476.064Z" fill="#343434"/>
<path d="M480.033 -1.85163e-06C465.182 8.95259 440.731 28.0316 435.331 28.7149C430.956 29.3105 418.805 15.0144 407.842 -1.85163e-06H480.033Z" fill="#343434"/>
<path d="M569.735 86.2322C559.676 97.4273 538.101 127.701 538.101 127.701C538.101 127.701 518.174 145.694 508.061 132.537C497.949 119.38 528.057 67.2758 532.161 54.574C536.265 41.8722 514.609 58.078 509.317 62.4754C504.024 66.8729 481.572 92.0488 463.494 88.7551C445.416 85.4613 482.058 18.5184 490.564 -1.85163e-06H523.412C517.242 11.9134 511.923 22.5479 511.923 22.5479C511.923 22.5479 528.853 16.451 533.673 14.4188C538.493 12.3865 549.618 6.62246 557.327 11.3178C565.036 16.0131 564.078 45.5163 564.078 45.5163C564.078 45.5163 579.132 23.3713 583.587 13.9808C588.042 4.59017 600.139 3.66163 602.489 2.87324C604.838 2.08485 600.166 12.9121 600.166 12.9121C600.166 12.9121 605.243 12.5792 608.348 12.1412C611.453 11.7032 611.885 16.7664 612.79 20.2703C613.695 23.7743 608.659 27.4885 608.821 31.1151C608.983 34.7417 613.897 31.5005 617.961 36.6338C623.361 43.5015 579.793 75.0371 569.735 86.2322Z" fill="#343434"/>
<path d="M33.684 294.63C35.0341 301.795 40.5021 302.426 39.152 305.614C37.8019 308.803 32.0233 308.453 31.3483 312.062C30.6732 315.671 28.9046 320.261 31.7263 322.031C34.5481 323.8 38.963 327.006 38.963 327.006C38.963 327.006 30.5517 332.945 32.8874 333.874C35.2231 334.802 45.8216 342.424 53.4632 337.5C61.1049 332.577 82.9228 324.203 82.9228 324.203C82.9228 324.203 70.0562 348.573 74.6736 357.858C79.291 367.144 91.0505 369.965 95.9784 371.541C100.906 373.118 117.742 379.653 117.742 379.653C117.742 379.653 74.228 405.933 69.7996 405.635C65.3713 405.337 47.2122 417.899 43.7964 421.192C40.3806 424.486 39.449 430.723 42.1762 433.036C44.9035 435.348 52.5856 438.765 49.6829 448.803C46.7801 458.842 44.4714 453.691 60.3488 462.819C76.2262 471.947 67.6935 485.98 82.3962 485.595C97.099 485.209 94.7498 493.304 96.0864 481.04C97.423 468.776 83.6789 438.204 96.0864 438.064C108.494 437.924 114.772 439.57 117.459 451.011C119.593 460.485 123.972 468.846 129.974 474.908C135.483 480.97 136.387 482.652 137.913 477.483C139.439 472.315 142.233 476.082 145.393 479.708C148.552 483.335 150.685 491.534 149.821 476.8C148.957 462.066 138.872 439.623 150.172 444.756C161.473 449.89 169.722 463.415 174.744 483.177C179.767 502.939 186.99 509.895 188.826 505.34C190.662 500.785 189.731 488.573 193.187 494.828C196.643 501.082 199.586 518.988 200.869 511.489C202.152 503.991 192.768 432.055 185.154 427.202C177.539 422.349 112.085 423.225 126.235 413.764C140.384 404.303 199.789 372.417 185.815 357.035C171.842 341.653 142.503 347.522 136.266 347.644C130.028 347.767 105.011 346.523 113.678 338.587C122.346 330.65 169.182 307.279 166.009 289.163C162.836 271.048 138.561 272.555 138.561 272.555C138.561 272.555 107.873 283.329 94.7768 285.87C81.6807 288.41 31.9018 285.116 33.684 294.63Z" fill="#343434"/>
<path d="M1378.06 636.475C1372.47 635.248 1369.84 641.538 1368.13 638.682C1366.41 635.827 1368.95 629.064 1366.66 626.839C1364.36 624.614 1361.82 620.672 1359.46 623.335C1357.1 625.998 1353.06 630.028 1353.06 630.028C1353.06 630.028 1352.2 617.676 1350.59 620.059C1348.98 622.442 1339.41 632.112 1339.87 643.167C1340.33 654.222 1337.6 683.463 1337.6 683.463C1337.6 683.463 1325.45 658.497 1317.05 660.354C1308.65 662.211 1302.01 675.123 1298.93 680.362C1295.86 685.6 1284.57 703.138 1284.57 703.138C1284.57 703.138 1283.22 640.89 1285.2 635.722C1287.19 630.553 1285.47 603.941 1284.5 598.58C1283.53 593.219 1279.48 589.645 1276.78 591.975C1274.08 594.305 1268.58 602.136 1262.66 594.725C1256.73 587.314 1261.31 586.579 1248.55 601.943C1235.79 617.308 1229.27 601.576 1223.71 619.27C1218.14 636.965 1213.3 630.921 1221.44 637.351C1229.58 643.781 1256.65 639.436 1251.84 654.292C1247.04 669.149 1243.36 675.999 1234.2 674.685C1226.65 673.498 1219 675.423 1212.34 680.187C1205.87 684.356 1204.32 684.794 1207.37 688.649C1210.42 692.503 1206.64 694.343 1202.82 696.69C1199 699.038 1192.37 698.337 1203.13 703.12C1213.89 707.903 1233.76 704.697 1225.66 716.155C1217.56 727.613 1204.71 732.115 1188.74 730.328C1172.77 728.541 1164.98 734.393 1167.47 738.387C1169.97 742.382 1178.98 746.078 1173.17 747.725C1167.36 749.372 1153.54 745.833 1158.32 750.318C1163.1 754.803 1217.72 771.973 1224.16 764.807C1230.6 757.641 1255.93 679.206 1257.07 699.826C1258.2 720.447 1257.2 803.911 1273.56 793.312C1289.93 782.712 1297.46 745.395 1299.85 737.897C1302.24 730.398 1313.03 701.105 1315.22 714.525C1317.4 727.945 1315.36 793.066 1329.43 796.43C1343.5 799.794 1352.06 770.256 1352.06 770.256C1352.06 770.256 1356.6 729.435 1360 712.791C1363.4 696.147 1385.5 638.104 1378.06 636.475Z" fill="#343434"/>
<path d="M1385.1 595.251C1390.09 596.337 1392.44 590.731 1393.97 593.289C1395.49 595.847 1393.23 601.856 1395.32 603.801C1397.41 605.745 1399.63 609.284 1401.73 606.919C1403.84 604.554 1407.43 600.963 1407.43 600.963C1407.43 600.963 1408.2 611.965 1409.63 609.845C1411.06 607.725 1419.59 599.105 1419.2 589.259C1418.81 579.413 1421.21 553.291 1421.21 553.291C1421.21 553.291 1432.01 575.506 1439.51 573.877C1447 572.248 1452.91 560.702 1455.71 556.042C1458.5 551.382 1468.51 535.771 1468.51 535.771C1468.51 535.771 1469.68 591.221 1467.94 595.829C1466.2 600.437 1467.71 624.124 1468.56 628.924C1469.41 633.724 1473.03 636.878 1475.45 634.793C1477.86 632.708 1482.74 625.735 1488.03 632.34C1493.32 638.945 1489.27 639.594 1500.59 625.911C1511.9 612.228 1517.77 626.244 1522.73 610.476C1527.68 594.708 1531.99 600.104 1524.75 594.358C1517.52 588.611 1493.38 592.518 1497.66 579.273C1501.94 566.028 1505.22 560.001 1513.37 561.123C1520.1 562.172 1526.92 560.456 1532.85 556.217C1538.62 552.485 1540 552.117 1537.28 548.684C1534.57 545.25 1537.92 543.603 1541.33 541.518C1544.75 539.433 1550.64 540.046 1541.05 535.789C1531.46 531.532 1513.76 534.37 1520.99 524.173C1528.21 513.977 1539.65 509.947 1553.88 511.542C1568.11 513.136 1575.05 507.915 1572.78 504.359C1570.51 500.802 1562.53 497.526 1567.7 496.054C1572.87 494.583 1585.25 497.806 1580.92 493.742C1576.58 489.677 1528.01 474.47 1522.24 480.83C1516.48 487.189 1493.89 557.076 1492.95 538.645C1492 520.214 1492.82 445.93 1478.24 455.373C1463.66 464.817 1456.95 498.051 1454.83 504.726C1452.71 511.402 1443.09 537.541 1441.14 525.54C1439.2 513.539 1441.02 455.584 1428.46 452.588C1415.91 449.592 1408.32 475.907 1408.32 475.907C1408.32 475.907 1404.27 512.278 1401.26 527.099C1398.25 541.921 1378.48 593.797 1385.1 595.251Z" fill="#343434"/>
<path d="M825.474 803.491C827.243 805.348 846.091 817.104 854.515 842.998C862.94 868.892 874.2 904.51 866.032 924.85C857.864 945.191 828.336 971.891 791.573 939.286C791.573 939.286 787.644 937.832 793.125 930.667C798.607 923.501 792.666 919.244 794.611 914.443C796.555 909.643 795.097 902.81 804.871 903.301C814.646 903.791 845.591 905.491 834.574 862.655C823.557 819.819 797.999 816.648 797.999 816.648C797.999 816.648 787.779 813.144 786.159 838.793C784.539 864.442 805.385 814.178 815.591 842.069C825.798 869.961 810.798 868.349 801.28 883.451C791.762 898.553 787.968 910.274 778.436 909.152C768.904 908.031 747.924 893.034 752.311 872.571C756.699 852.108 764.922 828.194 765.556 819.399C766.191 810.604 760.264 792.489 773.265 792.033C786.267 791.577 790.223 767.207 825.474 803.491Z" fill="#343434"/>
<path d="M393.733 1087.61C396.002 1087.29 415.713 1078.22 435.817 1088.71C455.92 1099.21 483.314 1113.94 488.674 1135.81C494.034 1157.67 487.823 1203.66 444.12 1214.52C444.12 1214.52 440.556 1217.11 440.502 1207.02C440.448 1196.93 433.926 1199.4 432.684 1194.22C431.442 1189.03 426.663 1185.58 433.818 1176.92C440.974 1168.27 463.71 1140.97 432.549 1120.86C401.389 1100.75 381.609 1122.11 381.609 1122.11C381.609 1122.11 372.456 1128.99 385.376 1148.61C398.297 1168.23 385.471 1113.57 407.91 1123.84C430.349 1134.11 418.873 1146.74 420.439 1166.18C422.005 1185.63 425.691 1197.26 418.387 1205.31C411.083 1213.35 388.076 1222.06 379.976 1203.55C371.875 1185.05 364.625 1160.81 360.264 1153.97C355.903 1147.14 341.821 1139.96 350.732 1127.61C359.643 1115.25 349.18 1094.48 393.733 1087.61Z" fill="#343434"/>
<path d="M1565.16 1256.62C1567.59 1257.69 1569.93 1259.04 1572.17 1260.67H1553.07C1555.13 1256.13 1558.67 1253.66 1565.16 1256.62Z" fill="#343434"/>
<path d="M1642.97 1260.67H1598.42C1595.77 1257.91 1592.89 1255.56 1589.83 1253.66C1558.66 1233.62 1538.89 1254.92 1538.89 1254.92C1537.36 1256.26 1536.3 1258.32 1535.93 1260.67H1507.73L1507.97 1260.34C1516.88 1248.07 1506.35 1227.22 1551.03 1220.34C1553.28 1220.02 1572.99 1210.95 1593.1 1221.46C1610.67 1230.64 1633.87 1243.15 1642.97 1260.67Z" fill="#343434"/>
<path d="M733.761 502.361C731.992 500.504 713.131 488.766 704.706 462.854C696.281 436.943 685.021 401.342 693.203 381.002C701.385 360.662 730.885 333.962 767.649 366.566C767.649 366.566 771.577 368.02 766.096 375.168C760.614 382.316 766.568 386.608 764.611 391.409C762.653 396.209 764.125 403.042 754.35 402.534C744.575 402.026 713.63 400.361 724.647 443.197C735.664 486.033 761.222 489.204 761.222 489.204C761.222 489.204 771.442 492.708 773.063 467.059C774.683 441.41 753.837 491.674 743.63 463.783C733.423 435.891 748.423 437.503 757.955 422.401C767.487 407.299 771.253 395.649 780.799 396.717C790.344 397.786 811.311 412.818 806.923 433.281C802.536 453.744 794.313 477.658 793.679 486.453C793.044 495.248 798.971 513.364 785.983 513.819C772.995 514.275 769.066 538.645 733.761 502.361Z" fill="#343434"/>
<path d="M1063.24 681.326C1062.04 680.064 1049.18 672.04 1043.42 654.363C1037.67 636.685 1029.92 612.315 1035.57 598.51C1041.21 584.704 1061.29 566.396 1086.38 588.664C1086.38 588.664 1089.08 589.645 1085.32 594.533C1081.55 599.421 1085.64 602.329 1084.31 605.605C1082.97 608.881 1083.98 613.542 1077.3 613.209C1070.62 612.876 1049.51 611.72 1057.05 640.942C1064.58 670.165 1082.01 672.355 1082.01 672.355C1082.01 672.355 1088.98 674.791 1090.11 657.236C1091.24 639.681 1076.99 674.037 1070.03 654.993C1063.08 635.949 1073.3 637.106 1079.8 626.752C1086.29 616.397 1088.88 608.513 1095.39 609.232C1101.9 609.95 1116.22 620.217 1113.22 634.197C1110.23 648.178 1104.62 664.472 1104.19 670.481C1103.76 676.49 1107.8 688.842 1098.93 689.157C1090.06 689.472 1087.3 706.098 1063.24 681.326Z" fill="#343434"/>
<path d="M30.5519 589.224C29.3368 587.963 16.4702 579.939 10.7187 562.261C4.9672 544.584 -2.71497 520.214 2.86102 506.408C8.43701 492.603 28.5943 474.295 53.6795 496.545C53.6795 496.545 56.3797 497.543 52.6264 502.431C48.873 507.319 52.9369 510.228 51.6138 513.504C50.2907 516.78 51.2762 521.44 44.6067 521.107C37.9371 520.775 16.8077 519.618 24.3549 548.841C31.9021 578.064 49.3186 580.254 49.3186 580.254C49.3186 580.254 56.2042 582.654 57.3518 565.135C58.4994 547.615 44.2286 581.936 37.262 562.892C30.2954 543.848 40.5428 544.987 47.0369 534.65C53.5309 524.314 56.1097 516.412 62.6307 517.13C69.1518 517.849 83.4496 528.115 80.5063 542.079C77.563 556.042 71.8925 572.37 71.4605 578.379C71.0285 584.389 75.1058 596.67 66.168 597.056C57.2303 597.441 54.584 613.997 30.5519 589.224Z" fill="#343434"/>
<path d="M970.463 888.882C969.113 886.552 952.912 869.4 949.334 841.579C945.756 813.757 941.233 775.792 952.885 758.5C964.536 741.208 998.006 724.179 1027.88 767.05C1027.88 767.05 1031.43 769.643 1024.82 774.934C1018.2 780.225 1023.21 786.199 1020.46 790.263C1017.7 794.328 1017.89 801.441 1008.47 797.99C999.045 794.538 969.316 783.518 972.245 828.491C975.175 873.465 999.531 884.327 999.531 884.327C999.531 884.327 1008.82 891.002 1015.03 866.474C1021.24 841.947 991.903 884.572 987.002 854.351C982.101 824.129 996.453 830.314 1008.37 818.47C1020.3 806.627 1026.13 796.5 1035.21 800.425C1044.3 804.349 1061.99 825.338 1054.04 843.909C1046.08 862.48 1033.78 883.223 1031.58 891.58C1029.38 899.937 1031.88 919.349 1019.16 915.862C1006.44 912.376 998.195 934.801 970.463 888.882Z" fill="#343434"/>
<path d="M1409.71 1019.84C1425.47 1024.57 1441.62 1026.69 1457.79 1026.13C1480.04 1024.38 1514.36 1017.37 1531.59 1018.55C1548.81 1019.72 1578.29 1023.31 1589.88 1024.34C1599.81 1025.27 1608.12 1027.39 1604.99 1024.1C1601.86 1020.81 1590.52 1015.34 1598.24 1010.94C1605.96 1006.54 1611.93 1012.27 1609.42 1001.08C1606.91 989.883 1598.88 990.759 1603.75 986.117C1608.62 981.474 1616.72 983.331 1613.96 978.811C1611.19 974.291 1617.84 971.26 1605.46 968.579C1593.08 965.899 1593.02 964.708 1584.73 964.708C1576.44 964.708 1578.46 966.46 1568.04 965.934C1557.62 965.408 1548.15 968.912 1547.61 965.058C1547.07 961.204 1547.81 919.769 1542.82 906.892C1548 907.12 1553.19 906.751 1558.32 905.789C1569.43 904.194 1573.57 903.476 1580.19 902.53C1586.81 901.584 1591.19 905.456 1593.42 895.014C1595.65 884.572 1595.91 881.243 1600.6 878.458C1602.73 877.569 1604.57 875.773 1605.82 873.36C1607.08 870.913 1607.68 867.992 1607.52 865.055C1606.88 859.431 1609.93 858.17 1602.3 851.863C1594.5 846.659 1585.68 844.563 1576.96 845.836C1574.82 847.325 1537.2 850.882 1536.12 851.74C1523.55 856.538 1510.59 859.431 1497.51 860.36L1443.33 858.012C1437.39 857.749 1464.05 873.64 1465.04 881.716C1466.02 889.793 1455.99 895.732 1462.77 899.236C1469.55 902.74 1494.97 903.791 1499.22 908.837C1503.48 913.883 1513.7 969.193 1506.62 979.792C1499.55 990.391 1463.42 979.126 1453.36 981.018C1443.3 982.911 1426.98 979.88 1422.81 989.305C1418.63 998.731 1424.05 1007.63 1418.49 1008.79C1412.92 1009.94 1401.93 1017.86 1409.71 1019.84Z" fill="#343434"/>
<path d="M1288.01 346.138C1272.25 341.402 1256.09 339.295 1239.92 339.866C1217.68 341.618 1183.36 348.625 1166.14 347.434C1148.91 346.243 1119.44 342.686 1107.82 341.635C1097.91 340.707 1089.6 338.587 1092.72 341.88C1095.84 345.174 1107.19 350.64 1099.47 355.038C1091.74 359.435 1085.76 353.706 1088.29 364.901C1090.81 376.096 1098.83 375.22 1093.96 379.881C1089.08 384.541 1080.98 382.666 1083.75 387.169C1086.52 391.671 1079.86 394.72 1092.24 397.4C1104.62 400.081 1104.69 401.272 1112.97 401.272C1121.24 401.272 1119.23 399.52 1129.66 400.046C1140.08 400.572 1149.56 397.068 1150.1 400.939C1150.64 404.811 1149.89 446.228 1154.89 459.105C1149.71 458.862 1144.52 459.225 1139.39 460.191C1128.28 461.786 1124.13 462.521 1117.52 463.45C1110.9 464.378 1106.51 460.542 1104.29 470.966C1102.06 481.39 1101.8 484.736 1097.1 487.522C1094.97 488.405 1093.13 490.203 1091.89 492.62C1090.63 495.067 1090.03 497.988 1090.19 500.925C1090.83 506.549 1087.77 507.827 1095.4 514.117C1103.21 519.328 1112.02 521.425 1120.74 520.144C1122.89 518.655 1160.51 515.116 1161.59 514.24C1174.16 509.458 1187.12 506.566 1200.2 505.62L1254.38 507.968C1260.32 508.23 1233.66 492.34 1232.67 484.263C1231.68 476.187 1241.72 470.248 1234.94 466.744C1228.16 463.24 1202.74 462.188 1198.48 457.143C1194.23 452.097 1184.01 396.787 1191.09 386.188C1198.16 375.588 1234.29 386.836 1244.35 384.961C1254.41 383.087 1270.73 386.118 1274.9 376.675C1279.07 367.231 1273.79 358.401 1279.41 357.175C1285.03 355.949 1295.79 348.082 1288.01 346.138Z" fill="#343434"/>
<path d="M223.268 79.8375C207.508 75.1015 191.347 72.9938 175.176 73.5654C152.94 75.405 118.62 82.3253 101.392 81.1514C84.1649 79.9776 54.6918 76.3861 43.0943 75.3349C33.1845 74.4239 24.8542 72.2865 27.973 75.5977C31.0918 78.9089 42.4598 84.3576 34.7911 88.7375C27.1224 93.1174 21.1009 87.441 23.6121 98.6362C26.1234 109.831 34.1565 108.955 29.2826 113.616C24.4087 118.276 16.308 116.401 19.0757 120.904C21.8435 125.406 15.1874 128.472 27.568 131.135C39.9486 133.798 40.0026 135.025 48.2923 135.007C56.582 134.99 54.5703 133.343 64.9932 133.781C75.4161 134.219 84.8805 130.82 85.434 134.674C85.9876 138.529 85.218 179.963 90.2134 192.84C85.0323 192.597 79.8449 192.96 74.7141 193.926C63.6026 195.52 59.4578 196.256 52.8557 197.185C46.2536 198.113 41.8522 194.276 39.6245 204.718C37.3968 215.16 37.1268 218.489 32.4419 221.257C30.3085 222.147 28.468 223.943 27.2169 226.355C25.9611 228.805 25.3631 231.724 25.5158 234.66C26.1504 240.283 23.0991 241.562 30.7273 247.852C38.5309 253.062 47.3485 255.159 56.069 253.879C58.2156 252.389 95.8299 248.851 96.91 247.975C109.484 243.192 122.44 240.306 135.523 239.372L189.704 241.702C195.644 241.965 168.993 226.075 167.994 217.998C166.995 209.922 177.04 203.982 170.262 200.478C163.484 196.975 138.062 195.923 133.876 190.878C129.691 185.832 119.403 130.54 126.478 119.958C133.552 109.376 169.681 120.606 179.74 118.731C189.798 116.857 206.121 119.87 210.293 110.427C214.465 100.984 209.051 92.1188 214.627 90.945C220.203 89.7712 231.058 81.8698 223.268 79.8375Z" fill="#343434"/>
<path d="M1166 1035.59C1162.88 1050.59 1161.18 1066.02 1160.95 1081.55C1161.22 1102.97 1163.91 1136.16 1162.65 1152.66C1161.4 1169.16 1158.49 1197.33 1157.54 1208.44C1156.7 1217.92 1155.25 1225.84 1157.17 1222.95C1159.09 1220.06 1162.44 1209.34 1164.6 1216.85C1166.76 1224.37 1163.42 1229.96 1169.63 1227.91C1175.84 1225.86 1175.64 1218.13 1178.03 1222.97C1180.42 1227.8 1179.12 1235.51 1181.69 1233.01C1184.25 1230.5 1185.74 1237 1187.58 1225.19C1189.41 1213.38 1190.11 1213.37 1190.38 1205.43C1190.65 1197.49 1189.68 1199.35 1190.28 1189.36C1190.87 1179.38 1189.3 1170.09 1191.44 1169.76C1193.57 1169.43 1216.24 1171.51 1223.48 1167.1C1223.16 1172.06 1223.19 1177.06 1223.56 1182.02C1224.06 1192.74 1224.31 1196.74 1224.61 1203.05C1224.91 1209.35 1222.65 1213.56 1228.3 1215.99C1233.94 1218.43 1235.75 1218.85 1237.12 1223.44C1237.51 1225.53 1238.44 1227.38 1239.74 1228.7C1241.03 1229.98 1242.62 1230.66 1244.24 1230.61C1247.33 1230.18 1247.93 1233.16 1251.64 1226.05C1254.76 1218.68 1256.19 1210.3 1255.78 1201.91C1255.04 1199.81 1254.34 1163.57 1253.91 1162.51C1251.7 1150.25 1250.54 1137.72 1250.46 1125.14L1253.54 1073.21C1253.88 1067.51 1244.29 1092.48 1239.83 1093.27C1235.36 1094.06 1232.44 1084.1 1230.37 1090.5C1228.31 1096.89 1226.81 1121.26 1223.89 1125.12C1220.98 1128.97 1190.34 1137.01 1184.74 1129.85C1179.14 1122.68 1186.52 1088.45 1185.83 1078.67C1185.15 1068.9 1187.35 1053.38 1182.31 1049.07C1177.27 1044.76 1172.22 1049.66 1171.78 1044.26C1171.33 1038.87 1167.35 1028.18 1166 1035.59Z" fill="#343434"/>
<path d="M413.729 1260.27C413.173 1260.15 412.604 1260.29 412.122 1260.67H359.373C353.797 1258.65 348.923 1257.76 346.506 1259.86C346.245 1260.1 346.005 1260.37 345.791 1260.67H315.021C315.028 1260.62 315.028 1260.56 315.021 1260.51C315.157 1257.73 307.879 1257.9 300.454 1255.25C293.028 1252.61 294.243 1254.15 288.303 1252.24C282.362 1250.33 282.47 1249.46 273.924 1244.74C265.378 1240.03 270.576 1239.49 269.185 1235.72C267.794 1231.95 273.37 1235.14 277.488 1233.06C281.606 1230.97 275.733 1229.69 275.409 1221.39C275.085 1213.08 278.663 1218.45 284.765 1217.17C290.868 1215.89 283.415 1209.53 281.62 1206.52C279.824 1203.5 285.508 1206.92 292.515 1209.84C300.71 1213.26 321.435 1222.53 333.64 1227.36C345.845 1232.2 371.443 1235.35 387.644 1239.24C399.343 1242.58 410.68 1247.79 421.397 1254.73C426.744 1257.81 417.887 1260.76 413.729 1260.27Z" fill="#343434"/>
<path d="M1506.23 188.46C1504.64 173.065 1501.61 157.98 1497.2 143.539C1490.57 123.917 1478.21 94.6592 1474.46 78.8213C1470.71 62.9834 1465.01 35.5125 1462.58 24.7904C1460.53 15.6276 1459.5 7.60352 1458.53 11.2301C1457.56 14.8567 1457.72 26.4197 1453.49 20.5857C1449.27 14.7516 1450.69 7.90135 1445.56 12.8945C1440.43 17.8876 1442.92 24.9306 1439.29 21.6544C1435.66 18.3782 1434.54 10.6169 1432.92 14.226C1431.3 17.8351 1428.03 12.474 1429.81 24.3874C1431.6 36.3009 1430.99 36.6513 1433.11 44.0271C1435.23 51.4029 1435.56 49.283 1437.99 58.7962C1440.43 68.3095 1444.6 76.0181 1442.76 77.4548C1440.92 78.8914 1419.36 88.317 1414 95.9556C1412.8 91.2231 1411.29 86.6335 1409.48 82.2377C1405.82 72.6018 1404.39 69.0453 1402.23 63.2988C1400.07 57.5523 1400.88 52.6643 1394.98 53.2074C1389.08 53.7505 1387.24 54.3112 1384.61 50.7547C1383.64 49.0409 1382.24 47.806 1380.66 47.2507C1379.09 46.7083 1377.42 46.8815 1375.94 47.7413C1373.24 49.686 1371.77 47.2332 1370.54 55.6602C1369.87 64.0174 1371.04 72.4514 1373.92 79.9776C1375.27 81.5544 1386.66 114.632 1387.42 115.385C1393.07 125.596 1397.84 136.59 1401.62 148.164L1414.23 197.623C1415.58 203.054 1417 175.127 1420.98 172.254C1424.97 169.381 1430.53 177.002 1430.58 170.029C1430.64 163.056 1424.71 139.86 1426.25 134.867C1427.79 129.874 1453.66 107.081 1460.92 110.882C1468.18 114.684 1471.52 149.916 1475.07 158.676C1478.62 167.436 1481.21 182.748 1487.14 184.22C1493.07 185.692 1496.27 178.631 1498.29 183.362C1500.32 188.092 1507.16 195.888 1506.23 188.46Z" fill="#343434"/>
<path d="M797.972 1164.63C799.43 1169.37 788.872 1180.29 788.872 1180.29C788.872 1180.29 765.772 1166.75 765.92 1173.74C766.069 1180.73 775.817 1210.21 770.956 1214.98C766.096 1219.74 763.018 1216.08 760.574 1216.22C758.13 1216.36 746.371 1216.92 743.9 1220.81C741.429 1224.7 739.85 1210.81 742.118 1206.39C744.386 1201.98 742.307 1168.23 744.454 1158.76C746.6 1149.28 746.965 1109.7 744.373 1102.17C741.78 1094.63 747.937 1098.24 749.274 1099.77C750.61 1101.29 756.996 1090.08 757.374 1090.17C757.752 1090.25 760.209 1083.42 764.125 1102.43C768.04 1121.44 774.791 1136.14 775.034 1146.7C775.277 1157.27 797.972 1164.63 797.972 1164.63Z" fill="#343434"/>
<path d="M818.83 687.304C815.334 684.901 817.755 667.612 817.755 667.612C817.755 667.612 841.859 658.369 838.315 653.094C834.77 647.82 812.557 633.579 813.801 625.807C815.045 618.034 819.178 618.235 820.932 616.06C822.686 613.884 831.209 603.472 831.103 598.408C830.997 593.345 839.147 602.59 839.692 607.91C840.237 613.229 858.756 637.284 861.922 646.363C865.087 655.443 884.787 686.084 890.498 689.592C896.209 693.101 889.781 695.633 888.054 695.607C886.328 695.58 887.149 709.554 886.829 709.8C886.509 710.047 888.114 717.37 875.621 706.208C863.128 695.046 850.676 689.467 845.168 681.58C839.66 673.693 818.83 687.304 818.83 687.304Z" fill="#343434"/>
<path d="M1643.39 613.577C1639.51 614.505 1633.38 598.913 1633.38 598.913C1633.38 598.913 1648.24 572.23 1642.83 570.881C1637.43 569.532 1613.32 576.137 1610.69 569.129C1608.06 562.121 1611.44 558.827 1611.82 555.691C1612.2 552.555 1614.12 537.488 1611.67 533.581C1609.23 529.675 1620.03 530.48 1622.91 534.177C1625.78 537.874 1651.69 542.026 1658.43 546.651C1665.17 551.276 1695.03 559.616 1701.19 557.811C1707.34 556.007 1703.43 563.067 1702.01 564.521C1700.59 565.975 1707.79 576.26 1707.65 576.785C1707.52 577.311 1712.19 581.743 1697.1 582.952C1682 584.161 1669.59 589.662 1661.49 587.91C1653.39 586.158 1643.39 613.577 1643.39 613.577Z" fill="#343434"/>
<path d="M538.696 508.213C534.807 509.141 528.678 493.531 528.678 493.531C528.678 493.531 543.529 466.849 538.196 465.5C532.863 464.151 508.696 470.756 506.063 463.748C503.431 456.74 506.806 453.446 507.197 450.31C507.589 447.174 509.479 432.107 507.049 428.2C504.619 424.293 515.393 425.099 518.282 428.796C521.171 432.492 547.066 436.645 553.79 441.252C560.514 445.86 590.392 454.234 596.548 452.412C602.705 450.59 598.803 457.668 597.385 459.14C595.968 460.612 603.164 470.878 603.029 471.316C602.894 471.754 607.552 476.274 592.471 477.501C577.39 478.727 564.888 484.351 556.855 482.546C548.822 480.742 538.696 508.213 538.696 508.213Z" fill="#343434"/>
<path d="M600.018 943.719C602.556 939.725 614.869 946.505 614.869 946.505C614.869 946.505 616.395 979.564 621.08 976.06C625.765 972.556 641.169 946.96 646.651 950.201C652.132 953.442 651.052 958.751 652.281 961.484C653.51 964.217 659.329 977.409 663.082 978.338C666.835 979.267 658.168 987.799 654.158 987.413C650.148 987.028 628.262 1005.79 620.864 1007.95C613.465 1010.1 586.476 1028.97 582.628 1035.65C578.781 1042.32 578.322 1033.46 578.74 1031.2C579.159 1028.94 568.628 1027.06 568.52 1026.6C568.412 1026.15 562.633 1026.6 573.637 1012.92C584.64 999.239 591.485 984.277 598.533 978.829C605.58 973.38 600.018 943.719 600.018 943.719Z" fill="#343434"/>
<path d="M1729 1100.42V1145.27C1728.59 1144.78 1728.18 1144.23 1727.73 1143.67C1716.93 1129.76 1705.21 1121.23 1700.84 1112.24C1696.46 1103.25 1673.75 1111.15 1673.75 1111.15C1670.61 1107.97 1675.52 1091.88 1675.52 1091.88C1675.52 1091.88 1700.94 1089.06 1698.14 1083.12C1695.33 1077.18 1675.18 1057.81 1677.56 1050.62C1679.94 1043.44 1684.03 1044.69 1686.11 1043.02C1688.19 1041.36 1698.26 1033.47 1698.82 1028.57C1699.39 1023.66 1706.24 1034.7 1706.03 1039.9C1705.83 1045.11 1720.89 1073.03 1722.69 1082.58C1724.35 1088.77 1726.47 1094.74 1729 1100.42Z" fill="#343434"/>
<path d="M992.997 316.845C990.472 320.839 978.145 314.059 978.145 314.059C978.145 314.059 976.62 281.017 971.921 284.521C967.223 288.025 951.831 313.621 946.364 310.362C940.896 307.104 941.949 301.83 940.734 299.097C939.518 296.364 933.672 283.172 929.933 282.243C926.193 281.315 934.847 272.783 938.857 273.168C942.867 273.553 964.752 254.79 972.151 252.635C979.549 250.48 1006.54 231.611 1010.39 224.936C1014.23 218.261 1014.69 227.126 1014.29 229.386C1013.88 231.646 1024.4 233.521 1024.51 233.959C1024.62 234.397 1030.38 233.959 1019.39 247.659C1008.4 261.36 1001.57 276.304 994.536 281.735C987.502 287.166 992.997 316.845 992.997 316.845Z" fill="#343434"/>
<path d="M31.2133 972.872C27.2305 973.099 22.9506 956.719 22.9506 956.719C22.9506 956.719 40.9072 933.19 35.7632 931C30.6193 928.81 5.6556 931 3.85995 923.536C2.06429 916.073 5.81762 913.567 6.56018 910.571C7.30275 907.576 10.9886 893.052 9.0174 888.865C7.04622 884.677 17.7257 887.305 20.1694 891.44C22.6131 895.575 47.9953 904.212 54.1788 909.923C60.3624 915.635 89.2144 929.09 95.587 928.407C101.96 927.723 97.1936 934.03 95.587 935.134C93.9803 936.238 99.9748 947.661 99.7858 948.081C99.5968 948.502 103.782 953.723 88.6068 952.321C73.4315 950.92 60.2544 954.073 52.4372 950.99C44.62 947.906 31.2133 972.872 31.2133 972.872Z" fill="#343434"/>
<path d="M1146.19 939.899C1148.72 935.905 1160.98 942.685 1160.98 942.685C1160.98 942.685 1162.5 975.745 1167.2 972.223C1171.9 968.702 1187.29 943.123 1192.76 946.382C1198.23 949.64 1197.18 954.914 1198.39 957.647C1199.61 960.38 1205.45 973.59 1209.19 974.518C1212.93 975.447 1204.28 983.979 1200.27 983.576C1196.26 983.173 1174.37 1001.95 1166.97 1004.13C1159.57 1006.3 1132.59 1025.15 1128.74 1031.81C1124.89 1038.47 1124.43 1029.62 1124.84 1027.36C1125.24 1025.1 1114.72 1023.24 1114.62 1022.79C1114.51 1022.33 1108.74 1022.79 1119.73 1009.08C1130.72 995.385 1137.65 980.458 1144.66 975.097C1151.66 969.736 1146.19 939.899 1146.19 939.899Z" fill="#343434"/>
<path d="M1591.95 398.574C1589.41 402.569 1577.1 395.789 1577.1 395.789C1577.1 395.789 1575.57 362.729 1570.89 366.233C1566.2 369.737 1550.8 395.333 1545.32 392.092C1539.83 388.851 1540.9 383.542 1539.69 380.809C1538.47 378.076 1532.64 364.884 1528.89 363.955C1525.13 363.027 1533.79 354.495 1537.81 354.898C1541.83 355.3 1563.69 336.502 1571.1 334.347C1578.52 332.192 1605.49 313.323 1609.34 306.666C1613.19 300.008 1613.63 308.838 1613.23 311.116C1612.82 313.393 1623.34 315.233 1623.45 315.688C1623.56 316.144 1629.33 315.688 1618.33 329.389C1607.33 343.089 1600.48 358.016 1593.43 363.465C1586.39 368.913 1591.95 398.574 1591.95 398.574Z" fill="#343434"/>
<path d="M680.823 376.64C678.284 380.634 665.971 373.854 665.971 373.854C665.971 373.854 664.5 340.882 659.801 344.386C655.103 347.89 639.711 373.486 634.244 370.227C628.776 366.969 629.829 361.695 628.613 358.962C627.398 356.229 621.552 343.037 617.813 342.091C614.073 341.145 622.713 332.63 626.723 333.033C630.733 333.436 652.619 314.655 660.031 312.5C667.443 310.345 694.405 291.476 698.266 284.801C702.127 278.126 702.559 286.991 702.154 289.251C701.749 291.511 712.267 293.368 712.375 293.824C712.483 294.279 718.261 293.824 707.258 307.524C696.254 321.225 689.409 336.099 682.348 341.53C675.287 346.961 680.823 376.64 680.823 376.64Z" fill="#343434"/>
<path d="M1531.44 1113.38C1531.44 1113.38 1552.77 1101.47 1547.64 1093.83C1542.51 1086.19 1528.18 1055.67 1534.14 1048.43C1540.09 1041.2 1520.31 1056.7 1514.03 1056.16C1507.76 1055.62 1503.23 1057.6 1501.1 1062.49C1498.97 1067.37 1489.07 1057.42 1486.6 1063.47C1484.13 1069.51 1484.76 1075.63 1479.55 1078.03C1474.34 1080.43 1466.6 1080.25 1464.35 1083.28C1462.09 1086.31 1466.1 1108.28 1473.21 1107.81C1480.31 1107.34 1497.51 1084.81 1500.4 1088.54C1503.29 1092.27 1502.57 1107.7 1502.57 1107.7L1481.93 1129.9C1481.93 1129.9 1477.03 1152.68 1490.84 1143.55C1504.65 1134.42 1505.89 1131.29 1505.89 1131.29C1505.89 1131.29 1488.95 1162.93 1494.31 1167.67C1496.99 1169.59 1499.26 1172.34 1500.91 1175.68C1500.91 1175.68 1501.64 1194.64 1511.71 1193.88C1521.78 1193.13 1519.68 1188 1517.62 1185.68C1515.57 1183.37 1515.61 1143.15 1522.07 1132.23C1525.62 1126.32 1528.75 1120.01 1531.44 1113.38Z" fill="#343434"/>
<path d="M874.376 820.73C874.376 820.73 874.956 850.864 882.314 847.571C889.672 844.277 916.85 838.32 919.82 848.184C922.791 858.047 919.051 828.457 921.778 821.098C924.505 813.74 924.735 807.626 922.075 803.158C919.416 798.69 930.176 790.544 926.774 785.323C923.371 780.102 918.74 778.595 918.97 771.412C919.2 764.229 922.197 754.996 920.928 751.177C919.658 747.358 902.377 743.994 900.122 752.736C897.868 761.478 907.534 790.561 903.781 792.646C900.028 794.731 889.227 788.144 889.227 788.144L880.978 754.856C880.978 754.856 866.477 740.455 867.895 760.497C869.313 780.54 871.122 783.273 871.122 783.273C871.122 783.273 854.799 751.089 849.398 755.785C847.034 758.304 844.221 760.014 841.217 760.76C841.217 760.76 827.378 754.576 824.165 767.015C820.951 779.454 825.42 778.806 827.837 777.194C830.254 775.582 859.011 790.596 864.412 802.44C867.305 808.911 870.64 815.032 874.376 820.73Z" fill="#343434"/>
<path d="M1166.28 252.565C1166.28 252.565 1144.95 264.478 1150.08 272.117C1155.21 279.755 1169.55 310.275 1163.58 317.528C1157.62 324.781 1177.4 309.241 1183.67 309.784C1189.95 310.327 1194.47 308.348 1196.62 303.46C1198.77 298.572 1208.65 308.505 1211.12 302.496C1213.59 296.487 1212.96 290.232 1218.17 287.92C1223.38 285.607 1231.12 285.695 1233.37 282.664C1235.63 279.633 1231.62 257.663 1224.51 258.136C1217.41 258.609 1200.21 281.14 1197.32 277.408C1194.43 273.676 1195.15 258.241 1195.15 258.241L1215.83 235.921C1215.83 235.921 1220.75 213.145 1206.94 222.273C1193.12 231.401 1191.88 234.537 1191.88 234.537C1191.88 234.537 1208.83 202.896 1203.47 198.148C1200.79 196.244 1198.52 193.497 1196.86 190.159C1196.86 190.159 1196.14 171.186 1186.06 171.939C1175.99 172.692 1178.08 177.826 1180.15 180.138C1182.22 182.451 1182.16 222.676 1175.69 233.591C1172.13 239.538 1168.98 245.888 1166.28 252.565Z" fill="#343434"/>
<path d="M972.934 1004.2C972.934 1004.2 994.266 992.266 989.136 984.627C984.005 976.989 969.667 946.47 975.634 939.234C981.602 931.998 961.809 947.503 955.531 946.96C949.253 946.417 944.73 948.414 942.597 953.285C940.464 958.155 930.567 948.239 928.097 954.266C925.626 960.293 926.261 966.424 921.049 968.825C915.838 971.225 908.101 971.05 905.847 974.081C903.592 977.111 907.602 999.081 914.704 998.608C921.805 998.135 939.006 975.605 941.895 979.336C944.784 983.068 944.069 998.486 944.069 998.486L923.371 1020.65C923.371 1020.65 918.457 1043.42 932.269 1034.3C946.08 1025.17 947.322 1022.03 947.322 1022.03C947.322 1022.03 930.378 1053.67 935.738 1058.42C938.417 1060.34 940.686 1063.09 942.34 1066.43C942.34 1066.43 943.07 1085.4 953.141 1084.63C963.213 1083.86 961.107 1078.74 959.055 1076.43C957.003 1074.12 957.043 1033.89 963.51 1022.98C967.075 1017.09 970.229 1010.81 972.934 1004.2Z" fill="#343434"/>
<path d="M628.802 489.046C628.802 489.046 614.734 513.399 622.052 516.693C629.369 519.986 653.239 537.068 650.796 547.264C648.352 557.461 659.707 531.024 665.364 527.38C671.021 523.736 674.153 519.075 674.234 513.364C674.315 507.652 686.574 509.86 686.466 503.01C686.358 496.159 683.509 491.236 687.141 485.735C690.773 480.234 697.55 475.328 698.401 471.264C699.251 467.199 687.519 450.696 681.551 455.811C675.584 460.927 669.049 491.727 665.148 490.36C661.246 488.994 656.075 475.136 656.075 475.136L665.701 442.199C665.701 442.199 661.421 419.16 652.861 436.172C644.302 453.183 644.41 456.757 644.41 456.757C644.41 456.757 647.285 418.214 640.845 417.566C637.815 417.647 634.816 416.744 632.124 414.938C632.124 414.938 624.387 398.925 615.922 406.178C607.457 413.431 611.197 416.532 613.857 417.198C616.516 417.864 631.516 452.816 629.99 466.551C629.08 473.989 628.682 481.517 628.802 489.046Z" fill="#343434"/>
<path d="M246.327 116.349C246.327 116.349 232.273 140.684 239.577 143.995C246.881 147.306 270.751 164.37 268.307 174.567C265.864 184.763 277.218 158.308 282.875 154.664C288.532 151.02 291.664 146.378 291.745 140.649C291.826 134.92 304.085 137.145 303.977 130.294C303.869 123.444 301.021 118.504 304.653 113.02C308.284 107.536 315.062 102.596 315.926 98.5486C316.79 94.5015 305.017 78.0855 299.05 83.1487C293.082 88.2119 286.534 119.047 282.632 117.698C278.73 116.349 273.573 102.473 273.573 102.473L283.199 69.5359C283.199 69.5359 278.973 46.55 270.346 63.5091C261.719 80.4682 261.894 84.0948 261.894 84.0948C261.894 84.0948 264.77 45.5513 258.33 44.8856C255.298 44.9847 252.296 44.0803 249.608 42.2576C249.608 42.2576 241.872 26.2621 233.407 33.4978C224.942 40.7334 228.695 43.8344 231.341 44.5002C233.987 45.1659 248.987 80.1704 247.462 93.8533C246.576 101.294 246.197 108.822 246.327 116.349Z" fill="#343434"/>
<path d="M720.84 980.51C720.84 980.51 702.397 961.975 699.927 971.628C697.456 981.281 684.657 1012.97 676.975 1009.77C669.293 1006.56 689.274 1021.51 692.042 1029.04C694.81 1036.57 698.347 1040.64 702.64 1040.73C706.934 1040.81 705.341 1057.05 710.512 1056.88C715.683 1056.7 719.395 1052.92 723.567 1057.7C727.739 1062.49 731.465 1071.46 734.53 1072.58C737.595 1073.7 750.043 1058.09 746.141 1050.2C742.239 1042.32 718.977 1033.79 719.976 1028.62C720.975 1023.45 731.452 1016.57 731.452 1016.57L756.375 1029.18C756.375 1029.18 773.765 1023.42 760.871 1012.15C747.977 1000.89 745.291 1001.04 745.291 1001.04C745.291 1001.04 774.467 1004.65 774.872 996.12C774.779 992.123 775.447 988.158 776.816 984.575C776.816 984.575 788.872 974.273 783.351 963.078C777.829 951.883 775.52 956.859 775.034 960.38C774.548 963.902 748.18 983.857 737.811 981.93C732.2 980.775 726.519 980.3 720.84 980.51Z" fill="#343434"/>
<path d="M872.188 280.071C872.188 280.071 890.617 298.607 893.088 288.953C895.559 279.3 908.371 247.589 916.04 250.795C923.709 254.001 903.727 239.075 900.959 231.524C898.192 223.973 894.654 219.926 890.361 219.82C886.068 219.715 887.661 203.509 882.49 203.667C877.319 203.825 873.606 207.644 869.448 202.844C865.289 198.043 861.536 189.108 858.471 187.987C855.406 186.866 842.972 202.476 846.86 210.36C850.748 218.244 874.038 226.776 873.025 231.944C872.013 237.112 861.563 243.998 861.563 243.998L836.626 231.383C836.626 231.383 819.237 237.13 832.13 248.413C845.024 259.695 847.711 259.52 847.711 259.52C847.711 259.52 818.548 255.859 818.116 264.373C818.198 268.377 817.526 272.346 816.158 275.936C816.158 275.936 804.102 286.238 809.624 297.433C815.146 308.628 817.455 303.652 817.954 300.131C818.454 296.609 844.794 276.619 855.177 278.582C860.799 279.764 866.494 280.262 872.188 280.071Z" fill="#343434"/>
<path d="M1267 976.674C1267 976.674 1248.56 958.155 1246.1 967.791C1243.65 977.427 1230.82 1009.16 1223.15 1005.95C1215.48 1002.74 1235.46 1017.69 1238.23 1025.22C1241 1032.75 1244.54 1036.82 1248.83 1036.92C1253.12 1037.03 1251.53 1053.23 1256.69 1053.08C1261.85 1052.92 1265.59 1049.12 1269.74 1053.9C1273.9 1058.68 1277.66 1067.64 1280.72 1068.76C1283.78 1069.88 1296.22 1054.29 1292.33 1046.4C1288.44 1038.52 1265.15 1029.99 1266.17 1024.8C1267.18 1019.61 1277.63 1012.75 1277.63 1012.75L1302.55 1025.36C1302.55 1025.36 1319.95 1019.61 1307.05 1008.35C1294.14 997.084 1291.48 997.224 1291.48 997.224C1291.48 997.224 1320.64 1000.89 1321.07 992.371C1320.99 988.368 1321.67 984.399 1323.03 980.808C1323.03 980.808 1335.09 970.506 1329.55 959.311C1324.02 948.116 1321.74 953.109 1321.24 956.613C1320.74 960.117 1294.4 980.142 1284.01 978.163C1278.39 976.998 1272.7 976.5 1267 976.674Z" fill="#343434"/>
<path d="M1424.22 292.93C1424.22 292.93 1430.21 322.188 1436.67 316.459C1443.14 310.73 1468.17 295.646 1472.79 304.195C1477.41 312.745 1468.51 285.187 1469.8 277.057C1471.1 268.928 1470.22 262.884 1466.86 259.432C1463.5 255.981 1472.36 244.33 1468.21 240.389C1464.07 236.447 1459.3 236.534 1458.23 229.456C1457.17 222.378 1458.38 212.304 1456.46 208.993C1454.55 205.682 1437.37 208.292 1436.78 217.613C1436.19 226.933 1450.69 252.074 1447.46 255.385C1444.23 258.697 1432.7 255.929 1432.7 255.929L1418.81 226.268C1418.81 226.268 1402.3 217.14 1407.28 236.254C1412.26 255.368 1414.44 257.365 1414.44 257.365C1414.44 257.365 1392.98 231.471 1388.65 237.901C1386.85 241.144 1384.46 243.767 1381.7 245.539C1381.7 245.539 1367.3 244.225 1366.44 257.47C1365.58 270.715 1369.76 268.578 1371.84 266.23C1373.92 263.882 1404.17 268.7 1411.49 278.494C1415.39 283.795 1419.65 288.627 1424.22 292.93Z" fill="#343434"/>
<path d="M697.807 1084.72C670.143 1063.15 673.599 1053.73 648.852 1055.37C624.104 1057.02 622.916 1059.73 604.365 1066.55C597.142 1069.23 592.214 1071.19 589.001 1072.59C586.426 1073.62 584.173 1075.69 582.574 1078.5C580.974 1081.34 580.105 1084.77 580.09 1088.29C580.108 1090.41 580.508 1092.5 581.258 1094.39C582.008 1096.27 583.088 1097.91 584.41 1099.15C590.392 1104.66 603.312 1117.71 603.798 1132.21C604.284 1146.72 607.768 1216.87 615.571 1223.88C618.555 1226.51 626.372 1239.64 633.258 1241.52C638.159 1242.83 641.723 1233.08 647.015 1233.39C654.239 1233.81 663.217 1245.04 669.319 1243.03C673.208 1241.82 675.881 1228.52 680.417 1226.4C696.335 1218.92 713.738 1205.85 714.17 1189.31C714.967 1168.39 725.417 1106.14 697.807 1084.72ZM651.187 1180.57C654.185 1146.21 640.062 1145.76 632.542 1128.27C631.88 1126.75 631.493 1125.05 631.409 1123.3C631.324 1121.55 631.546 1119.8 632.056 1118.18C632.564 1116.57 633.354 1115.13 634.365 1113.98C635.357 1112.82 636.545 1111.98 637.835 1111.52C650.418 1107.39 670.521 1105.27 677.596 1130.15C688.626 1167.38 650.485 1187.09 651.187 1180.57Z" fill="#343434"/>
<path d="M1011.75 166.175C1011.01 164.291 1009.93 162.663 1008.6 161.427C1002.62 155.926 989.702 142.856 989.216 128.35C988.73 113.843 985.261 43.6593 977.443 36.6864C974.46 34.0409 966.642 20.9186 959.757 19.0265C954.869 17.73 951.292 27.4885 945.999 27.1732C938.776 26.7527 929.798 15.5225 923.695 17.5198C919.807 18.7462 917.134 32.0437 912.597 34.1636C896.679 41.6445 879.276 54.6967 878.844 71.2353C878.088 92.1714 867.638 154.419 895.235 175.863C922.831 197.307 919.456 206.856 944.203 205.191C968.951 203.527 970.126 200.846 988.69 194.014C995.913 191.351 1000.84 189.371 1004.04 187.987C1006.62 186.964 1008.87 184.887 1010.47 182.065C1012.08 179.235 1012.95 175.809 1012.95 172.289C1012.93 170.157 1012.52 168.061 1011.75 166.175ZM960.959 142.401C960.448 144.009 959.663 145.446 958.663 146.605C957.665 147.763 956.472 148.603 955.18 149.058C942.61 153.193 922.494 155.313 915.432 130.435C904.402 93.2051 942.529 73.4779 941.881 80.0127C938.844 114.369 952.966 114.877 960.472 132.397C961.134 133.923 961.522 135.623 961.606 137.37C961.69 139.118 961.469 140.867 960.959 142.488V142.401Z" fill="#343434"/>
<path d="M158.529 16.0306C157.789 14.1485 156.71 12.5259 155.384 11.3002C151.679 7.92793 148.205 4.14716 145.001 -1.85163e-06H98.2467C92.1712 1.55926 84.9885 2.27757 78.4945 -1.85163e-06H26.731C29.5392 10.5118 34.2781 19.7272 41.9873 25.719C69.7052 47.2858 66.2084 56.7114 90.9561 55.0471C115.704 53.3827 116.878 50.7022 135.51 43.8695C142.733 41.2064 147.661 39.2267 150.861 37.8427C153.438 36.8265 155.693 34.7552 157.287 31.9385C158.898 29.1003 159.768 25.6694 159.772 22.145C159.737 20.0079 159.311 17.9122 158.529 16.0306Z" fill="#343434"/>
<path d="M1396.55 822.973C1373.5 804.998 1376.38 797.149 1355.76 798.533C1335.14 799.917 1334.16 802.159 1318.7 807.853C1312.68 810.078 1308.61 811.725 1305.9 812.864C1303.73 813.704 1301.84 815.438 1300.5 817.804C1299.16 820.164 1298.43 823.019 1298.43 825.951C1298.45 827.725 1298.78 829.471 1299.41 831.049C1300.03 832.613 1300.92 833.963 1302.02 834.991C1307.01 839.599 1317.74 850.461 1318.23 862.55C1318.71 874.639 1321.53 933.049 1328.01 938.936C1330.5 941.126 1337.01 952.146 1342.74 953.635C1346.79 954.721 1349.81 946.627 1354.22 946.855C1360.23 947.205 1367.72 956.561 1372.8 954.879C1376.02 953.88 1378.2 942.808 1382.05 941.021C1395.3 934.784 1409.8 923.922 1410.2 910.134C1410.84 892.754 1419.55 840.825 1396.55 822.973ZM1357.72 902.845C1360.21 874.201 1348.44 873.833 1342.18 859.256C1341.63 857.983 1341.31 856.572 1341.23 855.122C1341.17 853.669 1341.35 852.215 1341.78 850.869C1342.2 849.523 1342.86 848.317 1343.69 847.343C1344.52 846.382 1345.52 845.686 1346.59 845.31C1357.07 841.807 1373.82 840.055 1379.71 860.815C1388.9 891.843 1357.14 908.276 1357.72 902.845Z" fill="#343434"/>
<path d="M41.3527 633.076C18.4007 615.206 21.1009 607.34 0.849121 608.549V653.347C10.0704 652.576 20.1693 655.694 24.4762 670.866C33.6705 701.894 1.90221 718.327 2.48276 712.914C3.33334 703.173 2.48276 696.708 0.849121 691.89V757.326C6.49261 759.078 13.0002 766.507 17.5906 765C20.8174 764.001 23.0586 752.929 26.8389 751.159C40.097 744.905 54.5973 734.043 54.9888 720.254C55.6774 702.805 64.3857 650.981 41.3527 633.076Z" fill="#343434"/>
<path d="M1437.38 346.068C1436.06 345.687 1434.68 345.709 1433.36 346.134C1427.45 348.098 1414.11 351.73 1406.68 344.411C1399.25 337.092 1363.01 302.138 1355.39 304.86C1352.5 305.885 1341.81 305.249 1337.22 309.965C1333.97 313.279 1336.8 321.473 1333.83 325.714C1329.73 331.433 1319.39 332.823 1317.1 338.941C1315.6 342.797 1320.74 352.095 1319.3 357.052C1314.41 374.219 1311.46 395.614 1319.31 404.888C1329.23 416.81 1354.09 458.875 1379.45 447.601C1404.82 436.327 1407.66 444.259 1420.15 422.929C1432.64 401.599 1431.95 399.174 1438.59 380.187C1441.16 372.782 1442.83 367.678 1443.89 364.255C1444.79 361.569 1445 358.575 1444.47 355.724C1443.94 352.874 1442.72 350.315 1441 348.408C1439.95 347.276 1438.71 346.475 1437.38 346.068ZM1398.41 375.251C1398.93 376.539 1399.21 377.962 1399.24 379.413C1399.27 380.853 1399.04 382.283 1398.57 383.588C1393.87 396.235 1384.09 413.975 1368.06 406.426C1343.88 395.516 1354.7 353.408 1357.51 357.477C1372.75 378.427 1380.57 366.994 1393.18 370.203C1394.28 370.473 1395.32 371.065 1396.22 371.934C1397.15 372.801 1397.89 373.937 1398.41 375.251Z" fill="#343434"/>
<path d="M1646.32 656.363C1631.06 627.13 1598.3 652.173 1576.02 653.697C1553.73 655.22 1507.56 661.077 1491.26 668.266C1474.96 675.455 1468.08 681.739 1466.31 690.865C1464.54 699.99 1459.94 702.974 1458.86 712.734C1462.16 718.527 1464.12 725.436 1464.48 732.635C1464.8 743.95 1468.06 745.03 1479.94 745.966C1491.82 746.902 1497.78 764.677 1509.71 771.914C1519.22 777.627 1545.48 745.379 1555.9 731.905C1556.33 731.331 1556.86 730.91 1557.45 730.683C1558.04 730.477 1558.67 730.477 1559.27 730.683C1559.87 730.891 1560.41 731.308 1560.84 731.889C1561.29 732.462 1561.61 733.179 1561.78 733.968C1573.98 787.815 1605.98 786.784 1629.65 783.388C1654.2 779.499 1661.07 744.744 1669.06 732.27C1677.05 719.796 1661.58 685.612 1646.32 656.363ZM1622.31 749.283C1591.29 763.772 1578.21 710.48 1573.26 702.164C1568.31 693.848 1579.55 687.707 1591.24 689.611C1602.93 691.515 1628.24 680.089 1628.24 680.089C1628.24 680.089 1653.16 735.063 1622.31 749.283Z" fill="#343434"/>
<path d="M507.587 616.078C502.929 605.13 479.656 609.995 459.192 616.078C438.729 622.16 443.406 659.969 438.003 681.325C432.599 702.681 422.915 747.678 422.302 764.967C421.689 782.256 423.245 790.575 427.818 794.74C432.392 798.906 432.741 804.128 437.842 807.888C441.976 806.399 446.351 806.502 450.441 808.183C456.797 811.07 458.306 808.306 462.153 797.431C466.001 786.557 477.524 785.93 484.88 776.751C490.698 769.44 480.165 735.735 475.667 722.169C475.467 721.609 475.386 720.99 475.431 720.375C475.48 719.761 475.656 719.175 475.94 718.68C476.224 718.176 476.604 717.777 477.043 717.525C477.489 717.277 477.976 717.18 478.458 717.242C511.699 720.928 520.092 690.578 524.854 667.403C529.578 643.283 512.255 627.075 507.587 616.078ZM503.919 664.737C503.24 697.914 470.065 695.235 464.068 697.545C458.07 699.855 457.825 687.58 462.182 677.147C466.538 666.715 467.227 639.719 467.227 639.719C467.227 639.719 504.683 631.794 503.919 664.737Z" fill="#343434"/>
<path d="M723.068 -1.85163e-06H635.162C634.453 5.02132 633.979 10.0939 633.744 15.1896C632.907 39.8749 635.094 51.6833 641.642 57.64C648.19 63.5967 648.69 71.0776 655.994 76.3335C661.912 74.2109 668.176 74.3569 674.031 76.754C683.118 80.8712 685.278 76.9292 690.8 61.4067C696.322 45.8842 712.793 45.0258 723.324 31.9385C727.213 27.1731 726.051 14.3312 723.068 -1.85163e-06Z" fill="#343434"/>
<path d="M1700.88 0.665749C1700.77 0.437992 1700.65 0.210235 1700.53 -1.85163e-06H1571.44C1554.11 2.26005 1537.81 5.25592 1529.09 8.75987C1510.93 16.1707 1503.12 22.8983 1501.05 32.9021C1498.97 42.9059 1493.77 46.0769 1492.38 56.799C1495.93 63.2943 1497.97 70.9841 1498.24 78.944C1498.36 91.4531 1501.96 92.732 1515.07 94.1511C1528.18 95.5702 1534.47 115.385 1547.48 123.76C1557.87 130.364 1587.55 95.6053 1599.32 81.0814C1599.8 80.4493 1600.41 80.0009 1601.08 79.7849C1601.73 79.548 1602.42 79.548 1603.07 79.7849C1603.73 80.0306 1604.33 80.5027 1604.8 81.1515C1605.28 81.8058 1605.62 82.6082 1605.79 83.4816C1618.3 143.312 1653.7 143.189 1679.95 140.211C1707.2 136.707 1715.46 98.5661 1724.5 85.0584C1733.55 71.5507 1717.21 33.4102 1700.88 0.665749ZM1672.52 102.438C1637.92 117.435 1624.47 58.2006 1619.14 48.8626C1613.81 39.5246 1626.38 33.0948 1639.28 35.5826C1652.19 38.0704 1680.4 26.1745 1680.4 26.1745C1680.4 26.1745 1706.95 87.7389 1672.55 102.438H1672.52Z" fill="#343434"/>
<path d="M141.842 1102.87C141.693 1093.32 117.85 1080.99 108.089 1076.29C107.676 1076.1 107.305 1075.78 107.009 1075.36C106.723 1074.93 106.527 1074.41 106.442 1073.86C106.358 1073.31 106.391 1072.74 106.536 1072.21C106.684 1071.67 106.935 1071.2 107.265 1070.82C129.785 1044.98 119.416 1018.79 110.438 1000.17C100.987 980.896 81.8697 985.433 73.2964 982.455C64.7232 979.477 52.8286 1002.27 43.2698 1023.43C33.7109 1044.6 56.0554 1064.43 63.6836 1082.46C71.3117 1100.49 88.4312 1137.01 96.9775 1148.42C105.524 1159.83 110.735 1163.73 115.717 1162.44C120.699 1161.14 123.602 1164.19 128.705 1162.23C130.504 1157.77 133.281 1154.11 136.684 1151.71C142.085 1148.21 141.626 1145.13 138.413 1135.02C135.199 1124.91 142.004 1114.87 141.842 1102.87ZM88.1612 1070.58C85.6365 1077.11 79.1559 1069.6 76.4827 1059.37C73.8095 1049.14 60.3623 1031.53 60.3623 1031.53C60.3623 1031.53 79.5474 994.736 96.0189 1016.2C112.49 1037.66 90.6994 1064.06 88.1612 1070.58Z" fill="#343434"/>
<path d="M932.43 1097.17C923.574 1086.66 906.171 1050.83 899.69 1037.22C900.02 1036.5 900.14 1035.65 900.027 1034.82C899.352 1028.97 892.804 1017.3 892.224 1012.05C890.868 1000.52 889.065 989.087 886.823 977.795C885.352 971.365 866.572 971.137 861.32 971.505C860.911 971.496 860.505 971.604 860.132 971.821C859.756 972.036 859.424 972.36 859.159 972.767C852.679 982.227 812.472 1042.22 811.163 1066.36C809.718 1092.51 801.712 1081.35 794.219 1091.31C792.498 1093.5 791.299 1096.29 790.762 1099.35C789.494 1106.57 789.722 1114.09 791.424 1121.16C793.152 1124.66 796.986 1119.53 800.173 1121.02C803.359 1122.51 806.721 1123.79 811.811 1125.49C816.077 1126.85 819.101 1133.69 821.437 1132.27C829.146 1127.78 841.324 1102.61 845.199 1096.47L845.483 1096.09C845.864 1095.83 846.282 1095.67 846.711 1095.63C850.019 1095.63 855.811 1102.34 861.333 1110.35L871.999 1119.37C874.011 1125.05 874.078 1129.03 879.681 1130.92C884.582 1132.67 887.363 1133.2 889.564 1134.11L895.464 1139.08C899.922 1144.47 905.077 1148.79 910.693 1151.85L917.444 1157.46C918.511 1158.83 919.523 1160.23 920.509 1161.54C921.518 1163.05 922.686 1164.38 923.979 1165.47C926.449 1171.32 926.355 1179.97 928.447 1179.92C930.54 1179.87 934.577 1167.38 937.196 1162.91C938.303 1160.88 935.36 1155.57 936.4 1153.06C937.439 1150.56 942.583 1150.75 943.501 1148.05C944.419 1145.35 940.801 1139.29 941.517 1136.63C942.232 1133.97 947.808 1132.95 948.267 1130.62C950.414 1118.36 943.461 1110.26 932.43 1097.17ZM881.895 1089.89C875.671 1097.3 854.542 1065.83 836.72 1069.04C825.568 1071.09 856.311 1034.96 861.563 1027.31C861.944 1026.8 862.404 1026.4 862.913 1026.13C863.417 1025.86 863.959 1025.72 864.506 1025.73L872.067 1026.13C872.797 1026.15 873.509 1026.43 874.119 1026.96C874.732 1027.49 875.223 1028.23 875.536 1029.09C877.224 1034.35 880.937 1046.02 883.921 1057.74C885.041 1062.1 892.953 1073.51 893.695 1077.52C895.451 1086.01 883.826 1087.57 881.855 1089.89H881.895Z" fill="#343434"/>
<path d="M846.968 121.587C845.226 118.083 841.392 123.216 838.219 121.727C835.046 120.238 831.671 118.959 826.568 117.26C822.301 115.893 819.277 109.078 816.955 110.48C809.232 114.965 797.067 140.14 793.193 146.272L792.896 146.658C792.516 146.922 792.097 147.078 791.667 147.113C788.373 147.113 782.567 140.403 777.059 132.397L766.366 123.374C764.354 117.715 764.273 113.721 758.67 111.829C753.769 110.077 750.988 109.551 748.801 108.64L742.901 103.664C738.446 98.2764 733.29 93.9578 727.671 90.91L720.921 85.2861C719.841 83.9371 718.828 82.5355 717.856 81.204C716.842 79.6913 715.669 78.3704 714.373 77.2796C711.902 71.428 712.01 62.7733 709.917 62.8258C707.825 62.8784 703.788 75.37 701.169 79.8375C700.048 81.8698 702.991 87.1958 701.965 89.6836C700.939 92.1714 695.768 91.9962 694.85 94.7118C693.932 97.4273 697.55 103.472 696.835 106.117C696.119 108.763 690.543 109.814 690.084 112.126C687.775 124.39 694.742 132.449 705.8 145.519C714.656 156.031 732.073 191.859 738.54 205.472C738.227 206.208 738.109 207.057 738.202 207.889C738.891 213.741 745.439 225.409 746.006 230.665C747.348 242.196 749.151 253.628 751.406 264.916C752.878 271.346 771.658 271.574 776.897 271.206C777.311 271.222 777.722 271.114 778.098 270.89C778.471 270.67 778.803 270.347 779.07 269.944C785.537 260.484 825.744 200.496 827.067 176.354C828.512 150.197 836.45 161.357 844.011 151.406C845.731 149.209 846.931 146.418 847.467 143.364C848.77 136.173 848.598 128.665 846.968 121.587ZM776.762 215.388C776.381 215.9 775.921 216.3 775.412 216.562C774.909 216.845 774.366 216.982 773.818 216.965L766.258 216.562C765.527 216.545 764.816 216.259 764.206 215.738C763.614 215.199 763.147 214.46 762.856 213.601C761.168 208.345 757.455 196.677 754.471 184.956C753.337 180.594 745.439 169.188 744.696 165.176C742.874 156.679 754.498 155.137 756.469 152.807C762.707 145.396 783.836 176.862 801.644 173.656C812.756 171.606 782.027 207.732 776.775 215.388H776.762Z" fill="#343434"/>
<path d="M1433.32 1111.23C1424.47 1100.71 1407.05 1064.89 1400.58 1051.27C1400.9 1050.54 1401.01 1049.7 1400.91 1048.87C1400.23 1043 1393.68 1031.35 1393.12 1026.1C1391.78 1014.57 1389.97 1003.14 1387.72 991.863C1386.24 985.416 1367.46 985.188 1362.21 985.574C1361.8 985.559 1361.4 985.66 1361.02 985.872C1360.65 986.092 1360.32 986.415 1360.05 986.818C1353.59 996.278 1313.37 1056.27 1312.06 1080.41C1310.61 1106.57 1302.61 1095.4 1295.11 1105.37C1293.39 1107.56 1292.19 1110.35 1291.66 1113.4C1290.39 1120.62 1290.62 1128.15 1292.32 1135.23C1294.05 1138.73 1297.88 1133.58 1301.07 1135.09C1304.25 1136.59 1307.61 1137.84 1312.7 1139.55C1316.98 1140.92 1320.01 1147.72 1322.33 1146.32C1330.04 1141.83 1342.22 1116.66 1346.09 1110.52L1346.39 1110.16C1346.77 1109.89 1347.19 1109.73 1347.62 1109.68C1350.91 1109.68 1356.72 1116.41 1362.23 1124.4L1372.89 1133.42C1374.9 1139.1 1374.98 1143.08 1380.57 1144.97C1385.48 1146.72 1388.27 1147.25 1390.46 1148.17L1396.36 1153.13C1400.81 1158.52 1405.97 1162.84 1411.59 1165.9L1418.34 1171.53C1419.42 1172.86 1420.43 1174.26 1421.4 1175.59C1422.42 1177.11 1423.59 1178.43 1424.89 1179.52C1427.36 1185.37 1427.25 1194.04 1429.34 1193.97C1431.43 1193.9 1435.47 1181.43 1438.09 1176.96C1439.2 1174.94 1436.27 1169.62 1437.29 1167.13C1438.32 1164.64 1443.49 1164.82 1444.41 1162.1C1445.33 1159.39 1441.71 1153.34 1442.42 1150.68C1443.14 1148.02 1448.71 1147 1449.17 1144.67C1451.31 1132.41 1444.35 1124.31 1433.32 1111.23ZM1382.79 1103.94C1376.55 1111.35 1355.42 1079.88 1337.61 1083.09C1326.45 1085.14 1357.19 1049.01 1362.44 1041.37C1362.82 1040.85 1363.28 1040.44 1363.79 1040.18C1364.3 1039.92 1364.84 1039.78 1365.39 1039.78L1372.93 1040.18C1373.66 1040.21 1374.37 1040.49 1374.98 1041.01C1375.6 1041.54 1376.09 1042.28 1376.4 1043.14C1378.09 1048.4 1381.8 1060.07 1384.79 1071.79C1385.92 1076.15 1393.82 1087.56 1394.56 1091.59C1396.34 1100.08 1384.72 1101.62 1382.76 1103.94H1382.79Z" fill="#343434"/>
<path d="M1323.05 58.8138C1321.32 55.3099 1317.48 60.4431 1314.3 58.954C1311.11 57.4648 1307.75 56.1858 1302.65 54.4864C1298.38 53.1199 1295.37 46.3047 1293.03 47.7063C1285.32 52.1913 1273.15 77.3672 1269.27 83.4991L1268.97 83.8846C1268.6 84.1492 1268.18 84.3046 1267.75 84.3401C1264.45 84.3401 1258.66 77.63 1253.14 69.6235L1242.47 60.5658C1240.46 54.8894 1240.38 50.9124 1234.78 49.0203C1229.89 47.2683 1227.11 46.7427 1224.91 45.8317L1219.01 40.8561C1214.56 35.4653 1209.41 31.141 1203.8 28.0842L1197.05 22.4603C1195.97 21.1113 1194.96 19.7097 1193.99 18.3782C1192.98 16.87 1191.81 15.5495 1190.52 14.4538C1188.05 8.61972 1188.14 -1.85163e-06 1186.06 -1.85163e-06C1183.97 -1.85163e-06 1179.93 12.5441 1177.32 17.0117C1176.21 19.044 1179.14 24.37 1178.11 26.8578C1177.09 29.3456 1171.91 29.1704 1171 31.8684C1170.08 34.5665 1173.7 40.6283 1172.98 43.2913C1172.27 45.9543 1166.69 46.9704 1166.23 49.3006C1163.94 61.5644 1170.89 69.6235 1181.95 82.6932C1190.8 93.2051 1208.22 129.033 1214.7 142.646C1214.38 143.378 1214.25 144.229 1214.35 145.064C1215.04 150.915 1221.59 162.583 1222.15 167.839C1223.49 179.37 1225.3 190.802 1227.55 202.09C1229.02 208.52 1247.8 208.748 1253.06 208.38C1253.47 208.398 1253.87 208.289 1254.24 208.065C1254.62 207.849 1254.95 207.526 1255.22 207.118C1261.7 197.658 1301.89 137.67 1303.21 113.528C1304.66 87.371 1312.6 98.5311 1320.16 88.5799C1321.88 86.3827 1323.08 83.5921 1323.61 80.5383C1324.9 73.3575 1324.7 65.8656 1323.05 58.8138ZM1252.84 152.615C1252.46 153.127 1252 153.527 1251.49 153.788C1250.99 154.069 1250.45 154.207 1249.91 154.191L1242.35 153.788C1241.62 153.773 1240.91 153.488 1240.3 152.965C1239.7 152.429 1239.24 151.689 1238.95 150.828C1237.26 145.572 1233.55 133.903 1230.56 122.183C1229.43 117.82 1221.53 106.415 1220.79 102.403C1218.98 93.9059 1230.59 92.3466 1232.56 90.034C1238.8 82.6231 1259.93 114.089 1277.75 110.882C1288.86 108.78 1258.11 144.906 1252.85 152.562L1252.84 152.615Z" fill="#343434"/>
<path d="M406.033 948.379C406.033 948.379 381.231 943.754 384.202 958.891C387.172 974.028 386.456 1025.34 378.95 1033.1C371.443 1040.87 363.248 1053.06 370.309 1062.12C377.37 1071.18 380.354 1078.18 392.923 1071.67C405.493 1065.15 458.755 1022.4 447.738 998.731C436.132 979.006 422.03 961.98 406.033 948.379Z" fill="#343434"/>
<path d="M397.118 592.435C397.118 592.435 409.068 621.048 416.634 608.908C424.199 596.769 456.408 566.998 465.715 570.227C475.022 573.457 487.408 574.707 488.848 561.952C490.288 549.197 492.824 541.921 481.304 532.691C469.785 523.461 411.616 493.319 403.523 518.995C398.198 542.828 396.033 567.661 397.118 592.435Z" fill="#343434"/>
<path d="M106.982 590.433C106.982 590.433 117.337 620.62 125.411 609.162C133.485 597.704 166.549 570.986 175.541 575.226C184.533 579.466 196.684 582.059 198.668 569.304C200.653 556.55 203.529 549.472 192.633 538.925C181.738 528.378 125.911 491.815 116.73 516.85C110.352 540.505 107.057 565.373 106.982 590.433Z" fill="#343434"/>
<path d="M509.236 905.999C522.481 915.249 508.007 969.929 493.035 983.086C478.062 996.243 473.593 964.585 473.593 964.585C473.593 964.585 459.808 872.326 509.236 905.999Z" fill="#343434"/>
<path d="M428.06 477.606C416.296 465.446 438.018 414.993 454.629 405.417C471.241 395.841 471.21 428.145 471.21 428.145C471.21 428.145 472.102 522.128 428.06 477.606Z" fill="#343434"/>
<path d="M223.146 645.533C211.4 633.269 232.084 581.901 248.231 572.16C264.379 562.419 264.878 595.216 264.878 595.216C264.878 595.216 267.106 690.664 223.146 645.533Z" fill="#343434"/>
<path d="M317.101 1017.46C330.723 1009.21 355.835 1056.97 355.025 1080.43C354.215 1103.88 331.938 1089.55 331.938 1089.55C331.938 1089.55 266.728 1048.68 317.101 1017.46Z" fill="#343434"/>
<path d="M339.013 284.906C325.39 293.141 300.278 245.399 301.088 221.94C301.898 198.481 324.162 212.812 324.162 212.812C324.162 212.812 389.372 253.633 339.013 284.906Z" fill="#343434"/>
<path d="M526.507 531.747C541.128 527.243 558.314 580.57 553.879 603.336C549.443 626.102 529.861 606.245 529.861 606.245C529.861 606.245 472.325 549.214 526.507 531.747Z" fill="#343434"/>
<path d="M164.47 958.926C178.106 950.692 203.205 998.433 202.395 1021.89C201.585 1045.35 179.321 1031.02 179.321 1031.02C179.321 1031.02 114.11 990.199 164.47 958.926Z" fill="#343434"/>
<path d="M47.0232 1093.97C46.2131 1117.43 23.9361 1103.1 23.9361 1103.1C15.6595 1097.7 7.94666 1090.96 0.984131 1083.04V1036.99C3.58638 1034.73 6.31693 1032.73 9.15234 1031C22.721 1022.77 47.8197 1070.51 47.0232 1093.97Z" fill="#343434"/>
<path d="M374.295 798.736C359.349 796.581 357.027 738.853 367.126 719.354C377.224 699.854 390.496 727.132 390.496 727.132C390.496 727.132 429.839 806.006 374.295 798.736Z" fill="#343434"/>
<path d="M186.153 658.813C175.676 673.249 152.049 640.487 154.115 629.677C156.18 618.868 163.66 590.468 172.368 594.638C181.076 598.808 198.479 642.221 186.153 658.813Z" fill="#343434"/>
<path d="M32.4015 411.889C23.3962 424.311 4.64307 401.78 0.916748 388.36V380.126C3.53598 367.967 10.5566 343.843 18.6168 347.627C27.3116 351.691 44.7281 395.333 32.4015 411.889Z" fill="#343434"/>
<path d="M302.533 1117.09C309.365 1134.95 278.231 1153.66 271.183 1147.51C264.136 1141.36 246.368 1122.65 252.147 1113.12C257.925 1103.59 294.77 1096.23 302.533 1117.09Z" fill="#343434"/>
<path d="M248.245 877.792C255.076 895.627 223.942 914.356 216.908 908.206C209.874 902.057 192.093 883.346 197.858 873.815C203.623 864.284 240.495 856.926 248.245 877.792Z" fill="#343434"/>
<path d="M484.07 1022.82C469.421 1030.9 456.703 1030.39 456.811 1044.42C456.919 1058.46 449.574 1069.11 458.863 1078.29C468.152 1087.47 478.696 1096.33 486.689 1070.89C488.921 1063.06 489.842 1054.7 489.389 1046.37C488.935 1038.11 487.121 1030.09 484.07 1022.82Z" fill="#343434"/>
<path d="M339.657 599.056C359.796 587.986 377.282 588.683 377.133 569.425C376.985 550.167 387.082 535.591 374.293 523.033C361.504 510.474 347.044 498.3 336.056 533.166C332.975 543.9 331.709 555.363 332.343 566.783C332.962 578.095 335.456 589.102 339.657 599.056Z" fill="#343434"/>
<path d="M330.359 428.288C330.791 430.635 342.51 459.193 332.195 460.051C321.88 460.909 299.792 461.663 298.685 454.007C297.578 446.351 283.024 433.386 299.225 427.867C309.475 424.722 320.162 424.867 330.359 428.288Z" fill="#343434"/>
<path d="M310.188 1190.78C309.756 1188.43 298.037 1159.9 308.352 1159.04C318.667 1158.18 340.755 1157.41 341.862 1165.06C342.969 1172.72 357.55 1185.68 341.308 1191.2C331.063 1194.35 320.381 1194.21 310.188 1190.78Z" fill="#343434"/>
<path d="M121.671 945.313C121.239 942.965 109.52 914.426 119.821 913.567C130.123 912.709 152.224 911.938 153.345 919.594C154.465 927.25 169.033 940.215 152.791 945.734C142.547 948.89 131.863 948.746 121.671 945.313Z" fill="#343434"/>
<path d="M151.468 1071.46C151.036 1069.11 139.317 1040.55 149.632 1039.69C159.947 1038.83 182.035 1038.08 183.142 1045.74C184.249 1053.39 198.817 1066.36 182.575 1071.88C172.333 1075.02 161.657 1074.87 151.468 1071.46Z" fill="#343434"/>
<path d="M63.8185 831.12C68.868 831.12 70.5691 825.145 72.3108 827.335C74.0524 829.525 72.6483 835.955 74.903 837.479C77.1577 839.003 79.8309 842.017 81.6536 839.231C83.4763 836.446 86.541 832.223 86.541 832.223C86.541 832.223 88.6607 842.928 89.8083 840.528C90.9559 838.127 98.3276 827.861 96.7209 818.225C95.1143 808.589 94.2907 782.292 94.2907 782.292C94.2907 782.292 107.697 802.002 114.88 798.831C122.063 795.66 126.505 783.063 128.638 777.895C130.771 772.726 138.777 755.241 138.777 755.241C138.777 755.241 146.743 809.728 145.595 814.633C144.448 819.539 148.849 842.665 150.28 847.185C151.711 851.705 155.681 854.105 157.8 851.565C159.92 849.025 163.889 841.053 169.951 846.537C176.013 852.021 172.057 853.44 181.549 837.602C191.04 821.764 198.56 834.361 201.504 817.769C204.447 801.178 209.388 805.611 201.504 801.441C193.619 797.271 170.302 806.101 172.908 792.156C175.514 778.21 177.985 771.517 186.193 770.974C192.934 770.601 199.414 767.488 204.717 762.074C209.955 757.204 211.278 756.555 208.173 753.717C205.068 750.879 208.173 748.584 211.278 745.816C214.384 743.048 220.297 742.435 210.306 740.21C200.315 737.984 183.182 744.467 189.069 732.886C194.955 721.306 205.743 714.999 219.987 713.615C234.23 712.23 240.441 705.661 237.808 702.612C235.176 699.564 226.845 697.969 231.773 695.447C236.701 692.924 249.244 693.502 244.532 690.436C239.82 687.37 189.933 682.324 185.032 689.823C180.131 697.321 166.468 770.957 163.214 753.016C159.96 735.076 151.752 661.493 138.561 673.88C125.37 686.266 122.792 720.412 121.509 727.455C120.226 734.498 113.948 762.267 110.56 750.826C107.171 739.386 101.838 681.781 89.0928 681.431C76.3476 681.08 72.0678 708.604 72.0678 708.604C72.0678 708.604 72.5268 745.395 71.3657 760.603C70.2046 775.81 57.095 831.049 63.8185 831.12Z" fill="#343434"/>
<path d="M151.32 880.35C157.401 899.789 165.363 918.145 175.014 934.977C188.988 957.524 213.142 989.918 222.268 1008.91C231.395 1027.9 246.152 1061.21 252.174 1074.12C257.304 1085.16 260.747 1095.14 261.03 1089.99C261.314 1084.84 258.195 1069.62 265.391 1075.2C272.587 1080.79 272.439 1090.5 278.042 1081.39C283.645 1072.28 278.474 1064.25 284.212 1066.74C289.95 1069.23 293.447 1079.01 294.689 1073.38C295.931 1067.76 301.696 1073.15 296.241 1058.47C290.787 1043.79 291.529 1043.04 286.791 1034.24C282.052 1025.45 282.133 1028.57 276.408 1017.25C270.684 1005.93 263.082 997.855 265.202 995.052C267.322 992.249 293.852 969.193 299.104 956.508C301.933 962.132 305.15 967.409 308.716 972.276C316.115 983.173 318.95 987.133 323.352 993.615C327.753 1000.1 327.848 1006.97 335.705 1003.32C343.563 999.677 345.818 998.065 350.273 1001.41C352.055 1003.17 354.246 1004.08 356.484 1004C358.751 1003.95 360.938 1002.91 362.694 1001.04C365.88 997.119 368.432 999.624 368.014 987.921C366.813 976.657 363.08 966.102 357.28 957.577C355.107 956.158 331.209 918.28 330.048 917.632C319.786 907.058 310.503 894.976 302.384 881.629L272.682 822.798C269.428 816.333 274.761 853.773 270.238 859.466C265.715 865.16 256.183 857.96 257.912 867.14C259.64 876.32 273.573 903.932 272.763 911.272C271.953 918.613 243.06 961.396 232.259 959.96C221.458 958.523 207.863 913.778 200.856 904.159C193.848 894.541 186.382 875.514 178.039 876.531C169.695 877.547 167.238 888.392 163.282 883.153C159.326 877.915 148.093 870.942 151.32 880.35Z" fill="#343434"/>
<path d="M359.521 487.417C368.963 477.865 377.465 466.845 384.836 454.602C394.53 437.275 407.788 408.648 416.388 396.437C424.989 384.226 440.393 363.955 446.307 355.826C451.356 348.818 456.176 343.685 453.314 344.508C450.452 345.332 442.81 351.288 444.552 343.597C446.293 335.906 451.559 334.031 445.645 330.825C439.732 327.619 436.316 333.961 436.64 328.232C436.964 322.503 441.582 317.353 438.368 317.37C435.155 317.388 437.018 311.046 430.052 319.017C423.085 326.989 422.545 326.48 418.643 332.63C414.741 338.779 416.402 338.043 411.298 345.559C406.195 353.075 403.198 361.66 401.294 360.329C399.39 358.997 382.244 339.62 374.454 337.553C376.995 333.819 379.285 329.81 381.299 325.569C385.849 316.599 387.496 313.201 390.223 307.875C392.95 302.548 396.636 301.024 393.274 294.647C389.913 288.27 388.616 286.535 389.656 281.805C390.291 279.847 390.396 277.666 389.953 275.621C389.525 273.591 388.572 271.816 387.253 270.592C384.553 268.508 385.471 265.669 379.22 268.473C373.312 271.932 368.287 277.505 364.733 284.538C364.355 286.798 348.14 316.301 347.991 317.493C344.088 329.008 339.211 339.926 333.451 350.045L306.934 389.166C304.032 393.458 323.298 380.897 327.186 383.823C331.074 386.748 328.847 396.892 333.505 393.441C338.162 389.99 350.611 371.629 354.701 370.823C358.792 370.017 387.104 387.467 388.184 397.523C389.264 407.579 367.582 429.216 363.612 437.573C359.643 445.93 350.705 456.617 352.73 463.993C354.755 471.369 361.047 471.386 358.927 476.047C356.808 480.707 355.025 492.287 359.521 487.417Z" fill="#343434"/>
<path d="M333.869 701.288C329.025 701.924 322.703 681.969 322.703 681.969C322.703 681.969 342.985 651.163 336.56 648.796C330.136 646.43 299.929 651.422 297.237 642.479C294.545 633.536 298.941 629.931 299.663 626.132C300.385 622.333 303.882 604.086 301.183 598.974C298.484 593.861 311.68 596.25 314.925 601.161C318.17 606.071 349.653 614.526 357.566 621.076C365.48 627.627 401.496 641.734 409.191 640.317C416.887 638.9 411.538 647.059 409.686 648.66C407.834 650.261 415.875 663.817 415.669 664.445C415.463 665.073 420.857 671.097 402.235 670.646C383.613 670.195 367.867 675.481 358.128 672.245C348.388 669.008 333.869 701.288 333.869 701.288Z" fill="#343434"/>
<path d="M264.784 409.639C262.246 413.633 249.933 406.853 249.933 406.853C249.933 406.853 248.407 373.793 243.722 377.297C239.037 380.801 223.632 406.415 218.151 403.156C212.67 399.898 213.736 394.624 212.521 391.874C211.306 389.123 205.473 375.966 201.72 375.02C197.967 374.074 206.635 365.559 210.644 365.962C214.654 366.365 236.526 347.584 243.938 345.411C251.35 343.239 278.326 324.388 282.174 317.73C286.021 311.073 286.48 319.92 286.062 322.18C285.643 324.44 296.188 326.297 296.282 326.753C296.377 327.208 302.169 326.753 291.165 340.453C280.162 354.154 273.317 369.08 266.269 374.529C259.222 379.978 264.784 409.639 264.784 409.639Z" fill="#343434"/>
<path d="M236.323 1105.43C236.323 1105.43 243.938 1076.96 236.148 1076.68C228.357 1076.4 201.315 1069.58 201.207 1059C201.099 1048.42 196.589 1077.82 192.039 1083.53C187.489 1089.24 185.626 1094.79 186.909 1100.19C188.191 1105.58 175.919 1108.32 177.674 1114.75C179.429 1121.18 183.372 1124.72 181.211 1131.32C179.051 1137.93 173.745 1145.21 173.907 1149.38C174.069 1153.55 189.312 1164.57 193.794 1157.41C198.277 1150.24 197.116 1118.62 201.193 1118.37C205.27 1118.13 213.56 1129.22 213.56 1129.22L212.291 1164.08C212.291 1164.08 221.958 1184.19 226.062 1164.77C230.167 1145.34 229.195 1141.99 229.195 1141.99C229.195 1141.99 235.77 1179.55 242.088 1177.62C244.979 1176.35 248.07 1176.03 251.08 1176.7C251.08 1176.7 262.367 1188.8 268.753 1178.62C275.139 1168.44 270.778 1167.03 268.064 1167.43C265.351 1167.83 242.52 1140.66 240.657 1127.13C239.722 1119.74 238.271 1112.48 236.323 1105.43Z" fill="#343434"/>
<path d="M421.512 917.241C421.512 917.241 437.726 938.819 441.402 929.91C445.078 921.002 461.878 892.662 469.227 897.258C476.576 901.854 458.328 883.473 456.482 875.667C454.636 867.861 451.584 863.189 447.289 862.272C442.994 861.355 446.618 845.862 441.401 845.034C436.184 844.206 431.979 847.175 428.393 841.716C424.806 836.256 422.165 826.822 419.219 825.145C416.272 823.468 401.852 836.226 404.84 844.67C407.827 853.114 430.086 865.882 428.429 870.707C426.772 875.531 415.411 880.202 415.411 880.202L391.955 863.133C391.955 863.133 373.757 865.41 385.322 878.793C396.887 892.175 399.586 892.625 399.586 892.625C399.586 892.625 370.753 883.42 369.249 891.618C368.836 895.551 367.668 899.286 365.854 902.482C365.854 902.482 352.475 910.15 356.628 922.111C360.782 934.072 363.722 929.654 364.647 926.344C365.573 923.033 394.53 908.668 404.767 912.625C410.231 914.808 415.835 916.353 421.512 917.241Z" fill="#343434"/>
<path d="M80.3035 1151.12C80.3035 1151.12 78.3053 1121.11 71.1227 1124.96C63.9401 1128.81 37.0727 1136.89 33.6569 1127.29C30.2411 1117.69 35.3446 1146.91 32.9684 1154.48C30.5922 1162.05 30.6327 1168.15 33.5084 1172.4C36.3842 1176.66 26.0153 1185.63 29.6471 1190.57C33.2789 1195.51 37.9638 1196.67 38.0853 1203.85C38.2068 1211.04 35.6146 1220.48 37.0727 1224.19C38.5309 1227.91 55.9744 1229.92 57.7566 1221C59.5387 1212.09 48.6028 1183.83 52.2616 1181.46C55.9204 1179.1 67.0049 1184.83 67.0049 1184.83L76.7932 1217.34C76.7932 1217.34 91.9415 1230.57 89.5923 1210.68C87.2431 1190.8 85.326 1188.26 85.326 1188.26C85.326 1188.26 103.121 1219.09 108.278 1213.98C110.519 1211.29 113.243 1209.36 116.203 1208.39C116.203 1208.39 130.312 1213.47 132.945 1200.8C135.577 1188.14 131.149 1189.14 128.8 1190.94C126.451 1192.74 97.018 1180.08 91.064 1168.6C87.883 1162.37 84.282 1156.52 80.3035 1151.12Z" fill="#343434"/>
<path d="M276.273 542.113C276.273 542.113 294.716 560.649 297.173 550.996C299.63 541.343 312.47 509.649 320.125 512.856C327.78 516.062 307.825 501.117 305.058 493.584C302.29 486.05 298.753 481.986 294.459 481.898C290.166 481.811 291.759 465.57 286.588 465.745C281.417 465.92 277.704 469.704 273.532 464.921C269.361 460.139 265.634 451.169 262.569 450.065C259.505 448.961 247.057 464.536 250.958 472.42C254.86 480.304 278.123 488.836 277.11 494.022C276.098 499.208 265.648 506.058 265.648 506.058L240.725 493.444C240.725 493.444 223.335 499.208 236.229 510.473C249.122 521.738 251.796 521.598 251.796 521.598C251.796 521.598 222.633 517.919 222.201 526.451C222.287 530.453 221.62 534.422 220.257 538.014C220.257 538.014 208.2 548.298 213.722 559.511C219.244 570.723 221.553 565.713 222.039 562.191C222.525 558.67 248.893 538.68 259.275 540.659C264.895 541.821 270.585 542.308 276.273 542.113Z" fill="#343434"/>
<path d="M583.151 660.599C583.151 660.599 590.513 677.329 593.771 672.43C597.028 667.531 610.528 652.957 614.427 657.262C618.326 661.568 609.4 646.472 609.187 641.168C608.974 635.863 607.658 632.355 605.15 630.946C602.642 629.537 606.628 620.492 603.555 618.96C600.482 617.428 597.589 618.479 596.034 614.348C594.479 610.217 593.973 603.764 592.378 602.146C590.783 600.528 580.54 605.75 581.354 611.619C582.167 617.488 594.242 629.86 592.673 632.588C591.104 635.317 583.674 636.041 583.674 636.041L571.389 620.744C571.389 620.744 560.083 618.634 565.548 629.334C571.013 640.034 572.611 640.797 572.611 640.797C572.611 640.797 556.156 629.413 554.3 634.293C553.599 636.673 552.462 638.796 550.986 640.477C550.986 640.477 541.966 642.711 543.107 651.05C544.248 659.388 546.547 657.172 547.494 655.255C548.441 653.338 567.697 649.923 573.43 654.369C576.516 656.829 579.77 658.915 583.151 660.599Z" fill="#343434"/>
<path d="M458.661 130.802C441.987 107.151 405.722 59.9876 389.548 46.9529C373.374 33.9182 364.368 30.607 357.145 35.092C349.922 39.5771 344.711 36.5111 337.528 42.0999C336.066 49.8435 332.899 56.8681 328.415 62.3177C321.205 70.587 322.785 74.967 330.507 88.8076C338.23 102.648 330.737 121.727 334.382 140.053C337.298 154.594 376.938 161.077 393.112 163.267C393.794 163.328 394.452 163.624 395.016 164.125C395.574 164.636 396.016 165.331 396.299 166.138C396.581 166.944 396.693 167.834 396.623 168.715C396.548 169.614 396.302 170.475 395.907 171.22C369.094 222.518 392.235 257.277 411.096 281.174C430.902 305.702 458.566 288.953 472.378 289.093C486.189 289.234 497.8 248.097 506.293 210.675C514.785 173.253 475.335 154.472 458.661 130.802ZM428.337 249.166C397.028 224.883 422.936 173.043 424.867 161.707C426.798 150.372 438.787 158.554 445.753 172.867C452.72 187.181 478.048 207.189 478.048 207.189C478.048 207.189 459.363 273.431 428.337 249.166Z" fill="#343434"/>
<path d="M354.796 804.192C345.939 793.68 328.523 757.852 322.056 744.239C322.369 743.503 322.488 742.653 322.393 741.821C321.705 735.97 315.157 724.302 314.59 719.046C313.247 707.515 311.445 696.083 309.189 684.795C307.717 678.365 288.937 678.137 283.699 678.505C283.289 678.484 282.881 678.592 282.511 678.82C282.131 679.033 281.793 679.357 281.525 679.766C275.058 689.227 234.852 749.215 233.542 773.357C232.084 799.514 224.091 788.354 216.584 798.323C214.862 800.511 213.662 803.296 213.128 806.347C211.873 813.567 212.101 821.089 213.79 828.159C215.518 831.663 219.366 826.529 222.538 828.018C225.711 829.508 229.087 830.787 234.19 832.486C238.456 833.853 241.481 840.668 243.803 839.266C251.525 834.781 263.69 809.605 267.565 803.473L267.862 803.088C268.241 802.823 268.661 802.668 269.091 802.632C272.385 802.632 278.19 809.342 283.699 817.349L294.365 826.372C296.39 832.031 296.457 836.025 302.06 837.9C306.948 839.652 309.743 840.195 311.93 841.106L317.843 846.081C322.268 851.45 327.393 855.757 332.978 858.801L339.729 864.425C340.809 865.774 341.821 867.175 342.793 868.507C343.811 870.015 344.983 871.336 346.277 872.431C348.747 878.283 348.639 886.937 350.746 886.885C352.852 886.832 356.862 874.341 359.494 869.873C360.602 867.841 357.658 862.532 358.684 860.027C359.71 857.522 364.881 857.714 365.799 855.016C366.718 852.318 363.099 846.257 363.815 843.594C364.53 840.931 370.106 839.897 370.565 837.584C372.807 825.373 365.853 817.261 354.796 804.192ZM304.261 796.903C298.024 804.314 276.894 772.849 259.086 776.055C247.921 778.105 278.676 741.979 283.915 734.323C284.299 733.817 284.758 733.418 285.265 733.149C285.77 732.877 286.312 732.74 286.858 732.746L294.419 733.149C295.149 733.169 295.86 733.454 296.471 733.972C297.063 734.512 297.529 735.251 297.821 736.11C299.509 741.366 303.222 753.034 306.205 764.755C307.339 769.117 315.238 780.522 315.994 784.535C317.857 793.032 306.232 794.643 304.261 796.903Z" fill="#343434"/>
</svg>