<svg width="728" height="381" viewBox="0 0 728 381" fill="none" xmlns="http://www.w3.org/2000/svg">
<path d="M671.272 147.143C671.272 147.143 656.301 156.339 677.889 72.8823C677.889 72.8823 685.523 53.4788 682.975 35.9283C681.839 27.9614 676.339 41.864 672.271 36.4898C670.395 34.0295 666.871 10.6747 664.147 9.41295C662.039 8.36639 659.978 14.1293 658.013 13.438C654.201 11.898 650.571 4.06276 647.253 3.36095C645.319 2.92821 642.729 12.6848 640.998 12.5495C639.268 12.4142 631.488 0.457207 629.934 0.385747C622.86 1.21508 624.39 13.4058 622.91 19.7263C620.069 32.3872 627.682 133.93 624.951 143.636C622.22 153.342 601.818 156.993 597.65 148.528C593.045 139.15 569.767 107.897 560.025 81.1447C555.158 67.7302 547.667 47.783 535.76 40.3177C529.451 36.3646 538.669 47.1214 530.586 47.7731C526.645 48.2351 512.106 30.932 507.818 32.6861C504.383 34.0781 516.054 58.9889 512.413 61.4365C509.358 63.545 490.9 45.0187 489.405 49.9882C488.287 53.4252 490.97 67.0196 492.157 71.4464C493.343 75.8732 492.13 92.833 497.6 97.916C497.6 97.916 520.135 114.045 528.762 124.871C534.841 132.487 548.648 151.693 556.277 162.366C557.681 164.324 558.338 166.721 558.129 169.122C557.919 171.524 556.856 173.77 555.133 175.454C544.586 185.788 525.863 209.163 536.897 236.778C542.272 250.201 546.86 274.716 556.43 281.99C560.671 285.23 569.619 273.367 573.707 275.602C576.808 277.259 580.975 289.969 583.687 291.123C591.761 294.641 596.146 284.707 596.146 284.707C611.683 287.754 627.676 287.605 643.153 284.27C650.501 282.749 661.433 289.534 669.557 286.129C675.194 283.777 677.802 271.947 683.745 268.308C692.801 263.45 701.274 257.574 709.001 250.795C761.066 200.699 689.967 142.33 671.272 147.143ZM681.587 219.351C672.415 232.619 635.862 250.686 612.081 250.371C593.267 250.133 574.812 244.822 562.957 234.839L572.896 215.724L596.21 242.745L605.838 215.565L630.513 241.006L637.273 209.47L660.521 226.64L665.228 193.865L687.39 208.254C685.885 212.16 683.937 215.88 681.586 219.343L681.587 219.351ZM688.539 205.084L662.742 188.297L658.056 220.74L635.122 203.804L628.63 234.319L604.516 209.472L594.991 236.309L572.217 209.927L560.442 232.555C558.389 230.568 556.568 228.353 555.014 225.954C545.432 211.012 548.538 201.694 559.535 203.711C628.936 215.673 679.463 167.008 687.06 175.173C692.727 181.146 692.344 193.587 688.538 205.075L688.539 205.084Z" fill="#E72A70"/>
<path d="M688.538 205.075L662.742 188.297L658.056 220.74L635.122 203.804L628.63 234.319L604.516 209.472L594.991 236.309L572.217 209.927L560.442 232.555C558.389 230.568 556.568 228.353 555.014 225.954C545.432 211.012 548.538 201.694 559.535 203.711C628.936 215.673 679.463 167.008 687.06 175.173C692.727 181.146 692.344 193.587 688.538 205.075Z" fill="white"/>
<path d="M687.389 208.245C685.884 212.154 683.938 215.878 681.586 219.343C672.414 232.611 635.861 250.678 612.08 250.363C593.266 250.125 574.811 244.814 562.956 234.831L572.895 215.715L596.209 242.736L605.837 215.557L630.511 240.998L637.273 209.47L660.521 226.64L665.228 193.865L687.389 208.245Z" fill="white"/>
<path d="M0.705193 154.993C0.705193 154.993 -1.81264 185.034 3.52484 210.027C8.86232 235.021 20.5722 272.653 22.4539 292.234C24.3356 311.816 26.3577 345.493 27.4434 358.717C28.3708 370.014 28.0101 379.907 30.2291 375.707C32.4482 371.506 35.1586 358.311 40.1972 366.345C45.2358 374.379 41.4096 381.803 50.441 377.709C59.4724 373.614 57.3808 364.491 62.1787 369.391C66.9766 374.29 66.7277 383.697 70.0245 379.97C73.3212 376.244 77.0294 383.377 77.2517 369.205C77.474 355.033 78.4225 354.694 76.9843 345.308C75.5461 335.922 74.4955 338.489 73.1119 326.687C71.7283 314.885 67.2319 304.631 70.3975 303.533C73.5631 302.435 108.776 297.943 118.826 290.719C119.511 296.59 120.699 302.392 122.379 308.059C125.643 320.41 126.936 324.951 128.856 332.327C130.777 339.703 128.24 345.082 137.462 346.293C146.685 347.503 149.535 347.321 152.689 352.244C155.842 357.167 160.507 359.783 165.234 358.383C169.961 356.983 171.485 360.187 175.54 350.825C179.596 341.463 177.978 323.702 176.324 321.478C174.669 319.254 165.323 277.287 164.406 276.168C163.489 275.049 152.169 247.299 150.582 233.762L143.367 172.216C142.572 165.435 133.667 197.552 126.774 199.713C119.881 201.874 113.412 191.362 111.614 199.377C109.817 207.392 113.228 236.272 109.575 241.427C105.922 246.582 61.2982 265.401 51.1545 258.854C41.0107 252.306 44.3791 210.066 41.0941 198.977C37.8091 187.889 37.5897 169.084 28.8581 165.576C20.1265 162.068 13.7105 169.305 11.643 163.197C9.57543 157.09 1.29455 145.97 0.705193 154.993Z" fill="#E72A70"/>
<path d="M60.9936 216.616C67.218 215.886 68.522 210.077 70.7388 211.838C72.9556 213.599 72.0632 219.749 75.0939 220.814C78.1245 221.879 81.5405 224.286 83.4215 221.453C85.3025 218.619 88.6562 214.227 88.6562 214.227C88.6562 214.227 92.378 223.709 93.5295 221.426C94.681 219.143 102.299 208.4 99.4458 199.839C96.5924 191.279 92.5976 166.931 92.5976 166.931C92.5976 166.931 111.004 183.146 119.452 179.121C127.9 175.095 131.89 162.722 133.865 157.595C135.84 152.468 143.766 135.051 143.766 135.051C143.766 135.051 159.416 184.32 158.543 189.047C157.67 193.775 165.575 214.662 167.837 218.464C170.099 222.266 175.118 224.223 177.469 221.368C179.821 218.514 183.688 210.721 191.631 214.855C199.575 218.988 195.003 221.063 204.819 204.853C214.635 188.644 225.351 199.14 226.941 183.447C228.531 167.754 235.16 170.984 225.167 168.317C215.174 165.65 187.657 177.348 189.334 164.062C191.012 150.777 193.285 144.228 203.331 142.586C211.57 141.261 219.196 137.413 225.159 131.571C231.136 126.212 232.521 125.635 228.412 123.293C224.302 120.95 228.045 118.508 231.33 115.476C234.616 112.444 241.889 110.932 229.491 110.238C217.094 109.544 196.955 118.322 202.896 106.744C208.837 95.1654 221.149 87.5666 238.32 84.1669C255.491 80.7672 262.318 73.6507 258.792 71.4515C255.265 69.2523 244.971 68.8441 250.661 65.7926C256.351 62.7411 271.735 61.3098 265.843 59.1848C259.951 57.0599 198.532 60.0072 193.35 67.6833C188.168 75.3595 179.679 145.612 173.784 129.477C167.888 113.342 149.68 46.3632 134.95 59.9274C120.221 73.4916 120.552 105.279 119.933 111.963C119.315 118.648 114.552 145.316 109.143 135.212C103.735 125.108 90.6792 72.389 75.4058 74.1795C60.1323 75.9701 57.6578 101.914 57.6578 101.914C57.6578 101.914 62.2354 135.917 62.5282 150.231C62.821 164.545 52.8527 217.57 60.9936 216.616Z" fill="#E72A70"/>
<path d="M11.3722 139.199C11.6188 134.097 23.1964 135.006 24.3959 137.672C25.5954 140.339 28.6041 147.917 25.7071 148.857C22.8102 149.797 11.1253 145.308 11.3722 139.199Z" fill="#E72A70"/>
<path d="M66.8825 226.571C64.4671 231.547 61.0418 234.392 63.4313 237.122C65.8209 239.852 65.885 243.641 69.9374 243.335C73.9899 243.029 78.2699 242.358 75.9561 235.518C75.1986 233.448 73.9918 231.572 72.4228 230.025C70.8538 228.478 68.9616 227.298 66.8825 226.571Z" fill="#E72A70"/>
<path d="M165.572 241.804C165.424 235.21 186.243 228.338 186.243 228.338C186.243 228.338 215.242 257.669 218.222 249.287C221.201 240.906 219.28 200.241 228.645 197.334C238.01 194.426 241.111 200.565 244.885 201.771C248.659 202.978 266.78 209.123 272.148 205.847C277.516 202.571 273.81 220.026 268.527 224.027C263.244 228.029 251.457 269.362 244.02 279.492C236.584 289.623 218.61 336.543 219.235 346.92C219.86 357.298 212.113 349.573 210.753 346.984C209.394 344.396 194.787 353.887 194.317 353.773C193.848 353.659 187.052 360.248 189.419 335.408C191.786 310.567 188.109 289.285 192.416 276.453C196.723 263.62 165.572 241.804 165.572 241.804Z" fill="#E72A70"/>
<path d="M179.265 368.254C178.719 367.853 170.785 364.953 173.284 362.344C175.782 359.734 181.377 354.783 182.92 356.056C184.463 357.33 190.535 356.525 187.227 361.242C185.155 364.168 182.428 366.57 179.265 368.254Z" fill="#E72A70"/>
<path d="M241.461 355.941C240.146 357.98 244.988 364.414 246.438 362.367C247.887 360.32 249.515 356.189 247.173 355.668C245.273 355.325 243.32 355.418 241.461 355.941Z" fill="#E72A70"/>
<path d="M234.072 321.734C232.94 324.184 225.818 339.232 230.251 338.712C234.684 338.193 237.415 331.658 237.781 329.163C238.147 326.668 234.072 321.734 234.072 321.734Z" fill="#E72A70"/>
<path d="M353.463 205.234C349.617 195.767 324.702 197.098 302.641 199.854C280.579 202.609 281.836 234.228 274.12 251.198C266.404 268.168 251.892 304.121 249.621 318.33C247.35 332.539 248.201 339.72 252.569 343.477C256.937 347.235 256.839 351.728 261.832 355.413C266.314 354.675 270.913 355.286 275.047 357.17C281.456 360.248 283.317 358.111 288.395 349.618C293.473 341.126 305.645 341.846 314.241 335.123C321.071 329.756 313.257 300.859 309.805 289.139C309.593 288.399 309.68 287.605 310.048 286.929C310.416 286.253 311.036 285.749 311.772 285.526C312.228 285.396 312.709 285.374 313.175 285.463C347.752 292.19 359.493 268.196 366.535 249.656C373.948 230.101 357.333 214.826 353.463 205.234ZM344.9 244.879C341.035 272.144 306.425 266.215 299.929 267.442C293.434 268.669 294.3 258.547 299.851 250.422C305.403 242.297 308.758 220.19 308.758 220.19C308.758 220.19 348.874 217.601 344.933 244.875L344.9 244.879Z" fill="#E72A70"/>
<path d="M348.623 295.512C348.623 295.512 323.367 297.247 326.628 305.033C329.889 312.818 336.56 341.917 328.533 345.496C320.506 349.075 344.861 343.98 351.346 346.627C357.831 349.274 362.861 349.31 366.512 346.303C370.164 343.296 377.612 354.522 381.751 350.697C385.889 346.872 386.854 341.771 392.895 341.781C398.935 341.792 406.876 344.674 410.017 343.08C413.158 341.486 414.912 322.873 407.394 320.71C399.876 318.548 376.104 330.128 374.115 326.134C372.127 322.139 377.017 310.32 377.017 310.32L404.322 300.194C404.322 300.194 415.438 284.052 398.766 286.303C382.093 288.553 379.887 290.63 379.887 290.63C379.887 290.63 405.834 271.658 401.518 266.186C399.281 263.731 397.685 260.761 396.872 257.54C396.872 257.54 401.136 242.395 390.519 239.379C379.902 236.362 380.826 241.141 382.235 243.647C383.644 246.154 373.034 277.786 363.361 284.044C358.101 287.397 353.166 291.237 348.623 295.512Z" fill="#E72A70"/>
<path d="M512.967 205.01C482.472 187.701 486.095 179.7 459.074 181.582C432.053 183.465 430.828 185.621 410.717 191.614C402.865 193.955 397.553 195.694 394.026 196.877C391.237 197.762 388.806 199.521 387.092 201.895C385.378 204.268 384.471 207.13 384.506 210.059C384.556 211.83 385.025 213.565 385.874 215.12C386.723 216.675 387.927 218.007 389.39 219.007C396.007 223.651 410.251 234.114 411.036 246.215C411.821 258.315 416.566 316.439 425.086 322.111C428.379 324.262 436.952 335.136 444.654 336.347C449.992 337.345 453.725 329.205 459.823 329.411C467.748 329.641 477.735 338.819 484.339 337.149C488.574 336.094 491.302 324.994 496.215 323.166C513.522 316.673 532.355 305.537 532.627 291.79C532.905 274.204 543.468 222.361 512.967 205.01ZM463.447 285.391C466.236 256.798 450.792 256.698 442.344 242.283C441.091 240.126 440.739 237.562 441.366 235.148C441.992 232.734 443.547 230.665 445.69 229.393C446.378 228.985 447.116 228.669 447.886 228.451C461.561 224.768 483.528 222.649 491.751 243.145C504.098 273.819 462.856 290.796 463.447 285.391Z" fill="#E72A70"/>
<path d="M500.519 123.903C494.947 121.335 485.99 114.894 477.019 107.896C476.011 102.342 474.344 96.9289 472.053 91.7707C466.47 79.3027 465.105 94.4707 463.848 93.3245C463.328 93.4464 462.847 93.6943 462.447 94.0466C462.046 94.3988 461.738 94.8445 461.55 95.3441C457.572 92.031 454.136 89.0939 451.685 86.9885C451.817 86.3046 451.734 85.5963 451.447 84.9617C449.308 80.5535 439.817 73.3717 437.731 69.4139C430.6 55.6391 424.698 45.5758 423.628 44.0103C420.551 39.3823 400.662 45.316 395.45 47.0515C395.017 47.1613 394.616 47.3706 394.278 47.6626C393.94 47.9547 393.674 48.3216 393.502 48.7342C389.046 58.3461 361.818 118.992 366.353 138.584C371.256 159.798 360.248 153.513 354.79 163.876C353.541 166.169 352.967 168.769 353.135 171.376C353.399 175.572 356.133 185.931 359.196 188.421C362.259 190.912 364.613 185.343 368.294 185.469C371.974 185.596 375.804 185.552 381.479 185.251C386.267 184.952 391.081 189.41 393.173 187.516C400.096 181.216 406.659 157.508 409.211 151.391L409.424 150.969C409.762 150.642 410.158 150.38 410.592 150.198C414.032 149.135 421.732 152.562 429.466 157.143L442.807 160.77C446.295 164.589 447.323 167.74 453.656 167.429C459.18 167.213 462.231 166.72 464.745 166.763L472.11 168.775C478.09 171.609 484.524 173.36 491.114 173.945L499.537 176.264C500.974 176.992 502.393 177.781 503.729 178.52C505.158 179.402 506.704 180.075 508.322 180.519C512.348 184.376 514.339 191.279 516.534 190.548C519.328 189.594 519.858 178.617 521.459 173.973C522.124 172.009 517.743 168.718 518.199 166.416C518.656 164.113 524.066 162.422 524.395 160.109C524.723 157.796 519.464 154.075 519.517 151.718C519.57 149.361 525.331 147.274 525.198 145.269C524.514 134.754 515.287 130.695 500.519 123.903ZM446.014 134.521L446.032 134.679C441.484 142.357 418.903 109.408 396.025 130.632C395.59 131.04 395.038 131.3 394.446 131.374C393.855 131.448 393.256 131.333 392.734 131.045C392.212 130.756 391.795 130.31 391.542 129.77C391.29 129.23 391.215 128.623 391.328 128.038C392.961 118.545 406.779 97.5712 409.55 91.5898C409.815 91.0562 410.192 90.5862 410.655 90.2122C411.119 89.8383 411.658 89.5691 412.235 89.4233L420.202 87.2718C420.972 87.0368 421.793 87.0286 422.568 87.2482C423.343 87.4677 424.038 87.9057 424.571 88.5099C427.621 92.0501 434.382 100.152 440.35 108.475C442.591 111.518 453.655 118.059 455.421 121.023C458.99 127.115 447.508 132.063 445.993 134.557L446.014 134.521Z" fill="#E72A70"/>
<path d="M351.522 54.2982C351.522 54.2982 344.354 59.0787 347.729 61.3549C351.104 63.6311 359.881 74.0761 359.09 77.4156C358.298 80.7552 358.453 84.9563 361.813 85.1543C365.173 85.3523 367.13 86.0529 369.35 81.8609C371.57 77.6689 377.857 56.9352 370.955 54.7003C364.054 52.4655 351.522 54.2982 351.522 54.2982Z" fill="#E72A70"/>
<path d="M239.929 140.4C240.263 137.918 238.185 115.154 252.018 96.2417C265.85 77.3291 284.954 51.7952 303.927 51.0844C322.9 50.3736 358.639 67.0853 355.417 115.624C355.417 115.624 356.554 119.989 348.408 117.799C340.262 115.609 340.576 123.046 336.028 123.157C331.479 123.267 327.452 127.46 322.423 118.14C317.394 108.819 301.45 78.3809 277.09 106.924C252.73 135.467 264.488 160.824 264.488 160.824C264.488 160.824 267.614 171.999 286.814 162.773C306.013 153.546 258.638 154.873 273.074 133.479C287.511 112.086 294.408 127.038 310.472 129.687C326.537 132.336 337.055 131.128 341.468 140.596C345.881 150.065 346.881 176.319 329.829 180.737C312.777 185.154 291.277 187.37 284.733 190.42C278.19 193.47 268.481 206.699 260.988 194.591C253.495 182.482 233.54 189.015 239.929 140.4Z" fill="#E72A70"/>
<path d="M529.089 162.535C531.165 157.692 545.91 161.484 549.724 166.423C553.539 171.362 545.606 173.518 545.606 173.518C545.606 173.518 521.432 180.588 529.089 162.535Z" fill="#E72A70"/>
</svg>