<svg width="60" height="45" viewBox="0 0 60 45" fill="none" xmlns="http://www.w3.org/2000/svg">
<path d="M50.7676 3.73978C46.9675 1.99648 42.8531 0.731188 38.5672 0.000129336C38.5297 -0.0010533 38.4923 0.00588636 38.4577 0.0204605C38.4232 0.0350347 38.3923 0.0568894 38.3672 0.0844828C37.8529 1.01236 37.2529 2.22142 36.8529 3.1493C32.3071 2.47448 27.6841 2.47448 23.1382 3.1493C22.7382 2.19331 22.1382 1.01236 21.5953 0.0844828C21.5668 0.0282476 21.4811 0.000129336 21.3953 0.000129336C17.1095 0.731188 13.0237 1.99648 9.19501 3.73978C9.16643 3.73978 9.13786 3.76789 9.10929 3.79601C1.33765 15.2399 -0.805268 26.3745 0.251904 37.3966C0.251904 37.4528 0.280476 37.5091 0.337621 37.5372C5.48062 41.2487 10.4236 43.4981 15.3095 44.9884C15.3952 45.0165 15.4809 44.9883 15.5095 44.9321C16.6524 43.3856 17.681 41.7548 18.5667 40.0396C18.6238 39.9272 18.5667 39.8147 18.4524 39.7866C16.8238 39.168 15.2809 38.4369 13.7666 37.5934C13.6523 37.5372 13.6523 37.3685 13.738 37.2841C14.0523 37.0592 14.3666 36.8061 14.6809 36.5812C14.738 36.5249 14.8237 36.5249 14.8809 36.5531C24.7097 40.9675 35.31 40.9675 45.0246 36.5531C45.0817 36.5249 45.1674 36.5249 45.2246 36.5812C45.5389 36.8342 45.8531 37.0592 46.1674 37.3122C46.2817 37.3966 46.2817 37.5653 46.1389 37.6215C44.6531 38.4932 43.0816 39.1961 41.453 39.8147C41.3387 39.8428 41.3102 39.9834 41.3387 40.0678C42.2531 41.7829 43.2817 43.4138 44.396 44.9602C44.4817 44.9884 44.5674 45.0165 44.6531 44.9884C49.5675 43.4981 54.5105 41.2487 59.6535 37.5372C59.7107 37.5091 59.7392 37.4528 59.7392 37.3966C60.9964 24.6593 57.6535 13.6091 50.8819 3.79601C50.8533 3.76789 50.8247 3.73978 50.7676 3.73978ZM20.0524 30.6765C17.1095 30.6765 14.6523 28.0053 14.6523 24.7155C14.6523 21.4258 17.0524 18.7546 20.0524 18.7546C23.0811 18.7546 25.4812 21.4539 25.4526 24.7155C25.4526 28.0053 23.0525 30.6765 20.0524 30.6765ZM39.9673 30.6765C37.0243 30.6765 34.5671 28.0053 34.5671 24.7155C34.5671 21.4258 36.9672 18.7546 39.9673 18.7546C42.9959 18.7546 45.396 21.4539 45.3674 24.7155C45.3674 28.0053 42.9959 30.6765 39.9673 30.6765Z" fill="white"/>
</svg>