<svg width="56" height="56" viewBox="0 0 56 56" fill="none" xmlns="http://www.w3.org/2000/svg">
<path d="M27.9993 39.1104C34.1357 39.1104 39.1104 34.1357 39.1104 27.9993C39.1104 21.8628 34.1357 16.8882 27.9993 16.8882C21.8628 16.8882 16.8882 21.8628 16.8882 27.9993C16.8882 34.1357 21.8628 39.1104 27.9993 39.1104Z" stroke="white" stroke-width="5" stroke-linecap="round" stroke-linejoin="round"/>
<path d="M3 39.1111V16.8889C3 9.21828 9.21828 3 16.8889 3H39.1111C46.7817 3 53 9.21828 53 16.8889V39.1111C53 46.7817 46.7817 53 39.1111 53H16.8889C9.21828 53 3 46.7817 3 39.1111Z" stroke="white" stroke-width="5"/>
<path d="M43.2773 12.7506L43.3047 12.7202" stroke="white" stroke-width="5" stroke-linecap="round" stroke-linejoin="round"/>
</svg>