<svg width="60" height="60" viewBox="0 0 60 60" fill="none" xmlns="http://www.w3.org/2000/svg">
<path d="M43.8462 0H16.1538C11.871 0.00458142 7.76485 1.70797 4.73641 4.73641C1.70797 7.76485 0.00458142 11.871 0 16.1538V43.8462C0.00458142 48.129 1.70797 52.2351 4.73641 55.2636C7.76485 58.292 11.871 59.9954 16.1538 60H43.8462C48.129 59.9954 52.2351 58.292 55.2636 55.2636C58.292 52.2351 59.9954 48.129 60 43.8462V16.1538C59.9954 11.871 58.292 7.76485 55.2636 4.73641C52.2351 1.70797 48.129 0.00458142 43.8462 0ZM30 43.8462C27.2615 43.8462 24.5845 43.0341 22.3075 41.5127C20.0305 39.9912 18.2558 37.8287 17.2078 35.2987C16.1598 32.7686 15.8856 29.9846 16.4199 27.2987C16.9542 24.6129 18.2729 22.1457 20.2093 20.2093C22.1457 18.2729 24.6129 16.9542 27.2987 16.4199C29.9846 15.8856 32.7686 16.1598 35.2987 17.2078C37.8287 18.2558 39.9912 20.0305 41.5127 22.3075C43.0341 24.5845 43.8462 27.2615 43.8462 30C43.8423 33.6711 42.3823 37.1907 39.7865 39.7865C37.1907 42.3823 33.6711 43.8423 30 43.8462ZM47.3077 16.1538C46.6231 16.1538 45.9538 15.9508 45.3846 15.5705C44.8153 15.1901 44.3716 14.6495 44.1096 14.017C43.8477 13.3845 43.7791 12.6885 43.9127 12.017C44.0462 11.3455 44.3759 10.7287 44.86 10.2446C45.3441 9.76052 45.9609 9.43085 46.6324 9.29728C47.3039 9.16372 47.9999 9.23227 48.6324 9.49426C49.2649 9.75626 49.8055 10.1999 50.1859 10.7692C50.5662 11.3384 50.7692 12.0077 50.7692 12.6923C50.7692 13.6104 50.4045 14.4908 49.7554 15.14C49.1062 15.7891 48.2257 16.1538 47.3077 16.1538ZM39.2308 30C39.2308 31.8257 38.6894 33.6103 37.6751 35.1283C36.6608 36.6463 35.2192 37.8295 33.5325 38.5281C31.8458 39.2268 29.9898 39.4096 28.1992 39.0534C26.4086 38.6972 24.7638 37.8181 23.4729 36.5271C22.1819 35.2362 21.3028 33.5914 20.9466 31.8008C20.5904 30.0102 20.7732 28.1542 21.4719 26.4675C22.1705 24.7808 23.3537 23.3392 24.8717 22.3249C26.3897 21.3106 28.1743 20.7692 30 20.7692C32.4482 20.7692 34.796 21.7418 36.5271 23.4729C38.2582 25.204 39.2308 27.5518 39.2308 30Z" fill="white"/>
</svg>