<svg width="60" height="60" viewBox="0 0 60 60" fill="none" xmlns="http://www.w3.org/2000/svg">
<path d="M30 0C13.435 0 0 13.435 0 30C0 46.565 13.435 60 30 60C46.565 60 60 46.565 60 30C60 13.435 46.5725 0 30 0ZM14.8 31.0075L14.9275 30.805L22.735 18.595C22.7611 18.5549 22.7976 18.5225 22.8405 18.5012C22.8835 18.48 22.9313 18.4707 22.9791 18.4743C23.0269 18.4778 23.0728 18.4942 23.1121 18.5216C23.1514 18.549 23.1826 18.5864 23.2025 18.63C24.5025 21.5525 25.6325 25.1875 25.1025 27.45C24.8825 28.38 24.265 29.64 23.5675 30.805C23.478 30.9754 23.3804 31.1414 23.275 31.3025C23.2498 31.3384 23.216 31.3675 23.1767 31.3871C23.1374 31.4068 23.0939 31.4164 23.05 31.415H15.0325C14.9846 31.4157 14.9375 31.4035 14.896 31.3796C14.8546 31.3557 14.8204 31.321 14.797 31.2792C14.7737 31.2374 14.7621 31.1901 14.7635 31.1423C14.7649 31.0944 14.7793 31.0478 14.805 31.0075H14.8ZM49.585 35.2075C49.5856 35.2609 49.5706 35.3133 49.5417 35.3582C49.5128 35.403 49.4713 35.4385 49.4225 35.46C48.815 35.7175 46.7475 36.6725 45.8875 37.865C43.6925 40.92 42.0175 45.29 38.2675 45.29H22.6325C21.3124 45.288 20.0056 45.026 18.7869 44.5187C17.5681 44.0115 16.4613 43.2691 15.5296 42.3339C14.5979 41.3987 13.8596 40.2891 13.3569 39.0685C12.8542 37.8478 12.597 36.5401 12.6 35.22V35.04C12.6 34.895 12.72 34.775 12.87 34.775H21.5825C21.7575 34.775 21.8825 34.9325 21.87 35.105C21.805 35.67 21.9125 36.2525 22.1825 36.78C22.6975 37.83 23.7725 38.485 24.93 38.485H29.245V35.1175H24.975C24.925 35.117 24.876 35.1028 24.8334 35.0765C24.7909 35.0502 24.7563 35.0128 24.7334 34.9683C24.7105 34.9238 24.7002 34.8739 24.7035 34.824C24.7069 34.7741 24.7238 34.726 24.7525 34.685L24.91 34.46C25.31 33.8825 25.8875 32.995 26.4625 31.98C26.8525 31.295 27.2325 30.565 27.5375 29.83C27.5975 29.7 27.645 29.5625 27.7 29.43C27.7825 29.195 27.8675 28.975 27.9275 28.7575C27.9864 28.5731 28.0406 28.3872 28.09 28.2C28.2325 27.575 28.2925 26.915 28.2925 26.2325C28.2925 25.9625 28.2825 25.68 28.2575 25.415C28.245 25.1225 28.2075 24.8275 28.1725 24.535C28.1445 24.2733 28.1045 24.013 28.0525 23.755C27.9852 23.3621 27.9035 22.9719 27.8075 22.585L27.7725 22.435C27.6975 22.165 27.6325 21.91 27.5475 21.6425C27.3095 20.821 27.0359 20.0103 26.7275 19.2125C26.6201 18.9124 26.5016 18.6164 26.3725 18.325C26.1925 17.88 26.0075 17.4775 25.84 17.1C25.7567 16.9383 25.6783 16.774 25.605 16.6075C25.5237 16.4278 25.4378 16.2503 25.3475 16.075C25.2875 15.9425 25.215 15.815 25.1675 15.695L24.64 14.725C24.5675 14.5925 24.6875 14.43 24.8325 14.4725L28.1325 15.365H28.1575L28.59 15.49L29.07 15.625L29.245 15.6725V13.715C29.245 12.7675 30 12 30.9425 12C31.1651 11.9994 31.3854 12.0438 31.5904 12.1306C31.7953 12.2174 31.9806 12.3448 32.135 12.505C32.4542 12.827 32.6338 13.2616 32.635 13.715V16.625L32.9875 16.7225C33.0125 16.735 33.0425 16.7475 33.065 16.765C33.15 16.825 33.275 16.92 33.4325 17.04C33.5575 17.135 33.69 17.255 33.845 17.3825C34.3387 17.7847 34.8173 18.205 35.28 18.6425C35.815 19.14 36.415 19.7225 36.99 20.37C37.1525 20.555 37.3075 20.735 37.47 20.935C37.625 21.1325 37.8 21.325 37.945 21.515C38.1425 21.775 38.345 22.045 38.5325 22.325C38.615 22.4575 38.7175 22.595 38.795 22.7275C39.035 23.0825 39.24 23.4475 39.4375 23.815C39.5225 23.9825 39.605 24.1675 39.6775 24.3475C39.9 24.84 40.075 25.3375 40.1825 25.8425C40.2181 25.9497 40.2424 26.0603 40.255 26.1725V26.1975C40.29 26.34 40.3025 26.4975 40.315 26.6575C40.3854 27.3964 40.295 28.1418 40.05 28.8425C39.9725 29.0525 39.9 29.2675 39.805 29.4775C39.6175 29.9025 39.4025 30.335 39.145 30.7325C39.06 30.8825 38.9575 31.0375 38.8625 31.1875C38.755 31.345 38.64 31.495 38.545 31.6375C38.4075 31.8268 38.2633 32.0111 38.1125 32.19C37.98 32.37 37.8475 32.55 37.6975 32.7125C37.495 32.9575 37.2975 33.1875 37.085 33.4075C36.965 33.5525 36.835 33.7025 36.695 33.8325C36.565 33.9825 36.425 34.115 36.305 34.235C36.095 34.445 35.93 34.6025 35.785 34.74L35.4425 35.045C35.3948 35.0929 35.3301 35.1198 35.2625 35.12H32.635V38.485H35.94C36.6775 38.485 37.38 38.225 37.95 37.74C38.1425 37.5725 38.9875 36.84 39.99 35.735C40.0227 35.6974 40.0664 35.6711 40.115 35.66L49.24 33.0175C49.2801 33.0059 49.3223 33.0038 49.3633 33.0112C49.4043 33.0187 49.4431 33.0355 49.4765 33.0605C49.5099 33.0854 49.5371 33.1178 49.5559 33.155C49.5748 33.1922 49.5847 33.2333 49.585 33.275V35.2075Z" fill="white"/>
</svg>