<svg width="60" height="50" viewBox="0 0 60 50" fill="none" xmlns="http://www.w3.org/2000/svg">
<path d="M60 5.88235C57.7916 6.91176 55.4111 7.58824 52.9446 7.91176C55.4685 6.35294 57.4187 3.88235 58.3365 0.911765C55.956 2.38235 53.3174 3.41177 50.5354 4C48.2696 1.47059 45.086 0 41.4723 0C34.7323 0 29.2256 5.64706 29.2256 12.6176C29.2256 13.6176 29.3403 14.5882 29.5411 15.5C19.3308 14.9706 10.239 9.94118 4.18738 2.32353C3.1262 4.17647 2.5239 6.35294 2.5239 8.64706C2.5239 13.0294 4.67495 16.9118 8.00191 19.1176C5.96558 19.1176 4.07266 18.5294 2.40918 17.6471V17.7353C2.40918 23.8529 6.65392 28.9706 12.2753 30.1176C10.4705 30.6241 8.5758 30.6946 6.73996 30.3235C7.51895 32.8308 9.04456 35.0247 11.1023 36.5969C13.1601 38.169 15.6466 39.0403 18.2122 39.0882C13.8632 42.6189 8.47227 44.5274 2.92543 44.5C1.95029 44.5 0.975144 44.4412 0 44.3235C5.44933 47.9118 11.9312 50 18.8719 50C41.4723 50 53.891 30.7647 53.891 14.0882C53.891 13.5294 53.891 13 53.8623 12.4412C56.2715 10.6765 58.3365 8.44118 60 5.88235Z" fill="white"/>
</svg>